%FSLAX45Y45*%
G04 Gerber Fmt 4.5, Leading zero omitted, Abs format (unit mm)*
G04 Created by KiCad (PCBNEW 4.0.7) date 01/31/20 11:09:47*
%MOMM*%
%LPD*%
G01*
G04 APERTURE LIST*
%ADD10C,0.127000*%
%ADD11C,0.150000*%
%ADD12C,0.200000*%
%ADD13C,0.300000*%
G04 APERTURE END LIST*
D10*
D11*
X0Y0D02*
X127000Y0D01*
X0Y-10033000D02*
X0Y0D01*
X13335000Y-10033000D02*
X0Y-10033000D01*
X13335000Y0D02*
X13335000Y-10033000D01*
X127000Y0D02*
X13335000Y0D01*
D12*
X1504000Y-6965000D02*
X1544000Y-7005000D01*
X1544000Y-6965000D02*
X1504000Y-7005000D01*
X1504000Y-7219000D02*
X1544000Y-7259000D01*
X1544000Y-7219000D02*
X1504000Y-7259000D01*
X1758000Y-6965000D02*
X1798000Y-7005000D01*
X1798000Y-6965000D02*
X1758000Y-7005000D01*
X1885000Y-6076000D02*
X1925000Y-6116000D01*
X1925000Y-6076000D02*
X1885000Y-6116000D01*
X1885000Y-6203000D02*
X1925000Y-6243000D01*
X1925000Y-6203000D02*
X1885000Y-6243000D01*
X1885000Y-6330000D02*
X1925000Y-6370000D01*
X1925000Y-6330000D02*
X1885000Y-6370000D01*
X2266000Y-7219000D02*
X2306000Y-7259000D01*
X2306000Y-7219000D02*
X2266000Y-7259000D01*
X2393000Y-6076000D02*
X2433000Y-6116000D01*
X2433000Y-6076000D02*
X2393000Y-6116000D01*
X2393000Y-8616000D02*
X2433000Y-8656000D01*
X2433000Y-8616000D02*
X2393000Y-8656000D01*
X2520000Y-6203000D02*
X2560000Y-6243000D01*
X2560000Y-6203000D02*
X2520000Y-6243000D01*
X2520000Y-7981000D02*
X2560000Y-8021000D01*
X2560000Y-7981000D02*
X2520000Y-8021000D01*
X2647000Y-6330000D02*
X2687000Y-6370000D01*
X2687000Y-6330000D02*
X2647000Y-6370000D01*
X2774000Y-6203000D02*
X2814000Y-6243000D01*
X2814000Y-6203000D02*
X2774000Y-6243000D01*
X2901000Y-6076000D02*
X2941000Y-6116000D01*
X2941000Y-6076000D02*
X2901000Y-6116000D01*
X3028000Y-2520000D02*
X3068000Y-2560000D01*
X3068000Y-2520000D02*
X3028000Y-2560000D01*
X3155000Y-2647000D02*
X3195000Y-2687000D01*
X3195000Y-2647000D02*
X3155000Y-2687000D01*
X3282000Y-488000D02*
X3322000Y-528000D01*
X3322000Y-488000D02*
X3282000Y-528000D01*
X3282000Y-2774000D02*
X3322000Y-2814000D01*
X3322000Y-2774000D02*
X3282000Y-2814000D01*
X3409000Y-615000D02*
X3449000Y-655000D01*
X3449000Y-615000D02*
X3409000Y-655000D01*
X3409000Y-2901000D02*
X3449000Y-2941000D01*
X3449000Y-2901000D02*
X3409000Y-2941000D01*
X3536000Y-742000D02*
X3576000Y-782000D01*
X3576000Y-742000D02*
X3536000Y-782000D01*
X3536000Y-3028000D02*
X3576000Y-3068000D01*
X3576000Y-3028000D02*
X3536000Y-3068000D01*
X3663000Y-3155000D02*
X3703000Y-3195000D01*
X3703000Y-3155000D02*
X3663000Y-3195000D01*
X3790000Y-3282000D02*
X3830000Y-3322000D01*
X3830000Y-3282000D02*
X3790000Y-3322000D01*
X4044000Y-2520000D02*
X4084000Y-2560000D01*
X4084000Y-2520000D02*
X4044000Y-2560000D01*
X4044000Y-2647000D02*
X4084000Y-2687000D01*
X4084000Y-2647000D02*
X4044000Y-2687000D01*
X4044000Y-2774000D02*
X4084000Y-2814000D01*
X4084000Y-2774000D02*
X4044000Y-2814000D01*
X4044000Y-2901000D02*
X4084000Y-2941000D01*
X4084000Y-2901000D02*
X4044000Y-2941000D01*
X4044000Y-3028000D02*
X4084000Y-3068000D01*
X4084000Y-3028000D02*
X4044000Y-3068000D01*
X4044000Y-3155000D02*
X4084000Y-3195000D01*
X4084000Y-3155000D02*
X4044000Y-3195000D01*
X4044000Y-3282000D02*
X4084000Y-3322000D01*
X4084000Y-3282000D02*
X4044000Y-3322000D01*
X4044000Y-3409000D02*
X4084000Y-3449000D01*
X4084000Y-3409000D02*
X4044000Y-3449000D01*
X4044000Y-5822000D02*
X4084000Y-5862000D01*
X4084000Y-5822000D02*
X4044000Y-5862000D01*
X4044000Y-6203000D02*
X4084000Y-6243000D01*
X4084000Y-6203000D02*
X4044000Y-6243000D01*
X4171000Y-6584000D02*
X4211000Y-6624000D01*
X4211000Y-6584000D02*
X4171000Y-6624000D01*
X4298000Y-5822000D02*
X4338000Y-5862000D01*
X4338000Y-5822000D02*
X4298000Y-5862000D01*
X4298000Y-6076000D02*
X4338000Y-6116000D01*
X4338000Y-6076000D02*
X4298000Y-6116000D01*
X4298000Y-6203000D02*
X4338000Y-6243000D01*
X4338000Y-6203000D02*
X4298000Y-6243000D01*
X4425000Y-5822000D02*
X4465000Y-5862000D01*
X4465000Y-5822000D02*
X4425000Y-5862000D01*
X4552000Y-5949000D02*
X4592000Y-5989000D01*
X4592000Y-5949000D02*
X4552000Y-5989000D01*
X4552000Y-6076000D02*
X4592000Y-6116000D01*
X4592000Y-6076000D02*
X4552000Y-6116000D01*
X4806000Y-6076000D02*
X4846000Y-6116000D01*
X4846000Y-6076000D02*
X4806000Y-6116000D01*
X5060000Y-488000D02*
X5100000Y-528000D01*
X5100000Y-488000D02*
X5060000Y-528000D01*
X5060000Y-2012000D02*
X5100000Y-2052000D01*
X5100000Y-2012000D02*
X5060000Y-2052000D01*
X5060000Y-3282000D02*
X5100000Y-3322000D01*
X5100000Y-3282000D02*
X5060000Y-3322000D01*
X5187000Y-615000D02*
X5227000Y-655000D01*
X5227000Y-615000D02*
X5187000Y-655000D01*
X5314000Y-742000D02*
X5354000Y-782000D01*
X5354000Y-742000D02*
X5314000Y-782000D01*
X5441000Y-2012000D02*
X5481000Y-2052000D01*
X5481000Y-2012000D02*
X5441000Y-2052000D01*
X5441000Y-2393000D02*
X5481000Y-2433000D01*
X5481000Y-2393000D02*
X5441000Y-2433000D01*
X5441000Y-3028000D02*
X5481000Y-3068000D01*
X5481000Y-3028000D02*
X5441000Y-3068000D01*
X5568000Y-2520000D02*
X5608000Y-2560000D01*
X5608000Y-2520000D02*
X5568000Y-2560000D01*
X5568000Y-3028000D02*
X5608000Y-3068000D01*
X5608000Y-3028000D02*
X5568000Y-3068000D01*
X5695000Y-3282000D02*
X5735000Y-3322000D01*
X5735000Y-3282000D02*
X5695000Y-3322000D01*
X5822000Y-6203000D02*
X5862000Y-6243000D01*
X5862000Y-6203000D02*
X5822000Y-6243000D01*
X5949000Y-3028000D02*
X5989000Y-3068000D01*
X5989000Y-3028000D02*
X5949000Y-3068000D01*
X5949000Y-3155000D02*
X5989000Y-3195000D01*
X5989000Y-3155000D02*
X5949000Y-3195000D01*
X5949000Y-6076000D02*
X5989000Y-6116000D01*
X5989000Y-6076000D02*
X5949000Y-6116000D01*
X6076000Y-6076000D02*
X6116000Y-6116000D01*
X6116000Y-6076000D02*
X6076000Y-6116000D01*
X6203000Y-2647000D02*
X6243000Y-2687000D01*
X6243000Y-2647000D02*
X6203000Y-2687000D01*
X6203000Y-3028000D02*
X6243000Y-3068000D01*
X6243000Y-3028000D02*
X6203000Y-3068000D01*
X6203000Y-7854000D02*
X6243000Y-7894000D01*
X6243000Y-7854000D02*
X6203000Y-7894000D01*
X6330000Y-2266000D02*
X6370000Y-2306000D01*
X6370000Y-2266000D02*
X6330000Y-2306000D01*
X6330000Y-2774000D02*
X6370000Y-2814000D01*
X6370000Y-2774000D02*
X6330000Y-2814000D01*
X6330000Y-3028000D02*
X6370000Y-3068000D01*
X6370000Y-3028000D02*
X6330000Y-3068000D01*
X6330000Y-8489000D02*
X6370000Y-8529000D01*
X6370000Y-8489000D02*
X6330000Y-8529000D01*
X6584000Y-2139000D02*
X6624000Y-2179000D01*
X6624000Y-2139000D02*
X6584000Y-2179000D01*
X6584000Y-3155000D02*
X6624000Y-3195000D01*
X6624000Y-3155000D02*
X6584000Y-3195000D01*
X6584000Y-5949000D02*
X6624000Y-5989000D01*
X6624000Y-5949000D02*
X6584000Y-5989000D01*
X6584000Y-6203000D02*
X6624000Y-6243000D01*
X6624000Y-6203000D02*
X6584000Y-6243000D01*
X6711000Y-2012000D02*
X6751000Y-2052000D01*
X6751000Y-2012000D02*
X6711000Y-2052000D01*
X6711000Y-3028000D02*
X6751000Y-3068000D01*
X6751000Y-3028000D02*
X6711000Y-3068000D01*
X6838000Y-488000D02*
X6878000Y-528000D01*
X6878000Y-488000D02*
X6838000Y-528000D01*
X6838000Y-1885000D02*
X6878000Y-1925000D01*
X6878000Y-1885000D02*
X6838000Y-1925000D01*
X6838000Y-2266000D02*
X6878000Y-2306000D01*
X6878000Y-2266000D02*
X6838000Y-2306000D01*
X6838000Y-3028000D02*
X6878000Y-3068000D01*
X6878000Y-3028000D02*
X6838000Y-3068000D01*
X6965000Y-615000D02*
X7005000Y-655000D01*
X7005000Y-615000D02*
X6965000Y-655000D01*
X6965000Y-3028000D02*
X7005000Y-3068000D01*
X7005000Y-3028000D02*
X6965000Y-3068000D01*
X6965000Y-5949000D02*
X7005000Y-5989000D01*
X7005000Y-5949000D02*
X6965000Y-5989000D01*
X7092000Y-742000D02*
X7132000Y-782000D01*
X7132000Y-742000D02*
X7092000Y-782000D01*
X7092000Y-3028000D02*
X7132000Y-3068000D01*
X7132000Y-3028000D02*
X7092000Y-3068000D01*
X7219000Y-742000D02*
X7259000Y-782000D01*
X7259000Y-742000D02*
X7219000Y-782000D01*
X7727000Y-2901000D02*
X7767000Y-2941000D01*
X7767000Y-2901000D02*
X7727000Y-2941000D01*
X8235000Y-7473000D02*
X8275000Y-7513000D01*
X8275000Y-7473000D02*
X8235000Y-7513000D01*
X8235000Y-7600000D02*
X8275000Y-7640000D01*
X8275000Y-7600000D02*
X8235000Y-7640000D01*
X8235000Y-7727000D02*
X8275000Y-7767000D01*
X8275000Y-7727000D02*
X8235000Y-7767000D01*
X8235000Y-7854000D02*
X8275000Y-7894000D01*
X8275000Y-7854000D02*
X8235000Y-7894000D01*
X8235000Y-7981000D02*
X8275000Y-8021000D01*
X8275000Y-7981000D02*
X8235000Y-8021000D01*
X8362000Y-2266000D02*
X8402000Y-2306000D01*
X8402000Y-2266000D02*
X8362000Y-2306000D01*
X8362000Y-7346000D02*
X8402000Y-7386000D01*
X8402000Y-7346000D02*
X8362000Y-7386000D01*
X8489000Y-7219000D02*
X8529000Y-7259000D01*
X8529000Y-7219000D02*
X8489000Y-7259000D01*
X8870000Y-7600000D02*
X8910000Y-7640000D01*
X8910000Y-7600000D02*
X8870000Y-7640000D01*
X8870000Y-7727000D02*
X8910000Y-7767000D01*
X8910000Y-7727000D02*
X8870000Y-7767000D01*
X8870000Y-7854000D02*
X8910000Y-7894000D01*
X8910000Y-7854000D02*
X8870000Y-7894000D01*
X8997000Y-2393000D02*
X9037000Y-2433000D01*
X9037000Y-2393000D02*
X8997000Y-2433000D01*
X8997000Y-7981000D02*
X9037000Y-8021000D01*
X9037000Y-7981000D02*
X8997000Y-8021000D01*
X9124000Y-8108000D02*
X9164000Y-8148000D01*
X9164000Y-8108000D02*
X9124000Y-8148000D01*
X9251000Y-3917000D02*
X9291000Y-3957000D01*
X9291000Y-3917000D02*
X9251000Y-3957000D01*
X9251000Y-8108000D02*
X9291000Y-8148000D01*
X9291000Y-8108000D02*
X9251000Y-8148000D01*
X9378000Y-1758000D02*
X9418000Y-1798000D01*
X9418000Y-1758000D02*
X9378000Y-1798000D01*
X9378000Y-3282000D02*
X9418000Y-3322000D01*
X9418000Y-3282000D02*
X9378000Y-3322000D01*
X9378000Y-4171000D02*
X9418000Y-4211000D01*
X9418000Y-4171000D02*
X9378000Y-4211000D01*
X9378000Y-7981000D02*
X9418000Y-8021000D01*
X9418000Y-7981000D02*
X9378000Y-8021000D01*
X9505000Y-1758000D02*
X9545000Y-1798000D01*
X9545000Y-1758000D02*
X9505000Y-1798000D01*
X9505000Y-3536000D02*
X9545000Y-3576000D01*
X9545000Y-3536000D02*
X9505000Y-3576000D01*
X9505000Y-7854000D02*
X9545000Y-7894000D01*
X9545000Y-7854000D02*
X9505000Y-7894000D01*
X9632000Y-3917000D02*
X9672000Y-3957000D01*
X9672000Y-3917000D02*
X9632000Y-3957000D01*
X9632000Y-7727000D02*
X9672000Y-7767000D01*
X9672000Y-7727000D02*
X9632000Y-7767000D01*
X10013000Y-1758000D02*
X10053000Y-1798000D01*
X10053000Y-1758000D02*
X10013000Y-1798000D01*
X10013000Y-1885000D02*
X10053000Y-1925000D01*
X10053000Y-1885000D02*
X10013000Y-1925000D01*
X10267000Y-6457000D02*
X10307000Y-6497000D01*
X10307000Y-6457000D02*
X10267000Y-6497000D01*
X10394000Y-6457000D02*
X10434000Y-6497000D01*
X10434000Y-6457000D02*
X10394000Y-6497000D01*
X10648000Y-7854000D02*
X10688000Y-7894000D01*
X10688000Y-7854000D02*
X10648000Y-7894000D01*
X10902000Y-5441000D02*
X10942000Y-5481000D01*
X10942000Y-5441000D02*
X10902000Y-5481000D01*
X10902000Y-6076000D02*
X10942000Y-6116000D01*
X10942000Y-6076000D02*
X10902000Y-6116000D01*
X11029000Y-5568000D02*
X11069000Y-5608000D01*
X11069000Y-5568000D02*
X11029000Y-5608000D01*
X11029000Y-5822000D02*
X11069000Y-5862000D01*
X11069000Y-5822000D02*
X11029000Y-5862000D01*
X11156000Y-5568000D02*
X11196000Y-5608000D01*
X11196000Y-5568000D02*
X11156000Y-5608000D01*
X11156000Y-5949000D02*
X11196000Y-5989000D01*
X11196000Y-5949000D02*
X11156000Y-5989000D01*
X11283000Y-5949000D02*
X11323000Y-5989000D01*
X11323000Y-5949000D02*
X11283000Y-5989000D01*
X11283000Y-6203000D02*
X11323000Y-6243000D01*
X11323000Y-6203000D02*
X11283000Y-6243000D01*
X11283000Y-6330000D02*
X11323000Y-6370000D01*
X11323000Y-6330000D02*
X11283000Y-6370000D01*
X11283000Y-6457000D02*
X11323000Y-6497000D01*
X11323000Y-6457000D02*
X11283000Y-6497000D01*
X11537000Y-5314000D02*
X11577000Y-5354000D01*
X11577000Y-5314000D02*
X11537000Y-5354000D01*
X11537000Y-7854000D02*
X11577000Y-7894000D01*
X11577000Y-7854000D02*
X11537000Y-7894000D01*
X11918000Y-5822000D02*
X11958000Y-5862000D01*
X11958000Y-5822000D02*
X11918000Y-5862000D01*
X11918000Y-5949000D02*
X11958000Y-5989000D01*
X11958000Y-5949000D02*
X11918000Y-5989000D01*
X11918000Y-6076000D02*
X11958000Y-6116000D01*
X11958000Y-6076000D02*
X11918000Y-6116000D01*
X11918000Y-6203000D02*
X11958000Y-6243000D01*
X11958000Y-6203000D02*
X11918000Y-6243000D01*
X12426000Y-5187000D02*
X12466000Y-5227000D01*
X12466000Y-5187000D02*
X12426000Y-5227000D01*
X12426000Y-5314000D02*
X12466000Y-5354000D01*
X12466000Y-5314000D02*
X12426000Y-5354000D01*
X12426000Y-5568000D02*
X12466000Y-5608000D01*
X12466000Y-5568000D02*
X12426000Y-5608000D01*
X670000Y-3048000D02*
G75*
G03X670000Y-3048000I-35000J0D01*
G01*
X670000Y-5461000D02*
G75*
G03X670000Y-5461000I-35000J0D01*
G01*
X924000Y-1524000D02*
G75*
G03X924000Y-1524000I-35000J0D01*
G01*
X924000Y-4318000D02*
G75*
G03X924000Y-4318000I-35000J0D01*
G01*
X924000Y-6731000D02*
G75*
G03X924000Y-6731000I-35000J0D01*
G01*
X1305000Y-6096000D02*
G75*
G03X1305000Y-6096000I-35000J0D01*
G01*
X1432000Y-4953000D02*
G75*
G03X1432000Y-4953000I-35000J0D01*
G01*
X1686000Y-4064000D02*
G75*
G03X1686000Y-4064000I-35000J0D01*
G01*
X1813000Y-1524000D02*
G75*
G03X1813000Y-1524000I-35000J0D01*
G01*
X1813000Y-5588000D02*
G75*
G03X1813000Y-5588000I-35000J0D01*
G01*
X1940000Y-508000D02*
G75*
G03X1940000Y-508000I-35000J0D01*
G01*
X1940000Y-9652000D02*
G75*
G03X1940000Y-9652000I-35000J0D01*
G01*
X2194000Y-2667000D02*
G75*
G03X2194000Y-2667000I-35000J0D01*
G01*
X2194000Y-3429000D02*
G75*
G03X2194000Y-3429000I-35000J0D01*
G01*
X2321000Y-1016000D02*
G75*
G03X2321000Y-1016000I-35000J0D01*
G01*
X2384500Y-5030470D02*
G75*
G03X2384500Y-5030470I-35000J0D01*
G01*
X2448000Y-6604000D02*
G75*
G03X2448000Y-6604000I-35000J0D01*
G01*
X2575000Y-2159000D02*
G75*
G03X2575000Y-2159000I-35000J0D01*
G01*
X2575000Y-9144000D02*
G75*
G03X2575000Y-9144000I-35000J0D01*
G01*
X2829000Y-381000D02*
G75*
G03X2829000Y-381000I-35000J0D01*
G01*
X2829000Y-3048000D02*
G75*
G03X2829000Y-3048000I-35000J0D01*
G01*
X2829000Y-5030470D02*
G75*
G03X2829000Y-5030470I-35000J0D01*
G01*
X2956000Y-6477000D02*
G75*
G03X2956000Y-6477000I-35000J0D01*
G01*
X3210000Y-8890000D02*
G75*
G03X3210000Y-8890000I-35000J0D01*
G01*
X3337000Y-4191000D02*
G75*
G03X3337000Y-4191000I-35000J0D01*
G01*
X3337000Y-6096000D02*
G75*
G03X3337000Y-6096000I-35000J0D01*
G01*
X3591000Y-9652000D02*
G75*
G03X3591000Y-9652000I-35000J0D01*
G01*
X3718000Y-3810000D02*
G75*
G03X3718000Y-3810000I-35000J0D01*
G01*
X3718000Y-5715000D02*
G75*
G03X3718000Y-5715000I-35000J0D01*
G01*
X3845000Y-4445000D02*
G75*
G03X3845000Y-4445000I-35000J0D01*
G01*
X3845000Y-4826000D02*
G75*
G03X3845000Y-4826000I-35000J0D01*
G01*
X3845000Y-8255000D02*
G75*
G03X3845000Y-8255000I-35000J0D01*
G01*
X3972000Y-2159000D02*
G75*
G03X3972000Y-2159000I-35000J0D01*
G01*
X3972000Y-5207000D02*
G75*
G03X3972000Y-5207000I-35000J0D01*
G01*
X3972000Y-9144000D02*
G75*
G03X3972000Y-9144000I-35000J0D01*
G01*
X4099000Y-5080000D02*
G75*
G03X4099000Y-5080000I-35000J0D01*
G01*
X4226000Y-7874000D02*
G75*
G03X4226000Y-7874000I-35000J0D01*
G01*
X4226000Y-8509000D02*
G75*
G03X4226000Y-8509000I-35000J0D01*
G01*
X4353000Y-7366000D02*
G75*
G03X4353000Y-7366000I-35000J0D01*
G01*
X4480000Y-5143500D02*
G75*
G03X4480000Y-5143500I-35000J0D01*
G01*
X4480000Y-8890000D02*
G75*
G03X4480000Y-8890000I-35000J0D01*
G01*
X4607000Y-8255000D02*
G75*
G03X4607000Y-8255000I-35000J0D01*
G01*
X4734000Y-7366000D02*
G75*
G03X4734000Y-7366000I-35000J0D01*
G01*
X4861000Y-2794000D02*
G75*
G03X4861000Y-2794000I-35000J0D01*
G01*
X4988000Y-9652000D02*
G75*
G03X4988000Y-9652000I-35000J0D01*
G01*
X5051500Y-5143500D02*
G75*
G03X5051500Y-5143500I-35000J0D01*
G01*
X5115000Y-6985000D02*
G75*
G03X5115000Y-6985000I-35000J0D01*
G01*
X5242000Y-6096000D02*
G75*
G03X5242000Y-6096000I-35000J0D01*
G01*
X5432500Y-6667500D02*
G75*
G03X5432500Y-6667500I-35000J0D01*
G01*
X5623000Y-6096000D02*
G75*
G03X5623000Y-6096000I-35000J0D01*
G01*
X5877000Y-9652000D02*
G75*
G03X5877000Y-9652000I-35000J0D01*
G01*
X6766000Y-9652000D02*
G75*
G03X6766000Y-9652000I-35000J0D01*
G01*
X7274000Y-7493000D02*
G75*
G03X7274000Y-7493000I-35000J0D01*
G01*
X7274000Y-8128000D02*
G75*
G03X7274000Y-8128000I-35000J0D01*
G01*
X7401000Y-5969000D02*
G75*
G03X7401000Y-5969000I-35000J0D01*
G01*
X7782000Y-635000D02*
G75*
G03X7782000Y-635000I-35000J0D01*
G01*
X7782000Y-889000D02*
G75*
G03X7782000Y-889000I-35000J0D01*
G01*
X7782000Y-9652000D02*
G75*
G03X7782000Y-9652000I-35000J0D01*
G01*
X8798000Y-9652000D02*
G75*
G03X8798000Y-9652000I-35000J0D01*
G01*
X9179000Y-2921000D02*
G75*
G03X9179000Y-2921000I-35000J0D01*
G01*
X9179000Y-3810000D02*
G75*
G03X9179000Y-3810000I-35000J0D01*
G01*
X9179000Y-4699000D02*
G75*
G03X9179000Y-4699000I-35000J0D01*
G01*
X9179000Y-5461000D02*
G75*
G03X9179000Y-5461000I-35000J0D01*
G01*
X9306000Y-635000D02*
G75*
G03X9306000Y-635000I-35000J0D01*
G01*
X9306000Y-889000D02*
G75*
G03X9306000Y-889000I-35000J0D01*
G01*
X9941000Y-9652000D02*
G75*
G03X9941000Y-9652000I-35000J0D01*
G01*
X10576000Y-381000D02*
G75*
G03X10576000Y-381000I-35000J0D01*
G01*
X10576000Y-4572000D02*
G75*
G03X10576000Y-4572000I-35000J0D01*
G01*
X10576000Y-4889500D02*
G75*
G03X10576000Y-4889500I-35000J0D01*
G01*
X10703000Y-1270000D02*
G75*
G03X10703000Y-1270000I-35000J0D01*
G01*
X10830000Y-3683000D02*
G75*
G03X10830000Y-3683000I-35000J0D01*
G01*
X10830000Y-3937000D02*
G75*
G03X10830000Y-3937000I-35000J0D01*
G01*
X10830000Y-9271000D02*
G75*
G03X10830000Y-9271000I-35000J0D01*
G01*
X10957000Y-1778000D02*
G75*
G03X10957000Y-1778000I-35000J0D01*
G01*
X10957000Y-2413000D02*
G75*
G03X10957000Y-2413000I-35000J0D01*
G01*
X10957000Y-3048000D02*
G75*
G03X10957000Y-3048000I-35000J0D01*
G01*
X11211000Y-3048000D02*
G75*
G03X11211000Y-3048000I-35000J0D01*
G01*
X11211000Y-5334000D02*
G75*
G03X11211000Y-5334000I-35000J0D01*
G01*
X11338000Y-635000D02*
G75*
G03X11338000Y-635000I-35000J0D01*
G01*
X11338000Y-5207000D02*
G75*
G03X11338000Y-5207000I-35000J0D01*
G01*
X11338000Y-9652000D02*
G75*
G03X11338000Y-9652000I-35000J0D01*
G01*
X11465000Y-8636000D02*
G75*
G03X11465000Y-8636000I-35000J0D01*
G01*
X11655500Y-7429500D02*
G75*
G03X11655500Y-7429500I-35000J0D01*
G01*
X11846000Y-9271000D02*
G75*
G03X11846000Y-9271000I-35000J0D01*
G01*
X12100000Y-381000D02*
G75*
G03X12100000Y-381000I-35000J0D01*
G01*
X12100000Y-7874000D02*
G75*
G03X12100000Y-7874000I-35000J0D01*
G01*
X12354000Y-8636000D02*
G75*
G03X12354000Y-8636000I-35000J0D01*
G01*
X12735000Y-3175000D02*
G75*
G03X12735000Y-3175000I-35000J0D01*
G01*
X12862000Y-2349500D02*
G75*
G03X12862000Y-2349500I-35000J0D01*
G01*
X12989000Y-1270000D02*
G75*
G03X12989000Y-1270000I-35000J0D01*
G01*
X12989000Y-5588000D02*
G75*
G03X12989000Y-5588000I-35000J0D01*
G01*
X12989000Y-6032500D02*
G75*
G03X12989000Y-6032500I-35000J0D01*
G01*
X12989000Y-7874000D02*
G75*
G03X12989000Y-7874000I-35000J0D01*
G01*
X12989000Y-8636000D02*
G75*
G03X12989000Y-8636000I-35000J0D01*
G01*
X2667000Y-1733000D02*
X2667000Y-1823000D01*
X2622000Y-1778000D02*
X2712000Y-1778000D01*
X2794000Y-1860000D02*
X2794000Y-1950000D01*
X2749000Y-1905000D02*
X2839000Y-1905000D01*
X4064000Y-3638000D02*
X4064000Y-3728000D01*
X4019000Y-3683000D02*
X4109000Y-3683000D01*
X4064000Y-3892000D02*
X4064000Y-3982000D01*
X4019000Y-3937000D02*
X4109000Y-3937000D01*
X4445000Y-971000D02*
X4445000Y-1061000D01*
X4400000Y-1016000D02*
X4490000Y-1016000D01*
X4445000Y-1860000D02*
X4445000Y-1950000D01*
X4400000Y-1905000D02*
X4490000Y-1905000D01*
X4445000Y-2114000D02*
X4445000Y-2204000D01*
X4400000Y-2159000D02*
X4490000Y-2159000D01*
X5588000Y-1860000D02*
X5588000Y-1950000D01*
X5543000Y-1905000D02*
X5633000Y-1905000D01*
X5588000Y-4527000D02*
X5588000Y-4617000D01*
X5543000Y-4572000D02*
X5633000Y-4572000D01*
X5715000Y-1987000D02*
X5715000Y-2077000D01*
X5670000Y-2032000D02*
X5760000Y-2032000D01*
X5715000Y-5543000D02*
X5715000Y-5633000D01*
X5670000Y-5588000D02*
X5760000Y-5588000D01*
X5842000Y-4527000D02*
X5842000Y-4617000D01*
X5797000Y-4572000D02*
X5887000Y-4572000D01*
X5842000Y-5670000D02*
X5842000Y-5760000D01*
X5797000Y-5715000D02*
X5887000Y-5715000D01*
X5969000Y-971000D02*
X5969000Y-1061000D01*
X5924000Y-1016000D02*
X6014000Y-1016000D01*
X6096000Y-1860000D02*
X6096000Y-1950000D01*
X6051000Y-1905000D02*
X6141000Y-1905000D01*
X6223000Y-971000D02*
X6223000Y-1061000D01*
X6178000Y-1016000D02*
X6268000Y-1016000D01*
X6223000Y-1733000D02*
X6223000Y-1823000D01*
X6178000Y-1778000D02*
X6268000Y-1778000D01*
X6223000Y-9226000D02*
X6223000Y-9316000D01*
X6178000Y-9271000D02*
X6268000Y-9271000D01*
X6477000Y-9226000D02*
X6477000Y-9316000D01*
X6432000Y-9271000D02*
X6522000Y-9271000D01*
X6858000Y-6305000D02*
X6858000Y-6395000D01*
X6813000Y-6350000D02*
X6903000Y-6350000D01*
X6985000Y-6178000D02*
X6985000Y-6268000D01*
X6940000Y-6223000D02*
X7030000Y-6223000D01*
X7112000Y-8718000D02*
X7112000Y-8808000D01*
X7067000Y-8763000D02*
X7157000Y-8763000D01*
X7239000Y-8591000D02*
X7239000Y-8681000D01*
X7194000Y-8636000D02*
X7284000Y-8636000D01*
X7747000Y-1479000D02*
X7747000Y-1569000D01*
X7702000Y-1524000D02*
X7792000Y-1524000D01*
X7874000Y-4781000D02*
X7874000Y-4871000D01*
X7829000Y-4826000D02*
X7919000Y-4826000D01*
X7874000Y-6940000D02*
X7874000Y-7030000D01*
X7829000Y-6985000D02*
X7919000Y-6985000D01*
X8001000Y-1479000D02*
X8001000Y-1569000D01*
X7956000Y-1524000D02*
X8046000Y-1524000D01*
X8001000Y-4908000D02*
X8001000Y-4998000D01*
X7956000Y-4953000D02*
X8046000Y-4953000D01*
X8128000Y-5924000D02*
X8128000Y-6014000D01*
X8083000Y-5969000D02*
X8173000Y-5969000D01*
X8128000Y-6178000D02*
X8128000Y-6268000D01*
X8083000Y-6223000D02*
X8173000Y-6223000D01*
X8128000Y-6940000D02*
X8128000Y-7030000D01*
X8083000Y-6985000D02*
X8173000Y-6985000D01*
X8128000Y-8591000D02*
X8128000Y-8681000D01*
X8083000Y-8636000D02*
X8173000Y-8636000D01*
X8382000Y-8972000D02*
X8382000Y-9062000D01*
X8337000Y-9017000D02*
X8427000Y-9017000D01*
X8953500Y-6876500D02*
X8953500Y-6966500D01*
X8908500Y-6921500D02*
X8998500Y-6921500D01*
X9144000Y-1098000D02*
X9144000Y-1188000D01*
X9099000Y-1143000D02*
X9189000Y-1143000D01*
X9144000Y-6686000D02*
X9144000Y-6776000D01*
X9099000Y-6731000D02*
X9189000Y-6731000D01*
X9271000Y-1225000D02*
X9271000Y-1315000D01*
X9226000Y-1270000D02*
X9316000Y-1270000D01*
X9525000Y-8845000D02*
X9525000Y-8935000D01*
X9480000Y-8890000D02*
X9570000Y-8890000D01*
X9652000Y-8718000D02*
X9652000Y-8808000D01*
X9607000Y-8763000D02*
X9697000Y-8763000D01*
X9779000Y-971000D02*
X9779000Y-1061000D01*
X9734000Y-1016000D02*
X9824000Y-1016000D01*
X9779000Y-1225000D02*
X9779000Y-1315000D01*
X9734000Y-1270000D02*
X9824000Y-1270000D01*
X9779000Y-7321000D02*
X9779000Y-7411000D01*
X9734000Y-7366000D02*
X9824000Y-7366000D01*
X10033000Y-7321000D02*
X10033000Y-7411000D01*
X9988000Y-7366000D02*
X10078000Y-7366000D01*
X10477500Y-1669500D02*
X10477500Y-1759500D01*
X10432500Y-1714500D02*
X10522500Y-1714500D01*
X10668000Y-6559000D02*
X10668000Y-6649000D01*
X10623000Y-6604000D02*
X10713000Y-6604000D01*
X10668000Y-7575000D02*
X10668000Y-7665000D01*
X10623000Y-7620000D02*
X10713000Y-7620000D01*
X10795000Y-6686000D02*
X10795000Y-6776000D01*
X10750000Y-6731000D02*
X10840000Y-6731000D01*
X11176000Y-1860000D02*
X11176000Y-1950000D01*
X11131000Y-1905000D02*
X11221000Y-1905000D01*
X11176000Y-2114000D02*
X11176000Y-2204000D01*
X11131000Y-2159000D02*
X11221000Y-2159000D01*
X11303000Y-6686000D02*
X11303000Y-6776000D01*
X11258000Y-6731000D02*
X11348000Y-6731000D01*
X11430000Y-4781000D02*
X11430000Y-4871000D01*
X11385000Y-4826000D02*
X11475000Y-4826000D01*
X11811000Y-7067000D02*
X11811000Y-7157000D01*
X11766000Y-7112000D02*
X11856000Y-7112000D01*
X11938000Y-4844500D02*
X11938000Y-4934500D01*
X11893000Y-4889500D02*
X11983000Y-4889500D01*
X12065000Y-7067000D02*
X12065000Y-7157000D01*
X12020000Y-7112000D02*
X12110000Y-7112000D01*
X12192000Y-4844500D02*
X12192000Y-4934500D01*
X12147000Y-4889500D02*
X12237000Y-4889500D01*
X12446000Y-7448000D02*
X12446000Y-7538000D01*
X12401000Y-7493000D02*
X12491000Y-7493000D01*
X12573000Y-7321000D02*
X12573000Y-7411000D01*
X12528000Y-7366000D02*
X12618000Y-7366000D01*
X1687063Y-7402063D02*
X1687063Y-7329937D01*
X1614937Y-7329937D01*
X1614937Y-7402063D01*
X1687063Y-7402063D01*
X1687063Y-7656063D02*
X1687063Y-7583937D01*
X1614937Y-7583937D01*
X1614937Y-7656063D01*
X1687063Y-7656063D01*
X1687063Y-7910063D02*
X1687063Y-7837937D01*
X1614937Y-7837937D01*
X1614937Y-7910063D01*
X1687063Y-7910063D01*
X1687063Y-8164063D02*
X1687063Y-8091937D01*
X1614937Y-8091937D01*
X1614937Y-8164063D01*
X1687063Y-8164063D01*
X1687063Y-8418063D02*
X1687063Y-8345937D01*
X1614937Y-8345937D01*
X1614937Y-8418063D01*
X1687063Y-8418063D01*
X1687063Y-8672063D02*
X1687063Y-8599937D01*
X1614937Y-8599937D01*
X1614937Y-8672063D01*
X1687063Y-8672063D01*
X1687063Y-8926063D02*
X1687063Y-8853937D01*
X1614937Y-8853937D01*
X1614937Y-8926063D01*
X1687063Y-8926063D01*
X1687063Y-9180063D02*
X1687063Y-9107937D01*
X1614937Y-9107937D01*
X1614937Y-9180063D01*
X1687063Y-9180063D01*
X1941063Y-7402063D02*
X1941063Y-7329937D01*
X1868937Y-7329937D01*
X1868937Y-7402063D01*
X1941063Y-7402063D01*
X1941063Y-7656063D02*
X1941063Y-7583937D01*
X1868937Y-7583937D01*
X1868937Y-7656063D01*
X1941063Y-7656063D01*
X1941063Y-7910063D02*
X1941063Y-7837937D01*
X1868937Y-7837937D01*
X1868937Y-7910063D01*
X1941063Y-7910063D01*
X1941063Y-8164063D02*
X1941063Y-8091937D01*
X1868937Y-8091937D01*
X1868937Y-8164063D01*
X1941063Y-8164063D01*
X1941063Y-8418063D02*
X1941063Y-8345937D01*
X1868937Y-8345937D01*
X1868937Y-8418063D01*
X1941063Y-8418063D01*
X1941063Y-8672063D02*
X1941063Y-8599937D01*
X1868937Y-8599937D01*
X1868937Y-8672063D01*
X1941063Y-8672063D01*
X1941063Y-8926063D02*
X1941063Y-8853937D01*
X1868937Y-8853937D01*
X1868937Y-8926063D01*
X1941063Y-8926063D01*
X1941063Y-9180063D02*
X1941063Y-9107937D01*
X1868937Y-9107937D01*
X1868937Y-9180063D01*
X1941063Y-9180063D01*
X2195063Y-7402063D02*
X2195063Y-7329937D01*
X2122937Y-7329937D01*
X2122937Y-7402063D01*
X2195063Y-7402063D01*
X2195063Y-7656063D02*
X2195063Y-7583937D01*
X2122937Y-7583937D01*
X2122937Y-7656063D01*
X2195063Y-7656063D01*
X2195063Y-7910063D02*
X2195063Y-7837937D01*
X2122937Y-7837937D01*
X2122937Y-7910063D01*
X2195063Y-7910063D01*
X2195063Y-8164063D02*
X2195063Y-8091937D01*
X2122937Y-8091937D01*
X2122937Y-8164063D01*
X2195063Y-8164063D01*
X2195063Y-8418063D02*
X2195063Y-8345937D01*
X2122937Y-8345937D01*
X2122937Y-8418063D01*
X2195063Y-8418063D01*
X2195063Y-8672063D02*
X2195063Y-8599937D01*
X2122937Y-8599937D01*
X2122937Y-8672063D01*
X2195063Y-8672063D01*
X2195063Y-8926063D02*
X2195063Y-8853937D01*
X2122937Y-8853937D01*
X2122937Y-8926063D01*
X2195063Y-8926063D01*
X2195063Y-9180063D02*
X2195063Y-9107937D01*
X2122937Y-9107937D01*
X2122937Y-9180063D01*
X2195063Y-9180063D01*
X5243063Y-7402063D02*
X5243063Y-7329937D01*
X5170937Y-7329937D01*
X5170937Y-7402063D01*
X5243063Y-7402063D01*
X5243063Y-7656063D02*
X5243063Y-7583937D01*
X5170937Y-7583937D01*
X5170937Y-7656063D01*
X5243063Y-7656063D01*
X5243063Y-7910063D02*
X5243063Y-7837937D01*
X5170937Y-7837937D01*
X5170937Y-7910063D01*
X5243063Y-7910063D01*
X5243063Y-8164063D02*
X5243063Y-8091937D01*
X5170937Y-8091937D01*
X5170937Y-8164063D01*
X5243063Y-8164063D01*
X5243063Y-8418063D02*
X5243063Y-8345937D01*
X5170937Y-8345937D01*
X5170937Y-8418063D01*
X5243063Y-8418063D01*
X5243063Y-8672063D02*
X5243063Y-8599937D01*
X5170937Y-8599937D01*
X5170937Y-8672063D01*
X5243063Y-8672063D01*
X5243063Y-8926063D02*
X5243063Y-8853937D01*
X5170937Y-8853937D01*
X5170937Y-8926063D01*
X5243063Y-8926063D01*
X5243063Y-9180063D02*
X5243063Y-9107937D01*
X5170937Y-9107937D01*
X5170937Y-9180063D01*
X5243063Y-9180063D01*
X5497063Y-7402063D02*
X5497063Y-7329937D01*
X5424937Y-7329937D01*
X5424937Y-7402063D01*
X5497063Y-7402063D01*
X5497063Y-7656063D02*
X5497063Y-7583937D01*
X5424937Y-7583937D01*
X5424937Y-7656063D01*
X5497063Y-7656063D01*
X5497063Y-7910063D02*
X5497063Y-7837937D01*
X5424937Y-7837937D01*
X5424937Y-7910063D01*
X5497063Y-7910063D01*
X5497063Y-8164063D02*
X5497063Y-8091937D01*
X5424937Y-8091937D01*
X5424937Y-8164063D01*
X5497063Y-8164063D01*
X5497063Y-8418063D02*
X5497063Y-8345937D01*
X5424937Y-8345937D01*
X5424937Y-8418063D01*
X5497063Y-8418063D01*
X5497063Y-8672063D02*
X5497063Y-8599937D01*
X5424937Y-8599937D01*
X5424937Y-8672063D01*
X5497063Y-8672063D01*
X5497063Y-8926063D02*
X5497063Y-8853937D01*
X5424937Y-8853937D01*
X5424937Y-8926063D01*
X5497063Y-8926063D01*
X5497063Y-9180063D02*
X5497063Y-9107937D01*
X5424937Y-9107937D01*
X5424937Y-9180063D01*
X5497063Y-9180063D01*
X5751063Y-7402063D02*
X5751063Y-7329937D01*
X5678937Y-7329937D01*
X5678937Y-7402063D01*
X5751063Y-7402063D01*
X5751063Y-7656063D02*
X5751063Y-7583937D01*
X5678937Y-7583937D01*
X5678937Y-7656063D01*
X5751063Y-7656063D01*
X5751063Y-7910063D02*
X5751063Y-7837937D01*
X5678937Y-7837937D01*
X5678937Y-7910063D01*
X5751063Y-7910063D01*
X5751063Y-8164063D02*
X5751063Y-8091937D01*
X5678937Y-8091937D01*
X5678937Y-8164063D01*
X5751063Y-8164063D01*
X5751063Y-8418063D02*
X5751063Y-8345937D01*
X5678937Y-8345937D01*
X5678937Y-8418063D01*
X5751063Y-8418063D01*
X5751063Y-8672063D02*
X5751063Y-8599937D01*
X5678937Y-8599937D01*
X5678937Y-8672063D01*
X5751063Y-8672063D01*
X5751063Y-8926063D02*
X5751063Y-8853937D01*
X5678937Y-8853937D01*
X5678937Y-8926063D01*
X5751063Y-8926063D01*
X5751063Y-9180063D02*
X5751063Y-9107937D01*
X5678937Y-9107937D01*
X5678937Y-9180063D01*
X5751063Y-9180063D01*
X6894063Y-6767063D02*
X6894063Y-6694937D01*
X6821937Y-6694937D01*
X6821937Y-6767063D01*
X6894063Y-6767063D01*
X7148063Y-6767063D02*
X7148063Y-6694937D01*
X7075937Y-6694937D01*
X7075937Y-6767063D01*
X7148063Y-6767063D01*
X7275063Y-1941063D02*
X7275063Y-1868937D01*
X7202937Y-1868937D01*
X7202937Y-1941063D01*
X7275063Y-1941063D01*
X7529063Y-1941063D02*
X7529063Y-1868937D01*
X7456937Y-1868937D01*
X7456937Y-1941063D01*
X7529063Y-1941063D01*
X7656063Y-6767063D02*
X7656063Y-6694937D01*
X7583937Y-6694937D01*
X7583937Y-6767063D01*
X7656063Y-6767063D01*
X7910063Y-6767063D02*
X7910063Y-6694937D01*
X7837937Y-6694937D01*
X7837937Y-6767063D01*
X7910063Y-6767063D01*
X8164063Y-6767063D02*
X8164063Y-6694937D01*
X8091937Y-6694937D01*
X8091937Y-6767063D01*
X8164063Y-6767063D01*
X8672063Y-2449063D02*
X8672063Y-2376937D01*
X8599937Y-2376937D01*
X8599937Y-2449063D01*
X8672063Y-2449063D01*
X8672063Y-2703063D02*
X8672063Y-2630937D01*
X8599937Y-2630937D01*
X8599937Y-2703063D01*
X8672063Y-2703063D01*
X8672063Y-2957063D02*
X8672063Y-2884937D01*
X8599937Y-2884937D01*
X8599937Y-2957063D01*
X8672063Y-2957063D01*
X8672063Y-3211063D02*
X8672063Y-3138937D01*
X8599937Y-3138937D01*
X8599937Y-3211063D01*
X8672063Y-3211063D01*
X8672063Y-3465063D02*
X8672063Y-3392937D01*
X8599937Y-3392937D01*
X8599937Y-3465063D01*
X8672063Y-3465063D01*
X8672063Y-3719063D02*
X8672063Y-3646937D01*
X8599937Y-3646937D01*
X8599937Y-3719063D01*
X8672063Y-3719063D01*
X8672063Y-3973063D02*
X8672063Y-3900937D01*
X8599937Y-3900937D01*
X8599937Y-3973063D01*
X8672063Y-3973063D01*
X8672063Y-4227063D02*
X8672063Y-4154937D01*
X8599937Y-4154937D01*
X8599937Y-4227063D01*
X8672063Y-4227063D01*
X8672063Y-4481063D02*
X8672063Y-4408937D01*
X8599937Y-4408937D01*
X8599937Y-4481063D01*
X8672063Y-4481063D01*
X8672063Y-4735063D02*
X8672063Y-4662937D01*
X8599937Y-4662937D01*
X8599937Y-4735063D01*
X8672063Y-4735063D01*
X8672063Y-4989063D02*
X8672063Y-4916937D01*
X8599937Y-4916937D01*
X8599937Y-4989063D01*
X8672063Y-4989063D01*
X8672063Y-5243063D02*
X8672063Y-5170937D01*
X8599937Y-5170937D01*
X8599937Y-5243063D01*
X8672063Y-5243063D01*
X8672063Y-5497063D02*
X8672063Y-5424937D01*
X8599937Y-5424937D01*
X8599937Y-5497063D01*
X8672063Y-5497063D01*
X8672063Y-5751063D02*
X8672063Y-5678937D01*
X8599937Y-5678937D01*
X8599937Y-5751063D01*
X8672063Y-5751063D01*
X8672063Y-6005063D02*
X8672063Y-5932937D01*
X8599937Y-5932937D01*
X8599937Y-6005063D01*
X8672063Y-6005063D01*
X8672063Y-6259063D02*
X8672063Y-6186937D01*
X8599937Y-6186937D01*
X8599937Y-6259063D01*
X8672063Y-6259063D01*
X9561063Y-798063D02*
X9561063Y-725937D01*
X9488937Y-725937D01*
X9488937Y-798063D01*
X9561063Y-798063D01*
X9815063Y-798063D02*
X9815063Y-725937D01*
X9742937Y-725937D01*
X9742937Y-798063D01*
X9815063Y-798063D01*
X10069063Y-798063D02*
X10069063Y-725937D01*
X9996937Y-725937D01*
X9996937Y-798063D01*
X10069063Y-798063D01*
X10196063Y-2449063D02*
X10196063Y-2376937D01*
X10123937Y-2376937D01*
X10123937Y-2449063D01*
X10196063Y-2449063D01*
X10196063Y-2703063D02*
X10196063Y-2630937D01*
X10123937Y-2630937D01*
X10123937Y-2703063D01*
X10196063Y-2703063D01*
X10196063Y-2957063D02*
X10196063Y-2884937D01*
X10123937Y-2884937D01*
X10123937Y-2957063D01*
X10196063Y-2957063D01*
X10196063Y-3211063D02*
X10196063Y-3138937D01*
X10123937Y-3138937D01*
X10123937Y-3211063D01*
X10196063Y-3211063D01*
X10196063Y-3465063D02*
X10196063Y-3392937D01*
X10123937Y-3392937D01*
X10123937Y-3465063D01*
X10196063Y-3465063D01*
X10196063Y-3719063D02*
X10196063Y-3646937D01*
X10123937Y-3646937D01*
X10123937Y-3719063D01*
X10196063Y-3719063D01*
X10196063Y-3973063D02*
X10196063Y-3900937D01*
X10123937Y-3900937D01*
X10123937Y-3973063D01*
X10196063Y-3973063D01*
X10196063Y-4227063D02*
X10196063Y-4154937D01*
X10123937Y-4154937D01*
X10123937Y-4227063D01*
X10196063Y-4227063D01*
X10196063Y-4481063D02*
X10196063Y-4408937D01*
X10123937Y-4408937D01*
X10123937Y-4481063D01*
X10196063Y-4481063D01*
X10196063Y-4735063D02*
X10196063Y-4662937D01*
X10123937Y-4662937D01*
X10123937Y-4735063D01*
X10196063Y-4735063D01*
X10196063Y-4989063D02*
X10196063Y-4916937D01*
X10123937Y-4916937D01*
X10123937Y-4989063D01*
X10196063Y-4989063D01*
X10196063Y-5243063D02*
X10196063Y-5170937D01*
X10123937Y-5170937D01*
X10123937Y-5243063D01*
X10196063Y-5243063D01*
X10196063Y-5497063D02*
X10196063Y-5424937D01*
X10123937Y-5424937D01*
X10123937Y-5497063D01*
X10196063Y-5497063D01*
X10196063Y-5751063D02*
X10196063Y-5678937D01*
X10123937Y-5678937D01*
X10123937Y-5751063D01*
X10196063Y-5751063D01*
X10196063Y-6005063D02*
X10196063Y-5932937D01*
X10123937Y-5932937D01*
X10123937Y-6005063D01*
X10196063Y-6005063D01*
X10196063Y-6259063D02*
X10196063Y-6186937D01*
X10123937Y-6186937D01*
X10123937Y-6259063D01*
X10196063Y-6259063D01*
X10323063Y-798063D02*
X10323063Y-725937D01*
X10250937Y-725937D01*
X10250937Y-798063D01*
X10323063Y-798063D01*
X10577063Y-798063D02*
X10577063Y-725937D01*
X10504937Y-725937D01*
X10504937Y-798063D01*
X10577063Y-798063D01*
X10831063Y-798063D02*
X10831063Y-725937D01*
X10758937Y-725937D01*
X10758937Y-798063D01*
X10831063Y-798063D01*
X11085063Y-3465063D02*
X11085063Y-3392937D01*
X11012937Y-3392937D01*
X11012937Y-3465063D01*
X11085063Y-3465063D01*
X11085063Y-3719063D02*
X11085063Y-3646937D01*
X11012937Y-3646937D01*
X11012937Y-3719063D01*
X11085063Y-3719063D01*
X11085063Y-3973063D02*
X11085063Y-3900937D01*
X11012937Y-3900937D01*
X11012937Y-3973063D01*
X11085063Y-3973063D01*
X11085063Y-4227063D02*
X11085063Y-4154937D01*
X11012937Y-4154937D01*
X11012937Y-4227063D01*
X11085063Y-4227063D01*
X11085063Y-4481063D02*
X11085063Y-4408937D01*
X11012937Y-4408937D01*
X11012937Y-4481063D01*
X11085063Y-4481063D01*
X11847063Y-3465063D02*
X11847063Y-3392937D01*
X11774937Y-3392937D01*
X11774937Y-3465063D01*
X11847063Y-3465063D01*
X11847063Y-3719063D02*
X11847063Y-3646937D01*
X11774937Y-3646937D01*
X11774937Y-3719063D01*
X11847063Y-3719063D01*
X11847063Y-3973063D02*
X11847063Y-3900937D01*
X11774937Y-3900937D01*
X11774937Y-3973063D01*
X11847063Y-3973063D01*
X11847063Y-4227063D02*
X11847063Y-4154937D01*
X11774937Y-4154937D01*
X11774937Y-4227063D01*
X11847063Y-4227063D01*
X11847063Y-4481063D02*
X11847063Y-4408937D01*
X11774937Y-4408937D01*
X11774937Y-4481063D01*
X11847063Y-4481063D01*
X12990063Y-2703063D02*
X12990063Y-2630937D01*
X12917937Y-2630937D01*
X12917937Y-2703063D01*
X12990063Y-2703063D01*
X12990063Y-2957063D02*
X12990063Y-2884937D01*
X12917937Y-2884937D01*
X12917937Y-2957063D01*
X12990063Y-2957063D01*
X12990063Y-3211063D02*
X12990063Y-3138937D01*
X12917937Y-3138937D01*
X12917937Y-3211063D01*
X12990063Y-3211063D01*
X12990063Y-3465063D02*
X12990063Y-3392937D01*
X12917937Y-3392937D01*
X12917937Y-3465063D01*
X12990063Y-3465063D01*
X12990063Y-3719063D02*
X12990063Y-3646937D01*
X12917937Y-3646937D01*
X12917937Y-3719063D01*
X12990063Y-3719063D01*
X12990063Y-3973063D02*
X12990063Y-3900937D01*
X12917937Y-3900937D01*
X12917937Y-3973063D01*
X12990063Y-3973063D01*
X12990063Y-4227063D02*
X12990063Y-4154937D01*
X12917937Y-4154937D01*
X12917937Y-4227063D01*
X12990063Y-4227063D01*
X12990063Y-4481063D02*
X12990063Y-4408937D01*
X12917937Y-4408937D01*
X12917937Y-4481063D01*
X12990063Y-4481063D01*
X762000Y-922000D02*
X922000Y-762000D01*
X762000Y-602000D01*
X602000Y-762000D01*
X762000Y-922000D01*
X762000Y-9431000D02*
X922000Y-9271000D01*
X762000Y-9111000D01*
X602000Y-9271000D01*
X762000Y-9431000D01*
X12573000Y-922000D02*
X12733000Y-762000D01*
X12573000Y-602000D01*
X12413000Y-762000D01*
X12573000Y-922000D01*
X12573000Y-9431000D02*
X12733000Y-9271000D01*
X12573000Y-9111000D01*
X12413000Y-9271000D01*
X12573000Y-9431000D01*
D13*
X263929Y-10506214D02*
X263929Y-10206214D01*
X335357Y-10206214D01*
X378214Y-10220500D01*
X406786Y-10249072D01*
X421071Y-10277643D01*
X435357Y-10334786D01*
X435357Y-10377643D01*
X421071Y-10434786D01*
X406786Y-10463357D01*
X378214Y-10491929D01*
X335357Y-10506214D01*
X263929Y-10506214D01*
X563929Y-10506214D02*
X563929Y-10306214D01*
X563929Y-10363357D02*
X578214Y-10334786D01*
X592500Y-10320500D01*
X621071Y-10306214D01*
X649643Y-10306214D01*
X749643Y-10506214D02*
X749643Y-10306214D01*
X749643Y-10206214D02*
X735357Y-10220500D01*
X749643Y-10234786D01*
X763928Y-10220500D01*
X749643Y-10206214D01*
X749643Y-10234786D01*
X935357Y-10506214D02*
X906786Y-10491929D01*
X892500Y-10463357D01*
X892500Y-10206214D01*
X1092500Y-10506214D02*
X1063929Y-10491929D01*
X1049643Y-10463357D01*
X1049643Y-10206214D01*
X1435357Y-10506214D02*
X1435357Y-10206214D01*
X1535357Y-10420500D01*
X1635357Y-10206214D01*
X1635357Y-10506214D01*
X1906786Y-10506214D02*
X1906786Y-10349072D01*
X1892500Y-10320500D01*
X1863928Y-10306214D01*
X1806786Y-10306214D01*
X1778214Y-10320500D01*
X1906786Y-10491929D02*
X1878214Y-10506214D01*
X1806786Y-10506214D01*
X1778214Y-10491929D01*
X1763928Y-10463357D01*
X1763928Y-10434786D01*
X1778214Y-10406214D01*
X1806786Y-10391929D01*
X1878214Y-10391929D01*
X1906786Y-10377643D01*
X2049643Y-10306214D02*
X2049643Y-10606214D01*
X2049643Y-10320500D02*
X2078214Y-10306214D01*
X2135357Y-10306214D01*
X2163929Y-10320500D01*
X2178214Y-10334786D01*
X2192500Y-10363357D01*
X2192500Y-10449072D01*
X2178214Y-10477643D01*
X2163929Y-10491929D01*
X2135357Y-10506214D01*
X2078214Y-10506214D01*
X2049643Y-10491929D01*
X2321071Y-10477643D02*
X2335357Y-10491929D01*
X2321071Y-10506214D01*
X2306786Y-10491929D01*
X2321071Y-10477643D01*
X2321071Y-10506214D01*
X2321071Y-10320500D02*
X2335357Y-10334786D01*
X2321071Y-10349072D01*
X2306786Y-10334786D01*
X2321071Y-10320500D01*
X2321071Y-10349072D01*
X-47500Y-10980500D02*
X-7500Y-11020500D01*
X-7500Y-10980500D02*
X-47500Y-11020500D01*
X321071Y-10836214D02*
X349643Y-10836214D01*
X378214Y-10850500D01*
X392500Y-10864786D01*
X406786Y-10893357D01*
X421071Y-10950500D01*
X421071Y-11021929D01*
X406786Y-11079072D01*
X392500Y-11107643D01*
X378214Y-11121929D01*
X349643Y-11136214D01*
X321071Y-11136214D01*
X292500Y-11121929D01*
X278214Y-11107643D01*
X263929Y-11079072D01*
X249643Y-11021929D01*
X249643Y-10950500D01*
X263929Y-10893357D01*
X278214Y-10864786D01*
X292500Y-10850500D01*
X321071Y-10836214D01*
X549643Y-11107643D02*
X563929Y-11121929D01*
X549643Y-11136214D01*
X535357Y-11121929D01*
X549643Y-11107643D01*
X549643Y-11136214D01*
X821071Y-10936214D02*
X821071Y-11136214D01*
X749643Y-10821929D02*
X678214Y-11036214D01*
X863928Y-11036214D01*
X1035357Y-10836214D02*
X1063929Y-10836214D01*
X1092500Y-10850500D01*
X1106786Y-10864786D01*
X1121071Y-10893357D01*
X1135357Y-10950500D01*
X1135357Y-11021929D01*
X1121071Y-11079072D01*
X1106786Y-11107643D01*
X1092500Y-11121929D01*
X1063929Y-11136214D01*
X1035357Y-11136214D01*
X1006786Y-11121929D01*
X992500Y-11107643D01*
X978214Y-11079072D01*
X963928Y-11021929D01*
X963928Y-10950500D01*
X978214Y-10893357D01*
X992500Y-10864786D01*
X1006786Y-10850500D01*
X1035357Y-10836214D01*
X1263929Y-11136214D02*
X1263929Y-10936214D01*
X1263929Y-10964786D02*
X1278214Y-10950500D01*
X1306786Y-10936214D01*
X1349643Y-10936214D01*
X1378214Y-10950500D01*
X1392500Y-10979072D01*
X1392500Y-11136214D01*
X1392500Y-10979072D02*
X1406786Y-10950500D01*
X1435357Y-10936214D01*
X1478214Y-10936214D01*
X1506786Y-10950500D01*
X1521071Y-10979072D01*
X1521071Y-11136214D01*
X1663928Y-11136214D02*
X1663928Y-10936214D01*
X1663928Y-10964786D02*
X1678214Y-10950500D01*
X1706786Y-10936214D01*
X1749643Y-10936214D01*
X1778214Y-10950500D01*
X1792500Y-10979072D01*
X1792500Y-11136214D01*
X1792500Y-10979072D02*
X1806786Y-10950500D01*
X1835357Y-10936214D01*
X1878214Y-10936214D01*
X1906786Y-10950500D01*
X1921071Y-10979072D01*
X1921071Y-11136214D01*
X2506786Y-10821929D02*
X2249643Y-11207643D01*
X2892500Y-10836214D02*
X2921071Y-10836214D01*
X2949643Y-10850500D01*
X2963928Y-10864786D01*
X2978214Y-10893357D01*
X2992500Y-10950500D01*
X2992500Y-11021929D01*
X2978214Y-11079072D01*
X2963928Y-11107643D01*
X2949643Y-11121929D01*
X2921071Y-11136214D01*
X2892500Y-11136214D01*
X2863928Y-11121929D01*
X2849643Y-11107643D01*
X2835357Y-11079072D01*
X2821071Y-11021929D01*
X2821071Y-10950500D01*
X2835357Y-10893357D01*
X2849643Y-10864786D01*
X2863928Y-10850500D01*
X2892500Y-10836214D01*
X3121071Y-11107643D02*
X3135357Y-11121929D01*
X3121071Y-11136214D01*
X3106786Y-11121929D01*
X3121071Y-11107643D01*
X3121071Y-11136214D01*
X3321071Y-10836214D02*
X3349643Y-10836214D01*
X3378214Y-10850500D01*
X3392500Y-10864786D01*
X3406785Y-10893357D01*
X3421071Y-10950500D01*
X3421071Y-11021929D01*
X3406785Y-11079072D01*
X3392500Y-11107643D01*
X3378214Y-11121929D01*
X3349643Y-11136214D01*
X3321071Y-11136214D01*
X3292500Y-11121929D01*
X3278214Y-11107643D01*
X3263928Y-11079072D01*
X3249643Y-11021929D01*
X3249643Y-10950500D01*
X3263928Y-10893357D01*
X3278214Y-10864786D01*
X3292500Y-10850500D01*
X3321071Y-10836214D01*
X3706785Y-11136214D02*
X3535357Y-11136214D01*
X3621071Y-11136214D02*
X3621071Y-10836214D01*
X3592500Y-10879072D01*
X3563928Y-10907643D01*
X3535357Y-10921929D01*
X3963928Y-10836214D02*
X3906785Y-10836214D01*
X3878214Y-10850500D01*
X3863928Y-10864786D01*
X3835357Y-10907643D01*
X3821071Y-10964786D01*
X3821071Y-11079072D01*
X3835357Y-11107643D01*
X3849643Y-11121929D01*
X3878214Y-11136214D01*
X3935357Y-11136214D01*
X3963928Y-11121929D01*
X3978214Y-11107643D01*
X3992500Y-11079072D01*
X3992500Y-11007643D01*
X3978214Y-10979072D01*
X3963928Y-10964786D01*
X3935357Y-10950500D01*
X3878214Y-10950500D01*
X3849643Y-10964786D01*
X3835357Y-10979072D01*
X3821071Y-11007643D01*
X4106786Y-10836214D02*
X4106786Y-10893357D01*
X4221071Y-10836214D02*
X4221071Y-10893357D01*
X4663928Y-11250500D02*
X4649643Y-11236214D01*
X4621071Y-11193357D01*
X4606786Y-11164786D01*
X4592500Y-11121929D01*
X4578214Y-11050500D01*
X4578214Y-10993357D01*
X4592500Y-10921929D01*
X4606786Y-10879072D01*
X4621071Y-10850500D01*
X4649643Y-10807643D01*
X4663928Y-10793357D01*
X4935357Y-11136214D02*
X4763928Y-11136214D01*
X4849643Y-11136214D02*
X4849643Y-10836214D01*
X4821071Y-10879072D01*
X4792500Y-10907643D01*
X4763928Y-10921929D01*
X5035357Y-10836214D02*
X5221071Y-10836214D01*
X5121071Y-10950500D01*
X5163928Y-10950500D01*
X5192500Y-10964786D01*
X5206786Y-10979072D01*
X5221071Y-11007643D01*
X5221071Y-11079072D01*
X5206786Y-11107643D01*
X5192500Y-11121929D01*
X5163928Y-11136214D01*
X5078214Y-11136214D01*
X5049643Y-11121929D01*
X5035357Y-11107643D01*
X5506786Y-11136214D02*
X5335357Y-11136214D01*
X5421071Y-11136214D02*
X5421071Y-10836214D01*
X5392500Y-10879072D01*
X5363928Y-10907643D01*
X5335357Y-10921929D01*
X5863928Y-11136214D02*
X5863928Y-10836214D01*
X5992500Y-11136214D02*
X5992500Y-10979072D01*
X5978214Y-10950500D01*
X5949643Y-10936214D01*
X5906785Y-10936214D01*
X5878214Y-10950500D01*
X5863928Y-10964786D01*
X6178214Y-11136214D02*
X6149643Y-11121929D01*
X6135357Y-11107643D01*
X6121071Y-11079072D01*
X6121071Y-10993357D01*
X6135357Y-10964786D01*
X6149643Y-10950500D01*
X6178214Y-10936214D01*
X6221071Y-10936214D01*
X6249643Y-10950500D01*
X6263928Y-10964786D01*
X6278214Y-10993357D01*
X6278214Y-11079072D01*
X6263928Y-11107643D01*
X6249643Y-11121929D01*
X6221071Y-11136214D01*
X6178214Y-11136214D01*
X6449643Y-11136214D02*
X6421071Y-11121929D01*
X6406786Y-11093357D01*
X6406786Y-10836214D01*
X6678214Y-11121929D02*
X6649643Y-11136214D01*
X6592500Y-11136214D01*
X6563928Y-11121929D01*
X6549643Y-11093357D01*
X6549643Y-10979072D01*
X6563928Y-10950500D01*
X6592500Y-10936214D01*
X6649643Y-10936214D01*
X6678214Y-10950500D01*
X6692500Y-10979072D01*
X6692500Y-11007643D01*
X6549643Y-11036214D01*
X6806786Y-11121929D02*
X6835357Y-11136214D01*
X6892500Y-11136214D01*
X6921071Y-11121929D01*
X6935357Y-11093357D01*
X6935357Y-11079072D01*
X6921071Y-11050500D01*
X6892500Y-11036214D01*
X6849643Y-11036214D01*
X6821071Y-11021929D01*
X6806786Y-10993357D01*
X6806786Y-10979072D01*
X6821071Y-10950500D01*
X6849643Y-10936214D01*
X6892500Y-10936214D01*
X6921071Y-10950500D01*
X7035357Y-11250500D02*
X7049643Y-11236214D01*
X7078214Y-11193357D01*
X7092500Y-11164786D01*
X7106786Y-11121929D01*
X7121071Y-11050500D01*
X7121071Y-10993357D01*
X7106786Y-10921929D01*
X7092500Y-10879072D01*
X7078214Y-10850500D01*
X7049643Y-10807643D01*
X7035357Y-10793357D01*
X-7500Y-11396500D02*
G75*
G03X-7500Y-11396500I-35000J0D01*
G01*
X321071Y-11232214D02*
X349643Y-11232214D01*
X378214Y-11246500D01*
X392500Y-11260786D01*
X406786Y-11289357D01*
X421071Y-11346500D01*
X421071Y-11417929D01*
X406786Y-11475071D01*
X392500Y-11503643D01*
X378214Y-11517929D01*
X349643Y-11532214D01*
X321071Y-11532214D01*
X292500Y-11517929D01*
X278214Y-11503643D01*
X263929Y-11475071D01*
X249643Y-11417929D01*
X249643Y-11346500D01*
X263929Y-11289357D01*
X278214Y-11260786D01*
X292500Y-11246500D01*
X321071Y-11232214D01*
X549643Y-11503643D02*
X563929Y-11517929D01*
X549643Y-11532214D01*
X535357Y-11517929D01*
X549643Y-11503643D01*
X549643Y-11532214D01*
X663928Y-11232214D02*
X863928Y-11232214D01*
X735357Y-11532214D01*
X1035357Y-11232214D02*
X1063929Y-11232214D01*
X1092500Y-11246500D01*
X1106786Y-11260786D01*
X1121071Y-11289357D01*
X1135357Y-11346500D01*
X1135357Y-11417929D01*
X1121071Y-11475071D01*
X1106786Y-11503643D01*
X1092500Y-11517929D01*
X1063929Y-11532214D01*
X1035357Y-11532214D01*
X1006786Y-11517929D01*
X992500Y-11503643D01*
X978214Y-11475071D01*
X963928Y-11417929D01*
X963928Y-11346500D01*
X978214Y-11289357D01*
X992500Y-11260786D01*
X1006786Y-11246500D01*
X1035357Y-11232214D01*
X1263929Y-11532214D02*
X1263929Y-11332214D01*
X1263929Y-11360786D02*
X1278214Y-11346500D01*
X1306786Y-11332214D01*
X1349643Y-11332214D01*
X1378214Y-11346500D01*
X1392500Y-11375071D01*
X1392500Y-11532214D01*
X1392500Y-11375071D02*
X1406786Y-11346500D01*
X1435357Y-11332214D01*
X1478214Y-11332214D01*
X1506786Y-11346500D01*
X1521071Y-11375071D01*
X1521071Y-11532214D01*
X1663928Y-11532214D02*
X1663928Y-11332214D01*
X1663928Y-11360786D02*
X1678214Y-11346500D01*
X1706786Y-11332214D01*
X1749643Y-11332214D01*
X1778214Y-11346500D01*
X1792500Y-11375071D01*
X1792500Y-11532214D01*
X1792500Y-11375071D02*
X1806786Y-11346500D01*
X1835357Y-11332214D01*
X1878214Y-11332214D01*
X1906786Y-11346500D01*
X1921071Y-11375071D01*
X1921071Y-11532214D01*
X2506786Y-11217929D02*
X2249643Y-11603643D01*
X2892500Y-11232214D02*
X2921071Y-11232214D01*
X2949643Y-11246500D01*
X2963928Y-11260786D01*
X2978214Y-11289357D01*
X2992500Y-11346500D01*
X2992500Y-11417929D01*
X2978214Y-11475071D01*
X2963928Y-11503643D01*
X2949643Y-11517929D01*
X2921071Y-11532214D01*
X2892500Y-11532214D01*
X2863928Y-11517929D01*
X2849643Y-11503643D01*
X2835357Y-11475071D01*
X2821071Y-11417929D01*
X2821071Y-11346500D01*
X2835357Y-11289357D01*
X2849643Y-11260786D01*
X2863928Y-11246500D01*
X2892500Y-11232214D01*
X3121071Y-11503643D02*
X3135357Y-11517929D01*
X3121071Y-11532214D01*
X3106786Y-11517929D01*
X3121071Y-11503643D01*
X3121071Y-11532214D01*
X3321071Y-11232214D02*
X3349643Y-11232214D01*
X3378214Y-11246500D01*
X3392500Y-11260786D01*
X3406785Y-11289357D01*
X3421071Y-11346500D01*
X3421071Y-11417929D01*
X3406785Y-11475071D01*
X3392500Y-11503643D01*
X3378214Y-11517929D01*
X3349643Y-11532214D01*
X3321071Y-11532214D01*
X3292500Y-11517929D01*
X3278214Y-11503643D01*
X3263928Y-11475071D01*
X3249643Y-11417929D01*
X3249643Y-11346500D01*
X3263928Y-11289357D01*
X3278214Y-11260786D01*
X3292500Y-11246500D01*
X3321071Y-11232214D01*
X3535357Y-11260786D02*
X3549643Y-11246500D01*
X3578214Y-11232214D01*
X3649643Y-11232214D01*
X3678214Y-11246500D01*
X3692500Y-11260786D01*
X3706785Y-11289357D01*
X3706785Y-11317929D01*
X3692500Y-11360786D01*
X3521071Y-11532214D01*
X3706785Y-11532214D01*
X3878214Y-11360786D02*
X3849643Y-11346500D01*
X3835357Y-11332214D01*
X3821071Y-11303643D01*
X3821071Y-11289357D01*
X3835357Y-11260786D01*
X3849643Y-11246500D01*
X3878214Y-11232214D01*
X3935357Y-11232214D01*
X3963928Y-11246500D01*
X3978214Y-11260786D01*
X3992500Y-11289357D01*
X3992500Y-11303643D01*
X3978214Y-11332214D01*
X3963928Y-11346500D01*
X3935357Y-11360786D01*
X3878214Y-11360786D01*
X3849643Y-11375071D01*
X3835357Y-11389357D01*
X3821071Y-11417929D01*
X3821071Y-11475071D01*
X3835357Y-11503643D01*
X3849643Y-11517929D01*
X3878214Y-11532214D01*
X3935357Y-11532214D01*
X3963928Y-11517929D01*
X3978214Y-11503643D01*
X3992500Y-11475071D01*
X3992500Y-11417929D01*
X3978214Y-11389357D01*
X3963928Y-11375071D01*
X3935357Y-11360786D01*
X4106786Y-11232214D02*
X4106786Y-11289357D01*
X4221071Y-11232214D02*
X4221071Y-11289357D01*
X4663928Y-11646500D02*
X4649643Y-11632214D01*
X4621071Y-11589357D01*
X4606786Y-11560786D01*
X4592500Y-11517929D01*
X4578214Y-11446500D01*
X4578214Y-11389357D01*
X4592500Y-11317929D01*
X4606786Y-11275071D01*
X4621071Y-11246500D01*
X4649643Y-11203643D01*
X4663928Y-11189357D01*
X4792500Y-11532214D02*
X4849643Y-11532214D01*
X4878214Y-11517929D01*
X4892500Y-11503643D01*
X4921071Y-11460786D01*
X4935357Y-11403643D01*
X4935357Y-11289357D01*
X4921071Y-11260786D01*
X4906786Y-11246500D01*
X4878214Y-11232214D01*
X4821071Y-11232214D01*
X4792500Y-11246500D01*
X4778214Y-11260786D01*
X4763928Y-11289357D01*
X4763928Y-11360786D01*
X4778214Y-11389357D01*
X4792500Y-11403643D01*
X4821071Y-11417929D01*
X4878214Y-11417929D01*
X4906786Y-11403643D01*
X4921071Y-11389357D01*
X4935357Y-11360786D01*
X5192500Y-11332214D02*
X5192500Y-11532214D01*
X5121071Y-11217929D02*
X5049643Y-11432214D01*
X5235357Y-11432214D01*
X5578214Y-11532214D02*
X5578214Y-11232214D01*
X5706785Y-11532214D02*
X5706785Y-11375071D01*
X5692500Y-11346500D01*
X5663928Y-11332214D01*
X5621071Y-11332214D01*
X5592500Y-11346500D01*
X5578214Y-11360786D01*
X5892500Y-11532214D02*
X5863928Y-11517929D01*
X5849643Y-11503643D01*
X5835357Y-11475071D01*
X5835357Y-11389357D01*
X5849643Y-11360786D01*
X5863928Y-11346500D01*
X5892500Y-11332214D01*
X5935357Y-11332214D01*
X5963928Y-11346500D01*
X5978214Y-11360786D01*
X5992500Y-11389357D01*
X5992500Y-11475071D01*
X5978214Y-11503643D01*
X5963928Y-11517929D01*
X5935357Y-11532214D01*
X5892500Y-11532214D01*
X6163928Y-11532214D02*
X6135357Y-11517929D01*
X6121071Y-11489357D01*
X6121071Y-11232214D01*
X6392500Y-11517929D02*
X6363928Y-11532214D01*
X6306786Y-11532214D01*
X6278214Y-11517929D01*
X6263928Y-11489357D01*
X6263928Y-11375071D01*
X6278214Y-11346500D01*
X6306786Y-11332214D01*
X6363928Y-11332214D01*
X6392500Y-11346500D01*
X6406786Y-11375071D01*
X6406786Y-11403643D01*
X6263928Y-11432214D01*
X6521071Y-11517929D02*
X6549643Y-11532214D01*
X6606786Y-11532214D01*
X6635357Y-11517929D01*
X6649643Y-11489357D01*
X6649643Y-11475071D01*
X6635357Y-11446500D01*
X6606786Y-11432214D01*
X6563928Y-11432214D01*
X6535357Y-11417929D01*
X6521071Y-11389357D01*
X6521071Y-11375071D01*
X6535357Y-11346500D01*
X6563928Y-11332214D01*
X6606786Y-11332214D01*
X6635357Y-11346500D01*
X6749643Y-11646500D02*
X6763928Y-11632214D01*
X6792500Y-11589357D01*
X6806786Y-11560786D01*
X6821071Y-11517929D01*
X6835357Y-11446500D01*
X6835357Y-11389357D01*
X6821071Y-11317929D01*
X6806786Y-11275071D01*
X6792500Y-11246500D01*
X6763928Y-11203643D01*
X6749643Y-11189357D01*
X-52500Y-11747500D02*
X-52500Y-11837500D01*
X-97500Y-11792500D02*
X-7500Y-11792500D01*
X321071Y-11628214D02*
X349643Y-11628214D01*
X378214Y-11642500D01*
X392500Y-11656786D01*
X406786Y-11685357D01*
X421071Y-11742500D01*
X421071Y-11813929D01*
X406786Y-11871071D01*
X392500Y-11899643D01*
X378214Y-11913929D01*
X349643Y-11928214D01*
X321071Y-11928214D01*
X292500Y-11913929D01*
X278214Y-11899643D01*
X263929Y-11871071D01*
X249643Y-11813929D01*
X249643Y-11742500D01*
X263929Y-11685357D01*
X278214Y-11656786D01*
X292500Y-11642500D01*
X321071Y-11628214D01*
X549643Y-11899643D02*
X563929Y-11913929D01*
X549643Y-11928214D01*
X535357Y-11913929D01*
X549643Y-11899643D01*
X549643Y-11928214D01*
X706786Y-11928214D02*
X763928Y-11928214D01*
X792500Y-11913929D01*
X806786Y-11899643D01*
X835357Y-11856786D01*
X849643Y-11799643D01*
X849643Y-11685357D01*
X835357Y-11656786D01*
X821071Y-11642500D01*
X792500Y-11628214D01*
X735357Y-11628214D01*
X706786Y-11642500D01*
X692500Y-11656786D01*
X678214Y-11685357D01*
X678214Y-11756786D01*
X692500Y-11785357D01*
X706786Y-11799643D01*
X735357Y-11813929D01*
X792500Y-11813929D01*
X821071Y-11799643D01*
X835357Y-11785357D01*
X849643Y-11756786D01*
X1035357Y-11628214D02*
X1063929Y-11628214D01*
X1092500Y-11642500D01*
X1106786Y-11656786D01*
X1121071Y-11685357D01*
X1135357Y-11742500D01*
X1135357Y-11813929D01*
X1121071Y-11871071D01*
X1106786Y-11899643D01*
X1092500Y-11913929D01*
X1063929Y-11928214D01*
X1035357Y-11928214D01*
X1006786Y-11913929D01*
X992500Y-11899643D01*
X978214Y-11871071D01*
X963928Y-11813929D01*
X963928Y-11742500D01*
X978214Y-11685357D01*
X992500Y-11656786D01*
X1006786Y-11642500D01*
X1035357Y-11628214D01*
X1263929Y-11928214D02*
X1263929Y-11728214D01*
X1263929Y-11756786D02*
X1278214Y-11742500D01*
X1306786Y-11728214D01*
X1349643Y-11728214D01*
X1378214Y-11742500D01*
X1392500Y-11771071D01*
X1392500Y-11928214D01*
X1392500Y-11771071D02*
X1406786Y-11742500D01*
X1435357Y-11728214D01*
X1478214Y-11728214D01*
X1506786Y-11742500D01*
X1521071Y-11771071D01*
X1521071Y-11928214D01*
X1663928Y-11928214D02*
X1663928Y-11728214D01*
X1663928Y-11756786D02*
X1678214Y-11742500D01*
X1706786Y-11728214D01*
X1749643Y-11728214D01*
X1778214Y-11742500D01*
X1792500Y-11771071D01*
X1792500Y-11928214D01*
X1792500Y-11771071D02*
X1806786Y-11742500D01*
X1835357Y-11728214D01*
X1878214Y-11728214D01*
X1906786Y-11742500D01*
X1921071Y-11771071D01*
X1921071Y-11928214D01*
X2506786Y-11613929D02*
X2249643Y-11999643D01*
X2892500Y-11628214D02*
X2921071Y-11628214D01*
X2949643Y-11642500D01*
X2963928Y-11656786D01*
X2978214Y-11685357D01*
X2992500Y-11742500D01*
X2992500Y-11813929D01*
X2978214Y-11871071D01*
X2963928Y-11899643D01*
X2949643Y-11913929D01*
X2921071Y-11928214D01*
X2892500Y-11928214D01*
X2863928Y-11913929D01*
X2849643Y-11899643D01*
X2835357Y-11871071D01*
X2821071Y-11813929D01*
X2821071Y-11742500D01*
X2835357Y-11685357D01*
X2849643Y-11656786D01*
X2863928Y-11642500D01*
X2892500Y-11628214D01*
X3121071Y-11899643D02*
X3135357Y-11913929D01*
X3121071Y-11928214D01*
X3106786Y-11913929D01*
X3121071Y-11899643D01*
X3121071Y-11928214D01*
X3321071Y-11628214D02*
X3349643Y-11628214D01*
X3378214Y-11642500D01*
X3392500Y-11656786D01*
X3406785Y-11685357D01*
X3421071Y-11742500D01*
X3421071Y-11813929D01*
X3406785Y-11871071D01*
X3392500Y-11899643D01*
X3378214Y-11913929D01*
X3349643Y-11928214D01*
X3321071Y-11928214D01*
X3292500Y-11913929D01*
X3278214Y-11899643D01*
X3263928Y-11871071D01*
X3249643Y-11813929D01*
X3249643Y-11742500D01*
X3263928Y-11685357D01*
X3278214Y-11656786D01*
X3292500Y-11642500D01*
X3321071Y-11628214D01*
X3521071Y-11628214D02*
X3706785Y-11628214D01*
X3606785Y-11742500D01*
X3649643Y-11742500D01*
X3678214Y-11756786D01*
X3692500Y-11771071D01*
X3706785Y-11799643D01*
X3706785Y-11871071D01*
X3692500Y-11899643D01*
X3678214Y-11913929D01*
X3649643Y-11928214D01*
X3563928Y-11928214D01*
X3535357Y-11913929D01*
X3521071Y-11899643D01*
X3978214Y-11628214D02*
X3835357Y-11628214D01*
X3821071Y-11771071D01*
X3835357Y-11756786D01*
X3863928Y-11742500D01*
X3935357Y-11742500D01*
X3963928Y-11756786D01*
X3978214Y-11771071D01*
X3992500Y-11799643D01*
X3992500Y-11871071D01*
X3978214Y-11899643D01*
X3963928Y-11913929D01*
X3935357Y-11928214D01*
X3863928Y-11928214D01*
X3835357Y-11913929D01*
X3821071Y-11899643D01*
X4106786Y-11628214D02*
X4106786Y-11685357D01*
X4221071Y-11628214D02*
X4221071Y-11685357D01*
X4663928Y-12042500D02*
X4649643Y-12028214D01*
X4621071Y-11985357D01*
X4606786Y-11956786D01*
X4592500Y-11913929D01*
X4578214Y-11842500D01*
X4578214Y-11785357D01*
X4592500Y-11713929D01*
X4606786Y-11671071D01*
X4621071Y-11642500D01*
X4649643Y-11599643D01*
X4663928Y-11585357D01*
X4921071Y-11628214D02*
X4778214Y-11628214D01*
X4763928Y-11771071D01*
X4778214Y-11756786D01*
X4806786Y-11742500D01*
X4878214Y-11742500D01*
X4906786Y-11756786D01*
X4921071Y-11771071D01*
X4935357Y-11799643D01*
X4935357Y-11871071D01*
X4921071Y-11899643D01*
X4906786Y-11913929D01*
X4878214Y-11928214D01*
X4806786Y-11928214D01*
X4778214Y-11913929D01*
X4763928Y-11899643D01*
X5035357Y-11628214D02*
X5235357Y-11628214D01*
X5106786Y-11928214D01*
X5578214Y-11928214D02*
X5578214Y-11628214D01*
X5706785Y-11928214D02*
X5706785Y-11771071D01*
X5692500Y-11742500D01*
X5663928Y-11728214D01*
X5621071Y-11728214D01*
X5592500Y-11742500D01*
X5578214Y-11756786D01*
X5892500Y-11928214D02*
X5863928Y-11913929D01*
X5849643Y-11899643D01*
X5835357Y-11871071D01*
X5835357Y-11785357D01*
X5849643Y-11756786D01*
X5863928Y-11742500D01*
X5892500Y-11728214D01*
X5935357Y-11728214D01*
X5963928Y-11742500D01*
X5978214Y-11756786D01*
X5992500Y-11785357D01*
X5992500Y-11871071D01*
X5978214Y-11899643D01*
X5963928Y-11913929D01*
X5935357Y-11928214D01*
X5892500Y-11928214D01*
X6163928Y-11928214D02*
X6135357Y-11913929D01*
X6121071Y-11885357D01*
X6121071Y-11628214D01*
X6392500Y-11913929D02*
X6363928Y-11928214D01*
X6306786Y-11928214D01*
X6278214Y-11913929D01*
X6263928Y-11885357D01*
X6263928Y-11771071D01*
X6278214Y-11742500D01*
X6306786Y-11728214D01*
X6363928Y-11728214D01*
X6392500Y-11742500D01*
X6406786Y-11771071D01*
X6406786Y-11799643D01*
X6263928Y-11828214D01*
X6521071Y-11913929D02*
X6549643Y-11928214D01*
X6606786Y-11928214D01*
X6635357Y-11913929D01*
X6649643Y-11885357D01*
X6649643Y-11871071D01*
X6635357Y-11842500D01*
X6606786Y-11828214D01*
X6563928Y-11828214D01*
X6535357Y-11813929D01*
X6521071Y-11785357D01*
X6521071Y-11771071D01*
X6535357Y-11742500D01*
X6563928Y-11728214D01*
X6606786Y-11728214D01*
X6635357Y-11742500D01*
X6749643Y-12042500D02*
X6763928Y-12028214D01*
X6792500Y-11985357D01*
X6806786Y-11956786D01*
X6821071Y-11913929D01*
X6835357Y-11842500D01*
X6835357Y-11785357D01*
X6821071Y-11713929D01*
X6806786Y-11671071D01*
X6792500Y-11642500D01*
X6763928Y-11599643D01*
X6749643Y-11585357D01*
X-22437Y-12224563D02*
X-22437Y-12152437D01*
X-94563Y-12152437D01*
X-94563Y-12224563D01*
X-22437Y-12224563D01*
X421071Y-12324214D02*
X249643Y-12324214D01*
X335357Y-12324214D02*
X335357Y-12024214D01*
X306786Y-12067071D01*
X278214Y-12095643D01*
X249643Y-12109929D01*
X549643Y-12295643D02*
X563929Y-12309929D01*
X549643Y-12324214D01*
X535357Y-12309929D01*
X549643Y-12295643D01*
X549643Y-12324214D01*
X749643Y-12024214D02*
X778214Y-12024214D01*
X806786Y-12038500D01*
X821071Y-12052786D01*
X835357Y-12081357D01*
X849643Y-12138500D01*
X849643Y-12209929D01*
X835357Y-12267071D01*
X821071Y-12295643D01*
X806786Y-12309929D01*
X778214Y-12324214D01*
X749643Y-12324214D01*
X721071Y-12309929D01*
X706786Y-12295643D01*
X692500Y-12267071D01*
X678214Y-12209929D01*
X678214Y-12138500D01*
X692500Y-12081357D01*
X706786Y-12052786D01*
X721071Y-12038500D01*
X749643Y-12024214D01*
X963928Y-12052786D02*
X978214Y-12038500D01*
X1006786Y-12024214D01*
X1078214Y-12024214D01*
X1106786Y-12038500D01*
X1121071Y-12052786D01*
X1135357Y-12081357D01*
X1135357Y-12109929D01*
X1121071Y-12152786D01*
X949643Y-12324214D01*
X1135357Y-12324214D01*
X1263929Y-12324214D02*
X1263929Y-12124214D01*
X1263929Y-12152786D02*
X1278214Y-12138500D01*
X1306786Y-12124214D01*
X1349643Y-12124214D01*
X1378214Y-12138500D01*
X1392500Y-12167071D01*
X1392500Y-12324214D01*
X1392500Y-12167071D02*
X1406786Y-12138500D01*
X1435357Y-12124214D01*
X1478214Y-12124214D01*
X1506786Y-12138500D01*
X1521071Y-12167071D01*
X1521071Y-12324214D01*
X1663928Y-12324214D02*
X1663928Y-12124214D01*
X1663928Y-12152786D02*
X1678214Y-12138500D01*
X1706786Y-12124214D01*
X1749643Y-12124214D01*
X1778214Y-12138500D01*
X1792500Y-12167071D01*
X1792500Y-12324214D01*
X1792500Y-12167071D02*
X1806786Y-12138500D01*
X1835357Y-12124214D01*
X1878214Y-12124214D01*
X1906786Y-12138500D01*
X1921071Y-12167071D01*
X1921071Y-12324214D01*
X2506786Y-12009929D02*
X2249643Y-12395643D01*
X2892500Y-12024214D02*
X2921071Y-12024214D01*
X2949643Y-12038500D01*
X2963928Y-12052786D01*
X2978214Y-12081357D01*
X2992500Y-12138500D01*
X2992500Y-12209929D01*
X2978214Y-12267071D01*
X2963928Y-12295643D01*
X2949643Y-12309929D01*
X2921071Y-12324214D01*
X2892500Y-12324214D01*
X2863928Y-12309929D01*
X2849643Y-12295643D01*
X2835357Y-12267071D01*
X2821071Y-12209929D01*
X2821071Y-12138500D01*
X2835357Y-12081357D01*
X2849643Y-12052786D01*
X2863928Y-12038500D01*
X2892500Y-12024214D01*
X3121071Y-12295643D02*
X3135357Y-12309929D01*
X3121071Y-12324214D01*
X3106786Y-12309929D01*
X3121071Y-12295643D01*
X3121071Y-12324214D01*
X3321071Y-12024214D02*
X3349643Y-12024214D01*
X3378214Y-12038500D01*
X3392500Y-12052786D01*
X3406785Y-12081357D01*
X3421071Y-12138500D01*
X3421071Y-12209929D01*
X3406785Y-12267071D01*
X3392500Y-12295643D01*
X3378214Y-12309929D01*
X3349643Y-12324214D01*
X3321071Y-12324214D01*
X3292500Y-12309929D01*
X3278214Y-12295643D01*
X3263928Y-12267071D01*
X3249643Y-12209929D01*
X3249643Y-12138500D01*
X3263928Y-12081357D01*
X3278214Y-12052786D01*
X3292500Y-12038500D01*
X3321071Y-12024214D01*
X3678214Y-12124214D02*
X3678214Y-12324214D01*
X3606785Y-12009929D02*
X3535357Y-12224214D01*
X3721071Y-12224214D01*
X3892500Y-12024214D02*
X3921071Y-12024214D01*
X3949643Y-12038500D01*
X3963928Y-12052786D01*
X3978214Y-12081357D01*
X3992500Y-12138500D01*
X3992500Y-12209929D01*
X3978214Y-12267071D01*
X3963928Y-12295643D01*
X3949643Y-12309929D01*
X3921071Y-12324214D01*
X3892500Y-12324214D01*
X3863928Y-12309929D01*
X3849643Y-12295643D01*
X3835357Y-12267071D01*
X3821071Y-12209929D01*
X3821071Y-12138500D01*
X3835357Y-12081357D01*
X3849643Y-12052786D01*
X3863928Y-12038500D01*
X3892500Y-12024214D01*
X4106786Y-12024214D02*
X4106786Y-12081357D01*
X4221071Y-12024214D02*
X4221071Y-12081357D01*
X4663928Y-12438500D02*
X4649643Y-12424214D01*
X4621071Y-12381357D01*
X4606786Y-12352786D01*
X4592500Y-12309929D01*
X4578214Y-12238500D01*
X4578214Y-12181357D01*
X4592500Y-12109929D01*
X4606786Y-12067071D01*
X4621071Y-12038500D01*
X4649643Y-11995643D01*
X4663928Y-11981357D01*
X4935357Y-12324214D02*
X4763928Y-12324214D01*
X4849643Y-12324214D02*
X4849643Y-12024214D01*
X4821071Y-12067071D01*
X4792500Y-12095643D01*
X4763928Y-12109929D01*
X5221071Y-12324214D02*
X5049643Y-12324214D01*
X5135357Y-12324214D02*
X5135357Y-12024214D01*
X5106786Y-12067071D01*
X5078214Y-12095643D01*
X5049643Y-12109929D01*
X5506786Y-12324214D02*
X5335357Y-12324214D01*
X5421071Y-12324214D02*
X5421071Y-12024214D01*
X5392500Y-12067071D01*
X5363928Y-12095643D01*
X5335357Y-12109929D01*
X5863928Y-12324214D02*
X5863928Y-12024214D01*
X5992500Y-12324214D02*
X5992500Y-12167071D01*
X5978214Y-12138500D01*
X5949643Y-12124214D01*
X5906785Y-12124214D01*
X5878214Y-12138500D01*
X5863928Y-12152786D01*
X6178214Y-12324214D02*
X6149643Y-12309929D01*
X6135357Y-12295643D01*
X6121071Y-12267071D01*
X6121071Y-12181357D01*
X6135357Y-12152786D01*
X6149643Y-12138500D01*
X6178214Y-12124214D01*
X6221071Y-12124214D01*
X6249643Y-12138500D01*
X6263928Y-12152786D01*
X6278214Y-12181357D01*
X6278214Y-12267071D01*
X6263928Y-12295643D01*
X6249643Y-12309929D01*
X6221071Y-12324214D01*
X6178214Y-12324214D01*
X6449643Y-12324214D02*
X6421071Y-12309929D01*
X6406786Y-12281357D01*
X6406786Y-12024214D01*
X6678214Y-12309929D02*
X6649643Y-12324214D01*
X6592500Y-12324214D01*
X6563928Y-12309929D01*
X6549643Y-12281357D01*
X6549643Y-12167071D01*
X6563928Y-12138500D01*
X6592500Y-12124214D01*
X6649643Y-12124214D01*
X6678214Y-12138500D01*
X6692500Y-12167071D01*
X6692500Y-12195643D01*
X6549643Y-12224214D01*
X6806786Y-12309929D02*
X6835357Y-12324214D01*
X6892500Y-12324214D01*
X6921071Y-12309929D01*
X6935357Y-12281357D01*
X6935357Y-12267071D01*
X6921071Y-12238500D01*
X6892500Y-12224214D01*
X6849643Y-12224214D01*
X6821071Y-12209929D01*
X6806786Y-12181357D01*
X6806786Y-12167071D01*
X6821071Y-12138500D01*
X6849643Y-12124214D01*
X6892500Y-12124214D01*
X6921071Y-12138500D01*
X7035357Y-12438500D02*
X7049643Y-12424214D01*
X7078214Y-12381357D01*
X7092500Y-12352786D01*
X7106786Y-12309929D01*
X7121071Y-12238500D01*
X7121071Y-12181357D01*
X7106786Y-12109929D01*
X7092500Y-12067071D01*
X7078214Y-12038500D01*
X7049643Y-11995643D01*
X7035357Y-11981357D01*
X-167500Y-12744500D02*
X-7500Y-12584500D01*
X-167500Y-12424500D01*
X-327500Y-12584500D01*
X-167500Y-12744500D01*
X235357Y-12420214D02*
X421071Y-12420214D01*
X321071Y-12534500D01*
X363928Y-12534500D01*
X392500Y-12548786D01*
X406786Y-12563071D01*
X421071Y-12591643D01*
X421071Y-12663071D01*
X406786Y-12691643D01*
X392500Y-12705929D01*
X363928Y-12720214D01*
X278214Y-12720214D01*
X249643Y-12705929D01*
X235357Y-12691643D01*
X549643Y-12691643D02*
X563929Y-12705929D01*
X549643Y-12720214D01*
X535357Y-12705929D01*
X549643Y-12691643D01*
X549643Y-12720214D01*
X678214Y-12448786D02*
X692500Y-12434500D01*
X721071Y-12420214D01*
X792500Y-12420214D01*
X821071Y-12434500D01*
X835357Y-12448786D01*
X849643Y-12477357D01*
X849643Y-12505929D01*
X835357Y-12548786D01*
X663928Y-12720214D01*
X849643Y-12720214D01*
X1035357Y-12420214D02*
X1063929Y-12420214D01*
X1092500Y-12434500D01*
X1106786Y-12448786D01*
X1121071Y-12477357D01*
X1135357Y-12534500D01*
X1135357Y-12605929D01*
X1121071Y-12663071D01*
X1106786Y-12691643D01*
X1092500Y-12705929D01*
X1063929Y-12720214D01*
X1035357Y-12720214D01*
X1006786Y-12705929D01*
X992500Y-12691643D01*
X978214Y-12663071D01*
X963928Y-12605929D01*
X963928Y-12534500D01*
X978214Y-12477357D01*
X992500Y-12448786D01*
X1006786Y-12434500D01*
X1035357Y-12420214D01*
X1263929Y-12720214D02*
X1263929Y-12520214D01*
X1263929Y-12548786D02*
X1278214Y-12534500D01*
X1306786Y-12520214D01*
X1349643Y-12520214D01*
X1378214Y-12534500D01*
X1392500Y-12563071D01*
X1392500Y-12720214D01*
X1392500Y-12563071D02*
X1406786Y-12534500D01*
X1435357Y-12520214D01*
X1478214Y-12520214D01*
X1506786Y-12534500D01*
X1521071Y-12563071D01*
X1521071Y-12720214D01*
X1663928Y-12720214D02*
X1663928Y-12520214D01*
X1663928Y-12548786D02*
X1678214Y-12534500D01*
X1706786Y-12520214D01*
X1749643Y-12520214D01*
X1778214Y-12534500D01*
X1792500Y-12563071D01*
X1792500Y-12720214D01*
X1792500Y-12563071D02*
X1806786Y-12534500D01*
X1835357Y-12520214D01*
X1878214Y-12520214D01*
X1906786Y-12534500D01*
X1921071Y-12563071D01*
X1921071Y-12720214D01*
X2506786Y-12405929D02*
X2249643Y-12791643D01*
X2892500Y-12420214D02*
X2921071Y-12420214D01*
X2949643Y-12434500D01*
X2963928Y-12448786D01*
X2978214Y-12477357D01*
X2992500Y-12534500D01*
X2992500Y-12605929D01*
X2978214Y-12663071D01*
X2963928Y-12691643D01*
X2949643Y-12705929D01*
X2921071Y-12720214D01*
X2892500Y-12720214D01*
X2863928Y-12705929D01*
X2849643Y-12691643D01*
X2835357Y-12663071D01*
X2821071Y-12605929D01*
X2821071Y-12534500D01*
X2835357Y-12477357D01*
X2849643Y-12448786D01*
X2863928Y-12434500D01*
X2892500Y-12420214D01*
X3121071Y-12691643D02*
X3135357Y-12705929D01*
X3121071Y-12720214D01*
X3106786Y-12705929D01*
X3121071Y-12691643D01*
X3121071Y-12720214D01*
X3421071Y-12720214D02*
X3249643Y-12720214D01*
X3335357Y-12720214D02*
X3335357Y-12420214D01*
X3306785Y-12463071D01*
X3278214Y-12491643D01*
X3249643Y-12505929D01*
X3535357Y-12448786D02*
X3549643Y-12434500D01*
X3578214Y-12420214D01*
X3649643Y-12420214D01*
X3678214Y-12434500D01*
X3692500Y-12448786D01*
X3706785Y-12477357D01*
X3706785Y-12505929D01*
X3692500Y-12548786D01*
X3521071Y-12720214D01*
X3706785Y-12720214D01*
X3963928Y-12420214D02*
X3906785Y-12420214D01*
X3878214Y-12434500D01*
X3863928Y-12448786D01*
X3835357Y-12491643D01*
X3821071Y-12548786D01*
X3821071Y-12663071D01*
X3835357Y-12691643D01*
X3849643Y-12705929D01*
X3878214Y-12720214D01*
X3935357Y-12720214D01*
X3963928Y-12705929D01*
X3978214Y-12691643D01*
X3992500Y-12663071D01*
X3992500Y-12591643D01*
X3978214Y-12563071D01*
X3963928Y-12548786D01*
X3935357Y-12534500D01*
X3878214Y-12534500D01*
X3849643Y-12548786D01*
X3835357Y-12563071D01*
X3821071Y-12591643D01*
X4106786Y-12420214D02*
X4106786Y-12477357D01*
X4221071Y-12420214D02*
X4221071Y-12477357D01*
X4663928Y-12834500D02*
X4649643Y-12820214D01*
X4621071Y-12777357D01*
X4606786Y-12748786D01*
X4592500Y-12705929D01*
X4578214Y-12634500D01*
X4578214Y-12577357D01*
X4592500Y-12505929D01*
X4606786Y-12463071D01*
X4621071Y-12434500D01*
X4649643Y-12391643D01*
X4663928Y-12377357D01*
X4906786Y-12520214D02*
X4906786Y-12720214D01*
X4835357Y-12405929D02*
X4763928Y-12620214D01*
X4949643Y-12620214D01*
X5292500Y-12720214D02*
X5292500Y-12420214D01*
X5421071Y-12720214D02*
X5421071Y-12563071D01*
X5406786Y-12534500D01*
X5378214Y-12520214D01*
X5335357Y-12520214D01*
X5306786Y-12534500D01*
X5292500Y-12548786D01*
X5606785Y-12720214D02*
X5578214Y-12705929D01*
X5563928Y-12691643D01*
X5549643Y-12663071D01*
X5549643Y-12577357D01*
X5563928Y-12548786D01*
X5578214Y-12534500D01*
X5606785Y-12520214D01*
X5649643Y-12520214D01*
X5678214Y-12534500D01*
X5692500Y-12548786D01*
X5706785Y-12577357D01*
X5706785Y-12663071D01*
X5692500Y-12691643D01*
X5678214Y-12705929D01*
X5649643Y-12720214D01*
X5606785Y-12720214D01*
X5878214Y-12720214D02*
X5849643Y-12705929D01*
X5835357Y-12677357D01*
X5835357Y-12420214D01*
X6106786Y-12705929D02*
X6078214Y-12720214D01*
X6021071Y-12720214D01*
X5992500Y-12705929D01*
X5978214Y-12677357D01*
X5978214Y-12563071D01*
X5992500Y-12534500D01*
X6021071Y-12520214D01*
X6078214Y-12520214D01*
X6106786Y-12534500D01*
X6121071Y-12563071D01*
X6121071Y-12591643D01*
X5978214Y-12620214D01*
X6235357Y-12705929D02*
X6263928Y-12720214D01*
X6321071Y-12720214D01*
X6349643Y-12705929D01*
X6363928Y-12677357D01*
X6363928Y-12663071D01*
X6349643Y-12634500D01*
X6321071Y-12620214D01*
X6278214Y-12620214D01*
X6249643Y-12605929D01*
X6235357Y-12577357D01*
X6235357Y-12563071D01*
X6249643Y-12534500D01*
X6278214Y-12520214D01*
X6321071Y-12520214D01*
X6349643Y-12534500D01*
X6463928Y-12834500D02*
X6478214Y-12820214D01*
X6506786Y-12777357D01*
X6521071Y-12748786D01*
X6535357Y-12705929D01*
X6549643Y-12634500D01*
X6549643Y-12577357D01*
X6535357Y-12505929D01*
X6521071Y-12463071D01*
X6506786Y-12434500D01*
X6478214Y-12391643D01*
X6463928Y-12377357D01*
M02*
