M48
;DRILL file {KiCad 4.0.7} date 01/15/20 08:27:32
;FORMAT={-:-/ absolute / metric / decimal}
FMAT,2
METRIC,TZ
T1C0.400
T2C0.700
T3C0.900
T4C1.020
T5C3.200
%
G90
G05
M71
T1
X15.24Y-69.85
X15.24Y-72.39
X17.78Y-69.85
X19.05Y-60.96
X19.05Y-62.23
X19.05Y-63.5
X22.86Y-72.39
X24.13Y-60.96
X24.13Y-86.36
X25.4Y-62.23
X25.4Y-80.01
X26.67Y-63.5
X27.94Y-62.23
X29.21Y-60.96
X30.48Y-25.4
X31.75Y-26.67
X33.02Y-5.08
X33.02Y-27.94
X34.29Y-6.35
X34.29Y-29.21
X35.56Y-7.62
X35.56Y-30.48
X36.83Y-31.75
X38.1Y-33.02
X40.64Y-25.4
X40.64Y-26.67
X40.64Y-27.94
X40.64Y-29.21
X40.64Y-30.48
X40.64Y-31.75
X40.64Y-33.02
X40.64Y-34.29
X40.64Y-58.42
X40.64Y-62.23
X41.91Y-66.04
X43.18Y-58.42
X43.18Y-60.96
X43.18Y-62.23
X44.45Y-58.42
X45.72Y-59.69
X45.72Y-60.96
X48.26Y-60.96
X50.8Y-5.08
X50.8Y-20.32
X50.8Y-33.02
X52.07Y-6.35
X53.34Y-7.62
X54.61Y-20.32
X54.61Y-24.13
X54.61Y-30.48
X55.88Y-25.4
X55.88Y-30.48
X57.15Y-33.02
X58.42Y-62.23
X59.69Y-30.48
X59.69Y-31.75
X59.69Y-60.96
X60.96Y-60.96
X62.23Y-26.67
X62.23Y-30.48
X62.23Y-78.74
X63.5Y-22.86
X63.5Y-27.94
X63.5Y-30.48
X63.5Y-85.09
X66.04Y-21.59
X66.04Y-31.75
X66.04Y-59.69
X66.04Y-62.23
X67.31Y-20.32
X67.31Y-30.48
X68.58Y-5.08
X68.58Y-19.05
X68.58Y-22.86
X68.58Y-30.48
X69.85Y-6.35
X69.85Y-30.48
X69.85Y-59.69
X71.12Y-7.62
X71.12Y-30.48
X72.39Y-7.62
X77.47Y-29.21
X82.55Y-74.93
X82.55Y-76.2
X82.55Y-77.47
X82.55Y-78.74
X82.55Y-80.01
X83.82Y-22.86
X83.82Y-73.66
X85.09Y-72.39
X88.9Y-76.2
X88.9Y-77.47
X88.9Y-78.74
X90.17Y-24.13
X90.17Y-80.01
X91.44Y-81.28
X92.71Y-39.37
X92.71Y-81.28
X93.98Y-17.78
X93.98Y-33.02
X93.98Y-41.91
X93.98Y-80.01
X95.25Y-17.78
X95.25Y-35.56
X95.25Y-78.74
X96.52Y-39.37
X96.52Y-77.47
X100.33Y-17.78
X100.33Y-19.05
X102.87Y-64.77
X104.14Y-64.77
X106.68Y-78.74
X109.22Y-54.61
X109.22Y-60.96
X110.49Y-55.88
X110.49Y-58.42
X111.76Y-55.88
X111.76Y-59.69
X113.03Y-59.69
X113.03Y-62.23
X113.03Y-63.5
X113.03Y-64.77
X115.57Y-53.34
X115.57Y-78.74
X119.38Y-58.42
X119.38Y-59.69
X119.38Y-60.96
X119.38Y-62.23
X124.46Y-52.07
X124.46Y-53.34
X124.46Y-55.88
T2
X6.35Y-30.48
X6.35Y-54.61
X8.89Y-15.24
X8.89Y-43.18
X8.89Y-67.31
X12.7Y-60.96
X13.97Y-49.53
X16.51Y-40.64
X17.78Y-15.24
X17.78Y-55.88
X19.05Y-5.08
X19.05Y-96.52
X21.59Y-26.67
X21.59Y-34.29
X22.86Y-10.16
X24.13Y-66.04
X25.4Y-21.59
X25.4Y-91.44
X27.94Y-3.81
X27.94Y-30.48
X29.21Y-64.77
X31.75Y-88.9
X33.02Y-41.91
X33.02Y-60.96
X35.56Y-96.52
X36.83Y-38.1
X36.83Y-57.15
X38.1Y-44.45
X38.1Y-48.26
X38.1Y-82.55
X39.37Y-21.59
X39.37Y-52.07
X39.37Y-91.44
X40.64Y-50.8
X41.91Y-78.74
X41.91Y-85.09
X43.18Y-73.66
X44.45Y-88.9
X45.72Y-82.55
X46.99Y-73.66
X48.26Y-27.94
X49.53Y-96.52
X52.07Y-60.96
X53.34Y-67.31
X55.88Y-60.96
X58.42Y-96.52
X67.31Y-96.52
X72.39Y-74.93
X72.39Y-81.28
X77.47Y-6.35
X77.47Y-8.89
X77.47Y-96.52
X78.74Y-69.85
X87.63Y-96.52
X91.44Y-29.21
X91.44Y-38.1
X91.44Y-46.99
X91.44Y-54.61
X92.71Y-6.35
X92.71Y-8.89
X99.06Y-96.52
X105.41Y-3.81
X105.41Y-49.53
X106.68Y-12.7
X107.95Y-36.83
X107.95Y-92.71
X109.22Y-17.78
X109.22Y-24.13
X109.22Y-30.48
X111.76Y-53.34
X113.03Y-6.35
X113.03Y-52.07
X113.03Y-96.52
X114.3Y-86.36
X118.11Y-92.71
X120.65Y-3.81
X120.65Y-78.74
X123.19Y-86.36
X127.Y-31.75
X129.54Y-12.7
X129.54Y-55.88
X129.54Y-78.74
X129.54Y-86.36
T3
X26.67Y-17.78
X27.94Y-19.05
X40.64Y-36.83
X40.64Y-39.37
X44.45Y-10.16
X44.45Y-19.05
X44.45Y-21.59
X55.88Y-19.05
X55.88Y-45.72
X57.15Y-20.32
X57.15Y-55.88
X58.42Y-45.72
X58.42Y-57.15
X59.69Y-10.16
X60.96Y-19.05
X62.23Y-10.16
X62.23Y-17.78
X62.23Y-92.71
X64.77Y-92.71
X68.58Y-63.5
X69.85Y-62.23
X71.12Y-87.63
X72.39Y-86.36
X77.47Y-15.24
X78.74Y-48.26
X80.01Y-15.24
X80.01Y-49.53
X81.28Y-59.69
X81.28Y-62.23
X81.28Y-69.85
X81.28Y-86.36
X83.82Y-90.17
X91.44Y-11.43
X91.44Y-67.31
X92.71Y-12.7
X95.25Y-88.9
X96.52Y-87.63
X97.79Y-10.16
X97.79Y-12.7
X97.79Y-73.66
X100.33Y-73.66
X104.775Y-17.145
X106.68Y-66.04
X106.68Y-76.2
X107.95Y-67.31
X111.76Y-19.05
X111.76Y-21.59
X113.03Y-67.31
X114.3Y-48.26
X118.11Y-71.12
X119.38Y-49.53
X120.65Y-71.12
X121.92Y-49.53
X124.46Y-74.93
X125.73Y-73.66
T4
X16.51Y-73.66
X16.51Y-76.2
X16.51Y-78.74
X16.51Y-81.28
X16.51Y-83.82
X16.51Y-86.36
X16.51Y-88.9
X16.51Y-91.44
X19.05Y-73.66
X19.05Y-76.2
X19.05Y-78.74
X19.05Y-81.28
X19.05Y-83.82
X19.05Y-86.36
X19.05Y-88.9
X19.05Y-91.44
X21.59Y-73.66
X21.59Y-76.2
X21.59Y-78.74
X21.59Y-81.28
X21.59Y-83.82
X21.59Y-86.36
X21.59Y-88.9
X21.59Y-91.44
X52.07Y-73.66
X52.07Y-76.2
X52.07Y-78.74
X52.07Y-81.28
X52.07Y-83.82
X52.07Y-86.36
X52.07Y-88.9
X52.07Y-91.44
X54.61Y-73.66
X54.61Y-76.2
X54.61Y-78.74
X54.61Y-81.28
X54.61Y-83.82
X54.61Y-86.36
X54.61Y-88.9
X54.61Y-91.44
X57.15Y-73.66
X57.15Y-76.2
X57.15Y-78.74
X57.15Y-81.28
X57.15Y-83.82
X57.15Y-86.36
X57.15Y-88.9
X57.15Y-91.44
X68.58Y-67.31
X71.12Y-67.31
X72.39Y-19.05
X74.93Y-19.05
X76.2Y-67.31
X78.74Y-67.31
X81.28Y-67.31
X86.36Y-24.13
X86.36Y-26.67
X86.36Y-29.21
X86.36Y-31.75
X86.36Y-34.29
X86.36Y-36.83
X86.36Y-39.37
X86.36Y-41.91
X86.36Y-44.45
X86.36Y-46.99
X86.36Y-49.53
X86.36Y-52.07
X86.36Y-54.61
X86.36Y-57.15
X86.36Y-59.69
X86.36Y-62.23
X95.25Y-7.62
X97.79Y-7.62
X100.33Y-7.62
X101.6Y-24.13
X101.6Y-26.67
X101.6Y-29.21
X101.6Y-31.75
X101.6Y-34.29
X101.6Y-36.83
X101.6Y-39.37
X101.6Y-41.91
X101.6Y-44.45
X101.6Y-46.99
X101.6Y-49.53
X101.6Y-52.07
X101.6Y-54.61
X101.6Y-57.15
X101.6Y-59.69
X101.6Y-62.23
X102.87Y-7.62
X105.41Y-7.62
X107.95Y-7.62
X110.49Y-34.29
X110.49Y-36.83
X110.49Y-39.37
X110.49Y-41.91
X110.49Y-44.45
X118.11Y-34.29
X118.11Y-36.83
X118.11Y-39.37
X118.11Y-41.91
X118.11Y-44.45
X129.54Y-26.67
X129.54Y-29.21
X129.54Y-31.75
X129.54Y-34.29
X129.54Y-36.83
X129.54Y-39.37
X129.54Y-41.91
X129.54Y-44.45
T5
X7.62Y-7.62
X7.62Y-92.71
X125.73Y-7.62
X125.73Y-92.71
T0
M30
