G04 #@! TF.FileFunction,Soldermask,Bot*
%FSLAX46Y46*%
G04 Gerber Fmt 4.6, Leading zero omitted, Abs format (unit mm)*
G04 Created by KiCad (PCBNEW 4.0.7) date 01/31/20 11:09:44*
%MOMM*%
%LPD*%
G01*
G04 APERTURE LIST*
%ADD10C,0.100000*%
%ADD11C,0.400000*%
%ADD12C,2.000000*%
%ADD13R,1.600000X1.700000*%
%ADD14O,3.200000X2.000000*%
%ADD15C,7.200000*%
G04 APERTURE END LIST*
D10*
D11*
X12884286Y-34644285D02*
X14484286Y-34644285D01*
X14255714Y-34644285D02*
X14370000Y-34530000D01*
X14484286Y-34301428D01*
X14484286Y-33958571D01*
X14370000Y-33730000D01*
X14141429Y-33615714D01*
X12884286Y-33615714D01*
X14141429Y-33615714D02*
X14370000Y-33501428D01*
X14484286Y-33272857D01*
X14484286Y-32930000D01*
X14370000Y-32701428D01*
X14141429Y-32587143D01*
X12884286Y-32587143D01*
X12998571Y-30530000D02*
X12884286Y-30758571D01*
X12884286Y-31215714D01*
X12998571Y-31444285D01*
X13227143Y-31558571D01*
X14141429Y-31558571D01*
X14370000Y-31444285D01*
X14484286Y-31215714D01*
X14484286Y-30758571D01*
X14370000Y-30530000D01*
X14141429Y-30415714D01*
X13912857Y-30415714D01*
X13684286Y-31558571D01*
X12884286Y-29387142D02*
X14484286Y-29387142D01*
X14255714Y-29387142D02*
X14370000Y-29272857D01*
X14484286Y-29044285D01*
X14484286Y-28701428D01*
X14370000Y-28472857D01*
X14141429Y-28358571D01*
X12884286Y-28358571D01*
X14141429Y-28358571D02*
X14370000Y-28244285D01*
X14484286Y-28015714D01*
X14484286Y-27672857D01*
X14370000Y-27444285D01*
X14141429Y-27330000D01*
X12884286Y-27330000D01*
X12884286Y-26187142D02*
X14484286Y-26187142D01*
X15284286Y-26187142D02*
X15170000Y-26301428D01*
X15055714Y-26187142D01*
X15170000Y-26072857D01*
X15284286Y-26187142D01*
X15055714Y-26187142D01*
X14255714Y-24701428D02*
X14370000Y-24930000D01*
X14484286Y-25044285D01*
X14712857Y-25158571D01*
X14827143Y-25158571D01*
X15055714Y-25044285D01*
X15170000Y-24930000D01*
X15284286Y-24701428D01*
X15284286Y-24244285D01*
X15170000Y-24015714D01*
X15055714Y-23901428D01*
X14827143Y-23787143D01*
X14712857Y-23787143D01*
X14484286Y-23901428D01*
X14370000Y-24015714D01*
X14255714Y-24244285D01*
X14255714Y-24701428D01*
X14141429Y-24930000D01*
X14027143Y-25044285D01*
X13798571Y-25158571D01*
X13341429Y-25158571D01*
X13112857Y-25044285D01*
X12998571Y-24930000D01*
X12884286Y-24701428D01*
X12884286Y-24244285D01*
X12998571Y-24015714D01*
X13112857Y-23901428D01*
X13341429Y-23787143D01*
X13798571Y-23787143D01*
X14027143Y-23901428D01*
X14141429Y-24015714D01*
X14255714Y-24244285D01*
X12884286Y-22758571D02*
X15284286Y-22758571D01*
X13570000Y-21958571D01*
X15284286Y-21158571D01*
X12884286Y-21158571D01*
X13798571Y-20015714D02*
X13798571Y-18187143D01*
X15284286Y-16587143D02*
X15284286Y-16358571D01*
X15170000Y-16130000D01*
X15055714Y-16015714D01*
X14827143Y-15901428D01*
X14370000Y-15787143D01*
X13798571Y-15787143D01*
X13341429Y-15901428D01*
X13112857Y-16015714D01*
X12998571Y-16130000D01*
X12884286Y-16358571D01*
X12884286Y-16587143D01*
X12998571Y-16815714D01*
X13112857Y-16930000D01*
X13341429Y-17044285D01*
X13798571Y-17158571D01*
X14370000Y-17158571D01*
X14827143Y-17044285D01*
X15055714Y-16930000D01*
X15170000Y-16815714D01*
X15284286Y-16587143D01*
X12884286Y-13501429D02*
X12884286Y-14872857D01*
X12884286Y-14187143D02*
X15284286Y-14187143D01*
X14941429Y-14415714D01*
X14712857Y-14644286D01*
X14598571Y-14872857D01*
D12*
X95250000Y-7620000D03*
X97790000Y-7620000D03*
X100330000Y-7620000D03*
X102870000Y-7620000D03*
X105410000Y-7620000D03*
X107950000Y-7620000D03*
X129540000Y-29210000D03*
X129540000Y-26670000D03*
X81280000Y-67310000D03*
X78740000Y-67310000D03*
X76200000Y-67310000D03*
X129540000Y-44450000D03*
X129540000Y-41910000D03*
X129540000Y-39370000D03*
X129540000Y-36830000D03*
X129540000Y-34290000D03*
X129540000Y-31750000D03*
X71120000Y-67310000D03*
X68580000Y-67310000D03*
X72390000Y-19050000D03*
X74930000Y-19050000D03*
D13*
X63500000Y-68580000D03*
X65544700Y-68580000D03*
X80010000Y-19050000D03*
X77965300Y-19050000D03*
D12*
X110490000Y-34290000D03*
X110490000Y-36830000D03*
X110490000Y-39370000D03*
X110490000Y-41910000D03*
X110490000Y-44450000D03*
X118110000Y-44450000D03*
X118110000Y-41910000D03*
X118110000Y-39370000D03*
X118110000Y-36830000D03*
X118110000Y-34290000D03*
D14*
X86360000Y-24130000D03*
X86360000Y-26670000D03*
X86360000Y-29210000D03*
X86360000Y-31750000D03*
X86360000Y-34290000D03*
X86360000Y-36830000D03*
X86360000Y-39370000D03*
X86360000Y-41910000D03*
X86360000Y-44450000D03*
X86360000Y-46990000D03*
X86360000Y-49530000D03*
X86360000Y-52070000D03*
X86360000Y-54610000D03*
X86360000Y-57150000D03*
X86360000Y-59690000D03*
X86360000Y-62230000D03*
X101600000Y-62230000D03*
X101600000Y-59690000D03*
X101600000Y-57150000D03*
X101600000Y-54610000D03*
X101600000Y-52070000D03*
X101600000Y-49530000D03*
X101600000Y-46990000D03*
X101600000Y-44450000D03*
X101600000Y-41910000D03*
X101600000Y-39370000D03*
X101600000Y-36830000D03*
X101600000Y-34290000D03*
X101600000Y-31750000D03*
X101600000Y-29210000D03*
X101600000Y-26670000D03*
X101600000Y-24130000D03*
D12*
X21590000Y-73660000D03*
X19050000Y-73660000D03*
X16510000Y-73660000D03*
X21590000Y-76200000D03*
X19050000Y-76200000D03*
X16510000Y-76200000D03*
X21590000Y-78740000D03*
X19050000Y-78740000D03*
X16510000Y-78740000D03*
X21590000Y-81280000D03*
X19050000Y-81280000D03*
X16510000Y-81280000D03*
X21590000Y-83820000D03*
X19050000Y-83820000D03*
X16510000Y-83820000D03*
X21590000Y-86360000D03*
X19050000Y-86360000D03*
X16510000Y-86360000D03*
X21590000Y-88900000D03*
X19050000Y-88900000D03*
X16510000Y-88900000D03*
X21590000Y-91440000D03*
X19050000Y-91440000D03*
X16510000Y-91440000D03*
X57150000Y-91440000D03*
X54610000Y-91440000D03*
X52070000Y-91440000D03*
X57150000Y-88900000D03*
X54610000Y-88900000D03*
X52070000Y-88900000D03*
X57150000Y-86360000D03*
X54610000Y-86360000D03*
X52070000Y-86360000D03*
X57150000Y-83820000D03*
X54610000Y-83820000D03*
X52070000Y-83820000D03*
X57150000Y-81280000D03*
X54610000Y-81280000D03*
X52070000Y-81280000D03*
X57150000Y-78740000D03*
X54610000Y-78740000D03*
X52070000Y-78740000D03*
X57150000Y-76200000D03*
X54610000Y-76200000D03*
X52070000Y-76200000D03*
X57150000Y-73660000D03*
X54610000Y-73660000D03*
X52070000Y-73660000D03*
D15*
X7620000Y-92710000D03*
X7620000Y-7620000D03*
X125730000Y-7620000D03*
X125730000Y-92710000D03*
M02*
