G04 #@! TF.FileFunction,Copper,L2,Bot,Signal*
%FSLAX46Y46*%
G04 Gerber Fmt 4.6, Leading zero omitted, Abs format (unit mm)*
G04 Created by KiCad (PCBNEW 4.0.7) date 01/15/20 08:26:41*
%MOMM*%
%LPD*%
G01*
G04 APERTURE LIST*
%ADD10C,0.100000*%
%ADD11C,1.800000*%
%ADD12R,1.400000X1.500000*%
%ADD13O,3.000000X1.800000*%
%ADD14C,3.200000*%
%ADD15C,1.300000*%
%ADD16C,1.000000*%
%ADD17C,0.600000*%
%ADD18C,0.700000*%
%ADD19C,1.000000*%
%ADD20C,0.700000*%
%ADD21C,0.300000*%
%ADD22C,0.400000*%
G04 APERTURE END LIST*
D10*
D11*
X95250000Y-7620000D03*
X97790000Y-7620000D03*
X100330000Y-7620000D03*
X102870000Y-7620000D03*
X105410000Y-7620000D03*
X107950000Y-7620000D03*
X129540000Y-29210000D03*
X129540000Y-26670000D03*
X81280000Y-67310000D03*
X78740000Y-67310000D03*
X76200000Y-67310000D03*
X129540000Y-44450000D03*
X129540000Y-41910000D03*
X129540000Y-39370000D03*
X129540000Y-36830000D03*
X129540000Y-34290000D03*
X129540000Y-31750000D03*
X71120000Y-67310000D03*
X68580000Y-67310000D03*
X72390000Y-19050000D03*
X74930000Y-19050000D03*
D12*
X63500000Y-68580000D03*
X65544700Y-68580000D03*
X80010000Y-19050000D03*
X77965300Y-19050000D03*
D11*
X110490000Y-34290000D03*
X110490000Y-36830000D03*
X110490000Y-39370000D03*
X110490000Y-41910000D03*
X110490000Y-44450000D03*
X118110000Y-44450000D03*
X118110000Y-41910000D03*
X118110000Y-39370000D03*
X118110000Y-36830000D03*
X118110000Y-34290000D03*
D13*
X86360000Y-24130000D03*
X86360000Y-26670000D03*
X86360000Y-29210000D03*
X86360000Y-31750000D03*
X86360000Y-34290000D03*
X86360000Y-36830000D03*
X86360000Y-39370000D03*
X86360000Y-41910000D03*
X86360000Y-44450000D03*
X86360000Y-46990000D03*
X86360000Y-49530000D03*
X86360000Y-52070000D03*
X86360000Y-54610000D03*
X86360000Y-57150000D03*
X86360000Y-59690000D03*
X86360000Y-62230000D03*
X101600000Y-62230000D03*
X101600000Y-59690000D03*
X101600000Y-57150000D03*
X101600000Y-54610000D03*
X101600000Y-52070000D03*
X101600000Y-49530000D03*
X101600000Y-46990000D03*
X101600000Y-44450000D03*
X101600000Y-41910000D03*
X101600000Y-39370000D03*
X101600000Y-36830000D03*
X101600000Y-34290000D03*
X101600000Y-31750000D03*
X101600000Y-29210000D03*
X101600000Y-26670000D03*
X101600000Y-24130000D03*
D11*
X21590000Y-73660000D03*
X19050000Y-73660000D03*
X16510000Y-73660000D03*
X21590000Y-76200000D03*
X19050000Y-76200000D03*
X16510000Y-76200000D03*
X21590000Y-78740000D03*
X19050000Y-78740000D03*
X16510000Y-78740000D03*
X21590000Y-81280000D03*
X19050000Y-81280000D03*
X16510000Y-81280000D03*
X21590000Y-83820000D03*
X19050000Y-83820000D03*
X16510000Y-83820000D03*
X21590000Y-86360000D03*
X19050000Y-86360000D03*
X16510000Y-86360000D03*
X21590000Y-88900000D03*
X19050000Y-88900000D03*
X16510000Y-88900000D03*
X21590000Y-91440000D03*
X19050000Y-91440000D03*
X16510000Y-91440000D03*
X57150000Y-91440000D03*
X54610000Y-91440000D03*
X52070000Y-91440000D03*
X57150000Y-88900000D03*
X54610000Y-88900000D03*
X52070000Y-88900000D03*
X57150000Y-86360000D03*
X54610000Y-86360000D03*
X52070000Y-86360000D03*
X57150000Y-83820000D03*
X54610000Y-83820000D03*
X52070000Y-83820000D03*
X57150000Y-81280000D03*
X54610000Y-81280000D03*
X52070000Y-81280000D03*
X57150000Y-78740000D03*
X54610000Y-78740000D03*
X52070000Y-78740000D03*
X57150000Y-76200000D03*
X54610000Y-76200000D03*
X52070000Y-76200000D03*
X57150000Y-73660000D03*
X54610000Y-73660000D03*
X52070000Y-73660000D03*
D14*
X7620000Y-92710000D03*
X7620000Y-7620000D03*
X125730000Y-7620000D03*
X125730000Y-92710000D03*
D15*
X114300000Y-48260000D03*
X59690000Y-10160000D03*
X92710000Y-12700000D03*
X106680000Y-76200000D03*
X81280000Y-86360000D03*
X113030000Y-67310000D03*
X104775000Y-17145000D03*
X44450000Y-10160000D03*
X62230000Y-10160000D03*
X91440000Y-11430000D03*
X91440000Y-67310000D03*
X68580000Y-63500000D03*
X69850000Y-62230000D03*
D16*
X109220000Y-24130000D03*
X109220000Y-30480000D03*
X107950000Y-36830000D03*
X109220000Y-17780000D03*
X105410000Y-49530000D03*
X127000000Y-31750000D03*
X36830000Y-57150000D03*
X33020000Y-60960000D03*
X38100000Y-44450000D03*
X33020000Y-41910000D03*
X36830000Y-38100000D03*
X24130000Y-66040000D03*
X29210000Y-64770000D03*
X129540000Y-55880000D03*
X91440000Y-54610000D03*
X91440000Y-46990000D03*
X91440000Y-29210000D03*
X91440000Y-38100000D03*
X8890000Y-15240000D03*
X6350000Y-54610000D03*
X8890000Y-43180000D03*
X12700000Y-60960000D03*
X13970000Y-49530000D03*
X16510000Y-40640000D03*
X27940000Y-30480000D03*
X21590000Y-34290000D03*
X17780000Y-55880000D03*
X8890000Y-67310000D03*
X6350000Y-30480000D03*
X21590000Y-26670000D03*
X25400000Y-21590000D03*
X99060000Y-96520000D03*
X87630000Y-96520000D03*
X77470000Y-96520000D03*
X67310000Y-96520000D03*
X19050000Y-96520000D03*
X35560000Y-96520000D03*
X49530000Y-96520000D03*
X58420000Y-96520000D03*
X113030000Y-96520000D03*
X129540000Y-12700000D03*
X27940000Y-3810000D03*
X19050000Y-5080000D03*
X22860000Y-10160000D03*
X17780000Y-15240000D03*
X120650000Y-3810000D03*
X113030000Y-6350000D03*
X105410000Y-3810000D03*
X106680000Y-12700000D03*
X72390000Y-81280000D03*
X72390000Y-74930000D03*
X92710000Y-8890000D03*
X77470000Y-8890000D03*
X92710000Y-6350000D03*
X77470000Y-6350000D03*
X39370000Y-21590000D03*
X48260000Y-27940000D03*
X55880000Y-60960000D03*
X52070000Y-60960000D03*
X44450000Y-88900000D03*
X39370000Y-91440000D03*
X31750000Y-88900000D03*
X25400000Y-91440000D03*
X46990000Y-73660000D03*
X53340000Y-67310000D03*
X45720000Y-82550000D03*
X38100000Y-82550000D03*
X118110000Y-92710000D03*
X107950000Y-92710000D03*
X114300000Y-86360000D03*
X123190000Y-86360000D03*
X129540000Y-86360000D03*
X129540000Y-78740000D03*
X120650000Y-78740000D03*
X41910000Y-78740000D03*
X41910000Y-85090000D03*
D15*
X81280000Y-59690000D03*
X57150000Y-55880000D03*
X40640000Y-36830000D03*
X44450000Y-21590000D03*
X26670000Y-17780000D03*
X27940000Y-19050000D03*
X77470000Y-15240000D03*
X80010000Y-15240000D03*
X60960000Y-19050000D03*
X57150000Y-20320000D03*
X97790000Y-12700000D03*
X97790000Y-10160000D03*
X62230000Y-92710000D03*
X97790000Y-73660000D03*
X100330000Y-73660000D03*
X95250000Y-88900000D03*
X107950000Y-67310000D03*
X96520000Y-87630000D03*
X118110000Y-71120000D03*
X124460000Y-74930000D03*
X125730000Y-73660000D03*
X120650000Y-71120000D03*
X58420000Y-57150000D03*
X40640000Y-39370000D03*
X81280000Y-62230000D03*
X106680000Y-66040000D03*
X64770000Y-92710000D03*
X83820000Y-90170000D03*
X119380000Y-49530000D03*
X121920000Y-49530000D03*
D16*
X113030000Y-52070000D03*
X111760000Y-53340000D03*
D15*
X44450000Y-19050000D03*
X55880000Y-19050000D03*
X62230000Y-17780000D03*
X111760000Y-19050000D03*
D16*
X38100000Y-48260000D03*
D15*
X55880000Y-45720000D03*
X58420000Y-45720000D03*
D16*
X40640000Y-50800000D03*
X39370000Y-52070000D03*
X43180000Y-73660000D03*
D15*
X80010000Y-49530000D03*
X71120000Y-87630000D03*
D16*
X78740000Y-69850000D03*
D15*
X111760000Y-21590000D03*
D17*
X24130000Y-86360000D03*
D15*
X78740000Y-48260000D03*
X81280000Y-69850000D03*
D18*
X63500000Y-85090000D03*
X62230000Y-78740000D03*
D15*
X72390000Y-86360000D03*
D18*
X93980000Y-33020000D03*
X71120000Y-7620000D03*
X53340000Y-7620000D03*
X35560000Y-7620000D03*
X95250000Y-35560000D03*
X72390000Y-7620000D03*
X92710000Y-39370000D03*
X69850000Y-6350000D03*
X34290000Y-6350000D03*
X52070000Y-6350000D03*
X100330000Y-17780000D03*
X68580000Y-5080000D03*
X50800000Y-5080000D03*
X33020000Y-5080000D03*
X100330000Y-19050000D03*
X93980000Y-41910000D03*
X119380000Y-62230000D03*
X124460000Y-55880000D03*
X115570000Y-53340000D03*
X124460000Y-53340000D03*
X124460000Y-52070000D03*
X113030000Y-59690000D03*
X38100000Y-33020000D03*
X40640000Y-33020000D03*
X36830000Y-31750000D03*
X40640000Y-31750000D03*
X35560000Y-30480000D03*
X40640000Y-30480000D03*
X34290000Y-29210000D03*
X40640000Y-29210000D03*
X33020000Y-27940000D03*
X40640000Y-27940000D03*
X31750000Y-26670000D03*
X40640000Y-26670000D03*
X30480000Y-25400000D03*
X40640000Y-25400000D03*
X40640000Y-34290000D03*
X96520000Y-39370000D03*
X63500000Y-30480000D03*
X63500000Y-27940000D03*
X62230000Y-26670000D03*
X62230000Y-30480000D03*
X59690000Y-31750000D03*
X50800000Y-20320000D03*
X55880000Y-25400000D03*
X55880000Y-30480000D03*
X54610000Y-24130000D03*
X54610000Y-30480000D03*
X50800000Y-33020000D03*
X59690000Y-30480000D03*
X57150000Y-33020000D03*
X54610000Y-20320000D03*
X67310000Y-30480000D03*
X68580000Y-19050000D03*
X63500000Y-22860000D03*
X71120000Y-30480000D03*
X66040000Y-21590000D03*
X69850000Y-30480000D03*
X68580000Y-22860000D03*
X68580000Y-30480000D03*
X67310000Y-20320000D03*
X93980000Y-17780000D03*
X77470000Y-29210000D03*
X83820000Y-22860000D03*
X95250000Y-17780000D03*
X90170000Y-24130000D03*
X88900000Y-76200000D03*
X85090000Y-72390000D03*
X113030000Y-64770000D03*
X104140000Y-64770000D03*
X96520000Y-77470000D03*
X119380000Y-60960000D03*
X88900000Y-77470000D03*
X83820000Y-73660000D03*
X113030000Y-63500000D03*
X102870000Y-64770000D03*
X95250000Y-78740000D03*
X119380000Y-59690000D03*
X82550000Y-80010000D03*
X119380000Y-58420000D03*
X113030000Y-62230000D03*
X93980000Y-80010000D03*
X82550000Y-78740000D03*
X111760000Y-55880000D03*
X111760000Y-59690000D03*
X92710000Y-81280000D03*
X82550000Y-77470000D03*
X91440000Y-81280000D03*
X82550000Y-76200000D03*
X110490000Y-55880000D03*
X110490000Y-58420000D03*
X90170000Y-80010000D03*
X88900000Y-78740000D03*
X82550000Y-74930000D03*
X109220000Y-60960000D03*
X109220000Y-54610000D03*
X115570000Y-78740000D03*
X106680000Y-78740000D03*
D17*
X15240000Y-69850000D03*
X17780000Y-69850000D03*
X24130000Y-60960000D03*
X19050000Y-60960000D03*
X25400000Y-62230000D03*
X19050000Y-62230000D03*
X26670000Y-63500000D03*
X19050000Y-63500000D03*
X27940000Y-62230000D03*
X29210000Y-60960000D03*
X40640000Y-58420000D03*
X40640000Y-62230000D03*
X43180000Y-58420000D03*
X41910000Y-66040000D03*
X43180000Y-60960000D03*
X44450000Y-58420000D03*
X45720000Y-60960000D03*
X48260000Y-60960000D03*
X25400000Y-80010000D03*
X59690000Y-60960000D03*
X60960000Y-60960000D03*
X43180000Y-62230000D03*
X58420000Y-62230000D03*
X15240000Y-72390000D03*
X22860000Y-72390000D03*
X66040000Y-59690000D03*
X66040000Y-62230000D03*
X69850000Y-59690000D03*
X45720000Y-59690000D03*
X66040000Y-31750000D03*
D19*
X81280000Y-86360000D02*
X76200000Y-86360000D01*
X63500000Y-69850000D02*
X63500000Y-68580000D01*
X66040000Y-72390000D02*
X63500000Y-69850000D01*
X66040000Y-86360000D02*
X66040000Y-72390000D01*
X69850000Y-90170000D02*
X66040000Y-86360000D01*
X72390000Y-90170000D02*
X69850000Y-90170000D01*
X76200000Y-86360000D02*
X72390000Y-90170000D01*
X113030000Y-67310000D02*
X107950000Y-62230000D01*
X114300000Y-48260000D02*
X110490000Y-52070000D01*
X110490000Y-52070000D02*
X109220000Y-52070000D01*
X109220000Y-52070000D02*
X107950000Y-53340000D01*
X107950000Y-53340000D02*
X107950000Y-62230000D01*
X91440000Y-11430000D02*
X92710000Y-12700000D01*
X106680000Y-76200000D02*
X113030000Y-69850000D01*
X113030000Y-69850000D02*
X113030000Y-67310000D01*
X92710000Y-87630000D02*
X93980000Y-87630000D01*
X81280000Y-86360000D02*
X82550000Y-87630000D01*
X82550000Y-87630000D02*
X92710000Y-87630000D01*
X105410000Y-76200000D02*
X106680000Y-76200000D01*
X93980000Y-87630000D02*
X105410000Y-76200000D01*
X113030000Y-67310000D02*
X113030000Y-67310000D01*
X101600000Y-24130000D02*
X101600000Y-20320000D01*
X101600000Y-20320000D02*
X104775000Y-17145000D01*
X62230000Y-10160000D02*
X59690000Y-10160000D01*
X59690000Y-10160000D02*
X44450000Y-10160000D01*
X68580000Y-11430000D02*
X63500000Y-11430000D01*
X91440000Y-11430000D02*
X68580000Y-11430000D01*
X63500000Y-11430000D02*
X62230000Y-10160000D01*
D20*
X83820000Y-90170000D02*
X81280000Y-92710000D01*
X81280000Y-92710000D02*
X64770000Y-92710000D01*
D19*
X69850000Y-57150000D02*
X71120000Y-57150000D01*
X58420000Y-57150000D02*
X69850000Y-57150000D01*
X71120000Y-57150000D02*
X71120000Y-62230000D01*
X69850000Y-62230000D02*
X68580000Y-63500000D01*
X69850000Y-62230000D02*
X71120000Y-62230000D01*
X71120000Y-62230000D02*
X81280000Y-62230000D01*
D20*
X80010000Y-19050000D02*
X80010000Y-17780000D01*
X80010000Y-17780000D02*
X80010000Y-15240000D01*
X107950000Y-31750000D02*
X109220000Y-30480000D01*
X107950000Y-33020000D02*
X107950000Y-34290000D01*
X107950000Y-34290000D02*
X107950000Y-36830000D01*
X109220000Y-17780000D02*
X109220000Y-24130000D01*
X107950000Y-33020000D02*
X107950000Y-31750000D01*
D19*
X129540000Y-26670000D02*
X128270000Y-26670000D01*
X128270000Y-26670000D02*
X127000000Y-27940000D01*
X127000000Y-27940000D02*
X127000000Y-31750000D01*
D20*
X38100000Y-45720000D02*
X36830000Y-46990000D01*
X36830000Y-46990000D02*
X36830000Y-57150000D01*
X40640000Y-36830000D02*
X38100000Y-36830000D01*
X35560000Y-41910000D02*
X38100000Y-44450000D01*
X33020000Y-41910000D02*
X35560000Y-41910000D01*
X38100000Y-36830000D02*
X36830000Y-38100000D01*
X38100000Y-44450000D02*
X38100000Y-45720000D01*
X27940000Y-66040000D02*
X24130000Y-66040000D01*
X29210000Y-64770000D02*
X27940000Y-66040000D01*
X91440000Y-46990000D02*
X91440000Y-38100000D01*
X88900000Y-62230000D02*
X91440000Y-59690000D01*
X91440000Y-59690000D02*
X91440000Y-54610000D01*
X86360000Y-62230000D02*
X88900000Y-62230000D01*
X6350000Y-30480000D02*
X6350000Y-17780000D01*
X8890000Y-33020000D02*
X8890000Y-43180000D01*
X6350000Y-54610000D02*
X6350000Y-45720000D01*
X6350000Y-64770000D02*
X8890000Y-67310000D01*
X24130000Y-26670000D02*
X21590000Y-26670000D01*
X10160000Y-66040000D02*
X8890000Y-67310000D01*
X12700000Y-60960000D02*
X10160000Y-63500000D01*
X10160000Y-63500000D02*
X10160000Y-66040000D01*
X17780000Y-54610000D02*
X17780000Y-55880000D01*
X13970000Y-49530000D02*
X17780000Y-53340000D01*
X17780000Y-53340000D02*
X17780000Y-54610000D01*
X24130000Y-26670000D02*
X27940000Y-30480000D01*
X21590000Y-34290000D02*
X16510000Y-39370000D01*
X16510000Y-40640000D02*
X16510000Y-39370000D01*
X6350000Y-54610000D02*
X6350000Y-64770000D01*
X6350000Y-45720000D02*
X8890000Y-43180000D01*
X6350000Y-30480000D02*
X8890000Y-33020000D01*
X6350000Y-17780000D02*
X8890000Y-15240000D01*
X67310000Y-96520000D02*
X60960000Y-96520000D01*
X99060000Y-96520000D02*
X87630000Y-96520000D01*
X67310000Y-96520000D02*
X77470000Y-96520000D01*
X49530000Y-96520000D02*
X35560000Y-96520000D01*
X60960000Y-96520000D02*
X58420000Y-96520000D01*
X20320000Y-17780000D02*
X21590000Y-17780000D01*
X19050000Y-16510000D02*
X20320000Y-17780000D01*
X19050000Y-5080000D02*
X26670000Y-5080000D01*
X19050000Y-6350000D02*
X22860000Y-10160000D01*
X17780000Y-15240000D02*
X19050000Y-16510000D01*
X22860000Y-10160000D02*
X17780000Y-15240000D01*
X19050000Y-5080000D02*
X19050000Y-6350000D01*
X27940000Y-3810000D02*
X26670000Y-5080000D01*
X21590000Y-17780000D02*
X25400000Y-21590000D01*
X25400000Y-21590000D02*
X27940000Y-19050000D01*
X115570000Y-3810000D02*
X120650000Y-3810000D01*
X113030000Y-6350000D02*
X115570000Y-3810000D01*
X72390000Y-74930000D02*
X72390000Y-81280000D01*
X77470000Y-8890000D02*
X77470000Y-6350000D01*
X92710000Y-8890000D02*
X77470000Y-8890000D01*
X44450000Y-21590000D02*
X39370000Y-21590000D01*
X53340000Y-67310000D02*
X46990000Y-73660000D01*
X118110000Y-92710000D02*
X107950000Y-92710000D01*
X125730000Y-78740000D02*
X120650000Y-78740000D01*
X124460000Y-74930000D02*
X120650000Y-78740000D01*
X123190000Y-86360000D02*
X114300000Y-86360000D01*
X129540000Y-86360000D02*
X125730000Y-86360000D01*
X125730000Y-78740000D02*
X129540000Y-78740000D01*
X125730000Y-86360000D02*
X123190000Y-86360000D01*
X41910000Y-85090000D02*
X41910000Y-78740000D01*
D19*
X81280000Y-62230000D02*
X81280000Y-59690000D01*
X40640000Y-39370000D02*
X40640000Y-36830000D01*
X44450000Y-19050000D02*
X44450000Y-21590000D01*
X27940000Y-19050000D02*
X26670000Y-17780000D01*
X44450000Y-19050000D02*
X27940000Y-19050000D01*
X63500000Y-16510000D02*
X64770000Y-15240000D01*
X62230000Y-17780000D02*
X63500000Y-16510000D01*
X64770000Y-15240000D02*
X77470000Y-15240000D01*
X80010000Y-15240000D02*
X77470000Y-15240000D01*
X55880000Y-19050000D02*
X57150000Y-20320000D01*
X80010000Y-15240000D02*
X95250000Y-15240000D01*
X95250000Y-15240000D02*
X97790000Y-12700000D01*
X97790000Y-12700000D02*
X97790000Y-10160000D01*
X64770000Y-92710000D02*
X62230000Y-92710000D01*
X100330000Y-73660000D02*
X97790000Y-73660000D01*
X100330000Y-73660000D02*
X100330000Y-72390000D01*
X100330000Y-72390000D02*
X106680000Y-66040000D01*
X106680000Y-66040000D02*
X107950000Y-67310000D01*
X92710000Y-90170000D02*
X93980000Y-90170000D01*
X87630000Y-90170000D02*
X83820000Y-90170000D01*
X87630000Y-90170000D02*
X92710000Y-90170000D01*
X93980000Y-90170000D02*
X95250000Y-88900000D01*
X95250000Y-88900000D02*
X96520000Y-87630000D01*
X120650000Y-71120000D02*
X118110000Y-71120000D01*
X124460000Y-74930000D02*
X125730000Y-73660000D01*
X120650000Y-71120000D02*
X124460000Y-74930000D01*
X54610000Y-53340000D02*
X55880000Y-54610000D01*
X55880000Y-54610000D02*
X57150000Y-55880000D01*
X40640000Y-39370000D02*
X54610000Y-53340000D01*
X57150000Y-55880000D02*
X58420000Y-57150000D01*
X81280000Y-62230000D02*
X86360000Y-62230000D01*
X64770000Y-92710000D02*
X64770000Y-92710000D01*
D20*
X121920000Y-49530000D02*
X115570000Y-49530000D01*
X115570000Y-49530000D02*
X113030000Y-52070000D01*
X113030000Y-52070000D02*
X111760000Y-53340000D01*
D19*
X55880000Y-19050000D02*
X44450000Y-19050000D01*
X60960000Y-19050000D02*
X55880000Y-19050000D01*
X60960000Y-19050000D02*
X62230000Y-17780000D01*
X111760000Y-26670000D02*
X114300000Y-29210000D01*
X93980000Y-85090000D02*
X105410000Y-73660000D01*
X105410000Y-73660000D02*
X106680000Y-73660000D01*
X109220000Y-66040000D02*
X110490000Y-67310000D01*
X107950000Y-64770000D02*
X109220000Y-66040000D01*
X105410000Y-53340000D02*
X105410000Y-62230000D01*
X105410000Y-62230000D02*
X107950000Y-64770000D01*
X111760000Y-19050000D02*
X111760000Y-26670000D01*
X110490000Y-69850000D02*
X106680000Y-73660000D01*
X110490000Y-67310000D02*
X110490000Y-69850000D01*
X92710000Y-85090000D02*
X87630000Y-85090000D01*
X87630000Y-85090000D02*
X86360000Y-83820000D01*
X86360000Y-83820000D02*
X81280000Y-83820000D01*
X92710000Y-85090000D02*
X93980000Y-85090000D01*
X106680000Y-52070000D02*
X105410000Y-53340000D01*
X114300000Y-44450000D02*
X106680000Y-52070000D01*
X114300000Y-43180000D02*
X114300000Y-44450000D01*
X114300000Y-29210000D02*
X114300000Y-43180000D01*
D20*
X40640000Y-50800000D02*
X39370000Y-49530000D01*
X39370000Y-49530000D02*
X38100000Y-48260000D01*
D19*
X58420000Y-45720000D02*
X55880000Y-45720000D01*
X76200000Y-45720000D02*
X58420000Y-45720000D01*
X78740000Y-48260000D02*
X76200000Y-45720000D01*
D20*
X39370000Y-52070000D02*
X40640000Y-50800000D01*
X39370000Y-52070000D02*
X39370000Y-52070000D01*
X39370000Y-52070000D02*
X39370000Y-69850000D01*
X39370000Y-69850000D02*
X43180000Y-73660000D01*
D19*
X78740000Y-48260000D02*
X80010000Y-49530000D01*
X72390000Y-86360000D02*
X71120000Y-87630000D01*
D20*
X81280000Y-69850000D02*
X78740000Y-69850000D01*
D21*
X19050000Y-83820000D02*
X20320000Y-85090000D01*
X22860000Y-85090000D02*
X24130000Y-86360000D01*
X20320000Y-85090000D02*
X22860000Y-85090000D01*
X16510000Y-81280000D02*
X19050000Y-83820000D01*
D19*
X81280000Y-83820000D02*
X81280000Y-69850000D01*
D22*
X62230000Y-83820000D02*
X63500000Y-85090000D01*
X62230000Y-78740000D02*
X62230000Y-83820000D01*
D19*
X81280000Y-83820000D02*
X74930000Y-83820000D01*
X74930000Y-83820000D02*
X72390000Y-86360000D01*
D22*
X99060000Y-15240000D02*
X99060000Y-8890000D01*
X97790000Y-7620000D02*
X99060000Y-8890000D01*
X93980000Y-22860000D02*
X93980000Y-20320000D01*
X93980000Y-33020000D02*
X93980000Y-22860000D01*
X93980000Y-20320000D02*
X97790000Y-16510000D01*
X97790000Y-16510000D02*
X99060000Y-15240000D01*
X72390000Y-8890000D02*
X73660000Y-10160000D01*
X71120000Y-7620000D02*
X72390000Y-8890000D01*
X95250000Y-10160000D02*
X97790000Y-7620000D01*
X73660000Y-10160000D02*
X95250000Y-10160000D01*
X53340000Y-7620000D02*
X71120000Y-7620000D01*
X53340000Y-7620000D02*
X48260000Y-7620000D01*
X35560000Y-7620000D02*
X48260000Y-7620000D01*
X100330000Y-7620000D02*
X100330000Y-15240000D01*
X95250000Y-22860000D02*
X95250000Y-20320000D01*
X95250000Y-35560000D02*
X95250000Y-22860000D01*
X95250000Y-20320000D02*
X100330000Y-15240000D01*
X72390000Y-7620000D02*
X73660000Y-6350000D01*
X97790000Y-5080000D02*
X100330000Y-7620000D01*
X74930000Y-5080000D02*
X97790000Y-5080000D01*
X73660000Y-6350000D02*
X74930000Y-5080000D01*
X96520000Y-20320000D02*
X101600000Y-15240000D01*
X96520000Y-22860000D02*
X96520000Y-20320000D01*
X92710000Y-39370000D02*
X96520000Y-35560000D01*
X96520000Y-35560000D02*
X96520000Y-22860000D01*
X101600000Y-8890000D02*
X102870000Y-7620000D01*
X101600000Y-10160000D02*
X101600000Y-8890000D01*
X101600000Y-15240000D02*
X101600000Y-10160000D01*
X69850000Y-6350000D02*
X72390000Y-6350000D01*
X99060000Y-3810000D02*
X102870000Y-7620000D01*
X97790000Y-3810000D02*
X99060000Y-3810000D01*
X74930000Y-3810000D02*
X97790000Y-3810000D01*
X72390000Y-6350000D02*
X74930000Y-3810000D01*
X52070000Y-6350000D02*
X69850000Y-6350000D01*
X50800000Y-6350000D02*
X52070000Y-6350000D01*
X34290000Y-6350000D02*
X50800000Y-6350000D01*
X102870000Y-15240000D02*
X102870000Y-10160000D01*
X102870000Y-10160000D02*
X105410000Y-7620000D01*
X100330000Y-17780000D02*
X102870000Y-15240000D01*
X68580000Y-5080000D02*
X72390000Y-5080000D01*
X100330000Y-2540000D02*
X105410000Y-7620000D01*
X74930000Y-2540000D02*
X100330000Y-2540000D01*
X72390000Y-5080000D02*
X74930000Y-2540000D01*
X50800000Y-5080000D02*
X68580000Y-5080000D01*
X33020000Y-5080000D02*
X50800000Y-5080000D01*
X100330000Y-19050000D02*
X104140000Y-15240000D01*
X104140000Y-11430000D02*
X107950000Y-7620000D01*
X104140000Y-15240000D02*
X104140000Y-11430000D01*
X100330000Y-19050000D02*
X97790000Y-21590000D01*
X97790000Y-35560000D02*
X97790000Y-24130000D01*
X93980000Y-39370000D02*
X97790000Y-35560000D01*
X93980000Y-41910000D02*
X93980000Y-39370000D01*
X97790000Y-24130000D02*
X97790000Y-22860000D01*
X97790000Y-21590000D02*
X97790000Y-22860000D01*
X93980000Y-55880000D02*
X93980000Y-62230000D01*
X100330000Y-49530000D02*
X93980000Y-55880000D01*
X82550000Y-66040000D02*
X81280000Y-67310000D01*
X83820000Y-66040000D02*
X82550000Y-66040000D01*
X90170000Y-66040000D02*
X83820000Y-66040000D01*
X93980000Y-62230000D02*
X90170000Y-66040000D01*
X101600000Y-49530000D02*
X100330000Y-49530000D01*
X104140000Y-27940000D02*
X105410000Y-29210000D01*
X102870000Y-26670000D02*
X104140000Y-27940000D01*
X107950000Y-44450000D02*
X110490000Y-44450000D01*
X105410000Y-41910000D02*
X107950000Y-44450000D01*
X105410000Y-29210000D02*
X105410000Y-41910000D01*
X92710000Y-55880000D02*
X92710000Y-62230000D01*
X95250000Y-39370000D02*
X99060000Y-35560000D01*
X99060000Y-35560000D02*
X99060000Y-33020000D01*
X92710000Y-55880000D02*
X95250000Y-53340000D01*
X95250000Y-53340000D02*
X95250000Y-39370000D01*
X99060000Y-27940000D02*
X99060000Y-33020000D01*
X100330000Y-26670000D02*
X99060000Y-27940000D01*
X81280000Y-64770000D02*
X78740000Y-67310000D01*
X90170000Y-64770000D02*
X81280000Y-64770000D01*
X92710000Y-62230000D02*
X90170000Y-64770000D01*
X101600000Y-26670000D02*
X102870000Y-26670000D01*
X101600000Y-26670000D02*
X100330000Y-26670000D01*
X71120000Y-67310000D02*
X76200000Y-67310000D01*
X129540000Y-44450000D02*
X129540000Y-46990000D01*
X129540000Y-52070000D02*
X129540000Y-46990000D01*
X119380000Y-62230000D02*
X128270000Y-53340000D01*
X128270000Y-53340000D02*
X129540000Y-52070000D01*
X128270000Y-46990000D02*
X128270000Y-45720000D01*
X128270000Y-52070000D02*
X128270000Y-46990000D01*
X124460000Y-55880000D02*
X127000000Y-53340000D01*
X127000000Y-53340000D02*
X128270000Y-52070000D01*
X128270000Y-41910000D02*
X129540000Y-41910000D01*
X127000000Y-43180000D02*
X128270000Y-41910000D01*
X127000000Y-44450000D02*
X127000000Y-43180000D01*
X128270000Y-45720000D02*
X127000000Y-44450000D01*
X119380000Y-54610000D02*
X116840000Y-54610000D01*
X116840000Y-54610000D02*
X115570000Y-53340000D01*
X123190000Y-54610000D02*
X124460000Y-54610000D01*
X125730000Y-43180000D02*
X129540000Y-39370000D01*
X125730000Y-44450000D02*
X125730000Y-43180000D01*
X127000000Y-45720000D02*
X125730000Y-44450000D01*
X127000000Y-52070000D02*
X127000000Y-45720000D01*
X124460000Y-54610000D02*
X127000000Y-52070000D01*
X123190000Y-54610000D02*
X119380000Y-54610000D01*
X125730000Y-48260000D02*
X125730000Y-52070000D01*
X124460000Y-44450000D02*
X125730000Y-45720000D01*
X125730000Y-45720000D02*
X125730000Y-48260000D01*
X129540000Y-36830000D02*
X124460000Y-41910000D01*
X124460000Y-41910000D02*
X124460000Y-44450000D01*
X125730000Y-52070000D02*
X124460000Y-53340000D01*
X123190000Y-40640000D02*
X123190000Y-44450000D01*
X129540000Y-34290000D02*
X124460000Y-39370000D01*
X124460000Y-39370000D02*
X123190000Y-40640000D01*
X124460000Y-45720000D02*
X124460000Y-52070000D01*
X123190000Y-44450000D02*
X124460000Y-45720000D01*
X123190000Y-45720000D02*
X123190000Y-48260000D01*
X123190000Y-45720000D02*
X121920000Y-44450000D01*
X121920000Y-44450000D02*
X121920000Y-39370000D01*
X129540000Y-31750000D02*
X123190000Y-38100000D01*
X121920000Y-39370000D02*
X123190000Y-38100000D01*
X113030000Y-54610000D02*
X113030000Y-59690000D01*
X115570000Y-52070000D02*
X113030000Y-54610000D01*
X121920000Y-52070000D02*
X115570000Y-52070000D01*
X123190000Y-50800000D02*
X121920000Y-52070000D01*
X123190000Y-48260000D02*
X123190000Y-50800000D01*
X40640000Y-33020000D02*
X38100000Y-33020000D01*
X86360000Y-49530000D02*
X85090000Y-49530000D01*
X85090000Y-49530000D02*
X78740000Y-43180000D01*
X78740000Y-43180000D02*
X50800000Y-43180000D01*
X50800000Y-43180000D02*
X40640000Y-33020000D01*
X40640000Y-31750000D02*
X36830000Y-31750000D01*
X86360000Y-46990000D02*
X85090000Y-46990000D01*
X85090000Y-46990000D02*
X80010000Y-41910000D01*
X80010000Y-41910000D02*
X50800000Y-41910000D01*
X50800000Y-41910000D02*
X40640000Y-31750000D01*
X40640000Y-30480000D02*
X35560000Y-30480000D01*
X86360000Y-44450000D02*
X85090000Y-44450000D01*
X85090000Y-44450000D02*
X81280000Y-40640000D01*
X81280000Y-40640000D02*
X50800000Y-40640000D01*
X50800000Y-40640000D02*
X40640000Y-30480000D01*
X81280000Y-39370000D02*
X82550000Y-39370000D01*
X81280000Y-39370000D02*
X50800000Y-39370000D01*
X40640000Y-29210000D02*
X50800000Y-39370000D01*
X82550000Y-39370000D02*
X85090000Y-41910000D01*
X85090000Y-41910000D02*
X86360000Y-41910000D01*
X40640000Y-29210000D02*
X34290000Y-29210000D01*
X40850735Y-28999265D02*
X40640000Y-29210000D01*
X82550000Y-38100000D02*
X83820000Y-38100000D01*
X40640000Y-27940000D02*
X50800000Y-38100000D01*
X81280000Y-38100000D02*
X50800000Y-38100000D01*
X81280000Y-38100000D02*
X82550000Y-38100000D01*
X83820000Y-38100000D02*
X85090000Y-39370000D01*
X85090000Y-39370000D02*
X86360000Y-39370000D01*
X40640000Y-27940000D02*
X33020000Y-27940000D01*
X40640000Y-26670000D02*
X31750000Y-26670000D01*
X50800000Y-36830000D02*
X86360000Y-36830000D01*
X40640000Y-26670000D02*
X50800000Y-36830000D01*
X81280000Y-35560000D02*
X83820000Y-35560000D01*
X40640000Y-25400000D02*
X50800000Y-35560000D01*
X50800000Y-35560000D02*
X52070000Y-35560000D01*
X81280000Y-35560000D02*
X52070000Y-35560000D01*
X83820000Y-35560000D02*
X85090000Y-34290000D01*
X85090000Y-34290000D02*
X86360000Y-34290000D01*
X40640000Y-25400000D02*
X30480000Y-25400000D01*
X86360000Y-52070000D02*
X85090000Y-52070000D01*
X85090000Y-52070000D02*
X77470000Y-44450000D01*
X77470000Y-44450000D02*
X50800000Y-44450000D01*
X50800000Y-44450000D02*
X40640000Y-34290000D01*
X96520000Y-39370000D02*
X101600000Y-39370000D01*
X63500000Y-27940000D02*
X63500000Y-30480000D01*
X62230000Y-30480000D02*
X62230000Y-26670000D01*
X81280000Y-34290000D02*
X82550000Y-34290000D01*
X64770000Y-34290000D02*
X62230000Y-34290000D01*
X81280000Y-34290000D02*
X67310000Y-34290000D01*
X67310000Y-34290000D02*
X66040000Y-34290000D01*
X66040000Y-34290000D02*
X64770000Y-34290000D01*
X59690000Y-31750000D02*
X62230000Y-34290000D01*
X82550000Y-34290000D02*
X85090000Y-31750000D01*
X85090000Y-31750000D02*
X86360000Y-31750000D01*
X52070000Y-20320000D02*
X50800000Y-20320000D01*
X59690000Y-31750000D02*
X58420000Y-30480000D01*
X58420000Y-30480000D02*
X58420000Y-26670000D01*
X58420000Y-26670000D02*
X52070000Y-20320000D01*
X55880000Y-30480000D02*
X55880000Y-25400000D01*
X54610000Y-30480000D02*
X54610000Y-24130000D01*
X81280000Y-33020000D02*
X85090000Y-29210000D01*
X50800000Y-33020000D02*
X57150000Y-33020000D01*
X59690000Y-30480000D02*
X59690000Y-25400000D01*
X62230000Y-33020000D02*
X59690000Y-30480000D01*
X67310000Y-33020000D02*
X64770000Y-33020000D01*
X81280000Y-33020000D02*
X67310000Y-33020000D01*
X64770000Y-33020000D02*
X62230000Y-33020000D01*
X59690000Y-25400000D02*
X54610000Y-20320000D01*
X86360000Y-29210000D02*
X85090000Y-29210000D01*
X67310000Y-26670000D02*
X67310000Y-30480000D01*
X63500000Y-22860000D02*
X66040000Y-25400000D01*
X66040000Y-25400000D02*
X67310000Y-26670000D01*
X66040000Y-19050000D02*
X68580000Y-19050000D01*
X63500000Y-21590000D02*
X66040000Y-19050000D01*
X63500000Y-21590000D02*
X63500000Y-22860000D01*
X68580000Y-21590000D02*
X66040000Y-21590000D01*
X68580000Y-21590000D02*
X71120000Y-24130000D01*
X71120000Y-24130000D02*
X71120000Y-30480000D01*
X78740000Y-30480000D02*
X85090000Y-24130000D01*
X71120000Y-30480000D02*
X78740000Y-30480000D01*
X86360000Y-24130000D02*
X85090000Y-24130000D01*
X80010000Y-31750000D02*
X71120000Y-31750000D01*
X69850000Y-24130000D02*
X68580000Y-22860000D01*
X69850000Y-30480000D02*
X69850000Y-25400000D01*
X80010000Y-31750000D02*
X85090000Y-26670000D01*
X69850000Y-25400000D02*
X69850000Y-24130000D01*
X71120000Y-31750000D02*
X69850000Y-30480000D01*
X86360000Y-26670000D02*
X85090000Y-26670000D01*
X67310000Y-25400000D02*
X68580000Y-26670000D01*
X64770000Y-21590000D02*
X66040000Y-20320000D01*
X67310000Y-20320000D02*
X66040000Y-20320000D01*
X64770000Y-22860000D02*
X67310000Y-25400000D01*
X64770000Y-22860000D02*
X64770000Y-21590000D01*
X68580000Y-26670000D02*
X68580000Y-30480000D01*
X93980000Y-17780000D02*
X90170000Y-21590000D01*
X85090000Y-21590000D02*
X83820000Y-22860000D01*
X86360000Y-21590000D02*
X85090000Y-21590000D01*
X90170000Y-21590000D02*
X86360000Y-21590000D01*
X90170000Y-24130000D02*
X90170000Y-22860000D01*
X90170000Y-22860000D02*
X95250000Y-17780000D01*
X85090000Y-72390000D02*
X88900000Y-76200000D01*
X115570000Y-64770000D02*
X113030000Y-64770000D01*
X104140000Y-64770000D02*
X96520000Y-72390000D01*
X96520000Y-72390000D02*
X96520000Y-77470000D01*
X119380000Y-60960000D02*
X115570000Y-64770000D01*
X88900000Y-77470000D02*
X85090000Y-73660000D01*
X85090000Y-73660000D02*
X83820000Y-73660000D01*
X115570000Y-63500000D02*
X113030000Y-63500000D01*
X102870000Y-64770000D02*
X95250000Y-72390000D01*
X95250000Y-72390000D02*
X95250000Y-78740000D01*
X119380000Y-59690000D02*
X115570000Y-63500000D01*
X86360000Y-59690000D02*
X87630000Y-59690000D01*
X91440000Y-83820000D02*
X88900000Y-83820000D01*
X93980000Y-80010000D02*
X93980000Y-81280000D01*
X91440000Y-83820000D02*
X93980000Y-81280000D01*
X85090000Y-80010000D02*
X82550000Y-80010000D01*
X88900000Y-83820000D02*
X85090000Y-80010000D01*
X119380000Y-58420000D02*
X115570000Y-62230000D01*
X115570000Y-62230000D02*
X113030000Y-62230000D01*
X101600000Y-64770000D02*
X93980000Y-72390000D01*
X101600000Y-62230000D02*
X101600000Y-64770000D01*
X93980000Y-72390000D02*
X93980000Y-80010000D01*
X91440000Y-82550000D02*
X88900000Y-82550000D01*
X92710000Y-81280000D02*
X91440000Y-82550000D01*
X85090000Y-78740000D02*
X82550000Y-78740000D01*
X88900000Y-82550000D02*
X85090000Y-78740000D01*
X111760000Y-59690000D02*
X111760000Y-55880000D01*
X99060000Y-63500000D02*
X99060000Y-66040000D01*
X99060000Y-60960000D02*
X99060000Y-63500000D01*
X100330000Y-59690000D02*
X99060000Y-60960000D01*
X92710000Y-72390000D02*
X92710000Y-81280000D01*
X99060000Y-66040000D02*
X92710000Y-72390000D01*
X101600000Y-59690000D02*
X100330000Y-59690000D01*
X91440000Y-81280000D02*
X88900000Y-81280000D01*
X85090000Y-77470000D02*
X82550000Y-77470000D01*
X88900000Y-81280000D02*
X85090000Y-77470000D01*
X97790000Y-63500000D02*
X97790000Y-66040000D01*
X97790000Y-59690000D02*
X97790000Y-63500000D01*
X91440000Y-81280000D02*
X91440000Y-76200000D01*
X97790000Y-59690000D02*
X100330000Y-57150000D01*
X91440000Y-72390000D02*
X91440000Y-76200000D01*
X97790000Y-66040000D02*
X91440000Y-72390000D01*
X101600000Y-57150000D02*
X100330000Y-57150000D01*
X90170000Y-80010000D02*
X88900000Y-80010000D01*
X85090000Y-76200000D02*
X82550000Y-76200000D01*
X88900000Y-80010000D02*
X85090000Y-76200000D01*
X110490000Y-55880000D02*
X110490000Y-58420000D01*
X96520000Y-63500000D02*
X96520000Y-66040000D01*
X96520000Y-58420000D02*
X96520000Y-63500000D01*
X90170000Y-80010000D02*
X90170000Y-76200000D01*
X96520000Y-58420000D02*
X100330000Y-54610000D01*
X90170000Y-72390000D02*
X90170000Y-76200000D01*
X96520000Y-66040000D02*
X90170000Y-72390000D01*
X101600000Y-54610000D02*
X100330000Y-54610000D01*
X95250000Y-66040000D02*
X90170000Y-71120000D01*
X95250000Y-57150000D02*
X95250000Y-64770000D01*
X95250000Y-66040000D02*
X95250000Y-64770000D01*
X100330000Y-52070000D02*
X95250000Y-57150000D01*
X82550000Y-73660000D02*
X82550000Y-74930000D01*
X85090000Y-71120000D02*
X82550000Y-73660000D01*
X90170000Y-71120000D02*
X85090000Y-71120000D01*
X88900000Y-78740000D02*
X85090000Y-74930000D01*
X85090000Y-74930000D02*
X82550000Y-74930000D01*
X101600000Y-52070000D02*
X100330000Y-52070000D01*
X109220000Y-54610000D02*
X109220000Y-60960000D01*
X106680000Y-78740000D02*
X115570000Y-78740000D01*
D21*
X17780000Y-69850000D02*
X15240000Y-69850000D01*
X19050000Y-60960000D02*
X24130000Y-60960000D01*
X19050000Y-62230000D02*
X25400000Y-62230000D01*
X19050000Y-63500000D02*
X26670000Y-63500000D01*
X50800000Y-92710000D02*
X52070000Y-93980000D01*
X55880000Y-92710000D02*
X54610000Y-93980000D01*
X57150000Y-91440000D02*
X55880000Y-92710000D01*
X29210000Y-62230000D02*
X49530000Y-82550000D01*
X49530000Y-82550000D02*
X49530000Y-91440000D01*
X49530000Y-91440000D02*
X50800000Y-92710000D01*
X27940000Y-62230000D02*
X29210000Y-62230000D01*
X52070000Y-93980000D02*
X54610000Y-93980000D01*
X52070000Y-76200000D02*
X44450000Y-76200000D01*
X29210000Y-60960000D02*
X43180000Y-74930000D01*
X44450000Y-76200000D02*
X43180000Y-74930000D01*
X40640000Y-59690000D02*
X40640000Y-58420000D01*
X40640000Y-62230000D02*
X40640000Y-59690000D01*
X41910000Y-62230000D02*
X41910000Y-59690000D01*
X41910000Y-66040000D02*
X41910000Y-62230000D01*
X41910000Y-59690000D02*
X43180000Y-58420000D01*
X43180000Y-59690000D02*
X44450000Y-58420000D01*
X43180000Y-60960000D02*
X43180000Y-59690000D01*
X45720000Y-60960000D02*
X48260000Y-60960000D01*
X19050000Y-81280000D02*
X20320000Y-80010000D01*
X25400000Y-80010000D02*
X20320000Y-80010000D01*
X57150000Y-88900000D02*
X58420000Y-88900000D01*
X59690000Y-87630000D02*
X59690000Y-60960000D01*
X58420000Y-88900000D02*
X59690000Y-87630000D01*
X54610000Y-91440000D02*
X55880000Y-90170000D01*
X60960000Y-80010000D02*
X60960000Y-60960000D01*
X60960000Y-87630000D02*
X60960000Y-80010000D01*
X58420000Y-90170000D02*
X60960000Y-87630000D01*
X55880000Y-90170000D02*
X58420000Y-90170000D01*
X15240000Y-72390000D02*
X16510000Y-71120000D01*
X21590000Y-71120000D02*
X16510000Y-71120000D01*
X22860000Y-72390000D02*
X21590000Y-71120000D01*
X43180000Y-62230000D02*
X58420000Y-62230000D01*
X66040000Y-60960000D02*
X66040000Y-62230000D01*
X66040000Y-60960000D02*
X66040000Y-59690000D01*
X46990000Y-58420000D02*
X68580000Y-58420000D01*
X45720000Y-59690000D02*
X46990000Y-58420000D01*
X68580000Y-58420000D02*
X69850000Y-59690000D01*
X67310000Y-68580000D02*
X68580000Y-67310000D01*
X65544700Y-68580000D02*
X67310000Y-68580000D01*
X71120000Y-19050000D02*
X72390000Y-19050000D01*
X64770000Y-26670000D02*
X64770000Y-30480000D01*
X62230000Y-24130000D02*
X64770000Y-26670000D01*
X62230000Y-21590000D02*
X62230000Y-24130000D01*
X66040000Y-17780000D02*
X62230000Y-21590000D01*
X69850000Y-17780000D02*
X66040000Y-17780000D01*
X71120000Y-19050000D02*
X69850000Y-17780000D01*
X64770000Y-30480000D02*
X66040000Y-31750000D01*
X74930000Y-19050000D02*
X77965300Y-19050000D01*
G36*
X132565000Y-99545000D02*
X785000Y-99545000D01*
X785000Y-93452649D01*
X3869350Y-93452649D01*
X4439051Y-94831429D01*
X5493022Y-95887242D01*
X6870806Y-96459348D01*
X8362649Y-96460650D01*
X9741429Y-95890949D01*
X10797242Y-94836978D01*
X11369348Y-93459194D01*
X11370650Y-91967351D01*
X10800949Y-90588571D01*
X9746978Y-89532758D01*
X8369194Y-88960652D01*
X6877351Y-88959350D01*
X5498571Y-89529051D01*
X4442758Y-90583022D01*
X3870652Y-91960806D01*
X3869350Y-93452649D01*
X785000Y-93452649D01*
X785000Y-70018334D01*
X14389853Y-70018334D01*
X14518985Y-70330857D01*
X14757885Y-70570174D01*
X15070183Y-70699852D01*
X15408334Y-70700147D01*
X15720857Y-70571015D01*
X15741909Y-70550000D01*
X16127308Y-70550000D01*
X16015025Y-70625025D01*
X15100172Y-71539878D01*
X15071666Y-71539853D01*
X14759143Y-71668985D01*
X14519826Y-71907885D01*
X14390148Y-72220183D01*
X14389853Y-72558334D01*
X14518985Y-72870857D01*
X14757885Y-73110174D01*
X15070183Y-73239852D01*
X15114408Y-73239891D01*
X15060252Y-73370312D01*
X15059749Y-73947157D01*
X15280033Y-74480286D01*
X15687569Y-74888533D01*
X15787018Y-74929828D01*
X15689714Y-74970033D01*
X15281467Y-75377569D01*
X15060252Y-75910312D01*
X15059749Y-76487157D01*
X15280033Y-77020286D01*
X15687569Y-77428533D01*
X15787018Y-77469828D01*
X15689714Y-77510033D01*
X15281467Y-77917569D01*
X15060252Y-78450312D01*
X15059749Y-79027157D01*
X15280033Y-79560286D01*
X15687569Y-79968533D01*
X15787018Y-80009828D01*
X15689714Y-80050033D01*
X15281467Y-80457569D01*
X15060252Y-80990312D01*
X15059749Y-81567157D01*
X15280033Y-82100286D01*
X15687569Y-82508533D01*
X15787018Y-82549828D01*
X15689714Y-82590033D01*
X15281467Y-82997569D01*
X15060252Y-83530312D01*
X15059749Y-84107157D01*
X15280033Y-84640286D01*
X15687569Y-85048533D01*
X15787018Y-85089828D01*
X15689714Y-85130033D01*
X15281467Y-85537569D01*
X15060252Y-86070312D01*
X15059749Y-86647157D01*
X15280033Y-87180286D01*
X15687569Y-87588533D01*
X15787018Y-87629828D01*
X15689714Y-87670033D01*
X15281467Y-88077569D01*
X15060252Y-88610312D01*
X15059749Y-89187157D01*
X15280033Y-89720286D01*
X15687569Y-90128533D01*
X15787018Y-90169828D01*
X15689714Y-90210033D01*
X15281467Y-90617569D01*
X15060252Y-91150312D01*
X15059749Y-91727157D01*
X15280033Y-92260286D01*
X15687569Y-92668533D01*
X16220312Y-92889748D01*
X16797157Y-92890251D01*
X17330286Y-92669967D01*
X17738533Y-92262431D01*
X17779828Y-92162982D01*
X17820033Y-92260286D01*
X18227569Y-92668533D01*
X18760312Y-92889748D01*
X19337157Y-92890251D01*
X19870286Y-92669967D01*
X20278533Y-92262431D01*
X20319828Y-92162982D01*
X20360033Y-92260286D01*
X20767569Y-92668533D01*
X21300312Y-92889748D01*
X21877157Y-92890251D01*
X22410286Y-92669967D01*
X22818533Y-92262431D01*
X23039748Y-91729688D01*
X23040251Y-91152843D01*
X22819967Y-90619714D01*
X22412431Y-90211467D01*
X22312982Y-90170172D01*
X22410286Y-90129967D01*
X22818533Y-89722431D01*
X23039748Y-89189688D01*
X23040251Y-88612843D01*
X22819967Y-88079714D01*
X22412431Y-87671467D01*
X22312982Y-87630172D01*
X22410286Y-87589967D01*
X22818533Y-87182431D01*
X23039748Y-86649688D01*
X23040088Y-86260038D01*
X23279878Y-86499828D01*
X23279853Y-86528334D01*
X23408985Y-86840857D01*
X23647885Y-87080174D01*
X23960183Y-87209852D01*
X24298334Y-87210147D01*
X24610857Y-87081015D01*
X24850174Y-86842115D01*
X24979852Y-86529817D01*
X24980147Y-86191666D01*
X24851015Y-85879143D01*
X24612115Y-85639826D01*
X24299817Y-85510148D01*
X24270072Y-85510122D01*
X23354975Y-84595025D01*
X23127879Y-84443284D01*
X22918519Y-84401640D01*
X23039748Y-84109688D01*
X23040251Y-83532843D01*
X22819967Y-82999714D01*
X22412431Y-82591467D01*
X22312982Y-82550172D01*
X22410286Y-82509967D01*
X22818533Y-82102431D01*
X23039748Y-81569688D01*
X23040251Y-80992843D01*
X22923383Y-80710000D01*
X24897746Y-80710000D01*
X24917885Y-80730174D01*
X25230183Y-80859852D01*
X25568334Y-80860147D01*
X25880857Y-80731015D01*
X26120174Y-80492115D01*
X26249852Y-80179817D01*
X26250147Y-79841666D01*
X26121015Y-79529143D01*
X25882115Y-79289826D01*
X25569817Y-79160148D01*
X25231666Y-79159853D01*
X24919143Y-79288985D01*
X24898091Y-79310000D01*
X22923352Y-79310000D01*
X23039748Y-79029688D01*
X23040251Y-78452843D01*
X22819967Y-77919714D01*
X22412431Y-77511467D01*
X22312982Y-77470172D01*
X22410286Y-77429967D01*
X22818533Y-77022431D01*
X23039748Y-76489688D01*
X23040251Y-75912843D01*
X22819967Y-75379714D01*
X22412431Y-74971467D01*
X22312982Y-74930172D01*
X22410286Y-74889967D01*
X22818533Y-74482431D01*
X23039748Y-73949688D01*
X23040251Y-73372843D01*
X22985407Y-73240110D01*
X23028334Y-73240147D01*
X23340857Y-73111015D01*
X23580174Y-72872115D01*
X23709852Y-72559817D01*
X23710147Y-72221666D01*
X23581015Y-71909143D01*
X23342115Y-71669826D01*
X23029817Y-71540148D01*
X23000072Y-71540122D01*
X22084975Y-70625025D01*
X21857879Y-70473284D01*
X21590000Y-70420000D01*
X18412136Y-70420000D01*
X18500174Y-70332115D01*
X18629852Y-70019817D01*
X18630147Y-69681666D01*
X18501015Y-69369143D01*
X18262115Y-69129826D01*
X17949817Y-69000148D01*
X17611666Y-68999853D01*
X17299143Y-69128985D01*
X17278091Y-69150000D01*
X15742254Y-69150000D01*
X15722115Y-69129826D01*
X15409817Y-69000148D01*
X15071666Y-68999853D01*
X14759143Y-69128985D01*
X14519826Y-69367885D01*
X14390148Y-69680183D01*
X14389853Y-70018334D01*
X785000Y-70018334D01*
X785000Y-61128334D01*
X18199853Y-61128334D01*
X18328985Y-61440857D01*
X18482919Y-61595059D01*
X18329826Y-61747885D01*
X18200148Y-62060183D01*
X18199853Y-62398334D01*
X18328985Y-62710857D01*
X18482919Y-62865059D01*
X18329826Y-63017885D01*
X18200148Y-63330183D01*
X18199853Y-63668334D01*
X18328985Y-63980857D01*
X18567885Y-64220174D01*
X18880183Y-64349852D01*
X19218334Y-64350147D01*
X19530857Y-64221015D01*
X19551909Y-64200000D01*
X26167746Y-64200000D01*
X26187885Y-64220174D01*
X26500183Y-64349852D01*
X26838334Y-64350147D01*
X27150857Y-64221015D01*
X27390174Y-63982115D01*
X27519852Y-63669817D01*
X27520147Y-63331666D01*
X27391015Y-63019143D01*
X27152115Y-62779826D01*
X26839817Y-62650148D01*
X26501666Y-62649853D01*
X26189143Y-62778985D01*
X26168091Y-62800000D01*
X26032136Y-62800000D01*
X26120174Y-62712115D01*
X26249852Y-62399817D01*
X26249853Y-62398334D01*
X27089853Y-62398334D01*
X27218985Y-62710857D01*
X27457885Y-62950174D01*
X27770183Y-63079852D01*
X28108334Y-63080147D01*
X28420857Y-62951015D01*
X28441909Y-62930000D01*
X28920050Y-62930000D01*
X48830000Y-82839949D01*
X48830000Y-91440000D01*
X48883284Y-91707879D01*
X49035025Y-91934975D01*
X51575025Y-94474975D01*
X51802122Y-94626716D01*
X52070000Y-94680000D01*
X54610000Y-94680000D01*
X54877879Y-94626716D01*
X55104975Y-94474975D01*
X56127301Y-93452649D01*
X121979350Y-93452649D01*
X122549051Y-94831429D01*
X123603022Y-95887242D01*
X124980806Y-96459348D01*
X126472649Y-96460650D01*
X127851429Y-95890949D01*
X128907242Y-94836978D01*
X129479348Y-93459194D01*
X129480650Y-91967351D01*
X128910949Y-90588571D01*
X127856978Y-89532758D01*
X126479194Y-88960652D01*
X124987351Y-88959350D01*
X123608571Y-89529051D01*
X122552758Y-90583022D01*
X121980652Y-91960806D01*
X121979350Y-93452649D01*
X56127301Y-93452649D01*
X56740113Y-92839837D01*
X56860312Y-92889748D01*
X57437157Y-92890251D01*
X57970286Y-92669967D01*
X58378533Y-92262431D01*
X58599748Y-91729688D01*
X58600251Y-91152843D01*
X58478569Y-90858350D01*
X58687879Y-90816716D01*
X58914975Y-90664975D01*
X61454972Y-88124977D01*
X61454975Y-88124975D01*
X61606716Y-87897878D01*
X61660000Y-87630000D01*
X61660000Y-84290960D01*
X61699670Y-84350330D01*
X62599859Y-85250519D01*
X62599844Y-85268236D01*
X62736572Y-85599143D01*
X62989525Y-85852538D01*
X63320194Y-85989843D01*
X63678236Y-85990156D01*
X64009143Y-85853428D01*
X64262538Y-85600475D01*
X64399843Y-85269806D01*
X64400156Y-84911764D01*
X64263428Y-84580857D01*
X64010475Y-84327462D01*
X63679806Y-84190157D01*
X63660800Y-84190140D01*
X62980000Y-83509340D01*
X62980000Y-79262991D01*
X62992538Y-79250475D01*
X63129843Y-78919806D01*
X63130156Y-78561764D01*
X62993428Y-78230857D01*
X62740475Y-77977462D01*
X62409806Y-77840157D01*
X62051764Y-77839844D01*
X61720857Y-77976572D01*
X61660000Y-78037323D01*
X61660000Y-61462254D01*
X61680174Y-61442115D01*
X61809852Y-61129817D01*
X61810147Y-60791666D01*
X61681015Y-60479143D01*
X61442115Y-60239826D01*
X61129817Y-60110148D01*
X60791666Y-60109853D01*
X60479143Y-60238985D01*
X60324941Y-60392919D01*
X60172115Y-60239826D01*
X59859817Y-60110148D01*
X59521666Y-60109853D01*
X59209143Y-60238985D01*
X58969826Y-60477885D01*
X58840148Y-60790183D01*
X58839853Y-61128334D01*
X58968985Y-61440857D01*
X58990000Y-61461909D01*
X58990000Y-61597864D01*
X58902115Y-61509826D01*
X58589817Y-61380148D01*
X58251666Y-61379853D01*
X57939143Y-61508985D01*
X57918091Y-61530000D01*
X48892136Y-61530000D01*
X48980174Y-61442115D01*
X49109852Y-61129817D01*
X49110147Y-60791666D01*
X48981015Y-60479143D01*
X48742115Y-60239826D01*
X48429817Y-60110148D01*
X48091666Y-60109853D01*
X47779143Y-60238985D01*
X47758091Y-60260000D01*
X46352136Y-60260000D01*
X46440174Y-60172115D01*
X46569852Y-59859817D01*
X46569878Y-59830072D01*
X47279950Y-59120000D01*
X65407864Y-59120000D01*
X65319826Y-59207885D01*
X65190148Y-59520183D01*
X65189853Y-59858334D01*
X65318985Y-60170857D01*
X65340000Y-60191909D01*
X65340000Y-61727746D01*
X65319826Y-61747885D01*
X65190148Y-62060183D01*
X65189853Y-62398334D01*
X65318985Y-62710857D01*
X65557885Y-62950174D01*
X65870183Y-63079852D01*
X66208334Y-63080147D01*
X66520857Y-62951015D01*
X66760174Y-62712115D01*
X66816735Y-62575901D01*
X84240883Y-62575901D01*
X84280797Y-62730137D01*
X84584789Y-63258133D01*
X85067696Y-63629605D01*
X85656000Y-63788000D01*
X86256000Y-63788000D01*
X86256000Y-62334000D01*
X86464000Y-62334000D01*
X86464000Y-63788000D01*
X87064000Y-63788000D01*
X87652304Y-63629605D01*
X88135211Y-63258133D01*
X88439203Y-62730137D01*
X88479117Y-62575901D01*
X88349614Y-62334000D01*
X86464000Y-62334000D01*
X86256000Y-62334000D01*
X84370386Y-62334000D01*
X84240883Y-62575901D01*
X66816735Y-62575901D01*
X66889852Y-62399817D01*
X66890147Y-62061666D01*
X66761015Y-61749143D01*
X66740000Y-61728091D01*
X66740000Y-60192254D01*
X66760174Y-60172115D01*
X66889852Y-59859817D01*
X66890147Y-59521666D01*
X66761015Y-59209143D01*
X66672027Y-59120000D01*
X68290050Y-59120000D01*
X68999878Y-59829828D01*
X68999853Y-59858334D01*
X69128985Y-60170857D01*
X69367885Y-60410174D01*
X69680183Y-60539852D01*
X70018334Y-60540147D01*
X70330857Y-60411015D01*
X70570174Y-60172115D01*
X70699852Y-59859817D01*
X70700147Y-59521666D01*
X70571015Y-59209143D01*
X70332115Y-58969826D01*
X70019817Y-58840148D01*
X69990072Y-58840122D01*
X69074975Y-57925025D01*
X68847879Y-57773284D01*
X68580000Y-57720000D01*
X46990000Y-57720000D01*
X46722122Y-57773284D01*
X46722120Y-57773285D01*
X46722121Y-57773285D01*
X46495025Y-57925025D01*
X45580172Y-58839878D01*
X45551666Y-58839853D01*
X45239143Y-58968985D01*
X44999826Y-59207885D01*
X44870148Y-59520183D01*
X44869853Y-59858334D01*
X44998985Y-60170857D01*
X45152919Y-60325059D01*
X44999826Y-60477885D01*
X44870148Y-60790183D01*
X44869853Y-61128334D01*
X44998985Y-61440857D01*
X45087973Y-61530000D01*
X43812136Y-61530000D01*
X43900174Y-61442115D01*
X44029852Y-61129817D01*
X44030147Y-60791666D01*
X43901015Y-60479143D01*
X43880000Y-60458091D01*
X43880000Y-59979950D01*
X44589828Y-59270122D01*
X44618334Y-59270147D01*
X44930857Y-59141015D01*
X45170174Y-58902115D01*
X45299852Y-58589817D01*
X45300147Y-58251666D01*
X45171015Y-57939143D01*
X44932115Y-57699826D01*
X44619817Y-57570148D01*
X44281666Y-57569853D01*
X43969143Y-57698985D01*
X43814941Y-57852919D01*
X43662115Y-57699826D01*
X43349817Y-57570148D01*
X43011666Y-57569853D01*
X42699143Y-57698985D01*
X42459826Y-57937885D01*
X42330148Y-58250183D01*
X42330122Y-58279928D01*
X41415025Y-59195025D01*
X41340000Y-59307308D01*
X41340000Y-58922254D01*
X41360174Y-58902115D01*
X41489852Y-58589817D01*
X41490147Y-58251666D01*
X41361015Y-57939143D01*
X41122115Y-57699826D01*
X40809817Y-57570148D01*
X40471666Y-57569853D01*
X40270000Y-57653180D01*
X40270000Y-52640575D01*
X40410445Y-52302347D01*
X40872938Y-51839854D01*
X41234000Y-51690666D01*
X41529628Y-51395554D01*
X41689818Y-51009774D01*
X41690182Y-50592058D01*
X41530666Y-50206000D01*
X41235554Y-49910372D01*
X40872347Y-49759555D01*
X39139854Y-48027062D01*
X38990666Y-47666000D01*
X38695554Y-47370372D01*
X38309774Y-47210182D01*
X37892058Y-47209818D01*
X37506000Y-47369334D01*
X37210372Y-47664446D01*
X37050182Y-48050226D01*
X37049818Y-48467942D01*
X37209334Y-48854000D01*
X37504446Y-49149628D01*
X37867653Y-49300445D01*
X39367208Y-50800000D01*
X39137062Y-51030146D01*
X38776000Y-51179334D01*
X38480372Y-51474446D01*
X38320182Y-51860226D01*
X38319818Y-52277942D01*
X38470000Y-52641410D01*
X38470000Y-69230051D01*
X30060122Y-60820172D01*
X30060147Y-60791666D01*
X29931015Y-60479143D01*
X29692115Y-60239826D01*
X29379817Y-60110148D01*
X29041666Y-60109853D01*
X28729143Y-60238985D01*
X28489826Y-60477885D01*
X28360148Y-60790183D01*
X28359853Y-61128334D01*
X28488985Y-61440857D01*
X28577973Y-61530000D01*
X28442254Y-61530000D01*
X28422115Y-61509826D01*
X28109817Y-61380148D01*
X27771666Y-61379853D01*
X27459143Y-61508985D01*
X27219826Y-61747885D01*
X27090148Y-62060183D01*
X27089853Y-62398334D01*
X26249853Y-62398334D01*
X26250147Y-62061666D01*
X26121015Y-61749143D01*
X25882115Y-61509826D01*
X25569817Y-61380148D01*
X25231666Y-61379853D01*
X24919143Y-61508985D01*
X24898091Y-61530000D01*
X24762136Y-61530000D01*
X24850174Y-61442115D01*
X24979852Y-61129817D01*
X24980147Y-60791666D01*
X24851015Y-60479143D01*
X24612115Y-60239826D01*
X24299817Y-60110148D01*
X23961666Y-60109853D01*
X23649143Y-60238985D01*
X23628091Y-60260000D01*
X19552254Y-60260000D01*
X19532115Y-60239826D01*
X19219817Y-60110148D01*
X18881666Y-60109853D01*
X18569143Y-60238985D01*
X18329826Y-60477885D01*
X18200148Y-60790183D01*
X18199853Y-61128334D01*
X785000Y-61128334D01*
X785000Y-25578236D01*
X29579844Y-25578236D01*
X29716572Y-25909143D01*
X29969525Y-26162538D01*
X30300194Y-26299843D01*
X30658236Y-26300156D01*
X30985158Y-26165075D01*
X30850157Y-26490194D01*
X30849844Y-26848236D01*
X30986572Y-27179143D01*
X31239525Y-27432538D01*
X31570194Y-27569843D01*
X31928236Y-27570156D01*
X32255158Y-27435075D01*
X32120157Y-27760194D01*
X32119844Y-28118236D01*
X32256572Y-28449143D01*
X32509525Y-28702538D01*
X32840194Y-28839843D01*
X33198236Y-28840156D01*
X33525158Y-28705075D01*
X33390157Y-29030194D01*
X33389844Y-29388236D01*
X33526572Y-29719143D01*
X33779525Y-29972538D01*
X34110194Y-30109843D01*
X34468236Y-30110156D01*
X34795158Y-29975075D01*
X34660157Y-30300194D01*
X34659844Y-30658236D01*
X34796572Y-30989143D01*
X35049525Y-31242538D01*
X35380194Y-31379843D01*
X35738236Y-31380156D01*
X36065158Y-31245075D01*
X35930157Y-31570194D01*
X35929844Y-31928236D01*
X36066572Y-32259143D01*
X36319525Y-32512538D01*
X36650194Y-32649843D01*
X37008236Y-32650156D01*
X37335158Y-32515075D01*
X37200157Y-32840194D01*
X37199844Y-33198236D01*
X37336572Y-33529143D01*
X37589525Y-33782538D01*
X37920194Y-33919843D01*
X38278236Y-33920156D01*
X38609143Y-33783428D01*
X38622594Y-33770000D01*
X39887004Y-33770000D01*
X39877462Y-33779525D01*
X39740157Y-34110194D01*
X39739844Y-34468236D01*
X39876572Y-34799143D01*
X40129525Y-35052538D01*
X40460194Y-35189843D01*
X40479200Y-35189860D01*
X50269670Y-44980330D01*
X50512987Y-45142910D01*
X50800000Y-45200000D01*
X54796582Y-45200000D01*
X54680209Y-45480258D01*
X54679793Y-45957647D01*
X54862097Y-46398857D01*
X55199367Y-46736717D01*
X55640258Y-46919791D01*
X56117647Y-46920207D01*
X56481176Y-46770000D01*
X57819521Y-46770000D01*
X58180258Y-46919791D01*
X58657647Y-46920207D01*
X59021176Y-46770000D01*
X75765076Y-46770000D01*
X77572936Y-48577860D01*
X77722097Y-48938857D01*
X78059367Y-49276717D01*
X78422635Y-49427559D01*
X78842936Y-49847860D01*
X78992097Y-50208857D01*
X79329367Y-50546717D01*
X79770258Y-50729791D01*
X80247647Y-50730207D01*
X80688857Y-50547903D01*
X81026717Y-50210633D01*
X81209791Y-49769742D01*
X81210207Y-49292353D01*
X81180995Y-49221655D01*
X84329555Y-52370215D01*
X84380213Y-52624891D01*
X84694533Y-53095305D01*
X85060746Y-53340000D01*
X84694533Y-53584695D01*
X84380213Y-54055109D01*
X84269838Y-54610000D01*
X84380213Y-55164891D01*
X84694533Y-55635305D01*
X85060746Y-55880000D01*
X84694533Y-56124695D01*
X84380213Y-56595109D01*
X84269838Y-57150000D01*
X84380213Y-57704891D01*
X84694533Y-58175305D01*
X85060746Y-58420000D01*
X84694533Y-58664695D01*
X84380213Y-59135109D01*
X84269838Y-59690000D01*
X84380213Y-60244891D01*
X84694533Y-60715305D01*
X84974300Y-60902239D01*
X84584789Y-61201867D01*
X84280797Y-61729863D01*
X84240883Y-61884099D01*
X84370386Y-62126000D01*
X86256000Y-62126000D01*
X86256000Y-62106000D01*
X86464000Y-62106000D01*
X86464000Y-62126000D01*
X88349614Y-62126000D01*
X88479117Y-61884099D01*
X88439203Y-61729863D01*
X88135211Y-61201867D01*
X87745700Y-60902239D01*
X88025467Y-60715305D01*
X88339787Y-60244891D01*
X88450162Y-59690000D01*
X88339787Y-59135109D01*
X88025467Y-58664695D01*
X87659254Y-58420000D01*
X88025467Y-58175305D01*
X88339787Y-57704891D01*
X88450162Y-57150000D01*
X88339787Y-56595109D01*
X88025467Y-56124695D01*
X87659254Y-55880000D01*
X88025467Y-55635305D01*
X88339787Y-55164891D01*
X88450162Y-54610000D01*
X88339787Y-54055109D01*
X88025467Y-53584695D01*
X87659254Y-53340000D01*
X88025467Y-53095305D01*
X88339787Y-52624891D01*
X88450162Y-52070000D01*
X88339787Y-51515109D01*
X88025467Y-51044695D01*
X87659254Y-50800000D01*
X88025467Y-50555305D01*
X88339787Y-50084891D01*
X88450162Y-49530000D01*
X88339787Y-48975109D01*
X88025467Y-48504695D01*
X87659254Y-48260000D01*
X88025467Y-48015305D01*
X88339787Y-47544891D01*
X88450162Y-46990000D01*
X88339787Y-46435109D01*
X88025467Y-45964695D01*
X87659254Y-45720000D01*
X88025467Y-45475305D01*
X88339787Y-45004891D01*
X88450162Y-44450000D01*
X88339787Y-43895109D01*
X88025467Y-43424695D01*
X87659254Y-43180000D01*
X88025467Y-42935305D01*
X88339787Y-42464891D01*
X88450162Y-41910000D01*
X88339787Y-41355109D01*
X88025467Y-40884695D01*
X87659254Y-40640000D01*
X88025467Y-40395305D01*
X88339787Y-39924891D01*
X88450162Y-39370000D01*
X88339787Y-38815109D01*
X88025467Y-38344695D01*
X87659254Y-38100000D01*
X88025467Y-37855305D01*
X88339787Y-37384891D01*
X88450162Y-36830000D01*
X88339787Y-36275109D01*
X88025467Y-35804695D01*
X87659254Y-35560000D01*
X88025467Y-35315305D01*
X88339787Y-34844891D01*
X88450162Y-34290000D01*
X88339787Y-33735109D01*
X88025467Y-33264695D01*
X87659254Y-33020000D01*
X88025467Y-32775305D01*
X88339787Y-32304891D01*
X88450162Y-31750000D01*
X88339787Y-31195109D01*
X88025467Y-30724695D01*
X87659254Y-30480000D01*
X88025467Y-30235305D01*
X88339787Y-29764891D01*
X88450162Y-29210000D01*
X88339787Y-28655109D01*
X88025467Y-28184695D01*
X87659254Y-27940000D01*
X88025467Y-27695305D01*
X88339787Y-27224891D01*
X88450162Y-26670000D01*
X88339787Y-26115109D01*
X88025467Y-25644695D01*
X87659254Y-25400000D01*
X88025467Y-25155305D01*
X88339787Y-24684891D01*
X88450162Y-24130000D01*
X88339787Y-23575109D01*
X88025467Y-23104695D01*
X87555053Y-22790375D01*
X87000162Y-22680000D01*
X85719838Y-22680000D01*
X85164947Y-22790375D01*
X84694533Y-23104695D01*
X84690216Y-23111155D01*
X84719843Y-23039806D01*
X84719860Y-23020800D01*
X85400660Y-22340000D01*
X89632768Y-22340000D01*
X89477090Y-22572987D01*
X89420000Y-22860000D01*
X89420000Y-23607009D01*
X89407462Y-23619525D01*
X89270157Y-23950194D01*
X89269844Y-24308236D01*
X89406572Y-24639143D01*
X89659525Y-24892538D01*
X89990194Y-25029843D01*
X90348236Y-25030156D01*
X90679143Y-24893428D01*
X90932538Y-24640475D01*
X91069843Y-24309806D01*
X91070156Y-23951764D01*
X90933428Y-23620857D01*
X90920000Y-23607406D01*
X90920000Y-23170660D01*
X93230000Y-20860660D01*
X93230000Y-32497009D01*
X93217462Y-32509525D01*
X93080157Y-32840194D01*
X93079844Y-33198236D01*
X93216572Y-33529143D01*
X93469525Y-33782538D01*
X93800194Y-33919843D01*
X94158236Y-33920156D01*
X94489143Y-33783428D01*
X94500000Y-33772590D01*
X94500000Y-35037009D01*
X94487462Y-35049525D01*
X94350157Y-35380194D01*
X94349844Y-35738236D01*
X94486572Y-36069143D01*
X94718182Y-36301158D01*
X92549481Y-38469859D01*
X92531764Y-38469844D01*
X92200857Y-38606572D01*
X91947462Y-38859525D01*
X91810157Y-39190194D01*
X91809844Y-39548236D01*
X91946572Y-39879143D01*
X92199525Y-40132538D01*
X92530194Y-40269843D01*
X92888236Y-40270156D01*
X93219143Y-40133428D01*
X93230000Y-40122590D01*
X93230000Y-41387009D01*
X93217462Y-41399525D01*
X93080157Y-41730194D01*
X93079844Y-42088236D01*
X93216572Y-42419143D01*
X93469525Y-42672538D01*
X93800194Y-42809843D01*
X94158236Y-42810156D01*
X94489143Y-42673428D01*
X94500000Y-42662590D01*
X94500000Y-53029340D01*
X92179670Y-55349670D01*
X92017090Y-55592987D01*
X91960000Y-55880000D01*
X91960000Y-61919340D01*
X89859340Y-64020000D01*
X81280000Y-64020000D01*
X80992987Y-64077090D01*
X80749670Y-64239670D01*
X79099924Y-65889416D01*
X79029688Y-65860252D01*
X78452843Y-65859749D01*
X77919714Y-66080033D01*
X77511467Y-66487569D01*
X77470172Y-66587018D01*
X77429967Y-66489714D01*
X77022431Y-66081467D01*
X76489688Y-65860252D01*
X75912843Y-65859749D01*
X75379714Y-66080033D01*
X74971467Y-66487569D01*
X74941391Y-66560000D01*
X72379009Y-66560000D01*
X72349967Y-66489714D01*
X71942431Y-66081467D01*
X71409688Y-65860252D01*
X70832843Y-65859749D01*
X70299714Y-66080033D01*
X69891467Y-66487569D01*
X69850172Y-66587018D01*
X69809967Y-66489714D01*
X69402431Y-66081467D01*
X68869688Y-65860252D01*
X68292843Y-65859749D01*
X67759714Y-66080033D01*
X67351467Y-66487569D01*
X67130252Y-67020312D01*
X67129749Y-67597157D01*
X67180373Y-67719677D01*
X67020050Y-67880000D01*
X66805475Y-67880000D01*
X66805475Y-67830000D01*
X66767124Y-67626182D01*
X66646668Y-67438988D01*
X66462873Y-67313406D01*
X66244700Y-67269225D01*
X64844700Y-67269225D01*
X64640882Y-67307576D01*
X64521794Y-67384207D01*
X64418173Y-67313406D01*
X64200000Y-67269225D01*
X62800000Y-67269225D01*
X62596182Y-67307576D01*
X62408988Y-67428032D01*
X62283406Y-67611827D01*
X62239225Y-67830000D01*
X62239225Y-69330000D01*
X62277576Y-69533818D01*
X62398032Y-69721012D01*
X62450000Y-69756520D01*
X62450000Y-69850000D01*
X62529926Y-70251818D01*
X62757538Y-70592462D01*
X64990000Y-72824924D01*
X64990000Y-86360000D01*
X65069926Y-86761818D01*
X65297538Y-87102462D01*
X69107538Y-90912462D01*
X69448182Y-91140074D01*
X69850000Y-91220000D01*
X72390000Y-91220000D01*
X72791818Y-91140074D01*
X73132462Y-90912462D01*
X76634924Y-87410000D01*
X80679521Y-87410000D01*
X80962635Y-87527559D01*
X81807538Y-88372462D01*
X82148182Y-88600074D01*
X82550000Y-88680000D01*
X93980000Y-88680000D01*
X94381818Y-88600074D01*
X94722462Y-88372462D01*
X104176688Y-78918236D01*
X105779844Y-78918236D01*
X105916572Y-79249143D01*
X106169525Y-79502538D01*
X106500194Y-79639843D01*
X106858236Y-79640156D01*
X107189143Y-79503428D01*
X107202594Y-79490000D01*
X115047009Y-79490000D01*
X115059525Y-79502538D01*
X115390194Y-79639843D01*
X115748236Y-79640156D01*
X116079143Y-79503428D01*
X116332538Y-79250475D01*
X116469843Y-78919806D01*
X116470156Y-78561764D01*
X116333428Y-78230857D01*
X116080475Y-77977462D01*
X115749806Y-77840157D01*
X115391764Y-77839844D01*
X115060857Y-77976572D01*
X115047406Y-77990000D01*
X107202991Y-77990000D01*
X107190475Y-77977462D01*
X106859806Y-77840157D01*
X106501764Y-77839844D01*
X106170857Y-77976572D01*
X105917462Y-78229525D01*
X105780157Y-78560194D01*
X105779844Y-78918236D01*
X104176688Y-78918236D01*
X105844924Y-77250000D01*
X106079521Y-77250000D01*
X106440258Y-77399791D01*
X106917647Y-77400207D01*
X107358857Y-77217903D01*
X107696717Y-76880633D01*
X107847559Y-76517365D01*
X113772462Y-70592462D01*
X114000074Y-70251818D01*
X114080000Y-69850000D01*
X114080000Y-67910479D01*
X114229791Y-67549742D01*
X114230207Y-67072353D01*
X114047903Y-66631143D01*
X113710633Y-66293283D01*
X113347365Y-66142441D01*
X112874789Y-65669865D01*
X113208236Y-65670156D01*
X113539143Y-65533428D01*
X113552594Y-65520000D01*
X115570000Y-65520000D01*
X115857013Y-65462910D01*
X116100330Y-65300330D01*
X118639025Y-62761635D01*
X118869525Y-62992538D01*
X119200194Y-63129843D01*
X119558236Y-63130156D01*
X119889143Y-62993428D01*
X120142538Y-62740475D01*
X120279843Y-62409806D01*
X120279860Y-62390800D01*
X130070330Y-52600330D01*
X130232910Y-52357013D01*
X130290000Y-52070000D01*
X130290000Y-45709009D01*
X130360286Y-45679967D01*
X130768533Y-45272431D01*
X130989748Y-44739688D01*
X130990251Y-44162843D01*
X130769967Y-43629714D01*
X130362431Y-43221467D01*
X130262982Y-43180172D01*
X130360286Y-43139967D01*
X130768533Y-42732431D01*
X130989748Y-42199688D01*
X130990251Y-41622843D01*
X130769967Y-41089714D01*
X130362431Y-40681467D01*
X130262982Y-40640172D01*
X130360286Y-40599967D01*
X130768533Y-40192431D01*
X130989748Y-39659688D01*
X130990251Y-39082843D01*
X130769967Y-38549714D01*
X130362431Y-38141467D01*
X130262982Y-38100172D01*
X130360286Y-38059967D01*
X130768533Y-37652431D01*
X130989748Y-37119688D01*
X130990251Y-36542843D01*
X130769967Y-36009714D01*
X130362431Y-35601467D01*
X130262982Y-35560172D01*
X130360286Y-35519967D01*
X130768533Y-35112431D01*
X130989748Y-34579688D01*
X130990251Y-34002843D01*
X130769967Y-33469714D01*
X130362431Y-33061467D01*
X130262982Y-33020172D01*
X130360286Y-32979967D01*
X130768533Y-32572431D01*
X130989748Y-32039688D01*
X130990251Y-31462843D01*
X130769967Y-30929714D01*
X130362431Y-30521467D01*
X130262982Y-30480172D01*
X130360286Y-30439967D01*
X130768533Y-30032431D01*
X130989748Y-29499688D01*
X130990251Y-28922843D01*
X130769967Y-28389714D01*
X130389204Y-28008287D01*
X130470708Y-27747786D01*
X129540000Y-26817078D01*
X128609292Y-27747786D01*
X128690942Y-28008755D01*
X128311467Y-28387569D01*
X128090252Y-28920312D01*
X128089749Y-29497157D01*
X128310033Y-30030286D01*
X128717569Y-30438533D01*
X128817018Y-30479828D01*
X128719714Y-30520033D01*
X128311467Y-30927569D01*
X128090252Y-31460312D01*
X128089749Y-32037157D01*
X128119699Y-32109641D01*
X121389670Y-38839670D01*
X121227090Y-39082987D01*
X121170000Y-39370000D01*
X121170000Y-44450000D01*
X121227090Y-44737013D01*
X121389670Y-44980330D01*
X122440000Y-46030660D01*
X122440000Y-50489340D01*
X121609340Y-51320000D01*
X115570000Y-51320000D01*
X115282987Y-51377090D01*
X115039670Y-51539670D01*
X112499670Y-54079670D01*
X112337090Y-54322987D01*
X112280000Y-54610000D01*
X112280000Y-55127004D01*
X112270475Y-55117462D01*
X111939806Y-54980157D01*
X111581764Y-54979844D01*
X111250857Y-55116572D01*
X111125002Y-55242207D01*
X111000475Y-55117462D01*
X110669806Y-54980157D01*
X110311764Y-54979844D01*
X109984842Y-55114925D01*
X110119843Y-54789806D01*
X110120156Y-54431764D01*
X109983428Y-54100857D01*
X109730475Y-53847462D01*
X109399806Y-53710157D01*
X109065060Y-53709864D01*
X109654924Y-53120000D01*
X110490000Y-53120000D01*
X110891818Y-53040074D01*
X111232462Y-52812462D01*
X114617860Y-49427064D01*
X114978857Y-49277903D01*
X115316717Y-48940633D01*
X115499791Y-48499742D01*
X115500207Y-48022353D01*
X115317903Y-47581143D01*
X114980633Y-47243283D01*
X114539742Y-47060209D01*
X114062353Y-47059793D01*
X113621143Y-47242097D01*
X113283283Y-47579367D01*
X113132441Y-47942635D01*
X110055076Y-51020000D01*
X109220000Y-51020000D01*
X109213664Y-51021260D01*
X115042462Y-45192462D01*
X115270074Y-44851818D01*
X115350000Y-44450000D01*
X115350000Y-34577157D01*
X116659749Y-34577157D01*
X116880033Y-35110286D01*
X117287569Y-35518533D01*
X117387018Y-35559828D01*
X117289714Y-35600033D01*
X116881467Y-36007569D01*
X116660252Y-36540312D01*
X116659749Y-37117157D01*
X116880033Y-37650286D01*
X117287569Y-38058533D01*
X117387018Y-38099828D01*
X117289714Y-38140033D01*
X116881467Y-38547569D01*
X116660252Y-39080312D01*
X116659749Y-39657157D01*
X116880033Y-40190286D01*
X117287569Y-40598533D01*
X117387018Y-40639828D01*
X117289714Y-40680033D01*
X116881467Y-41087569D01*
X116660252Y-41620312D01*
X116659749Y-42197157D01*
X116880033Y-42730286D01*
X117287569Y-43138533D01*
X117387018Y-43179828D01*
X117289714Y-43220033D01*
X116881467Y-43627569D01*
X116660252Y-44160312D01*
X116659749Y-44737157D01*
X116880033Y-45270286D01*
X117287569Y-45678533D01*
X117820312Y-45899748D01*
X118397157Y-45900251D01*
X118930286Y-45679967D01*
X119338533Y-45272431D01*
X119559748Y-44739688D01*
X119560251Y-44162843D01*
X119339967Y-43629714D01*
X118932431Y-43221467D01*
X118832982Y-43180172D01*
X118930286Y-43139967D01*
X119338533Y-42732431D01*
X119559748Y-42199688D01*
X119560251Y-41622843D01*
X119339967Y-41089714D01*
X118932431Y-40681467D01*
X118832982Y-40640172D01*
X118930286Y-40599967D01*
X119338533Y-40192431D01*
X119559748Y-39659688D01*
X119560251Y-39082843D01*
X119339967Y-38549714D01*
X118932431Y-38141467D01*
X118832982Y-38100172D01*
X118930286Y-38059967D01*
X119338533Y-37652431D01*
X119559748Y-37119688D01*
X119560251Y-36542843D01*
X119339967Y-36009714D01*
X118932431Y-35601467D01*
X118832982Y-35560172D01*
X118930286Y-35519967D01*
X119338533Y-35112431D01*
X119559748Y-34579688D01*
X119560251Y-34002843D01*
X119339967Y-33469714D01*
X118932431Y-33061467D01*
X118399688Y-32840252D01*
X117822843Y-32839749D01*
X117289714Y-33060033D01*
X116881467Y-33467569D01*
X116660252Y-34000312D01*
X116659749Y-34577157D01*
X115350000Y-34577157D01*
X115350000Y-29210000D01*
X115270074Y-28808182D01*
X115042462Y-28467538D01*
X112976013Y-26401089D01*
X127974403Y-26401089D01*
X127990669Y-27020686D01*
X128196486Y-27517569D01*
X128462214Y-27600708D01*
X129392922Y-26670000D01*
X129687078Y-26670000D01*
X130617786Y-27600708D01*
X130883514Y-27517569D01*
X131105597Y-26938911D01*
X131089331Y-26319314D01*
X130883514Y-25822431D01*
X130617786Y-25739292D01*
X129687078Y-26670000D01*
X129392922Y-26670000D01*
X128462214Y-25739292D01*
X128196486Y-25822431D01*
X127974403Y-26401089D01*
X112976013Y-26401089D01*
X112810000Y-26235076D01*
X112810000Y-25592214D01*
X128609292Y-25592214D01*
X129540000Y-26522922D01*
X130470708Y-25592214D01*
X130387569Y-25326486D01*
X129808911Y-25104403D01*
X129189314Y-25120669D01*
X128692431Y-25326486D01*
X128609292Y-25592214D01*
X112810000Y-25592214D01*
X112810000Y-22190479D01*
X112959791Y-21829742D01*
X112960207Y-21352353D01*
X112810000Y-20988824D01*
X112810000Y-19650479D01*
X112959791Y-19289742D01*
X112960207Y-18812353D01*
X112777903Y-18371143D01*
X112440633Y-18033283D01*
X111999742Y-17850209D01*
X111522353Y-17849793D01*
X111081143Y-18032097D01*
X110743283Y-18369367D01*
X110560209Y-18810258D01*
X110559793Y-19287647D01*
X110710000Y-19651176D01*
X110710000Y-20989521D01*
X110560209Y-21350258D01*
X110559793Y-21827647D01*
X110710000Y-22191176D01*
X110710000Y-26670000D01*
X110789926Y-27071818D01*
X111017538Y-27412462D01*
X113250000Y-29644924D01*
X113250000Y-44015076D01*
X104667538Y-52597538D01*
X104439926Y-52938182D01*
X104360000Y-53340000D01*
X104360000Y-62230000D01*
X104439926Y-62631818D01*
X104667538Y-62972462D01*
X109440000Y-67744924D01*
X109440000Y-69415076D01*
X106245076Y-72610000D01*
X105410000Y-72610000D01*
X105008182Y-72689926D01*
X104667538Y-72917538D01*
X93545076Y-84040000D01*
X92280660Y-84040000D01*
X94510330Y-81810330D01*
X94672910Y-81567013D01*
X94730000Y-81280000D01*
X94730000Y-80532991D01*
X94742538Y-80520475D01*
X94879843Y-80189806D01*
X94880156Y-79831764D01*
X94745075Y-79504842D01*
X95070194Y-79639843D01*
X95428236Y-79640156D01*
X95759143Y-79503428D01*
X96012538Y-79250475D01*
X96149843Y-78919806D01*
X96150156Y-78561764D01*
X96015075Y-78234842D01*
X96340194Y-78369843D01*
X96698236Y-78370156D01*
X97029143Y-78233428D01*
X97282538Y-77980475D01*
X97419843Y-77649806D01*
X97420156Y-77291764D01*
X97283428Y-76960857D01*
X97270000Y-76947406D01*
X97270000Y-72700660D01*
X104300519Y-65670141D01*
X104318236Y-65670156D01*
X104649143Y-65533428D01*
X104902538Y-65280475D01*
X105039843Y-64949806D01*
X105040156Y-64591764D01*
X104903428Y-64260857D01*
X104650475Y-64007462D01*
X104319806Y-63870157D01*
X103961764Y-63869844D01*
X103630857Y-64006572D01*
X103505002Y-64132207D01*
X103380475Y-64007462D01*
X103049806Y-63870157D01*
X102691764Y-63869844D01*
X102360857Y-64006572D01*
X102350000Y-64017410D01*
X102350000Y-63658152D01*
X102795053Y-63569625D01*
X103265467Y-63255305D01*
X103579787Y-62784891D01*
X103690162Y-62230000D01*
X103579787Y-61675109D01*
X103265467Y-61204695D01*
X102899254Y-60960000D01*
X103265467Y-60715305D01*
X103579787Y-60244891D01*
X103690162Y-59690000D01*
X103579787Y-59135109D01*
X103265467Y-58664695D01*
X102899254Y-58420000D01*
X103265467Y-58175305D01*
X103579787Y-57704891D01*
X103690162Y-57150000D01*
X103579787Y-56595109D01*
X103265467Y-56124695D01*
X102899254Y-55880000D01*
X103265467Y-55635305D01*
X103579787Y-55164891D01*
X103690162Y-54610000D01*
X103579787Y-54055109D01*
X103265467Y-53584695D01*
X102899254Y-53340000D01*
X103265467Y-53095305D01*
X103579787Y-52624891D01*
X103690162Y-52070000D01*
X103579787Y-51515109D01*
X103265467Y-51044695D01*
X102899254Y-50800000D01*
X103265467Y-50555305D01*
X103579787Y-50084891D01*
X103690162Y-49530000D01*
X103579787Y-48975109D01*
X103265467Y-48504695D01*
X102899254Y-48260000D01*
X103265467Y-48015305D01*
X103579787Y-47544891D01*
X103690162Y-46990000D01*
X103579787Y-46435109D01*
X103265467Y-45964695D01*
X102899254Y-45720000D01*
X103265467Y-45475305D01*
X103579787Y-45004891D01*
X103690162Y-44450000D01*
X103579787Y-43895109D01*
X103265467Y-43424695D01*
X102899254Y-43180000D01*
X103265467Y-42935305D01*
X103579787Y-42464891D01*
X103690162Y-41910000D01*
X103579787Y-41355109D01*
X103265467Y-40884695D01*
X102899254Y-40640000D01*
X103265467Y-40395305D01*
X103579787Y-39924891D01*
X103690162Y-39370000D01*
X103579787Y-38815109D01*
X103265467Y-38344695D01*
X102899254Y-38100000D01*
X103265467Y-37855305D01*
X103579787Y-37384891D01*
X103690162Y-36830000D01*
X103579787Y-36275109D01*
X103265467Y-35804695D01*
X102899254Y-35560000D01*
X103265467Y-35315305D01*
X103579787Y-34844891D01*
X103690162Y-34290000D01*
X103579787Y-33735109D01*
X103265467Y-33264695D01*
X102899254Y-33020000D01*
X103265467Y-32775305D01*
X103579787Y-32304891D01*
X103690162Y-31750000D01*
X103579787Y-31195109D01*
X103265467Y-30724695D01*
X102899254Y-30480000D01*
X103265467Y-30235305D01*
X103579787Y-29764891D01*
X103690162Y-29210000D01*
X103579787Y-28655109D01*
X103265467Y-28184695D01*
X102899254Y-27940000D01*
X103007208Y-27867868D01*
X104660000Y-29520660D01*
X104660000Y-41910000D01*
X104717090Y-42197013D01*
X104879670Y-42440330D01*
X107419670Y-44980330D01*
X107662987Y-45142910D01*
X107950000Y-45200000D01*
X109230991Y-45200000D01*
X109260033Y-45270286D01*
X109667569Y-45678533D01*
X110200312Y-45899748D01*
X110777157Y-45900251D01*
X111310286Y-45679967D01*
X111718533Y-45272431D01*
X111939748Y-44739688D01*
X111940251Y-44162843D01*
X111719967Y-43629714D01*
X111312431Y-43221467D01*
X111212982Y-43180172D01*
X111310286Y-43139967D01*
X111718533Y-42732431D01*
X111939748Y-42199688D01*
X111940251Y-41622843D01*
X111719967Y-41089714D01*
X111312431Y-40681467D01*
X111212982Y-40640172D01*
X111310286Y-40599967D01*
X111718533Y-40192431D01*
X111939748Y-39659688D01*
X111940251Y-39082843D01*
X111719967Y-38549714D01*
X111312431Y-38141467D01*
X111212982Y-38100172D01*
X111310286Y-38059967D01*
X111718533Y-37652431D01*
X111939748Y-37119688D01*
X111940251Y-36542843D01*
X111719967Y-36009714D01*
X111312431Y-35601467D01*
X111212982Y-35560172D01*
X111310286Y-35519967D01*
X111718533Y-35112431D01*
X111939748Y-34579688D01*
X111940251Y-34002843D01*
X111719967Y-33469714D01*
X111312431Y-33061467D01*
X110779688Y-32840252D01*
X110202843Y-32839749D01*
X109669714Y-33060033D01*
X109261467Y-33467569D01*
X109040252Y-34000312D01*
X109039749Y-34577157D01*
X109260033Y-35110286D01*
X109667569Y-35518533D01*
X109767018Y-35559828D01*
X109669714Y-35600033D01*
X109261467Y-36007569D01*
X109040252Y-36540312D01*
X109039749Y-37117157D01*
X109260033Y-37650286D01*
X109667569Y-38058533D01*
X109767018Y-38099828D01*
X109669714Y-38140033D01*
X109261467Y-38547569D01*
X109040252Y-39080312D01*
X109039749Y-39657157D01*
X109260033Y-40190286D01*
X109667569Y-40598533D01*
X109767018Y-40639828D01*
X109669714Y-40680033D01*
X109261467Y-41087569D01*
X109040252Y-41620312D01*
X109039749Y-42197157D01*
X109260033Y-42730286D01*
X109667569Y-43138533D01*
X109767018Y-43179828D01*
X109669714Y-43220033D01*
X109261467Y-43627569D01*
X109231391Y-43700000D01*
X108260660Y-43700000D01*
X106160000Y-41599340D01*
X106160000Y-29210000D01*
X106102910Y-28922987D01*
X105940330Y-28679670D01*
X103630445Y-26369785D01*
X103579787Y-26115109D01*
X103265467Y-25644695D01*
X102899254Y-25400000D01*
X103265467Y-25155305D01*
X103579787Y-24684891D01*
X103690162Y-24130000D01*
X103579787Y-23575109D01*
X103265467Y-23104695D01*
X102795053Y-22790375D01*
X102650000Y-22761522D01*
X102650000Y-20754924D01*
X105092860Y-18312064D01*
X105453857Y-18162903D01*
X105791717Y-17825633D01*
X105974791Y-17384742D01*
X105975207Y-16907353D01*
X105792903Y-16466143D01*
X105455633Y-16128283D01*
X105014742Y-15945209D01*
X104537353Y-15944793D01*
X104466655Y-15974005D01*
X104670330Y-15770330D01*
X104677232Y-15760000D01*
X104832910Y-15527013D01*
X104890000Y-15240000D01*
X104890000Y-11740660D01*
X107590076Y-9040584D01*
X107660312Y-9069748D01*
X108237157Y-9070251D01*
X108770286Y-8849967D01*
X109178533Y-8442431D01*
X109211661Y-8362649D01*
X121979350Y-8362649D01*
X122549051Y-9741429D01*
X123603022Y-10797242D01*
X124980806Y-11369348D01*
X126472649Y-11370650D01*
X127851429Y-10800949D01*
X128907242Y-9746978D01*
X129479348Y-8369194D01*
X129480650Y-6877351D01*
X128910949Y-5498571D01*
X127856978Y-4442758D01*
X126479194Y-3870652D01*
X124987351Y-3869350D01*
X123608571Y-4439051D01*
X122552758Y-5493022D01*
X121980652Y-6870806D01*
X121979350Y-8362649D01*
X109211661Y-8362649D01*
X109399748Y-7909688D01*
X109400251Y-7332843D01*
X109179967Y-6799714D01*
X108772431Y-6391467D01*
X108239688Y-6170252D01*
X107662843Y-6169749D01*
X107129714Y-6390033D01*
X106721467Y-6797569D01*
X106680172Y-6897018D01*
X106639967Y-6799714D01*
X106232431Y-6391467D01*
X105699688Y-6170252D01*
X105122843Y-6169749D01*
X105050359Y-6199699D01*
X100860330Y-2009670D01*
X100617013Y-1847090D01*
X100330000Y-1790000D01*
X74930000Y-1790000D01*
X74642987Y-1847090D01*
X74399670Y-2009670D01*
X72079340Y-4330000D01*
X69102991Y-4330000D01*
X69090475Y-4317462D01*
X68759806Y-4180157D01*
X68401764Y-4179844D01*
X68070857Y-4316572D01*
X68057406Y-4330000D01*
X51322991Y-4330000D01*
X51310475Y-4317462D01*
X50979806Y-4180157D01*
X50621764Y-4179844D01*
X50290857Y-4316572D01*
X50277406Y-4330000D01*
X33542991Y-4330000D01*
X33530475Y-4317462D01*
X33199806Y-4180157D01*
X32841764Y-4179844D01*
X32510857Y-4316572D01*
X32257462Y-4569525D01*
X32120157Y-4900194D01*
X32119844Y-5258236D01*
X32256572Y-5589143D01*
X32509525Y-5842538D01*
X32840194Y-5979843D01*
X33198236Y-5980156D01*
X33525158Y-5845075D01*
X33390157Y-6170194D01*
X33389844Y-6528236D01*
X33526572Y-6859143D01*
X33779525Y-7112538D01*
X34110194Y-7249843D01*
X34468236Y-7250156D01*
X34795158Y-7115075D01*
X34660157Y-7440194D01*
X34659844Y-7798236D01*
X34796572Y-8129143D01*
X35049525Y-8382538D01*
X35380194Y-8519843D01*
X35738236Y-8520156D01*
X36069143Y-8383428D01*
X36082594Y-8370000D01*
X52817009Y-8370000D01*
X52829525Y-8382538D01*
X53160194Y-8519843D01*
X53518236Y-8520156D01*
X53849143Y-8383428D01*
X53862594Y-8370000D01*
X70597009Y-8370000D01*
X70609525Y-8382538D01*
X70940194Y-8519843D01*
X70959200Y-8519860D01*
X72819340Y-10380000D01*
X63934924Y-10380000D01*
X63397064Y-9842140D01*
X63247903Y-9481143D01*
X62910633Y-9143283D01*
X62469742Y-8960209D01*
X61992353Y-8959793D01*
X61628824Y-9110000D01*
X60290479Y-9110000D01*
X59929742Y-8960209D01*
X59452353Y-8959793D01*
X59088824Y-9110000D01*
X45050479Y-9110000D01*
X44689742Y-8960209D01*
X44212353Y-8959793D01*
X43771143Y-9142097D01*
X43433283Y-9479367D01*
X43250209Y-9920258D01*
X43249793Y-10397647D01*
X43432097Y-10838857D01*
X43769367Y-11176717D01*
X44210258Y-11359791D01*
X44687647Y-11360207D01*
X45051176Y-11210000D01*
X59089521Y-11210000D01*
X59450258Y-11359791D01*
X59927647Y-11360207D01*
X60291176Y-11210000D01*
X61629521Y-11210000D01*
X61912635Y-11327559D01*
X62757538Y-12172462D01*
X63098182Y-12400074D01*
X63500000Y-12480000D01*
X90839521Y-12480000D01*
X91122635Y-12597559D01*
X91542936Y-13017860D01*
X91692097Y-13378857D01*
X92029367Y-13716717D01*
X92470258Y-13899791D01*
X92947647Y-13900207D01*
X93388857Y-13717903D01*
X93726717Y-13380633D01*
X93909791Y-12939742D01*
X93910207Y-12462353D01*
X93727903Y-12021143D01*
X93390633Y-11683283D01*
X93027365Y-11532441D01*
X92607064Y-11112140D01*
X92523541Y-10910000D01*
X95250000Y-10910000D01*
X95537013Y-10852910D01*
X95780330Y-10690330D01*
X97430076Y-9040584D01*
X97500312Y-9069748D01*
X98077157Y-9070251D01*
X98149641Y-9040301D01*
X98310000Y-9200660D01*
X98310000Y-14929340D01*
X95990975Y-17248365D01*
X95760475Y-17017462D01*
X95429806Y-16880157D01*
X95071764Y-16879844D01*
X94740857Y-17016572D01*
X94615002Y-17142207D01*
X94490475Y-17017462D01*
X94159806Y-16880157D01*
X93801764Y-16879844D01*
X93470857Y-17016572D01*
X93217462Y-17269525D01*
X93080157Y-17600194D01*
X93080140Y-17619200D01*
X89859340Y-20840000D01*
X85090000Y-20840000D01*
X84802987Y-20897090D01*
X84559670Y-21059670D01*
X83659481Y-21959859D01*
X83641764Y-21959844D01*
X83310857Y-22096572D01*
X83057462Y-22349525D01*
X82920157Y-22680194D01*
X82919844Y-23038236D01*
X83056572Y-23369143D01*
X83309525Y-23622538D01*
X83640194Y-23759843D01*
X83998236Y-23760156D01*
X84329143Y-23623428D01*
X84385554Y-23567115D01*
X84380213Y-23575109D01*
X84329555Y-23829785D01*
X78429340Y-29730000D01*
X78222996Y-29730000D01*
X78232538Y-29720475D01*
X78369843Y-29389806D01*
X78370156Y-29031764D01*
X78233428Y-28700857D01*
X77980475Y-28447462D01*
X77649806Y-28310157D01*
X77291764Y-28309844D01*
X76960857Y-28446572D01*
X76707462Y-28699525D01*
X76570157Y-29030194D01*
X76569844Y-29388236D01*
X76706572Y-29719143D01*
X76717410Y-29730000D01*
X71870000Y-29730000D01*
X71870000Y-24130000D01*
X71812910Y-23842987D01*
X71650330Y-23599670D01*
X69110330Y-21059670D01*
X68867013Y-20897090D01*
X68580000Y-20840000D01*
X68062996Y-20840000D01*
X68072538Y-20830475D01*
X68209843Y-20499806D01*
X68210156Y-20141764D01*
X68075075Y-19814842D01*
X68400194Y-19949843D01*
X68758236Y-19950156D01*
X69089143Y-19813428D01*
X69342538Y-19560475D01*
X69479843Y-19229806D01*
X69480156Y-18871764D01*
X69343428Y-18540857D01*
X69282677Y-18480000D01*
X69560050Y-18480000D01*
X70625025Y-19544975D01*
X70852122Y-19696716D01*
X71109466Y-19747905D01*
X71160033Y-19870286D01*
X71567569Y-20278533D01*
X72100312Y-20499748D01*
X72677157Y-20500251D01*
X73210286Y-20279967D01*
X73618533Y-19872431D01*
X73659828Y-19772982D01*
X73700033Y-19870286D01*
X74107569Y-20278533D01*
X74640312Y-20499748D01*
X75217157Y-20500251D01*
X75750286Y-20279967D01*
X76158533Y-19872431D01*
X76209371Y-19750000D01*
X76704525Y-19750000D01*
X76704525Y-19800000D01*
X76742876Y-20003818D01*
X76863332Y-20191012D01*
X77047127Y-20316594D01*
X77265300Y-20360775D01*
X78665300Y-20360775D01*
X78869118Y-20322424D01*
X78889047Y-20309600D01*
X78937273Y-20357826D01*
X79179116Y-20458000D01*
X79741500Y-20458000D01*
X79906000Y-20293500D01*
X79906000Y-19154000D01*
X80114000Y-19154000D01*
X80114000Y-20293500D01*
X80278500Y-20458000D01*
X80840884Y-20458000D01*
X81082727Y-20357826D01*
X81267825Y-20172727D01*
X81368000Y-19930885D01*
X81368000Y-19318500D01*
X81203500Y-19154000D01*
X80114000Y-19154000D01*
X79906000Y-19154000D01*
X79886000Y-19154000D01*
X79886000Y-18946000D01*
X79906000Y-18946000D01*
X79906000Y-17806500D01*
X80114000Y-17806500D01*
X80114000Y-18946000D01*
X81203500Y-18946000D01*
X81368000Y-18781500D01*
X81368000Y-18169115D01*
X81267825Y-17927273D01*
X81082727Y-17742174D01*
X80840884Y-17642000D01*
X80278500Y-17642000D01*
X80114000Y-17806500D01*
X79906000Y-17806500D01*
X79741500Y-17642000D01*
X79179116Y-17642000D01*
X78937273Y-17742174D01*
X78890940Y-17788508D01*
X78883473Y-17783406D01*
X78665300Y-17739225D01*
X77265300Y-17739225D01*
X77061482Y-17777576D01*
X76874288Y-17898032D01*
X76748706Y-18081827D01*
X76704525Y-18300000D01*
X76704525Y-18350000D01*
X76209668Y-18350000D01*
X76159967Y-18229714D01*
X75752431Y-17821467D01*
X75219688Y-17600252D01*
X74642843Y-17599749D01*
X74109714Y-17820033D01*
X73701467Y-18227569D01*
X73660172Y-18327018D01*
X73619967Y-18229714D01*
X73212431Y-17821467D01*
X72679688Y-17600252D01*
X72102843Y-17599749D01*
X71569714Y-17820033D01*
X71224548Y-18164598D01*
X70344975Y-17285025D01*
X70117879Y-17133284D01*
X69850000Y-17080000D01*
X66040005Y-17080000D01*
X66040000Y-17079999D01*
X65772121Y-17133284D01*
X65545025Y-17285025D01*
X61735025Y-21095025D01*
X61583284Y-21322121D01*
X61565765Y-21410194D01*
X61530000Y-21590000D01*
X61530000Y-24130000D01*
X61583284Y-24397879D01*
X61735025Y-24624975D01*
X64070000Y-26959949D01*
X64070000Y-27237091D01*
X64010475Y-27177462D01*
X63679806Y-27040157D01*
X63321764Y-27039844D01*
X62994842Y-27174925D01*
X63129843Y-26849806D01*
X63130156Y-26491764D01*
X62993428Y-26160857D01*
X62740475Y-25907462D01*
X62409806Y-25770157D01*
X62051764Y-25769844D01*
X61720857Y-25906572D01*
X61467462Y-26159525D01*
X61330157Y-26490194D01*
X61329844Y-26848236D01*
X61466572Y-27179143D01*
X61480000Y-27192594D01*
X61480000Y-29957009D01*
X61467462Y-29969525D01*
X61330157Y-30300194D01*
X61329844Y-30658236D01*
X61466572Y-30989143D01*
X61719525Y-31242538D01*
X62050194Y-31379843D01*
X62408236Y-31380156D01*
X62739143Y-31243428D01*
X62864998Y-31117793D01*
X62989525Y-31242538D01*
X63320194Y-31379843D01*
X63678236Y-31380156D01*
X64009143Y-31243428D01*
X64262538Y-30990475D01*
X64271293Y-30969390D01*
X64275025Y-30974975D01*
X65189878Y-31889828D01*
X65189853Y-31918334D01*
X65318985Y-32230857D01*
X65358060Y-32270000D01*
X62540660Y-32270000D01*
X60590141Y-30319481D01*
X60590156Y-30301764D01*
X60453428Y-29970857D01*
X60440000Y-29957406D01*
X60440000Y-25400000D01*
X60382910Y-25112987D01*
X60220330Y-24869670D01*
X55510141Y-20159481D01*
X55510156Y-20141764D01*
X55373428Y-19810857D01*
X55120475Y-19557462D01*
X54789806Y-19420157D01*
X54431764Y-19419844D01*
X54100857Y-19556572D01*
X53847462Y-19809525D01*
X53710157Y-20140194D01*
X53709844Y-20498236D01*
X53846572Y-20829143D01*
X54099525Y-21082538D01*
X54430194Y-21219843D01*
X54449200Y-21219860D01*
X58940000Y-25710660D01*
X58940000Y-26129340D01*
X52600330Y-19789670D01*
X52357013Y-19627090D01*
X52070000Y-19570000D01*
X51322991Y-19570000D01*
X51310475Y-19557462D01*
X50979806Y-19420157D01*
X50621764Y-19419844D01*
X50290857Y-19556572D01*
X50037462Y-19809525D01*
X49900157Y-20140194D01*
X49899844Y-20498236D01*
X50036572Y-20829143D01*
X50289525Y-21082538D01*
X50620194Y-21219843D01*
X50978236Y-21220156D01*
X51309143Y-21083428D01*
X51322594Y-21070000D01*
X51759340Y-21070000D01*
X54078365Y-23389025D01*
X53847462Y-23619525D01*
X53710157Y-23950194D01*
X53709844Y-24308236D01*
X53846572Y-24639143D01*
X53860000Y-24652594D01*
X53860000Y-29957009D01*
X53847462Y-29969525D01*
X53710157Y-30300194D01*
X53709844Y-30658236D01*
X53846572Y-30989143D01*
X54099525Y-31242538D01*
X54430194Y-31379843D01*
X54788236Y-31380156D01*
X55119143Y-31243428D01*
X55244998Y-31117793D01*
X55369525Y-31242538D01*
X55700194Y-31379843D01*
X56058236Y-31380156D01*
X56389143Y-31243428D01*
X56642538Y-30990475D01*
X56779843Y-30659806D01*
X56780156Y-30301764D01*
X56643428Y-29970857D01*
X56630000Y-29957406D01*
X56630000Y-25940660D01*
X57670000Y-26980660D01*
X57670000Y-30480000D01*
X57727090Y-30767013D01*
X57889670Y-31010330D01*
X58789859Y-31910519D01*
X58789844Y-31928236D01*
X58926572Y-32259143D01*
X59179525Y-32512538D01*
X59510194Y-32649843D01*
X59529200Y-32649860D01*
X61689340Y-34810000D01*
X51110660Y-34810000D01*
X49498896Y-33198236D01*
X49899844Y-33198236D01*
X50036572Y-33529143D01*
X50289525Y-33782538D01*
X50620194Y-33919843D01*
X50978236Y-33920156D01*
X51309143Y-33783428D01*
X51322594Y-33770000D01*
X56627009Y-33770000D01*
X56639525Y-33782538D01*
X56970194Y-33919843D01*
X57328236Y-33920156D01*
X57659143Y-33783428D01*
X57912538Y-33530475D01*
X58049843Y-33199806D01*
X58050156Y-32841764D01*
X57913428Y-32510857D01*
X57660475Y-32257462D01*
X57329806Y-32120157D01*
X56971764Y-32119844D01*
X56640857Y-32256572D01*
X56627406Y-32270000D01*
X51322991Y-32270000D01*
X51310475Y-32257462D01*
X50979806Y-32120157D01*
X50621764Y-32119844D01*
X50290857Y-32256572D01*
X50037462Y-32509525D01*
X49900157Y-32840194D01*
X49899844Y-33198236D01*
X49498896Y-33198236D01*
X41540141Y-25239481D01*
X41540156Y-25221764D01*
X41403428Y-24890857D01*
X41150475Y-24637462D01*
X40819806Y-24500157D01*
X40461764Y-24499844D01*
X40130857Y-24636572D01*
X40117406Y-24650000D01*
X31002991Y-24650000D01*
X30990475Y-24637462D01*
X30659806Y-24500157D01*
X30301764Y-24499844D01*
X29970857Y-24636572D01*
X29717462Y-24889525D01*
X29580157Y-25220194D01*
X29579844Y-25578236D01*
X785000Y-25578236D01*
X785000Y-8362649D01*
X3869350Y-8362649D01*
X4439051Y-9741429D01*
X5493022Y-10797242D01*
X6870806Y-11369348D01*
X8362649Y-11370650D01*
X9741429Y-10800949D01*
X10797242Y-9746978D01*
X11369348Y-8369194D01*
X11370650Y-6877351D01*
X10800949Y-5498571D01*
X9746978Y-4442758D01*
X8369194Y-3870652D01*
X6877351Y-3869350D01*
X5498571Y-4439051D01*
X4442758Y-5493022D01*
X3870652Y-6870806D01*
X3869350Y-8362649D01*
X785000Y-8362649D01*
X785000Y-785000D01*
X132565000Y-785000D01*
X132565000Y-99545000D01*
X132565000Y-99545000D01*
G37*
X132565000Y-99545000D02*
X785000Y-99545000D01*
X785000Y-93452649D01*
X3869350Y-93452649D01*
X4439051Y-94831429D01*
X5493022Y-95887242D01*
X6870806Y-96459348D01*
X8362649Y-96460650D01*
X9741429Y-95890949D01*
X10797242Y-94836978D01*
X11369348Y-93459194D01*
X11370650Y-91967351D01*
X10800949Y-90588571D01*
X9746978Y-89532758D01*
X8369194Y-88960652D01*
X6877351Y-88959350D01*
X5498571Y-89529051D01*
X4442758Y-90583022D01*
X3870652Y-91960806D01*
X3869350Y-93452649D01*
X785000Y-93452649D01*
X785000Y-70018334D01*
X14389853Y-70018334D01*
X14518985Y-70330857D01*
X14757885Y-70570174D01*
X15070183Y-70699852D01*
X15408334Y-70700147D01*
X15720857Y-70571015D01*
X15741909Y-70550000D01*
X16127308Y-70550000D01*
X16015025Y-70625025D01*
X15100172Y-71539878D01*
X15071666Y-71539853D01*
X14759143Y-71668985D01*
X14519826Y-71907885D01*
X14390148Y-72220183D01*
X14389853Y-72558334D01*
X14518985Y-72870857D01*
X14757885Y-73110174D01*
X15070183Y-73239852D01*
X15114408Y-73239891D01*
X15060252Y-73370312D01*
X15059749Y-73947157D01*
X15280033Y-74480286D01*
X15687569Y-74888533D01*
X15787018Y-74929828D01*
X15689714Y-74970033D01*
X15281467Y-75377569D01*
X15060252Y-75910312D01*
X15059749Y-76487157D01*
X15280033Y-77020286D01*
X15687569Y-77428533D01*
X15787018Y-77469828D01*
X15689714Y-77510033D01*
X15281467Y-77917569D01*
X15060252Y-78450312D01*
X15059749Y-79027157D01*
X15280033Y-79560286D01*
X15687569Y-79968533D01*
X15787018Y-80009828D01*
X15689714Y-80050033D01*
X15281467Y-80457569D01*
X15060252Y-80990312D01*
X15059749Y-81567157D01*
X15280033Y-82100286D01*
X15687569Y-82508533D01*
X15787018Y-82549828D01*
X15689714Y-82590033D01*
X15281467Y-82997569D01*
X15060252Y-83530312D01*
X15059749Y-84107157D01*
X15280033Y-84640286D01*
X15687569Y-85048533D01*
X15787018Y-85089828D01*
X15689714Y-85130033D01*
X15281467Y-85537569D01*
X15060252Y-86070312D01*
X15059749Y-86647157D01*
X15280033Y-87180286D01*
X15687569Y-87588533D01*
X15787018Y-87629828D01*
X15689714Y-87670033D01*
X15281467Y-88077569D01*
X15060252Y-88610312D01*
X15059749Y-89187157D01*
X15280033Y-89720286D01*
X15687569Y-90128533D01*
X15787018Y-90169828D01*
X15689714Y-90210033D01*
X15281467Y-90617569D01*
X15060252Y-91150312D01*
X15059749Y-91727157D01*
X15280033Y-92260286D01*
X15687569Y-92668533D01*
X16220312Y-92889748D01*
X16797157Y-92890251D01*
X17330286Y-92669967D01*
X17738533Y-92262431D01*
X17779828Y-92162982D01*
X17820033Y-92260286D01*
X18227569Y-92668533D01*
X18760312Y-92889748D01*
X19337157Y-92890251D01*
X19870286Y-92669967D01*
X20278533Y-92262431D01*
X20319828Y-92162982D01*
X20360033Y-92260286D01*
X20767569Y-92668533D01*
X21300312Y-92889748D01*
X21877157Y-92890251D01*
X22410286Y-92669967D01*
X22818533Y-92262431D01*
X23039748Y-91729688D01*
X23040251Y-91152843D01*
X22819967Y-90619714D01*
X22412431Y-90211467D01*
X22312982Y-90170172D01*
X22410286Y-90129967D01*
X22818533Y-89722431D01*
X23039748Y-89189688D01*
X23040251Y-88612843D01*
X22819967Y-88079714D01*
X22412431Y-87671467D01*
X22312982Y-87630172D01*
X22410286Y-87589967D01*
X22818533Y-87182431D01*
X23039748Y-86649688D01*
X23040088Y-86260038D01*
X23279878Y-86499828D01*
X23279853Y-86528334D01*
X23408985Y-86840857D01*
X23647885Y-87080174D01*
X23960183Y-87209852D01*
X24298334Y-87210147D01*
X24610857Y-87081015D01*
X24850174Y-86842115D01*
X24979852Y-86529817D01*
X24980147Y-86191666D01*
X24851015Y-85879143D01*
X24612115Y-85639826D01*
X24299817Y-85510148D01*
X24270072Y-85510122D01*
X23354975Y-84595025D01*
X23127879Y-84443284D01*
X22918519Y-84401640D01*
X23039748Y-84109688D01*
X23040251Y-83532843D01*
X22819967Y-82999714D01*
X22412431Y-82591467D01*
X22312982Y-82550172D01*
X22410286Y-82509967D01*
X22818533Y-82102431D01*
X23039748Y-81569688D01*
X23040251Y-80992843D01*
X22923383Y-80710000D01*
X24897746Y-80710000D01*
X24917885Y-80730174D01*
X25230183Y-80859852D01*
X25568334Y-80860147D01*
X25880857Y-80731015D01*
X26120174Y-80492115D01*
X26249852Y-80179817D01*
X26250147Y-79841666D01*
X26121015Y-79529143D01*
X25882115Y-79289826D01*
X25569817Y-79160148D01*
X25231666Y-79159853D01*
X24919143Y-79288985D01*
X24898091Y-79310000D01*
X22923352Y-79310000D01*
X23039748Y-79029688D01*
X23040251Y-78452843D01*
X22819967Y-77919714D01*
X22412431Y-77511467D01*
X22312982Y-77470172D01*
X22410286Y-77429967D01*
X22818533Y-77022431D01*
X23039748Y-76489688D01*
X23040251Y-75912843D01*
X22819967Y-75379714D01*
X22412431Y-74971467D01*
X22312982Y-74930172D01*
X22410286Y-74889967D01*
X22818533Y-74482431D01*
X23039748Y-73949688D01*
X23040251Y-73372843D01*
X22985407Y-73240110D01*
X23028334Y-73240147D01*
X23340857Y-73111015D01*
X23580174Y-72872115D01*
X23709852Y-72559817D01*
X23710147Y-72221666D01*
X23581015Y-71909143D01*
X23342115Y-71669826D01*
X23029817Y-71540148D01*
X23000072Y-71540122D01*
X22084975Y-70625025D01*
X21857879Y-70473284D01*
X21590000Y-70420000D01*
X18412136Y-70420000D01*
X18500174Y-70332115D01*
X18629852Y-70019817D01*
X18630147Y-69681666D01*
X18501015Y-69369143D01*
X18262115Y-69129826D01*
X17949817Y-69000148D01*
X17611666Y-68999853D01*
X17299143Y-69128985D01*
X17278091Y-69150000D01*
X15742254Y-69150000D01*
X15722115Y-69129826D01*
X15409817Y-69000148D01*
X15071666Y-68999853D01*
X14759143Y-69128985D01*
X14519826Y-69367885D01*
X14390148Y-69680183D01*
X14389853Y-70018334D01*
X785000Y-70018334D01*
X785000Y-61128334D01*
X18199853Y-61128334D01*
X18328985Y-61440857D01*
X18482919Y-61595059D01*
X18329826Y-61747885D01*
X18200148Y-62060183D01*
X18199853Y-62398334D01*
X18328985Y-62710857D01*
X18482919Y-62865059D01*
X18329826Y-63017885D01*
X18200148Y-63330183D01*
X18199853Y-63668334D01*
X18328985Y-63980857D01*
X18567885Y-64220174D01*
X18880183Y-64349852D01*
X19218334Y-64350147D01*
X19530857Y-64221015D01*
X19551909Y-64200000D01*
X26167746Y-64200000D01*
X26187885Y-64220174D01*
X26500183Y-64349852D01*
X26838334Y-64350147D01*
X27150857Y-64221015D01*
X27390174Y-63982115D01*
X27519852Y-63669817D01*
X27520147Y-63331666D01*
X27391015Y-63019143D01*
X27152115Y-62779826D01*
X26839817Y-62650148D01*
X26501666Y-62649853D01*
X26189143Y-62778985D01*
X26168091Y-62800000D01*
X26032136Y-62800000D01*
X26120174Y-62712115D01*
X26249852Y-62399817D01*
X26249853Y-62398334D01*
X27089853Y-62398334D01*
X27218985Y-62710857D01*
X27457885Y-62950174D01*
X27770183Y-63079852D01*
X28108334Y-63080147D01*
X28420857Y-62951015D01*
X28441909Y-62930000D01*
X28920050Y-62930000D01*
X48830000Y-82839949D01*
X48830000Y-91440000D01*
X48883284Y-91707879D01*
X49035025Y-91934975D01*
X51575025Y-94474975D01*
X51802122Y-94626716D01*
X52070000Y-94680000D01*
X54610000Y-94680000D01*
X54877879Y-94626716D01*
X55104975Y-94474975D01*
X56127301Y-93452649D01*
X121979350Y-93452649D01*
X122549051Y-94831429D01*
X123603022Y-95887242D01*
X124980806Y-96459348D01*
X126472649Y-96460650D01*
X127851429Y-95890949D01*
X128907242Y-94836978D01*
X129479348Y-93459194D01*
X129480650Y-91967351D01*
X128910949Y-90588571D01*
X127856978Y-89532758D01*
X126479194Y-88960652D01*
X124987351Y-88959350D01*
X123608571Y-89529051D01*
X122552758Y-90583022D01*
X121980652Y-91960806D01*
X121979350Y-93452649D01*
X56127301Y-93452649D01*
X56740113Y-92839837D01*
X56860312Y-92889748D01*
X57437157Y-92890251D01*
X57970286Y-92669967D01*
X58378533Y-92262431D01*
X58599748Y-91729688D01*
X58600251Y-91152843D01*
X58478569Y-90858350D01*
X58687879Y-90816716D01*
X58914975Y-90664975D01*
X61454972Y-88124977D01*
X61454975Y-88124975D01*
X61606716Y-87897878D01*
X61660000Y-87630000D01*
X61660000Y-84290960D01*
X61699670Y-84350330D01*
X62599859Y-85250519D01*
X62599844Y-85268236D01*
X62736572Y-85599143D01*
X62989525Y-85852538D01*
X63320194Y-85989843D01*
X63678236Y-85990156D01*
X64009143Y-85853428D01*
X64262538Y-85600475D01*
X64399843Y-85269806D01*
X64400156Y-84911764D01*
X64263428Y-84580857D01*
X64010475Y-84327462D01*
X63679806Y-84190157D01*
X63660800Y-84190140D01*
X62980000Y-83509340D01*
X62980000Y-79262991D01*
X62992538Y-79250475D01*
X63129843Y-78919806D01*
X63130156Y-78561764D01*
X62993428Y-78230857D01*
X62740475Y-77977462D01*
X62409806Y-77840157D01*
X62051764Y-77839844D01*
X61720857Y-77976572D01*
X61660000Y-78037323D01*
X61660000Y-61462254D01*
X61680174Y-61442115D01*
X61809852Y-61129817D01*
X61810147Y-60791666D01*
X61681015Y-60479143D01*
X61442115Y-60239826D01*
X61129817Y-60110148D01*
X60791666Y-60109853D01*
X60479143Y-60238985D01*
X60324941Y-60392919D01*
X60172115Y-60239826D01*
X59859817Y-60110148D01*
X59521666Y-60109853D01*
X59209143Y-60238985D01*
X58969826Y-60477885D01*
X58840148Y-60790183D01*
X58839853Y-61128334D01*
X58968985Y-61440857D01*
X58990000Y-61461909D01*
X58990000Y-61597864D01*
X58902115Y-61509826D01*
X58589817Y-61380148D01*
X58251666Y-61379853D01*
X57939143Y-61508985D01*
X57918091Y-61530000D01*
X48892136Y-61530000D01*
X48980174Y-61442115D01*
X49109852Y-61129817D01*
X49110147Y-60791666D01*
X48981015Y-60479143D01*
X48742115Y-60239826D01*
X48429817Y-60110148D01*
X48091666Y-60109853D01*
X47779143Y-60238985D01*
X47758091Y-60260000D01*
X46352136Y-60260000D01*
X46440174Y-60172115D01*
X46569852Y-59859817D01*
X46569878Y-59830072D01*
X47279950Y-59120000D01*
X65407864Y-59120000D01*
X65319826Y-59207885D01*
X65190148Y-59520183D01*
X65189853Y-59858334D01*
X65318985Y-60170857D01*
X65340000Y-60191909D01*
X65340000Y-61727746D01*
X65319826Y-61747885D01*
X65190148Y-62060183D01*
X65189853Y-62398334D01*
X65318985Y-62710857D01*
X65557885Y-62950174D01*
X65870183Y-63079852D01*
X66208334Y-63080147D01*
X66520857Y-62951015D01*
X66760174Y-62712115D01*
X66816735Y-62575901D01*
X84240883Y-62575901D01*
X84280797Y-62730137D01*
X84584789Y-63258133D01*
X85067696Y-63629605D01*
X85656000Y-63788000D01*
X86256000Y-63788000D01*
X86256000Y-62334000D01*
X86464000Y-62334000D01*
X86464000Y-63788000D01*
X87064000Y-63788000D01*
X87652304Y-63629605D01*
X88135211Y-63258133D01*
X88439203Y-62730137D01*
X88479117Y-62575901D01*
X88349614Y-62334000D01*
X86464000Y-62334000D01*
X86256000Y-62334000D01*
X84370386Y-62334000D01*
X84240883Y-62575901D01*
X66816735Y-62575901D01*
X66889852Y-62399817D01*
X66890147Y-62061666D01*
X66761015Y-61749143D01*
X66740000Y-61728091D01*
X66740000Y-60192254D01*
X66760174Y-60172115D01*
X66889852Y-59859817D01*
X66890147Y-59521666D01*
X66761015Y-59209143D01*
X66672027Y-59120000D01*
X68290050Y-59120000D01*
X68999878Y-59829828D01*
X68999853Y-59858334D01*
X69128985Y-60170857D01*
X69367885Y-60410174D01*
X69680183Y-60539852D01*
X70018334Y-60540147D01*
X70330857Y-60411015D01*
X70570174Y-60172115D01*
X70699852Y-59859817D01*
X70700147Y-59521666D01*
X70571015Y-59209143D01*
X70332115Y-58969826D01*
X70019817Y-58840148D01*
X69990072Y-58840122D01*
X69074975Y-57925025D01*
X68847879Y-57773284D01*
X68580000Y-57720000D01*
X46990000Y-57720000D01*
X46722122Y-57773284D01*
X46722120Y-57773285D01*
X46722121Y-57773285D01*
X46495025Y-57925025D01*
X45580172Y-58839878D01*
X45551666Y-58839853D01*
X45239143Y-58968985D01*
X44999826Y-59207885D01*
X44870148Y-59520183D01*
X44869853Y-59858334D01*
X44998985Y-60170857D01*
X45152919Y-60325059D01*
X44999826Y-60477885D01*
X44870148Y-60790183D01*
X44869853Y-61128334D01*
X44998985Y-61440857D01*
X45087973Y-61530000D01*
X43812136Y-61530000D01*
X43900174Y-61442115D01*
X44029852Y-61129817D01*
X44030147Y-60791666D01*
X43901015Y-60479143D01*
X43880000Y-60458091D01*
X43880000Y-59979950D01*
X44589828Y-59270122D01*
X44618334Y-59270147D01*
X44930857Y-59141015D01*
X45170174Y-58902115D01*
X45299852Y-58589817D01*
X45300147Y-58251666D01*
X45171015Y-57939143D01*
X44932115Y-57699826D01*
X44619817Y-57570148D01*
X44281666Y-57569853D01*
X43969143Y-57698985D01*
X43814941Y-57852919D01*
X43662115Y-57699826D01*
X43349817Y-57570148D01*
X43011666Y-57569853D01*
X42699143Y-57698985D01*
X42459826Y-57937885D01*
X42330148Y-58250183D01*
X42330122Y-58279928D01*
X41415025Y-59195025D01*
X41340000Y-59307308D01*
X41340000Y-58922254D01*
X41360174Y-58902115D01*
X41489852Y-58589817D01*
X41490147Y-58251666D01*
X41361015Y-57939143D01*
X41122115Y-57699826D01*
X40809817Y-57570148D01*
X40471666Y-57569853D01*
X40270000Y-57653180D01*
X40270000Y-52640575D01*
X40410445Y-52302347D01*
X40872938Y-51839854D01*
X41234000Y-51690666D01*
X41529628Y-51395554D01*
X41689818Y-51009774D01*
X41690182Y-50592058D01*
X41530666Y-50206000D01*
X41235554Y-49910372D01*
X40872347Y-49759555D01*
X39139854Y-48027062D01*
X38990666Y-47666000D01*
X38695554Y-47370372D01*
X38309774Y-47210182D01*
X37892058Y-47209818D01*
X37506000Y-47369334D01*
X37210372Y-47664446D01*
X37050182Y-48050226D01*
X37049818Y-48467942D01*
X37209334Y-48854000D01*
X37504446Y-49149628D01*
X37867653Y-49300445D01*
X39367208Y-50800000D01*
X39137062Y-51030146D01*
X38776000Y-51179334D01*
X38480372Y-51474446D01*
X38320182Y-51860226D01*
X38319818Y-52277942D01*
X38470000Y-52641410D01*
X38470000Y-69230051D01*
X30060122Y-60820172D01*
X30060147Y-60791666D01*
X29931015Y-60479143D01*
X29692115Y-60239826D01*
X29379817Y-60110148D01*
X29041666Y-60109853D01*
X28729143Y-60238985D01*
X28489826Y-60477885D01*
X28360148Y-60790183D01*
X28359853Y-61128334D01*
X28488985Y-61440857D01*
X28577973Y-61530000D01*
X28442254Y-61530000D01*
X28422115Y-61509826D01*
X28109817Y-61380148D01*
X27771666Y-61379853D01*
X27459143Y-61508985D01*
X27219826Y-61747885D01*
X27090148Y-62060183D01*
X27089853Y-62398334D01*
X26249853Y-62398334D01*
X26250147Y-62061666D01*
X26121015Y-61749143D01*
X25882115Y-61509826D01*
X25569817Y-61380148D01*
X25231666Y-61379853D01*
X24919143Y-61508985D01*
X24898091Y-61530000D01*
X24762136Y-61530000D01*
X24850174Y-61442115D01*
X24979852Y-61129817D01*
X24980147Y-60791666D01*
X24851015Y-60479143D01*
X24612115Y-60239826D01*
X24299817Y-60110148D01*
X23961666Y-60109853D01*
X23649143Y-60238985D01*
X23628091Y-60260000D01*
X19552254Y-60260000D01*
X19532115Y-60239826D01*
X19219817Y-60110148D01*
X18881666Y-60109853D01*
X18569143Y-60238985D01*
X18329826Y-60477885D01*
X18200148Y-60790183D01*
X18199853Y-61128334D01*
X785000Y-61128334D01*
X785000Y-25578236D01*
X29579844Y-25578236D01*
X29716572Y-25909143D01*
X29969525Y-26162538D01*
X30300194Y-26299843D01*
X30658236Y-26300156D01*
X30985158Y-26165075D01*
X30850157Y-26490194D01*
X30849844Y-26848236D01*
X30986572Y-27179143D01*
X31239525Y-27432538D01*
X31570194Y-27569843D01*
X31928236Y-27570156D01*
X32255158Y-27435075D01*
X32120157Y-27760194D01*
X32119844Y-28118236D01*
X32256572Y-28449143D01*
X32509525Y-28702538D01*
X32840194Y-28839843D01*
X33198236Y-28840156D01*
X33525158Y-28705075D01*
X33390157Y-29030194D01*
X33389844Y-29388236D01*
X33526572Y-29719143D01*
X33779525Y-29972538D01*
X34110194Y-30109843D01*
X34468236Y-30110156D01*
X34795158Y-29975075D01*
X34660157Y-30300194D01*
X34659844Y-30658236D01*
X34796572Y-30989143D01*
X35049525Y-31242538D01*
X35380194Y-31379843D01*
X35738236Y-31380156D01*
X36065158Y-31245075D01*
X35930157Y-31570194D01*
X35929844Y-31928236D01*
X36066572Y-32259143D01*
X36319525Y-32512538D01*
X36650194Y-32649843D01*
X37008236Y-32650156D01*
X37335158Y-32515075D01*
X37200157Y-32840194D01*
X37199844Y-33198236D01*
X37336572Y-33529143D01*
X37589525Y-33782538D01*
X37920194Y-33919843D01*
X38278236Y-33920156D01*
X38609143Y-33783428D01*
X38622594Y-33770000D01*
X39887004Y-33770000D01*
X39877462Y-33779525D01*
X39740157Y-34110194D01*
X39739844Y-34468236D01*
X39876572Y-34799143D01*
X40129525Y-35052538D01*
X40460194Y-35189843D01*
X40479200Y-35189860D01*
X50269670Y-44980330D01*
X50512987Y-45142910D01*
X50800000Y-45200000D01*
X54796582Y-45200000D01*
X54680209Y-45480258D01*
X54679793Y-45957647D01*
X54862097Y-46398857D01*
X55199367Y-46736717D01*
X55640258Y-46919791D01*
X56117647Y-46920207D01*
X56481176Y-46770000D01*
X57819521Y-46770000D01*
X58180258Y-46919791D01*
X58657647Y-46920207D01*
X59021176Y-46770000D01*
X75765076Y-46770000D01*
X77572936Y-48577860D01*
X77722097Y-48938857D01*
X78059367Y-49276717D01*
X78422635Y-49427559D01*
X78842936Y-49847860D01*
X78992097Y-50208857D01*
X79329367Y-50546717D01*
X79770258Y-50729791D01*
X80247647Y-50730207D01*
X80688857Y-50547903D01*
X81026717Y-50210633D01*
X81209791Y-49769742D01*
X81210207Y-49292353D01*
X81180995Y-49221655D01*
X84329555Y-52370215D01*
X84380213Y-52624891D01*
X84694533Y-53095305D01*
X85060746Y-53340000D01*
X84694533Y-53584695D01*
X84380213Y-54055109D01*
X84269838Y-54610000D01*
X84380213Y-55164891D01*
X84694533Y-55635305D01*
X85060746Y-55880000D01*
X84694533Y-56124695D01*
X84380213Y-56595109D01*
X84269838Y-57150000D01*
X84380213Y-57704891D01*
X84694533Y-58175305D01*
X85060746Y-58420000D01*
X84694533Y-58664695D01*
X84380213Y-59135109D01*
X84269838Y-59690000D01*
X84380213Y-60244891D01*
X84694533Y-60715305D01*
X84974300Y-60902239D01*
X84584789Y-61201867D01*
X84280797Y-61729863D01*
X84240883Y-61884099D01*
X84370386Y-62126000D01*
X86256000Y-62126000D01*
X86256000Y-62106000D01*
X86464000Y-62106000D01*
X86464000Y-62126000D01*
X88349614Y-62126000D01*
X88479117Y-61884099D01*
X88439203Y-61729863D01*
X88135211Y-61201867D01*
X87745700Y-60902239D01*
X88025467Y-60715305D01*
X88339787Y-60244891D01*
X88450162Y-59690000D01*
X88339787Y-59135109D01*
X88025467Y-58664695D01*
X87659254Y-58420000D01*
X88025467Y-58175305D01*
X88339787Y-57704891D01*
X88450162Y-57150000D01*
X88339787Y-56595109D01*
X88025467Y-56124695D01*
X87659254Y-55880000D01*
X88025467Y-55635305D01*
X88339787Y-55164891D01*
X88450162Y-54610000D01*
X88339787Y-54055109D01*
X88025467Y-53584695D01*
X87659254Y-53340000D01*
X88025467Y-53095305D01*
X88339787Y-52624891D01*
X88450162Y-52070000D01*
X88339787Y-51515109D01*
X88025467Y-51044695D01*
X87659254Y-50800000D01*
X88025467Y-50555305D01*
X88339787Y-50084891D01*
X88450162Y-49530000D01*
X88339787Y-48975109D01*
X88025467Y-48504695D01*
X87659254Y-48260000D01*
X88025467Y-48015305D01*
X88339787Y-47544891D01*
X88450162Y-46990000D01*
X88339787Y-46435109D01*
X88025467Y-45964695D01*
X87659254Y-45720000D01*
X88025467Y-45475305D01*
X88339787Y-45004891D01*
X88450162Y-44450000D01*
X88339787Y-43895109D01*
X88025467Y-43424695D01*
X87659254Y-43180000D01*
X88025467Y-42935305D01*
X88339787Y-42464891D01*
X88450162Y-41910000D01*
X88339787Y-41355109D01*
X88025467Y-40884695D01*
X87659254Y-40640000D01*
X88025467Y-40395305D01*
X88339787Y-39924891D01*
X88450162Y-39370000D01*
X88339787Y-38815109D01*
X88025467Y-38344695D01*
X87659254Y-38100000D01*
X88025467Y-37855305D01*
X88339787Y-37384891D01*
X88450162Y-36830000D01*
X88339787Y-36275109D01*
X88025467Y-35804695D01*
X87659254Y-35560000D01*
X88025467Y-35315305D01*
X88339787Y-34844891D01*
X88450162Y-34290000D01*
X88339787Y-33735109D01*
X88025467Y-33264695D01*
X87659254Y-33020000D01*
X88025467Y-32775305D01*
X88339787Y-32304891D01*
X88450162Y-31750000D01*
X88339787Y-31195109D01*
X88025467Y-30724695D01*
X87659254Y-30480000D01*
X88025467Y-30235305D01*
X88339787Y-29764891D01*
X88450162Y-29210000D01*
X88339787Y-28655109D01*
X88025467Y-28184695D01*
X87659254Y-27940000D01*
X88025467Y-27695305D01*
X88339787Y-27224891D01*
X88450162Y-26670000D01*
X88339787Y-26115109D01*
X88025467Y-25644695D01*
X87659254Y-25400000D01*
X88025467Y-25155305D01*
X88339787Y-24684891D01*
X88450162Y-24130000D01*
X88339787Y-23575109D01*
X88025467Y-23104695D01*
X87555053Y-22790375D01*
X87000162Y-22680000D01*
X85719838Y-22680000D01*
X85164947Y-22790375D01*
X84694533Y-23104695D01*
X84690216Y-23111155D01*
X84719843Y-23039806D01*
X84719860Y-23020800D01*
X85400660Y-22340000D01*
X89632768Y-22340000D01*
X89477090Y-22572987D01*
X89420000Y-22860000D01*
X89420000Y-23607009D01*
X89407462Y-23619525D01*
X89270157Y-23950194D01*
X89269844Y-24308236D01*
X89406572Y-24639143D01*
X89659525Y-24892538D01*
X89990194Y-25029843D01*
X90348236Y-25030156D01*
X90679143Y-24893428D01*
X90932538Y-24640475D01*
X91069843Y-24309806D01*
X91070156Y-23951764D01*
X90933428Y-23620857D01*
X90920000Y-23607406D01*
X90920000Y-23170660D01*
X93230000Y-20860660D01*
X93230000Y-32497009D01*
X93217462Y-32509525D01*
X93080157Y-32840194D01*
X93079844Y-33198236D01*
X93216572Y-33529143D01*
X93469525Y-33782538D01*
X93800194Y-33919843D01*
X94158236Y-33920156D01*
X94489143Y-33783428D01*
X94500000Y-33772590D01*
X94500000Y-35037009D01*
X94487462Y-35049525D01*
X94350157Y-35380194D01*
X94349844Y-35738236D01*
X94486572Y-36069143D01*
X94718182Y-36301158D01*
X92549481Y-38469859D01*
X92531764Y-38469844D01*
X92200857Y-38606572D01*
X91947462Y-38859525D01*
X91810157Y-39190194D01*
X91809844Y-39548236D01*
X91946572Y-39879143D01*
X92199525Y-40132538D01*
X92530194Y-40269843D01*
X92888236Y-40270156D01*
X93219143Y-40133428D01*
X93230000Y-40122590D01*
X93230000Y-41387009D01*
X93217462Y-41399525D01*
X93080157Y-41730194D01*
X93079844Y-42088236D01*
X93216572Y-42419143D01*
X93469525Y-42672538D01*
X93800194Y-42809843D01*
X94158236Y-42810156D01*
X94489143Y-42673428D01*
X94500000Y-42662590D01*
X94500000Y-53029340D01*
X92179670Y-55349670D01*
X92017090Y-55592987D01*
X91960000Y-55880000D01*
X91960000Y-61919340D01*
X89859340Y-64020000D01*
X81280000Y-64020000D01*
X80992987Y-64077090D01*
X80749670Y-64239670D01*
X79099924Y-65889416D01*
X79029688Y-65860252D01*
X78452843Y-65859749D01*
X77919714Y-66080033D01*
X77511467Y-66487569D01*
X77470172Y-66587018D01*
X77429967Y-66489714D01*
X77022431Y-66081467D01*
X76489688Y-65860252D01*
X75912843Y-65859749D01*
X75379714Y-66080033D01*
X74971467Y-66487569D01*
X74941391Y-66560000D01*
X72379009Y-66560000D01*
X72349967Y-66489714D01*
X71942431Y-66081467D01*
X71409688Y-65860252D01*
X70832843Y-65859749D01*
X70299714Y-66080033D01*
X69891467Y-66487569D01*
X69850172Y-66587018D01*
X69809967Y-66489714D01*
X69402431Y-66081467D01*
X68869688Y-65860252D01*
X68292843Y-65859749D01*
X67759714Y-66080033D01*
X67351467Y-66487569D01*
X67130252Y-67020312D01*
X67129749Y-67597157D01*
X67180373Y-67719677D01*
X67020050Y-67880000D01*
X66805475Y-67880000D01*
X66805475Y-67830000D01*
X66767124Y-67626182D01*
X66646668Y-67438988D01*
X66462873Y-67313406D01*
X66244700Y-67269225D01*
X64844700Y-67269225D01*
X64640882Y-67307576D01*
X64521794Y-67384207D01*
X64418173Y-67313406D01*
X64200000Y-67269225D01*
X62800000Y-67269225D01*
X62596182Y-67307576D01*
X62408988Y-67428032D01*
X62283406Y-67611827D01*
X62239225Y-67830000D01*
X62239225Y-69330000D01*
X62277576Y-69533818D01*
X62398032Y-69721012D01*
X62450000Y-69756520D01*
X62450000Y-69850000D01*
X62529926Y-70251818D01*
X62757538Y-70592462D01*
X64990000Y-72824924D01*
X64990000Y-86360000D01*
X65069926Y-86761818D01*
X65297538Y-87102462D01*
X69107538Y-90912462D01*
X69448182Y-91140074D01*
X69850000Y-91220000D01*
X72390000Y-91220000D01*
X72791818Y-91140074D01*
X73132462Y-90912462D01*
X76634924Y-87410000D01*
X80679521Y-87410000D01*
X80962635Y-87527559D01*
X81807538Y-88372462D01*
X82148182Y-88600074D01*
X82550000Y-88680000D01*
X93980000Y-88680000D01*
X94381818Y-88600074D01*
X94722462Y-88372462D01*
X104176688Y-78918236D01*
X105779844Y-78918236D01*
X105916572Y-79249143D01*
X106169525Y-79502538D01*
X106500194Y-79639843D01*
X106858236Y-79640156D01*
X107189143Y-79503428D01*
X107202594Y-79490000D01*
X115047009Y-79490000D01*
X115059525Y-79502538D01*
X115390194Y-79639843D01*
X115748236Y-79640156D01*
X116079143Y-79503428D01*
X116332538Y-79250475D01*
X116469843Y-78919806D01*
X116470156Y-78561764D01*
X116333428Y-78230857D01*
X116080475Y-77977462D01*
X115749806Y-77840157D01*
X115391764Y-77839844D01*
X115060857Y-77976572D01*
X115047406Y-77990000D01*
X107202991Y-77990000D01*
X107190475Y-77977462D01*
X106859806Y-77840157D01*
X106501764Y-77839844D01*
X106170857Y-77976572D01*
X105917462Y-78229525D01*
X105780157Y-78560194D01*
X105779844Y-78918236D01*
X104176688Y-78918236D01*
X105844924Y-77250000D01*
X106079521Y-77250000D01*
X106440258Y-77399791D01*
X106917647Y-77400207D01*
X107358857Y-77217903D01*
X107696717Y-76880633D01*
X107847559Y-76517365D01*
X113772462Y-70592462D01*
X114000074Y-70251818D01*
X114080000Y-69850000D01*
X114080000Y-67910479D01*
X114229791Y-67549742D01*
X114230207Y-67072353D01*
X114047903Y-66631143D01*
X113710633Y-66293283D01*
X113347365Y-66142441D01*
X112874789Y-65669865D01*
X113208236Y-65670156D01*
X113539143Y-65533428D01*
X113552594Y-65520000D01*
X115570000Y-65520000D01*
X115857013Y-65462910D01*
X116100330Y-65300330D01*
X118639025Y-62761635D01*
X118869525Y-62992538D01*
X119200194Y-63129843D01*
X119558236Y-63130156D01*
X119889143Y-62993428D01*
X120142538Y-62740475D01*
X120279843Y-62409806D01*
X120279860Y-62390800D01*
X130070330Y-52600330D01*
X130232910Y-52357013D01*
X130290000Y-52070000D01*
X130290000Y-45709009D01*
X130360286Y-45679967D01*
X130768533Y-45272431D01*
X130989748Y-44739688D01*
X130990251Y-44162843D01*
X130769967Y-43629714D01*
X130362431Y-43221467D01*
X130262982Y-43180172D01*
X130360286Y-43139967D01*
X130768533Y-42732431D01*
X130989748Y-42199688D01*
X130990251Y-41622843D01*
X130769967Y-41089714D01*
X130362431Y-40681467D01*
X130262982Y-40640172D01*
X130360286Y-40599967D01*
X130768533Y-40192431D01*
X130989748Y-39659688D01*
X130990251Y-39082843D01*
X130769967Y-38549714D01*
X130362431Y-38141467D01*
X130262982Y-38100172D01*
X130360286Y-38059967D01*
X130768533Y-37652431D01*
X130989748Y-37119688D01*
X130990251Y-36542843D01*
X130769967Y-36009714D01*
X130362431Y-35601467D01*
X130262982Y-35560172D01*
X130360286Y-35519967D01*
X130768533Y-35112431D01*
X130989748Y-34579688D01*
X130990251Y-34002843D01*
X130769967Y-33469714D01*
X130362431Y-33061467D01*
X130262982Y-33020172D01*
X130360286Y-32979967D01*
X130768533Y-32572431D01*
X130989748Y-32039688D01*
X130990251Y-31462843D01*
X130769967Y-30929714D01*
X130362431Y-30521467D01*
X130262982Y-30480172D01*
X130360286Y-30439967D01*
X130768533Y-30032431D01*
X130989748Y-29499688D01*
X130990251Y-28922843D01*
X130769967Y-28389714D01*
X130389204Y-28008287D01*
X130470708Y-27747786D01*
X129540000Y-26817078D01*
X128609292Y-27747786D01*
X128690942Y-28008755D01*
X128311467Y-28387569D01*
X128090252Y-28920312D01*
X128089749Y-29497157D01*
X128310033Y-30030286D01*
X128717569Y-30438533D01*
X128817018Y-30479828D01*
X128719714Y-30520033D01*
X128311467Y-30927569D01*
X128090252Y-31460312D01*
X128089749Y-32037157D01*
X128119699Y-32109641D01*
X121389670Y-38839670D01*
X121227090Y-39082987D01*
X121170000Y-39370000D01*
X121170000Y-44450000D01*
X121227090Y-44737013D01*
X121389670Y-44980330D01*
X122440000Y-46030660D01*
X122440000Y-50489340D01*
X121609340Y-51320000D01*
X115570000Y-51320000D01*
X115282987Y-51377090D01*
X115039670Y-51539670D01*
X112499670Y-54079670D01*
X112337090Y-54322987D01*
X112280000Y-54610000D01*
X112280000Y-55127004D01*
X112270475Y-55117462D01*
X111939806Y-54980157D01*
X111581764Y-54979844D01*
X111250857Y-55116572D01*
X111125002Y-55242207D01*
X111000475Y-55117462D01*
X110669806Y-54980157D01*
X110311764Y-54979844D01*
X109984842Y-55114925D01*
X110119843Y-54789806D01*
X110120156Y-54431764D01*
X109983428Y-54100857D01*
X109730475Y-53847462D01*
X109399806Y-53710157D01*
X109065060Y-53709864D01*
X109654924Y-53120000D01*
X110490000Y-53120000D01*
X110891818Y-53040074D01*
X111232462Y-52812462D01*
X114617860Y-49427064D01*
X114978857Y-49277903D01*
X115316717Y-48940633D01*
X115499791Y-48499742D01*
X115500207Y-48022353D01*
X115317903Y-47581143D01*
X114980633Y-47243283D01*
X114539742Y-47060209D01*
X114062353Y-47059793D01*
X113621143Y-47242097D01*
X113283283Y-47579367D01*
X113132441Y-47942635D01*
X110055076Y-51020000D01*
X109220000Y-51020000D01*
X109213664Y-51021260D01*
X115042462Y-45192462D01*
X115270074Y-44851818D01*
X115350000Y-44450000D01*
X115350000Y-34577157D01*
X116659749Y-34577157D01*
X116880033Y-35110286D01*
X117287569Y-35518533D01*
X117387018Y-35559828D01*
X117289714Y-35600033D01*
X116881467Y-36007569D01*
X116660252Y-36540312D01*
X116659749Y-37117157D01*
X116880033Y-37650286D01*
X117287569Y-38058533D01*
X117387018Y-38099828D01*
X117289714Y-38140033D01*
X116881467Y-38547569D01*
X116660252Y-39080312D01*
X116659749Y-39657157D01*
X116880033Y-40190286D01*
X117287569Y-40598533D01*
X117387018Y-40639828D01*
X117289714Y-40680033D01*
X116881467Y-41087569D01*
X116660252Y-41620312D01*
X116659749Y-42197157D01*
X116880033Y-42730286D01*
X117287569Y-43138533D01*
X117387018Y-43179828D01*
X117289714Y-43220033D01*
X116881467Y-43627569D01*
X116660252Y-44160312D01*
X116659749Y-44737157D01*
X116880033Y-45270286D01*
X117287569Y-45678533D01*
X117820312Y-45899748D01*
X118397157Y-45900251D01*
X118930286Y-45679967D01*
X119338533Y-45272431D01*
X119559748Y-44739688D01*
X119560251Y-44162843D01*
X119339967Y-43629714D01*
X118932431Y-43221467D01*
X118832982Y-43180172D01*
X118930286Y-43139967D01*
X119338533Y-42732431D01*
X119559748Y-42199688D01*
X119560251Y-41622843D01*
X119339967Y-41089714D01*
X118932431Y-40681467D01*
X118832982Y-40640172D01*
X118930286Y-40599967D01*
X119338533Y-40192431D01*
X119559748Y-39659688D01*
X119560251Y-39082843D01*
X119339967Y-38549714D01*
X118932431Y-38141467D01*
X118832982Y-38100172D01*
X118930286Y-38059967D01*
X119338533Y-37652431D01*
X119559748Y-37119688D01*
X119560251Y-36542843D01*
X119339967Y-36009714D01*
X118932431Y-35601467D01*
X118832982Y-35560172D01*
X118930286Y-35519967D01*
X119338533Y-35112431D01*
X119559748Y-34579688D01*
X119560251Y-34002843D01*
X119339967Y-33469714D01*
X118932431Y-33061467D01*
X118399688Y-32840252D01*
X117822843Y-32839749D01*
X117289714Y-33060033D01*
X116881467Y-33467569D01*
X116660252Y-34000312D01*
X116659749Y-34577157D01*
X115350000Y-34577157D01*
X115350000Y-29210000D01*
X115270074Y-28808182D01*
X115042462Y-28467538D01*
X112976013Y-26401089D01*
X127974403Y-26401089D01*
X127990669Y-27020686D01*
X128196486Y-27517569D01*
X128462214Y-27600708D01*
X129392922Y-26670000D01*
X129687078Y-26670000D01*
X130617786Y-27600708D01*
X130883514Y-27517569D01*
X131105597Y-26938911D01*
X131089331Y-26319314D01*
X130883514Y-25822431D01*
X130617786Y-25739292D01*
X129687078Y-26670000D01*
X129392922Y-26670000D01*
X128462214Y-25739292D01*
X128196486Y-25822431D01*
X127974403Y-26401089D01*
X112976013Y-26401089D01*
X112810000Y-26235076D01*
X112810000Y-25592214D01*
X128609292Y-25592214D01*
X129540000Y-26522922D01*
X130470708Y-25592214D01*
X130387569Y-25326486D01*
X129808911Y-25104403D01*
X129189314Y-25120669D01*
X128692431Y-25326486D01*
X128609292Y-25592214D01*
X112810000Y-25592214D01*
X112810000Y-22190479D01*
X112959791Y-21829742D01*
X112960207Y-21352353D01*
X112810000Y-20988824D01*
X112810000Y-19650479D01*
X112959791Y-19289742D01*
X112960207Y-18812353D01*
X112777903Y-18371143D01*
X112440633Y-18033283D01*
X111999742Y-17850209D01*
X111522353Y-17849793D01*
X111081143Y-18032097D01*
X110743283Y-18369367D01*
X110560209Y-18810258D01*
X110559793Y-19287647D01*
X110710000Y-19651176D01*
X110710000Y-20989521D01*
X110560209Y-21350258D01*
X110559793Y-21827647D01*
X110710000Y-22191176D01*
X110710000Y-26670000D01*
X110789926Y-27071818D01*
X111017538Y-27412462D01*
X113250000Y-29644924D01*
X113250000Y-44015076D01*
X104667538Y-52597538D01*
X104439926Y-52938182D01*
X104360000Y-53340000D01*
X104360000Y-62230000D01*
X104439926Y-62631818D01*
X104667538Y-62972462D01*
X109440000Y-67744924D01*
X109440000Y-69415076D01*
X106245076Y-72610000D01*
X105410000Y-72610000D01*
X105008182Y-72689926D01*
X104667538Y-72917538D01*
X93545076Y-84040000D01*
X92280660Y-84040000D01*
X94510330Y-81810330D01*
X94672910Y-81567013D01*
X94730000Y-81280000D01*
X94730000Y-80532991D01*
X94742538Y-80520475D01*
X94879843Y-80189806D01*
X94880156Y-79831764D01*
X94745075Y-79504842D01*
X95070194Y-79639843D01*
X95428236Y-79640156D01*
X95759143Y-79503428D01*
X96012538Y-79250475D01*
X96149843Y-78919806D01*
X96150156Y-78561764D01*
X96015075Y-78234842D01*
X96340194Y-78369843D01*
X96698236Y-78370156D01*
X97029143Y-78233428D01*
X97282538Y-77980475D01*
X97419843Y-77649806D01*
X97420156Y-77291764D01*
X97283428Y-76960857D01*
X97270000Y-76947406D01*
X97270000Y-72700660D01*
X104300519Y-65670141D01*
X104318236Y-65670156D01*
X104649143Y-65533428D01*
X104902538Y-65280475D01*
X105039843Y-64949806D01*
X105040156Y-64591764D01*
X104903428Y-64260857D01*
X104650475Y-64007462D01*
X104319806Y-63870157D01*
X103961764Y-63869844D01*
X103630857Y-64006572D01*
X103505002Y-64132207D01*
X103380475Y-64007462D01*
X103049806Y-63870157D01*
X102691764Y-63869844D01*
X102360857Y-64006572D01*
X102350000Y-64017410D01*
X102350000Y-63658152D01*
X102795053Y-63569625D01*
X103265467Y-63255305D01*
X103579787Y-62784891D01*
X103690162Y-62230000D01*
X103579787Y-61675109D01*
X103265467Y-61204695D01*
X102899254Y-60960000D01*
X103265467Y-60715305D01*
X103579787Y-60244891D01*
X103690162Y-59690000D01*
X103579787Y-59135109D01*
X103265467Y-58664695D01*
X102899254Y-58420000D01*
X103265467Y-58175305D01*
X103579787Y-57704891D01*
X103690162Y-57150000D01*
X103579787Y-56595109D01*
X103265467Y-56124695D01*
X102899254Y-55880000D01*
X103265467Y-55635305D01*
X103579787Y-55164891D01*
X103690162Y-54610000D01*
X103579787Y-54055109D01*
X103265467Y-53584695D01*
X102899254Y-53340000D01*
X103265467Y-53095305D01*
X103579787Y-52624891D01*
X103690162Y-52070000D01*
X103579787Y-51515109D01*
X103265467Y-51044695D01*
X102899254Y-50800000D01*
X103265467Y-50555305D01*
X103579787Y-50084891D01*
X103690162Y-49530000D01*
X103579787Y-48975109D01*
X103265467Y-48504695D01*
X102899254Y-48260000D01*
X103265467Y-48015305D01*
X103579787Y-47544891D01*
X103690162Y-46990000D01*
X103579787Y-46435109D01*
X103265467Y-45964695D01*
X102899254Y-45720000D01*
X103265467Y-45475305D01*
X103579787Y-45004891D01*
X103690162Y-44450000D01*
X103579787Y-43895109D01*
X103265467Y-43424695D01*
X102899254Y-43180000D01*
X103265467Y-42935305D01*
X103579787Y-42464891D01*
X103690162Y-41910000D01*
X103579787Y-41355109D01*
X103265467Y-40884695D01*
X102899254Y-40640000D01*
X103265467Y-40395305D01*
X103579787Y-39924891D01*
X103690162Y-39370000D01*
X103579787Y-38815109D01*
X103265467Y-38344695D01*
X102899254Y-38100000D01*
X103265467Y-37855305D01*
X103579787Y-37384891D01*
X103690162Y-36830000D01*
X103579787Y-36275109D01*
X103265467Y-35804695D01*
X102899254Y-35560000D01*
X103265467Y-35315305D01*
X103579787Y-34844891D01*
X103690162Y-34290000D01*
X103579787Y-33735109D01*
X103265467Y-33264695D01*
X102899254Y-33020000D01*
X103265467Y-32775305D01*
X103579787Y-32304891D01*
X103690162Y-31750000D01*
X103579787Y-31195109D01*
X103265467Y-30724695D01*
X102899254Y-30480000D01*
X103265467Y-30235305D01*
X103579787Y-29764891D01*
X103690162Y-29210000D01*
X103579787Y-28655109D01*
X103265467Y-28184695D01*
X102899254Y-27940000D01*
X103007208Y-27867868D01*
X104660000Y-29520660D01*
X104660000Y-41910000D01*
X104717090Y-42197013D01*
X104879670Y-42440330D01*
X107419670Y-44980330D01*
X107662987Y-45142910D01*
X107950000Y-45200000D01*
X109230991Y-45200000D01*
X109260033Y-45270286D01*
X109667569Y-45678533D01*
X110200312Y-45899748D01*
X110777157Y-45900251D01*
X111310286Y-45679967D01*
X111718533Y-45272431D01*
X111939748Y-44739688D01*
X111940251Y-44162843D01*
X111719967Y-43629714D01*
X111312431Y-43221467D01*
X111212982Y-43180172D01*
X111310286Y-43139967D01*
X111718533Y-42732431D01*
X111939748Y-42199688D01*
X111940251Y-41622843D01*
X111719967Y-41089714D01*
X111312431Y-40681467D01*
X111212982Y-40640172D01*
X111310286Y-40599967D01*
X111718533Y-40192431D01*
X111939748Y-39659688D01*
X111940251Y-39082843D01*
X111719967Y-38549714D01*
X111312431Y-38141467D01*
X111212982Y-38100172D01*
X111310286Y-38059967D01*
X111718533Y-37652431D01*
X111939748Y-37119688D01*
X111940251Y-36542843D01*
X111719967Y-36009714D01*
X111312431Y-35601467D01*
X111212982Y-35560172D01*
X111310286Y-35519967D01*
X111718533Y-35112431D01*
X111939748Y-34579688D01*
X111940251Y-34002843D01*
X111719967Y-33469714D01*
X111312431Y-33061467D01*
X110779688Y-32840252D01*
X110202843Y-32839749D01*
X109669714Y-33060033D01*
X109261467Y-33467569D01*
X109040252Y-34000312D01*
X109039749Y-34577157D01*
X109260033Y-35110286D01*
X109667569Y-35518533D01*
X109767018Y-35559828D01*
X109669714Y-35600033D01*
X109261467Y-36007569D01*
X109040252Y-36540312D01*
X109039749Y-37117157D01*
X109260033Y-37650286D01*
X109667569Y-38058533D01*
X109767018Y-38099828D01*
X109669714Y-38140033D01*
X109261467Y-38547569D01*
X109040252Y-39080312D01*
X109039749Y-39657157D01*
X109260033Y-40190286D01*
X109667569Y-40598533D01*
X109767018Y-40639828D01*
X109669714Y-40680033D01*
X109261467Y-41087569D01*
X109040252Y-41620312D01*
X109039749Y-42197157D01*
X109260033Y-42730286D01*
X109667569Y-43138533D01*
X109767018Y-43179828D01*
X109669714Y-43220033D01*
X109261467Y-43627569D01*
X109231391Y-43700000D01*
X108260660Y-43700000D01*
X106160000Y-41599340D01*
X106160000Y-29210000D01*
X106102910Y-28922987D01*
X105940330Y-28679670D01*
X103630445Y-26369785D01*
X103579787Y-26115109D01*
X103265467Y-25644695D01*
X102899254Y-25400000D01*
X103265467Y-25155305D01*
X103579787Y-24684891D01*
X103690162Y-24130000D01*
X103579787Y-23575109D01*
X103265467Y-23104695D01*
X102795053Y-22790375D01*
X102650000Y-22761522D01*
X102650000Y-20754924D01*
X105092860Y-18312064D01*
X105453857Y-18162903D01*
X105791717Y-17825633D01*
X105974791Y-17384742D01*
X105975207Y-16907353D01*
X105792903Y-16466143D01*
X105455633Y-16128283D01*
X105014742Y-15945209D01*
X104537353Y-15944793D01*
X104466655Y-15974005D01*
X104670330Y-15770330D01*
X104677232Y-15760000D01*
X104832910Y-15527013D01*
X104890000Y-15240000D01*
X104890000Y-11740660D01*
X107590076Y-9040584D01*
X107660312Y-9069748D01*
X108237157Y-9070251D01*
X108770286Y-8849967D01*
X109178533Y-8442431D01*
X109211661Y-8362649D01*
X121979350Y-8362649D01*
X122549051Y-9741429D01*
X123603022Y-10797242D01*
X124980806Y-11369348D01*
X126472649Y-11370650D01*
X127851429Y-10800949D01*
X128907242Y-9746978D01*
X129479348Y-8369194D01*
X129480650Y-6877351D01*
X128910949Y-5498571D01*
X127856978Y-4442758D01*
X126479194Y-3870652D01*
X124987351Y-3869350D01*
X123608571Y-4439051D01*
X122552758Y-5493022D01*
X121980652Y-6870806D01*
X121979350Y-8362649D01*
X109211661Y-8362649D01*
X109399748Y-7909688D01*
X109400251Y-7332843D01*
X109179967Y-6799714D01*
X108772431Y-6391467D01*
X108239688Y-6170252D01*
X107662843Y-6169749D01*
X107129714Y-6390033D01*
X106721467Y-6797569D01*
X106680172Y-6897018D01*
X106639967Y-6799714D01*
X106232431Y-6391467D01*
X105699688Y-6170252D01*
X105122843Y-6169749D01*
X105050359Y-6199699D01*
X100860330Y-2009670D01*
X100617013Y-1847090D01*
X100330000Y-1790000D01*
X74930000Y-1790000D01*
X74642987Y-1847090D01*
X74399670Y-2009670D01*
X72079340Y-4330000D01*
X69102991Y-4330000D01*
X69090475Y-4317462D01*
X68759806Y-4180157D01*
X68401764Y-4179844D01*
X68070857Y-4316572D01*
X68057406Y-4330000D01*
X51322991Y-4330000D01*
X51310475Y-4317462D01*
X50979806Y-4180157D01*
X50621764Y-4179844D01*
X50290857Y-4316572D01*
X50277406Y-4330000D01*
X33542991Y-4330000D01*
X33530475Y-4317462D01*
X33199806Y-4180157D01*
X32841764Y-4179844D01*
X32510857Y-4316572D01*
X32257462Y-4569525D01*
X32120157Y-4900194D01*
X32119844Y-5258236D01*
X32256572Y-5589143D01*
X32509525Y-5842538D01*
X32840194Y-5979843D01*
X33198236Y-5980156D01*
X33525158Y-5845075D01*
X33390157Y-6170194D01*
X33389844Y-6528236D01*
X33526572Y-6859143D01*
X33779525Y-7112538D01*
X34110194Y-7249843D01*
X34468236Y-7250156D01*
X34795158Y-7115075D01*
X34660157Y-7440194D01*
X34659844Y-7798236D01*
X34796572Y-8129143D01*
X35049525Y-8382538D01*
X35380194Y-8519843D01*
X35738236Y-8520156D01*
X36069143Y-8383428D01*
X36082594Y-8370000D01*
X52817009Y-8370000D01*
X52829525Y-8382538D01*
X53160194Y-8519843D01*
X53518236Y-8520156D01*
X53849143Y-8383428D01*
X53862594Y-8370000D01*
X70597009Y-8370000D01*
X70609525Y-8382538D01*
X70940194Y-8519843D01*
X70959200Y-8519860D01*
X72819340Y-10380000D01*
X63934924Y-10380000D01*
X63397064Y-9842140D01*
X63247903Y-9481143D01*
X62910633Y-9143283D01*
X62469742Y-8960209D01*
X61992353Y-8959793D01*
X61628824Y-9110000D01*
X60290479Y-9110000D01*
X59929742Y-8960209D01*
X59452353Y-8959793D01*
X59088824Y-9110000D01*
X45050479Y-9110000D01*
X44689742Y-8960209D01*
X44212353Y-8959793D01*
X43771143Y-9142097D01*
X43433283Y-9479367D01*
X43250209Y-9920258D01*
X43249793Y-10397647D01*
X43432097Y-10838857D01*
X43769367Y-11176717D01*
X44210258Y-11359791D01*
X44687647Y-11360207D01*
X45051176Y-11210000D01*
X59089521Y-11210000D01*
X59450258Y-11359791D01*
X59927647Y-11360207D01*
X60291176Y-11210000D01*
X61629521Y-11210000D01*
X61912635Y-11327559D01*
X62757538Y-12172462D01*
X63098182Y-12400074D01*
X63500000Y-12480000D01*
X90839521Y-12480000D01*
X91122635Y-12597559D01*
X91542936Y-13017860D01*
X91692097Y-13378857D01*
X92029367Y-13716717D01*
X92470258Y-13899791D01*
X92947647Y-13900207D01*
X93388857Y-13717903D01*
X93726717Y-13380633D01*
X93909791Y-12939742D01*
X93910207Y-12462353D01*
X93727903Y-12021143D01*
X93390633Y-11683283D01*
X93027365Y-11532441D01*
X92607064Y-11112140D01*
X92523541Y-10910000D01*
X95250000Y-10910000D01*
X95537013Y-10852910D01*
X95780330Y-10690330D01*
X97430076Y-9040584D01*
X97500312Y-9069748D01*
X98077157Y-9070251D01*
X98149641Y-9040301D01*
X98310000Y-9200660D01*
X98310000Y-14929340D01*
X95990975Y-17248365D01*
X95760475Y-17017462D01*
X95429806Y-16880157D01*
X95071764Y-16879844D01*
X94740857Y-17016572D01*
X94615002Y-17142207D01*
X94490475Y-17017462D01*
X94159806Y-16880157D01*
X93801764Y-16879844D01*
X93470857Y-17016572D01*
X93217462Y-17269525D01*
X93080157Y-17600194D01*
X93080140Y-17619200D01*
X89859340Y-20840000D01*
X85090000Y-20840000D01*
X84802987Y-20897090D01*
X84559670Y-21059670D01*
X83659481Y-21959859D01*
X83641764Y-21959844D01*
X83310857Y-22096572D01*
X83057462Y-22349525D01*
X82920157Y-22680194D01*
X82919844Y-23038236D01*
X83056572Y-23369143D01*
X83309525Y-23622538D01*
X83640194Y-23759843D01*
X83998236Y-23760156D01*
X84329143Y-23623428D01*
X84385554Y-23567115D01*
X84380213Y-23575109D01*
X84329555Y-23829785D01*
X78429340Y-29730000D01*
X78222996Y-29730000D01*
X78232538Y-29720475D01*
X78369843Y-29389806D01*
X78370156Y-29031764D01*
X78233428Y-28700857D01*
X77980475Y-28447462D01*
X77649806Y-28310157D01*
X77291764Y-28309844D01*
X76960857Y-28446572D01*
X76707462Y-28699525D01*
X76570157Y-29030194D01*
X76569844Y-29388236D01*
X76706572Y-29719143D01*
X76717410Y-29730000D01*
X71870000Y-29730000D01*
X71870000Y-24130000D01*
X71812910Y-23842987D01*
X71650330Y-23599670D01*
X69110330Y-21059670D01*
X68867013Y-20897090D01*
X68580000Y-20840000D01*
X68062996Y-20840000D01*
X68072538Y-20830475D01*
X68209843Y-20499806D01*
X68210156Y-20141764D01*
X68075075Y-19814842D01*
X68400194Y-19949843D01*
X68758236Y-19950156D01*
X69089143Y-19813428D01*
X69342538Y-19560475D01*
X69479843Y-19229806D01*
X69480156Y-18871764D01*
X69343428Y-18540857D01*
X69282677Y-18480000D01*
X69560050Y-18480000D01*
X70625025Y-19544975D01*
X70852122Y-19696716D01*
X71109466Y-19747905D01*
X71160033Y-19870286D01*
X71567569Y-20278533D01*
X72100312Y-20499748D01*
X72677157Y-20500251D01*
X73210286Y-20279967D01*
X73618533Y-19872431D01*
X73659828Y-19772982D01*
X73700033Y-19870286D01*
X74107569Y-20278533D01*
X74640312Y-20499748D01*
X75217157Y-20500251D01*
X75750286Y-20279967D01*
X76158533Y-19872431D01*
X76209371Y-19750000D01*
X76704525Y-19750000D01*
X76704525Y-19800000D01*
X76742876Y-20003818D01*
X76863332Y-20191012D01*
X77047127Y-20316594D01*
X77265300Y-20360775D01*
X78665300Y-20360775D01*
X78869118Y-20322424D01*
X78889047Y-20309600D01*
X78937273Y-20357826D01*
X79179116Y-20458000D01*
X79741500Y-20458000D01*
X79906000Y-20293500D01*
X79906000Y-19154000D01*
X80114000Y-19154000D01*
X80114000Y-20293500D01*
X80278500Y-20458000D01*
X80840884Y-20458000D01*
X81082727Y-20357826D01*
X81267825Y-20172727D01*
X81368000Y-19930885D01*
X81368000Y-19318500D01*
X81203500Y-19154000D01*
X80114000Y-19154000D01*
X79906000Y-19154000D01*
X79886000Y-19154000D01*
X79886000Y-18946000D01*
X79906000Y-18946000D01*
X79906000Y-17806500D01*
X80114000Y-17806500D01*
X80114000Y-18946000D01*
X81203500Y-18946000D01*
X81368000Y-18781500D01*
X81368000Y-18169115D01*
X81267825Y-17927273D01*
X81082727Y-17742174D01*
X80840884Y-17642000D01*
X80278500Y-17642000D01*
X80114000Y-17806500D01*
X79906000Y-17806500D01*
X79741500Y-17642000D01*
X79179116Y-17642000D01*
X78937273Y-17742174D01*
X78890940Y-17788508D01*
X78883473Y-17783406D01*
X78665300Y-17739225D01*
X77265300Y-17739225D01*
X77061482Y-17777576D01*
X76874288Y-17898032D01*
X76748706Y-18081827D01*
X76704525Y-18300000D01*
X76704525Y-18350000D01*
X76209668Y-18350000D01*
X76159967Y-18229714D01*
X75752431Y-17821467D01*
X75219688Y-17600252D01*
X74642843Y-17599749D01*
X74109714Y-17820033D01*
X73701467Y-18227569D01*
X73660172Y-18327018D01*
X73619967Y-18229714D01*
X73212431Y-17821467D01*
X72679688Y-17600252D01*
X72102843Y-17599749D01*
X71569714Y-17820033D01*
X71224548Y-18164598D01*
X70344975Y-17285025D01*
X70117879Y-17133284D01*
X69850000Y-17080000D01*
X66040005Y-17080000D01*
X66040000Y-17079999D01*
X65772121Y-17133284D01*
X65545025Y-17285025D01*
X61735025Y-21095025D01*
X61583284Y-21322121D01*
X61565765Y-21410194D01*
X61530000Y-21590000D01*
X61530000Y-24130000D01*
X61583284Y-24397879D01*
X61735025Y-24624975D01*
X64070000Y-26959949D01*
X64070000Y-27237091D01*
X64010475Y-27177462D01*
X63679806Y-27040157D01*
X63321764Y-27039844D01*
X62994842Y-27174925D01*
X63129843Y-26849806D01*
X63130156Y-26491764D01*
X62993428Y-26160857D01*
X62740475Y-25907462D01*
X62409806Y-25770157D01*
X62051764Y-25769844D01*
X61720857Y-25906572D01*
X61467462Y-26159525D01*
X61330157Y-26490194D01*
X61329844Y-26848236D01*
X61466572Y-27179143D01*
X61480000Y-27192594D01*
X61480000Y-29957009D01*
X61467462Y-29969525D01*
X61330157Y-30300194D01*
X61329844Y-30658236D01*
X61466572Y-30989143D01*
X61719525Y-31242538D01*
X62050194Y-31379843D01*
X62408236Y-31380156D01*
X62739143Y-31243428D01*
X62864998Y-31117793D01*
X62989525Y-31242538D01*
X63320194Y-31379843D01*
X63678236Y-31380156D01*
X64009143Y-31243428D01*
X64262538Y-30990475D01*
X64271293Y-30969390D01*
X64275025Y-30974975D01*
X65189878Y-31889828D01*
X65189853Y-31918334D01*
X65318985Y-32230857D01*
X65358060Y-32270000D01*
X62540660Y-32270000D01*
X60590141Y-30319481D01*
X60590156Y-30301764D01*
X60453428Y-29970857D01*
X60440000Y-29957406D01*
X60440000Y-25400000D01*
X60382910Y-25112987D01*
X60220330Y-24869670D01*
X55510141Y-20159481D01*
X55510156Y-20141764D01*
X55373428Y-19810857D01*
X55120475Y-19557462D01*
X54789806Y-19420157D01*
X54431764Y-19419844D01*
X54100857Y-19556572D01*
X53847462Y-19809525D01*
X53710157Y-20140194D01*
X53709844Y-20498236D01*
X53846572Y-20829143D01*
X54099525Y-21082538D01*
X54430194Y-21219843D01*
X54449200Y-21219860D01*
X58940000Y-25710660D01*
X58940000Y-26129340D01*
X52600330Y-19789670D01*
X52357013Y-19627090D01*
X52070000Y-19570000D01*
X51322991Y-19570000D01*
X51310475Y-19557462D01*
X50979806Y-19420157D01*
X50621764Y-19419844D01*
X50290857Y-19556572D01*
X50037462Y-19809525D01*
X49900157Y-20140194D01*
X49899844Y-20498236D01*
X50036572Y-20829143D01*
X50289525Y-21082538D01*
X50620194Y-21219843D01*
X50978236Y-21220156D01*
X51309143Y-21083428D01*
X51322594Y-21070000D01*
X51759340Y-21070000D01*
X54078365Y-23389025D01*
X53847462Y-23619525D01*
X53710157Y-23950194D01*
X53709844Y-24308236D01*
X53846572Y-24639143D01*
X53860000Y-24652594D01*
X53860000Y-29957009D01*
X53847462Y-29969525D01*
X53710157Y-30300194D01*
X53709844Y-30658236D01*
X53846572Y-30989143D01*
X54099525Y-31242538D01*
X54430194Y-31379843D01*
X54788236Y-31380156D01*
X55119143Y-31243428D01*
X55244998Y-31117793D01*
X55369525Y-31242538D01*
X55700194Y-31379843D01*
X56058236Y-31380156D01*
X56389143Y-31243428D01*
X56642538Y-30990475D01*
X56779843Y-30659806D01*
X56780156Y-30301764D01*
X56643428Y-29970857D01*
X56630000Y-29957406D01*
X56630000Y-25940660D01*
X57670000Y-26980660D01*
X57670000Y-30480000D01*
X57727090Y-30767013D01*
X57889670Y-31010330D01*
X58789859Y-31910519D01*
X58789844Y-31928236D01*
X58926572Y-32259143D01*
X59179525Y-32512538D01*
X59510194Y-32649843D01*
X59529200Y-32649860D01*
X61689340Y-34810000D01*
X51110660Y-34810000D01*
X49498896Y-33198236D01*
X49899844Y-33198236D01*
X50036572Y-33529143D01*
X50289525Y-33782538D01*
X50620194Y-33919843D01*
X50978236Y-33920156D01*
X51309143Y-33783428D01*
X51322594Y-33770000D01*
X56627009Y-33770000D01*
X56639525Y-33782538D01*
X56970194Y-33919843D01*
X57328236Y-33920156D01*
X57659143Y-33783428D01*
X57912538Y-33530475D01*
X58049843Y-33199806D01*
X58050156Y-32841764D01*
X57913428Y-32510857D01*
X57660475Y-32257462D01*
X57329806Y-32120157D01*
X56971764Y-32119844D01*
X56640857Y-32256572D01*
X56627406Y-32270000D01*
X51322991Y-32270000D01*
X51310475Y-32257462D01*
X50979806Y-32120157D01*
X50621764Y-32119844D01*
X50290857Y-32256572D01*
X50037462Y-32509525D01*
X49900157Y-32840194D01*
X49899844Y-33198236D01*
X49498896Y-33198236D01*
X41540141Y-25239481D01*
X41540156Y-25221764D01*
X41403428Y-24890857D01*
X41150475Y-24637462D01*
X40819806Y-24500157D01*
X40461764Y-24499844D01*
X40130857Y-24636572D01*
X40117406Y-24650000D01*
X31002991Y-24650000D01*
X30990475Y-24637462D01*
X30659806Y-24500157D01*
X30301764Y-24499844D01*
X29970857Y-24636572D01*
X29717462Y-24889525D01*
X29580157Y-25220194D01*
X29579844Y-25578236D01*
X785000Y-25578236D01*
X785000Y-8362649D01*
X3869350Y-8362649D01*
X4439051Y-9741429D01*
X5493022Y-10797242D01*
X6870806Y-11369348D01*
X8362649Y-11370650D01*
X9741429Y-10800949D01*
X10797242Y-9746978D01*
X11369348Y-8369194D01*
X11370650Y-6877351D01*
X10800949Y-5498571D01*
X9746978Y-4442758D01*
X8369194Y-3870652D01*
X6877351Y-3869350D01*
X5498571Y-4439051D01*
X4442758Y-5493022D01*
X3870652Y-6870806D01*
X3869350Y-8362649D01*
X785000Y-8362649D01*
X785000Y-785000D01*
X132565000Y-785000D01*
X132565000Y-99545000D01*
G36*
X50840033Y-77020286D02*
X51247569Y-77428533D01*
X51347018Y-77469828D01*
X51249714Y-77510033D01*
X50841467Y-77917569D01*
X50620252Y-78450312D01*
X50619749Y-79027157D01*
X50840033Y-79560286D01*
X51247569Y-79968533D01*
X51347018Y-80009828D01*
X51249714Y-80050033D01*
X50841467Y-80457569D01*
X50620252Y-80990312D01*
X50619749Y-81567157D01*
X50840033Y-82100286D01*
X51247569Y-82508533D01*
X51347018Y-82549828D01*
X51249714Y-82590033D01*
X50841467Y-82997569D01*
X50620252Y-83530312D01*
X50619749Y-84107157D01*
X50840033Y-84640286D01*
X51247569Y-85048533D01*
X51347018Y-85089828D01*
X51249714Y-85130033D01*
X50841467Y-85537569D01*
X50620252Y-86070312D01*
X50619749Y-86647157D01*
X50840033Y-87180286D01*
X51247569Y-87588533D01*
X51347018Y-87629828D01*
X51249714Y-87670033D01*
X50841467Y-88077569D01*
X50620252Y-88610312D01*
X50619749Y-89187157D01*
X50840033Y-89720286D01*
X51220796Y-90101713D01*
X51139292Y-90362214D01*
X52070000Y-91292922D01*
X53000708Y-90362214D01*
X52919058Y-90101245D01*
X53298533Y-89722431D01*
X53339828Y-89622982D01*
X53380033Y-89720286D01*
X53787569Y-90128533D01*
X53887018Y-90169828D01*
X53789714Y-90210033D01*
X53408287Y-90590796D01*
X53147786Y-90509292D01*
X52217078Y-91440000D01*
X53147786Y-92370708D01*
X53408755Y-92289058D01*
X53787569Y-92668533D01*
X54320312Y-92889748D01*
X54709962Y-92890088D01*
X54320050Y-93280000D01*
X52359950Y-93280000D01*
X52078270Y-92998320D01*
X52420686Y-92989331D01*
X52917569Y-92783514D01*
X53000708Y-92517786D01*
X52070000Y-91587078D01*
X52055858Y-91601221D01*
X51908780Y-91454143D01*
X51922922Y-91440000D01*
X50992214Y-90509292D01*
X50726486Y-90592431D01*
X50504403Y-91171089D01*
X50511234Y-91431284D01*
X50230000Y-91150050D01*
X50230000Y-82550005D01*
X50230001Y-82550000D01*
X50176716Y-82282121D01*
X50100845Y-82168573D01*
X50024975Y-82055025D01*
X50024972Y-82055023D01*
X44869949Y-76900000D01*
X50790332Y-76900000D01*
X50840033Y-77020286D01*
X50840033Y-77020286D01*
G37*
X50840033Y-77020286D02*
X51247569Y-77428533D01*
X51347018Y-77469828D01*
X51249714Y-77510033D01*
X50841467Y-77917569D01*
X50620252Y-78450312D01*
X50619749Y-79027157D01*
X50840033Y-79560286D01*
X51247569Y-79968533D01*
X51347018Y-80009828D01*
X51249714Y-80050033D01*
X50841467Y-80457569D01*
X50620252Y-80990312D01*
X50619749Y-81567157D01*
X50840033Y-82100286D01*
X51247569Y-82508533D01*
X51347018Y-82549828D01*
X51249714Y-82590033D01*
X50841467Y-82997569D01*
X50620252Y-83530312D01*
X50619749Y-84107157D01*
X50840033Y-84640286D01*
X51247569Y-85048533D01*
X51347018Y-85089828D01*
X51249714Y-85130033D01*
X50841467Y-85537569D01*
X50620252Y-86070312D01*
X50619749Y-86647157D01*
X50840033Y-87180286D01*
X51247569Y-87588533D01*
X51347018Y-87629828D01*
X51249714Y-87670033D01*
X50841467Y-88077569D01*
X50620252Y-88610312D01*
X50619749Y-89187157D01*
X50840033Y-89720286D01*
X51220796Y-90101713D01*
X51139292Y-90362214D01*
X52070000Y-91292922D01*
X53000708Y-90362214D01*
X52919058Y-90101245D01*
X53298533Y-89722431D01*
X53339828Y-89622982D01*
X53380033Y-89720286D01*
X53787569Y-90128533D01*
X53887018Y-90169828D01*
X53789714Y-90210033D01*
X53408287Y-90590796D01*
X53147786Y-90509292D01*
X52217078Y-91440000D01*
X53147786Y-92370708D01*
X53408755Y-92289058D01*
X53787569Y-92668533D01*
X54320312Y-92889748D01*
X54709962Y-92890088D01*
X54320050Y-93280000D01*
X52359950Y-93280000D01*
X52078270Y-92998320D01*
X52420686Y-92989331D01*
X52917569Y-92783514D01*
X53000708Y-92517786D01*
X52070000Y-91587078D01*
X52055858Y-91601221D01*
X51908780Y-91454143D01*
X51922922Y-91440000D01*
X50992214Y-90509292D01*
X50726486Y-90592431D01*
X50504403Y-91171089D01*
X50511234Y-91431284D01*
X50230000Y-91150050D01*
X50230000Y-82550005D01*
X50230001Y-82550000D01*
X50176716Y-82282121D01*
X50100845Y-82168573D01*
X50024975Y-82055025D01*
X50024972Y-82055023D01*
X44869949Y-76900000D01*
X50790332Y-76900000D01*
X50840033Y-77020286D01*
G36*
X58990000Y-87340050D02*
X58315208Y-88014842D01*
X57972431Y-87671467D01*
X57872982Y-87630172D01*
X57970286Y-87589967D01*
X58378533Y-87182431D01*
X58599748Y-86649688D01*
X58600251Y-86072843D01*
X58379967Y-85539714D01*
X57972431Y-85131467D01*
X57872982Y-85090172D01*
X57970286Y-85049967D01*
X58378533Y-84642431D01*
X58599748Y-84109688D01*
X58600251Y-83532843D01*
X58379967Y-82999714D01*
X57972431Y-82591467D01*
X57872982Y-82550172D01*
X57970286Y-82509967D01*
X58378533Y-82102431D01*
X58599748Y-81569688D01*
X58600251Y-80992843D01*
X58379967Y-80459714D01*
X57972431Y-80051467D01*
X57872982Y-80010172D01*
X57970286Y-79969967D01*
X58378533Y-79562431D01*
X58599748Y-79029688D01*
X58600251Y-78452843D01*
X58379967Y-77919714D01*
X57972431Y-77511467D01*
X57872982Y-77470172D01*
X57970286Y-77429967D01*
X58378533Y-77022431D01*
X58599748Y-76489688D01*
X58600251Y-75912843D01*
X58379967Y-75379714D01*
X57999204Y-74998287D01*
X58080708Y-74737786D01*
X57150000Y-73807078D01*
X56219292Y-74737786D01*
X56300942Y-74998755D01*
X55921467Y-75377569D01*
X55880172Y-75477018D01*
X55839967Y-75379714D01*
X55432431Y-74971467D01*
X55332982Y-74930172D01*
X55430286Y-74889967D01*
X55811713Y-74509204D01*
X56072214Y-74590708D01*
X57002922Y-73660000D01*
X57297078Y-73660000D01*
X58227786Y-74590708D01*
X58493514Y-74507569D01*
X58715597Y-73928911D01*
X58699331Y-73309314D01*
X58493514Y-72812431D01*
X58227786Y-72729292D01*
X57297078Y-73660000D01*
X57002922Y-73660000D01*
X56072214Y-72729292D01*
X55811245Y-72810942D01*
X55582916Y-72582214D01*
X56219292Y-72582214D01*
X57150000Y-73512922D01*
X58080708Y-72582214D01*
X57997569Y-72316486D01*
X57418911Y-72094403D01*
X56799314Y-72110669D01*
X56302431Y-72316486D01*
X56219292Y-72582214D01*
X55582916Y-72582214D01*
X55432431Y-72431467D01*
X54899688Y-72210252D01*
X54322843Y-72209749D01*
X53789714Y-72430033D01*
X53381467Y-72837569D01*
X53340172Y-72937018D01*
X53299967Y-72839714D01*
X52892431Y-72431467D01*
X52359688Y-72210252D01*
X51782843Y-72209749D01*
X51249714Y-72430033D01*
X50841467Y-72837569D01*
X50620252Y-73370312D01*
X50619749Y-73947157D01*
X50840033Y-74480286D01*
X51247569Y-74888533D01*
X51347018Y-74929828D01*
X51249714Y-74970033D01*
X50841467Y-75377569D01*
X50790629Y-75500000D01*
X44739950Y-75500000D01*
X43782315Y-74542365D01*
X44069628Y-74255554D01*
X44229818Y-73869774D01*
X44230182Y-73452058D01*
X44070666Y-73066000D01*
X43775554Y-72770372D01*
X43412347Y-72619555D01*
X40270000Y-69477208D01*
X40270000Y-62996728D01*
X40470183Y-63079852D01*
X40808334Y-63080147D01*
X41120857Y-62951015D01*
X41210000Y-62862027D01*
X41210000Y-65537746D01*
X41189826Y-65557885D01*
X41060148Y-65870183D01*
X41059853Y-66208334D01*
X41188985Y-66520857D01*
X41427885Y-66760174D01*
X41740183Y-66889852D01*
X42078334Y-66890147D01*
X42390857Y-66761015D01*
X42630174Y-66522115D01*
X42759852Y-66209817D01*
X42760147Y-65871666D01*
X42631015Y-65559143D01*
X42610000Y-65538091D01*
X42610000Y-62862136D01*
X42697885Y-62950174D01*
X43010183Y-63079852D01*
X43348334Y-63080147D01*
X43660857Y-62951015D01*
X43681909Y-62930000D01*
X57917746Y-62930000D01*
X57937885Y-62950174D01*
X58250183Y-63079852D01*
X58588334Y-63080147D01*
X58900857Y-62951015D01*
X58990000Y-62862027D01*
X58990000Y-87340050D01*
X58990000Y-87340050D01*
G37*
X58990000Y-87340050D02*
X58315208Y-88014842D01*
X57972431Y-87671467D01*
X57872982Y-87630172D01*
X57970286Y-87589967D01*
X58378533Y-87182431D01*
X58599748Y-86649688D01*
X58600251Y-86072843D01*
X58379967Y-85539714D01*
X57972431Y-85131467D01*
X57872982Y-85090172D01*
X57970286Y-85049967D01*
X58378533Y-84642431D01*
X58599748Y-84109688D01*
X58600251Y-83532843D01*
X58379967Y-82999714D01*
X57972431Y-82591467D01*
X57872982Y-82550172D01*
X57970286Y-82509967D01*
X58378533Y-82102431D01*
X58599748Y-81569688D01*
X58600251Y-80992843D01*
X58379967Y-80459714D01*
X57972431Y-80051467D01*
X57872982Y-80010172D01*
X57970286Y-79969967D01*
X58378533Y-79562431D01*
X58599748Y-79029688D01*
X58600251Y-78452843D01*
X58379967Y-77919714D01*
X57972431Y-77511467D01*
X57872982Y-77470172D01*
X57970286Y-77429967D01*
X58378533Y-77022431D01*
X58599748Y-76489688D01*
X58600251Y-75912843D01*
X58379967Y-75379714D01*
X57999204Y-74998287D01*
X58080708Y-74737786D01*
X57150000Y-73807078D01*
X56219292Y-74737786D01*
X56300942Y-74998755D01*
X55921467Y-75377569D01*
X55880172Y-75477018D01*
X55839967Y-75379714D01*
X55432431Y-74971467D01*
X55332982Y-74930172D01*
X55430286Y-74889967D01*
X55811713Y-74509204D01*
X56072214Y-74590708D01*
X57002922Y-73660000D01*
X57297078Y-73660000D01*
X58227786Y-74590708D01*
X58493514Y-74507569D01*
X58715597Y-73928911D01*
X58699331Y-73309314D01*
X58493514Y-72812431D01*
X58227786Y-72729292D01*
X57297078Y-73660000D01*
X57002922Y-73660000D01*
X56072214Y-72729292D01*
X55811245Y-72810942D01*
X55582916Y-72582214D01*
X56219292Y-72582214D01*
X57150000Y-73512922D01*
X58080708Y-72582214D01*
X57997569Y-72316486D01*
X57418911Y-72094403D01*
X56799314Y-72110669D01*
X56302431Y-72316486D01*
X56219292Y-72582214D01*
X55582916Y-72582214D01*
X55432431Y-72431467D01*
X54899688Y-72210252D01*
X54322843Y-72209749D01*
X53789714Y-72430033D01*
X53381467Y-72837569D01*
X53340172Y-72937018D01*
X53299967Y-72839714D01*
X52892431Y-72431467D01*
X52359688Y-72210252D01*
X51782843Y-72209749D01*
X51249714Y-72430033D01*
X50841467Y-72837569D01*
X50620252Y-73370312D01*
X50619749Y-73947157D01*
X50840033Y-74480286D01*
X51247569Y-74888533D01*
X51347018Y-74929828D01*
X51249714Y-74970033D01*
X50841467Y-75377569D01*
X50790629Y-75500000D01*
X44739950Y-75500000D01*
X43782315Y-74542365D01*
X44069628Y-74255554D01*
X44229818Y-73869774D01*
X44230182Y-73452058D01*
X44070666Y-73066000D01*
X43775554Y-72770372D01*
X43412347Y-72619555D01*
X40270000Y-69477208D01*
X40270000Y-62996728D01*
X40470183Y-63079852D01*
X40808334Y-63080147D01*
X41120857Y-62951015D01*
X41210000Y-62862027D01*
X41210000Y-65537746D01*
X41189826Y-65557885D01*
X41060148Y-65870183D01*
X41059853Y-66208334D01*
X41188985Y-66520857D01*
X41427885Y-66760174D01*
X41740183Y-66889852D01*
X42078334Y-66890147D01*
X42390857Y-66761015D01*
X42630174Y-66522115D01*
X42759852Y-66209817D01*
X42760147Y-65871666D01*
X42631015Y-65559143D01*
X42610000Y-65538091D01*
X42610000Y-62862136D01*
X42697885Y-62950174D01*
X43010183Y-63079852D01*
X43348334Y-63080147D01*
X43660857Y-62951015D01*
X43681909Y-62930000D01*
X57917746Y-62930000D01*
X57937885Y-62950174D01*
X58250183Y-63079852D01*
X58588334Y-63080147D01*
X58900857Y-62951015D01*
X58990000Y-62862027D01*
X58990000Y-87340050D01*
G36*
X80050033Y-68130286D02*
X80457569Y-68538533D01*
X80883541Y-68715413D01*
X80601143Y-68832097D01*
X80483034Y-68950000D01*
X79310575Y-68950000D01*
X78949774Y-68800182D01*
X78532058Y-68799818D01*
X78146000Y-68959334D01*
X77850372Y-69254446D01*
X77690182Y-69640226D01*
X77689818Y-70057942D01*
X77849334Y-70444000D01*
X78144446Y-70739628D01*
X78530226Y-70899818D01*
X78947942Y-70900182D01*
X79311410Y-70750000D01*
X80230000Y-70750000D01*
X80230000Y-82770000D01*
X74930000Y-82770000D01*
X74528182Y-82849926D01*
X74187538Y-83077538D01*
X72072140Y-85192936D01*
X71711143Y-85342097D01*
X71373283Y-85679367D01*
X71222441Y-86042635D01*
X70802140Y-86462936D01*
X70441143Y-86612097D01*
X70103283Y-86949367D01*
X69920209Y-87390258D01*
X69919793Y-87867647D01*
X70102097Y-88308857D01*
X70439367Y-88646717D01*
X70880258Y-88829791D01*
X71357647Y-88830207D01*
X71798857Y-88647903D01*
X72136717Y-88310633D01*
X72287559Y-87947365D01*
X72707860Y-87527064D01*
X73068857Y-87377903D01*
X73406717Y-87040633D01*
X73557559Y-86677365D01*
X75364924Y-84870000D01*
X85925076Y-84870000D01*
X86887538Y-85832462D01*
X87228182Y-86060074D01*
X87630000Y-86140000D01*
X93980000Y-86140000D01*
X93986336Y-86138740D01*
X93545076Y-86580000D01*
X82984924Y-86580000D01*
X82447064Y-86042140D01*
X82297903Y-85681143D01*
X81960633Y-85343283D01*
X81519742Y-85160209D01*
X81042353Y-85159793D01*
X80678824Y-85310000D01*
X76200000Y-85310000D01*
X75798182Y-85389926D01*
X75457538Y-85617538D01*
X71955076Y-89120000D01*
X70284924Y-89120000D01*
X67090000Y-85925076D01*
X67090000Y-72390000D01*
X67010074Y-71988182D01*
X66782462Y-71647538D01*
X65025699Y-69890775D01*
X66244700Y-69890775D01*
X66448518Y-69852424D01*
X66635712Y-69731968D01*
X66761294Y-69548173D01*
X66805475Y-69330000D01*
X66805475Y-69280000D01*
X67310000Y-69280000D01*
X67577879Y-69226716D01*
X67804975Y-69074975D01*
X68170113Y-68709837D01*
X68290312Y-68759748D01*
X68867157Y-68760251D01*
X69400286Y-68539967D01*
X69808533Y-68132431D01*
X69849828Y-68032982D01*
X69890033Y-68130286D01*
X70297569Y-68538533D01*
X70830312Y-68759748D01*
X71407157Y-68760251D01*
X71940286Y-68539967D01*
X72348533Y-68132431D01*
X72378609Y-68060000D01*
X74940991Y-68060000D01*
X74970033Y-68130286D01*
X75377569Y-68538533D01*
X75910312Y-68759748D01*
X76487157Y-68760251D01*
X77020286Y-68539967D01*
X77428533Y-68132431D01*
X77469828Y-68032982D01*
X77510033Y-68130286D01*
X77917569Y-68538533D01*
X78450312Y-68759748D01*
X79027157Y-68760251D01*
X79560286Y-68539967D01*
X79968533Y-68132431D01*
X80009828Y-68032982D01*
X80050033Y-68130286D01*
X80050033Y-68130286D01*
G37*
X80050033Y-68130286D02*
X80457569Y-68538533D01*
X80883541Y-68715413D01*
X80601143Y-68832097D01*
X80483034Y-68950000D01*
X79310575Y-68950000D01*
X78949774Y-68800182D01*
X78532058Y-68799818D01*
X78146000Y-68959334D01*
X77850372Y-69254446D01*
X77690182Y-69640226D01*
X77689818Y-70057942D01*
X77849334Y-70444000D01*
X78144446Y-70739628D01*
X78530226Y-70899818D01*
X78947942Y-70900182D01*
X79311410Y-70750000D01*
X80230000Y-70750000D01*
X80230000Y-82770000D01*
X74930000Y-82770000D01*
X74528182Y-82849926D01*
X74187538Y-83077538D01*
X72072140Y-85192936D01*
X71711143Y-85342097D01*
X71373283Y-85679367D01*
X71222441Y-86042635D01*
X70802140Y-86462936D01*
X70441143Y-86612097D01*
X70103283Y-86949367D01*
X69920209Y-87390258D01*
X69919793Y-87867647D01*
X70102097Y-88308857D01*
X70439367Y-88646717D01*
X70880258Y-88829791D01*
X71357647Y-88830207D01*
X71798857Y-88647903D01*
X72136717Y-88310633D01*
X72287559Y-87947365D01*
X72707860Y-87527064D01*
X73068857Y-87377903D01*
X73406717Y-87040633D01*
X73557559Y-86677365D01*
X75364924Y-84870000D01*
X85925076Y-84870000D01*
X86887538Y-85832462D01*
X87228182Y-86060074D01*
X87630000Y-86140000D01*
X93980000Y-86140000D01*
X93986336Y-86138740D01*
X93545076Y-86580000D01*
X82984924Y-86580000D01*
X82447064Y-86042140D01*
X82297903Y-85681143D01*
X81960633Y-85343283D01*
X81519742Y-85160209D01*
X81042353Y-85159793D01*
X80678824Y-85310000D01*
X76200000Y-85310000D01*
X75798182Y-85389926D01*
X75457538Y-85617538D01*
X71955076Y-89120000D01*
X70284924Y-89120000D01*
X67090000Y-85925076D01*
X67090000Y-72390000D01*
X67010074Y-71988182D01*
X66782462Y-71647538D01*
X65025699Y-69890775D01*
X66244700Y-69890775D01*
X66448518Y-69852424D01*
X66635712Y-69731968D01*
X66761294Y-69548173D01*
X66805475Y-69330000D01*
X66805475Y-69280000D01*
X67310000Y-69280000D01*
X67577879Y-69226716D01*
X67804975Y-69074975D01*
X68170113Y-68709837D01*
X68290312Y-68759748D01*
X68867157Y-68760251D01*
X69400286Y-68539967D01*
X69808533Y-68132431D01*
X69849828Y-68032982D01*
X69890033Y-68130286D01*
X70297569Y-68538533D01*
X70830312Y-68759748D01*
X71407157Y-68760251D01*
X71940286Y-68539967D01*
X72348533Y-68132431D01*
X72378609Y-68060000D01*
X74940991Y-68060000D01*
X74970033Y-68130286D01*
X75377569Y-68538533D01*
X75910312Y-68759748D01*
X76487157Y-68760251D01*
X77020286Y-68539967D01*
X77428533Y-68132431D01*
X77469828Y-68032982D01*
X77510033Y-68130286D01*
X77917569Y-68538533D01*
X78450312Y-68759748D01*
X79027157Y-68760251D01*
X79560286Y-68539967D01*
X79968533Y-68132431D01*
X80009828Y-68032982D01*
X80050033Y-68130286D01*
G36*
X94500000Y-65729340D02*
X89859340Y-70370000D01*
X85090000Y-70370000D01*
X84802987Y-70427090D01*
X84559670Y-70589670D01*
X82330000Y-72819340D01*
X82330000Y-70450479D01*
X82479791Y-70089742D01*
X82480207Y-69612353D01*
X82297903Y-69171143D01*
X81960633Y-68833283D01*
X81676223Y-68715186D01*
X82100286Y-68539967D01*
X82508533Y-68132431D01*
X82729748Y-67599688D01*
X82730251Y-67022843D01*
X82700301Y-66950359D01*
X82860660Y-66790000D01*
X90170000Y-66790000D01*
X90457013Y-66732910D01*
X90700330Y-66570330D01*
X94500000Y-62770660D01*
X94500000Y-65729340D01*
X94500000Y-65729340D01*
G37*
X94500000Y-65729340D02*
X89859340Y-70370000D01*
X85090000Y-70370000D01*
X84802987Y-70427090D01*
X84559670Y-70589670D01*
X82330000Y-72819340D01*
X82330000Y-70450479D01*
X82479791Y-70089742D01*
X82480207Y-69612353D01*
X82297903Y-69171143D01*
X81960633Y-68833283D01*
X81676223Y-68715186D01*
X82100286Y-68539967D01*
X82508533Y-68132431D01*
X82729748Y-67599688D01*
X82730251Y-67022843D01*
X82700301Y-66950359D01*
X82860660Y-66790000D01*
X90170000Y-66790000D01*
X90457013Y-66732910D01*
X90700330Y-66570330D01*
X94500000Y-62770660D01*
X94500000Y-65729340D01*
G36*
X97819365Y-6170025D02*
X97502843Y-6169749D01*
X96969714Y-6390033D01*
X96561467Y-6797569D01*
X96520172Y-6897018D01*
X96479967Y-6799714D01*
X96072431Y-6391467D01*
X95539688Y-6170252D01*
X94962843Y-6169749D01*
X94429714Y-6390033D01*
X94021467Y-6797569D01*
X93800252Y-7330312D01*
X93799749Y-7907157D01*
X94020033Y-8440286D01*
X94427569Y-8848533D01*
X94960312Y-9069748D01*
X95279314Y-9070026D01*
X94939340Y-9410000D01*
X73970660Y-9410000D01*
X72921635Y-8360975D01*
X73152538Y-8130475D01*
X73289843Y-7799806D01*
X73289860Y-7780800D01*
X75240660Y-5830000D01*
X97479340Y-5830000D01*
X97819365Y-6170025D01*
X97819365Y-6170025D01*
G37*
X97819365Y-6170025D02*
X97502843Y-6169749D01*
X96969714Y-6390033D01*
X96561467Y-6797569D01*
X96520172Y-6897018D01*
X96479967Y-6799714D01*
X96072431Y-6391467D01*
X95539688Y-6170252D01*
X94962843Y-6169749D01*
X94429714Y-6390033D01*
X94021467Y-6797569D01*
X93800252Y-7330312D01*
X93799749Y-7907157D01*
X94020033Y-8440286D01*
X94427569Y-8848533D01*
X94960312Y-9069748D01*
X95279314Y-9070026D01*
X94939340Y-9410000D01*
X73970660Y-9410000D01*
X72921635Y-8360975D01*
X73152538Y-8130475D01*
X73289843Y-7799806D01*
X73289860Y-7780800D01*
X75240660Y-5830000D01*
X97479340Y-5830000D01*
X97819365Y-6170025D01*
M02*
