M48
;DRILL file {KiCad 4.0.7} date 02/11/20 08:44:00
;FORMAT={-:-/ absolute / metric / decimal}
FMAT,2
METRIC,TZ
T1C0.500
T2C0.600
T3C1.020
%
G90
G05
M71
T1
X1.27Y14.605
X1.27Y8.255
X3.81Y13.335
X3.81Y9.525
X4.445Y43.815
X4.445Y26.67
X5.08Y31.115
X5.08Y23.495
X6.35Y36.195
X6.35Y13.97
X6.35Y8.89
X6.985Y46.355
X6.985Y29.21
X7.62Y20.955
X8.89Y46.355
X8.89Y26.035
X9.525Y13.335
X9.525Y9.525
X10.16Y58.42
X10.795Y39.37
X11.43Y20.955
X12.7Y36.195
X12.7Y20.955
X13.335Y15.24
X13.335Y7.62
X13.97Y58.42
X14.605Y55.245
X14.605Y36.195
X16.51Y8.89
X17.145Y39.37
X17.145Y36.195
X17.145Y13.97
X20.32Y39.37
X20.955Y12.7
X20.955Y8.255
X21.59Y40.64
X22.225Y20.32
X24.765Y26.67
X25.4Y22.225
X25.4Y20.955
X25.4Y13.97
X25.4Y9.525
X26.67Y22.225
X26.67Y20.955
X27.305Y29.845
X27.94Y26.035
X28.575Y22.86
X28.575Y10.795
X28.575Y6.985
X29.21Y64.135
X29.21Y26.035
X29.21Y24.765
X29.21Y14.605
X31.115Y53.975
X31.75Y24.765
X32.385Y61.595
X32.385Y36.195
X33.02Y38.735
X33.02Y13.97
X33.02Y9.525
X33.655Y28.575
X33.655Y27.305
X33.655Y26.035
X33.655Y21.59
X33.655Y6.35
X34.925Y31.75
X35.56Y52.07
X35.56Y50.165
X35.56Y38.735
X35.56Y36.195
X36.195Y24.765
X36.195Y21.59
X36.83Y57.15
X37.465Y50.165
X38.1Y64.135
X38.1Y12.7
X38.1Y8.255
X39.37Y38.735
X40.005Y60.325
X40.64Y53.975
X40.64Y52.07
X41.275Y27.94
X41.91Y30.48
X43.18Y48.26
X43.18Y36.83
X43.815Y63.5
X43.815Y57.15
X43.815Y52.07
X43.815Y27.94
X45.72Y60.325
X45.72Y26.67
X46.99Y53.34
X46.99Y29.21
X48.26Y39.37
X48.895Y63.5
X48.895Y55.245
X49.53Y57.785
X49.53Y36.195
X49.53Y26.67
X50.8Y41.91
X53.34Y31.75
X55.88Y41.91
X56.515Y35.56
X59.69Y43.18
X59.69Y31.75
X60.96Y39.37
T2
X9.525Y51.435
T3
X1.27Y18.415
X1.27Y3.175
X3.81Y18.415
X3.81Y3.175
X6.35Y18.415
X6.35Y3.175
X8.89Y18.415
X8.89Y3.175
X11.43Y18.415
X11.43Y3.175
X13.97Y18.415
X13.97Y3.175
X16.51Y18.415
X16.51Y3.175
X19.05Y65.405
X19.05Y62.865
X19.05Y60.325
X19.05Y57.785
X19.05Y55.245
X19.05Y52.705
X19.05Y50.165
X19.05Y47.625
X19.05Y18.415
X19.05Y3.175
X21.59Y65.405
X21.59Y62.865
X21.59Y60.325
X21.59Y57.785
X21.59Y55.245
X21.59Y52.705
X21.59Y50.165
X21.59Y47.625
X21.59Y18.415
X21.59Y3.175
X24.13Y65.405
X24.13Y62.865
X24.13Y60.325
X24.13Y57.785
X24.13Y55.245
X24.13Y52.705
X24.13Y50.165
X24.13Y47.625
X24.13Y18.415
X24.13Y3.175
X26.67Y18.415
X26.67Y3.175
X29.21Y18.415
X29.21Y3.175
X31.75Y18.415
X31.75Y3.175
X34.29Y18.415
X34.29Y3.175
X36.83Y18.415
X36.83Y3.175
X39.37Y18.415
X39.37Y3.175
X54.61Y65.405
X54.61Y62.865
X54.61Y60.325
X54.61Y57.785
X54.61Y55.245
X54.61Y52.705
X54.61Y50.165
X54.61Y47.625
X57.15Y65.405
X57.15Y62.865
X57.15Y60.325
X57.15Y57.785
X57.15Y55.245
X57.15Y52.705
X57.15Y50.165
X57.15Y47.625
X59.69Y65.405
X59.69Y62.865
X59.69Y60.325
X59.69Y57.785
X59.69Y55.245
X59.69Y52.705
X59.69Y50.165
X59.69Y47.625
T0
M30
