G04 #@! TF.FileFunction,Copper,L2,Bot,Signal*
%FSLAX46Y46*%
G04 Gerber Fmt 4.6, Leading zero omitted, Abs format (unit mm)*
G04 Created by KiCad (PCBNEW 4.0.7) date 02/11/20 08:43:37*
%MOMM*%
%LPD*%
G01*
G04 APERTURE LIST*
%ADD10C,0.200000*%
%ADD11C,1.800000*%
%ADD12C,1.000000*%
%ADD13C,0.800000*%
%ADD14C,0.700000*%
%ADD15C,0.250000*%
%ADD16C,0.400000*%
%ADD17C,0.300000*%
G04 APERTURE END LIST*
D10*
D11*
X39370000Y18415000D03*
X36830000Y18415000D03*
X34290000Y18415000D03*
X31750000Y18415000D03*
X29210000Y18415000D03*
X26670000Y18415000D03*
X24130000Y18415000D03*
X21590000Y18415000D03*
X19050000Y18415000D03*
X16510000Y18415000D03*
X13970000Y18415000D03*
X11430000Y18415000D03*
X8890000Y18415000D03*
X6350000Y18415000D03*
X3810000Y18415000D03*
X1270000Y18415000D03*
X1270000Y3175000D03*
X3810000Y3175000D03*
X6350000Y3175000D03*
X8890000Y3175000D03*
X11430000Y3175000D03*
X13970000Y3175000D03*
X16510000Y3175000D03*
X19050000Y3175000D03*
X21590000Y3175000D03*
X24130000Y3175000D03*
X26670000Y3175000D03*
X29210000Y3175000D03*
X31750000Y3175000D03*
X34290000Y3175000D03*
X36830000Y3175000D03*
X39370000Y3175000D03*
X24130000Y47625000D03*
X21590000Y47625000D03*
X19050000Y47625000D03*
X24130000Y50165000D03*
X21590000Y50165000D03*
X19050000Y50165000D03*
X24130000Y52705000D03*
X21590000Y52705000D03*
X19050000Y52705000D03*
X24130000Y55245000D03*
X21590000Y55245000D03*
X19050000Y55245000D03*
X24130000Y57785000D03*
X21590000Y57785000D03*
X19050000Y57785000D03*
X24130000Y60325000D03*
X21590000Y60325000D03*
X19050000Y60325000D03*
X24130000Y62865000D03*
X21590000Y62865000D03*
X19050000Y62865000D03*
X24130000Y65405000D03*
X21590000Y65405000D03*
X19050000Y65405000D03*
X59690000Y65405000D03*
X57150000Y65405000D03*
X54610000Y65405000D03*
X59690000Y62865000D03*
X57150000Y62865000D03*
X54610000Y62865000D03*
X59690000Y60325000D03*
X57150000Y60325000D03*
X54610000Y60325000D03*
X59690000Y57785000D03*
X57150000Y57785000D03*
X54610000Y57785000D03*
X59690000Y55245000D03*
X57150000Y55245000D03*
X54610000Y55245000D03*
X59690000Y52705000D03*
X57150000Y52705000D03*
X54610000Y52705000D03*
X59690000Y50165000D03*
X57150000Y50165000D03*
X54610000Y50165000D03*
X59690000Y47625000D03*
X57150000Y47625000D03*
X54610000Y47625000D03*
D12*
X9525000Y51435000D03*
D13*
X5080000Y23495000D03*
X4445000Y26670000D03*
X6985000Y29210000D03*
X5080000Y31115000D03*
X43815000Y63500000D03*
X38100000Y64135000D03*
X29210000Y64135000D03*
X32385000Y61595000D03*
X40005000Y60325000D03*
X36830000Y57150000D03*
X60960000Y39370000D03*
X56515000Y35560000D03*
X59690000Y31750000D03*
X53340000Y31750000D03*
X49530000Y26670000D03*
X36195000Y21590000D03*
X36195000Y24765000D03*
X45720000Y26670000D03*
X40640000Y53975000D03*
X40640000Y52070000D03*
X35560000Y50165000D03*
X55880000Y41910000D03*
X50800000Y41910000D03*
X43180000Y36830000D03*
X34925000Y31750000D03*
X32385000Y36195000D03*
X33020000Y38735000D03*
X20320000Y39370000D03*
X21590000Y40640000D03*
X14605000Y36195000D03*
X10795000Y39370000D03*
X17145000Y39370000D03*
X6985000Y46355000D03*
X13970000Y58420000D03*
X10160000Y58420000D03*
X43815000Y57150000D03*
X45720000Y60325000D03*
X43815000Y52070000D03*
X46990000Y53340000D03*
X43180000Y48260000D03*
X38100000Y8255000D03*
X38100000Y12700000D03*
X25400000Y13970000D03*
X25400000Y9525000D03*
X13335000Y7620000D03*
X13335000Y15240000D03*
X17145000Y13970000D03*
X16510000Y8890000D03*
X6350000Y13970000D03*
X3810000Y13335000D03*
X9525000Y9525000D03*
X9525000Y13335000D03*
X20955000Y12700000D03*
X20955000Y8255000D03*
X33655000Y6350000D03*
X33020000Y9525000D03*
X33020000Y13970000D03*
X29210000Y14605000D03*
X28575000Y10795000D03*
X28575000Y6985000D03*
X1270000Y8255000D03*
X6350000Y8890000D03*
X3810000Y9525000D03*
X1270000Y14605000D03*
X49530000Y57785000D03*
X48895000Y63500000D03*
X17145000Y36195000D03*
X35560000Y36195000D03*
X39370000Y38735000D03*
X35560000Y38735000D03*
X48260000Y39370000D03*
X49530000Y36195000D03*
X4445000Y43815000D03*
X8890000Y46355000D03*
X37465000Y50165000D03*
X59690000Y43180000D03*
X48895000Y55245000D03*
X35560000Y52070000D03*
X14605000Y55245000D03*
D14*
X12700000Y36195000D03*
X6350000Y36195000D03*
X31115000Y53975000D03*
X27940000Y26035000D03*
X28575000Y22860000D03*
X26670000Y22225000D03*
X33655000Y27305000D03*
X33655000Y28575000D03*
X46990000Y29210000D03*
X41910000Y30480000D03*
X8890000Y26035000D03*
X7620000Y20955000D03*
X11430000Y20955000D03*
X12700000Y20955000D03*
X33655000Y26035000D03*
X22225000Y20320000D03*
X27305000Y29845000D03*
X24765000Y26670000D03*
X25400000Y22225000D03*
X25400000Y20955000D03*
X31750000Y24765000D03*
X29210000Y24765000D03*
X26670000Y20955000D03*
X29210000Y26035000D03*
X33655000Y21590000D03*
X41275000Y27940000D03*
X43815000Y27940000D03*
D15*
X2540000Y43180000D02*
X2540000Y44450000D01*
X2540000Y27305000D02*
X2540000Y43180000D01*
X2540000Y2540000D02*
X2540000Y27305000D01*
X38100000Y1270000D02*
X3810000Y1270000D01*
X38100000Y1270000D02*
X39370000Y2540000D01*
X2540000Y2540000D02*
X3810000Y1270000D01*
X2540000Y44450000D02*
X9525000Y51435000D01*
X39370000Y3175000D02*
X39370000Y2540000D01*
X5080000Y23495000D02*
X4445000Y24130000D01*
X5080000Y31115000D02*
X6985000Y29210000D01*
X4445000Y26670000D02*
X4445000Y24130000D01*
X31750000Y61595000D02*
X32385000Y61595000D01*
X43180000Y64135000D02*
X43815000Y63500000D01*
X38100000Y64135000D02*
X43180000Y64135000D01*
X36830000Y57150000D02*
X40005000Y60325000D01*
X29210000Y64135000D02*
X31750000Y61595000D01*
X57150000Y35560000D02*
X60960000Y39370000D01*
X56515000Y35560000D02*
X57150000Y35560000D01*
X53340000Y31750000D02*
X59690000Y31750000D01*
X38100000Y26670000D02*
X36195000Y24765000D01*
X45720000Y26670000D02*
X38100000Y26670000D01*
X37465000Y50165000D02*
X35560000Y50165000D01*
X48260000Y39370000D02*
X50800000Y41910000D01*
X39370000Y38735000D02*
X41275000Y36830000D01*
X41275000Y36830000D02*
X43180000Y36830000D01*
X35560000Y36195000D02*
X35560000Y32385000D01*
X35560000Y32385000D02*
X34925000Y31750000D01*
X18415000Y40640000D02*
X17145000Y39370000D01*
X18415000Y40640000D02*
X21590000Y40640000D01*
X10160000Y58420000D02*
X13970000Y58420000D01*
D16*
X1270000Y18415000D02*
X1270000Y15875000D01*
X1270000Y18415000D02*
X1270000Y20955000D01*
D15*
X40640000Y52070000D02*
X43815000Y52070000D01*
X46990000Y53340000D02*
X46990000Y52070000D01*
X46990000Y52070000D02*
X43180000Y48260000D01*
D16*
X54610000Y65405000D02*
X52070000Y65405000D01*
D15*
X33655000Y6350000D02*
X36195000Y6350000D01*
X36195000Y6350000D02*
X38100000Y8255000D01*
X25400000Y9525000D02*
X27940000Y6985000D01*
X4445000Y13970000D02*
X6350000Y13970000D01*
X25400000Y9525000D02*
X25400000Y13970000D01*
X11430000Y7620000D02*
X13335000Y7620000D01*
X13335000Y15240000D02*
X15875000Y15240000D01*
X15875000Y15240000D02*
X17145000Y13970000D01*
X9525000Y13335000D02*
X9525000Y9525000D01*
X9525000Y9525000D02*
X11430000Y7620000D01*
X20955000Y8255000D02*
X20955000Y12700000D01*
X3810000Y13335000D02*
X4445000Y13970000D01*
X33020000Y13970000D02*
X33020000Y9525000D01*
X28575000Y13970000D02*
X29210000Y14605000D01*
X28575000Y10795000D02*
X28575000Y13970000D01*
X27940000Y6985000D02*
X28575000Y6985000D01*
X3810000Y9525000D02*
X5715000Y9525000D01*
X5715000Y9525000D02*
X6350000Y8890000D01*
X1270000Y14605000D02*
X1270000Y8255000D01*
X48895000Y63500000D02*
X49530000Y62865000D01*
X49530000Y57785000D02*
X49530000Y62865000D01*
X17145000Y36830000D02*
X17145000Y36195000D01*
X17145000Y38100000D02*
X17145000Y36830000D01*
X17145000Y38100000D02*
X17145000Y39370000D01*
X35560000Y38735000D02*
X35560000Y36195000D01*
X35560000Y38735000D02*
X39370000Y38735000D01*
X48260000Y37465000D02*
X48260000Y39370000D01*
X49530000Y36195000D02*
X48260000Y37465000D01*
X6350000Y43815000D02*
X8890000Y46355000D01*
X4445000Y43815000D02*
X6350000Y43815000D01*
X38735000Y50165000D02*
X40640000Y52070000D01*
X37465000Y50165000D02*
X38735000Y50165000D01*
D16*
X59690000Y43180000D02*
X59690000Y47625000D01*
D15*
X54610000Y65405000D02*
X53975000Y65405000D01*
X41910000Y55245000D02*
X38735000Y55245000D01*
X41910000Y55245000D02*
X48895000Y55245000D01*
X38735000Y55245000D02*
X35560000Y52070000D01*
X14605000Y55245000D02*
X19050000Y55245000D01*
X6350000Y36195000D02*
X12700000Y36195000D01*
X31115000Y53975000D02*
X22860000Y53975000D01*
X22860000Y53975000D02*
X21590000Y55245000D01*
X27940000Y24765000D02*
X27940000Y26035000D01*
X33655000Y20320000D02*
X34925000Y20320000D01*
X36830000Y18415000D02*
X34925000Y20320000D01*
X29845000Y22860000D02*
X31115000Y22860000D01*
X27940000Y24765000D02*
X29845000Y22860000D01*
X31115000Y22860000D02*
X33655000Y20320000D01*
X30480000Y22225000D02*
X34290000Y18415000D01*
X29210000Y22225000D02*
X30480000Y22225000D01*
X28575000Y22860000D02*
X29210000Y22225000D01*
X28575000Y21590000D02*
X29845000Y21590000D01*
X31750000Y18415000D02*
X31750000Y19685000D01*
X27305000Y21590000D02*
X28575000Y21590000D01*
X26670000Y22225000D02*
X27305000Y21590000D01*
X29845000Y21590000D02*
X31750000Y19685000D01*
X26035000Y26670000D02*
X27305000Y27940000D01*
X20955000Y21590000D02*
X26035000Y26670000D01*
X20955000Y19050000D02*
X20955000Y20955000D01*
X20955000Y20955000D02*
X20955000Y21590000D01*
X27305000Y27940000D02*
X27940000Y27940000D01*
X27940000Y27940000D02*
X27940000Y27940000D01*
X27940000Y27940000D02*
X33020000Y27940000D01*
X33020000Y27940000D02*
X33655000Y27305000D01*
X20955000Y19050000D02*
X21590000Y18415000D01*
X19050000Y21590000D02*
X19050000Y22225000D01*
X19050000Y18415000D02*
X19050000Y19685000D01*
X19050000Y19685000D02*
X19050000Y21590000D01*
X19050000Y22225000D02*
X23495000Y26670000D01*
X25400000Y28575000D02*
X31750000Y28575000D01*
X23495000Y26670000D02*
X24765000Y27940000D01*
X23495000Y26670000D02*
X23495000Y26670000D01*
X24765000Y27940000D02*
X25400000Y28575000D01*
X33655000Y28575000D02*
X31750000Y28575000D01*
X34290000Y29845000D02*
X41275000Y29845000D01*
X27940000Y31115000D02*
X29210000Y29845000D01*
X41910000Y29210000D02*
X46990000Y29210000D01*
X34290000Y29845000D02*
X29210000Y29845000D01*
X41275000Y29845000D02*
X41910000Y29210000D01*
X27305000Y31115000D02*
X27940000Y31115000D01*
X27940000Y31115000D02*
X25400000Y31115000D01*
X25400000Y31115000D02*
X13970000Y19685000D01*
X13970000Y18415000D02*
X13970000Y19685000D01*
X33655000Y30480000D02*
X34925000Y30480000D01*
X41910000Y30480000D02*
X34925000Y30480000D01*
X28575000Y31750000D02*
X29845000Y30480000D01*
X29845000Y30480000D02*
X33655000Y30480000D01*
X13335000Y20320000D02*
X11430000Y18415000D01*
X24765000Y31750000D02*
X13335000Y20320000D01*
X25400000Y31750000D02*
X24765000Y31750000D01*
X25400000Y31750000D02*
X28575000Y31750000D01*
X35560000Y44450000D02*
X41910000Y44450000D01*
X55880000Y61595000D02*
X57150000Y62865000D01*
X20955000Y38100000D02*
X9525000Y26670000D01*
X27305000Y44450000D02*
X20955000Y38100000D01*
X35560000Y44450000D02*
X27305000Y44450000D01*
X9525000Y26670000D02*
X8890000Y26035000D01*
X53975000Y61595000D02*
X55880000Y61595000D01*
X50800000Y58420000D02*
X53975000Y61595000D01*
X50800000Y55880000D02*
X50800000Y58420000D01*
X48260000Y53340000D02*
X50800000Y55880000D01*
X48260000Y50800000D02*
X48260000Y53340000D01*
X41910000Y44450000D02*
X48260000Y50800000D01*
X36830000Y43180000D02*
X43180000Y43180000D01*
X6350000Y18415000D02*
X6350000Y20955000D01*
X58420000Y59055000D02*
X59690000Y60325000D01*
X58420000Y59055000D02*
X55245000Y59055000D01*
X23495000Y38100000D02*
X9525000Y24130000D01*
X28575000Y43180000D02*
X23495000Y38100000D01*
X36830000Y43180000D02*
X28575000Y43180000D01*
X9525000Y24130000D02*
X6350000Y20955000D01*
X53975000Y59055000D02*
X55245000Y59055000D01*
X52070000Y57150000D02*
X53975000Y59055000D01*
X52070000Y54610000D02*
X52070000Y57150000D01*
X49530000Y52070000D02*
X52070000Y54610000D01*
X49530000Y49530000D02*
X49530000Y52070000D01*
X43180000Y43180000D02*
X49530000Y49530000D01*
X36195000Y43815000D02*
X42545000Y43815000D01*
X3810000Y19685000D02*
X8890000Y24765000D01*
X13335000Y29210000D02*
X8890000Y24765000D01*
X22860000Y38735000D02*
X13335000Y29210000D01*
X27940000Y43815000D02*
X22860000Y38735000D01*
X36195000Y43815000D02*
X27940000Y43815000D01*
X3810000Y18415000D02*
X3810000Y19685000D01*
X51435000Y57785000D02*
X53975000Y60325000D01*
X51435000Y55245000D02*
X51435000Y57785000D01*
X48895000Y52705000D02*
X51435000Y55245000D01*
X48895000Y50165000D02*
X48895000Y52705000D01*
X42545000Y43815000D02*
X48895000Y50165000D01*
X53975000Y60325000D02*
X54610000Y60325000D01*
X53975000Y56515000D02*
X55880000Y56515000D01*
X37465000Y42545000D02*
X43815000Y42545000D01*
X16510000Y29845000D02*
X10160000Y23495000D01*
X23495000Y36830000D02*
X16510000Y29845000D01*
X29210000Y42545000D02*
X23495000Y36830000D01*
X37465000Y42545000D02*
X29210000Y42545000D01*
X10160000Y23495000D02*
X7620000Y20955000D01*
X52705000Y53975000D02*
X52705000Y55245000D01*
X50165000Y51435000D02*
X52705000Y53975000D01*
X50165000Y48895000D02*
X50165000Y51435000D01*
X43815000Y42545000D02*
X50165000Y48895000D01*
X57150000Y57785000D02*
X55880000Y56515000D01*
X52705000Y55245000D02*
X53975000Y56515000D01*
X7620000Y6985000D02*
X3810000Y3175000D01*
X7620000Y15875000D02*
X7620000Y17145000D01*
X50800000Y50800000D02*
X53975000Y53975000D01*
X57150000Y55245000D02*
X55880000Y53975000D01*
X44450000Y41910000D02*
X50800000Y48260000D01*
X50800000Y48260000D02*
X50800000Y50800000D01*
X10795000Y22860000D02*
X7620000Y19685000D01*
X38100000Y41910000D02*
X29845000Y41910000D01*
X29845000Y41910000D02*
X22860000Y34925000D01*
X22860000Y34925000D02*
X10795000Y22860000D01*
X7620000Y19685000D02*
X7620000Y17145000D01*
X38100000Y41910000D02*
X44450000Y41910000D01*
X53975000Y53975000D02*
X55880000Y53975000D01*
X7620000Y15875000D02*
X7620000Y6985000D01*
X7620000Y6985000D02*
X7620000Y6985000D01*
X52070000Y49530000D02*
X52705000Y50165000D01*
X59690000Y52705000D02*
X58420000Y51435000D01*
X45720000Y40640000D02*
X52070000Y46990000D01*
X52070000Y46990000D02*
X52070000Y48260000D01*
X12065000Y21590000D02*
X11430000Y20955000D01*
X31750000Y40640000D02*
X31115000Y40640000D01*
X39370000Y40640000D02*
X31750000Y40640000D01*
X31115000Y40640000D02*
X14605000Y24130000D01*
X12065000Y21590000D02*
X14605000Y24130000D01*
X39370000Y40640000D02*
X45720000Y40640000D01*
X53975000Y51435000D02*
X58420000Y51435000D01*
X52705000Y50165000D02*
X53975000Y51435000D01*
X52070000Y48260000D02*
X52070000Y49530000D01*
X8890000Y15875000D02*
X8255000Y15240000D01*
X8890000Y15875000D02*
X10160000Y17145000D01*
X10160000Y20955000D02*
X10160000Y17145000D01*
X45085000Y41275000D02*
X51435000Y47625000D01*
X51435000Y47625000D02*
X51435000Y50165000D01*
X53975000Y52705000D02*
X51435000Y50165000D01*
X11430000Y22225000D02*
X10160000Y20955000D01*
X38735000Y41275000D02*
X30480000Y41275000D01*
X30480000Y41275000D02*
X21590000Y32385000D01*
X21590000Y32385000D02*
X11430000Y22225000D01*
X38735000Y41275000D02*
X45085000Y41275000D01*
X8890000Y4445000D02*
X8890000Y3175000D01*
X8255000Y5080000D02*
X8890000Y4445000D01*
X8255000Y15240000D02*
X8255000Y5080000D01*
X53975000Y52705000D02*
X54610000Y52705000D01*
X52705000Y47625000D02*
X52705000Y48260000D01*
X53975000Y48895000D02*
X55880000Y48895000D01*
X40005000Y40005000D02*
X46355000Y40005000D01*
X38735000Y40005000D02*
X40005000Y40005000D01*
X12700000Y20955000D02*
X23494301Y31749301D01*
X31751398Y40005000D02*
X23495699Y31749301D01*
X38735000Y40005000D02*
X31751398Y40005000D01*
X23495699Y31749301D02*
X23494301Y31749301D01*
X52705000Y46355000D02*
X52705000Y47625000D01*
X46355000Y40005000D02*
X52705000Y46355000D01*
X55880000Y48895000D02*
X57150000Y50165000D01*
X53340000Y48895000D02*
X53975000Y48895000D01*
X52705000Y48260000D02*
X53340000Y48895000D01*
X27305000Y26670000D02*
X27940000Y27305000D01*
X32385000Y27305000D02*
X33655000Y26035000D01*
X22225000Y21590000D02*
X27305000Y26670000D01*
X22225000Y20320000D02*
X22225000Y21590000D01*
X27940000Y27305000D02*
X32385000Y27305000D01*
X18415000Y6985000D02*
X18415000Y5080000D01*
X18415000Y16510000D02*
X18415000Y6985000D01*
X17780000Y22225000D02*
X17780000Y21590000D01*
X17780000Y19685000D02*
X17780000Y20320000D01*
X17780000Y21590000D02*
X17780000Y20955000D01*
X17780000Y20320000D02*
X17780000Y20955000D01*
X24765000Y29210000D02*
X25400000Y29845000D01*
X22860000Y27305000D02*
X24130000Y28575000D01*
X24130000Y28575000D02*
X24765000Y29210000D01*
X25400000Y29845000D02*
X27305000Y29845000D01*
X22860000Y27305000D02*
X17780000Y22225000D01*
X17780000Y17145000D02*
X17780000Y19685000D01*
X17780000Y17145000D02*
X18415000Y16510000D01*
X18415000Y5080000D02*
X16510000Y3175000D01*
X19050000Y3175000D02*
X19050000Y15875000D01*
X20320000Y22225000D02*
X24765000Y26670000D01*
X20320000Y19685000D02*
X20320000Y21590000D01*
X20320000Y21590000D02*
X20320000Y22225000D01*
X20320000Y17145000D02*
X20320000Y19685000D01*
X19050000Y15875000D02*
X20320000Y17145000D01*
X22860000Y17145000D02*
X23495000Y16510000D01*
X25400000Y22225000D02*
X22860000Y19685000D01*
X22860000Y19685000D02*
X22860000Y17145000D01*
X23495000Y5080000D02*
X23495000Y15240000D01*
X23495000Y5080000D02*
X21590000Y3175000D01*
X23495000Y16510000D02*
X23495000Y15240000D01*
X25400000Y20955000D02*
X25400000Y17145000D01*
X24130000Y15875000D02*
X24130000Y3175000D01*
X25400000Y17145000D02*
X24130000Y15875000D01*
X29210000Y24765000D02*
X31750000Y24765000D01*
X30480000Y4445000D02*
X31750000Y3175000D01*
X30480000Y19685000D02*
X30480000Y4445000D01*
X29210000Y20955000D02*
X30480000Y19685000D01*
X26670000Y20955000D02*
X29210000Y20955000D01*
X33655000Y22860000D02*
X33655000Y21590000D01*
X29210000Y26035000D02*
X31750000Y26035000D01*
X31750000Y26035000D02*
X33655000Y24130000D01*
X33655000Y24130000D02*
X33655000Y22860000D01*
X41275000Y27940000D02*
X43815000Y27940000D01*
D17*
G36*
X21300312Y16965252D02*
X21877157Y16964749D01*
X22194751Y17095976D01*
X22236381Y16886688D01*
X22382703Y16667703D01*
X22820000Y16230406D01*
X22820000Y5359594D01*
X22024869Y4564463D01*
X21879688Y4624748D01*
X21302843Y4625251D01*
X20769714Y4404967D01*
X20361467Y3997431D01*
X20320172Y3897982D01*
X20279967Y3995286D01*
X19872431Y4403533D01*
X19725000Y4464752D01*
X19725000Y15595406D01*
X20797297Y16667703D01*
X20943619Y16886688D01*
X20985267Y17096070D01*
X21300312Y16965252D01*
X21300312Y16965252D01*
G37*
X21300312Y16965252D02*
X21877157Y16964749D01*
X22194751Y17095976D01*
X22236381Y16886688D01*
X22382703Y16667703D01*
X22820000Y16230406D01*
X22820000Y5359594D01*
X22024869Y4564463D01*
X21879688Y4624748D01*
X21302843Y4625251D01*
X20769714Y4404967D01*
X20361467Y3997431D01*
X20320172Y3897982D01*
X20279967Y3995286D01*
X19872431Y4403533D01*
X19725000Y4464752D01*
X19725000Y15595406D01*
X20797297Y16667703D01*
X20943619Y16886688D01*
X20985267Y17096070D01*
X21300312Y16965252D01*
G36*
X38140033Y17594714D02*
X38547569Y17186467D01*
X39080312Y16965252D01*
X39657157Y16964749D01*
X39855000Y17046496D01*
X39855000Y4543647D01*
X39659688Y4624748D01*
X39082843Y4625251D01*
X38549714Y4404967D01*
X38141467Y3997431D01*
X38100172Y3897982D01*
X38059967Y3995286D01*
X37652431Y4403533D01*
X37119688Y4624748D01*
X36542843Y4625251D01*
X36009714Y4404967D01*
X35601467Y3997431D01*
X35560172Y3897982D01*
X35519967Y3995286D01*
X35112431Y4403533D01*
X34579688Y4624748D01*
X34002843Y4625251D01*
X33469714Y4404967D01*
X33061467Y3997431D01*
X33020172Y3897982D01*
X32979967Y3995286D01*
X32572431Y4403533D01*
X32039688Y4624748D01*
X31462843Y4625251D01*
X31315305Y4564289D01*
X31155000Y4724594D01*
X31155000Y17092029D01*
X31460312Y16965252D01*
X32037157Y16964749D01*
X32570286Y17185033D01*
X32978533Y17592569D01*
X33019828Y17692018D01*
X33060033Y17594714D01*
X33467569Y17186467D01*
X34000312Y16965252D01*
X34577157Y16964749D01*
X35110286Y17185033D01*
X35518533Y17592569D01*
X35559828Y17692018D01*
X35600033Y17594714D01*
X36007569Y17186467D01*
X36540312Y16965252D01*
X37117157Y16964749D01*
X37650286Y17185033D01*
X38058533Y17592569D01*
X38099828Y17692018D01*
X38140033Y17594714D01*
X38140033Y17594714D01*
G37*
X38140033Y17594714D02*
X38547569Y17186467D01*
X39080312Y16965252D01*
X39657157Y16964749D01*
X39855000Y17046496D01*
X39855000Y4543647D01*
X39659688Y4624748D01*
X39082843Y4625251D01*
X38549714Y4404967D01*
X38141467Y3997431D01*
X38100172Y3897982D01*
X38059967Y3995286D01*
X37652431Y4403533D01*
X37119688Y4624748D01*
X36542843Y4625251D01*
X36009714Y4404967D01*
X35601467Y3997431D01*
X35560172Y3897982D01*
X35519967Y3995286D01*
X35112431Y4403533D01*
X34579688Y4624748D01*
X34002843Y4625251D01*
X33469714Y4404967D01*
X33061467Y3997431D01*
X33020172Y3897982D01*
X32979967Y3995286D01*
X32572431Y4403533D01*
X32039688Y4624748D01*
X31462843Y4625251D01*
X31315305Y4564289D01*
X31155000Y4724594D01*
X31155000Y17092029D01*
X31460312Y16965252D01*
X32037157Y16964749D01*
X32570286Y17185033D01*
X32978533Y17592569D01*
X33019828Y17692018D01*
X33060033Y17594714D01*
X33467569Y17186467D01*
X34000312Y16965252D01*
X34577157Y16964749D01*
X35110286Y17185033D01*
X35518533Y17592569D01*
X35559828Y17692018D01*
X35600033Y17594714D01*
X36007569Y17186467D01*
X36540312Y16965252D01*
X37117157Y16964749D01*
X37650286Y17185033D01*
X38058533Y17592569D01*
X38099828Y17692018D01*
X38140033Y17594714D01*
G36*
X27980033Y17594714D02*
X28387569Y17186467D01*
X28920312Y16965252D01*
X29497157Y16964749D01*
X29805000Y17091947D01*
X29805000Y4497971D01*
X29499688Y4624748D01*
X28922843Y4625251D01*
X28389714Y4404967D01*
X27981467Y3997431D01*
X27940172Y3897982D01*
X27899967Y3995286D01*
X27492431Y4403533D01*
X26959688Y4624748D01*
X26382843Y4625251D01*
X25849714Y4404967D01*
X25441467Y3997431D01*
X25400172Y3897982D01*
X25359967Y3995286D01*
X24952431Y4403533D01*
X24805000Y4464752D01*
X24805000Y15595406D01*
X25877297Y16667703D01*
X26023619Y16886688D01*
X26065267Y17096070D01*
X26380312Y16965252D01*
X26957157Y16964749D01*
X27490286Y17185033D01*
X27898533Y17592569D01*
X27939828Y17692018D01*
X27980033Y17594714D01*
X27980033Y17594714D01*
G37*
X27980033Y17594714D02*
X28387569Y17186467D01*
X28920312Y16965252D01*
X29497157Y16964749D01*
X29805000Y17091947D01*
X29805000Y4497971D01*
X29499688Y4624748D01*
X28922843Y4625251D01*
X28389714Y4404967D01*
X27981467Y3997431D01*
X27940172Y3897982D01*
X27899967Y3995286D01*
X27492431Y4403533D01*
X26959688Y4624748D01*
X26382843Y4625251D01*
X25849714Y4404967D01*
X25441467Y3997431D01*
X25400172Y3897982D01*
X25359967Y3995286D01*
X24952431Y4403533D01*
X24805000Y4464752D01*
X24805000Y15595406D01*
X25877297Y16667703D01*
X26023619Y16886688D01*
X26065267Y17096070D01*
X26380312Y16965252D01*
X26957157Y16964749D01*
X27490286Y17185033D01*
X27898533Y17592569D01*
X27939828Y17692018D01*
X27980033Y17594714D01*
G36*
X15280033Y17594714D02*
X15687569Y17186467D01*
X16220312Y16965252D01*
X16797157Y16964749D01*
X17114751Y17095976D01*
X17156381Y16886688D01*
X17302703Y16667703D01*
X17740000Y16230406D01*
X17740000Y5359594D01*
X16944869Y4564463D01*
X16799688Y4624748D01*
X16222843Y4625251D01*
X15689714Y4404967D01*
X15281467Y3997431D01*
X15240172Y3897982D01*
X15199967Y3995286D01*
X14792431Y4403533D01*
X14259688Y4624748D01*
X13682843Y4625251D01*
X13149714Y4404967D01*
X12741467Y3997431D01*
X12700172Y3897982D01*
X12659967Y3995286D01*
X12252431Y4403533D01*
X11719688Y4624748D01*
X11142843Y4625251D01*
X10609714Y4404967D01*
X10201467Y3997431D01*
X10160172Y3897982D01*
X10119967Y3995286D01*
X9712431Y4403533D01*
X9560717Y4466530D01*
X9513619Y4703311D01*
X9367297Y4922297D01*
X8930000Y5359594D01*
X8930000Y14960406D01*
X10637297Y16667703D01*
X10783619Y16886688D01*
X10825267Y17096070D01*
X11140312Y16965252D01*
X11717157Y16964749D01*
X12250286Y17185033D01*
X12658533Y17592569D01*
X12699828Y17692018D01*
X12740033Y17594714D01*
X13147569Y17186467D01*
X13680312Y16965252D01*
X14257157Y16964749D01*
X14790286Y17185033D01*
X15198533Y17592569D01*
X15239828Y17692018D01*
X15280033Y17594714D01*
X15280033Y17594714D01*
G37*
X15280033Y17594714D02*
X15687569Y17186467D01*
X16220312Y16965252D01*
X16797157Y16964749D01*
X17114751Y17095976D01*
X17156381Y16886688D01*
X17302703Y16667703D01*
X17740000Y16230406D01*
X17740000Y5359594D01*
X16944869Y4564463D01*
X16799688Y4624748D01*
X16222843Y4625251D01*
X15689714Y4404967D01*
X15281467Y3997431D01*
X15240172Y3897982D01*
X15199967Y3995286D01*
X14792431Y4403533D01*
X14259688Y4624748D01*
X13682843Y4625251D01*
X13149714Y4404967D01*
X12741467Y3997431D01*
X12700172Y3897982D01*
X12659967Y3995286D01*
X12252431Y4403533D01*
X11719688Y4624748D01*
X11142843Y4625251D01*
X10609714Y4404967D01*
X10201467Y3997431D01*
X10160172Y3897982D01*
X10119967Y3995286D01*
X9712431Y4403533D01*
X9560717Y4466530D01*
X9513619Y4703311D01*
X9367297Y4922297D01*
X8930000Y5359594D01*
X8930000Y14960406D01*
X10637297Y16667703D01*
X10783619Y16886688D01*
X10825267Y17096070D01*
X11140312Y16965252D01*
X11717157Y16964749D01*
X12250286Y17185033D01*
X12658533Y17592569D01*
X12699828Y17692018D01*
X12740033Y17594714D01*
X13147569Y17186467D01*
X13680312Y16965252D01*
X14257157Y16964749D01*
X14790286Y17185033D01*
X15198533Y17592569D01*
X15239828Y17692018D01*
X15280033Y17594714D01*
G36*
X1865000Y4497971D02*
X1559688Y4624748D01*
X982843Y4625251D01*
X785000Y4543504D01*
X785000Y16932336D01*
X1001089Y16849403D01*
X1620686Y16865669D01*
X1865000Y16966868D01*
X1865000Y4497971D01*
X1865000Y4497971D01*
G37*
X1865000Y4497971D02*
X1559688Y4624748D01*
X982843Y4625251D01*
X785000Y4543504D01*
X785000Y16932336D01*
X1001089Y16849403D01*
X1620686Y16865669D01*
X1865000Y16966868D01*
X1865000Y4497971D01*
G36*
X5120033Y17594714D02*
X5527569Y17186467D01*
X6060312Y16965252D01*
X6637157Y16964749D01*
X6945000Y17091947D01*
X6945000Y7264594D01*
X4244869Y4564463D01*
X4099688Y4624748D01*
X3522843Y4625251D01*
X3215000Y4498053D01*
X3215000Y17092029D01*
X3520312Y16965252D01*
X4097157Y16964749D01*
X4630286Y17185033D01*
X5038533Y17592569D01*
X5079828Y17692018D01*
X5120033Y17594714D01*
X5120033Y17594714D01*
G37*
X5120033Y17594714D02*
X5527569Y17186467D01*
X6060312Y16965252D01*
X6637157Y16964749D01*
X6945000Y17091947D01*
X6945000Y7264594D01*
X4244869Y4564463D01*
X4099688Y4624748D01*
X3522843Y4625251D01*
X3215000Y4498053D01*
X3215000Y17092029D01*
X3520312Y16965252D01*
X4097157Y16964749D01*
X4630286Y17185033D01*
X5038533Y17592569D01*
X5079828Y17692018D01*
X5120033Y17594714D01*
G36*
X1431221Y18429142D02*
X1417078Y18415000D01*
X1431221Y18400857D01*
X1284143Y18253779D01*
X1270000Y18267922D01*
X1255858Y18253779D01*
X1108780Y18400857D01*
X1122922Y18415000D01*
X1108780Y18429142D01*
X1255858Y18576220D01*
X1270000Y18562078D01*
X1284143Y18576220D01*
X1431221Y18429142D01*
X1431221Y18429142D01*
G37*
X1431221Y18429142D02*
X1417078Y18415000D01*
X1431221Y18400857D01*
X1284143Y18253779D01*
X1270000Y18267922D01*
X1255858Y18253779D01*
X1108780Y18400857D01*
X1122922Y18415000D01*
X1108780Y18429142D01*
X1255858Y18576220D01*
X1270000Y18562078D01*
X1284143Y18576220D01*
X1431221Y18429142D01*
G36*
X63985000Y24915000D02*
X40005000Y24915000D01*
X39946642Y24903182D01*
X39897479Y24869591D01*
X39865258Y24819519D01*
X39855000Y24765000D01*
X39855000Y19783647D01*
X39659688Y19864748D01*
X39082843Y19865251D01*
X38549714Y19644967D01*
X38141467Y19237431D01*
X38100172Y19137982D01*
X38059967Y19235286D01*
X37652431Y19643533D01*
X37119688Y19864748D01*
X36542843Y19865251D01*
X36395305Y19804289D01*
X35402297Y20797297D01*
X35183312Y20943619D01*
X34925000Y20995000D01*
X34332865Y20995000D01*
X34417538Y21079525D01*
X34554843Y21410194D01*
X34555156Y21768236D01*
X34418428Y22099143D01*
X34330000Y22187726D01*
X34330000Y24130000D01*
X34278619Y24388311D01*
X34278619Y24388312D01*
X34132297Y24607297D01*
X33604550Y25135044D01*
X33833236Y25134844D01*
X34164143Y25271572D01*
X34417538Y25524525D01*
X34554843Y25855194D01*
X34555156Y26213236D01*
X34418428Y26544143D01*
X34292793Y26669998D01*
X34417538Y26794525D01*
X34554843Y27125194D01*
X34555156Y27483236D01*
X34418428Y27814143D01*
X34292793Y27939998D01*
X34417538Y28064525D01*
X34554843Y28395194D01*
X34555156Y28753236D01*
X34418428Y29084143D01*
X34332721Y29170000D01*
X40995406Y29170000D01*
X41325450Y28839956D01*
X41096764Y28840156D01*
X40765857Y28703428D01*
X40512462Y28450475D01*
X40375157Y28119806D01*
X40374844Y27761764D01*
X40511572Y27430857D01*
X40764525Y27177462D01*
X41095194Y27040157D01*
X41453236Y27039844D01*
X41784143Y27176572D01*
X41872726Y27265000D01*
X43217140Y27265000D01*
X43304525Y27177462D01*
X43635194Y27040157D01*
X43993236Y27039844D01*
X44324143Y27176572D01*
X44577538Y27429525D01*
X44714843Y27760194D01*
X44715156Y28118236D01*
X44578428Y28449143D01*
X44492721Y28535000D01*
X46392140Y28535000D01*
X46479525Y28447462D01*
X46810194Y28310157D01*
X47168236Y28309844D01*
X47499143Y28446572D01*
X47752538Y28699525D01*
X47889843Y29030194D01*
X47890156Y29388236D01*
X47753428Y29719143D01*
X47500475Y29972538D01*
X47169806Y30109843D01*
X46811764Y30110156D01*
X46480857Y29973428D01*
X46392274Y29885000D01*
X42587865Y29885000D01*
X42672538Y29969525D01*
X42809843Y30300194D01*
X42810156Y30658236D01*
X42673428Y30989143D01*
X42420475Y31242538D01*
X42089806Y31379843D01*
X41731764Y31380156D01*
X41400857Y31243428D01*
X41312274Y31155000D01*
X30124594Y31155000D01*
X29052297Y32227297D01*
X28833312Y32373619D01*
X28575000Y32425000D01*
X25125992Y32425000D01*
X32030992Y39330000D01*
X46355000Y39330000D01*
X46613312Y39381381D01*
X46832297Y39527703D01*
X53182297Y45877703D01*
X53328619Y46096688D01*
X53380000Y46355000D01*
X53380000Y46804794D01*
X53380033Y46804714D01*
X53787569Y46396467D01*
X54320312Y46175252D01*
X54897157Y46174749D01*
X55430286Y46395033D01*
X55838533Y46802569D01*
X55879828Y46902018D01*
X55920033Y46804714D01*
X56327569Y46396467D01*
X56860312Y46175252D01*
X57437157Y46174749D01*
X57970286Y46395033D01*
X58122732Y46547214D01*
X58759292Y46547214D01*
X58842431Y46281486D01*
X59421089Y46059403D01*
X60040686Y46075669D01*
X60537569Y46281486D01*
X60620708Y46547214D01*
X59690000Y47477922D01*
X58759292Y46547214D01*
X58122732Y46547214D01*
X58351713Y46775796D01*
X58612214Y46694292D01*
X59542922Y47625000D01*
X59837078Y47625000D01*
X60767786Y46694292D01*
X61033514Y46777431D01*
X61255597Y47356089D01*
X61239331Y47975686D01*
X61033514Y48472569D01*
X60767786Y48555708D01*
X59837078Y47625000D01*
X59542922Y47625000D01*
X58612214Y48555708D01*
X58351245Y48474058D01*
X57972431Y48853533D01*
X57872982Y48894828D01*
X57970286Y48935033D01*
X58378533Y49342569D01*
X58419828Y49442018D01*
X58460033Y49344714D01*
X58840796Y48963287D01*
X58759292Y48702786D01*
X59690000Y47772078D01*
X60620708Y48702786D01*
X60539058Y48963755D01*
X60918533Y49342569D01*
X61139748Y49875312D01*
X61140251Y50452157D01*
X60919967Y50985286D01*
X60512431Y51393533D01*
X60412982Y51434828D01*
X60510286Y51475033D01*
X60918533Y51882569D01*
X61139748Y52415312D01*
X61140251Y52992157D01*
X60919967Y53525286D01*
X60512431Y53933533D01*
X60412982Y53974828D01*
X60510286Y54015033D01*
X60918533Y54422569D01*
X61139748Y54955312D01*
X61140251Y55532157D01*
X60919967Y56065286D01*
X60512431Y56473533D01*
X60412982Y56514828D01*
X60510286Y56555033D01*
X60918533Y56962569D01*
X61139748Y57495312D01*
X61140251Y58072157D01*
X60919967Y58605286D01*
X60512431Y59013533D01*
X60412982Y59054828D01*
X60510286Y59095033D01*
X60918533Y59502569D01*
X61139748Y60035312D01*
X61140251Y60612157D01*
X60919967Y61145286D01*
X60512431Y61553533D01*
X60412982Y61594828D01*
X60510286Y61635033D01*
X60918533Y62042569D01*
X61139748Y62575312D01*
X61140251Y63152157D01*
X60919967Y63685286D01*
X60512431Y64093533D01*
X60412982Y64134828D01*
X60510286Y64175033D01*
X60918533Y64582569D01*
X61139748Y65115312D01*
X61140251Y65692157D01*
X61058504Y65890000D01*
X63985000Y65890000D01*
X63985000Y24915000D01*
X63985000Y24915000D01*
G37*
X63985000Y24915000D02*
X40005000Y24915000D01*
X39946642Y24903182D01*
X39897479Y24869591D01*
X39865258Y24819519D01*
X39855000Y24765000D01*
X39855000Y19783647D01*
X39659688Y19864748D01*
X39082843Y19865251D01*
X38549714Y19644967D01*
X38141467Y19237431D01*
X38100172Y19137982D01*
X38059967Y19235286D01*
X37652431Y19643533D01*
X37119688Y19864748D01*
X36542843Y19865251D01*
X36395305Y19804289D01*
X35402297Y20797297D01*
X35183312Y20943619D01*
X34925000Y20995000D01*
X34332865Y20995000D01*
X34417538Y21079525D01*
X34554843Y21410194D01*
X34555156Y21768236D01*
X34418428Y22099143D01*
X34330000Y22187726D01*
X34330000Y24130000D01*
X34278619Y24388311D01*
X34278619Y24388312D01*
X34132297Y24607297D01*
X33604550Y25135044D01*
X33833236Y25134844D01*
X34164143Y25271572D01*
X34417538Y25524525D01*
X34554843Y25855194D01*
X34555156Y26213236D01*
X34418428Y26544143D01*
X34292793Y26669998D01*
X34417538Y26794525D01*
X34554843Y27125194D01*
X34555156Y27483236D01*
X34418428Y27814143D01*
X34292793Y27939998D01*
X34417538Y28064525D01*
X34554843Y28395194D01*
X34555156Y28753236D01*
X34418428Y29084143D01*
X34332721Y29170000D01*
X40995406Y29170000D01*
X41325450Y28839956D01*
X41096764Y28840156D01*
X40765857Y28703428D01*
X40512462Y28450475D01*
X40375157Y28119806D01*
X40374844Y27761764D01*
X40511572Y27430857D01*
X40764525Y27177462D01*
X41095194Y27040157D01*
X41453236Y27039844D01*
X41784143Y27176572D01*
X41872726Y27265000D01*
X43217140Y27265000D01*
X43304525Y27177462D01*
X43635194Y27040157D01*
X43993236Y27039844D01*
X44324143Y27176572D01*
X44577538Y27429525D01*
X44714843Y27760194D01*
X44715156Y28118236D01*
X44578428Y28449143D01*
X44492721Y28535000D01*
X46392140Y28535000D01*
X46479525Y28447462D01*
X46810194Y28310157D01*
X47168236Y28309844D01*
X47499143Y28446572D01*
X47752538Y28699525D01*
X47889843Y29030194D01*
X47890156Y29388236D01*
X47753428Y29719143D01*
X47500475Y29972538D01*
X47169806Y30109843D01*
X46811764Y30110156D01*
X46480857Y29973428D01*
X46392274Y29885000D01*
X42587865Y29885000D01*
X42672538Y29969525D01*
X42809843Y30300194D01*
X42810156Y30658236D01*
X42673428Y30989143D01*
X42420475Y31242538D01*
X42089806Y31379843D01*
X41731764Y31380156D01*
X41400857Y31243428D01*
X41312274Y31155000D01*
X30124594Y31155000D01*
X29052297Y32227297D01*
X28833312Y32373619D01*
X28575000Y32425000D01*
X25125992Y32425000D01*
X32030992Y39330000D01*
X46355000Y39330000D01*
X46613312Y39381381D01*
X46832297Y39527703D01*
X53182297Y45877703D01*
X53328619Y46096688D01*
X53380000Y46355000D01*
X53380000Y46804794D01*
X53380033Y46804714D01*
X53787569Y46396467D01*
X54320312Y46175252D01*
X54897157Y46174749D01*
X55430286Y46395033D01*
X55838533Y46802569D01*
X55879828Y46902018D01*
X55920033Y46804714D01*
X56327569Y46396467D01*
X56860312Y46175252D01*
X57437157Y46174749D01*
X57970286Y46395033D01*
X58122732Y46547214D01*
X58759292Y46547214D01*
X58842431Y46281486D01*
X59421089Y46059403D01*
X60040686Y46075669D01*
X60537569Y46281486D01*
X60620708Y46547214D01*
X59690000Y47477922D01*
X58759292Y46547214D01*
X58122732Y46547214D01*
X58351713Y46775796D01*
X58612214Y46694292D01*
X59542922Y47625000D01*
X59837078Y47625000D01*
X60767786Y46694292D01*
X61033514Y46777431D01*
X61255597Y47356089D01*
X61239331Y47975686D01*
X61033514Y48472569D01*
X60767786Y48555708D01*
X59837078Y47625000D01*
X59542922Y47625000D01*
X58612214Y48555708D01*
X58351245Y48474058D01*
X57972431Y48853533D01*
X57872982Y48894828D01*
X57970286Y48935033D01*
X58378533Y49342569D01*
X58419828Y49442018D01*
X58460033Y49344714D01*
X58840796Y48963287D01*
X58759292Y48702786D01*
X59690000Y47772078D01*
X60620708Y48702786D01*
X60539058Y48963755D01*
X60918533Y49342569D01*
X61139748Y49875312D01*
X61140251Y50452157D01*
X60919967Y50985286D01*
X60512431Y51393533D01*
X60412982Y51434828D01*
X60510286Y51475033D01*
X60918533Y51882569D01*
X61139748Y52415312D01*
X61140251Y52992157D01*
X60919967Y53525286D01*
X60512431Y53933533D01*
X60412982Y53974828D01*
X60510286Y54015033D01*
X60918533Y54422569D01*
X61139748Y54955312D01*
X61140251Y55532157D01*
X60919967Y56065286D01*
X60512431Y56473533D01*
X60412982Y56514828D01*
X60510286Y56555033D01*
X60918533Y56962569D01*
X61139748Y57495312D01*
X61140251Y58072157D01*
X60919967Y58605286D01*
X60512431Y59013533D01*
X60412982Y59054828D01*
X60510286Y59095033D01*
X60918533Y59502569D01*
X61139748Y60035312D01*
X61140251Y60612157D01*
X60919967Y61145286D01*
X60512431Y61553533D01*
X60412982Y61594828D01*
X60510286Y61635033D01*
X60918533Y62042569D01*
X61139748Y62575312D01*
X61140251Y63152157D01*
X60919967Y63685286D01*
X60512431Y64093533D01*
X60412982Y64134828D01*
X60510286Y64175033D01*
X60918533Y64582569D01*
X61139748Y65115312D01*
X61140251Y65692157D01*
X61058504Y65890000D01*
X63985000Y65890000D01*
X63985000Y24915000D01*
G36*
X17600252Y65694688D02*
X17599749Y65117843D01*
X17820033Y64584714D01*
X18227569Y64176467D01*
X18327018Y64135172D01*
X18229714Y64094967D01*
X17821467Y63687431D01*
X17600252Y63154688D01*
X17599749Y62577843D01*
X17820033Y62044714D01*
X18227569Y61636467D01*
X18327018Y61595172D01*
X18229714Y61554967D01*
X17821467Y61147431D01*
X17600252Y60614688D01*
X17599749Y60037843D01*
X17820033Y59504714D01*
X18227569Y59096467D01*
X18327018Y59055172D01*
X18229714Y59014967D01*
X17821467Y58607431D01*
X17600252Y58074688D01*
X17599749Y57497843D01*
X17820033Y56964714D01*
X18227569Y56556467D01*
X18327018Y56515172D01*
X18229714Y56474967D01*
X17821467Y56067431D01*
X17760248Y55920000D01*
X15273510Y55920000D01*
X15143835Y56049902D01*
X14794796Y56194835D01*
X14416862Y56195165D01*
X14067571Y56050841D01*
X13800098Y55783835D01*
X13655165Y55434796D01*
X13654835Y55056862D01*
X13799159Y54707571D01*
X14066165Y54440098D01*
X14415204Y54295165D01*
X14793138Y54294835D01*
X15142429Y54439159D01*
X15273499Y54570000D01*
X17760002Y54570000D01*
X17820033Y54424714D01*
X18227569Y54016467D01*
X18327018Y53975172D01*
X18229714Y53934967D01*
X17821467Y53527431D01*
X17600252Y52994688D01*
X17599749Y52417843D01*
X17820033Y51884714D01*
X18227569Y51476467D01*
X18327018Y51435172D01*
X18229714Y51394967D01*
X17821467Y50987431D01*
X17600252Y50454688D01*
X17599749Y49877843D01*
X17820033Y49344714D01*
X18227569Y48936467D01*
X18327018Y48895172D01*
X18229714Y48854967D01*
X17821467Y48447431D01*
X17600252Y47914688D01*
X17599749Y47337843D01*
X17820033Y46804714D01*
X18227569Y46396467D01*
X18760312Y46175252D01*
X19337157Y46174749D01*
X19870286Y46395033D01*
X20278533Y46802569D01*
X20319828Y46902018D01*
X20360033Y46804714D01*
X20767569Y46396467D01*
X21300312Y46175252D01*
X21877157Y46174749D01*
X22410286Y46395033D01*
X22818533Y46802569D01*
X22859828Y46902018D01*
X22900033Y46804714D01*
X23307569Y46396467D01*
X23840312Y46175252D01*
X24417157Y46174749D01*
X24950286Y46395033D01*
X25358533Y46802569D01*
X25579748Y47335312D01*
X25580251Y47912157D01*
X25359967Y48445286D01*
X24952431Y48853533D01*
X24852982Y48894828D01*
X24950286Y48935033D01*
X25358533Y49342569D01*
X25579748Y49875312D01*
X25580251Y50452157D01*
X25359967Y50985286D01*
X24952431Y51393533D01*
X24852982Y51434828D01*
X24950286Y51475033D01*
X25358533Y51882569D01*
X25579748Y52415312D01*
X25580251Y52992157D01*
X25453053Y53300000D01*
X30517140Y53300000D01*
X30604525Y53212462D01*
X30935194Y53075157D01*
X31293236Y53074844D01*
X31624143Y53211572D01*
X31877538Y53464525D01*
X32014843Y53795194D01*
X32015156Y54153236D01*
X31878428Y54484143D01*
X31625475Y54737538D01*
X31294806Y54874843D01*
X30936764Y54875156D01*
X30605857Y54738428D01*
X30517274Y54650000D01*
X25452971Y54650000D01*
X25579748Y54955312D01*
X25580251Y55532157D01*
X25359967Y56065286D01*
X24952431Y56473533D01*
X24852982Y56514828D01*
X24950286Y56555033D01*
X25358533Y56962569D01*
X25579748Y57495312D01*
X25580251Y58072157D01*
X25359967Y58605286D01*
X24952431Y59013533D01*
X24852982Y59054828D01*
X24950286Y59095033D01*
X25358533Y59502569D01*
X25579748Y60035312D01*
X25580251Y60612157D01*
X25359967Y61145286D01*
X24952431Y61553533D01*
X24852982Y61594828D01*
X24950286Y61635033D01*
X25358533Y62042569D01*
X25579748Y62575312D01*
X25580251Y63152157D01*
X25359967Y63685286D01*
X24952431Y64093533D01*
X24852982Y64134828D01*
X24950286Y64175033D01*
X25358533Y64582569D01*
X25579748Y65115312D01*
X25580251Y65692157D01*
X25498504Y65890000D01*
X53127336Y65890000D01*
X53044403Y65673911D01*
X53060669Y65054314D01*
X53266486Y64557431D01*
X53532214Y64474292D01*
X54462922Y65405000D01*
X54448780Y65419142D01*
X54595858Y65566220D01*
X54610000Y65552078D01*
X54624143Y65566220D01*
X54771221Y65419142D01*
X54757078Y65405000D01*
X55687786Y64474292D01*
X55948755Y64555942D01*
X56327569Y64176467D01*
X56427018Y64135172D01*
X56329714Y64094967D01*
X55921467Y63687431D01*
X55880172Y63587982D01*
X55839967Y63685286D01*
X55459204Y64066713D01*
X55540708Y64327214D01*
X54610000Y65257922D01*
X53679292Y64327214D01*
X53760942Y64066245D01*
X53381467Y63687431D01*
X53160252Y63154688D01*
X53159749Y62577843D01*
X53380033Y62044714D01*
X53425037Y61999631D01*
X50322703Y58897297D01*
X50176381Y58678312D01*
X50176381Y58678311D01*
X50125000Y58420000D01*
X50125000Y56159594D01*
X49714581Y55749175D01*
X49700841Y55782429D01*
X49433835Y56049902D01*
X49084796Y56194835D01*
X48706862Y56195165D01*
X48357571Y56050841D01*
X48226501Y55920000D01*
X38735000Y55920000D01*
X38476688Y55868619D01*
X38257703Y55722297D01*
X35555411Y53020005D01*
X35371862Y53020165D01*
X35022571Y52875841D01*
X34755098Y52608835D01*
X34610165Y52259796D01*
X34609835Y51881862D01*
X34754159Y51532571D01*
X35021165Y51265098D01*
X35370204Y51120165D01*
X35748138Y51119835D01*
X36097429Y51264159D01*
X36364902Y51531165D01*
X36509835Y51880204D01*
X36509997Y52065403D01*
X39014594Y54570000D01*
X48226490Y54570000D01*
X48356165Y54440098D01*
X48391028Y54425622D01*
X47782703Y53817297D01*
X47636381Y53598312D01*
X47636381Y53598311D01*
X47585000Y53340000D01*
X47585000Y51079594D01*
X41630406Y45125000D01*
X27305000Y45125000D01*
X27046688Y45073619D01*
X26827703Y44927297D01*
X8835454Y26935048D01*
X8711764Y26935156D01*
X8380857Y26798428D01*
X8127462Y26545475D01*
X7990157Y26214806D01*
X7989844Y25856764D01*
X8126572Y25525857D01*
X8379525Y25272462D01*
X8424283Y25253877D01*
X3332703Y20162297D01*
X3215000Y19986143D01*
X3215000Y36016764D01*
X5449844Y36016764D01*
X5586572Y35685857D01*
X5839525Y35432462D01*
X6170194Y35295157D01*
X6528236Y35294844D01*
X6859143Y35431572D01*
X6947726Y35520000D01*
X12102140Y35520000D01*
X12189525Y35432462D01*
X12520194Y35295157D01*
X12878236Y35294844D01*
X13209143Y35431572D01*
X13462538Y35684525D01*
X13599843Y36015194D01*
X13600156Y36373236D01*
X13463428Y36704143D01*
X13210475Y36957538D01*
X12879806Y37094843D01*
X12521764Y37095156D01*
X12190857Y36958428D01*
X12102274Y36870000D01*
X6947860Y36870000D01*
X6860475Y36957538D01*
X6529806Y37094843D01*
X6171764Y37095156D01*
X5840857Y36958428D01*
X5587462Y36705475D01*
X5450157Y36374806D01*
X5449844Y36016764D01*
X3215000Y36016764D01*
X3215000Y44170406D01*
X9429676Y50385082D01*
X9732942Y50384818D01*
X10119000Y50544334D01*
X10414628Y50839446D01*
X10574818Y51225226D01*
X10575182Y51642942D01*
X10415666Y52029000D01*
X10120554Y52324628D01*
X9734774Y52484818D01*
X9317058Y52485182D01*
X8931000Y52325666D01*
X8635372Y52030554D01*
X8475182Y51644774D01*
X8474916Y51339510D01*
X2062703Y44927297D01*
X1916381Y44708312D01*
X1916381Y44708311D01*
X1865000Y44450000D01*
X1865000Y19855447D01*
X1538911Y19980597D01*
X919314Y19964331D01*
X785000Y19908696D01*
X785000Y59540000D01*
X14605000Y59540000D01*
X14663358Y59551818D01*
X14712521Y59585409D01*
X14744742Y59635481D01*
X14755000Y59690000D01*
X14755000Y65890000D01*
X17681353Y65890000D01*
X17600252Y65694688D01*
X17600252Y65694688D01*
G37*
X17600252Y65694688D02*
X17599749Y65117843D01*
X17820033Y64584714D01*
X18227569Y64176467D01*
X18327018Y64135172D01*
X18229714Y64094967D01*
X17821467Y63687431D01*
X17600252Y63154688D01*
X17599749Y62577843D01*
X17820033Y62044714D01*
X18227569Y61636467D01*
X18327018Y61595172D01*
X18229714Y61554967D01*
X17821467Y61147431D01*
X17600252Y60614688D01*
X17599749Y60037843D01*
X17820033Y59504714D01*
X18227569Y59096467D01*
X18327018Y59055172D01*
X18229714Y59014967D01*
X17821467Y58607431D01*
X17600252Y58074688D01*
X17599749Y57497843D01*
X17820033Y56964714D01*
X18227569Y56556467D01*
X18327018Y56515172D01*
X18229714Y56474967D01*
X17821467Y56067431D01*
X17760248Y55920000D01*
X15273510Y55920000D01*
X15143835Y56049902D01*
X14794796Y56194835D01*
X14416862Y56195165D01*
X14067571Y56050841D01*
X13800098Y55783835D01*
X13655165Y55434796D01*
X13654835Y55056862D01*
X13799159Y54707571D01*
X14066165Y54440098D01*
X14415204Y54295165D01*
X14793138Y54294835D01*
X15142429Y54439159D01*
X15273499Y54570000D01*
X17760002Y54570000D01*
X17820033Y54424714D01*
X18227569Y54016467D01*
X18327018Y53975172D01*
X18229714Y53934967D01*
X17821467Y53527431D01*
X17600252Y52994688D01*
X17599749Y52417843D01*
X17820033Y51884714D01*
X18227569Y51476467D01*
X18327018Y51435172D01*
X18229714Y51394967D01*
X17821467Y50987431D01*
X17600252Y50454688D01*
X17599749Y49877843D01*
X17820033Y49344714D01*
X18227569Y48936467D01*
X18327018Y48895172D01*
X18229714Y48854967D01*
X17821467Y48447431D01*
X17600252Y47914688D01*
X17599749Y47337843D01*
X17820033Y46804714D01*
X18227569Y46396467D01*
X18760312Y46175252D01*
X19337157Y46174749D01*
X19870286Y46395033D01*
X20278533Y46802569D01*
X20319828Y46902018D01*
X20360033Y46804714D01*
X20767569Y46396467D01*
X21300312Y46175252D01*
X21877157Y46174749D01*
X22410286Y46395033D01*
X22818533Y46802569D01*
X22859828Y46902018D01*
X22900033Y46804714D01*
X23307569Y46396467D01*
X23840312Y46175252D01*
X24417157Y46174749D01*
X24950286Y46395033D01*
X25358533Y46802569D01*
X25579748Y47335312D01*
X25580251Y47912157D01*
X25359967Y48445286D01*
X24952431Y48853533D01*
X24852982Y48894828D01*
X24950286Y48935033D01*
X25358533Y49342569D01*
X25579748Y49875312D01*
X25580251Y50452157D01*
X25359967Y50985286D01*
X24952431Y51393533D01*
X24852982Y51434828D01*
X24950286Y51475033D01*
X25358533Y51882569D01*
X25579748Y52415312D01*
X25580251Y52992157D01*
X25453053Y53300000D01*
X30517140Y53300000D01*
X30604525Y53212462D01*
X30935194Y53075157D01*
X31293236Y53074844D01*
X31624143Y53211572D01*
X31877538Y53464525D01*
X32014843Y53795194D01*
X32015156Y54153236D01*
X31878428Y54484143D01*
X31625475Y54737538D01*
X31294806Y54874843D01*
X30936764Y54875156D01*
X30605857Y54738428D01*
X30517274Y54650000D01*
X25452971Y54650000D01*
X25579748Y54955312D01*
X25580251Y55532157D01*
X25359967Y56065286D01*
X24952431Y56473533D01*
X24852982Y56514828D01*
X24950286Y56555033D01*
X25358533Y56962569D01*
X25579748Y57495312D01*
X25580251Y58072157D01*
X25359967Y58605286D01*
X24952431Y59013533D01*
X24852982Y59054828D01*
X24950286Y59095033D01*
X25358533Y59502569D01*
X25579748Y60035312D01*
X25580251Y60612157D01*
X25359967Y61145286D01*
X24952431Y61553533D01*
X24852982Y61594828D01*
X24950286Y61635033D01*
X25358533Y62042569D01*
X25579748Y62575312D01*
X25580251Y63152157D01*
X25359967Y63685286D01*
X24952431Y64093533D01*
X24852982Y64134828D01*
X24950286Y64175033D01*
X25358533Y64582569D01*
X25579748Y65115312D01*
X25580251Y65692157D01*
X25498504Y65890000D01*
X53127336Y65890000D01*
X53044403Y65673911D01*
X53060669Y65054314D01*
X53266486Y64557431D01*
X53532214Y64474292D01*
X54462922Y65405000D01*
X54448780Y65419142D01*
X54595858Y65566220D01*
X54610000Y65552078D01*
X54624143Y65566220D01*
X54771221Y65419142D01*
X54757078Y65405000D01*
X55687786Y64474292D01*
X55948755Y64555942D01*
X56327569Y64176467D01*
X56427018Y64135172D01*
X56329714Y64094967D01*
X55921467Y63687431D01*
X55880172Y63587982D01*
X55839967Y63685286D01*
X55459204Y64066713D01*
X55540708Y64327214D01*
X54610000Y65257922D01*
X53679292Y64327214D01*
X53760942Y64066245D01*
X53381467Y63687431D01*
X53160252Y63154688D01*
X53159749Y62577843D01*
X53380033Y62044714D01*
X53425037Y61999631D01*
X50322703Y58897297D01*
X50176381Y58678312D01*
X50176381Y58678311D01*
X50125000Y58420000D01*
X50125000Y56159594D01*
X49714581Y55749175D01*
X49700841Y55782429D01*
X49433835Y56049902D01*
X49084796Y56194835D01*
X48706862Y56195165D01*
X48357571Y56050841D01*
X48226501Y55920000D01*
X38735000Y55920000D01*
X38476688Y55868619D01*
X38257703Y55722297D01*
X35555411Y53020005D01*
X35371862Y53020165D01*
X35022571Y52875841D01*
X34755098Y52608835D01*
X34610165Y52259796D01*
X34609835Y51881862D01*
X34754159Y51532571D01*
X35021165Y51265098D01*
X35370204Y51120165D01*
X35748138Y51119835D01*
X36097429Y51264159D01*
X36364902Y51531165D01*
X36509835Y51880204D01*
X36509997Y52065403D01*
X39014594Y54570000D01*
X48226490Y54570000D01*
X48356165Y54440098D01*
X48391028Y54425622D01*
X47782703Y53817297D01*
X47636381Y53598312D01*
X47636381Y53598311D01*
X47585000Y53340000D01*
X47585000Y51079594D01*
X41630406Y45125000D01*
X27305000Y45125000D01*
X27046688Y45073619D01*
X26827703Y44927297D01*
X8835454Y26935048D01*
X8711764Y26935156D01*
X8380857Y26798428D01*
X8127462Y26545475D01*
X7990157Y26214806D01*
X7989844Y25856764D01*
X8126572Y25525857D01*
X8379525Y25272462D01*
X8424283Y25253877D01*
X3332703Y20162297D01*
X3215000Y19986143D01*
X3215000Y36016764D01*
X5449844Y36016764D01*
X5586572Y35685857D01*
X5839525Y35432462D01*
X6170194Y35295157D01*
X6528236Y35294844D01*
X6859143Y35431572D01*
X6947726Y35520000D01*
X12102140Y35520000D01*
X12189525Y35432462D01*
X12520194Y35295157D01*
X12878236Y35294844D01*
X13209143Y35431572D01*
X13462538Y35684525D01*
X13599843Y36015194D01*
X13600156Y36373236D01*
X13463428Y36704143D01*
X13210475Y36957538D01*
X12879806Y37094843D01*
X12521764Y37095156D01*
X12190857Y36958428D01*
X12102274Y36870000D01*
X6947860Y36870000D01*
X6860475Y36957538D01*
X6529806Y37094843D01*
X6171764Y37095156D01*
X5840857Y36958428D01*
X5587462Y36705475D01*
X5450157Y36374806D01*
X5449844Y36016764D01*
X3215000Y36016764D01*
X3215000Y44170406D01*
X9429676Y50385082D01*
X9732942Y50384818D01*
X10119000Y50544334D01*
X10414628Y50839446D01*
X10574818Y51225226D01*
X10575182Y51642942D01*
X10415666Y52029000D01*
X10120554Y52324628D01*
X9734774Y52484818D01*
X9317058Y52485182D01*
X8931000Y52325666D01*
X8635372Y52030554D01*
X8475182Y51644774D01*
X8474916Y51339510D01*
X2062703Y44927297D01*
X1916381Y44708312D01*
X1916381Y44708311D01*
X1865000Y44450000D01*
X1865000Y19855447D01*
X1538911Y19980597D01*
X919314Y19964331D01*
X785000Y19908696D01*
X785000Y59540000D01*
X14605000Y59540000D01*
X14663358Y59551818D01*
X14712521Y59585409D01*
X14744742Y59635481D01*
X14755000Y59690000D01*
X14755000Y65890000D01*
X17681353Y65890000D01*
X17600252Y65694688D01*
M02*
