%FSLAX45Y45*%
G04 Gerber Fmt 4.5, Leading zero omitted, Abs format (unit mm)*
G04 Created by KiCad (PCBNEW 4.0.7) date 02/11/20 08:44:00*
%MOMM*%
%LPD*%
G01*
G04 APERTURE LIST*
%ADD10C,0.127000*%
%ADD11C,0.150000*%
%ADD12C,0.200000*%
%ADD13C,0.300000*%
G04 APERTURE END LIST*
D10*
D11*
X4064000Y0D02*
X4064000Y63500D01*
X0Y0D02*
X4064000Y0D01*
X0Y63500D02*
X0Y0D01*
X0Y6032500D02*
X0Y63500D01*
X1397000Y6032500D02*
X0Y6032500D01*
X1397000Y6731000D02*
X1397000Y6032500D01*
X6477000Y6731000D02*
X1397000Y6731000D01*
X6477000Y2413000D02*
X6477000Y6731000D01*
X4064000Y2413000D02*
X6477000Y2413000D01*
X4064000Y63500D02*
X4064000Y2413000D01*
D12*
X102000Y1485500D02*
X152000Y1435500D01*
X152000Y1485500D02*
X102000Y1435500D01*
X102000Y850500D02*
X152000Y800500D01*
X152000Y850500D02*
X102000Y800500D01*
X356000Y1358500D02*
X406000Y1308500D01*
X406000Y1358500D02*
X356000Y1308500D01*
X356000Y977500D02*
X406000Y927500D01*
X406000Y977500D02*
X356000Y927500D01*
X419500Y4406500D02*
X469500Y4356500D01*
X469500Y4406500D02*
X419500Y4356500D01*
X419500Y2692000D02*
X469500Y2642000D01*
X469500Y2692000D02*
X419500Y2642000D01*
X483000Y3136500D02*
X533000Y3086500D01*
X533000Y3136500D02*
X483000Y3086500D01*
X483000Y2374500D02*
X533000Y2324500D01*
X533000Y2374500D02*
X483000Y2324500D01*
X610000Y3644500D02*
X660000Y3594500D01*
X660000Y3644500D02*
X610000Y3594500D01*
X610000Y1422000D02*
X660000Y1372000D01*
X660000Y1422000D02*
X610000Y1372000D01*
X610000Y914000D02*
X660000Y864000D01*
X660000Y914000D02*
X610000Y864000D01*
X673500Y4660500D02*
X723500Y4610500D01*
X723500Y4660500D02*
X673500Y4610500D01*
X673500Y2946000D02*
X723500Y2896000D01*
X723500Y2946000D02*
X673500Y2896000D01*
X737000Y2120500D02*
X787000Y2070500D01*
X787000Y2120500D02*
X737000Y2070500D01*
X864000Y4660500D02*
X914000Y4610500D01*
X914000Y4660500D02*
X864000Y4610500D01*
X864000Y2628500D02*
X914000Y2578500D01*
X914000Y2628500D02*
X864000Y2578500D01*
X927500Y1358500D02*
X977500Y1308500D01*
X977500Y1358500D02*
X927500Y1308500D01*
X927500Y977500D02*
X977500Y927500D01*
X977500Y977500D02*
X927500Y927500D01*
X991000Y5867000D02*
X1041000Y5817000D01*
X1041000Y5867000D02*
X991000Y5817000D01*
X1054500Y3962000D02*
X1104500Y3912000D01*
X1104500Y3962000D02*
X1054500Y3912000D01*
X1118000Y2120500D02*
X1168000Y2070500D01*
X1168000Y2120500D02*
X1118000Y2070500D01*
X1245000Y3644500D02*
X1295000Y3594500D01*
X1295000Y3644500D02*
X1245000Y3594500D01*
X1245000Y2120500D02*
X1295000Y2070500D01*
X1295000Y2120500D02*
X1245000Y2070500D01*
X1308500Y1549000D02*
X1358500Y1499000D01*
X1358500Y1549000D02*
X1308500Y1499000D01*
X1308500Y787000D02*
X1358500Y737000D01*
X1358500Y787000D02*
X1308500Y737000D01*
X1372000Y5867000D02*
X1422000Y5817000D01*
X1422000Y5867000D02*
X1372000Y5817000D01*
X1435500Y5549500D02*
X1485500Y5499500D01*
X1485500Y5549500D02*
X1435500Y5499500D01*
X1435500Y3644500D02*
X1485500Y3594500D01*
X1485500Y3644500D02*
X1435500Y3594500D01*
X1626000Y914000D02*
X1676000Y864000D01*
X1676000Y914000D02*
X1626000Y864000D01*
X1689500Y3962000D02*
X1739500Y3912000D01*
X1739500Y3962000D02*
X1689500Y3912000D01*
X1689500Y3644500D02*
X1739500Y3594500D01*
X1739500Y3644500D02*
X1689500Y3594500D01*
X1689500Y1422000D02*
X1739500Y1372000D01*
X1739500Y1422000D02*
X1689500Y1372000D01*
X2007000Y3962000D02*
X2057000Y3912000D01*
X2057000Y3962000D02*
X2007000Y3912000D01*
X2070500Y1295000D02*
X2120500Y1245000D01*
X2120500Y1295000D02*
X2070500Y1245000D01*
X2070500Y850500D02*
X2120500Y800500D01*
X2120500Y850500D02*
X2070500Y800500D01*
X2134000Y4089000D02*
X2184000Y4039000D01*
X2184000Y4089000D02*
X2134000Y4039000D01*
X2197500Y2057000D02*
X2247500Y2007000D01*
X2247500Y2057000D02*
X2197500Y2007000D01*
X2451500Y2692000D02*
X2501500Y2642000D01*
X2501500Y2692000D02*
X2451500Y2642000D01*
X2515000Y2247500D02*
X2565000Y2197500D01*
X2565000Y2247500D02*
X2515000Y2197500D01*
X2515000Y2120500D02*
X2565000Y2070500D01*
X2565000Y2120500D02*
X2515000Y2070500D01*
X2515000Y1422000D02*
X2565000Y1372000D01*
X2565000Y1422000D02*
X2515000Y1372000D01*
X2515000Y977500D02*
X2565000Y927500D01*
X2565000Y977500D02*
X2515000Y927500D01*
X2642000Y2247500D02*
X2692000Y2197500D01*
X2692000Y2247500D02*
X2642000Y2197500D01*
X2642000Y2120500D02*
X2692000Y2070500D01*
X2692000Y2120500D02*
X2642000Y2070500D01*
X2705500Y3009500D02*
X2755500Y2959500D01*
X2755500Y3009500D02*
X2705500Y2959500D01*
X2769000Y2628500D02*
X2819000Y2578500D01*
X2819000Y2628500D02*
X2769000Y2578500D01*
X2832500Y2311000D02*
X2882500Y2261000D01*
X2882500Y2311000D02*
X2832500Y2261000D01*
X2832500Y1104500D02*
X2882500Y1054500D01*
X2882500Y1104500D02*
X2832500Y1054500D01*
X2832500Y723500D02*
X2882500Y673500D01*
X2882500Y723500D02*
X2832500Y673500D01*
X2896000Y6438500D02*
X2946000Y6388500D01*
X2946000Y6438500D02*
X2896000Y6388500D01*
X2896000Y2628500D02*
X2946000Y2578500D01*
X2946000Y2628500D02*
X2896000Y2578500D01*
X2896000Y2501500D02*
X2946000Y2451500D01*
X2946000Y2501500D02*
X2896000Y2451500D01*
X2896000Y1485500D02*
X2946000Y1435500D01*
X2946000Y1485500D02*
X2896000Y1435500D01*
X3086500Y5422500D02*
X3136500Y5372500D01*
X3136500Y5422500D02*
X3086500Y5372500D01*
X3150000Y2501500D02*
X3200000Y2451500D01*
X3200000Y2501500D02*
X3150000Y2451500D01*
X3213500Y6184500D02*
X3263500Y6134500D01*
X3263500Y6184500D02*
X3213500Y6134500D01*
X3213500Y3644500D02*
X3263500Y3594500D01*
X3263500Y3644500D02*
X3213500Y3594500D01*
X3277000Y3898500D02*
X3327000Y3848500D01*
X3327000Y3898500D02*
X3277000Y3848500D01*
X3277000Y1422000D02*
X3327000Y1372000D01*
X3327000Y1422000D02*
X3277000Y1372000D01*
X3277000Y977500D02*
X3327000Y927500D01*
X3327000Y977500D02*
X3277000Y927500D01*
X3340500Y2882500D02*
X3390500Y2832500D01*
X3390500Y2882500D02*
X3340500Y2832500D01*
X3340500Y2755500D02*
X3390500Y2705500D01*
X3390500Y2755500D02*
X3340500Y2705500D01*
X3340500Y2628500D02*
X3390500Y2578500D01*
X3390500Y2628500D02*
X3340500Y2578500D01*
X3340500Y2184000D02*
X3390500Y2134000D01*
X3390500Y2184000D02*
X3340500Y2134000D01*
X3340500Y660000D02*
X3390500Y610000D01*
X3390500Y660000D02*
X3340500Y610000D01*
X3467500Y3200000D02*
X3517500Y3150000D01*
X3517500Y3200000D02*
X3467500Y3150000D01*
X3531000Y5232000D02*
X3581000Y5182000D01*
X3581000Y5232000D02*
X3531000Y5182000D01*
X3531000Y5041500D02*
X3581000Y4991500D01*
X3581000Y5041500D02*
X3531000Y4991500D01*
X3531000Y3898500D02*
X3581000Y3848500D01*
X3581000Y3898500D02*
X3531000Y3848500D01*
X3531000Y3644500D02*
X3581000Y3594500D01*
X3581000Y3644500D02*
X3531000Y3594500D01*
X3594500Y2501500D02*
X3644500Y2451500D01*
X3644500Y2501500D02*
X3594500Y2451500D01*
X3594500Y2184000D02*
X3644500Y2134000D01*
X3644500Y2184000D02*
X3594500Y2134000D01*
X3658000Y5740000D02*
X3708000Y5690000D01*
X3708000Y5740000D02*
X3658000Y5690000D01*
X3721500Y5041500D02*
X3771500Y4991500D01*
X3771500Y5041500D02*
X3721500Y4991500D01*
X3785000Y6438500D02*
X3835000Y6388500D01*
X3835000Y6438500D02*
X3785000Y6388500D01*
X3785000Y1295000D02*
X3835000Y1245000D01*
X3835000Y1295000D02*
X3785000Y1245000D01*
X3785000Y850500D02*
X3835000Y800500D01*
X3835000Y850500D02*
X3785000Y800500D01*
X3912000Y3898500D02*
X3962000Y3848500D01*
X3962000Y3898500D02*
X3912000Y3848500D01*
X3975500Y6057500D02*
X4025500Y6007500D01*
X4025500Y6057500D02*
X3975500Y6007500D01*
X4039000Y5422500D02*
X4089000Y5372500D01*
X4089000Y5422500D02*
X4039000Y5372500D01*
X4039000Y5232000D02*
X4089000Y5182000D01*
X4089000Y5232000D02*
X4039000Y5182000D01*
X4102500Y2819000D02*
X4152500Y2769000D01*
X4152500Y2819000D02*
X4102500Y2769000D01*
X4166000Y3073000D02*
X4216000Y3023000D01*
X4216000Y3073000D02*
X4166000Y3023000D01*
X4293000Y4851000D02*
X4343000Y4801000D01*
X4343000Y4851000D02*
X4293000Y4801000D01*
X4293000Y3708000D02*
X4343000Y3658000D01*
X4343000Y3708000D02*
X4293000Y3658000D01*
X4356500Y6375000D02*
X4406500Y6325000D01*
X4406500Y6375000D02*
X4356500Y6325000D01*
X4356500Y5740000D02*
X4406500Y5690000D01*
X4406500Y5740000D02*
X4356500Y5690000D01*
X4356500Y5232000D02*
X4406500Y5182000D01*
X4406500Y5232000D02*
X4356500Y5182000D01*
X4356500Y2819000D02*
X4406500Y2769000D01*
X4406500Y2819000D02*
X4356500Y2769000D01*
X4547000Y6057500D02*
X4597000Y6007500D01*
X4597000Y6057500D02*
X4547000Y6007500D01*
X4547000Y2692000D02*
X4597000Y2642000D01*
X4597000Y2692000D02*
X4547000Y2642000D01*
X4674000Y5359000D02*
X4724000Y5309000D01*
X4724000Y5359000D02*
X4674000Y5309000D01*
X4674000Y2946000D02*
X4724000Y2896000D01*
X4724000Y2946000D02*
X4674000Y2896000D01*
X4801000Y3962000D02*
X4851000Y3912000D01*
X4851000Y3962000D02*
X4801000Y3912000D01*
X4864500Y6375000D02*
X4914500Y6325000D01*
X4914500Y6375000D02*
X4864500Y6325000D01*
X4864500Y5549500D02*
X4914500Y5499500D01*
X4914500Y5549500D02*
X4864500Y5499500D01*
X4928000Y5803500D02*
X4978000Y5753500D01*
X4978000Y5803500D02*
X4928000Y5753500D01*
X4928000Y3644500D02*
X4978000Y3594500D01*
X4978000Y3644500D02*
X4928000Y3594500D01*
X4928000Y2692000D02*
X4978000Y2642000D01*
X4978000Y2692000D02*
X4928000Y2642000D01*
X5055000Y4216000D02*
X5105000Y4166000D01*
X5105000Y4216000D02*
X5055000Y4166000D01*
X5309000Y3200000D02*
X5359000Y3150000D01*
X5359000Y3200000D02*
X5309000Y3150000D01*
X5563000Y4216000D02*
X5613000Y4166000D01*
X5613000Y4216000D02*
X5563000Y4166000D01*
X5626500Y3581000D02*
X5676500Y3531000D01*
X5676500Y3581000D02*
X5626500Y3531000D01*
X5944000Y4343000D02*
X5994000Y4293000D01*
X5994000Y4343000D02*
X5944000Y4293000D01*
X5944000Y3200000D02*
X5994000Y3150000D01*
X5994000Y3200000D02*
X5944000Y3150000D01*
X6071000Y3962000D02*
X6121000Y3912000D01*
X6121000Y3962000D02*
X6071000Y3912000D01*
X982500Y5143500D02*
G75*
G03X982500Y5143500I-30000J0D01*
G01*
X127000Y1892500D02*
X127000Y1790500D01*
X76000Y1841500D02*
X178000Y1841500D01*
X127000Y368500D02*
X127000Y266500D01*
X76000Y317500D02*
X178000Y317500D01*
X381000Y1892500D02*
X381000Y1790500D01*
X330000Y1841500D02*
X432000Y1841500D01*
X381000Y368500D02*
X381000Y266500D01*
X330000Y317500D02*
X432000Y317500D01*
X635000Y1892500D02*
X635000Y1790500D01*
X584000Y1841500D02*
X686000Y1841500D01*
X635000Y368500D02*
X635000Y266500D01*
X584000Y317500D02*
X686000Y317500D01*
X889000Y1892500D02*
X889000Y1790500D01*
X838000Y1841500D02*
X940000Y1841500D01*
X889000Y368500D02*
X889000Y266500D01*
X838000Y317500D02*
X940000Y317500D01*
X1143000Y1892500D02*
X1143000Y1790500D01*
X1092000Y1841500D02*
X1194000Y1841500D01*
X1143000Y368500D02*
X1143000Y266500D01*
X1092000Y317500D02*
X1194000Y317500D01*
X1397000Y1892500D02*
X1397000Y1790500D01*
X1346000Y1841500D02*
X1448000Y1841500D01*
X1397000Y368500D02*
X1397000Y266500D01*
X1346000Y317500D02*
X1448000Y317500D01*
X1651000Y1892500D02*
X1651000Y1790500D01*
X1600000Y1841500D02*
X1702000Y1841500D01*
X1651000Y368500D02*
X1651000Y266500D01*
X1600000Y317500D02*
X1702000Y317500D01*
X1905000Y6591500D02*
X1905000Y6489500D01*
X1854000Y6540500D02*
X1956000Y6540500D01*
X1905000Y6337500D02*
X1905000Y6235500D01*
X1854000Y6286500D02*
X1956000Y6286500D01*
X1905000Y6083500D02*
X1905000Y5981500D01*
X1854000Y6032500D02*
X1956000Y6032500D01*
X1905000Y5829500D02*
X1905000Y5727500D01*
X1854000Y5778500D02*
X1956000Y5778500D01*
X1905000Y5575500D02*
X1905000Y5473500D01*
X1854000Y5524500D02*
X1956000Y5524500D01*
X1905000Y5321500D02*
X1905000Y5219500D01*
X1854000Y5270500D02*
X1956000Y5270500D01*
X1905000Y5067500D02*
X1905000Y4965500D01*
X1854000Y5016500D02*
X1956000Y5016500D01*
X1905000Y4813500D02*
X1905000Y4711500D01*
X1854000Y4762500D02*
X1956000Y4762500D01*
X1905000Y1892500D02*
X1905000Y1790500D01*
X1854000Y1841500D02*
X1956000Y1841500D01*
X1905000Y368500D02*
X1905000Y266500D01*
X1854000Y317500D02*
X1956000Y317500D01*
X2159000Y6591500D02*
X2159000Y6489500D01*
X2108000Y6540500D02*
X2210000Y6540500D01*
X2159000Y6337500D02*
X2159000Y6235500D01*
X2108000Y6286500D02*
X2210000Y6286500D01*
X2159000Y6083500D02*
X2159000Y5981500D01*
X2108000Y6032500D02*
X2210000Y6032500D01*
X2159000Y5829500D02*
X2159000Y5727500D01*
X2108000Y5778500D02*
X2210000Y5778500D01*
X2159000Y5575500D02*
X2159000Y5473500D01*
X2108000Y5524500D02*
X2210000Y5524500D01*
X2159000Y5321500D02*
X2159000Y5219500D01*
X2108000Y5270500D02*
X2210000Y5270500D01*
X2159000Y5067500D02*
X2159000Y4965500D01*
X2108000Y5016500D02*
X2210000Y5016500D01*
X2159000Y4813500D02*
X2159000Y4711500D01*
X2108000Y4762500D02*
X2210000Y4762500D01*
X2159000Y1892500D02*
X2159000Y1790500D01*
X2108000Y1841500D02*
X2210000Y1841500D01*
X2159000Y368500D02*
X2159000Y266500D01*
X2108000Y317500D02*
X2210000Y317500D01*
X2413000Y6591500D02*
X2413000Y6489500D01*
X2362000Y6540500D02*
X2464000Y6540500D01*
X2413000Y6337500D02*
X2413000Y6235500D01*
X2362000Y6286500D02*
X2464000Y6286500D01*
X2413000Y6083500D02*
X2413000Y5981500D01*
X2362000Y6032500D02*
X2464000Y6032500D01*
X2413000Y5829500D02*
X2413000Y5727500D01*
X2362000Y5778500D02*
X2464000Y5778500D01*
X2413000Y5575500D02*
X2413000Y5473500D01*
X2362000Y5524500D02*
X2464000Y5524500D01*
X2413000Y5321500D02*
X2413000Y5219500D01*
X2362000Y5270500D02*
X2464000Y5270500D01*
X2413000Y5067500D02*
X2413000Y4965500D01*
X2362000Y5016500D02*
X2464000Y5016500D01*
X2413000Y4813500D02*
X2413000Y4711500D01*
X2362000Y4762500D02*
X2464000Y4762500D01*
X2413000Y1892500D02*
X2413000Y1790500D01*
X2362000Y1841500D02*
X2464000Y1841500D01*
X2413000Y368500D02*
X2413000Y266500D01*
X2362000Y317500D02*
X2464000Y317500D01*
X2667000Y1892500D02*
X2667000Y1790500D01*
X2616000Y1841500D02*
X2718000Y1841500D01*
X2667000Y368500D02*
X2667000Y266500D01*
X2616000Y317500D02*
X2718000Y317500D01*
X2921000Y1892500D02*
X2921000Y1790500D01*
X2870000Y1841500D02*
X2972000Y1841500D01*
X2921000Y368500D02*
X2921000Y266500D01*
X2870000Y317500D02*
X2972000Y317500D01*
X3175000Y1892500D02*
X3175000Y1790500D01*
X3124000Y1841500D02*
X3226000Y1841500D01*
X3175000Y368500D02*
X3175000Y266500D01*
X3124000Y317500D02*
X3226000Y317500D01*
X3429000Y1892500D02*
X3429000Y1790500D01*
X3378000Y1841500D02*
X3480000Y1841500D01*
X3429000Y368500D02*
X3429000Y266500D01*
X3378000Y317500D02*
X3480000Y317500D01*
X3683000Y1892500D02*
X3683000Y1790500D01*
X3632000Y1841500D02*
X3734000Y1841500D01*
X3683000Y368500D02*
X3683000Y266500D01*
X3632000Y317500D02*
X3734000Y317500D01*
X3937000Y1892500D02*
X3937000Y1790500D01*
X3886000Y1841500D02*
X3988000Y1841500D01*
X3937000Y368500D02*
X3937000Y266500D01*
X3886000Y317500D02*
X3988000Y317500D01*
X5461000Y6591500D02*
X5461000Y6489500D01*
X5410000Y6540500D02*
X5512000Y6540500D01*
X5461000Y6337500D02*
X5461000Y6235500D01*
X5410000Y6286500D02*
X5512000Y6286500D01*
X5461000Y6083500D02*
X5461000Y5981500D01*
X5410000Y6032500D02*
X5512000Y6032500D01*
X5461000Y5829500D02*
X5461000Y5727500D01*
X5410000Y5778500D02*
X5512000Y5778500D01*
X5461000Y5575500D02*
X5461000Y5473500D01*
X5410000Y5524500D02*
X5512000Y5524500D01*
X5461000Y5321500D02*
X5461000Y5219500D01*
X5410000Y5270500D02*
X5512000Y5270500D01*
X5461000Y5067500D02*
X5461000Y4965500D01*
X5410000Y5016500D02*
X5512000Y5016500D01*
X5461000Y4813500D02*
X5461000Y4711500D01*
X5410000Y4762500D02*
X5512000Y4762500D01*
X5715000Y6591500D02*
X5715000Y6489500D01*
X5664000Y6540500D02*
X5766000Y6540500D01*
X5715000Y6337500D02*
X5715000Y6235500D01*
X5664000Y6286500D02*
X5766000Y6286500D01*
X5715000Y6083500D02*
X5715000Y5981500D01*
X5664000Y6032500D02*
X5766000Y6032500D01*
X5715000Y5829500D02*
X5715000Y5727500D01*
X5664000Y5778500D02*
X5766000Y5778500D01*
X5715000Y5575500D02*
X5715000Y5473500D01*
X5664000Y5524500D02*
X5766000Y5524500D01*
X5715000Y5321500D02*
X5715000Y5219500D01*
X5664000Y5270500D02*
X5766000Y5270500D01*
X5715000Y5067500D02*
X5715000Y4965500D01*
X5664000Y5016500D02*
X5766000Y5016500D01*
X5715000Y4813500D02*
X5715000Y4711500D01*
X5664000Y4762500D02*
X5766000Y4762500D01*
X5969000Y6591500D02*
X5969000Y6489500D01*
X5918000Y6540500D02*
X6020000Y6540500D01*
X5969000Y6337500D02*
X5969000Y6235500D01*
X5918000Y6286500D02*
X6020000Y6286500D01*
X5969000Y6083500D02*
X5969000Y5981500D01*
X5918000Y6032500D02*
X6020000Y6032500D01*
X5969000Y5829500D02*
X5969000Y5727500D01*
X5918000Y5778500D02*
X6020000Y5778500D01*
X5969000Y5575500D02*
X5969000Y5473500D01*
X5918000Y5524500D02*
X6020000Y5524500D01*
X5969000Y5321500D02*
X5969000Y5219500D01*
X5918000Y5270500D02*
X6020000Y5270500D01*
X5969000Y5067500D02*
X5969000Y4965500D01*
X5918000Y5016500D02*
X6020000Y5016500D01*
X5969000Y4813500D02*
X5969000Y4711500D01*
X5918000Y4762500D02*
X6020000Y4762500D01*
D13*
X263929Y-473214D02*
X263929Y-173214D01*
X335357Y-173214D01*
X378214Y-187500D01*
X406786Y-216071D01*
X421071Y-244643D01*
X435357Y-301786D01*
X435357Y-344643D01*
X421071Y-401786D01*
X406786Y-430357D01*
X378214Y-458929D01*
X335357Y-473214D01*
X263929Y-473214D01*
X563929Y-473214D02*
X563929Y-273214D01*
X563929Y-330357D02*
X578214Y-301786D01*
X592500Y-287500D01*
X621071Y-273214D01*
X649643Y-273214D01*
X749643Y-473214D02*
X749643Y-273214D01*
X749643Y-173214D02*
X735357Y-187500D01*
X749643Y-201786D01*
X763928Y-187500D01*
X749643Y-173214D01*
X749643Y-201786D01*
X935357Y-473214D02*
X906786Y-458929D01*
X892500Y-430357D01*
X892500Y-173214D01*
X1092500Y-473214D02*
X1063929Y-458929D01*
X1049643Y-430357D01*
X1049643Y-173214D01*
X1435357Y-473214D02*
X1435357Y-173214D01*
X1535357Y-387500D01*
X1635357Y-173214D01*
X1635357Y-473214D01*
X1906786Y-473214D02*
X1906786Y-316072D01*
X1892500Y-287500D01*
X1863928Y-273214D01*
X1806786Y-273214D01*
X1778214Y-287500D01*
X1906786Y-458929D02*
X1878214Y-473214D01*
X1806786Y-473214D01*
X1778214Y-458929D01*
X1763928Y-430357D01*
X1763928Y-401786D01*
X1778214Y-373214D01*
X1806786Y-358929D01*
X1878214Y-358929D01*
X1906786Y-344643D01*
X2049643Y-273214D02*
X2049643Y-573214D01*
X2049643Y-287500D02*
X2078214Y-273214D01*
X2135357Y-273214D01*
X2163929Y-287500D01*
X2178214Y-301786D01*
X2192500Y-330357D01*
X2192500Y-416071D01*
X2178214Y-444643D01*
X2163929Y-458929D01*
X2135357Y-473214D01*
X2078214Y-473214D01*
X2049643Y-458929D01*
X2321071Y-444643D02*
X2335357Y-458929D01*
X2321071Y-473214D01*
X2306786Y-458929D01*
X2321071Y-444643D01*
X2321071Y-473214D01*
X2321071Y-287500D02*
X2335357Y-301786D01*
X2321071Y-316072D01*
X2306786Y-301786D01*
X2321071Y-287500D01*
X2321071Y-316072D01*
X-57500Y-942500D02*
X-7500Y-992500D01*
X-7500Y-942500D02*
X-57500Y-992500D01*
X321071Y-803214D02*
X349643Y-803214D01*
X378214Y-817500D01*
X392500Y-831786D01*
X406786Y-860357D01*
X421071Y-917500D01*
X421071Y-988929D01*
X406786Y-1046071D01*
X392500Y-1074643D01*
X378214Y-1088929D01*
X349643Y-1103214D01*
X321071Y-1103214D01*
X292500Y-1088929D01*
X278214Y-1074643D01*
X263929Y-1046071D01*
X249643Y-988929D01*
X249643Y-917500D01*
X263929Y-860357D01*
X278214Y-831786D01*
X292500Y-817500D01*
X321071Y-803214D01*
X549643Y-1074643D02*
X563929Y-1088929D01*
X549643Y-1103214D01*
X535357Y-1088929D01*
X549643Y-1074643D01*
X549643Y-1103214D01*
X835357Y-803214D02*
X692500Y-803214D01*
X678214Y-946071D01*
X692500Y-931786D01*
X721071Y-917500D01*
X792500Y-917500D01*
X821071Y-931786D01*
X835357Y-946071D01*
X849643Y-974643D01*
X849643Y-1046071D01*
X835357Y-1074643D01*
X821071Y-1088929D01*
X792500Y-1103214D01*
X721071Y-1103214D01*
X692500Y-1088929D01*
X678214Y-1074643D01*
X1035357Y-803214D02*
X1063929Y-803214D01*
X1092500Y-817500D01*
X1106786Y-831786D01*
X1121071Y-860357D01*
X1135357Y-917500D01*
X1135357Y-988929D01*
X1121071Y-1046071D01*
X1106786Y-1074643D01*
X1092500Y-1088929D01*
X1063929Y-1103214D01*
X1035357Y-1103214D01*
X1006786Y-1088929D01*
X992500Y-1074643D01*
X978214Y-1046071D01*
X963928Y-988929D01*
X963928Y-917500D01*
X978214Y-860357D01*
X992500Y-831786D01*
X1006786Y-817500D01*
X1035357Y-803214D01*
X1263929Y-1103214D02*
X1263929Y-903214D01*
X1263929Y-931786D02*
X1278214Y-917500D01*
X1306786Y-903214D01*
X1349643Y-903214D01*
X1378214Y-917500D01*
X1392500Y-946071D01*
X1392500Y-1103214D01*
X1392500Y-946071D02*
X1406786Y-917500D01*
X1435357Y-903214D01*
X1478214Y-903214D01*
X1506786Y-917500D01*
X1521071Y-946071D01*
X1521071Y-1103214D01*
X1663928Y-1103214D02*
X1663928Y-903214D01*
X1663928Y-931786D02*
X1678214Y-917500D01*
X1706786Y-903214D01*
X1749643Y-903214D01*
X1778214Y-917500D01*
X1792500Y-946071D01*
X1792500Y-1103214D01*
X1792500Y-946071D02*
X1806786Y-917500D01*
X1835357Y-903214D01*
X1878214Y-903214D01*
X1906786Y-917500D01*
X1921071Y-946071D01*
X1921071Y-1103214D01*
X2506786Y-788929D02*
X2249643Y-1174643D01*
X2892500Y-803214D02*
X2921071Y-803214D01*
X2949643Y-817500D01*
X2963928Y-831786D01*
X2978214Y-860357D01*
X2992500Y-917500D01*
X2992500Y-988929D01*
X2978214Y-1046071D01*
X2963928Y-1074643D01*
X2949643Y-1088929D01*
X2921071Y-1103214D01*
X2892500Y-1103214D01*
X2863928Y-1088929D01*
X2849643Y-1074643D01*
X2835357Y-1046071D01*
X2821071Y-988929D01*
X2821071Y-917500D01*
X2835357Y-860357D01*
X2849643Y-831786D01*
X2863928Y-817500D01*
X2892500Y-803214D01*
X3121071Y-1074643D02*
X3135357Y-1088929D01*
X3121071Y-1103214D01*
X3106786Y-1088929D01*
X3121071Y-1074643D01*
X3121071Y-1103214D01*
X3321071Y-803214D02*
X3349643Y-803214D01*
X3378214Y-817500D01*
X3392500Y-831786D01*
X3406785Y-860357D01*
X3421071Y-917500D01*
X3421071Y-988929D01*
X3406785Y-1046071D01*
X3392500Y-1074643D01*
X3378214Y-1088929D01*
X3349643Y-1103214D01*
X3321071Y-1103214D01*
X3292500Y-1088929D01*
X3278214Y-1074643D01*
X3263928Y-1046071D01*
X3249643Y-988929D01*
X3249643Y-917500D01*
X3263928Y-860357D01*
X3278214Y-831786D01*
X3292500Y-817500D01*
X3321071Y-803214D01*
X3535357Y-831786D02*
X3549643Y-817500D01*
X3578214Y-803214D01*
X3649643Y-803214D01*
X3678214Y-817500D01*
X3692500Y-831786D01*
X3706785Y-860357D01*
X3706785Y-888929D01*
X3692500Y-931786D01*
X3521071Y-1103214D01*
X3706785Y-1103214D01*
X3892500Y-803214D02*
X3921071Y-803214D01*
X3949643Y-817500D01*
X3963928Y-831786D01*
X3978214Y-860357D01*
X3992500Y-917500D01*
X3992500Y-988929D01*
X3978214Y-1046071D01*
X3963928Y-1074643D01*
X3949643Y-1088929D01*
X3921071Y-1103214D01*
X3892500Y-1103214D01*
X3863928Y-1088929D01*
X3849643Y-1074643D01*
X3835357Y-1046071D01*
X3821071Y-988929D01*
X3821071Y-917500D01*
X3835357Y-860357D01*
X3849643Y-831786D01*
X3863928Y-817500D01*
X3892500Y-803214D01*
X4106786Y-803214D02*
X4106786Y-860357D01*
X4221071Y-803214D02*
X4221071Y-860357D01*
X4663928Y-1217500D02*
X4649643Y-1203214D01*
X4621071Y-1160357D01*
X4606786Y-1131786D01*
X4592500Y-1088929D01*
X4578214Y-1017500D01*
X4578214Y-960357D01*
X4592500Y-888929D01*
X4606786Y-846071D01*
X4621071Y-817500D01*
X4649643Y-774643D01*
X4663928Y-760357D01*
X4935357Y-1103214D02*
X4763928Y-1103214D01*
X4849643Y-1103214D02*
X4849643Y-803214D01*
X4821071Y-846071D01*
X4792500Y-874643D01*
X4763928Y-888929D01*
X5121071Y-803214D02*
X5149643Y-803214D01*
X5178214Y-817500D01*
X5192500Y-831786D01*
X5206786Y-860357D01*
X5221071Y-917500D01*
X5221071Y-988929D01*
X5206786Y-1046071D01*
X5192500Y-1074643D01*
X5178214Y-1088929D01*
X5149643Y-1103214D01*
X5121071Y-1103214D01*
X5092500Y-1088929D01*
X5078214Y-1074643D01*
X5063928Y-1046071D01*
X5049643Y-988929D01*
X5049643Y-917500D01*
X5063928Y-860357D01*
X5078214Y-831786D01*
X5092500Y-817500D01*
X5121071Y-803214D01*
X5478214Y-803214D02*
X5421071Y-803214D01*
X5392500Y-817500D01*
X5378214Y-831786D01*
X5349643Y-874643D01*
X5335357Y-931786D01*
X5335357Y-1046071D01*
X5349643Y-1074643D01*
X5363928Y-1088929D01*
X5392500Y-1103214D01*
X5449643Y-1103214D01*
X5478214Y-1088929D01*
X5492500Y-1074643D01*
X5506786Y-1046071D01*
X5506786Y-974643D01*
X5492500Y-946071D01*
X5478214Y-931786D01*
X5449643Y-917500D01*
X5392500Y-917500D01*
X5363928Y-931786D01*
X5349643Y-946071D01*
X5335357Y-974643D01*
X5863928Y-1103214D02*
X5863928Y-803214D01*
X5992500Y-1103214D02*
X5992500Y-946071D01*
X5978214Y-917500D01*
X5949643Y-903214D01*
X5906785Y-903214D01*
X5878214Y-917500D01*
X5863928Y-931786D01*
X6178214Y-1103214D02*
X6149643Y-1088929D01*
X6135357Y-1074643D01*
X6121071Y-1046071D01*
X6121071Y-960357D01*
X6135357Y-931786D01*
X6149643Y-917500D01*
X6178214Y-903214D01*
X6221071Y-903214D01*
X6249643Y-917500D01*
X6263928Y-931786D01*
X6278214Y-960357D01*
X6278214Y-1046071D01*
X6263928Y-1074643D01*
X6249643Y-1088929D01*
X6221071Y-1103214D01*
X6178214Y-1103214D01*
X6449643Y-1103214D02*
X6421071Y-1088929D01*
X6406786Y-1060357D01*
X6406786Y-803214D01*
X6678214Y-1088929D02*
X6649643Y-1103214D01*
X6592500Y-1103214D01*
X6563928Y-1088929D01*
X6549643Y-1060357D01*
X6549643Y-946071D01*
X6563928Y-917500D01*
X6592500Y-903214D01*
X6649643Y-903214D01*
X6678214Y-917500D01*
X6692500Y-946071D01*
X6692500Y-974643D01*
X6549643Y-1003214D01*
X6806786Y-1088929D02*
X6835357Y-1103214D01*
X6892500Y-1103214D01*
X6921071Y-1088929D01*
X6935357Y-1060357D01*
X6935357Y-1046071D01*
X6921071Y-1017500D01*
X6892500Y-1003214D01*
X6849643Y-1003214D01*
X6821071Y-988929D01*
X6806786Y-960357D01*
X6806786Y-946071D01*
X6821071Y-917500D01*
X6849643Y-903214D01*
X6892500Y-903214D01*
X6921071Y-917500D01*
X7035357Y-1217500D02*
X7049643Y-1203214D01*
X7078214Y-1160357D01*
X7092500Y-1131786D01*
X7106786Y-1088929D01*
X7121071Y-1017500D01*
X7121071Y-960357D01*
X7106786Y-888929D01*
X7092500Y-846071D01*
X7078214Y-817500D01*
X7049643Y-774643D01*
X7035357Y-760357D01*
X-7500Y-1363500D02*
G75*
G03X-7500Y-1363500I-30000J0D01*
G01*
X321071Y-1199214D02*
X349643Y-1199214D01*
X378214Y-1213500D01*
X392500Y-1227786D01*
X406786Y-1256357D01*
X421071Y-1313500D01*
X421071Y-1384929D01*
X406786Y-1442071D01*
X392500Y-1470643D01*
X378214Y-1484929D01*
X349643Y-1499214D01*
X321071Y-1499214D01*
X292500Y-1484929D01*
X278214Y-1470643D01*
X263929Y-1442071D01*
X249643Y-1384929D01*
X249643Y-1313500D01*
X263929Y-1256357D01*
X278214Y-1227786D01*
X292500Y-1213500D01*
X321071Y-1199214D01*
X549643Y-1470643D02*
X563929Y-1484929D01*
X549643Y-1499214D01*
X535357Y-1484929D01*
X549643Y-1470643D01*
X549643Y-1499214D01*
X821071Y-1199214D02*
X763928Y-1199214D01*
X735357Y-1213500D01*
X721071Y-1227786D01*
X692500Y-1270643D01*
X678214Y-1327786D01*
X678214Y-1442071D01*
X692500Y-1470643D01*
X706786Y-1484929D01*
X735357Y-1499214D01*
X792500Y-1499214D01*
X821071Y-1484929D01*
X835357Y-1470643D01*
X849643Y-1442071D01*
X849643Y-1370643D01*
X835357Y-1342072D01*
X821071Y-1327786D01*
X792500Y-1313500D01*
X735357Y-1313500D01*
X706786Y-1327786D01*
X692500Y-1342072D01*
X678214Y-1370643D01*
X1035357Y-1199214D02*
X1063929Y-1199214D01*
X1092500Y-1213500D01*
X1106786Y-1227786D01*
X1121071Y-1256357D01*
X1135357Y-1313500D01*
X1135357Y-1384929D01*
X1121071Y-1442071D01*
X1106786Y-1470643D01*
X1092500Y-1484929D01*
X1063929Y-1499214D01*
X1035357Y-1499214D01*
X1006786Y-1484929D01*
X992500Y-1470643D01*
X978214Y-1442071D01*
X963928Y-1384929D01*
X963928Y-1313500D01*
X978214Y-1256357D01*
X992500Y-1227786D01*
X1006786Y-1213500D01*
X1035357Y-1199214D01*
X1263929Y-1499214D02*
X1263929Y-1299214D01*
X1263929Y-1327786D02*
X1278214Y-1313500D01*
X1306786Y-1299214D01*
X1349643Y-1299214D01*
X1378214Y-1313500D01*
X1392500Y-1342072D01*
X1392500Y-1499214D01*
X1392500Y-1342072D02*
X1406786Y-1313500D01*
X1435357Y-1299214D01*
X1478214Y-1299214D01*
X1506786Y-1313500D01*
X1521071Y-1342072D01*
X1521071Y-1499214D01*
X1663928Y-1499214D02*
X1663928Y-1299214D01*
X1663928Y-1327786D02*
X1678214Y-1313500D01*
X1706786Y-1299214D01*
X1749643Y-1299214D01*
X1778214Y-1313500D01*
X1792500Y-1342072D01*
X1792500Y-1499214D01*
X1792500Y-1342072D02*
X1806786Y-1313500D01*
X1835357Y-1299214D01*
X1878214Y-1299214D01*
X1906786Y-1313500D01*
X1921071Y-1342072D01*
X1921071Y-1499214D01*
X2506786Y-1184929D02*
X2249643Y-1570643D01*
X2892500Y-1199214D02*
X2921071Y-1199214D01*
X2949643Y-1213500D01*
X2963928Y-1227786D01*
X2978214Y-1256357D01*
X2992500Y-1313500D01*
X2992500Y-1384929D01*
X2978214Y-1442071D01*
X2963928Y-1470643D01*
X2949643Y-1484929D01*
X2921071Y-1499214D01*
X2892500Y-1499214D01*
X2863928Y-1484929D01*
X2849643Y-1470643D01*
X2835357Y-1442071D01*
X2821071Y-1384929D01*
X2821071Y-1313500D01*
X2835357Y-1256357D01*
X2849643Y-1227786D01*
X2863928Y-1213500D01*
X2892500Y-1199214D01*
X3121071Y-1470643D02*
X3135357Y-1484929D01*
X3121071Y-1499214D01*
X3106786Y-1484929D01*
X3121071Y-1470643D01*
X3121071Y-1499214D01*
X3321071Y-1199214D02*
X3349643Y-1199214D01*
X3378214Y-1213500D01*
X3392500Y-1227786D01*
X3406785Y-1256357D01*
X3421071Y-1313500D01*
X3421071Y-1384929D01*
X3406785Y-1442071D01*
X3392500Y-1470643D01*
X3378214Y-1484929D01*
X3349643Y-1499214D01*
X3321071Y-1499214D01*
X3292500Y-1484929D01*
X3278214Y-1470643D01*
X3263928Y-1442071D01*
X3249643Y-1384929D01*
X3249643Y-1313500D01*
X3263928Y-1256357D01*
X3278214Y-1227786D01*
X3292500Y-1213500D01*
X3321071Y-1199214D01*
X3535357Y-1227786D02*
X3549643Y-1213500D01*
X3578214Y-1199214D01*
X3649643Y-1199214D01*
X3678214Y-1213500D01*
X3692500Y-1227786D01*
X3706785Y-1256357D01*
X3706785Y-1284929D01*
X3692500Y-1327786D01*
X3521071Y-1499214D01*
X3706785Y-1499214D01*
X3963928Y-1299214D02*
X3963928Y-1499214D01*
X3892500Y-1184929D02*
X3821071Y-1399214D01*
X4006785Y-1399214D01*
X4106786Y-1199214D02*
X4106786Y-1256357D01*
X4221071Y-1199214D02*
X4221071Y-1256357D01*
X4663928Y-1613500D02*
X4649643Y-1599214D01*
X4621071Y-1556357D01*
X4606786Y-1527786D01*
X4592500Y-1484929D01*
X4578214Y-1413500D01*
X4578214Y-1356357D01*
X4592500Y-1284929D01*
X4606786Y-1242072D01*
X4621071Y-1213500D01*
X4649643Y-1170643D01*
X4663928Y-1156357D01*
X4935357Y-1499214D02*
X4763928Y-1499214D01*
X4849643Y-1499214D02*
X4849643Y-1199214D01*
X4821071Y-1242072D01*
X4792500Y-1270643D01*
X4763928Y-1284929D01*
X5292500Y-1499214D02*
X5292500Y-1199214D01*
X5421071Y-1499214D02*
X5421071Y-1342072D01*
X5406786Y-1313500D01*
X5378214Y-1299214D01*
X5335357Y-1299214D01*
X5306786Y-1313500D01*
X5292500Y-1327786D01*
X5606785Y-1499214D02*
X5578214Y-1484929D01*
X5563928Y-1470643D01*
X5549643Y-1442071D01*
X5549643Y-1356357D01*
X5563928Y-1327786D01*
X5578214Y-1313500D01*
X5606785Y-1299214D01*
X5649643Y-1299214D01*
X5678214Y-1313500D01*
X5692500Y-1327786D01*
X5706785Y-1356357D01*
X5706785Y-1442071D01*
X5692500Y-1470643D01*
X5678214Y-1484929D01*
X5649643Y-1499214D01*
X5606785Y-1499214D01*
X5878214Y-1499214D02*
X5849643Y-1484929D01*
X5835357Y-1456357D01*
X5835357Y-1199214D01*
X6106786Y-1484929D02*
X6078214Y-1499214D01*
X6021071Y-1499214D01*
X5992500Y-1484929D01*
X5978214Y-1456357D01*
X5978214Y-1342072D01*
X5992500Y-1313500D01*
X6021071Y-1299214D01*
X6078214Y-1299214D01*
X6106786Y-1313500D01*
X6121071Y-1342072D01*
X6121071Y-1370643D01*
X5978214Y-1399214D01*
X6221071Y-1613500D02*
X6235357Y-1599214D01*
X6263928Y-1556357D01*
X6278214Y-1527786D01*
X6292500Y-1484929D01*
X6306786Y-1413500D01*
X6306786Y-1356357D01*
X6292500Y-1284929D01*
X6278214Y-1242072D01*
X6263928Y-1213500D01*
X6235357Y-1170643D01*
X6221071Y-1156357D01*
X-58500Y-1708500D02*
X-58500Y-1810500D01*
X-109500Y-1759500D02*
X-7500Y-1759500D01*
X421071Y-1895214D02*
X249643Y-1895214D01*
X335357Y-1895214D02*
X335357Y-1595214D01*
X306786Y-1638071D01*
X278214Y-1666643D01*
X249643Y-1680929D01*
X549643Y-1866643D02*
X563929Y-1880929D01*
X549643Y-1895214D01*
X535357Y-1880929D01*
X549643Y-1866643D01*
X549643Y-1895214D01*
X749643Y-1595214D02*
X778214Y-1595214D01*
X806786Y-1609500D01*
X821071Y-1623786D01*
X835357Y-1652357D01*
X849643Y-1709500D01*
X849643Y-1780929D01*
X835357Y-1838071D01*
X821071Y-1866643D01*
X806786Y-1880929D01*
X778214Y-1895214D01*
X749643Y-1895214D01*
X721071Y-1880929D01*
X706786Y-1866643D01*
X692500Y-1838071D01*
X678214Y-1780929D01*
X678214Y-1709500D01*
X692500Y-1652357D01*
X706786Y-1623786D01*
X721071Y-1609500D01*
X749643Y-1595214D01*
X963928Y-1623786D02*
X978214Y-1609500D01*
X1006786Y-1595214D01*
X1078214Y-1595214D01*
X1106786Y-1609500D01*
X1121071Y-1623786D01*
X1135357Y-1652357D01*
X1135357Y-1680929D01*
X1121071Y-1723786D01*
X949643Y-1895214D01*
X1135357Y-1895214D01*
X1263929Y-1895214D02*
X1263929Y-1695214D01*
X1263929Y-1723786D02*
X1278214Y-1709500D01*
X1306786Y-1695214D01*
X1349643Y-1695214D01*
X1378214Y-1709500D01*
X1392500Y-1738071D01*
X1392500Y-1895214D01*
X1392500Y-1738071D02*
X1406786Y-1709500D01*
X1435357Y-1695214D01*
X1478214Y-1695214D01*
X1506786Y-1709500D01*
X1521071Y-1738071D01*
X1521071Y-1895214D01*
X1663928Y-1895214D02*
X1663928Y-1695214D01*
X1663928Y-1723786D02*
X1678214Y-1709500D01*
X1706786Y-1695214D01*
X1749643Y-1695214D01*
X1778214Y-1709500D01*
X1792500Y-1738071D01*
X1792500Y-1895214D01*
X1792500Y-1738071D02*
X1806786Y-1709500D01*
X1835357Y-1695214D01*
X1878214Y-1695214D01*
X1906786Y-1709500D01*
X1921071Y-1738071D01*
X1921071Y-1895214D01*
X2506786Y-1580929D02*
X2249643Y-1966643D01*
X2892500Y-1595214D02*
X2921071Y-1595214D01*
X2949643Y-1609500D01*
X2963928Y-1623786D01*
X2978214Y-1652357D01*
X2992500Y-1709500D01*
X2992500Y-1780929D01*
X2978214Y-1838071D01*
X2963928Y-1866643D01*
X2949643Y-1880929D01*
X2921071Y-1895214D01*
X2892500Y-1895214D01*
X2863928Y-1880929D01*
X2849643Y-1866643D01*
X2835357Y-1838071D01*
X2821071Y-1780929D01*
X2821071Y-1709500D01*
X2835357Y-1652357D01*
X2849643Y-1623786D01*
X2863928Y-1609500D01*
X2892500Y-1595214D01*
X3121071Y-1866643D02*
X3135357Y-1880929D01*
X3121071Y-1895214D01*
X3106786Y-1880929D01*
X3121071Y-1866643D01*
X3121071Y-1895214D01*
X3321071Y-1595214D02*
X3349643Y-1595214D01*
X3378214Y-1609500D01*
X3392500Y-1623786D01*
X3406785Y-1652357D01*
X3421071Y-1709500D01*
X3421071Y-1780929D01*
X3406785Y-1838071D01*
X3392500Y-1866643D01*
X3378214Y-1880929D01*
X3349643Y-1895214D01*
X3321071Y-1895214D01*
X3292500Y-1880929D01*
X3278214Y-1866643D01*
X3263928Y-1838071D01*
X3249643Y-1780929D01*
X3249643Y-1709500D01*
X3263928Y-1652357D01*
X3278214Y-1623786D01*
X3292500Y-1609500D01*
X3321071Y-1595214D01*
X3678214Y-1695214D02*
X3678214Y-1895214D01*
X3606785Y-1580929D02*
X3535357Y-1795214D01*
X3721071Y-1795214D01*
X3892500Y-1595214D02*
X3921071Y-1595214D01*
X3949643Y-1609500D01*
X3963928Y-1623786D01*
X3978214Y-1652357D01*
X3992500Y-1709500D01*
X3992500Y-1780929D01*
X3978214Y-1838071D01*
X3963928Y-1866643D01*
X3949643Y-1880929D01*
X3921071Y-1895214D01*
X3892500Y-1895214D01*
X3863928Y-1880929D01*
X3849643Y-1866643D01*
X3835357Y-1838071D01*
X3821071Y-1780929D01*
X3821071Y-1709500D01*
X3835357Y-1652357D01*
X3849643Y-1623786D01*
X3863928Y-1609500D01*
X3892500Y-1595214D01*
X4106786Y-1595214D02*
X4106786Y-1652357D01*
X4221071Y-1595214D02*
X4221071Y-1652357D01*
X4663928Y-2009500D02*
X4649643Y-1995214D01*
X4621071Y-1952357D01*
X4606786Y-1923786D01*
X4592500Y-1880929D01*
X4578214Y-1809500D01*
X4578214Y-1752357D01*
X4592500Y-1680929D01*
X4606786Y-1638071D01*
X4621071Y-1609500D01*
X4649643Y-1566643D01*
X4663928Y-1552357D01*
X4821071Y-1723786D02*
X4792500Y-1709500D01*
X4778214Y-1695214D01*
X4763928Y-1666643D01*
X4763928Y-1652357D01*
X4778214Y-1623786D01*
X4792500Y-1609500D01*
X4821071Y-1595214D01*
X4878214Y-1595214D01*
X4906786Y-1609500D01*
X4921071Y-1623786D01*
X4935357Y-1652357D01*
X4935357Y-1666643D01*
X4921071Y-1695214D01*
X4906786Y-1709500D01*
X4878214Y-1723786D01*
X4821071Y-1723786D01*
X4792500Y-1738071D01*
X4778214Y-1752357D01*
X4763928Y-1780929D01*
X4763928Y-1838071D01*
X4778214Y-1866643D01*
X4792500Y-1880929D01*
X4821071Y-1895214D01*
X4878214Y-1895214D01*
X4906786Y-1880929D01*
X4921071Y-1866643D01*
X4935357Y-1838071D01*
X4935357Y-1780929D01*
X4921071Y-1752357D01*
X4906786Y-1738071D01*
X4878214Y-1723786D01*
X5121071Y-1595214D02*
X5149643Y-1595214D01*
X5178214Y-1609500D01*
X5192500Y-1623786D01*
X5206786Y-1652357D01*
X5221071Y-1709500D01*
X5221071Y-1780929D01*
X5206786Y-1838071D01*
X5192500Y-1866643D01*
X5178214Y-1880929D01*
X5149643Y-1895214D01*
X5121071Y-1895214D01*
X5092500Y-1880929D01*
X5078214Y-1866643D01*
X5063928Y-1838071D01*
X5049643Y-1780929D01*
X5049643Y-1709500D01*
X5063928Y-1652357D01*
X5078214Y-1623786D01*
X5092500Y-1609500D01*
X5121071Y-1595214D01*
X5578214Y-1895214D02*
X5578214Y-1595214D01*
X5706785Y-1895214D02*
X5706785Y-1738071D01*
X5692500Y-1709500D01*
X5663928Y-1695214D01*
X5621071Y-1695214D01*
X5592500Y-1709500D01*
X5578214Y-1723786D01*
X5892500Y-1895214D02*
X5863928Y-1880929D01*
X5849643Y-1866643D01*
X5835357Y-1838071D01*
X5835357Y-1752357D01*
X5849643Y-1723786D01*
X5863928Y-1709500D01*
X5892500Y-1695214D01*
X5935357Y-1695214D01*
X5963928Y-1709500D01*
X5978214Y-1723786D01*
X5992500Y-1752357D01*
X5992500Y-1838071D01*
X5978214Y-1866643D01*
X5963928Y-1880929D01*
X5935357Y-1895214D01*
X5892500Y-1895214D01*
X6163928Y-1895214D02*
X6135357Y-1880929D01*
X6121071Y-1852357D01*
X6121071Y-1595214D01*
X6392500Y-1880929D02*
X6363928Y-1895214D01*
X6306786Y-1895214D01*
X6278214Y-1880929D01*
X6263928Y-1852357D01*
X6263928Y-1738071D01*
X6278214Y-1709500D01*
X6306786Y-1695214D01*
X6363928Y-1695214D01*
X6392500Y-1709500D01*
X6406786Y-1738071D01*
X6406786Y-1766643D01*
X6263928Y-1795214D01*
X6521071Y-1880929D02*
X6549643Y-1895214D01*
X6606786Y-1895214D01*
X6635357Y-1880929D01*
X6649643Y-1852357D01*
X6649643Y-1838071D01*
X6635357Y-1809500D01*
X6606786Y-1795214D01*
X6563928Y-1795214D01*
X6535357Y-1780929D01*
X6521071Y-1752357D01*
X6521071Y-1738071D01*
X6535357Y-1709500D01*
X6563928Y-1695214D01*
X6606786Y-1695214D01*
X6635357Y-1709500D01*
X6749643Y-2009500D02*
X6763928Y-1995214D01*
X6792500Y-1952357D01*
X6806786Y-1923786D01*
X6821071Y-1880929D01*
X6835357Y-1809500D01*
X6835357Y-1752357D01*
X6821071Y-1680929D01*
X6806786Y-1638071D01*
X6792500Y-1609500D01*
X6763928Y-1566643D01*
X6749643Y-1552357D01*
M02*
