G04 #@! TF.FileFunction,Copper,L1,Top,Signal*
%FSLAX46Y46*%
G04 Gerber Fmt 4.6, Leading zero omitted, Abs format (unit mm)*
G04 Created by KiCad (PCBNEW 4.0.7) date 02/11/20 08:43:37*
%MOMM*%
%LPD*%
G01*
G04 APERTURE LIST*
%ADD10C,0.200000*%
%ADD11C,1.800000*%
%ADD12R,1.500000X1.400000*%
%ADD13R,1.400000X1.500000*%
%ADD14R,1.300000X2.500000*%
%ADD15R,3.850000X2.600000*%
%ADD16R,0.700000X3.000000*%
%ADD17C,1.000000*%
%ADD18C,0.800000*%
%ADD19C,0.700000*%
%ADD20C,0.250000*%
%ADD21C,0.400000*%
%ADD22C,0.300000*%
G04 APERTURE END LIST*
D10*
D11*
X39370000Y18415000D03*
X36830000Y18415000D03*
X34290000Y18415000D03*
X31750000Y18415000D03*
X29210000Y18415000D03*
X26670000Y18415000D03*
X24130000Y18415000D03*
X21590000Y18415000D03*
X19050000Y18415000D03*
X16510000Y18415000D03*
X13970000Y18415000D03*
X11430000Y18415000D03*
X8890000Y18415000D03*
X6350000Y18415000D03*
X3810000Y18415000D03*
X1270000Y18415000D03*
X1270000Y3175000D03*
X3810000Y3175000D03*
X6350000Y3175000D03*
X8890000Y3175000D03*
X11430000Y3175000D03*
X13970000Y3175000D03*
X16510000Y3175000D03*
X19050000Y3175000D03*
X21590000Y3175000D03*
X24130000Y3175000D03*
X26670000Y3175000D03*
X29210000Y3175000D03*
X31750000Y3175000D03*
X34290000Y3175000D03*
X36830000Y3175000D03*
X39370000Y3175000D03*
D12*
X10795000Y53340000D03*
X10795000Y55384700D03*
D13*
X5080000Y48260000D03*
X3035300Y48260000D03*
D12*
X51435000Y53975000D03*
X51435000Y56019700D03*
X4445000Y39370000D03*
X4445000Y41414700D03*
D13*
X21590000Y29210000D03*
X19545300Y29210000D03*
X35560000Y47625000D03*
X37604700Y47625000D03*
D12*
X4445000Y36195000D03*
X4445000Y34150300D03*
X52070000Y38100000D03*
X52070000Y36055300D03*
X33020000Y52070000D03*
X33020000Y54114700D03*
D14*
X3175000Y52070000D03*
X5473700Y52070000D03*
X7772400Y52070000D03*
D15*
X5473700Y58166000D03*
D16*
X7620000Y33655000D03*
X8890000Y33655000D03*
X10160000Y33655000D03*
X11430000Y33655000D03*
X12700000Y33655000D03*
X13970000Y33655000D03*
X15240000Y33655000D03*
X16510000Y33655000D03*
X17780000Y33655000D03*
X19050000Y33655000D03*
X19050000Y42951400D03*
X17780000Y42951400D03*
X16510000Y42951400D03*
X15240000Y42951400D03*
X13970000Y42951400D03*
X12700000Y42951400D03*
X11430000Y42951400D03*
X10160000Y42951400D03*
X8890000Y42951400D03*
X7620000Y42951400D03*
X22225000Y33655000D03*
X23495000Y33655000D03*
X24765000Y33655000D03*
X26035000Y33655000D03*
X27305000Y33655000D03*
X28575000Y33655000D03*
X29845000Y33655000D03*
X31115000Y33655000D03*
X32385000Y33655000D03*
X33655000Y33655000D03*
X33655000Y42951400D03*
X32385000Y42951400D03*
X31115000Y42951400D03*
X29845000Y42951400D03*
X28575000Y42951400D03*
X27305000Y42951400D03*
X26035000Y42951400D03*
X24765000Y42951400D03*
X23495000Y42951400D03*
X22225000Y42951400D03*
X36830000Y33655000D03*
X38100000Y33655000D03*
X39370000Y33655000D03*
X40640000Y33655000D03*
X41910000Y33655000D03*
X43180000Y33655000D03*
X44450000Y33655000D03*
X45720000Y33655000D03*
X46990000Y33655000D03*
X48260000Y33655000D03*
X48260000Y42951400D03*
X46990000Y42951400D03*
X45720000Y42951400D03*
X44450000Y42951400D03*
X43180000Y42951400D03*
X41910000Y42951400D03*
X40640000Y42951400D03*
X39370000Y42951400D03*
X38100000Y42951400D03*
X36830000Y42951400D03*
D11*
X24130000Y47625000D03*
X21590000Y47625000D03*
X19050000Y47625000D03*
X24130000Y50165000D03*
X21590000Y50165000D03*
X19050000Y50165000D03*
X24130000Y52705000D03*
X21590000Y52705000D03*
X19050000Y52705000D03*
X24130000Y55245000D03*
X21590000Y55245000D03*
X19050000Y55245000D03*
X24130000Y57785000D03*
X21590000Y57785000D03*
X19050000Y57785000D03*
X24130000Y60325000D03*
X21590000Y60325000D03*
X19050000Y60325000D03*
X24130000Y62865000D03*
X21590000Y62865000D03*
X19050000Y62865000D03*
X24130000Y65405000D03*
X21590000Y65405000D03*
X19050000Y65405000D03*
X59690000Y65405000D03*
X57150000Y65405000D03*
X54610000Y65405000D03*
X59690000Y62865000D03*
X57150000Y62865000D03*
X54610000Y62865000D03*
X59690000Y60325000D03*
X57150000Y60325000D03*
X54610000Y60325000D03*
X59690000Y57785000D03*
X57150000Y57785000D03*
X54610000Y57785000D03*
X59690000Y55245000D03*
X57150000Y55245000D03*
X54610000Y55245000D03*
X59690000Y52705000D03*
X57150000Y52705000D03*
X54610000Y52705000D03*
X59690000Y50165000D03*
X57150000Y50165000D03*
X54610000Y50165000D03*
X59690000Y47625000D03*
X57150000Y47625000D03*
X54610000Y47625000D03*
D17*
X9525000Y51435000D03*
D18*
X5080000Y23495000D03*
X4445000Y26670000D03*
X6985000Y29210000D03*
X5080000Y31115000D03*
X43815000Y63500000D03*
X38100000Y64135000D03*
X29210000Y64135000D03*
X32385000Y61595000D03*
X40005000Y60325000D03*
X36830000Y57150000D03*
X60960000Y39370000D03*
X56515000Y35560000D03*
X59690000Y31750000D03*
X53340000Y31750000D03*
X49530000Y26670000D03*
X36195000Y21590000D03*
X36195000Y24765000D03*
X45720000Y26670000D03*
X40640000Y53975000D03*
X40640000Y52070000D03*
X35560000Y50165000D03*
X55880000Y41910000D03*
X50800000Y41910000D03*
X43180000Y36830000D03*
X34925000Y31750000D03*
X32385000Y36195000D03*
X33020000Y38735000D03*
X20320000Y39370000D03*
X21590000Y40640000D03*
X14605000Y36195000D03*
X10795000Y39370000D03*
X17145000Y39370000D03*
X6985000Y46355000D03*
X13970000Y58420000D03*
X10160000Y58420000D03*
X43815000Y57150000D03*
X45720000Y60325000D03*
X43815000Y52070000D03*
X46990000Y53340000D03*
X43180000Y48260000D03*
X38100000Y8255000D03*
X38100000Y12700000D03*
X25400000Y13970000D03*
X25400000Y9525000D03*
X13335000Y7620000D03*
X13335000Y15240000D03*
X17145000Y13970000D03*
X16510000Y8890000D03*
X6350000Y13970000D03*
X3810000Y13335000D03*
X9525000Y9525000D03*
X9525000Y13335000D03*
X20955000Y12700000D03*
X20955000Y8255000D03*
X33655000Y6350000D03*
X33020000Y9525000D03*
X33020000Y13970000D03*
X29210000Y14605000D03*
X28575000Y10795000D03*
X28575000Y6985000D03*
X1270000Y8255000D03*
X6350000Y8890000D03*
X3810000Y9525000D03*
X1270000Y14605000D03*
X49530000Y57785000D03*
X48895000Y63500000D03*
X17145000Y36195000D03*
X35560000Y36195000D03*
X39370000Y38735000D03*
X35560000Y38735000D03*
X48260000Y39370000D03*
X49530000Y36195000D03*
X4445000Y43815000D03*
X8890000Y46355000D03*
X37465000Y50165000D03*
X59690000Y43180000D03*
X48895000Y55245000D03*
X35560000Y52070000D03*
X14605000Y55245000D03*
D19*
X12700000Y36195000D03*
X6350000Y36195000D03*
X31115000Y53975000D03*
X27940000Y26035000D03*
X28575000Y22860000D03*
X26670000Y22225000D03*
X33655000Y27305000D03*
X33655000Y28575000D03*
X46990000Y29210000D03*
X41910000Y30480000D03*
X8890000Y26035000D03*
X7620000Y20955000D03*
X11430000Y20955000D03*
X12700000Y20955000D03*
X33655000Y26035000D03*
X22225000Y20320000D03*
X27305000Y29845000D03*
X24765000Y26670000D03*
X25400000Y22225000D03*
X25400000Y20955000D03*
X31750000Y24765000D03*
X29210000Y24765000D03*
X26670000Y20955000D03*
X29210000Y26035000D03*
X33655000Y21590000D03*
X41275000Y27940000D03*
X43815000Y27940000D03*
D20*
X10795000Y53340000D02*
X9042400Y53340000D01*
X9042400Y53340000D02*
X7772400Y52070000D01*
X10795000Y52705000D02*
X9525000Y51435000D01*
X10795000Y52705000D02*
X10795000Y53340000D01*
X10795000Y53340000D02*
X11430000Y53340000D01*
X4445000Y26670000D02*
X6985000Y29210000D01*
X5080000Y31115000D02*
X1270000Y31115000D01*
X29210000Y64135000D02*
X38100000Y64135000D01*
X41910000Y56515000D02*
X41275000Y57150000D01*
X38735000Y61595000D02*
X32385000Y61595000D01*
X40005000Y60325000D02*
X38735000Y61595000D01*
X41275000Y57150000D02*
X36830000Y57150000D01*
X50800000Y31750000D02*
X53340000Y31750000D01*
X59690000Y32385000D02*
X56515000Y35560000D01*
X59690000Y31750000D02*
X59690000Y32385000D01*
X46990000Y26670000D02*
X49530000Y26670000D01*
X50800000Y33655000D02*
X50800000Y31750000D01*
X50800000Y31750000D02*
X50800000Y30480000D01*
X36195000Y24765000D02*
X36195000Y21590000D01*
X46990000Y26670000D02*
X45720000Y26670000D01*
X50800000Y30480000D02*
X46990000Y26670000D01*
X40640000Y53975000D02*
X40640000Y53340000D01*
X41910000Y56515000D02*
X40640000Y55245000D01*
X40640000Y53975000D02*
X40640000Y55245000D01*
X40640000Y53340000D02*
X40640000Y52070000D01*
X50800000Y41910000D02*
X55880000Y41910000D01*
X52070000Y36055300D02*
X53835300Y36055300D01*
X53835300Y36055300D02*
X53975000Y36195000D01*
X33655000Y36195000D02*
X32385000Y36195000D01*
X35560000Y38735000D02*
X33020000Y38735000D01*
X21590000Y40005000D02*
X20955000Y40005000D01*
X20955000Y40005000D02*
X20320000Y39370000D01*
X23495000Y40005000D02*
X21590000Y40005000D01*
X21590000Y40005000D02*
X21590000Y40640000D01*
X17145000Y36195000D02*
X14605000Y36195000D01*
X8890000Y40005000D02*
X8890000Y42951400D01*
X11430000Y39370000D02*
X17145000Y39370000D01*
X10795000Y39370000D02*
X11430000Y39370000D01*
X9525000Y39370000D02*
X10795000Y39370000D01*
X8890000Y40005000D02*
X9525000Y39370000D01*
X8890000Y46355000D02*
X6985000Y46355000D01*
X10795000Y55384700D02*
X10795000Y57785000D01*
X10795000Y57785000D02*
X10160000Y58420000D01*
X42862500Y57467500D02*
X43180000Y57150000D01*
X43180000Y57150000D02*
X43815000Y57150000D01*
X43815000Y52070000D02*
X45720000Y52070000D01*
X45720000Y52070000D02*
X46990000Y53340000D01*
D21*
X1270000Y18415000D02*
X1270000Y14605000D01*
D20*
X19545300Y29210000D02*
X19545300Y30619700D01*
X19050000Y31115000D02*
X19050000Y33655000D01*
X19545300Y30619700D02*
X19050000Y31115000D01*
X1270000Y45085000D02*
X1905000Y45720000D01*
X3035300Y46850300D02*
X1905000Y45720000D01*
X3035300Y46850300D02*
X3035300Y48260000D01*
X37604700Y47625000D02*
X37604700Y46215300D01*
X38100000Y45720000D02*
X38100000Y42951400D01*
X37604700Y46215300D02*
X38100000Y45720000D01*
X38100000Y8255000D02*
X38100000Y12700000D01*
X1270000Y14605000D02*
X2540000Y13335000D01*
X22225000Y13970000D02*
X25400000Y13970000D01*
X16510000Y8890000D02*
X17145000Y8255000D01*
X13335000Y7620000D02*
X13335000Y15240000D01*
X17145000Y13970000D02*
X17145000Y9525000D01*
X17145000Y9525000D02*
X16510000Y8890000D01*
X6350000Y13970000D02*
X8890000Y13970000D01*
X8890000Y13970000D02*
X9525000Y13335000D01*
X17145000Y8255000D02*
X20955000Y8255000D01*
X20955000Y12700000D02*
X22225000Y13970000D01*
X2540000Y13335000D02*
X3810000Y13335000D01*
X33020000Y6985000D02*
X33655000Y6350000D01*
X33020000Y9525000D02*
X33020000Y6985000D01*
X32385000Y14605000D02*
X33020000Y13970000D01*
X29210000Y14605000D02*
X32385000Y14605000D01*
X28575000Y6985000D02*
X28575000Y10795000D01*
X1905000Y8255000D02*
X2540000Y8255000D01*
X1270000Y8255000D02*
X1905000Y8255000D01*
X2540000Y8255000D02*
X3810000Y9525000D01*
X49530000Y57785000D02*
X51435000Y57785000D01*
X51435000Y57785000D02*
X51435000Y56019700D01*
X52209700Y36195000D02*
X52070000Y36055300D01*
X50800000Y33655000D02*
X52070000Y34925000D01*
X48260000Y33655000D02*
X50800000Y33655000D01*
X52070000Y34925000D02*
X52070000Y36055300D01*
X49530000Y36195000D02*
X51930300Y36195000D01*
X51930300Y36195000D02*
X52070000Y36055300D01*
X17145000Y36195000D02*
X19050000Y36195000D01*
X19050000Y33655000D02*
X19050000Y36195000D01*
X23495000Y42951400D02*
X23495000Y40005000D01*
X33655000Y36195000D02*
X35560000Y36195000D01*
X33655000Y35560000D02*
X33655000Y33655000D01*
X33655000Y35560000D02*
X33655000Y36195000D01*
X23495000Y40005000D02*
X34290000Y40005000D01*
X34290000Y40005000D02*
X35560000Y38735000D01*
X44450000Y38735000D02*
X46355000Y38735000D01*
X44450000Y38735000D02*
X39370000Y38735000D01*
X46990000Y39370000D02*
X48260000Y39370000D01*
X46355000Y38735000D02*
X46990000Y39370000D01*
X4445000Y41414700D02*
X4445000Y43815000D01*
X8890000Y46355000D02*
X8890000Y42951400D01*
X38100000Y42951400D02*
X38100000Y40005000D01*
X38100000Y40005000D02*
X39370000Y38735000D01*
X4445000Y41414700D02*
X4305300Y41275000D01*
X4305300Y41275000D02*
X1270000Y41275000D01*
X4445000Y34150300D02*
X4305300Y34290000D01*
X4305300Y34290000D02*
X1270000Y34290000D01*
X1270000Y34925000D02*
X1270000Y39370000D01*
X1270000Y39370000D02*
X1270000Y41275000D01*
X1270000Y41275000D02*
X1270000Y45085000D01*
X37604700Y47625000D02*
X37465000Y47764700D01*
X37465000Y47764700D02*
X37465000Y50165000D01*
X41910000Y56515000D02*
X42862500Y57467500D01*
X42862500Y57467500D02*
X45720000Y60325000D01*
X45720000Y60325000D02*
X48895000Y63500000D01*
D21*
X48895000Y63500000D02*
X50800000Y65405000D01*
X50800000Y65405000D02*
X54610000Y65405000D01*
D20*
X19050000Y29705300D02*
X19545300Y29210000D01*
X38100000Y47129700D02*
X37604700Y47625000D01*
X52705000Y36055300D02*
X52705000Y35560000D01*
X59690000Y41910000D02*
X59690000Y43180000D01*
X53835300Y36055300D02*
X53975000Y36195000D01*
X53975000Y36195000D02*
X59690000Y41910000D01*
X52565300Y36195000D02*
X52705000Y36055300D01*
X49530000Y36195000D02*
X49669700Y36055300D01*
X3175000Y52070000D02*
X3175000Y53975000D01*
X4584700Y55384700D02*
X10795000Y55384700D01*
X3175000Y53975000D02*
X4584700Y55384700D01*
X3035300Y48260000D02*
X3175000Y48399700D01*
X3175000Y48399700D02*
X3175000Y52070000D01*
X1270000Y45085000D02*
X1270000Y45085000D01*
D21*
X1270000Y18415000D02*
X1270000Y31115000D01*
X1270000Y31115000D02*
X1270000Y34290000D01*
D20*
X1270000Y34290000D02*
X1270000Y34925000D01*
X51435000Y53975000D02*
X50165000Y53975000D01*
X35560000Y52070000D02*
X33020000Y52070000D01*
X48895000Y55245000D02*
X50165000Y53975000D01*
X51435000Y53975000D02*
X53340000Y53975000D01*
X53340000Y53975000D02*
X58420000Y53975000D01*
X58420000Y53975000D02*
X59690000Y55245000D01*
X22225000Y33655000D02*
X22225000Y37465000D01*
X19050000Y37465000D02*
X19050000Y39776400D01*
X19050000Y39776400D02*
X22225000Y42951400D01*
X4445000Y39370000D02*
X7620000Y39370000D01*
X21590000Y29210000D02*
X21590000Y29845000D01*
X21590000Y29845000D02*
X22225000Y30480000D01*
X22225000Y30480000D02*
X22225000Y33655000D01*
X36830000Y42951400D02*
X36830000Y45085000D01*
X35560000Y46355000D02*
X35560000Y47625000D01*
X36830000Y45085000D02*
X35560000Y46355000D01*
X33020000Y52070000D02*
X33020000Y50165000D01*
X33020000Y50165000D02*
X35560000Y47625000D01*
X36830000Y42951400D02*
X36830000Y37465000D01*
X22225000Y37465000D02*
X36830000Y37465000D01*
X36830000Y37465000D02*
X36830000Y33655000D01*
X7620000Y37465000D02*
X19050000Y37465000D01*
X19050000Y37465000D02*
X20320000Y37465000D01*
X20320000Y37465000D02*
X22225000Y37465000D01*
X5715000Y45720000D02*
X5715000Y44856400D01*
X5080000Y46355000D02*
X5715000Y45720000D01*
X5080000Y48260000D02*
X5080000Y46355000D01*
X5715000Y44856400D02*
X7620000Y42951400D01*
X7620000Y42951400D02*
X7620000Y39370000D01*
X7620000Y39370000D02*
X7620000Y37465000D01*
X7620000Y37465000D02*
X7620000Y33655000D01*
X19050000Y55245000D02*
X21590000Y57785000D01*
X5080000Y48260000D02*
X8255000Y48260000D01*
X14605000Y54610000D02*
X14605000Y55245000D01*
X8255000Y48260000D02*
X14605000Y54610000D01*
X5473700Y52070000D02*
X5473700Y48653700D01*
X5473700Y48653700D02*
X5080000Y48260000D01*
X4445000Y36195000D02*
X6350000Y36195000D01*
X12700000Y36195000D02*
X12700000Y33655000D01*
X52070000Y38100000D02*
X46990000Y38100000D01*
X44450000Y35560000D02*
X46990000Y38100000D01*
X44450000Y35560000D02*
X44450000Y33655000D01*
X32880300Y53975000D02*
X31115000Y53975000D01*
X32880300Y53975000D02*
X33020000Y54114700D01*
X43180000Y33655000D02*
X43180000Y28575000D01*
X39370000Y24765000D02*
X39370000Y18415000D01*
X43180000Y28575000D02*
X39370000Y24765000D01*
X28575000Y26670000D02*
X27940000Y26035000D01*
X28575000Y27940000D02*
X28575000Y33655000D01*
X28575000Y27940000D02*
X28575000Y26670000D01*
X23495000Y27940000D02*
X23495000Y26670000D01*
X23495000Y33655000D02*
X23495000Y27940000D01*
X26035000Y25400000D02*
X24765000Y25400000D01*
X24765000Y25400000D02*
X23495000Y26670000D01*
X28575000Y22860000D02*
X26035000Y25400000D01*
X26670000Y22225000D02*
X24765000Y24130000D01*
X16510000Y27940000D02*
X20320000Y24130000D01*
X20320000Y24130000D02*
X24765000Y24130000D01*
X16510000Y27940000D02*
X16510000Y33655000D01*
X32385000Y29210000D02*
X32385000Y30480000D01*
X32385000Y33655000D02*
X32385000Y30480000D01*
X33020000Y25400000D02*
X32385000Y26035000D01*
X32385000Y26035000D02*
X32385000Y29210000D01*
X33020000Y24130000D02*
X33020000Y22860000D01*
X33020000Y24130000D02*
X33020000Y25400000D01*
X29210000Y19050000D02*
X29845000Y19685000D01*
X29845000Y19685000D02*
X32385000Y22225000D01*
X32385000Y22225000D02*
X33020000Y22860000D01*
X29210000Y19050000D02*
X29210000Y18415000D01*
X33020000Y22860000D02*
X33020000Y22860000D01*
X26670000Y19050000D02*
X27940000Y20320000D01*
X27940000Y20320000D02*
X30480000Y22860000D01*
X30480000Y22860000D02*
X30480000Y25400000D01*
X30480000Y25400000D02*
X31115000Y26035000D01*
X31115000Y26035000D02*
X31115000Y33655000D01*
X26670000Y19050000D02*
X26670000Y18415000D01*
X26670000Y19050000D02*
X26670000Y18415000D01*
X17780000Y21590000D02*
X22225000Y21590000D01*
X10160000Y33655000D02*
X10160000Y29210000D01*
X10160000Y29210000D02*
X17780000Y21590000D01*
X24130000Y19685000D02*
X24130000Y18415000D01*
X22225000Y21590000D02*
X24130000Y19685000D01*
X39370000Y31115000D02*
X39370000Y33655000D01*
X35560000Y27305000D02*
X39370000Y31115000D01*
X33655000Y27305000D02*
X35560000Y27305000D01*
X35560000Y28575000D02*
X33655000Y28575000D01*
X38100000Y33655000D02*
X38100000Y31115000D01*
X35560000Y28575000D02*
X38100000Y31115000D01*
X8890000Y33655000D02*
X8890000Y29210000D01*
X16510000Y21590000D02*
X16510000Y18415000D01*
X8890000Y29210000D02*
X16510000Y21590000D01*
X46990000Y29210000D02*
X46990000Y33655000D01*
X41910000Y33655000D02*
X41910000Y31115000D01*
X41910000Y31115000D02*
X41910000Y30480000D01*
X8890000Y18415000D02*
X8890000Y26035000D01*
X6350000Y20320000D02*
X6985000Y20955000D01*
X5080000Y6985000D02*
X1270000Y3175000D01*
X5080000Y15875000D02*
X5080000Y6985000D01*
X5080000Y19050000D02*
X5080000Y15875000D01*
X6350000Y20320000D02*
X5080000Y19050000D01*
X6985000Y20955000D02*
X7620000Y20955000D01*
X10160000Y17145000D02*
X10795000Y16510000D01*
X10160000Y6985000D02*
X8890000Y5715000D01*
X8890000Y5715000D02*
X6350000Y3175000D01*
X10795000Y7620000D02*
X10160000Y6985000D01*
X10795000Y15875000D02*
X10795000Y7620000D01*
X10795000Y16510000D02*
X10795000Y15875000D01*
X10160000Y17145000D02*
X10160000Y17145000D01*
X10160000Y17145000D02*
X10160000Y17145000D01*
X10160000Y19685000D02*
X10160000Y17145000D01*
X11430000Y20955000D02*
X10160000Y19685000D01*
X11430000Y3175000D02*
X11430000Y15875000D01*
X12700000Y20955000D02*
X12700000Y17145000D01*
X11430000Y15875000D02*
X12700000Y17145000D01*
X15240000Y14605000D02*
X15240000Y4445000D01*
X19050000Y20320000D02*
X18415000Y20320000D01*
X19050000Y20320000D02*
X22225000Y20320000D01*
X33655000Y26035000D02*
X35560000Y26035000D01*
X35560000Y26035000D02*
X40640000Y31115000D01*
X40640000Y33655000D02*
X40640000Y31115000D01*
X17780000Y17145000D02*
X17780000Y19050000D01*
X15875000Y15240000D02*
X17780000Y17145000D01*
X17780000Y19685000D02*
X17780000Y19050000D01*
X18415000Y20320000D02*
X17780000Y19685000D01*
X15875000Y15240000D02*
X15240000Y14605000D01*
X15240000Y4445000D02*
X13970000Y3175000D01*
X13970000Y3175000D02*
X13970000Y3810000D01*
X27305000Y33655000D02*
X27305000Y29845000D01*
X24765000Y26670000D02*
X24765000Y33655000D01*
X15240000Y33655000D02*
X15240000Y27940000D01*
X24130000Y23495000D02*
X25400000Y22225000D01*
X19685000Y23495000D02*
X24130000Y23495000D01*
X15240000Y27940000D02*
X19685000Y23495000D01*
X13970000Y27940000D02*
X19050000Y22860000D01*
X19050000Y22860000D02*
X23495000Y22860000D01*
X23495000Y22860000D02*
X25400000Y20955000D01*
X13970000Y33655000D02*
X13970000Y27940000D01*
X25400000Y19685000D02*
X25400000Y17145000D01*
X22860000Y22225000D02*
X25400000Y19685000D01*
X18415000Y22225000D02*
X22860000Y22225000D01*
X11430000Y29210000D02*
X18415000Y22225000D01*
X11430000Y33655000D02*
X11430000Y29210000D01*
X26670000Y15875000D02*
X26670000Y3175000D01*
X25400000Y17145000D02*
X26670000Y15875000D01*
X26035000Y29210000D02*
X26035000Y26670000D01*
X27305000Y5080000D02*
X27305000Y16510000D01*
X27305000Y16510000D02*
X27940000Y17145000D01*
X27940000Y17145000D02*
X27940000Y19050000D01*
X31750000Y22860000D02*
X27940000Y19050000D01*
X26035000Y33655000D02*
X26035000Y29210000D01*
X31750000Y24765000D02*
X31750000Y22860000D01*
X27940000Y4445000D02*
X29210000Y3175000D01*
X27940000Y24765000D02*
X29210000Y24765000D01*
X26670000Y26035000D02*
X27940000Y24765000D01*
X27940000Y4445000D02*
X27305000Y5080000D01*
X26035000Y26670000D02*
X26670000Y26035000D01*
X27305000Y22860000D02*
X27940000Y22225000D01*
X17780000Y33655000D02*
X17780000Y27940000D01*
X20955000Y24765000D02*
X25400000Y24765000D01*
X17780000Y27940000D02*
X20955000Y24765000D01*
X27305000Y22860000D02*
X25400000Y24765000D01*
X27305000Y20955000D02*
X26670000Y20955000D01*
X27940000Y21590000D02*
X27305000Y20955000D01*
X27940000Y22225000D02*
X27940000Y21590000D01*
X34290000Y3175000D02*
X35560000Y4445000D01*
X35560000Y19685000D02*
X35560000Y15875000D01*
X35560000Y15875000D02*
X35560000Y5080000D01*
X35560000Y5080000D02*
X35560000Y4445000D01*
X29845000Y26670000D02*
X29845000Y33655000D01*
X29845000Y26670000D02*
X29210000Y26035000D01*
X33655000Y21590000D02*
X35560000Y19685000D01*
X38100000Y17145000D02*
X36195000Y15240000D01*
X45720000Y30480000D02*
X45720000Y29845000D01*
X38100000Y24765000D02*
X38100000Y17145000D01*
X45720000Y33655000D02*
X45720000Y30480000D01*
X45720000Y29845000D02*
X43815000Y27940000D01*
X38100000Y24765000D02*
X41275000Y27940000D01*
X36195000Y4445000D02*
X36830000Y3810000D01*
X36195000Y15240000D02*
X36195000Y4445000D01*
X36830000Y3810000D02*
X36830000Y3175000D01*
X45720000Y33020000D02*
X45720000Y34925000D01*
X19050000Y47625000D02*
X19050000Y42951400D01*
X18415000Y48895000D02*
X17780000Y48260000D01*
X17780000Y48260000D02*
X17780000Y42951400D01*
X21590000Y50165000D02*
X20320000Y48895000D01*
X18415000Y48895000D02*
X18415000Y48895000D01*
X20320000Y48895000D02*
X18415000Y48895000D01*
X16510000Y42951400D02*
X16510000Y48895000D01*
X17780000Y50165000D02*
X16510000Y48895000D01*
X17780000Y50165000D02*
X19050000Y50165000D01*
X15240000Y42951400D02*
X15240000Y48895000D01*
X20320000Y51435000D02*
X21590000Y52705000D01*
X17780000Y51435000D02*
X17145000Y50800000D01*
X20320000Y51435000D02*
X17780000Y51435000D01*
X17145000Y50800000D02*
X15240000Y48895000D01*
X13970000Y42951400D02*
X13970000Y48895000D01*
X13970000Y48895000D02*
X16510000Y51435000D01*
X19050000Y52705000D02*
X17780000Y52705000D01*
X16510000Y51435000D02*
X16510000Y51435000D01*
X17780000Y52705000D02*
X16510000Y51435000D01*
X12700000Y42951400D02*
X12700000Y48895000D01*
X12700000Y48895000D02*
X15875000Y52070000D01*
X17145000Y58420000D02*
X19050000Y60325000D01*
X17145000Y53340000D02*
X17145000Y58420000D01*
X15875000Y52070000D02*
X17145000Y53340000D01*
X15875000Y52070000D02*
X15875000Y52070000D01*
X11430000Y42951400D02*
X11430000Y48895000D01*
X11430000Y48895000D02*
X15240000Y52705000D01*
X17145000Y60960000D02*
X19050000Y62865000D01*
X17145000Y59690000D02*
X17145000Y60960000D01*
X16510000Y59055000D02*
X17145000Y59690000D01*
X16510000Y53975000D02*
X16510000Y59055000D01*
X15240000Y52705000D02*
X16510000Y53975000D01*
X15240000Y52705000D02*
X15240000Y52705000D01*
X10160000Y42951400D02*
X10160000Y48895000D01*
X10160000Y48895000D02*
X14605000Y53340000D01*
X17145000Y63500000D02*
X19050000Y65405000D01*
X17145000Y62230000D02*
X17145000Y63500000D01*
X16510000Y61595000D02*
X17145000Y62230000D01*
X16510000Y60325000D02*
X16510000Y61595000D01*
X15875000Y59690000D02*
X16510000Y60325000D01*
X15875000Y54610000D02*
X15875000Y59690000D01*
X14605000Y53340000D02*
X15875000Y54610000D01*
X14605000Y53340000D02*
X14605000Y53340000D01*
X29845000Y53340000D02*
X29845000Y52070000D01*
X29845000Y53340000D02*
X29845000Y58420000D01*
X29845000Y58420000D02*
X25400000Y62865000D01*
X24130000Y62865000D02*
X25400000Y62865000D01*
X33655000Y48260000D02*
X33655000Y42951400D01*
X29845000Y52070000D02*
X33655000Y48260000D01*
X28575000Y53340000D02*
X28575000Y52070000D01*
X28575000Y53340000D02*
X28575000Y58420000D01*
X28575000Y58420000D02*
X25400000Y61595000D01*
X25400000Y61595000D02*
X22860000Y61595000D01*
X21590000Y62865000D02*
X22860000Y61595000D01*
X32385000Y48260000D02*
X32385000Y42951400D01*
X28575000Y52070000D02*
X32385000Y48260000D01*
X27305000Y52070000D02*
X31115000Y48260000D01*
X27305000Y53340000D02*
X27305000Y58420000D01*
X27305000Y58420000D02*
X25400000Y60325000D01*
X24130000Y60325000D02*
X25400000Y60325000D01*
X27305000Y52070000D02*
X27305000Y53340000D01*
X31115000Y48260000D02*
X31115000Y42951400D01*
X29210000Y48895000D02*
X29845000Y48260000D01*
X26035000Y52070000D02*
X29210000Y48895000D01*
X26035000Y53340000D02*
X26035000Y52705000D01*
X26035000Y53340000D02*
X26035000Y58420000D01*
X26035000Y58420000D02*
X25400000Y59055000D01*
X25400000Y59055000D02*
X22860000Y59055000D01*
X21590000Y60325000D02*
X22860000Y59055000D01*
X26035000Y52705000D02*
X26035000Y52070000D01*
X29845000Y48260000D02*
X29845000Y42951400D01*
X26670000Y50165000D02*
X28575000Y48260000D01*
X24130000Y52705000D02*
X26670000Y50165000D01*
X28575000Y48260000D02*
X28575000Y42951400D01*
X25400000Y49530000D02*
X27305000Y47625000D01*
X24765000Y50165000D02*
X25400000Y49530000D01*
X27305000Y47625000D02*
X27305000Y42951400D01*
X24130000Y50165000D02*
X24765000Y50165000D01*
X24130000Y47625000D02*
X24130000Y46990000D01*
X24130000Y46990000D02*
X26035000Y45085000D01*
X26035000Y45085000D02*
X26035000Y42951400D01*
X22860000Y45720000D02*
X24130000Y45720000D01*
X21590000Y46990000D02*
X22860000Y45720000D01*
X24765000Y45085000D02*
X24765000Y42951400D01*
X24130000Y45720000D02*
X24765000Y45085000D01*
X21590000Y47625000D02*
X21590000Y46990000D01*
X60960000Y45085000D02*
X50393600Y45085000D01*
X62230000Y62865000D02*
X62230000Y60325000D01*
X62230000Y60325000D02*
X62230000Y46990000D01*
X62230000Y46990000D02*
X62230000Y46355000D01*
X62230000Y46355000D02*
X60960000Y45085000D01*
X59690000Y65405000D02*
X62230000Y62865000D01*
X50393600Y45085000D02*
X48260000Y42951400D01*
X59690000Y62865000D02*
X61595000Y60960000D01*
X46990000Y45085000D02*
X46990000Y42951400D01*
X61595000Y60960000D02*
X61595000Y46990000D01*
X61595000Y46990000D02*
X60325000Y45720000D01*
X60325000Y45720000D02*
X47625000Y45720000D01*
X47625000Y45720000D02*
X46990000Y45085000D01*
X45720000Y46355000D02*
X44450000Y45085000D01*
X54610000Y47625000D02*
X53340000Y46355000D01*
X45720000Y46355000D02*
X53340000Y46355000D01*
X44450000Y45085000D02*
X44450000Y42951400D01*
X45720000Y46990000D02*
X45085000Y46990000D01*
X54610000Y50165000D02*
X52705000Y48260000D01*
X52705000Y47625000D02*
X52705000Y48260000D01*
X52070000Y46990000D02*
X52705000Y47625000D01*
X45720000Y46990000D02*
X52070000Y46990000D01*
X43180000Y45085000D02*
X43180000Y42951400D01*
X45085000Y46990000D02*
X43180000Y45085000D01*
X52705000Y62865000D02*
X53975000Y64135000D01*
X54610000Y64135000D02*
X55880000Y64135000D01*
X57150000Y65405000D02*
X55880000Y64135000D01*
X41910000Y52070000D02*
X41910000Y50165000D01*
X52705000Y62865000D02*
X41910000Y52070000D01*
X53975000Y64135000D02*
X54610000Y64135000D01*
X41910000Y50165000D02*
X41910000Y50165000D01*
X41910000Y50165000D02*
X41910000Y42951400D01*
X25400000Y65405000D02*
X26035000Y64770000D01*
X24130000Y65405000D02*
X25400000Y65405000D01*
X40640000Y50165000D02*
X26035000Y64770000D01*
X40640000Y50165000D02*
X40640000Y42951400D01*
X39370000Y42951400D02*
X39370000Y50165000D01*
X22860000Y64135000D02*
X25400000Y64135000D01*
X22860000Y64135000D02*
X21590000Y65405000D01*
X39370000Y50165000D02*
X25400000Y64135000D01*
D22*
G36*
X22900033Y17594714D02*
X23307569Y17186467D01*
X23840312Y16965252D01*
X24417157Y16964749D01*
X24734751Y17095976D01*
X24776381Y16886688D01*
X24922703Y16667703D01*
X25995000Y15595406D01*
X25995000Y4464998D01*
X25849714Y4404967D01*
X25441467Y3997431D01*
X25400172Y3897982D01*
X25359967Y3995286D01*
X24952431Y4403533D01*
X24419688Y4624748D01*
X23842843Y4625251D01*
X23309714Y4404967D01*
X22901467Y3997431D01*
X22860172Y3897982D01*
X22819967Y3995286D01*
X22412431Y4403533D01*
X21879688Y4624748D01*
X21302843Y4625251D01*
X20769714Y4404967D01*
X20361467Y3997431D01*
X20320172Y3897982D01*
X20279967Y3995286D01*
X19872431Y4403533D01*
X19339688Y4624748D01*
X18762843Y4625251D01*
X18229714Y4404967D01*
X17821467Y3997431D01*
X17780172Y3897982D01*
X17739967Y3995286D01*
X17332431Y4403533D01*
X16799688Y4624748D01*
X16222843Y4625251D01*
X15915000Y4498053D01*
X15915000Y14325406D01*
X18257297Y16667703D01*
X18403619Y16886688D01*
X18445267Y17096070D01*
X18760312Y16965252D01*
X19337157Y16964749D01*
X19870286Y17185033D01*
X20278533Y17592569D01*
X20319828Y17692018D01*
X20360033Y17594714D01*
X20767569Y17186467D01*
X21300312Y16965252D01*
X21877157Y16964749D01*
X22410286Y17185033D01*
X22818533Y17592569D01*
X22859828Y17692018D01*
X22900033Y17594714D01*
X22900033Y17594714D01*
G37*
X22900033Y17594714D02*
X23307569Y17186467D01*
X23840312Y16965252D01*
X24417157Y16964749D01*
X24734751Y17095976D01*
X24776381Y16886688D01*
X24922703Y16667703D01*
X25995000Y15595406D01*
X25995000Y4464998D01*
X25849714Y4404967D01*
X25441467Y3997431D01*
X25400172Y3897982D01*
X25359967Y3995286D01*
X24952431Y4403533D01*
X24419688Y4624748D01*
X23842843Y4625251D01*
X23309714Y4404967D01*
X22901467Y3997431D01*
X22860172Y3897982D01*
X22819967Y3995286D01*
X22412431Y4403533D01*
X21879688Y4624748D01*
X21302843Y4625251D01*
X20769714Y4404967D01*
X20361467Y3997431D01*
X20320172Y3897982D01*
X20279967Y3995286D01*
X19872431Y4403533D01*
X19339688Y4624748D01*
X18762843Y4625251D01*
X18229714Y4404967D01*
X17821467Y3997431D01*
X17780172Y3897982D01*
X17739967Y3995286D01*
X17332431Y4403533D01*
X16799688Y4624748D01*
X16222843Y4625251D01*
X15915000Y4498053D01*
X15915000Y14325406D01*
X18257297Y16667703D01*
X18403619Y16886688D01*
X18445267Y17096070D01*
X18760312Y16965252D01*
X19337157Y16964749D01*
X19870286Y17185033D01*
X20278533Y17592569D01*
X20319828Y17692018D01*
X20360033Y17594714D01*
X20767569Y17186467D01*
X21300312Y16965252D01*
X21877157Y16964749D01*
X22410286Y17185033D01*
X22818533Y17592569D01*
X22859828Y17692018D01*
X22900033Y17594714D01*
G36*
X7660033Y17594714D02*
X8067569Y17186467D01*
X8600312Y16965252D01*
X9177157Y16964749D01*
X9494751Y17095976D01*
X9536381Y16886688D01*
X9682703Y16667703D01*
X10120000Y16230406D01*
X10120000Y7899594D01*
X6784869Y4564463D01*
X6639688Y4624748D01*
X6062843Y4625251D01*
X5529714Y4404967D01*
X5121467Y3997431D01*
X5080172Y3897982D01*
X5039967Y3995286D01*
X4632431Y4403533D01*
X4099688Y4624748D01*
X3674713Y4625119D01*
X5557297Y6507703D01*
X5703619Y6726688D01*
X5755000Y6985000D01*
X5755000Y17092029D01*
X6060312Y16965252D01*
X6637157Y16964749D01*
X7170286Y17185033D01*
X7578533Y17592569D01*
X7619828Y17692018D01*
X7660033Y17594714D01*
X7660033Y17594714D01*
G37*
X7660033Y17594714D02*
X8067569Y17186467D01*
X8600312Y16965252D01*
X9177157Y16964749D01*
X9494751Y17095976D01*
X9536381Y16886688D01*
X9682703Y16667703D01*
X10120000Y16230406D01*
X10120000Y7899594D01*
X6784869Y4564463D01*
X6639688Y4624748D01*
X6062843Y4625251D01*
X5529714Y4404967D01*
X5121467Y3997431D01*
X5080172Y3897982D01*
X5039967Y3995286D01*
X4632431Y4403533D01*
X4099688Y4624748D01*
X3674713Y4625119D01*
X5557297Y6507703D01*
X5703619Y6726688D01*
X5755000Y6985000D01*
X5755000Y17092029D01*
X6060312Y16965252D01*
X6637157Y16964749D01*
X7170286Y17185033D01*
X7578533Y17592569D01*
X7619828Y17692018D01*
X7660033Y17594714D01*
G36*
X39080312Y16965252D02*
X39657157Y16964749D01*
X39855000Y17046496D01*
X39855000Y4543647D01*
X39659688Y4624748D01*
X39082843Y4625251D01*
X38549714Y4404967D01*
X38141467Y3997431D01*
X38100172Y3897982D01*
X38059967Y3995286D01*
X37652431Y4403533D01*
X37119688Y4624748D01*
X36969715Y4624879D01*
X36870000Y4724594D01*
X36870000Y14960406D01*
X38577297Y16667703D01*
X38723619Y16886688D01*
X38765267Y17096070D01*
X39080312Y16965252D01*
X39080312Y16965252D01*
G37*
X39080312Y16965252D02*
X39657157Y16964749D01*
X39855000Y17046496D01*
X39855000Y4543647D01*
X39659688Y4624748D01*
X39082843Y4625251D01*
X38549714Y4404967D01*
X38141467Y3997431D01*
X38100172Y3897982D01*
X38059967Y3995286D01*
X37652431Y4403533D01*
X37119688Y4624748D01*
X36969715Y4624879D01*
X36870000Y4724594D01*
X36870000Y14960406D01*
X38577297Y16667703D01*
X38723619Y16886688D01*
X38765267Y17096070D01*
X39080312Y16965252D01*
G36*
X33060033Y17594714D02*
X33467569Y17186467D01*
X34000312Y16965252D01*
X34577157Y16964749D01*
X34885000Y17091947D01*
X34885000Y4724594D01*
X34724869Y4564463D01*
X34579688Y4624748D01*
X34002843Y4625251D01*
X33469714Y4404967D01*
X33061467Y3997431D01*
X33020172Y3897982D01*
X32979967Y3995286D01*
X32572431Y4403533D01*
X32039688Y4624748D01*
X31462843Y4625251D01*
X30929714Y4404967D01*
X30521467Y3997431D01*
X30480172Y3897982D01*
X30439967Y3995286D01*
X30032431Y4403533D01*
X29499688Y4624748D01*
X28922843Y4625251D01*
X28775305Y4564289D01*
X27980000Y5359594D01*
X27980000Y16230406D01*
X28417297Y16667703D01*
X28563619Y16886689D01*
X28605267Y17096070D01*
X28920312Y16965252D01*
X29497157Y16964749D01*
X30030286Y17185033D01*
X30438533Y17592569D01*
X30479828Y17692018D01*
X30520033Y17594714D01*
X30927569Y17186467D01*
X31460312Y16965252D01*
X32037157Y16964749D01*
X32570286Y17185033D01*
X32978533Y17592569D01*
X33019828Y17692018D01*
X33060033Y17594714D01*
X33060033Y17594714D01*
G37*
X33060033Y17594714D02*
X33467569Y17186467D01*
X34000312Y16965252D01*
X34577157Y16964749D01*
X34885000Y17091947D01*
X34885000Y4724594D01*
X34724869Y4564463D01*
X34579688Y4624748D01*
X34002843Y4625251D01*
X33469714Y4404967D01*
X33061467Y3997431D01*
X33020172Y3897982D01*
X32979967Y3995286D01*
X32572431Y4403533D01*
X32039688Y4624748D01*
X31462843Y4625251D01*
X30929714Y4404967D01*
X30521467Y3997431D01*
X30480172Y3897982D01*
X30439967Y3995286D01*
X30032431Y4403533D01*
X29499688Y4624748D01*
X28922843Y4625251D01*
X28775305Y4564289D01*
X27980000Y5359594D01*
X27980000Y16230406D01*
X28417297Y16667703D01*
X28563619Y16886689D01*
X28605267Y17096070D01*
X28920312Y16965252D01*
X29497157Y16964749D01*
X30030286Y17185033D01*
X30438533Y17592569D01*
X30479828Y17692018D01*
X30520033Y17594714D01*
X30927569Y17186467D01*
X31460312Y16965252D01*
X32037157Y16964749D01*
X32570286Y17185033D01*
X32978533Y17592569D01*
X33019828Y17692018D01*
X33060033Y17594714D01*
G36*
X15280033Y17594714D02*
X15687569Y17186467D01*
X16220312Y16965252D01*
X16645287Y16964881D01*
X14762703Y15082297D01*
X14616381Y14863312D01*
X14616381Y14863311D01*
X14565000Y14605000D01*
X14565000Y4724594D01*
X14404869Y4564463D01*
X14259688Y4624748D01*
X13682843Y4625251D01*
X13149714Y4404967D01*
X12741467Y3997431D01*
X12700172Y3897982D01*
X12659967Y3995286D01*
X12252431Y4403533D01*
X12105000Y4464752D01*
X12105000Y15595406D01*
X13177297Y16667703D01*
X13323619Y16886688D01*
X13365267Y17096070D01*
X13680312Y16965252D01*
X14257157Y16964749D01*
X14790286Y17185033D01*
X15198533Y17592569D01*
X15239828Y17692018D01*
X15280033Y17594714D01*
X15280033Y17594714D01*
G37*
X15280033Y17594714D02*
X15687569Y17186467D01*
X16220312Y16965252D01*
X16645287Y16964881D01*
X14762703Y15082297D01*
X14616381Y14863312D01*
X14616381Y14863311D01*
X14565000Y14605000D01*
X14565000Y4724594D01*
X14404869Y4564463D01*
X14259688Y4624748D01*
X13682843Y4625251D01*
X13149714Y4404967D01*
X12741467Y3997431D01*
X12700172Y3897982D01*
X12659967Y3995286D01*
X12252431Y4403533D01*
X12105000Y4464752D01*
X12105000Y15595406D01*
X13177297Y16667703D01*
X13323619Y16886688D01*
X13365267Y17096070D01*
X13680312Y16965252D01*
X14257157Y16964749D01*
X14790286Y17185033D01*
X15198533Y17592569D01*
X15239828Y17692018D01*
X15280033Y17594714D01*
G36*
X17600252Y65694688D02*
X17599749Y65117843D01*
X17660711Y64970305D01*
X16667703Y63977297D01*
X16521381Y63758312D01*
X16521381Y63758311D01*
X16470000Y63500000D01*
X16470000Y62509594D01*
X16032703Y62072297D01*
X15886381Y61853312D01*
X15886381Y61853311D01*
X15835000Y61595000D01*
X15835000Y60604594D01*
X15397703Y60167297D01*
X15251381Y59948312D01*
X15231369Y59847703D01*
X15200000Y59690000D01*
X15200000Y55993639D01*
X15143835Y56049902D01*
X14794796Y56194835D01*
X14416862Y56195165D01*
X14067571Y56050841D01*
X13800098Y55783835D01*
X13655165Y55434796D01*
X13654835Y55056862D01*
X13784194Y54743788D01*
X12105775Y53065369D01*
X12105775Y54040000D01*
X12067424Y54243818D01*
X12054600Y54263747D01*
X12102826Y54311973D01*
X12203000Y54553816D01*
X12203000Y55116200D01*
X12038500Y55280700D01*
X10899000Y55280700D01*
X10899000Y55260700D01*
X10691000Y55260700D01*
X10691000Y55280700D01*
X9551500Y55280700D01*
X9387000Y55116200D01*
X9387000Y54553816D01*
X9487174Y54311973D01*
X9533508Y54265640D01*
X9528406Y54258173D01*
X9484225Y54040000D01*
X9484225Y54015000D01*
X9042400Y54015000D01*
X8784088Y53963619D01*
X8604819Y53843834D01*
X8422400Y53880775D01*
X7122400Y53880775D01*
X6918582Y53842424D01*
X6731388Y53721968D01*
X6621812Y53561599D01*
X6525668Y53711012D01*
X6341873Y53836594D01*
X6123700Y53880775D01*
X4823700Y53880775D01*
X4619882Y53842424D01*
X4432688Y53721968D01*
X4394104Y53665498D01*
X4382825Y53692727D01*
X4197727Y53877826D01*
X3955884Y53978000D01*
X3443500Y53978000D01*
X3279000Y53813500D01*
X3279000Y52174000D01*
X3299000Y52174000D01*
X3299000Y51966000D01*
X3279000Y51966000D01*
X3279000Y50326500D01*
X3443500Y50162000D01*
X3955884Y50162000D01*
X4197727Y50262174D01*
X4382825Y50447273D01*
X4393454Y50472933D01*
X4421732Y50428988D01*
X4605527Y50303406D01*
X4798700Y50264288D01*
X4798700Y49570775D01*
X4380000Y49570775D01*
X4176182Y49532424D01*
X4156253Y49519600D01*
X4108027Y49567826D01*
X3866184Y49668000D01*
X3303800Y49668000D01*
X3139300Y49503500D01*
X3139300Y48364000D01*
X3159300Y48364000D01*
X3159300Y48156000D01*
X3139300Y48156000D01*
X3139300Y47016500D01*
X3303800Y46852000D01*
X3866184Y46852000D01*
X4108027Y46952174D01*
X4154360Y46998508D01*
X4161827Y46993406D01*
X4380000Y46949225D01*
X4405000Y46949225D01*
X4405000Y46355000D01*
X4456381Y46096688D01*
X4602703Y45877703D01*
X5040000Y45440406D01*
X5040000Y44856400D01*
X5091381Y44598088D01*
X5237703Y44379103D01*
X6709225Y42907581D01*
X6709225Y41451400D01*
X6747576Y41247582D01*
X6868032Y41060388D01*
X6945000Y41007798D01*
X6945000Y40045000D01*
X5755775Y40045000D01*
X5755775Y40070000D01*
X5717424Y40273818D01*
X5704600Y40293747D01*
X5752826Y40341973D01*
X5853000Y40583816D01*
X5853000Y41146200D01*
X5688500Y41310700D01*
X4549000Y41310700D01*
X4549000Y41290700D01*
X4341000Y41290700D01*
X4341000Y41310700D01*
X3201500Y41310700D01*
X3037000Y41146200D01*
X3037000Y40583816D01*
X3137174Y40341973D01*
X3183508Y40295640D01*
X3178406Y40288173D01*
X3134225Y40070000D01*
X3134225Y38670000D01*
X3172576Y38466182D01*
X3293032Y38278988D01*
X3476827Y38153406D01*
X3695000Y38109225D01*
X5195000Y38109225D01*
X5398818Y38147576D01*
X5586012Y38268032D01*
X5711594Y38451827D01*
X5755775Y38670000D01*
X5755775Y38695000D01*
X6945000Y38695000D01*
X6945000Y36872865D01*
X6860475Y36957538D01*
X6529806Y37094843D01*
X6171764Y37095156D01*
X5840857Y36958428D01*
X5755775Y36873494D01*
X5755775Y36895000D01*
X5717424Y37098818D01*
X5596968Y37286012D01*
X5413173Y37411594D01*
X5195000Y37455775D01*
X3695000Y37455775D01*
X3491182Y37417424D01*
X3303988Y37296968D01*
X3178406Y37113173D01*
X3134225Y36895000D01*
X3134225Y35495000D01*
X3172576Y35291182D01*
X3185400Y35271253D01*
X3137174Y35223027D01*
X3037000Y34981184D01*
X3037000Y34418800D01*
X3201500Y34254300D01*
X4341000Y34254300D01*
X4341000Y34274300D01*
X4549000Y34274300D01*
X4549000Y34254300D01*
X5688500Y34254300D01*
X5853000Y34418800D01*
X5853000Y34981184D01*
X5752826Y35223027D01*
X5706492Y35269360D01*
X5711594Y35276827D01*
X5755775Y35495000D01*
X5755775Y35516358D01*
X5839525Y35432462D01*
X6170194Y35295157D01*
X6528236Y35294844D01*
X6767410Y35393669D01*
X6753406Y35373173D01*
X6709225Y35155000D01*
X6709225Y32155000D01*
X6747576Y31951182D01*
X6868032Y31763988D01*
X7051827Y31638406D01*
X7270000Y31594225D01*
X7970000Y31594225D01*
X8173818Y31632576D01*
X8215000Y31659076D01*
X8215000Y29210000D01*
X8266381Y28951688D01*
X8412703Y28732703D01*
X15835000Y21310406D01*
X15835000Y19704998D01*
X15689714Y19644967D01*
X15281467Y19237431D01*
X15240172Y19137982D01*
X15199967Y19235286D01*
X14792431Y19643533D01*
X14259688Y19864748D01*
X13682843Y19865251D01*
X13375000Y19738053D01*
X13375000Y20357140D01*
X13462538Y20444525D01*
X13599843Y20775194D01*
X13600156Y21133236D01*
X13463428Y21464143D01*
X13210475Y21717538D01*
X12879806Y21854843D01*
X12521764Y21855156D01*
X12190857Y21718428D01*
X12065002Y21592793D01*
X11940475Y21717538D01*
X11609806Y21854843D01*
X11251764Y21855156D01*
X10920857Y21718428D01*
X10667462Y21465475D01*
X10530157Y21134806D01*
X10530048Y21009642D01*
X9682703Y20162297D01*
X9565000Y19986143D01*
X9565000Y25437140D01*
X9652538Y25524525D01*
X9789843Y25855194D01*
X9790156Y26213236D01*
X9653428Y26544143D01*
X9400475Y26797538D01*
X9069806Y26934843D01*
X8711764Y26935156D01*
X8380857Y26798428D01*
X8127462Y26545475D01*
X7990157Y26214806D01*
X7989844Y25856764D01*
X8126572Y25525857D01*
X8215000Y25437274D01*
X8215000Y21632865D01*
X8130475Y21717538D01*
X7799806Y21854843D01*
X7441764Y21855156D01*
X7110857Y21718428D01*
X7022274Y21630000D01*
X6985000Y21630000D01*
X6726689Y21578619D01*
X6507703Y21432297D01*
X4675647Y19600241D01*
X4632431Y19643533D01*
X4099688Y19864748D01*
X3522843Y19865251D01*
X2989714Y19644967D01*
X2608287Y19264204D01*
X2347786Y19345708D01*
X1417078Y18415000D01*
X2347786Y17484292D01*
X2608755Y17565942D01*
X2987569Y17186467D01*
X3520312Y16965252D01*
X4097157Y16964749D01*
X4405000Y17091947D01*
X4405000Y7264594D01*
X1704869Y4564463D01*
X1559688Y4624748D01*
X982843Y4625251D01*
X785000Y4543504D01*
X785000Y16932336D01*
X1001089Y16849403D01*
X1620686Y16865669D01*
X2117569Y17071486D01*
X2200708Y17337214D01*
X1270000Y18267922D01*
X1255858Y18253779D01*
X1108780Y18400857D01*
X1122922Y18415000D01*
X1108780Y18429142D01*
X1255858Y18576220D01*
X1270000Y18562078D01*
X2200708Y19492786D01*
X2117569Y19758514D01*
X1538911Y19980597D01*
X919314Y19964331D01*
X785000Y19908696D01*
X785000Y33881800D01*
X3037000Y33881800D01*
X3037000Y33319416D01*
X3137174Y33077573D01*
X3322273Y32892475D01*
X3564115Y32792300D01*
X4176500Y32792300D01*
X4341000Y32956800D01*
X4341000Y34046300D01*
X4549000Y34046300D01*
X4549000Y32956800D01*
X4713500Y32792300D01*
X5325885Y32792300D01*
X5567727Y32892475D01*
X5752826Y33077573D01*
X5853000Y33319416D01*
X5853000Y33881800D01*
X5688500Y34046300D01*
X4549000Y34046300D01*
X4341000Y34046300D01*
X3201500Y34046300D01*
X3037000Y33881800D01*
X785000Y33881800D01*
X785000Y42245584D01*
X3037000Y42245584D01*
X3037000Y41683200D01*
X3201500Y41518700D01*
X4341000Y41518700D01*
X4341000Y42608200D01*
X4549000Y42608200D01*
X4549000Y41518700D01*
X5688500Y41518700D01*
X5853000Y41683200D01*
X5853000Y42245584D01*
X5752826Y42487427D01*
X5567727Y42672525D01*
X5325885Y42772700D01*
X4713500Y42772700D01*
X4549000Y42608200D01*
X4341000Y42608200D01*
X4176500Y42772700D01*
X3564115Y42772700D01*
X3322273Y42672525D01*
X3137174Y42487427D01*
X3037000Y42245584D01*
X785000Y42245584D01*
X785000Y47991500D01*
X1677300Y47991500D01*
X1677300Y47379115D01*
X1777475Y47137273D01*
X1962573Y46952174D01*
X2204416Y46852000D01*
X2766800Y46852000D01*
X2931300Y47016500D01*
X2931300Y48156000D01*
X1841800Y48156000D01*
X1677300Y47991500D01*
X785000Y47991500D01*
X785000Y49140885D01*
X1677300Y49140885D01*
X1677300Y48528500D01*
X1841800Y48364000D01*
X2931300Y48364000D01*
X2931300Y49503500D01*
X2766800Y49668000D01*
X2204416Y49668000D01*
X1962573Y49567826D01*
X1777475Y49382727D01*
X1677300Y49140885D01*
X785000Y49140885D01*
X785000Y51801500D01*
X1867000Y51801500D01*
X1867000Y50689115D01*
X1967175Y50447273D01*
X2152273Y50262174D01*
X2394116Y50162000D01*
X2906500Y50162000D01*
X3071000Y50326500D01*
X3071000Y51966000D01*
X2031500Y51966000D01*
X1867000Y51801500D01*
X785000Y51801500D01*
X785000Y53450885D01*
X1867000Y53450885D01*
X1867000Y52338500D01*
X2031500Y52174000D01*
X3071000Y52174000D01*
X3071000Y53813500D01*
X2906500Y53978000D01*
X2394116Y53978000D01*
X2152273Y53877826D01*
X1967175Y53692727D01*
X1867000Y53450885D01*
X785000Y53450885D01*
X785000Y56215584D01*
X9387000Y56215584D01*
X9387000Y55653200D01*
X9551500Y55488700D01*
X10691000Y55488700D01*
X10691000Y56578200D01*
X10899000Y56578200D01*
X10899000Y55488700D01*
X12038500Y55488700D01*
X12203000Y55653200D01*
X12203000Y56215584D01*
X12102826Y56457427D01*
X11917727Y56642525D01*
X11675885Y56742700D01*
X11063500Y56742700D01*
X10899000Y56578200D01*
X10691000Y56578200D01*
X10526500Y56742700D01*
X9914115Y56742700D01*
X9672273Y56642525D01*
X9487174Y56457427D01*
X9387000Y56215584D01*
X785000Y56215584D01*
X785000Y59540000D01*
X3002910Y59540000D01*
X2987925Y59466000D01*
X2987925Y56866000D01*
X3026276Y56662182D01*
X3146732Y56474988D01*
X3330527Y56349406D01*
X3548700Y56305225D01*
X7398700Y56305225D01*
X7602518Y56343576D01*
X7789712Y56464032D01*
X7915294Y56647827D01*
X7959475Y56866000D01*
X7959475Y59466000D01*
X7945551Y59540000D01*
X14605000Y59540000D01*
X14663358Y59551818D01*
X14712521Y59585409D01*
X14744742Y59635481D01*
X14755000Y59690000D01*
X14755000Y65890000D01*
X17681353Y65890000D01*
X17600252Y65694688D01*
X17600252Y65694688D01*
G37*
X17600252Y65694688D02*
X17599749Y65117843D01*
X17660711Y64970305D01*
X16667703Y63977297D01*
X16521381Y63758312D01*
X16521381Y63758311D01*
X16470000Y63500000D01*
X16470000Y62509594D01*
X16032703Y62072297D01*
X15886381Y61853312D01*
X15886381Y61853311D01*
X15835000Y61595000D01*
X15835000Y60604594D01*
X15397703Y60167297D01*
X15251381Y59948312D01*
X15231369Y59847703D01*
X15200000Y59690000D01*
X15200000Y55993639D01*
X15143835Y56049902D01*
X14794796Y56194835D01*
X14416862Y56195165D01*
X14067571Y56050841D01*
X13800098Y55783835D01*
X13655165Y55434796D01*
X13654835Y55056862D01*
X13784194Y54743788D01*
X12105775Y53065369D01*
X12105775Y54040000D01*
X12067424Y54243818D01*
X12054600Y54263747D01*
X12102826Y54311973D01*
X12203000Y54553816D01*
X12203000Y55116200D01*
X12038500Y55280700D01*
X10899000Y55280700D01*
X10899000Y55260700D01*
X10691000Y55260700D01*
X10691000Y55280700D01*
X9551500Y55280700D01*
X9387000Y55116200D01*
X9387000Y54553816D01*
X9487174Y54311973D01*
X9533508Y54265640D01*
X9528406Y54258173D01*
X9484225Y54040000D01*
X9484225Y54015000D01*
X9042400Y54015000D01*
X8784088Y53963619D01*
X8604819Y53843834D01*
X8422400Y53880775D01*
X7122400Y53880775D01*
X6918582Y53842424D01*
X6731388Y53721968D01*
X6621812Y53561599D01*
X6525668Y53711012D01*
X6341873Y53836594D01*
X6123700Y53880775D01*
X4823700Y53880775D01*
X4619882Y53842424D01*
X4432688Y53721968D01*
X4394104Y53665498D01*
X4382825Y53692727D01*
X4197727Y53877826D01*
X3955884Y53978000D01*
X3443500Y53978000D01*
X3279000Y53813500D01*
X3279000Y52174000D01*
X3299000Y52174000D01*
X3299000Y51966000D01*
X3279000Y51966000D01*
X3279000Y50326500D01*
X3443500Y50162000D01*
X3955884Y50162000D01*
X4197727Y50262174D01*
X4382825Y50447273D01*
X4393454Y50472933D01*
X4421732Y50428988D01*
X4605527Y50303406D01*
X4798700Y50264288D01*
X4798700Y49570775D01*
X4380000Y49570775D01*
X4176182Y49532424D01*
X4156253Y49519600D01*
X4108027Y49567826D01*
X3866184Y49668000D01*
X3303800Y49668000D01*
X3139300Y49503500D01*
X3139300Y48364000D01*
X3159300Y48364000D01*
X3159300Y48156000D01*
X3139300Y48156000D01*
X3139300Y47016500D01*
X3303800Y46852000D01*
X3866184Y46852000D01*
X4108027Y46952174D01*
X4154360Y46998508D01*
X4161827Y46993406D01*
X4380000Y46949225D01*
X4405000Y46949225D01*
X4405000Y46355000D01*
X4456381Y46096688D01*
X4602703Y45877703D01*
X5040000Y45440406D01*
X5040000Y44856400D01*
X5091381Y44598088D01*
X5237703Y44379103D01*
X6709225Y42907581D01*
X6709225Y41451400D01*
X6747576Y41247582D01*
X6868032Y41060388D01*
X6945000Y41007798D01*
X6945000Y40045000D01*
X5755775Y40045000D01*
X5755775Y40070000D01*
X5717424Y40273818D01*
X5704600Y40293747D01*
X5752826Y40341973D01*
X5853000Y40583816D01*
X5853000Y41146200D01*
X5688500Y41310700D01*
X4549000Y41310700D01*
X4549000Y41290700D01*
X4341000Y41290700D01*
X4341000Y41310700D01*
X3201500Y41310700D01*
X3037000Y41146200D01*
X3037000Y40583816D01*
X3137174Y40341973D01*
X3183508Y40295640D01*
X3178406Y40288173D01*
X3134225Y40070000D01*
X3134225Y38670000D01*
X3172576Y38466182D01*
X3293032Y38278988D01*
X3476827Y38153406D01*
X3695000Y38109225D01*
X5195000Y38109225D01*
X5398818Y38147576D01*
X5586012Y38268032D01*
X5711594Y38451827D01*
X5755775Y38670000D01*
X5755775Y38695000D01*
X6945000Y38695000D01*
X6945000Y36872865D01*
X6860475Y36957538D01*
X6529806Y37094843D01*
X6171764Y37095156D01*
X5840857Y36958428D01*
X5755775Y36873494D01*
X5755775Y36895000D01*
X5717424Y37098818D01*
X5596968Y37286012D01*
X5413173Y37411594D01*
X5195000Y37455775D01*
X3695000Y37455775D01*
X3491182Y37417424D01*
X3303988Y37296968D01*
X3178406Y37113173D01*
X3134225Y36895000D01*
X3134225Y35495000D01*
X3172576Y35291182D01*
X3185400Y35271253D01*
X3137174Y35223027D01*
X3037000Y34981184D01*
X3037000Y34418800D01*
X3201500Y34254300D01*
X4341000Y34254300D01*
X4341000Y34274300D01*
X4549000Y34274300D01*
X4549000Y34254300D01*
X5688500Y34254300D01*
X5853000Y34418800D01*
X5853000Y34981184D01*
X5752826Y35223027D01*
X5706492Y35269360D01*
X5711594Y35276827D01*
X5755775Y35495000D01*
X5755775Y35516358D01*
X5839525Y35432462D01*
X6170194Y35295157D01*
X6528236Y35294844D01*
X6767410Y35393669D01*
X6753406Y35373173D01*
X6709225Y35155000D01*
X6709225Y32155000D01*
X6747576Y31951182D01*
X6868032Y31763988D01*
X7051827Y31638406D01*
X7270000Y31594225D01*
X7970000Y31594225D01*
X8173818Y31632576D01*
X8215000Y31659076D01*
X8215000Y29210000D01*
X8266381Y28951688D01*
X8412703Y28732703D01*
X15835000Y21310406D01*
X15835000Y19704998D01*
X15689714Y19644967D01*
X15281467Y19237431D01*
X15240172Y19137982D01*
X15199967Y19235286D01*
X14792431Y19643533D01*
X14259688Y19864748D01*
X13682843Y19865251D01*
X13375000Y19738053D01*
X13375000Y20357140D01*
X13462538Y20444525D01*
X13599843Y20775194D01*
X13600156Y21133236D01*
X13463428Y21464143D01*
X13210475Y21717538D01*
X12879806Y21854843D01*
X12521764Y21855156D01*
X12190857Y21718428D01*
X12065002Y21592793D01*
X11940475Y21717538D01*
X11609806Y21854843D01*
X11251764Y21855156D01*
X10920857Y21718428D01*
X10667462Y21465475D01*
X10530157Y21134806D01*
X10530048Y21009642D01*
X9682703Y20162297D01*
X9565000Y19986143D01*
X9565000Y25437140D01*
X9652538Y25524525D01*
X9789843Y25855194D01*
X9790156Y26213236D01*
X9653428Y26544143D01*
X9400475Y26797538D01*
X9069806Y26934843D01*
X8711764Y26935156D01*
X8380857Y26798428D01*
X8127462Y26545475D01*
X7990157Y26214806D01*
X7989844Y25856764D01*
X8126572Y25525857D01*
X8215000Y25437274D01*
X8215000Y21632865D01*
X8130475Y21717538D01*
X7799806Y21854843D01*
X7441764Y21855156D01*
X7110857Y21718428D01*
X7022274Y21630000D01*
X6985000Y21630000D01*
X6726689Y21578619D01*
X6507703Y21432297D01*
X4675647Y19600241D01*
X4632431Y19643533D01*
X4099688Y19864748D01*
X3522843Y19865251D01*
X2989714Y19644967D01*
X2608287Y19264204D01*
X2347786Y19345708D01*
X1417078Y18415000D01*
X2347786Y17484292D01*
X2608755Y17565942D01*
X2987569Y17186467D01*
X3520312Y16965252D01*
X4097157Y16964749D01*
X4405000Y17091947D01*
X4405000Y7264594D01*
X1704869Y4564463D01*
X1559688Y4624748D01*
X982843Y4625251D01*
X785000Y4543504D01*
X785000Y16932336D01*
X1001089Y16849403D01*
X1620686Y16865669D01*
X2117569Y17071486D01*
X2200708Y17337214D01*
X1270000Y18267922D01*
X1255858Y18253779D01*
X1108780Y18400857D01*
X1122922Y18415000D01*
X1108780Y18429142D01*
X1255858Y18576220D01*
X1270000Y18562078D01*
X2200708Y19492786D01*
X2117569Y19758514D01*
X1538911Y19980597D01*
X919314Y19964331D01*
X785000Y19908696D01*
X785000Y33881800D01*
X3037000Y33881800D01*
X3037000Y33319416D01*
X3137174Y33077573D01*
X3322273Y32892475D01*
X3564115Y32792300D01*
X4176500Y32792300D01*
X4341000Y32956800D01*
X4341000Y34046300D01*
X4549000Y34046300D01*
X4549000Y32956800D01*
X4713500Y32792300D01*
X5325885Y32792300D01*
X5567727Y32892475D01*
X5752826Y33077573D01*
X5853000Y33319416D01*
X5853000Y33881800D01*
X5688500Y34046300D01*
X4549000Y34046300D01*
X4341000Y34046300D01*
X3201500Y34046300D01*
X3037000Y33881800D01*
X785000Y33881800D01*
X785000Y42245584D01*
X3037000Y42245584D01*
X3037000Y41683200D01*
X3201500Y41518700D01*
X4341000Y41518700D01*
X4341000Y42608200D01*
X4549000Y42608200D01*
X4549000Y41518700D01*
X5688500Y41518700D01*
X5853000Y41683200D01*
X5853000Y42245584D01*
X5752826Y42487427D01*
X5567727Y42672525D01*
X5325885Y42772700D01*
X4713500Y42772700D01*
X4549000Y42608200D01*
X4341000Y42608200D01*
X4176500Y42772700D01*
X3564115Y42772700D01*
X3322273Y42672525D01*
X3137174Y42487427D01*
X3037000Y42245584D01*
X785000Y42245584D01*
X785000Y47991500D01*
X1677300Y47991500D01*
X1677300Y47379115D01*
X1777475Y47137273D01*
X1962573Y46952174D01*
X2204416Y46852000D01*
X2766800Y46852000D01*
X2931300Y47016500D01*
X2931300Y48156000D01*
X1841800Y48156000D01*
X1677300Y47991500D01*
X785000Y47991500D01*
X785000Y49140885D01*
X1677300Y49140885D01*
X1677300Y48528500D01*
X1841800Y48364000D01*
X2931300Y48364000D01*
X2931300Y49503500D01*
X2766800Y49668000D01*
X2204416Y49668000D01*
X1962573Y49567826D01*
X1777475Y49382727D01*
X1677300Y49140885D01*
X785000Y49140885D01*
X785000Y51801500D01*
X1867000Y51801500D01*
X1867000Y50689115D01*
X1967175Y50447273D01*
X2152273Y50262174D01*
X2394116Y50162000D01*
X2906500Y50162000D01*
X3071000Y50326500D01*
X3071000Y51966000D01*
X2031500Y51966000D01*
X1867000Y51801500D01*
X785000Y51801500D01*
X785000Y53450885D01*
X1867000Y53450885D01*
X1867000Y52338500D01*
X2031500Y52174000D01*
X3071000Y52174000D01*
X3071000Y53813500D01*
X2906500Y53978000D01*
X2394116Y53978000D01*
X2152273Y53877826D01*
X1967175Y53692727D01*
X1867000Y53450885D01*
X785000Y53450885D01*
X785000Y56215584D01*
X9387000Y56215584D01*
X9387000Y55653200D01*
X9551500Y55488700D01*
X10691000Y55488700D01*
X10691000Y56578200D01*
X10899000Y56578200D01*
X10899000Y55488700D01*
X12038500Y55488700D01*
X12203000Y55653200D01*
X12203000Y56215584D01*
X12102826Y56457427D01*
X11917727Y56642525D01*
X11675885Y56742700D01*
X11063500Y56742700D01*
X10899000Y56578200D01*
X10691000Y56578200D01*
X10526500Y56742700D01*
X9914115Y56742700D01*
X9672273Y56642525D01*
X9487174Y56457427D01*
X9387000Y56215584D01*
X785000Y56215584D01*
X785000Y59540000D01*
X3002910Y59540000D01*
X2987925Y59466000D01*
X2987925Y56866000D01*
X3026276Y56662182D01*
X3146732Y56474988D01*
X3330527Y56349406D01*
X3548700Y56305225D01*
X7398700Y56305225D01*
X7602518Y56343576D01*
X7789712Y56464032D01*
X7915294Y56647827D01*
X7959475Y56866000D01*
X7959475Y59466000D01*
X7945551Y59540000D01*
X14605000Y59540000D01*
X14663358Y59551818D01*
X14712521Y59585409D01*
X14744742Y59635481D01*
X14755000Y59690000D01*
X14755000Y65890000D01*
X17681353Y65890000D01*
X17600252Y65694688D01*
G36*
X41009844Y30301764D02*
X41146572Y29970857D01*
X41399525Y29717462D01*
X41730194Y29580157D01*
X42088236Y29579844D01*
X42419143Y29716572D01*
X42505000Y29802279D01*
X42505000Y28854594D01*
X42056299Y28405893D01*
X42038428Y28449143D01*
X41785475Y28702538D01*
X41454806Y28839843D01*
X41096764Y28840156D01*
X40765857Y28703428D01*
X40512462Y28450475D01*
X40375157Y28119806D01*
X40375048Y27994642D01*
X37622703Y25242297D01*
X37476381Y25023312D01*
X37476381Y25023311D01*
X37425000Y24765000D01*
X37425000Y19737971D01*
X37119688Y19864748D01*
X36542843Y19865251D01*
X36225249Y19734024D01*
X36183619Y19943311D01*
X36183619Y19943312D01*
X36037297Y20162297D01*
X34555048Y21644546D01*
X34555156Y21768236D01*
X34418428Y22099143D01*
X34165475Y22352538D01*
X33834806Y22489843D01*
X33569041Y22490075D01*
X33643619Y22601689D01*
X33695000Y22860000D01*
X33695000Y25134965D01*
X33833236Y25134844D01*
X34164143Y25271572D01*
X34252726Y25360000D01*
X35560000Y25360000D01*
X35818312Y25411381D01*
X36037297Y25557703D01*
X41010044Y30530450D01*
X41009844Y30301764D01*
X41009844Y30301764D01*
G37*
X41009844Y30301764D02*
X41146572Y29970857D01*
X41399525Y29717462D01*
X41730194Y29580157D01*
X42088236Y29579844D01*
X42419143Y29716572D01*
X42505000Y29802279D01*
X42505000Y28854594D01*
X42056299Y28405893D01*
X42038428Y28449143D01*
X41785475Y28702538D01*
X41454806Y28839843D01*
X41096764Y28840156D01*
X40765857Y28703428D01*
X40512462Y28450475D01*
X40375157Y28119806D01*
X40375048Y27994642D01*
X37622703Y25242297D01*
X37476381Y25023312D01*
X37476381Y25023311D01*
X37425000Y24765000D01*
X37425000Y19737971D01*
X37119688Y19864748D01*
X36542843Y19865251D01*
X36225249Y19734024D01*
X36183619Y19943311D01*
X36183619Y19943312D01*
X36037297Y20162297D01*
X34555048Y21644546D01*
X34555156Y21768236D01*
X34418428Y22099143D01*
X34165475Y22352538D01*
X33834806Y22489843D01*
X33569041Y22490075D01*
X33643619Y22601689D01*
X33695000Y22860000D01*
X33695000Y25134965D01*
X33833236Y25134844D01*
X34164143Y25271572D01*
X34252726Y25360000D01*
X35560000Y25360000D01*
X35818312Y25411381D01*
X36037297Y25557703D01*
X41010044Y30530450D01*
X41009844Y30301764D01*
G36*
X63985000Y24915000D02*
X40474594Y24915000D01*
X43033701Y27474107D01*
X43051572Y27430857D01*
X43304525Y27177462D01*
X43635194Y27040157D01*
X43993236Y27039844D01*
X44324143Y27176572D01*
X44577538Y27429525D01*
X44714843Y27760194D01*
X44714952Y27885358D01*
X46090044Y29260450D01*
X46089844Y29031764D01*
X46226572Y28700857D01*
X46479525Y28447462D01*
X46810194Y28310157D01*
X47168236Y28309844D01*
X47499143Y28446572D01*
X47752538Y28699525D01*
X47889843Y29030194D01*
X47890156Y29388236D01*
X47753428Y29719143D01*
X47665000Y29807726D01*
X47665000Y31544268D01*
X47779115Y31497000D01*
X47991500Y31497000D01*
X48156000Y31661500D01*
X48156000Y33551000D01*
X48364000Y33551000D01*
X48364000Y31661500D01*
X48528500Y31497000D01*
X48740885Y31497000D01*
X48982727Y31597175D01*
X49167826Y31782273D01*
X49268000Y32024116D01*
X49268000Y33386500D01*
X49103500Y33551000D01*
X48364000Y33551000D01*
X48156000Y33551000D01*
X48136000Y33551000D01*
X48136000Y33759000D01*
X48156000Y33759000D01*
X48156000Y35648500D01*
X48364000Y35648500D01*
X48364000Y33759000D01*
X49103500Y33759000D01*
X49268000Y33923500D01*
X49268000Y35285884D01*
X49167826Y35527727D01*
X48982727Y35712825D01*
X48804137Y35786800D01*
X50662000Y35786800D01*
X50662000Y35224416D01*
X50762174Y34982573D01*
X50947273Y34797475D01*
X51189115Y34697300D01*
X51801500Y34697300D01*
X51966000Y34861800D01*
X51966000Y35951300D01*
X52174000Y35951300D01*
X52174000Y34861800D01*
X52338500Y34697300D01*
X52950885Y34697300D01*
X53192727Y34797475D01*
X53377826Y34982573D01*
X53478000Y35224416D01*
X53478000Y35786800D01*
X53313500Y35951300D01*
X52174000Y35951300D01*
X51966000Y35951300D01*
X50826500Y35951300D01*
X50662000Y35786800D01*
X48804137Y35786800D01*
X48740885Y35813000D01*
X48528500Y35813000D01*
X48364000Y35648500D01*
X48156000Y35648500D01*
X47991500Y35813000D01*
X47779115Y35813000D01*
X47537273Y35712825D01*
X47506505Y35682057D01*
X47340000Y35715775D01*
X46640000Y35715775D01*
X46436182Y35677424D01*
X46355564Y35625548D01*
X46288173Y35671594D01*
X46070000Y35715775D01*
X45560369Y35715775D01*
X47269594Y37425000D01*
X50759225Y37425000D01*
X50759225Y37400000D01*
X50797576Y37196182D01*
X50810400Y37176253D01*
X50762174Y37128027D01*
X50662000Y36886184D01*
X50662000Y36323800D01*
X50826500Y36159300D01*
X51966000Y36159300D01*
X51966000Y36179300D01*
X52174000Y36179300D01*
X52174000Y36159300D01*
X53313500Y36159300D01*
X53478000Y36323800D01*
X53478000Y36886184D01*
X53377826Y37128027D01*
X53331492Y37174360D01*
X53336594Y37181827D01*
X53380775Y37400000D01*
X53380775Y38800000D01*
X53342424Y39003818D01*
X53221968Y39191012D01*
X53038173Y39316594D01*
X52820000Y39360775D01*
X51320000Y39360775D01*
X51116182Y39322424D01*
X50928988Y39201968D01*
X50803406Y39018173D01*
X50759225Y38800000D01*
X50759225Y38775000D01*
X46990000Y38775000D01*
X46731689Y38723619D01*
X46731687Y38723618D01*
X46731688Y38723618D01*
X46512703Y38577297D01*
X43972703Y36037297D01*
X43826381Y35818312D01*
X43820113Y35786800D01*
X43791332Y35642105D01*
X43748173Y35671594D01*
X43530000Y35715775D01*
X42830000Y35715775D01*
X42626182Y35677424D01*
X42545564Y35625548D01*
X42478173Y35671594D01*
X42260000Y35715775D01*
X41560000Y35715775D01*
X41356182Y35677424D01*
X41275564Y35625548D01*
X41208173Y35671594D01*
X40990000Y35715775D01*
X40290000Y35715775D01*
X40086182Y35677424D01*
X40005564Y35625548D01*
X39938173Y35671594D01*
X39720000Y35715775D01*
X39020000Y35715775D01*
X38816182Y35677424D01*
X38735564Y35625548D01*
X38668173Y35671594D01*
X38450000Y35715775D01*
X37750000Y35715775D01*
X37546182Y35677424D01*
X37505000Y35650924D01*
X37505000Y40840668D01*
X37619115Y40793400D01*
X37831500Y40793400D01*
X37996000Y40957900D01*
X37996000Y42847400D01*
X37976000Y42847400D01*
X37976000Y43055400D01*
X37996000Y43055400D01*
X37996000Y44944900D01*
X37831500Y45109400D01*
X37619115Y45109400D01*
X37505000Y45062132D01*
X37505000Y45085000D01*
X37473631Y45242703D01*
X37453619Y45343312D01*
X37307297Y45562297D01*
X36566878Y46302716D01*
X36773816Y46217000D01*
X37336200Y46217000D01*
X37500700Y46381500D01*
X37500700Y47521000D01*
X37480700Y47521000D01*
X37480700Y47729000D01*
X37500700Y47729000D01*
X37500700Y48868500D01*
X37336200Y49033000D01*
X36773816Y49033000D01*
X36531973Y48932826D01*
X36485640Y48886492D01*
X36478173Y48891594D01*
X36260000Y48935775D01*
X35203819Y48935775D01*
X33695000Y50444594D01*
X33695000Y50809225D01*
X33770000Y50809225D01*
X33973818Y50847576D01*
X34161012Y50968032D01*
X34286594Y51151827D01*
X34330775Y51370000D01*
X34330775Y51395000D01*
X34891490Y51395000D01*
X35021165Y51265098D01*
X35370204Y51120165D01*
X35748138Y51119835D01*
X36097429Y51264159D01*
X36364902Y51531165D01*
X36509835Y51880204D01*
X36510001Y52070405D01*
X38695000Y49885406D01*
X38695000Y48915253D01*
X38677427Y48932826D01*
X38435584Y49033000D01*
X37873200Y49033000D01*
X37708700Y48868500D01*
X37708700Y47729000D01*
X37728700Y47729000D01*
X37728700Y47521000D01*
X37708700Y47521000D01*
X37708700Y46381500D01*
X37873200Y46217000D01*
X38435584Y46217000D01*
X38677427Y46317174D01*
X38695000Y46334747D01*
X38695000Y45062132D01*
X38580885Y45109400D01*
X38368500Y45109400D01*
X38204000Y44944900D01*
X38204000Y43055400D01*
X38224000Y43055400D01*
X38224000Y42847400D01*
X38204000Y42847400D01*
X38204000Y40957900D01*
X38368500Y40793400D01*
X38580885Y40793400D01*
X38822727Y40893575D01*
X38853495Y40924343D01*
X39020000Y40890625D01*
X39720000Y40890625D01*
X39923818Y40928976D01*
X40004436Y40980852D01*
X40071827Y40934806D01*
X40290000Y40890625D01*
X40990000Y40890625D01*
X41193818Y40928976D01*
X41274436Y40980852D01*
X41341827Y40934806D01*
X41560000Y40890625D01*
X42260000Y40890625D01*
X42463818Y40928976D01*
X42544436Y40980852D01*
X42611827Y40934806D01*
X42830000Y40890625D01*
X43530000Y40890625D01*
X43733818Y40928976D01*
X43814436Y40980852D01*
X43881827Y40934806D01*
X44100000Y40890625D01*
X44800000Y40890625D01*
X45003818Y40928976D01*
X45084436Y40980852D01*
X45151827Y40934806D01*
X45370000Y40890625D01*
X46070000Y40890625D01*
X46273818Y40928976D01*
X46354436Y40980852D01*
X46421827Y40934806D01*
X46640000Y40890625D01*
X47340000Y40890625D01*
X47543818Y40928976D01*
X47624436Y40980852D01*
X47691827Y40934806D01*
X47910000Y40890625D01*
X48610000Y40890625D01*
X48813818Y40928976D01*
X49001012Y41049432D01*
X49126594Y41233227D01*
X49170775Y41451400D01*
X49170775Y42907581D01*
X50673194Y44410000D01*
X60960000Y44410000D01*
X61218312Y44461381D01*
X61437297Y44607703D01*
X62707297Y45877703D01*
X62853619Y46096688D01*
X62905000Y46355000D01*
X62905000Y62865000D01*
X62853619Y63123311D01*
X62707297Y63342297D01*
X61079463Y64970131D01*
X61139748Y65115312D01*
X61140251Y65692157D01*
X61058504Y65890000D01*
X63985000Y65890000D01*
X63985000Y24915000D01*
X63985000Y24915000D01*
G37*
X63985000Y24915000D02*
X40474594Y24915000D01*
X43033701Y27474107D01*
X43051572Y27430857D01*
X43304525Y27177462D01*
X43635194Y27040157D01*
X43993236Y27039844D01*
X44324143Y27176572D01*
X44577538Y27429525D01*
X44714843Y27760194D01*
X44714952Y27885358D01*
X46090044Y29260450D01*
X46089844Y29031764D01*
X46226572Y28700857D01*
X46479525Y28447462D01*
X46810194Y28310157D01*
X47168236Y28309844D01*
X47499143Y28446572D01*
X47752538Y28699525D01*
X47889843Y29030194D01*
X47890156Y29388236D01*
X47753428Y29719143D01*
X47665000Y29807726D01*
X47665000Y31544268D01*
X47779115Y31497000D01*
X47991500Y31497000D01*
X48156000Y31661500D01*
X48156000Y33551000D01*
X48364000Y33551000D01*
X48364000Y31661500D01*
X48528500Y31497000D01*
X48740885Y31497000D01*
X48982727Y31597175D01*
X49167826Y31782273D01*
X49268000Y32024116D01*
X49268000Y33386500D01*
X49103500Y33551000D01*
X48364000Y33551000D01*
X48156000Y33551000D01*
X48136000Y33551000D01*
X48136000Y33759000D01*
X48156000Y33759000D01*
X48156000Y35648500D01*
X48364000Y35648500D01*
X48364000Y33759000D01*
X49103500Y33759000D01*
X49268000Y33923500D01*
X49268000Y35285884D01*
X49167826Y35527727D01*
X48982727Y35712825D01*
X48804137Y35786800D01*
X50662000Y35786800D01*
X50662000Y35224416D01*
X50762174Y34982573D01*
X50947273Y34797475D01*
X51189115Y34697300D01*
X51801500Y34697300D01*
X51966000Y34861800D01*
X51966000Y35951300D01*
X52174000Y35951300D01*
X52174000Y34861800D01*
X52338500Y34697300D01*
X52950885Y34697300D01*
X53192727Y34797475D01*
X53377826Y34982573D01*
X53478000Y35224416D01*
X53478000Y35786800D01*
X53313500Y35951300D01*
X52174000Y35951300D01*
X51966000Y35951300D01*
X50826500Y35951300D01*
X50662000Y35786800D01*
X48804137Y35786800D01*
X48740885Y35813000D01*
X48528500Y35813000D01*
X48364000Y35648500D01*
X48156000Y35648500D01*
X47991500Y35813000D01*
X47779115Y35813000D01*
X47537273Y35712825D01*
X47506505Y35682057D01*
X47340000Y35715775D01*
X46640000Y35715775D01*
X46436182Y35677424D01*
X46355564Y35625548D01*
X46288173Y35671594D01*
X46070000Y35715775D01*
X45560369Y35715775D01*
X47269594Y37425000D01*
X50759225Y37425000D01*
X50759225Y37400000D01*
X50797576Y37196182D01*
X50810400Y37176253D01*
X50762174Y37128027D01*
X50662000Y36886184D01*
X50662000Y36323800D01*
X50826500Y36159300D01*
X51966000Y36159300D01*
X51966000Y36179300D01*
X52174000Y36179300D01*
X52174000Y36159300D01*
X53313500Y36159300D01*
X53478000Y36323800D01*
X53478000Y36886184D01*
X53377826Y37128027D01*
X53331492Y37174360D01*
X53336594Y37181827D01*
X53380775Y37400000D01*
X53380775Y38800000D01*
X53342424Y39003818D01*
X53221968Y39191012D01*
X53038173Y39316594D01*
X52820000Y39360775D01*
X51320000Y39360775D01*
X51116182Y39322424D01*
X50928988Y39201968D01*
X50803406Y39018173D01*
X50759225Y38800000D01*
X50759225Y38775000D01*
X46990000Y38775000D01*
X46731689Y38723619D01*
X46731687Y38723618D01*
X46731688Y38723618D01*
X46512703Y38577297D01*
X43972703Y36037297D01*
X43826381Y35818312D01*
X43820113Y35786800D01*
X43791332Y35642105D01*
X43748173Y35671594D01*
X43530000Y35715775D01*
X42830000Y35715775D01*
X42626182Y35677424D01*
X42545564Y35625548D01*
X42478173Y35671594D01*
X42260000Y35715775D01*
X41560000Y35715775D01*
X41356182Y35677424D01*
X41275564Y35625548D01*
X41208173Y35671594D01*
X40990000Y35715775D01*
X40290000Y35715775D01*
X40086182Y35677424D01*
X40005564Y35625548D01*
X39938173Y35671594D01*
X39720000Y35715775D01*
X39020000Y35715775D01*
X38816182Y35677424D01*
X38735564Y35625548D01*
X38668173Y35671594D01*
X38450000Y35715775D01*
X37750000Y35715775D01*
X37546182Y35677424D01*
X37505000Y35650924D01*
X37505000Y40840668D01*
X37619115Y40793400D01*
X37831500Y40793400D01*
X37996000Y40957900D01*
X37996000Y42847400D01*
X37976000Y42847400D01*
X37976000Y43055400D01*
X37996000Y43055400D01*
X37996000Y44944900D01*
X37831500Y45109400D01*
X37619115Y45109400D01*
X37505000Y45062132D01*
X37505000Y45085000D01*
X37473631Y45242703D01*
X37453619Y45343312D01*
X37307297Y45562297D01*
X36566878Y46302716D01*
X36773816Y46217000D01*
X37336200Y46217000D01*
X37500700Y46381500D01*
X37500700Y47521000D01*
X37480700Y47521000D01*
X37480700Y47729000D01*
X37500700Y47729000D01*
X37500700Y48868500D01*
X37336200Y49033000D01*
X36773816Y49033000D01*
X36531973Y48932826D01*
X36485640Y48886492D01*
X36478173Y48891594D01*
X36260000Y48935775D01*
X35203819Y48935775D01*
X33695000Y50444594D01*
X33695000Y50809225D01*
X33770000Y50809225D01*
X33973818Y50847576D01*
X34161012Y50968032D01*
X34286594Y51151827D01*
X34330775Y51370000D01*
X34330775Y51395000D01*
X34891490Y51395000D01*
X35021165Y51265098D01*
X35370204Y51120165D01*
X35748138Y51119835D01*
X36097429Y51264159D01*
X36364902Y51531165D01*
X36509835Y51880204D01*
X36510001Y52070405D01*
X38695000Y49885406D01*
X38695000Y48915253D01*
X38677427Y48932826D01*
X38435584Y49033000D01*
X37873200Y49033000D01*
X37708700Y48868500D01*
X37708700Y47729000D01*
X37728700Y47729000D01*
X37728700Y47521000D01*
X37708700Y47521000D01*
X37708700Y46381500D01*
X37873200Y46217000D01*
X38435584Y46217000D01*
X38677427Y46317174D01*
X38695000Y46334747D01*
X38695000Y45062132D01*
X38580885Y45109400D01*
X38368500Y45109400D01*
X38204000Y44944900D01*
X38204000Y43055400D01*
X38224000Y43055400D01*
X38224000Y42847400D01*
X38204000Y42847400D01*
X38204000Y40957900D01*
X38368500Y40793400D01*
X38580885Y40793400D01*
X38822727Y40893575D01*
X38853495Y40924343D01*
X39020000Y40890625D01*
X39720000Y40890625D01*
X39923818Y40928976D01*
X40004436Y40980852D01*
X40071827Y40934806D01*
X40290000Y40890625D01*
X40990000Y40890625D01*
X41193818Y40928976D01*
X41274436Y40980852D01*
X41341827Y40934806D01*
X41560000Y40890625D01*
X42260000Y40890625D01*
X42463818Y40928976D01*
X42544436Y40980852D01*
X42611827Y40934806D01*
X42830000Y40890625D01*
X43530000Y40890625D01*
X43733818Y40928976D01*
X43814436Y40980852D01*
X43881827Y40934806D01*
X44100000Y40890625D01*
X44800000Y40890625D01*
X45003818Y40928976D01*
X45084436Y40980852D01*
X45151827Y40934806D01*
X45370000Y40890625D01*
X46070000Y40890625D01*
X46273818Y40928976D01*
X46354436Y40980852D01*
X46421827Y40934806D01*
X46640000Y40890625D01*
X47340000Y40890625D01*
X47543818Y40928976D01*
X47624436Y40980852D01*
X47691827Y40934806D01*
X47910000Y40890625D01*
X48610000Y40890625D01*
X48813818Y40928976D01*
X49001012Y41049432D01*
X49126594Y41233227D01*
X49170775Y41451400D01*
X49170775Y42907581D01*
X50673194Y44410000D01*
X60960000Y44410000D01*
X61218312Y44461381D01*
X61437297Y44607703D01*
X62707297Y45877703D01*
X62853619Y46096688D01*
X62905000Y46355000D01*
X62905000Y62865000D01*
X62853619Y63123311D01*
X62707297Y63342297D01*
X61079463Y64970131D01*
X61139748Y65115312D01*
X61140251Y65692157D01*
X61058504Y65890000D01*
X63985000Y65890000D01*
X63985000Y24915000D01*
G36*
X21550000Y35599446D02*
X21483988Y35556968D01*
X21358406Y35373173D01*
X21314225Y35155000D01*
X21314225Y32155000D01*
X21352576Y31951182D01*
X21473032Y31763988D01*
X21550000Y31711398D01*
X21550000Y30759594D01*
X21311181Y30520775D01*
X20890000Y30520775D01*
X20686182Y30482424D01*
X20666253Y30469600D01*
X20618027Y30517826D01*
X20376184Y30618000D01*
X19813800Y30618000D01*
X19649300Y30453500D01*
X19649300Y29314000D01*
X19669300Y29314000D01*
X19669300Y29106000D01*
X19649300Y29106000D01*
X19649300Y27966500D01*
X19813800Y27802000D01*
X20376184Y27802000D01*
X20618027Y27902174D01*
X20664360Y27948508D01*
X20671827Y27943406D01*
X20890000Y27899225D01*
X22290000Y27899225D01*
X22493818Y27937576D01*
X22681012Y28058032D01*
X22806594Y28241827D01*
X22820000Y28308028D01*
X22820000Y26670000D01*
X22871381Y26411688D01*
X23017703Y26192703D01*
X23770406Y25440000D01*
X21234594Y25440000D01*
X18872594Y27802000D01*
X19276800Y27802000D01*
X19441300Y27966500D01*
X19441300Y29106000D01*
X19421300Y29106000D01*
X19421300Y29314000D01*
X19441300Y29314000D01*
X19441300Y30453500D01*
X19276800Y30618000D01*
X18714416Y30618000D01*
X18472573Y30517826D01*
X18455000Y30500253D01*
X18455000Y31544268D01*
X18569115Y31497000D01*
X18781500Y31497000D01*
X18946000Y31661500D01*
X18946000Y33551000D01*
X19154000Y33551000D01*
X19154000Y31661500D01*
X19318500Y31497000D01*
X19530885Y31497000D01*
X19772727Y31597175D01*
X19957826Y31782273D01*
X20058000Y32024116D01*
X20058000Y33386500D01*
X19893500Y33551000D01*
X19154000Y33551000D01*
X18946000Y33551000D01*
X18926000Y33551000D01*
X18926000Y33759000D01*
X18946000Y33759000D01*
X18946000Y35648500D01*
X19154000Y35648500D01*
X19154000Y33759000D01*
X19893500Y33759000D01*
X20058000Y33923500D01*
X20058000Y35285884D01*
X19957826Y35527727D01*
X19772727Y35712825D01*
X19530885Y35813000D01*
X19318500Y35813000D01*
X19154000Y35648500D01*
X18946000Y35648500D01*
X18781500Y35813000D01*
X18569115Y35813000D01*
X18327273Y35712825D01*
X18296505Y35682057D01*
X18130000Y35715775D01*
X17430000Y35715775D01*
X17226182Y35677424D01*
X17145564Y35625548D01*
X17078173Y35671594D01*
X16860000Y35715775D01*
X16160000Y35715775D01*
X15956182Y35677424D01*
X15875564Y35625548D01*
X15808173Y35671594D01*
X15590000Y35715775D01*
X14890000Y35715775D01*
X14686182Y35677424D01*
X14605564Y35625548D01*
X14538173Y35671594D01*
X14320000Y35715775D01*
X13620000Y35715775D01*
X13463268Y35686284D01*
X13599843Y36015194D01*
X13600156Y36373236D01*
X13463428Y36704143D01*
X13377721Y36790000D01*
X21550000Y36790000D01*
X21550000Y35599446D01*
X21550000Y35599446D01*
G37*
X21550000Y35599446D02*
X21483988Y35556968D01*
X21358406Y35373173D01*
X21314225Y35155000D01*
X21314225Y32155000D01*
X21352576Y31951182D01*
X21473032Y31763988D01*
X21550000Y31711398D01*
X21550000Y30759594D01*
X21311181Y30520775D01*
X20890000Y30520775D01*
X20686182Y30482424D01*
X20666253Y30469600D01*
X20618027Y30517826D01*
X20376184Y30618000D01*
X19813800Y30618000D01*
X19649300Y30453500D01*
X19649300Y29314000D01*
X19669300Y29314000D01*
X19669300Y29106000D01*
X19649300Y29106000D01*
X19649300Y27966500D01*
X19813800Y27802000D01*
X20376184Y27802000D01*
X20618027Y27902174D01*
X20664360Y27948508D01*
X20671827Y27943406D01*
X20890000Y27899225D01*
X22290000Y27899225D01*
X22493818Y27937576D01*
X22681012Y28058032D01*
X22806594Y28241827D01*
X22820000Y28308028D01*
X22820000Y26670000D01*
X22871381Y26411688D01*
X23017703Y26192703D01*
X23770406Y25440000D01*
X21234594Y25440000D01*
X18872594Y27802000D01*
X19276800Y27802000D01*
X19441300Y27966500D01*
X19441300Y29106000D01*
X19421300Y29106000D01*
X19421300Y29314000D01*
X19441300Y29314000D01*
X19441300Y30453500D01*
X19276800Y30618000D01*
X18714416Y30618000D01*
X18472573Y30517826D01*
X18455000Y30500253D01*
X18455000Y31544268D01*
X18569115Y31497000D01*
X18781500Y31497000D01*
X18946000Y31661500D01*
X18946000Y33551000D01*
X19154000Y33551000D01*
X19154000Y31661500D01*
X19318500Y31497000D01*
X19530885Y31497000D01*
X19772727Y31597175D01*
X19957826Y31782273D01*
X20058000Y32024116D01*
X20058000Y33386500D01*
X19893500Y33551000D01*
X19154000Y33551000D01*
X18946000Y33551000D01*
X18926000Y33551000D01*
X18926000Y33759000D01*
X18946000Y33759000D01*
X18946000Y35648500D01*
X19154000Y35648500D01*
X19154000Y33759000D01*
X19893500Y33759000D01*
X20058000Y33923500D01*
X20058000Y35285884D01*
X19957826Y35527727D01*
X19772727Y35712825D01*
X19530885Y35813000D01*
X19318500Y35813000D01*
X19154000Y35648500D01*
X18946000Y35648500D01*
X18781500Y35813000D01*
X18569115Y35813000D01*
X18327273Y35712825D01*
X18296505Y35682057D01*
X18130000Y35715775D01*
X17430000Y35715775D01*
X17226182Y35677424D01*
X17145564Y35625548D01*
X17078173Y35671594D01*
X16860000Y35715775D01*
X16160000Y35715775D01*
X15956182Y35677424D01*
X15875564Y35625548D01*
X15808173Y35671594D01*
X15590000Y35715775D01*
X14890000Y35715775D01*
X14686182Y35677424D01*
X14605564Y35625548D01*
X14538173Y35671594D01*
X14320000Y35715775D01*
X13620000Y35715775D01*
X13463268Y35686284D01*
X13599843Y36015194D01*
X13600156Y36373236D01*
X13463428Y36704143D01*
X13377721Y36790000D01*
X21550000Y36790000D01*
X21550000Y35599446D01*
G36*
X36155000Y35599446D02*
X36088988Y35556968D01*
X35963406Y35373173D01*
X35919225Y35155000D01*
X35919225Y32155000D01*
X35957576Y31951182D01*
X36078032Y31763988D01*
X36261827Y31638406D01*
X36480000Y31594225D01*
X37180000Y31594225D01*
X37383818Y31632576D01*
X37425000Y31659076D01*
X37425000Y31394594D01*
X35280406Y29250000D01*
X34252860Y29250000D01*
X34165475Y29337538D01*
X33834806Y29474843D01*
X33476764Y29475156D01*
X33145857Y29338428D01*
X33060000Y29252721D01*
X33060000Y31544268D01*
X33174115Y31497000D01*
X33386500Y31497000D01*
X33551000Y31661500D01*
X33551000Y33551000D01*
X33759000Y33551000D01*
X33759000Y31661500D01*
X33923500Y31497000D01*
X34135885Y31497000D01*
X34377727Y31597175D01*
X34562826Y31782273D01*
X34663000Y32024116D01*
X34663000Y33386500D01*
X34498500Y33551000D01*
X33759000Y33551000D01*
X33551000Y33551000D01*
X33531000Y33551000D01*
X33531000Y33759000D01*
X33551000Y33759000D01*
X33551000Y35648500D01*
X33759000Y35648500D01*
X33759000Y33759000D01*
X34498500Y33759000D01*
X34663000Y33923500D01*
X34663000Y35285884D01*
X34562826Y35527727D01*
X34377727Y35712825D01*
X34135885Y35813000D01*
X33923500Y35813000D01*
X33759000Y35648500D01*
X33551000Y35648500D01*
X33386500Y35813000D01*
X33174115Y35813000D01*
X32932273Y35712825D01*
X32901505Y35682057D01*
X32735000Y35715775D01*
X32035000Y35715775D01*
X31831182Y35677424D01*
X31750564Y35625548D01*
X31683173Y35671594D01*
X31465000Y35715775D01*
X30765000Y35715775D01*
X30561182Y35677424D01*
X30480564Y35625548D01*
X30413173Y35671594D01*
X30195000Y35715775D01*
X29495000Y35715775D01*
X29291182Y35677424D01*
X29210564Y35625548D01*
X29143173Y35671594D01*
X28925000Y35715775D01*
X28225000Y35715775D01*
X28021182Y35677424D01*
X27940564Y35625548D01*
X27873173Y35671594D01*
X27655000Y35715775D01*
X26955000Y35715775D01*
X26751182Y35677424D01*
X26670564Y35625548D01*
X26603173Y35671594D01*
X26385000Y35715775D01*
X25685000Y35715775D01*
X25481182Y35677424D01*
X25400564Y35625548D01*
X25333173Y35671594D01*
X25115000Y35715775D01*
X24415000Y35715775D01*
X24211182Y35677424D01*
X24130564Y35625548D01*
X24063173Y35671594D01*
X23845000Y35715775D01*
X23145000Y35715775D01*
X22941182Y35677424D01*
X22900000Y35650924D01*
X22900000Y36790000D01*
X36155000Y36790000D01*
X36155000Y35599446D01*
X36155000Y35599446D01*
G37*
X36155000Y35599446D02*
X36088988Y35556968D01*
X35963406Y35373173D01*
X35919225Y35155000D01*
X35919225Y32155000D01*
X35957576Y31951182D01*
X36078032Y31763988D01*
X36261827Y31638406D01*
X36480000Y31594225D01*
X37180000Y31594225D01*
X37383818Y31632576D01*
X37425000Y31659076D01*
X37425000Y31394594D01*
X35280406Y29250000D01*
X34252860Y29250000D01*
X34165475Y29337538D01*
X33834806Y29474843D01*
X33476764Y29475156D01*
X33145857Y29338428D01*
X33060000Y29252721D01*
X33060000Y31544268D01*
X33174115Y31497000D01*
X33386500Y31497000D01*
X33551000Y31661500D01*
X33551000Y33551000D01*
X33759000Y33551000D01*
X33759000Y31661500D01*
X33923500Y31497000D01*
X34135885Y31497000D01*
X34377727Y31597175D01*
X34562826Y31782273D01*
X34663000Y32024116D01*
X34663000Y33386500D01*
X34498500Y33551000D01*
X33759000Y33551000D01*
X33551000Y33551000D01*
X33531000Y33551000D01*
X33531000Y33759000D01*
X33551000Y33759000D01*
X33551000Y35648500D01*
X33759000Y35648500D01*
X33759000Y33759000D01*
X34498500Y33759000D01*
X34663000Y33923500D01*
X34663000Y35285884D01*
X34562826Y35527727D01*
X34377727Y35712825D01*
X34135885Y35813000D01*
X33923500Y35813000D01*
X33759000Y35648500D01*
X33551000Y35648500D01*
X33386500Y35813000D01*
X33174115Y35813000D01*
X32932273Y35712825D01*
X32901505Y35682057D01*
X32735000Y35715775D01*
X32035000Y35715775D01*
X31831182Y35677424D01*
X31750564Y35625548D01*
X31683173Y35671594D01*
X31465000Y35715775D01*
X30765000Y35715775D01*
X30561182Y35677424D01*
X30480564Y35625548D01*
X30413173Y35671594D01*
X30195000Y35715775D01*
X29495000Y35715775D01*
X29291182Y35677424D01*
X29210564Y35625548D01*
X29143173Y35671594D01*
X28925000Y35715775D01*
X28225000Y35715775D01*
X28021182Y35677424D01*
X27940564Y35625548D01*
X27873173Y35671594D01*
X27655000Y35715775D01*
X26955000Y35715775D01*
X26751182Y35677424D01*
X26670564Y35625548D01*
X26603173Y35671594D01*
X26385000Y35715775D01*
X25685000Y35715775D01*
X25481182Y35677424D01*
X25400564Y35625548D01*
X25333173Y35671594D01*
X25115000Y35715775D01*
X24415000Y35715775D01*
X24211182Y35677424D01*
X24130564Y35625548D01*
X24063173Y35671594D01*
X23845000Y35715775D01*
X23145000Y35715775D01*
X22941182Y35677424D01*
X22900000Y35650924D01*
X22900000Y36790000D01*
X36155000Y36790000D01*
X36155000Y35599446D01*
G36*
X34337576Y46671182D02*
X34458032Y46483988D01*
X34641827Y46358406D01*
X34860000Y46314225D01*
X34893111Y46314225D01*
X34936381Y46096688D01*
X35082703Y45877703D01*
X36099971Y44860435D01*
X36088988Y44853368D01*
X35963406Y44669573D01*
X35919225Y44451400D01*
X35919225Y41451400D01*
X35957576Y41247582D01*
X36078032Y41060388D01*
X36155000Y41007798D01*
X36155000Y38140000D01*
X19725000Y38140000D01*
X19725000Y39496806D01*
X21400813Y41172619D01*
X21473032Y41060388D01*
X21656827Y40934806D01*
X21875000Y40890625D01*
X22575000Y40890625D01*
X22743515Y40922333D01*
X22772273Y40893575D01*
X23014115Y40793400D01*
X23226500Y40793400D01*
X23391000Y40957900D01*
X23391000Y42847400D01*
X23371000Y42847400D01*
X23371000Y43055400D01*
X23391000Y43055400D01*
X23391000Y43075400D01*
X23599000Y43075400D01*
X23599000Y43055400D01*
X23619000Y43055400D01*
X23619000Y42847400D01*
X23599000Y42847400D01*
X23599000Y40957900D01*
X23763500Y40793400D01*
X23975885Y40793400D01*
X24217727Y40893575D01*
X24248495Y40924343D01*
X24415000Y40890625D01*
X25115000Y40890625D01*
X25318818Y40928976D01*
X25399436Y40980852D01*
X25466827Y40934806D01*
X25685000Y40890625D01*
X26385000Y40890625D01*
X26588818Y40928976D01*
X26669436Y40980852D01*
X26736827Y40934806D01*
X26955000Y40890625D01*
X27655000Y40890625D01*
X27858818Y40928976D01*
X27939436Y40980852D01*
X28006827Y40934806D01*
X28225000Y40890625D01*
X28925000Y40890625D01*
X29128818Y40928976D01*
X29209436Y40980852D01*
X29276827Y40934806D01*
X29495000Y40890625D01*
X30195000Y40890625D01*
X30398818Y40928976D01*
X30479436Y40980852D01*
X30546827Y40934806D01*
X30765000Y40890625D01*
X31465000Y40890625D01*
X31668818Y40928976D01*
X31749436Y40980852D01*
X31816827Y40934806D01*
X32035000Y40890625D01*
X32735000Y40890625D01*
X32938818Y40928976D01*
X33019436Y40980852D01*
X33086827Y40934806D01*
X33305000Y40890625D01*
X34005000Y40890625D01*
X34208818Y40928976D01*
X34396012Y41049432D01*
X34521594Y41233227D01*
X34565775Y41451400D01*
X34565775Y44451400D01*
X34527424Y44655218D01*
X34406968Y44842412D01*
X34330000Y44895002D01*
X34330000Y46711445D01*
X34337576Y46671182D01*
X34337576Y46671182D01*
G37*
X34337576Y46671182D02*
X34458032Y46483988D01*
X34641827Y46358406D01*
X34860000Y46314225D01*
X34893111Y46314225D01*
X34936381Y46096688D01*
X35082703Y45877703D01*
X36099971Y44860435D01*
X36088988Y44853368D01*
X35963406Y44669573D01*
X35919225Y44451400D01*
X35919225Y41451400D01*
X35957576Y41247582D01*
X36078032Y41060388D01*
X36155000Y41007798D01*
X36155000Y38140000D01*
X19725000Y38140000D01*
X19725000Y39496806D01*
X21400813Y41172619D01*
X21473032Y41060388D01*
X21656827Y40934806D01*
X21875000Y40890625D01*
X22575000Y40890625D01*
X22743515Y40922333D01*
X22772273Y40893575D01*
X23014115Y40793400D01*
X23226500Y40793400D01*
X23391000Y40957900D01*
X23391000Y42847400D01*
X23371000Y42847400D01*
X23371000Y43055400D01*
X23391000Y43055400D01*
X23391000Y43075400D01*
X23599000Y43075400D01*
X23599000Y43055400D01*
X23619000Y43055400D01*
X23619000Y42847400D01*
X23599000Y42847400D01*
X23599000Y40957900D01*
X23763500Y40793400D01*
X23975885Y40793400D01*
X24217727Y40893575D01*
X24248495Y40924343D01*
X24415000Y40890625D01*
X25115000Y40890625D01*
X25318818Y40928976D01*
X25399436Y40980852D01*
X25466827Y40934806D01*
X25685000Y40890625D01*
X26385000Y40890625D01*
X26588818Y40928976D01*
X26669436Y40980852D01*
X26736827Y40934806D01*
X26955000Y40890625D01*
X27655000Y40890625D01*
X27858818Y40928976D01*
X27939436Y40980852D01*
X28006827Y40934806D01*
X28225000Y40890625D01*
X28925000Y40890625D01*
X29128818Y40928976D01*
X29209436Y40980852D01*
X29276827Y40934806D01*
X29495000Y40890625D01*
X30195000Y40890625D01*
X30398818Y40928976D01*
X30479436Y40980852D01*
X30546827Y40934806D01*
X30765000Y40890625D01*
X31465000Y40890625D01*
X31668818Y40928976D01*
X31749436Y40980852D01*
X31816827Y40934806D01*
X32035000Y40890625D01*
X32735000Y40890625D01*
X32938818Y40928976D01*
X33019436Y40980852D01*
X33086827Y40934806D01*
X33305000Y40890625D01*
X34005000Y40890625D01*
X34208818Y40928976D01*
X34396012Y41049432D01*
X34521594Y41233227D01*
X34565775Y41451400D01*
X34565775Y44451400D01*
X34527424Y44655218D01*
X34406968Y44842412D01*
X34330000Y44895002D01*
X34330000Y46711445D01*
X34337576Y46671182D01*
G36*
X9485000Y45062132D02*
X9370885Y45109400D01*
X9158500Y45109400D01*
X8994000Y44944900D01*
X8994000Y43055400D01*
X9014000Y43055400D01*
X9014000Y42847400D01*
X8994000Y42847400D01*
X8994000Y40957900D01*
X9158500Y40793400D01*
X9370885Y40793400D01*
X9612727Y40893575D01*
X9643495Y40924343D01*
X9810000Y40890625D01*
X10510000Y40890625D01*
X10713818Y40928976D01*
X10794436Y40980852D01*
X10861827Y40934806D01*
X11080000Y40890625D01*
X11780000Y40890625D01*
X11983818Y40928976D01*
X12064436Y40980852D01*
X12131827Y40934806D01*
X12350000Y40890625D01*
X13050000Y40890625D01*
X13253818Y40928976D01*
X13334436Y40980852D01*
X13401827Y40934806D01*
X13620000Y40890625D01*
X14320000Y40890625D01*
X14523818Y40928976D01*
X14604436Y40980852D01*
X14671827Y40934806D01*
X14890000Y40890625D01*
X15590000Y40890625D01*
X15793818Y40928976D01*
X15874436Y40980852D01*
X15941827Y40934806D01*
X16160000Y40890625D01*
X16860000Y40890625D01*
X17063818Y40928976D01*
X17144436Y40980852D01*
X17211827Y40934806D01*
X17430000Y40890625D01*
X18130000Y40890625D01*
X18333818Y40928976D01*
X18414436Y40980852D01*
X18481827Y40934806D01*
X18700000Y40890625D01*
X19209631Y40890625D01*
X18572703Y40253697D01*
X18426381Y40034712D01*
X18426381Y40034711D01*
X18375000Y39776400D01*
X18375000Y38140000D01*
X8295000Y38140000D01*
X8295000Y40840668D01*
X8409115Y40793400D01*
X8621500Y40793400D01*
X8786000Y40957900D01*
X8786000Y42847400D01*
X8766000Y42847400D01*
X8766000Y43055400D01*
X8786000Y43055400D01*
X8786000Y44944900D01*
X8621500Y45109400D01*
X8409115Y45109400D01*
X8167273Y45009225D01*
X8136505Y44978457D01*
X7970000Y45012175D01*
X7270000Y45012175D01*
X7066182Y44973824D01*
X6878988Y44853368D01*
X6795222Y44730772D01*
X6390000Y45135994D01*
X6390000Y45720000D01*
X6338619Y45978311D01*
X6192297Y46197297D01*
X5755000Y46634594D01*
X5755000Y46949225D01*
X5780000Y46949225D01*
X5983818Y46987576D01*
X6171012Y47108032D01*
X6296594Y47291827D01*
X6340775Y47510000D01*
X6340775Y47585000D01*
X8255000Y47585000D01*
X8513312Y47636381D01*
X8732297Y47782703D01*
X9485000Y48535406D01*
X9485000Y45062132D01*
X9485000Y45062132D01*
G37*
X9485000Y45062132D02*
X9370885Y45109400D01*
X9158500Y45109400D01*
X8994000Y44944900D01*
X8994000Y43055400D01*
X9014000Y43055400D01*
X9014000Y42847400D01*
X8994000Y42847400D01*
X8994000Y40957900D01*
X9158500Y40793400D01*
X9370885Y40793400D01*
X9612727Y40893575D01*
X9643495Y40924343D01*
X9810000Y40890625D01*
X10510000Y40890625D01*
X10713818Y40928976D01*
X10794436Y40980852D01*
X10861827Y40934806D01*
X11080000Y40890625D01*
X11780000Y40890625D01*
X11983818Y40928976D01*
X12064436Y40980852D01*
X12131827Y40934806D01*
X12350000Y40890625D01*
X13050000Y40890625D01*
X13253818Y40928976D01*
X13334436Y40980852D01*
X13401827Y40934806D01*
X13620000Y40890625D01*
X14320000Y40890625D01*
X14523818Y40928976D01*
X14604436Y40980852D01*
X14671827Y40934806D01*
X14890000Y40890625D01*
X15590000Y40890625D01*
X15793818Y40928976D01*
X15874436Y40980852D01*
X15941827Y40934806D01*
X16160000Y40890625D01*
X16860000Y40890625D01*
X17063818Y40928976D01*
X17144436Y40980852D01*
X17211827Y40934806D01*
X17430000Y40890625D01*
X18130000Y40890625D01*
X18333818Y40928976D01*
X18414436Y40980852D01*
X18481827Y40934806D01*
X18700000Y40890625D01*
X19209631Y40890625D01*
X18572703Y40253697D01*
X18426381Y40034712D01*
X18426381Y40034711D01*
X18375000Y39776400D01*
X18375000Y38140000D01*
X8295000Y38140000D01*
X8295000Y40840668D01*
X8409115Y40793400D01*
X8621500Y40793400D01*
X8786000Y40957900D01*
X8786000Y42847400D01*
X8766000Y42847400D01*
X8766000Y43055400D01*
X8786000Y43055400D01*
X8786000Y44944900D01*
X8621500Y45109400D01*
X8409115Y45109400D01*
X8167273Y45009225D01*
X8136505Y44978457D01*
X7970000Y45012175D01*
X7270000Y45012175D01*
X7066182Y44973824D01*
X6878988Y44853368D01*
X6795222Y44730772D01*
X6390000Y45135994D01*
X6390000Y45720000D01*
X6338619Y45978311D01*
X6192297Y46197297D01*
X5755000Y46634594D01*
X5755000Y46949225D01*
X5780000Y46949225D01*
X5983818Y46987576D01*
X6171012Y47108032D01*
X6296594Y47291827D01*
X6340775Y47510000D01*
X6340775Y47585000D01*
X8255000Y47585000D01*
X8513312Y47636381D01*
X8732297Y47782703D01*
X9485000Y48535406D01*
X9485000Y45062132D01*
G36*
X53380033Y62044714D02*
X53787569Y61636467D01*
X53887018Y61595172D01*
X53789714Y61554967D01*
X53381467Y61147431D01*
X53160252Y60614688D01*
X53159749Y60037843D01*
X53380033Y59504714D01*
X53787569Y59096467D01*
X53887018Y59055172D01*
X53789714Y59014967D01*
X53381467Y58607431D01*
X53160252Y58074688D01*
X53159749Y57497843D01*
X53380033Y56964714D01*
X53787569Y56556467D01*
X53887018Y56515172D01*
X53789714Y56474967D01*
X53381467Y56067431D01*
X53160252Y55534688D01*
X53159749Y54957843D01*
X53286947Y54650000D01*
X52745775Y54650000D01*
X52745775Y54675000D01*
X52707424Y54878818D01*
X52694600Y54898747D01*
X52742826Y54946973D01*
X52843000Y55188816D01*
X52843000Y55751200D01*
X52678500Y55915700D01*
X51539000Y55915700D01*
X51539000Y55895700D01*
X51331000Y55895700D01*
X51331000Y55915700D01*
X50191500Y55915700D01*
X50027000Y55751200D01*
X50027000Y55188816D01*
X50112716Y54981878D01*
X49845005Y55249589D01*
X49845165Y55433138D01*
X49700841Y55782429D01*
X49433835Y56049902D01*
X49084796Y56194835D01*
X48706862Y56195165D01*
X48357571Y56050841D01*
X48090098Y55783835D01*
X47945165Y55434796D01*
X47944835Y55056862D01*
X48089159Y54707571D01*
X48356165Y54440098D01*
X48705204Y54295165D01*
X48890403Y54295003D01*
X49687703Y53497703D01*
X49906688Y53351381D01*
X50124225Y53308111D01*
X50124225Y53275000D01*
X50162576Y53071182D01*
X50283032Y52883988D01*
X50466827Y52758406D01*
X50685000Y52714225D01*
X52185000Y52714225D01*
X52388818Y52752576D01*
X52576012Y52873032D01*
X52701594Y53056827D01*
X52745775Y53275000D01*
X52745775Y53300000D01*
X53287029Y53300000D01*
X53160252Y52994688D01*
X53159749Y52417843D01*
X53380033Y51884714D01*
X53787569Y51476467D01*
X53887018Y51435172D01*
X53789714Y51394967D01*
X53381467Y50987431D01*
X53160252Y50454688D01*
X53159749Y49877843D01*
X53220711Y49730305D01*
X52227703Y48737297D01*
X52081381Y48518312D01*
X52081381Y48518311D01*
X52030000Y48260000D01*
X52030000Y47904594D01*
X51790406Y47665000D01*
X45085000Y47665000D01*
X44826688Y47613619D01*
X44607703Y47467297D01*
X42702703Y45562297D01*
X42585000Y45386143D01*
X42585000Y51790406D01*
X47645178Y56850584D01*
X50027000Y56850584D01*
X50027000Y56288200D01*
X50191500Y56123700D01*
X51331000Y56123700D01*
X51331000Y57213200D01*
X51539000Y57213200D01*
X51539000Y56123700D01*
X52678500Y56123700D01*
X52843000Y56288200D01*
X52843000Y56850584D01*
X52742826Y57092427D01*
X52557727Y57277525D01*
X52315885Y57377700D01*
X51703500Y57377700D01*
X51539000Y57213200D01*
X51331000Y57213200D01*
X51166500Y57377700D01*
X50554115Y57377700D01*
X50312273Y57277525D01*
X50127174Y57092427D01*
X50027000Y56850584D01*
X47645178Y56850584D01*
X53221935Y62427341D01*
X53380033Y62044714D01*
X53380033Y62044714D01*
G37*
X53380033Y62044714D02*
X53787569Y61636467D01*
X53887018Y61595172D01*
X53789714Y61554967D01*
X53381467Y61147431D01*
X53160252Y60614688D01*
X53159749Y60037843D01*
X53380033Y59504714D01*
X53787569Y59096467D01*
X53887018Y59055172D01*
X53789714Y59014967D01*
X53381467Y58607431D01*
X53160252Y58074688D01*
X53159749Y57497843D01*
X53380033Y56964714D01*
X53787569Y56556467D01*
X53887018Y56515172D01*
X53789714Y56474967D01*
X53381467Y56067431D01*
X53160252Y55534688D01*
X53159749Y54957843D01*
X53286947Y54650000D01*
X52745775Y54650000D01*
X52745775Y54675000D01*
X52707424Y54878818D01*
X52694600Y54898747D01*
X52742826Y54946973D01*
X52843000Y55188816D01*
X52843000Y55751200D01*
X52678500Y55915700D01*
X51539000Y55915700D01*
X51539000Y55895700D01*
X51331000Y55895700D01*
X51331000Y55915700D01*
X50191500Y55915700D01*
X50027000Y55751200D01*
X50027000Y55188816D01*
X50112716Y54981878D01*
X49845005Y55249589D01*
X49845165Y55433138D01*
X49700841Y55782429D01*
X49433835Y56049902D01*
X49084796Y56194835D01*
X48706862Y56195165D01*
X48357571Y56050841D01*
X48090098Y55783835D01*
X47945165Y55434796D01*
X47944835Y55056862D01*
X48089159Y54707571D01*
X48356165Y54440098D01*
X48705204Y54295165D01*
X48890403Y54295003D01*
X49687703Y53497703D01*
X49906688Y53351381D01*
X50124225Y53308111D01*
X50124225Y53275000D01*
X50162576Y53071182D01*
X50283032Y52883988D01*
X50466827Y52758406D01*
X50685000Y52714225D01*
X52185000Y52714225D01*
X52388818Y52752576D01*
X52576012Y52873032D01*
X52701594Y53056827D01*
X52745775Y53275000D01*
X52745775Y53300000D01*
X53287029Y53300000D01*
X53160252Y52994688D01*
X53159749Y52417843D01*
X53380033Y51884714D01*
X53787569Y51476467D01*
X53887018Y51435172D01*
X53789714Y51394967D01*
X53381467Y50987431D01*
X53160252Y50454688D01*
X53159749Y49877843D01*
X53220711Y49730305D01*
X52227703Y48737297D01*
X52081381Y48518312D01*
X52081381Y48518311D01*
X52030000Y48260000D01*
X52030000Y47904594D01*
X51790406Y47665000D01*
X45085000Y47665000D01*
X44826688Y47613619D01*
X44607703Y47467297D01*
X42702703Y45562297D01*
X42585000Y45386143D01*
X42585000Y51790406D01*
X47645178Y56850584D01*
X50027000Y56850584D01*
X50027000Y56288200D01*
X50191500Y56123700D01*
X51331000Y56123700D01*
X51331000Y57213200D01*
X51539000Y57213200D01*
X51539000Y56123700D01*
X52678500Y56123700D01*
X52843000Y56288200D01*
X52843000Y56850584D01*
X52742826Y57092427D01*
X52557727Y57277525D01*
X52315885Y57377700D01*
X51703500Y57377700D01*
X51539000Y57213200D01*
X51331000Y57213200D01*
X51166500Y57377700D01*
X50554115Y57377700D01*
X50312273Y57277525D01*
X50127174Y57092427D01*
X50027000Y56850584D01*
X47645178Y56850584D01*
X53221935Y62427341D01*
X53380033Y62044714D01*
G36*
X58460033Y49344714D02*
X58840796Y48963287D01*
X58759292Y48702786D01*
X59690000Y47772078D01*
X60620708Y48702786D01*
X60539058Y48963755D01*
X60918533Y49342569D01*
X60920000Y49346102D01*
X60920000Y48508084D01*
X60767786Y48555708D01*
X59837078Y47625000D01*
X59851221Y47610857D01*
X59704143Y47463779D01*
X59690000Y47477922D01*
X58759292Y46547214D01*
X58806916Y46395000D01*
X57970206Y46395000D01*
X57970286Y46395033D01*
X58351713Y46775796D01*
X58612214Y46694292D01*
X59542922Y47625000D01*
X58612214Y48555708D01*
X58351245Y48474058D01*
X57972431Y48853533D01*
X57872982Y48894828D01*
X57970286Y48935033D01*
X58378533Y49342569D01*
X58419828Y49442018D01*
X58460033Y49344714D01*
X58460033Y49344714D01*
G37*
X58460033Y49344714D02*
X58840796Y48963287D01*
X58759292Y48702786D01*
X59690000Y47772078D01*
X60620708Y48702786D01*
X60539058Y48963755D01*
X60918533Y49342569D01*
X60920000Y49346102D01*
X60920000Y48508084D01*
X60767786Y48555708D01*
X59837078Y47625000D01*
X59851221Y47610857D01*
X59704143Y47463779D01*
X59690000Y47477922D01*
X58759292Y46547214D01*
X58806916Y46395000D01*
X57970206Y46395000D01*
X57970286Y46395033D01*
X58351713Y46775796D01*
X58612214Y46694292D01*
X59542922Y47625000D01*
X58612214Y48555708D01*
X58351245Y48474058D01*
X57972431Y48853533D01*
X57872982Y48894828D01*
X57970286Y48935033D01*
X58378533Y49342569D01*
X58419828Y49442018D01*
X58460033Y49344714D01*
G36*
X53044403Y65673911D02*
X53060669Y65054314D01*
X53266486Y64557431D01*
X53400811Y64515405D01*
X41432703Y52547297D01*
X41286381Y52328312D01*
X41272423Y52258138D01*
X41235000Y52070000D01*
X41235000Y50466143D01*
X41117297Y50642297D01*
X25877297Y65882297D01*
X25865769Y65890000D01*
X53127336Y65890000D01*
X53044403Y65673911D01*
X53044403Y65673911D01*
G37*
X53044403Y65673911D02*
X53060669Y65054314D01*
X53266486Y64557431D01*
X53400811Y64515405D01*
X41432703Y52547297D01*
X41286381Y52328312D01*
X41272423Y52258138D01*
X41235000Y52070000D01*
X41235000Y50466143D01*
X41117297Y50642297D01*
X25877297Y65882297D01*
X25865769Y65890000D01*
X53127336Y65890000D01*
X53044403Y65673911D01*
G36*
X54771221Y65419142D02*
X54757078Y65405000D01*
X54771221Y65390857D01*
X54624143Y65243779D01*
X54610000Y65257922D01*
X54595858Y65243779D01*
X54448780Y65390857D01*
X54462922Y65405000D01*
X54448780Y65419142D01*
X54595858Y65566220D01*
X54610000Y65552078D01*
X54624143Y65566220D01*
X54771221Y65419142D01*
X54771221Y65419142D01*
G37*
X54771221Y65419142D02*
X54757078Y65405000D01*
X54771221Y65390857D01*
X54624143Y65243779D01*
X54610000Y65257922D01*
X54595858Y65243779D01*
X54448780Y65390857D01*
X54462922Y65405000D01*
X54448780Y65419142D01*
X54595858Y65566220D01*
X54610000Y65552078D01*
X54624143Y65566220D01*
X54771221Y65419142D01*
M02*
