G04 #@! TF.FileFunction,Soldermask,Top*
%FSLAX46Y46*%
G04 Gerber Fmt 4.6, Leading zero omitted, Abs format (unit mm)*
G04 Created by KiCad (PCBNEW 4.0.7) date 01/31/20 17:15:32*
%MOMM*%
%LPD*%
G01*
G04 APERTURE LIST*
%ADD10C,0.100000*%
%ADD11C,0.300000*%
%ADD12R,1.700000X1.600000*%
%ADD13R,1.600000X1.700000*%
%ADD14C,2.000000*%
%ADD15R,0.900000X3.200000*%
G04 APERTURE END LIST*
D10*
D11*
X-85975238Y30980952D02*
X-85975238Y32114286D01*
X-85975238Y31952381D02*
X-85894286Y32033333D01*
X-85732381Y32114286D01*
X-85489524Y32114286D01*
X-85327619Y32033333D01*
X-85246667Y31871429D01*
X-85246667Y30980952D01*
X-85246667Y31871429D02*
X-85165714Y32033333D01*
X-85003810Y32114286D01*
X-84760952Y32114286D01*
X-84599048Y32033333D01*
X-84518095Y31871429D01*
X-84518095Y30980952D01*
X-83465714Y30980952D02*
X-83627619Y31061905D01*
X-83708571Y31142857D01*
X-83789523Y31304762D01*
X-83789523Y31790476D01*
X-83708571Y31952381D01*
X-83627619Y32033333D01*
X-83465714Y32114286D01*
X-83222857Y32114286D01*
X-83060952Y32033333D01*
X-82980000Y31952381D01*
X-82899047Y31790476D01*
X-82899047Y31304762D01*
X-82980000Y31142857D01*
X-83060952Y31061905D01*
X-83222857Y30980952D01*
X-83465714Y30980952D01*
X-81441905Y30980952D02*
X-81441905Y32680952D01*
X-81441905Y31061905D02*
X-81603809Y30980952D01*
X-81927619Y30980952D01*
X-82089524Y31061905D01*
X-82170476Y31142857D01*
X-82251428Y31304762D01*
X-82251428Y31790476D01*
X-82170476Y31952381D01*
X-82089524Y32033333D01*
X-81927619Y32114286D01*
X-81603809Y32114286D01*
X-81441905Y32033333D01*
X-80308572Y32680952D02*
X-80146667Y32680952D01*
X-79984762Y32600000D01*
X-79903810Y32519048D01*
X-79822857Y32357143D01*
X-79741905Y32033333D01*
X-79741905Y31628571D01*
X-79822857Y31304762D01*
X-79903810Y31142857D01*
X-79984762Y31061905D01*
X-80146667Y30980952D01*
X-80308572Y30980952D01*
X-80470476Y31061905D01*
X-80551429Y31142857D01*
X-80632381Y31304762D01*
X-80713333Y31628571D01*
X-80713333Y32033333D01*
X-80632381Y32357143D01*
X-80551429Y32519048D01*
X-80470476Y32600000D01*
X-80308572Y32680952D01*
X-78689524Y32680952D02*
X-78527619Y32680952D01*
X-78365714Y32600000D01*
X-78284762Y32519048D01*
X-78203809Y32357143D01*
X-78122857Y32033333D01*
X-78122857Y31628571D01*
X-78203809Y31304762D01*
X-78284762Y31142857D01*
X-78365714Y31061905D01*
X-78527619Y30980952D01*
X-78689524Y30980952D01*
X-78851428Y31061905D01*
X-78932381Y31142857D01*
X-79013333Y31304762D01*
X-79094285Y31628571D01*
X-79094285Y32033333D01*
X-79013333Y32357143D01*
X-78932381Y32519048D01*
X-78851428Y32600000D01*
X-78689524Y32680952D01*
X-76503809Y30980952D02*
X-77475237Y30980952D01*
X-76989523Y30980952D02*
X-76989523Y32680952D01*
X-77151428Y32438095D01*
X-77313333Y32276190D01*
X-77475237Y32195238D01*
D12*
X-36195000Y37465000D03*
X-36195000Y39509700D03*
D13*
X-18415000Y47625000D03*
X-16370300Y47625000D03*
X-17780000Y29210000D03*
X-19824700Y29210000D03*
D14*
X-2540000Y17780000D03*
X-5080000Y17780000D03*
X-7620000Y17780000D03*
X-10160000Y17780000D03*
X-12700000Y17780000D03*
X-15240000Y17780000D03*
X-17780000Y17780000D03*
X-20320000Y17780000D03*
X-22860000Y17780000D03*
X-25400000Y17780000D03*
X-27940000Y17780000D03*
X-30480000Y17780000D03*
X-33020000Y17780000D03*
X-35560000Y17780000D03*
X-38100000Y17780000D03*
X-40640000Y17780000D03*
X-40640000Y2540000D03*
X-38100000Y2540000D03*
X-35560000Y2540000D03*
X-33020000Y2540000D03*
X-30480000Y2540000D03*
X-27940000Y2540000D03*
X-25400000Y2540000D03*
X-22860000Y2540000D03*
X-20320000Y2540000D03*
X-17780000Y2540000D03*
X-15240000Y2540000D03*
X-12700000Y2540000D03*
X-10160000Y2540000D03*
X-7620000Y2540000D03*
X-5080000Y2540000D03*
X-2540000Y2540000D03*
D15*
X-33655000Y33655000D03*
X-32385000Y33655000D03*
X-31115000Y33655000D03*
X-29845000Y33655000D03*
X-28575000Y33655000D03*
X-27305000Y33655000D03*
X-26035000Y33655000D03*
X-24765000Y33655000D03*
X-23495000Y33655000D03*
X-22225000Y33655000D03*
X-22225000Y42951400D03*
X-23495000Y42951400D03*
X-24765000Y42951400D03*
X-26035000Y42951400D03*
X-27305000Y42951400D03*
X-28575000Y42951400D03*
X-29845000Y42951400D03*
X-31115000Y42951400D03*
X-32385000Y42951400D03*
X-33655000Y42951400D03*
X-17145000Y33655000D03*
X-15875000Y33655000D03*
X-14605000Y33655000D03*
X-13335000Y33655000D03*
X-12065000Y33655000D03*
X-10795000Y33655000D03*
X-9525000Y33655000D03*
X-8255000Y33655000D03*
X-6985000Y33655000D03*
X-5715000Y33655000D03*
X-5715000Y42951400D03*
X-6985000Y42951400D03*
X-8255000Y42951400D03*
X-9525000Y42951400D03*
X-10795000Y42951400D03*
X-12065000Y42951400D03*
X-13335000Y42951400D03*
X-14605000Y42951400D03*
X-15875000Y42951400D03*
X-17145000Y42951400D03*
D14*
X-52070000Y39370000D03*
X-49530000Y39370000D03*
X-46990000Y39370000D03*
X-52070000Y41910000D03*
X-49530000Y41910000D03*
X-46990000Y41910000D03*
X-52070000Y44450000D03*
X-49530000Y44450000D03*
X-46990000Y44450000D03*
X-52070000Y46990000D03*
X-49530000Y46990000D03*
X-46990000Y46990000D03*
X-52070000Y49530000D03*
X-49530000Y49530000D03*
X-46990000Y49530000D03*
X-52070000Y52070000D03*
X-49530000Y52070000D03*
X-46990000Y52070000D03*
X-52070000Y54610000D03*
X-49530000Y54610000D03*
X-46990000Y54610000D03*
X-52070000Y57150000D03*
X-49530000Y57150000D03*
X-46990000Y57150000D03*
X-87630000Y57150000D03*
X-85090000Y57150000D03*
X-82550000Y57150000D03*
X-87630000Y54610000D03*
X-85090000Y54610000D03*
X-82550000Y54610000D03*
X-87630000Y52070000D03*
X-85090000Y52070000D03*
X-82550000Y52070000D03*
X-87630000Y49530000D03*
X-85090000Y49530000D03*
X-82550000Y49530000D03*
X-87630000Y46990000D03*
X-85090000Y46990000D03*
X-82550000Y46990000D03*
X-87630000Y44450000D03*
X-85090000Y44450000D03*
X-82550000Y44450000D03*
X-87630000Y41910000D03*
X-85090000Y41910000D03*
X-82550000Y41910000D03*
X-87630000Y39370000D03*
X-85090000Y39370000D03*
X-82550000Y39370000D03*
M02*
