G04 #@! TF.FileFunction,Profile,NP*
%FSLAX46Y46*%
G04 Gerber Fmt 4.6, Leading zero omitted, Abs format (unit mm)*
G04 Created by KiCad (PCBNEW 4.0.7) date 01/31/20 17:15:32*
%MOMM*%
%LPD*%
G01*
G04 APERTURE LIST*
%ADD10C,0.100000*%
%ADD11C,0.150000*%
G04 APERTURE END LIST*
D10*
D11*
X1666666Y0D02*
G75*
G03X1666666Y0I-1666666J0D01*
G01*
X-2500000Y0D02*
X2500000Y0D01*
X0Y2500000D02*
X0Y-2500000D01*
X-43180000Y20320000D02*
X-43180000Y2540000D01*
X-40640000Y20320000D02*
X-43180000Y20320000D01*
X-40640000Y26670000D02*
X-40640000Y20320000D01*
X-43180000Y26670000D02*
X-40640000Y26670000D01*
X-2540000Y59690000D02*
X-90170000Y59690000D01*
X-2540000Y58420000D02*
X-2540000Y59690000D01*
X-2540000Y20320000D02*
X-2540000Y58420000D01*
X0Y20320000D02*
X-2540000Y20320000D01*
X0Y0D02*
X0Y20320000D01*
X1666666Y0D02*
G75*
G03X1666666Y0I-1666666J0D01*
G01*
X-2500000Y0D02*
X2500000Y0D01*
X0Y2500000D02*
X0Y-2500000D01*
X-43180000Y0D02*
X-43180000Y2540000D01*
X0Y0D02*
X-43180000Y0D01*
X-46990000Y26670000D02*
X-43180000Y26670000D01*
X-90170000Y26670000D02*
X-46990000Y26670000D01*
X-90170000Y59690000D02*
X-90170000Y26670000D01*
M02*
