M48
;DRILL file {KiCad 4.0.7} date 01/10/20 10:39:06
;FORMAT={-:-/ absolute / metric / decimal}
FMAT,2
METRIC,TZ
T1C0.400
T2C0.500
T3C1.020
%
G90
G05
M71
T1
X-74.295Y41.91
X-37.465Y24.13
X-36.83Y25.4
X-36.195Y23.495
X-36.195Y20.955
X-35.56Y26.035
X-33.02Y20.955
X-29.21Y30.48
X-26.035Y27.94
X-26.035Y26.035
X-26.035Y24.765
X-25.4Y15.24
X-24.765Y24.765
X-24.13Y29.845
X-22.86Y29.21
X-22.86Y27.94
X-22.86Y14.605
X-20.955Y26.67
X-15.875Y30.48
X-13.335Y29.845
X-12.065Y28.575
X-12.065Y5.08
X-8.255Y14.605
X-7.62Y21.59
X-6.985Y20.32
T2
X-86.36Y34.925
X-86.36Y29.21
X-81.915Y36.195
X-81.28Y29.845
X-79.375Y50.8
X-79.375Y38.735
X-78.105Y57.15
X-78.105Y37.465
X-78.105Y34.29
X-77.47Y52.07
X-77.47Y48.26
X-77.47Y44.45
X-76.2Y46.99
X-76.2Y43.18
X-75.565Y29.21
X-74.295Y51.435
X-73.66Y55.245
X-73.66Y31.75
X-70.485Y45.72
X-69.85Y50.8
X-69.215Y55.88
X-68.58Y40.005
X-67.31Y47.625
X-67.31Y28.575
X-66.04Y52.07
X-66.04Y42.545
X-64.135Y56.515
X-62.23Y45.72
X-60.325Y51.435
X-60.325Y39.37
X-59.055Y54.61
X-58.42Y43.18
X-55.245Y56.515
X-54.61Y50.8
X-54.61Y48.26
X-54.61Y43.815
X-54.61Y28.575
X-43.18Y57.15
X-42.545Y28.575
X-40.64Y13.335
X-40.64Y7.62
X-40.005Y40.005
X-38.735Y42.545
X-38.735Y37.465
X-38.1Y57.15
X-38.1Y22.225
X-37.465Y45.085
X-37.465Y9.525
X-37.465Y5.715
X-36.83Y34.29
X-36.195Y13.335
X-33.655Y30.48
X-31.75Y12.065
X-31.75Y9.525
X-31.75Y5.715
X-31.115Y27.305
X-29.845Y22.225
X-29.21Y13.335
X-28.575Y5.08
X-27.305Y8.89
X-24.13Y8.255
X-24.13Y5.08
X-23.495Y50.165
X-22.225Y12.7
X-21.59Y20.955
X-21.59Y7.62
X-21.59Y5.08
X-20.955Y51.435
X-20.32Y44.45
X-19.685Y40.005
X-19.685Y36.83
X-19.685Y31.115
X-19.05Y10.16
X-19.05Y6.985
X-18.415Y50.165
X-18.415Y26.67
X-17.78Y5.08
X-17.145Y24.13
X-16.51Y12.7
X-13.97Y56.515
X-13.335Y25.4
X-12.7Y10.795
X-10.795Y38.1
X-10.795Y12.7
X-10.16Y53.975
X-9.525Y9.525
X-8.255Y38.1
X-8.255Y6.35
X-7.62Y23.495
X-6.985Y52.07
X-6.35Y55.88
X-6.35Y30.48
X-6.35Y26.67
X-6.35Y12.7
X-5.715Y48.26
X-5.715Y9.525
X-5.08Y39.37
X-2.54Y13.335
X-2.54Y7.62
T3
X-87.63Y57.15
X-87.63Y54.61
X-87.63Y52.07
X-87.63Y49.53
X-87.63Y46.99
X-87.63Y44.45
X-87.63Y41.91
X-87.63Y39.37
X-85.09Y57.15
X-85.09Y54.61
X-85.09Y52.07
X-85.09Y49.53
X-85.09Y46.99
X-85.09Y44.45
X-85.09Y41.91
X-85.09Y39.37
X-82.55Y57.15
X-82.55Y54.61
X-82.55Y52.07
X-82.55Y49.53
X-82.55Y46.99
X-82.55Y44.45
X-82.55Y41.91
X-82.55Y39.37
X-52.07Y57.15
X-52.07Y54.61
X-52.07Y52.07
X-52.07Y49.53
X-52.07Y46.99
X-52.07Y44.45
X-52.07Y41.91
X-52.07Y39.37
X-49.53Y57.15
X-49.53Y54.61
X-49.53Y52.07
X-49.53Y49.53
X-49.53Y46.99
X-49.53Y44.45
X-49.53Y41.91
X-49.53Y39.37
X-46.99Y57.15
X-46.99Y54.61
X-46.99Y52.07
X-46.99Y49.53
X-46.99Y46.99
X-46.99Y44.45
X-46.99Y41.91
X-46.99Y39.37
X-40.64Y17.78
X-40.64Y2.54
X-38.1Y17.78
X-38.1Y2.54
X-35.56Y17.78
X-35.56Y2.54
X-33.02Y17.78
X-33.02Y2.54
X-30.48Y17.78
X-30.48Y2.54
X-27.94Y17.78
X-27.94Y2.54
X-25.4Y17.78
X-25.4Y2.54
X-22.86Y17.78
X-22.86Y2.54
X-20.32Y17.78
X-20.32Y2.54
X-17.78Y17.78
X-17.78Y2.54
X-15.24Y17.78
X-15.24Y2.54
X-12.7Y17.78
X-12.7Y2.54
X-10.16Y17.78
X-10.16Y2.54
X-7.62Y17.78
X-7.62Y2.54
X-5.08Y17.78
X-5.08Y2.54
X-2.54Y17.78
X-2.54Y2.54
T0
M30
