G04 #@! TF.FileFunction,Copper,L1,Top,Signal*
%FSLAX46Y46*%
G04 Gerber Fmt 4.6, Leading zero omitted, Abs format (unit mm)*
G04 Created by KiCad (PCBNEW 4.0.7) date 01/31/20 17:15:32*
%MOMM*%
%LPD*%
G01*
G04 APERTURE LIST*
%ADD10C,0.100000*%
%ADD11R,1.500000X1.400000*%
%ADD12R,1.400000X1.500000*%
%ADD13C,1.800000*%
%ADD14R,0.700000X3.000000*%
%ADD15C,0.800000*%
%ADD16C,0.600000*%
%ADD17C,0.250000*%
%ADD18C,0.500000*%
%ADD19C,0.300000*%
%ADD20C,0.200000*%
G04 APERTURE END LIST*
D10*
D11*
X-36195000Y37465000D03*
X-36195000Y39509700D03*
D12*
X-18415000Y47625000D03*
X-16370300Y47625000D03*
X-17780000Y29210000D03*
X-19824700Y29210000D03*
D13*
X-2540000Y17780000D03*
X-5080000Y17780000D03*
X-7620000Y17780000D03*
X-10160000Y17780000D03*
X-12700000Y17780000D03*
X-15240000Y17780000D03*
X-17780000Y17780000D03*
X-20320000Y17780000D03*
X-22860000Y17780000D03*
X-25400000Y17780000D03*
X-27940000Y17780000D03*
X-30480000Y17780000D03*
X-33020000Y17780000D03*
X-35560000Y17780000D03*
X-38100000Y17780000D03*
X-40640000Y17780000D03*
X-40640000Y2540000D03*
X-38100000Y2540000D03*
X-35560000Y2540000D03*
X-33020000Y2540000D03*
X-30480000Y2540000D03*
X-27940000Y2540000D03*
X-25400000Y2540000D03*
X-22860000Y2540000D03*
X-20320000Y2540000D03*
X-17780000Y2540000D03*
X-15240000Y2540000D03*
X-12700000Y2540000D03*
X-10160000Y2540000D03*
X-7620000Y2540000D03*
X-5080000Y2540000D03*
X-2540000Y2540000D03*
D14*
X-33655000Y33655000D03*
X-32385000Y33655000D03*
X-31115000Y33655000D03*
X-29845000Y33655000D03*
X-28575000Y33655000D03*
X-27305000Y33655000D03*
X-26035000Y33655000D03*
X-24765000Y33655000D03*
X-23495000Y33655000D03*
X-22225000Y33655000D03*
X-22225000Y42951400D03*
X-23495000Y42951400D03*
X-24765000Y42951400D03*
X-26035000Y42951400D03*
X-27305000Y42951400D03*
X-28575000Y42951400D03*
X-29845000Y42951400D03*
X-31115000Y42951400D03*
X-32385000Y42951400D03*
X-33655000Y42951400D03*
X-17145000Y33655000D03*
X-15875000Y33655000D03*
X-14605000Y33655000D03*
X-13335000Y33655000D03*
X-12065000Y33655000D03*
X-10795000Y33655000D03*
X-9525000Y33655000D03*
X-8255000Y33655000D03*
X-6985000Y33655000D03*
X-5715000Y33655000D03*
X-5715000Y42951400D03*
X-6985000Y42951400D03*
X-8255000Y42951400D03*
X-9525000Y42951400D03*
X-10795000Y42951400D03*
X-12065000Y42951400D03*
X-13335000Y42951400D03*
X-14605000Y42951400D03*
X-15875000Y42951400D03*
X-17145000Y42951400D03*
D13*
X-52070000Y39370000D03*
X-49530000Y39370000D03*
X-46990000Y39370000D03*
X-52070000Y41910000D03*
X-49530000Y41910000D03*
X-46990000Y41910000D03*
X-52070000Y44450000D03*
X-49530000Y44450000D03*
X-46990000Y44450000D03*
X-52070000Y46990000D03*
X-49530000Y46990000D03*
X-46990000Y46990000D03*
X-52070000Y49530000D03*
X-49530000Y49530000D03*
X-46990000Y49530000D03*
X-52070000Y52070000D03*
X-49530000Y52070000D03*
X-46990000Y52070000D03*
X-52070000Y54610000D03*
X-49530000Y54610000D03*
X-46990000Y54610000D03*
X-52070000Y57150000D03*
X-49530000Y57150000D03*
X-46990000Y57150000D03*
X-87630000Y57150000D03*
X-85090000Y57150000D03*
X-82550000Y57150000D03*
X-87630000Y54610000D03*
X-85090000Y54610000D03*
X-82550000Y54610000D03*
X-87630000Y52070000D03*
X-85090000Y52070000D03*
X-82550000Y52070000D03*
X-87630000Y49530000D03*
X-85090000Y49530000D03*
X-82550000Y49530000D03*
X-87630000Y46990000D03*
X-85090000Y46990000D03*
X-82550000Y46990000D03*
X-87630000Y44450000D03*
X-85090000Y44450000D03*
X-82550000Y44450000D03*
X-87630000Y41910000D03*
X-85090000Y41910000D03*
X-82550000Y41910000D03*
X-87630000Y39370000D03*
X-85090000Y39370000D03*
X-82550000Y39370000D03*
D15*
X-10795000Y12700000D03*
X-19050000Y10160000D03*
X-22225000Y12700000D03*
X-16510000Y12700000D03*
X-24130000Y5080000D03*
X-28575000Y5080000D03*
X-2540000Y7620000D03*
X-2540000Y13335000D03*
X-6350000Y12700000D03*
X-9525000Y9525000D03*
X-5715000Y9525000D03*
X-8255000Y6350000D03*
X-12700000Y10795000D03*
X-19050000Y6985000D03*
X-17780000Y5080000D03*
X-21590000Y5080000D03*
X-21590000Y7620000D03*
X-24130000Y8255000D03*
X-40640000Y7620000D03*
X-27305000Y8890000D03*
X-29210000Y13335000D03*
X-31750000Y5715000D03*
X-31750000Y9525000D03*
X-31750000Y12065000D03*
X-36195000Y13335000D03*
X-37465000Y9525000D03*
X-37465000Y5715000D03*
X-40640000Y13335000D03*
X-55245000Y56515000D03*
X-60325000Y51435000D03*
X-69215000Y55880000D03*
X-73660000Y55245000D03*
X-78105000Y57150000D03*
X-64135000Y56515000D03*
X-59055000Y54610000D03*
X-86360000Y29210000D03*
X-81280000Y29845000D03*
X-75565000Y29210000D03*
X-86360000Y34925000D03*
X-78105000Y37465000D03*
X-78105000Y34290000D03*
X-73660000Y31750000D03*
X-67310000Y28575000D03*
X-54610000Y28575000D03*
X-42545000Y28575000D03*
X-19685000Y36830000D03*
X-5080000Y39370000D03*
X-38100000Y22225000D03*
X-74295000Y51435000D03*
X-69850000Y50800000D03*
X-66040000Y52070000D03*
X-67310000Y47625000D03*
X-60325000Y39370000D03*
X-68580000Y40005000D03*
X-66040000Y42545000D03*
X-58420000Y43180000D03*
X-62230000Y45720000D03*
X-70485000Y45720000D03*
X-79375000Y38735000D03*
X-81915000Y36195000D03*
X-77470000Y48260000D03*
X-79375000Y50800000D03*
X-76200000Y43180000D03*
X-20320000Y44450000D03*
X-40005000Y40005000D03*
X-38735000Y42545000D03*
X-37465000Y45085000D03*
X-33655000Y30480000D03*
X-36830000Y34290000D03*
X-29845000Y22225000D03*
X-43180000Y57150000D03*
X-38100000Y57150000D03*
X-5715000Y48260000D03*
X-6985000Y52070000D03*
X-10160000Y53975000D03*
X-6350000Y55880000D03*
X-13970000Y56515000D03*
X-20955000Y51435000D03*
X-23495000Y50165000D03*
X-7620000Y23495000D03*
X-6350000Y26670000D03*
X-6350000Y30480000D03*
X-8255000Y38100000D03*
X-10795000Y38100000D03*
X-21590000Y20955000D03*
X-17145000Y24130000D03*
X-18415000Y26670000D03*
X-13335000Y25400000D03*
X-77470000Y52070000D03*
X-77470000Y44450000D03*
X-18415000Y50165000D03*
X-31115000Y27305000D03*
X-19685000Y31115000D03*
X-76200000Y46990000D03*
X-38735000Y37465000D03*
X-19685000Y40005000D03*
X-54610000Y50800000D03*
X-54610000Y43815000D03*
D16*
X-22860000Y27940000D03*
X-7620000Y21590000D03*
X-13335000Y29845000D03*
X-22860000Y29210000D03*
X-24130000Y29845000D03*
X-20955000Y26670000D03*
X-22860000Y14605000D03*
X-26035000Y24765000D03*
X-29210000Y30480000D03*
X-74295000Y41910000D03*
X-36195000Y20955000D03*
X-36195000Y23495000D03*
X-36830000Y25400000D03*
X-35560000Y26035000D03*
X-37465000Y24130000D03*
X-33020000Y20955000D03*
X-26035000Y26035000D03*
X-24765000Y24765000D03*
X-25400000Y15240000D03*
X-15875000Y30480000D03*
X-8255000Y14605000D03*
X-6985000Y20320000D03*
X-12065000Y28575000D03*
X-26035000Y27940000D03*
X-12065000Y5080000D03*
D15*
X-54610000Y48260000D03*
D17*
X-10795000Y38100000D02*
X-15875000Y38100000D01*
X-15875000Y38100000D02*
X-15875000Y42951400D01*
X-22225000Y33655000D02*
X-19685000Y33655000D01*
X-19685000Y33655000D02*
X-19685000Y31115000D01*
X-16370300Y47625000D02*
X-16370300Y46215300D01*
X-15875000Y45720000D02*
X-15875000Y42951400D01*
X-16370300Y46215300D02*
X-15875000Y45720000D01*
X-19050000Y10160000D02*
X-19685000Y10160000D01*
X-17780000Y10160000D02*
X-19050000Y10160000D01*
X-17780000Y6985000D02*
X-17780000Y10160000D01*
X-16510000Y12700000D02*
X-10795000Y12700000D01*
X-19685000Y10160000D02*
X-22225000Y12700000D01*
X-5715000Y9525000D02*
X-5715000Y10160000D01*
X-5715000Y10160000D02*
X-2540000Y13335000D01*
X-6350000Y12700000D02*
X-9525000Y9525000D01*
X-8255000Y6985000D02*
X-8255000Y6350000D01*
X-5715000Y9525000D02*
X-8255000Y6985000D01*
X-17780000Y6985000D02*
X-19050000Y6985000D01*
X-17780000Y5715000D02*
X-17780000Y5080000D01*
X-17780000Y6350000D02*
X-17780000Y6985000D01*
X-17780000Y6350000D02*
X-17780000Y5715000D01*
X-21590000Y5080000D02*
X-21590000Y7620000D01*
X-22860000Y5080000D02*
X-21590000Y5080000D01*
X-22860000Y5080000D02*
X-24130000Y5080000D01*
X-24130000Y5080000D02*
X-24130000Y8255000D01*
X-28575000Y6350000D02*
X-28575000Y5080000D01*
X-28575000Y6350000D02*
X-27305000Y7620000D01*
X-29210000Y8255000D02*
X-29210000Y13335000D01*
X-40640000Y7620000D02*
X-38735000Y5715000D01*
X-31750000Y5715000D02*
X-29210000Y8255000D01*
X-31750000Y12065000D02*
X-31750000Y9525000D01*
X-37465000Y12065000D02*
X-36195000Y13335000D01*
X-37465000Y9525000D02*
X-37465000Y12065000D01*
X-38735000Y5715000D02*
X-37465000Y5715000D01*
X-40640000Y13335000D02*
X-40640000Y10795000D01*
X-40640000Y10795000D02*
X-40640000Y7620000D01*
X-27305000Y7620000D02*
X-27305000Y8890000D01*
X-59055000Y54610000D02*
X-57150000Y56515000D01*
X-57150000Y56515000D02*
X-55245000Y56515000D01*
X-60325000Y51435000D02*
X-59055000Y52705000D01*
X-73025000Y55880000D02*
X-69215000Y55880000D01*
X-78422500Y56832500D02*
X-78105000Y57150000D01*
X-78422500Y56832500D02*
X-80327500Y56832500D01*
X-73660000Y55245000D02*
X-73025000Y55880000D01*
X-59055000Y52705000D02*
X-59055000Y54610000D01*
X-87630000Y32385000D02*
X-87630000Y33655000D01*
X-75565000Y29210000D02*
X-80645000Y29210000D01*
X-87630000Y30480000D02*
X-86360000Y29210000D01*
X-81280000Y29845000D02*
X-80645000Y29210000D01*
X-87630000Y30480000D02*
X-87630000Y32385000D01*
X-86360000Y34925000D02*
X-83185000Y34925000D01*
X-87630000Y33655000D02*
X-86360000Y34925000D01*
X-78105000Y34290000D02*
X-76200000Y34290000D01*
X-76200000Y34290000D02*
X-73660000Y31750000D01*
X-42545000Y28575000D02*
X-54610000Y28575000D01*
X-78105000Y37465000D02*
X-79375000Y38735000D01*
X-5715000Y38100000D02*
X-5715000Y38735000D01*
X-5715000Y38735000D02*
X-5080000Y39370000D01*
X-38735000Y24765000D02*
X-38735000Y22860000D01*
X-32385000Y27305000D02*
X-36195000Y27305000D01*
X-38735000Y24765000D02*
X-36195000Y27305000D01*
X-38735000Y21590000D02*
X-38100000Y22225000D01*
X-38735000Y20955000D02*
X-38735000Y20320000D01*
X-38735000Y19685000D02*
X-40640000Y17780000D01*
X-38735000Y20320000D02*
X-38735000Y19685000D01*
X-38735000Y20955000D02*
X-38735000Y21590000D01*
X-38735000Y22860000D02*
X-38100000Y22225000D01*
X-67310000Y47625000D02*
X-68580000Y47625000D01*
X-74930000Y52070000D02*
X-74295000Y51435000D01*
X-69850000Y50800000D02*
X-68580000Y52070000D01*
X-68580000Y52070000D02*
X-66040000Y52070000D01*
X-77470000Y52070000D02*
X-74930000Y52070000D01*
X-66040000Y42545000D02*
X-68580000Y40005000D01*
X-60960000Y45720000D02*
X-58420000Y43180000D01*
X-62230000Y45720000D02*
X-60960000Y45720000D01*
X-68580000Y47625000D02*
X-70485000Y45720000D01*
X-83185000Y34925000D02*
X-83185000Y34925000D01*
X-81915000Y36195000D02*
X-83185000Y34925000D01*
X-79375000Y40005000D02*
X-79375000Y38735000D01*
X-76200000Y43180000D02*
X-79375000Y40005000D01*
X-36195000Y45720000D02*
X-36830000Y45720000D01*
X-40005000Y41275000D02*
X-40005000Y40005000D01*
X-38735000Y42545000D02*
X-40005000Y41275000D01*
X-36830000Y45720000D02*
X-37465000Y45085000D01*
X-36830000Y33655000D02*
X-33655000Y30480000D01*
X-36830000Y34290000D02*
X-36830000Y33655000D01*
X-38100000Y57150000D02*
X-43180000Y57150000D01*
X-8255000Y52070000D02*
X-6985000Y52070000D01*
X-6985000Y56515000D02*
X-6350000Y55880000D01*
X-13970000Y56515000D02*
X-6985000Y56515000D01*
X-22225000Y51435000D02*
X-20955000Y51435000D01*
X-22225000Y51435000D02*
X-23495000Y50165000D01*
X-10160000Y53975000D02*
X-8255000Y52070000D01*
X-8255000Y38100000D02*
X-5715000Y38100000D01*
X-5715000Y37465000D02*
X-5715000Y33655000D01*
X-5715000Y37465000D02*
X-5715000Y38100000D01*
X-10795000Y38100000D02*
X-8255000Y38100000D01*
X-7620000Y25400000D02*
X-7620000Y23495000D01*
X-6350000Y30480000D02*
X-6350000Y26670000D01*
X-6350000Y26670000D02*
X-7620000Y25400000D01*
X-17145000Y24130000D02*
X-20320000Y20955000D01*
X-19824700Y28079700D02*
X-18415000Y26670000D01*
X-19824700Y29210000D02*
X-19824700Y28079700D01*
X-20320000Y20955000D02*
X-21590000Y20955000D01*
X-19824700Y29210000D02*
X-19685000Y29349700D01*
X-19685000Y29349700D02*
X-19685000Y31115000D01*
D18*
X-80645000Y57150000D02*
X-82550000Y57150000D01*
X-80327500Y56832500D02*
X-80645000Y57150000D01*
X-77470000Y53975000D02*
X-79375000Y55880000D01*
X-77470000Y52070000D02*
X-77470000Y53975000D01*
X-79375000Y55880000D02*
X-80327500Y56832500D01*
D17*
X-86360000Y40640000D02*
X-87630000Y39370000D01*
X-86360000Y42545000D02*
X-86360000Y40640000D01*
X-85725000Y43180000D02*
X-86360000Y42545000D01*
X-81280000Y43180000D02*
X-85725000Y43180000D01*
X-78740000Y43180000D02*
X-81280000Y43180000D01*
X-77470000Y44450000D02*
X-78740000Y43180000D01*
X-16510000Y49530000D02*
X-16510000Y47764700D01*
X-18415000Y50165000D02*
X-17145000Y50165000D01*
X-17145000Y50165000D02*
X-16510000Y49530000D01*
X-16510000Y47764700D02*
X-16370300Y47625000D01*
X-31115000Y27305000D02*
X-32385000Y27305000D01*
X-19824700Y31254700D02*
X-19685000Y31115000D01*
X-19824700Y30975300D02*
X-19685000Y31115000D01*
X-15875000Y47129700D02*
X-16370300Y47625000D01*
X-32385000Y37465000D02*
X-22225000Y37465000D01*
X-22225000Y37465000D02*
X-22225000Y33655000D01*
X-36195000Y39509700D02*
X-36195000Y45720000D01*
X-36195000Y45720000D02*
X-36195000Y46990000D01*
X-36195000Y46990000D02*
X-33020000Y46990000D01*
X-33020000Y46990000D02*
X-32385000Y46355000D01*
X-32385000Y46355000D02*
X-32385000Y42951400D01*
X-32385000Y33655000D02*
X-32385000Y37465000D01*
X-32385000Y37465000D02*
X-32385000Y42951400D01*
X-32385000Y27305000D02*
X-32385000Y33655000D01*
D19*
X-33655000Y37465000D02*
X-34925000Y37465000D01*
X-34925000Y37465000D02*
X-36195000Y37465000D01*
D17*
X-76200000Y46990000D02*
X-77470000Y45720000D01*
X-77470000Y45720000D02*
X-77470000Y45720000D01*
X-77470000Y45720000D02*
X-78105000Y45720000D01*
X-78105000Y45720000D02*
X-80645000Y45720000D01*
X-87630000Y46990000D02*
X-86360000Y45720000D01*
X-80645000Y45720000D02*
X-85725000Y45720000D01*
X-85725000Y45720000D02*
X-86360000Y45720000D01*
D19*
X-38735000Y37465000D02*
X-36195000Y37465000D01*
X-17145000Y40005000D02*
X-19685000Y40005000D01*
X-17145000Y40005000D02*
X-17145000Y42951400D01*
D17*
X-53975000Y50800000D02*
X-54610000Y50800000D01*
X-50800000Y50800000D02*
X-53340000Y50800000D01*
X-53340000Y50800000D02*
X-53975000Y50800000D01*
X-49530000Y49530000D02*
X-50800000Y50800000D01*
X-49530000Y49530000D02*
X-46990000Y46990000D01*
X-48260000Y45720000D02*
X-46990000Y46990000D01*
X-54610000Y43815000D02*
X-54610000Y44450000D01*
X-54610000Y44450000D02*
X-53340000Y45720000D01*
X-53340000Y45720000D02*
X-48260000Y45720000D01*
X-17145000Y42951400D02*
X-17373600Y42951400D01*
D19*
X-17145000Y33655000D02*
X-17145000Y40005000D01*
D17*
X-17145000Y42951400D02*
X-17145000Y44450000D01*
D19*
X-17145000Y44450000D02*
X-18415000Y45720000D01*
X-18415000Y45720000D02*
X-18415000Y47625000D01*
X-33655000Y42951400D02*
X-33655000Y37465000D01*
X-33655000Y37465000D02*
X-33655000Y36195000D01*
X-33655000Y36195000D02*
X-33655000Y33655000D01*
D20*
X-14605000Y33655000D02*
X-14605000Y30480000D01*
X-15875000Y29210000D02*
X-17780000Y29210000D01*
X-14605000Y30480000D02*
X-15875000Y29210000D01*
X-31115000Y33655000D02*
X-31115000Y31115000D01*
X-25400000Y25400000D02*
X-26670000Y25400000D01*
X-22860000Y27940000D02*
X-23495000Y27305000D01*
X-23495000Y27305000D02*
X-25400000Y25400000D01*
X-28575000Y27305000D02*
X-26670000Y25400000D01*
X-28575000Y28575000D02*
X-28575000Y27305000D01*
X-31115000Y31115000D02*
X-28575000Y28575000D01*
X-7620000Y21590000D02*
X-6350000Y21590000D01*
X-6350000Y21590000D02*
X-2540000Y17780000D01*
X-13335000Y33655000D02*
X-13335000Y29845000D01*
X-24765000Y27940000D02*
X-23495000Y29210000D01*
X-27305000Y27940000D02*
X-26670000Y27305000D01*
X-26670000Y27305000D02*
X-25400000Y27305000D01*
X-25400000Y27305000D02*
X-24765000Y27940000D01*
X-27305000Y27940000D02*
X-27305000Y33655000D01*
X-23495000Y29210000D02*
X-22860000Y29210000D01*
X-24765000Y30480000D02*
X-24130000Y29845000D01*
X-24765000Y33655000D02*
X-24765000Y30480000D01*
X-12700000Y20955000D02*
X-11430000Y22225000D01*
X-15240000Y18415000D02*
X-12700000Y20955000D01*
X-10795000Y29845000D02*
X-10795000Y33655000D01*
X-10795000Y22860000D02*
X-10795000Y29845000D01*
X-11430000Y22225000D02*
X-10795000Y22860000D01*
X-15240000Y17780000D02*
X-15240000Y18415000D01*
X-12700000Y20320000D02*
X-10160000Y22860000D01*
X-13970000Y19050000D02*
X-12700000Y20320000D01*
X-16510000Y15240000D02*
X-17780000Y16510000D01*
X-17780000Y17780000D02*
X-17780000Y16510000D01*
X-15875000Y15240000D02*
X-15240000Y15240000D01*
X-15240000Y15240000D02*
X-13970000Y16510000D01*
X-15875000Y15240000D02*
X-16510000Y15240000D01*
X-13970000Y16510000D02*
X-13970000Y19050000D01*
X-9525000Y31750000D02*
X-9525000Y33655000D01*
X-10160000Y31115000D02*
X-9525000Y31750000D01*
X-10160000Y30480000D02*
X-10160000Y31115000D01*
X-10160000Y25400000D02*
X-10160000Y30480000D01*
X-10160000Y22860000D02*
X-10160000Y25400000D01*
X-17780000Y17780000D02*
X-17780000Y17145000D01*
X-20955000Y26670000D02*
X-21590000Y26035000D01*
X-23495000Y20955000D02*
X-23495000Y24130000D01*
X-23495000Y24130000D02*
X-21590000Y26035000D01*
X-20320000Y17780000D02*
X-23495000Y20955000D01*
X-11430000Y19685000D02*
X-11430000Y20955000D01*
X-11430000Y16510000D02*
X-11430000Y19685000D01*
X-11430000Y16510000D02*
X-13335000Y14605000D01*
X-22860000Y17780000D02*
X-19685000Y14605000D01*
X-13335000Y14605000D02*
X-19685000Y14605000D01*
X-8255000Y31750000D02*
X-8255000Y33655000D01*
X-9525000Y30480000D02*
X-8255000Y31750000D01*
X-9525000Y24130000D02*
X-9525000Y30480000D01*
X-9525000Y22860000D02*
X-9525000Y24130000D01*
X-11430000Y20955000D02*
X-9525000Y22860000D01*
X-8890000Y21590000D02*
X-8890000Y29845000D01*
X-8890000Y15875000D02*
X-10795000Y13970000D01*
X-20955000Y13970000D02*
X-10795000Y13970000D01*
X-8890000Y19685000D02*
X-8890000Y15875000D01*
X-8890000Y21590000D02*
X-8890000Y19685000D01*
X-6985000Y31750000D02*
X-6985000Y33655000D01*
X-8890000Y29845000D02*
X-6985000Y31750000D01*
X-22225000Y13970000D02*
X-20955000Y13970000D01*
X-22860000Y14605000D02*
X-22225000Y13970000D01*
X-20955000Y13970000D02*
X-20320000Y13970000D01*
X-20320000Y13970000D02*
X-20955000Y13970000D01*
X-25400000Y24130000D02*
X-26035000Y24765000D01*
X-26670000Y19685000D02*
X-25400000Y20955000D01*
X-26670000Y19685000D02*
X-27940000Y18415000D01*
X-25400000Y20955000D02*
X-25400000Y22860000D01*
X-25400000Y22860000D02*
X-25400000Y24130000D01*
X-27940000Y17780000D02*
X-27940000Y18415000D01*
X-29845000Y31115000D02*
X-29210000Y30480000D01*
X-29845000Y33655000D02*
X-29845000Y31750000D01*
X-29845000Y31750000D02*
X-29845000Y31115000D01*
X-74295000Y46990000D02*
X-74295000Y41910000D01*
X-81280000Y53340000D02*
X-80645000Y53340000D01*
X-81915000Y53340000D02*
X-81280000Y53340000D01*
X-85090000Y54610000D02*
X-83820000Y53340000D01*
X-83820000Y53340000D02*
X-81915000Y53340000D01*
X-80645000Y53340000D02*
X-74930000Y47625000D01*
X-74930000Y47625000D02*
X-74295000Y46990000D01*
X-35560000Y20320000D02*
X-36195000Y20955000D01*
X-35560000Y17780000D02*
X-35560000Y20320000D01*
X-34290000Y21590000D02*
X-36195000Y23495000D01*
X-34290000Y6350000D02*
X-38100000Y2540000D01*
X-34290000Y20320000D02*
X-34290000Y6350000D01*
X-34290000Y20320000D02*
X-34290000Y21590000D01*
X-33655000Y12065000D02*
X-33655000Y12700000D01*
X-35560000Y4445000D02*
X-33655000Y6350000D01*
X-33655000Y6350000D02*
X-33655000Y12065000D01*
X-31750000Y16510000D02*
X-31750000Y23495000D01*
X-31750000Y23495000D02*
X-33020000Y24765000D01*
X-36195000Y24765000D02*
X-36830000Y25400000D01*
X-33020000Y24765000D02*
X-36195000Y24765000D01*
X-35560000Y4445000D02*
X-35560000Y2540000D01*
X-31750000Y14605000D02*
X-31750000Y16510000D01*
X-33655000Y12700000D02*
X-31750000Y14605000D01*
X-33020000Y12700000D02*
X-29210000Y16510000D01*
X-29210000Y16510000D02*
X-29210000Y19685000D01*
X-31115000Y22860000D02*
X-31115000Y23495000D01*
X-31115000Y21590000D02*
X-31115000Y22860000D01*
X-29210000Y19685000D02*
X-31115000Y21590000D01*
X-34925000Y25400000D02*
X-35560000Y26035000D01*
X-33020000Y25400000D02*
X-34925000Y25400000D01*
X-31115000Y23495000D02*
X-33020000Y25400000D01*
X-33020000Y12700000D02*
X-33020000Y2540000D01*
X-33020000Y24130000D02*
X-37465000Y24130000D01*
X-32385000Y21590000D02*
X-33020000Y20955000D01*
X-32385000Y23495000D02*
X-32385000Y21590000D01*
X-32385000Y23495000D02*
X-33020000Y24130000D01*
X-27940000Y31115000D02*
X-27940000Y27940000D01*
X-28575000Y33655000D02*
X-28575000Y31750000D01*
X-27940000Y31115000D02*
X-28575000Y31750000D01*
X-27940000Y27940000D02*
X-26035000Y26035000D01*
X-24765000Y20955000D02*
X-24765000Y24765000D01*
X-26035000Y4445000D02*
X-26035000Y13970000D01*
X-26035000Y13970000D02*
X-26670000Y14605000D01*
X-26670000Y14605000D02*
X-26670000Y16510000D01*
X-26035000Y19685000D02*
X-26670000Y19050000D01*
X-26670000Y19050000D02*
X-26670000Y16510000D01*
X-26035000Y4445000D02*
X-27940000Y2540000D01*
X-26035000Y19685000D02*
X-24765000Y20955000D01*
X-25400000Y13970000D02*
X-25400000Y2540000D01*
X-25400000Y15240000D02*
X-25400000Y13970000D01*
X-24130000Y15240000D02*
X-24130000Y12700000D01*
X-22225000Y29845000D02*
X-22225000Y28575000D01*
X-22225000Y29845000D02*
X-22860000Y30480000D01*
X-22860000Y30480000D02*
X-23495000Y31115000D01*
X-23495000Y33655000D02*
X-23495000Y31115000D01*
X-24130000Y24130000D02*
X-22225000Y26035000D01*
X-22225000Y26035000D02*
X-22225000Y28575000D01*
X-24130000Y15875000D02*
X-24130000Y19050000D01*
X-24130000Y19050000D02*
X-24130000Y24130000D01*
X-24130000Y15875000D02*
X-24130000Y15240000D01*
X-20320000Y8890000D02*
X-23495000Y12065000D01*
X-20320000Y5715000D02*
X-20320000Y2540000D01*
X-20320000Y5715000D02*
X-20320000Y8890000D01*
X-24130000Y12700000D02*
X-23495000Y12065000D01*
X-15875000Y5715000D02*
X-12700000Y8890000D01*
X-15875000Y30480000D02*
X-15875000Y33655000D01*
X-8255000Y13335000D02*
X-8255000Y14605000D01*
X-12700000Y8890000D02*
X-8255000Y13335000D01*
X-16510000Y4445000D02*
X-15875000Y5080000D01*
X-17780000Y3175000D02*
X-16510000Y4445000D01*
X-15875000Y5715000D02*
X-15875000Y5715000D01*
X-15875000Y5080000D02*
X-15875000Y5715000D01*
X-17780000Y3175000D02*
X-17780000Y2540000D01*
X-17780000Y3175000D02*
X-17780000Y2540000D01*
X-17780000Y2540000D02*
X-17780000Y3175000D01*
X-15240000Y2540000D02*
X-15240000Y4445000D01*
X-15240000Y5715000D02*
X-15240000Y4445000D01*
X-12065000Y28575000D02*
X-12065000Y33655000D01*
X-6350000Y14605000D02*
X-6350000Y19685000D01*
X-6350000Y14605000D02*
X-7620000Y13335000D01*
X-6350000Y19685000D02*
X-6985000Y20320000D01*
X-7620000Y13335000D02*
X-15240000Y5715000D01*
X-26035000Y31750000D02*
X-26035000Y27940000D01*
X-26035000Y33655000D02*
X-26035000Y31750000D01*
X-12065000Y5080000D02*
X-7620000Y5080000D01*
X-7620000Y5080000D02*
X-5080000Y2540000D01*
X-43815000Y44450000D02*
X-36195000Y52070000D01*
X-36195000Y52070000D02*
X-29845000Y52070000D01*
X-46355000Y41910000D02*
X-43815000Y44450000D01*
X-29845000Y52070000D02*
X-22225000Y44450000D01*
X-22225000Y44450000D02*
X-22225000Y42951400D01*
X-46990000Y41910000D02*
X-46355000Y41910000D01*
X-43180000Y44450000D02*
X-36195000Y51435000D01*
X-43180000Y44450000D02*
X-45085000Y42545000D01*
X-45085000Y42545000D02*
X-45085000Y41275000D01*
X-45085000Y41275000D02*
X-45720000Y40640000D01*
X-25400000Y46990000D02*
X-24730344Y46320344D01*
X-24730344Y46320344D02*
X-23495000Y45085000D01*
X-23495000Y42951400D02*
X-23495000Y45085000D01*
X-36195000Y51435000D02*
X-30480000Y51435000D01*
X-48260000Y40640000D02*
X-45720000Y40640000D01*
X-48260000Y40640000D02*
X-49530000Y41910000D01*
X-30480000Y51435000D02*
X-29845000Y51435000D01*
X-25400000Y46990000D02*
X-29845000Y51435000D01*
X-36195000Y50800000D02*
X-42545000Y44450000D01*
X-29845000Y50800000D02*
X-36195000Y50800000D01*
X-44450000Y41275000D02*
X-45085000Y40640000D01*
X-44450000Y42545000D02*
X-44450000Y41275000D01*
X-42545000Y44450000D02*
X-44450000Y42545000D01*
X-45085000Y40640000D02*
X-46355000Y39370000D01*
X-46355000Y39370000D02*
X-46990000Y39370000D01*
X-29845000Y50800000D02*
X-24765000Y45720000D01*
X-29845000Y50800000D02*
X-29845000Y50800000D01*
X-24765000Y45720000D02*
X-24765000Y42951400D01*
X-24765000Y45720000D02*
X-24765000Y45720000D01*
X-36195000Y50165000D02*
X-41910000Y44450000D01*
X-46990000Y37465000D02*
X-46355000Y37465000D01*
X-46355000Y37465000D02*
X-43815000Y40005000D01*
X-43815000Y40005000D02*
X-43815000Y41275000D01*
X-30480000Y50165000D02*
X-36195000Y50165000D01*
X-43815000Y42545000D02*
X-43815000Y41275000D01*
X-41910000Y44450000D02*
X-43815000Y42545000D01*
X-47625000Y37465000D02*
X-49530000Y39370000D01*
X-47625000Y37465000D02*
X-46990000Y37465000D01*
X-30480000Y50165000D02*
X-29845000Y50165000D01*
X-26035000Y45720000D02*
X-26035000Y42951400D01*
X-26035000Y46355000D02*
X-26035000Y45720000D01*
X-29845000Y50165000D02*
X-26035000Y46355000D01*
X-30480000Y50165000D02*
X-30480000Y50165000D01*
X-73660000Y39370000D02*
X-71120000Y36830000D01*
X-68580000Y36830000D02*
X-71120000Y36830000D01*
X-73660000Y46990000D02*
X-73660000Y39370000D01*
X-80645000Y53975000D02*
X-80645000Y54610000D01*
X-81280000Y55880000D02*
X-83185000Y55880000D01*
X-83820000Y55880000D02*
X-85090000Y57150000D01*
X-83185000Y55880000D02*
X-83820000Y55880000D01*
X-79375000Y52705000D02*
X-74295000Y47625000D01*
X-80645000Y53975000D02*
X-79375000Y52705000D01*
X-80645000Y55245000D02*
X-81280000Y55880000D01*
X-80645000Y54610000D02*
X-80645000Y55245000D01*
X-74295000Y47625000D02*
X-73660000Y46990000D01*
X-52705000Y36830000D02*
X-46355000Y36830000D01*
X-41275000Y44450000D02*
X-43180000Y42545000D01*
X-43180000Y42545000D02*
X-43180000Y40005000D01*
X-36195000Y49530000D02*
X-31115000Y49530000D01*
X-46355000Y36830000D02*
X-43180000Y40005000D01*
X-36195000Y49530000D02*
X-41275000Y44450000D01*
X-68580000Y36830000D02*
X-52705000Y36830000D01*
X-68580000Y36830000D02*
X-67310000Y36830000D01*
X-31115000Y49530000D02*
X-27305000Y45720000D01*
X-27305000Y45720000D02*
X-27305000Y42951400D01*
X-31115000Y49530000D02*
X-31115000Y49530000D01*
X-76835000Y36195000D02*
X-78740000Y36195000D01*
X-53340000Y36195000D02*
X-46355000Y36195000D01*
X-53340000Y36195000D02*
X-76835000Y36195000D01*
X-40640000Y44450000D02*
X-42545000Y42545000D01*
X-42545000Y42545000D02*
X-42545000Y40005000D01*
X-31115000Y48895000D02*
X-28575000Y46355000D01*
X-31750000Y48895000D02*
X-31115000Y48895000D01*
X-36195000Y48895000D02*
X-32385000Y48895000D01*
X-32385000Y48895000D02*
X-31750000Y48895000D01*
X-28575000Y42951400D02*
X-28575000Y46355000D01*
X-46355000Y36195000D02*
X-42545000Y40005000D01*
X-36195000Y48895000D02*
X-40640000Y44450000D01*
X-80645000Y40005000D02*
X-82550000Y41910000D01*
X-80645000Y38100000D02*
X-80645000Y40005000D01*
X-78740000Y36195000D02*
X-80645000Y38100000D01*
X-36195000Y48260000D02*
X-40005000Y44450000D01*
X-32385000Y48260000D02*
X-36195000Y48260000D01*
X-41910000Y40005000D02*
X-41910000Y42545000D01*
X-41910000Y42545000D02*
X-40005000Y44450000D01*
X-53975000Y35560000D02*
X-78740000Y35560000D01*
X-46355000Y35560000D02*
X-53975000Y35560000D01*
X-78740000Y35560000D02*
X-82550000Y39370000D01*
X-46355000Y35560000D02*
X-41910000Y40005000D01*
X-32385000Y48260000D02*
X-31115000Y48260000D01*
X-29845000Y46990000D02*
X-29845000Y42951400D01*
X-31115000Y48260000D02*
X-29845000Y46990000D01*
X-32385000Y48260000D02*
X-32385000Y48260000D01*
X-37465000Y55880000D02*
X-36195000Y57150000D01*
X-46990000Y57150000D02*
X-45720000Y57150000D01*
X-44450000Y55880000D02*
X-40005000Y55880000D01*
X-45720000Y57150000D02*
X-44450000Y55880000D01*
X-36195000Y57150000D02*
X-17780000Y57150000D01*
X-17780000Y57150000D02*
X-5715000Y45085000D01*
X-5715000Y45085000D02*
X-5715000Y42951400D01*
X-40005000Y55880000D02*
X-37465000Y55880000D01*
X-46990000Y57150000D02*
X-46355000Y57150000D01*
X-38100000Y55245000D02*
X-37465000Y55245000D01*
X-45720000Y55880000D02*
X-45085000Y55880000D01*
X-48260000Y55880000D02*
X-45720000Y55880000D01*
X-49530000Y57150000D02*
X-48260000Y55880000D01*
X-44450000Y55245000D02*
X-40640000Y55245000D01*
X-45085000Y55880000D02*
X-44450000Y55245000D01*
X-17780000Y56515000D02*
X-6985000Y45720000D01*
X-6985000Y45720000D02*
X-6985000Y42951400D01*
X-36195000Y56515000D02*
X-19050000Y56515000D01*
X-19050000Y56515000D02*
X-17780000Y56515000D01*
X-40640000Y55245000D02*
X-38100000Y55245000D01*
X-37465000Y55245000D02*
X-36195000Y56515000D01*
X-38100000Y54610000D02*
X-37465000Y54610000D01*
X-46990000Y54610000D02*
X-40640000Y54610000D01*
X-19050000Y55880000D02*
X-17780000Y55880000D01*
X-36195000Y55880000D02*
X-19050000Y55880000D01*
X-8255000Y46355000D02*
X-8255000Y42951400D01*
X-17780000Y55880000D02*
X-8255000Y46355000D01*
X-40640000Y54610000D02*
X-38100000Y54610000D01*
X-37465000Y54610000D02*
X-36195000Y55880000D01*
X-46990000Y54610000D02*
X-46355000Y54610000D01*
X-38100000Y53975000D02*
X-37465000Y53975000D01*
X-48260000Y53340000D02*
X-45720000Y53340000D01*
X-49530000Y54610000D02*
X-48260000Y53340000D01*
X-45085000Y53975000D02*
X-41910000Y53975000D01*
X-45720000Y53340000D02*
X-45085000Y53975000D01*
X-17780000Y55245000D02*
X-9525000Y46990000D01*
X-9525000Y46990000D02*
X-9525000Y45720000D01*
X-36195000Y55245000D02*
X-19050000Y55245000D01*
X-9525000Y45720000D02*
X-9525000Y42951400D01*
X-19050000Y55245000D02*
X-17780000Y55245000D01*
X-41910000Y53975000D02*
X-38100000Y53975000D01*
X-37465000Y53975000D02*
X-36195000Y55245000D01*
X-38100000Y53340000D02*
X-37465000Y53340000D01*
X-42545000Y53340000D02*
X-38100000Y53340000D01*
X-19050000Y54610000D02*
X-17780000Y54610000D01*
X-10795000Y42951400D02*
X-10795000Y46355000D01*
X-36195000Y54610000D02*
X-19050000Y54610000D01*
X-10795000Y47625000D02*
X-10795000Y46355000D01*
X-17780000Y54610000D02*
X-10795000Y47625000D01*
X-45085000Y53340000D02*
X-42545000Y53340000D01*
X-45085000Y53340000D02*
X-46355000Y52070000D01*
X-37465000Y53340000D02*
X-36195000Y54610000D01*
X-46990000Y52070000D02*
X-46355000Y52070000D01*
X-38100000Y52705000D02*
X-37465000Y52705000D01*
X-38100000Y52705000D02*
X-42545000Y52705000D01*
X-48260000Y50800000D02*
X-45720000Y50800000D01*
X-49530000Y52070000D02*
X-48260000Y50800000D01*
X-43815000Y52705000D02*
X-42545000Y52705000D01*
X-45720000Y50800000D02*
X-43815000Y52705000D01*
X-17780000Y53975000D02*
X-12065000Y48260000D01*
X-12065000Y48260000D02*
X-12065000Y42951400D01*
X-36195000Y53975000D02*
X-20320000Y53975000D01*
X-20320000Y53975000D02*
X-17780000Y53975000D01*
X-37465000Y52705000D02*
X-36195000Y53975000D01*
X-36195000Y53340000D02*
X-43884312Y45650688D01*
X-20320000Y53340000D02*
X-17780000Y53340000D01*
X-36195000Y53340000D02*
X-20320000Y53340000D01*
X-13335000Y42951400D02*
X-13335000Y46355000D01*
X-13335000Y48895000D02*
X-13335000Y46355000D01*
X-17780000Y53340000D02*
X-13335000Y48895000D01*
X-45085000Y44450000D02*
X-43884312Y45650688D01*
X-45720000Y44450000D02*
X-46990000Y44450000D01*
X-45720000Y44450000D02*
X-45085000Y44450000D01*
X-46990000Y44450000D02*
X-46355000Y44450000D01*
X-44450000Y44450000D02*
X-45720000Y43180000D01*
X-17780000Y52705000D02*
X-36195000Y52705000D01*
X-44450000Y44450000D02*
X-36195000Y52705000D01*
X-45720000Y43180000D02*
X-46355000Y43180000D01*
X-46355000Y43180000D02*
X-46285688Y43180000D01*
X-49530000Y44450000D02*
X-48260000Y43180000D01*
X-48260000Y43180000D02*
X-46355000Y43180000D01*
X-17780000Y52705000D02*
X-14605000Y49530000D01*
X-14605000Y46990000D02*
X-14605000Y42951400D01*
X-14605000Y49530000D02*
X-14605000Y46990000D01*
X-17780000Y52705000D02*
X-17780000Y52705000D01*
D17*
X-53975000Y48260000D02*
X-54610000Y48260000D01*
X-50800000Y48260000D02*
X-53975000Y48260000D01*
X-49530000Y46990000D02*
X-50800000Y48260000D01*
D19*
G36*
X-3960000Y20320000D02*
X-3948182Y20261642D01*
X-3900000Y20200000D01*
X-2606745Y19230059D01*
X-2827157Y19230251D01*
X-2999713Y19158952D01*
X-5890381Y22049619D01*
X-6101255Y22190522D01*
X-6142524Y22198731D01*
X-6350000Y22240000D01*
X-7067833Y22240000D01*
X-7137885Y22310174D01*
X-7450183Y22439852D01*
X-7788334Y22440147D01*
X-8100857Y22311015D01*
X-8240000Y22172114D01*
X-8240000Y29575762D01*
X-6525380Y31290381D01*
X-6384478Y31501256D01*
X-6370904Y31569496D01*
X-6195885Y31497000D01*
X-5983500Y31497000D01*
X-5819000Y31661500D01*
X-5819000Y33551000D01*
X-5611000Y33551000D01*
X-5611000Y31661500D01*
X-5446500Y31497000D01*
X-5234115Y31497000D01*
X-4992273Y31597175D01*
X-4807174Y31782273D01*
X-4707000Y32024116D01*
X-4707000Y33386500D01*
X-4871500Y33551000D01*
X-5611000Y33551000D01*
X-5819000Y33551000D01*
X-5839000Y33551000D01*
X-5839000Y33759000D01*
X-5819000Y33759000D01*
X-5819000Y35648500D01*
X-5611000Y35648500D01*
X-5611000Y33759000D01*
X-4871500Y33759000D01*
X-4707000Y33923500D01*
X-4707000Y35285884D01*
X-4807174Y35527727D01*
X-4992273Y35712825D01*
X-5234115Y35813000D01*
X-5446500Y35813000D01*
X-5611000Y35648500D01*
X-5819000Y35648500D01*
X-5983500Y35813000D01*
X-6195885Y35813000D01*
X-6437727Y35712825D01*
X-6468495Y35682057D01*
X-6635000Y35715775D01*
X-7335000Y35715775D01*
X-7538818Y35677424D01*
X-7619436Y35625548D01*
X-7686827Y35671594D01*
X-7905000Y35715775D01*
X-8605000Y35715775D01*
X-8808818Y35677424D01*
X-8889436Y35625548D01*
X-8956827Y35671594D01*
X-9175000Y35715775D01*
X-9875000Y35715775D01*
X-10078818Y35677424D01*
X-10159436Y35625548D01*
X-10226827Y35671594D01*
X-10445000Y35715775D01*
X-11145000Y35715775D01*
X-11348818Y35677424D01*
X-11429436Y35625548D01*
X-11496827Y35671594D01*
X-11715000Y35715775D01*
X-12415000Y35715775D01*
X-12618818Y35677424D01*
X-12699436Y35625548D01*
X-12766827Y35671594D01*
X-12985000Y35715775D01*
X-13685000Y35715775D01*
X-13888818Y35677424D01*
X-13969436Y35625548D01*
X-14036827Y35671594D01*
X-14255000Y35715775D01*
X-14955000Y35715775D01*
X-15158818Y35677424D01*
X-15239436Y35625548D01*
X-15306827Y35671594D01*
X-15525000Y35715775D01*
X-16225000Y35715775D01*
X-16428818Y35677424D01*
X-16445000Y35667011D01*
X-16445000Y40830313D01*
X-16355885Y40793400D01*
X-16143500Y40793400D01*
X-15979000Y40957900D01*
X-15979000Y42847400D01*
X-15999000Y42847400D01*
X-15999000Y43055400D01*
X-15979000Y43055400D01*
X-15979000Y44944900D01*
X-16143500Y45109400D01*
X-16355885Y45109400D01*
X-16597727Y45009225D01*
X-16628495Y44978457D01*
X-16697476Y44992426D01*
X-17715000Y46009950D01*
X-17715000Y46314225D01*
X-17511182Y46352576D01*
X-17491253Y46365400D01*
X-17443027Y46317174D01*
X-17201184Y46217000D01*
X-16638800Y46217000D01*
X-16474300Y46381500D01*
X-16474300Y47521000D01*
X-16494300Y47521000D01*
X-16494300Y47729000D01*
X-16474300Y47729000D01*
X-16474300Y48868500D01*
X-16638800Y49033000D01*
X-17201184Y49033000D01*
X-17443027Y48932826D01*
X-17489360Y48886492D01*
X-17496827Y48891594D01*
X-17715000Y48935775D01*
X-19115000Y48935775D01*
X-19318818Y48897424D01*
X-19506012Y48776968D01*
X-19631594Y48593173D01*
X-19675775Y48375000D01*
X-19675775Y46875000D01*
X-19637424Y46671182D01*
X-19516968Y46483988D01*
X-19333173Y46358406D01*
X-19115000Y46314225D01*
X-19115000Y45720000D01*
X-19061716Y45452121D01*
X-18909975Y45225025D01*
X-18055775Y44370825D01*
X-18055775Y41451400D01*
X-18017424Y41247582D01*
X-17896968Y41060388D01*
X-17845000Y41024880D01*
X-17845000Y40705000D01*
X-19041446Y40705000D01*
X-19146165Y40809902D01*
X-19495204Y40954835D01*
X-19873138Y40955165D01*
X-20222429Y40810841D01*
X-20489902Y40543835D01*
X-20634835Y40194796D01*
X-20635165Y39816862D01*
X-20490841Y39467571D01*
X-20223835Y39200098D01*
X-19874796Y39055165D01*
X-19496862Y39054835D01*
X-19147571Y39199159D01*
X-19041545Y39305000D01*
X-17845000Y39305000D01*
X-17845000Y35583358D01*
X-17886012Y35556968D01*
X-18011594Y35373173D01*
X-18055775Y35155000D01*
X-18055775Y32155000D01*
X-18017424Y31951182D01*
X-17896968Y31763988D01*
X-17713173Y31638406D01*
X-17495000Y31594225D01*
X-16795000Y31594225D01*
X-16591182Y31632576D01*
X-16525000Y31675163D01*
X-16525000Y31032167D01*
X-16595174Y30962115D01*
X-16724852Y30649817D01*
X-16725085Y30383162D01*
X-16861827Y30476594D01*
X-17080000Y30520775D01*
X-18480000Y30520775D01*
X-18683818Y30482424D01*
X-18703747Y30469600D01*
X-18751973Y30517826D01*
X-18993816Y30618000D01*
X-19556200Y30618000D01*
X-19720700Y30453500D01*
X-19720700Y29314000D01*
X-19700700Y29314000D01*
X-19700700Y29106000D01*
X-19720700Y29106000D01*
X-19720700Y27966500D01*
X-19556200Y27802000D01*
X-18993816Y27802000D01*
X-18751973Y27902174D01*
X-18705640Y27948508D01*
X-18698173Y27943406D01*
X-18480000Y27899225D01*
X-17080000Y27899225D01*
X-16876182Y27937576D01*
X-16688988Y28058032D01*
X-16563406Y28241827D01*
X-16519225Y28460000D01*
X-16519225Y28560000D01*
X-15875000Y28560000D01*
X-15667524Y28601269D01*
X-15626255Y28609478D01*
X-15415381Y28750381D01*
X-14184882Y29980879D01*
X-14185147Y29676666D01*
X-14056015Y29364143D01*
X-13817115Y29124826D01*
X-13504817Y28995148D01*
X-13166666Y28994853D01*
X-12854143Y29123985D01*
X-12715000Y29262886D01*
X-12715000Y29127167D01*
X-12785174Y29057115D01*
X-12914852Y28744817D01*
X-12915147Y28406666D01*
X-12786015Y28094143D01*
X-12547115Y27854826D01*
X-12234817Y27725148D01*
X-11896666Y27724853D01*
X-11584143Y27853985D01*
X-11445000Y27992886D01*
X-11445000Y23129239D01*
X-11889617Y22684621D01*
X-11889620Y22684619D01*
X-13159617Y21414621D01*
X-13159620Y21414619D01*
X-15344147Y19230091D01*
X-15527157Y19230251D01*
X-16060286Y19009967D01*
X-16468533Y18602431D01*
X-16509828Y18502982D01*
X-16550033Y18600286D01*
X-16957569Y19008533D01*
X-17490312Y19229748D01*
X-18067157Y19230251D01*
X-18600286Y19009967D01*
X-19008533Y18602431D01*
X-19049828Y18502982D01*
X-19090033Y18600286D01*
X-19497569Y19008533D01*
X-20030312Y19229748D01*
X-20607157Y19230251D01*
X-20779714Y19158952D01*
X-22845000Y21224238D01*
X-22845000Y23860762D01*
X-21130380Y25575381D01*
X-21130378Y25575384D01*
X-20885822Y25819940D01*
X-20786666Y25819853D01*
X-20474143Y25948985D01*
X-20234826Y26187885D01*
X-20105148Y26500183D01*
X-20104853Y26838334D01*
X-20233985Y27150857D01*
X-20472885Y27390174D01*
X-20785183Y27519852D01*
X-21123334Y27520147D01*
X-21435857Y27391015D01*
X-21575000Y27252114D01*
X-21575000Y28941500D01*
X-21182700Y28941500D01*
X-21182700Y28329115D01*
X-21082525Y28087273D01*
X-20897427Y27902174D01*
X-20655584Y27802000D01*
X-20093200Y27802000D01*
X-19928700Y27966500D01*
X-19928700Y29106000D01*
X-21018200Y29106000D01*
X-21182700Y28941500D01*
X-21575000Y28941500D01*
X-21575000Y29845000D01*
X-21623909Y30090885D01*
X-21182700Y30090885D01*
X-21182700Y29478500D01*
X-21018200Y29314000D01*
X-19928700Y29314000D01*
X-19928700Y30453500D01*
X-20093200Y30618000D01*
X-20655584Y30618000D01*
X-20897427Y30517826D01*
X-21082525Y30332727D01*
X-21182700Y30090885D01*
X-21623909Y30090885D01*
X-21624478Y30093744D01*
X-21716360Y30231255D01*
X-21765380Y30304619D01*
X-22400378Y30939616D01*
X-22400380Y30939619D01*
X-22845000Y31384238D01*
X-22845000Y31554624D01*
X-22705885Y31497000D01*
X-22493500Y31497000D01*
X-22329000Y31661500D01*
X-22329000Y33551000D01*
X-22121000Y33551000D01*
X-22121000Y31661500D01*
X-21956500Y31497000D01*
X-21744115Y31497000D01*
X-21502273Y31597175D01*
X-21317174Y31782273D01*
X-21217000Y32024116D01*
X-21217000Y33386500D01*
X-21381500Y33551000D01*
X-22121000Y33551000D01*
X-22329000Y33551000D01*
X-22349000Y33551000D01*
X-22349000Y33759000D01*
X-22329000Y33759000D01*
X-22329000Y35648500D01*
X-22121000Y35648500D01*
X-22121000Y33759000D01*
X-21381500Y33759000D01*
X-21217000Y33923500D01*
X-21217000Y35285884D01*
X-21317174Y35527727D01*
X-21502273Y35712825D01*
X-21744115Y35813000D01*
X-21956500Y35813000D01*
X-22121000Y35648500D01*
X-22329000Y35648500D01*
X-22493500Y35813000D01*
X-22705885Y35813000D01*
X-22947727Y35712825D01*
X-22978495Y35682057D01*
X-23145000Y35715775D01*
X-23845000Y35715775D01*
X-24048818Y35677424D01*
X-24129436Y35625548D01*
X-24196827Y35671594D01*
X-24415000Y35715775D01*
X-25115000Y35715775D01*
X-25318818Y35677424D01*
X-25399436Y35625548D01*
X-25466827Y35671594D01*
X-25685000Y35715775D01*
X-26385000Y35715775D01*
X-26588818Y35677424D01*
X-26669436Y35625548D01*
X-26736827Y35671594D01*
X-26955000Y35715775D01*
X-27655000Y35715775D01*
X-27858818Y35677424D01*
X-27939436Y35625548D01*
X-28006827Y35671594D01*
X-28225000Y35715775D01*
X-28925000Y35715775D01*
X-29128818Y35677424D01*
X-29209436Y35625548D01*
X-29276827Y35671594D01*
X-29495000Y35715775D01*
X-30195000Y35715775D01*
X-30398818Y35677424D01*
X-30479436Y35625548D01*
X-30546827Y35671594D01*
X-30765000Y35715775D01*
X-31465000Y35715775D01*
X-31633515Y35684067D01*
X-31662273Y35712825D01*
X-31904115Y35813000D01*
X-32116500Y35813000D01*
X-32281000Y35648500D01*
X-32281000Y33759000D01*
X-32261000Y33759000D01*
X-32261000Y33551000D01*
X-32281000Y33551000D01*
X-32281000Y31661500D01*
X-32116500Y31497000D01*
X-31904115Y31497000D01*
X-31765000Y31554624D01*
X-31765000Y31115000D01*
X-31734589Y30962115D01*
X-31715522Y30866255D01*
X-31574619Y30655381D01*
X-29225000Y28305761D01*
X-29225000Y27305000D01*
X-29194589Y27152115D01*
X-29175522Y27056255D01*
X-29034619Y26845381D01*
X-27129619Y24940380D01*
X-26918744Y24799478D01*
X-26884976Y24792761D01*
X-26885147Y24596666D01*
X-26756015Y24284143D01*
X-26517115Y24044826D01*
X-26204817Y23915148D01*
X-26104299Y23915060D01*
X-26050000Y23860761D01*
X-26050000Y21224239D01*
X-27129617Y20144621D01*
X-27129620Y20144619D01*
X-28044147Y19230091D01*
X-28227157Y19230251D01*
X-28560000Y19092723D01*
X-28560000Y19685000D01*
X-28609478Y19933744D01*
X-28701360Y20071255D01*
X-28750380Y20144619D01*
X-30465000Y21859238D01*
X-30465000Y23495000D01*
X-30514478Y23743744D01*
X-30606360Y23881255D01*
X-30655380Y23954619D01*
X-32560381Y25859619D01*
X-32771255Y26000522D01*
X-32812524Y26008731D01*
X-33020000Y26050000D01*
X-34655761Y26050000D01*
X-34709940Y26104178D01*
X-34709853Y26203334D01*
X-34838985Y26515857D01*
X-35077885Y26755174D01*
X-35390183Y26884852D01*
X-35728334Y26885147D01*
X-36040857Y26756015D01*
X-36280174Y26517115D01*
X-36409852Y26204817D01*
X-36409903Y26145926D01*
X-36660183Y26249852D01*
X-36998334Y26250147D01*
X-37310857Y26121015D01*
X-37550174Y25882115D01*
X-37679852Y25569817D01*
X-37680147Y25231666D01*
X-37576201Y24980097D01*
X-37633334Y24980147D01*
X-37945857Y24851015D01*
X-38185174Y24612115D01*
X-38314852Y24299817D01*
X-38315147Y23961666D01*
X-38186015Y23649143D01*
X-37947115Y23409826D01*
X-37634817Y23280148D01*
X-37296666Y23279853D01*
X-37045097Y23383799D01*
X-37045147Y23326666D01*
X-36916015Y23014143D01*
X-36677115Y22774826D01*
X-36364817Y22645148D01*
X-36264299Y22645060D01*
X-34940000Y21320761D01*
X-34940000Y20470821D01*
X-34959478Y20568744D01*
X-35051360Y20706255D01*
X-35100380Y20779619D01*
X-35344940Y21024178D01*
X-35344853Y21123334D01*
X-35473985Y21435857D01*
X-35712885Y21675174D01*
X-36025183Y21804852D01*
X-36363334Y21805147D01*
X-36675857Y21676015D01*
X-36915174Y21437115D01*
X-37044852Y21124817D01*
X-37045147Y20786666D01*
X-36916015Y20474143D01*
X-36677115Y20234826D01*
X-36364817Y20105148D01*
X-36264299Y20105060D01*
X-36210000Y20050761D01*
X-36210000Y19080328D01*
X-36380286Y19009967D01*
X-36788533Y18602431D01*
X-36829828Y18502982D01*
X-36870033Y18600286D01*
X-37277569Y19008533D01*
X-37810312Y19229748D01*
X-38387157Y19230251D01*
X-38920286Y19009967D01*
X-39301713Y18629204D01*
X-39562214Y18710708D01*
X-40492922Y17780000D01*
X-39562214Y16849292D01*
X-39301245Y16930942D01*
X-38922431Y16551467D01*
X-38389688Y16330252D01*
X-37812843Y16329749D01*
X-37279714Y16550033D01*
X-36871467Y16957569D01*
X-36830172Y17057018D01*
X-36789967Y16959714D01*
X-36382431Y16551467D01*
X-35849688Y16330252D01*
X-35272843Y16329749D01*
X-34940000Y16467277D01*
X-34940000Y6619239D01*
X-37640149Y3919090D01*
X-37810312Y3989748D01*
X-38387157Y3990251D01*
X-38920286Y3769967D01*
X-39328533Y3362431D01*
X-39369828Y3262982D01*
X-39410033Y3360286D01*
X-39817569Y3768533D01*
X-40350312Y3989748D01*
X-40927157Y3990251D01*
X-41460286Y3769967D01*
X-41760000Y3470775D01*
X-41760000Y16657645D01*
X-41687637Y16585282D01*
X-41570707Y16702212D01*
X-41487569Y16436486D01*
X-40908911Y16214403D01*
X-40289314Y16230669D01*
X-39792431Y16436486D01*
X-39709292Y16702214D01*
X-40640000Y17632922D01*
X-40654142Y17618779D01*
X-40801220Y17765857D01*
X-40787078Y17780000D01*
X-40801220Y17794142D01*
X-40654142Y17941220D01*
X-40640000Y17927078D01*
X-39709292Y18857786D01*
X-39792431Y19123514D01*
X-40371089Y19345597D01*
X-40420949Y19344288D01*
X-39280000Y20200000D01*
X-39240404Y20244469D01*
X-39220000Y20320000D01*
X-39220000Y27940000D01*
X-39231818Y27998358D01*
X-39265409Y28047521D01*
X-39315481Y28079742D01*
X-39370000Y28090000D01*
X-88750000Y28090000D01*
X-88750000Y38247645D01*
X-88677637Y38175282D01*
X-88560707Y38292212D01*
X-88477569Y38026486D01*
X-87898911Y37804403D01*
X-87279314Y37820669D01*
X-86782431Y38026486D01*
X-86699292Y38292214D01*
X-87630000Y39222922D01*
X-87644142Y39208779D01*
X-87791220Y39355857D01*
X-87777078Y39370000D01*
X-87791220Y39384142D01*
X-87644142Y39531220D01*
X-87630000Y39517078D01*
X-86699292Y40447786D01*
X-86780942Y40708755D01*
X-86401467Y41087569D01*
X-86360172Y41187018D01*
X-86319967Y41089714D01*
X-85912431Y40681467D01*
X-85812982Y40640172D01*
X-85910286Y40599967D01*
X-86291713Y40219204D01*
X-86552214Y40300708D01*
X-87482922Y39370000D01*
X-86552214Y38439292D01*
X-86291245Y38520942D01*
X-85912431Y38141467D01*
X-85379688Y37920252D01*
X-84802843Y37919749D01*
X-84269714Y38140033D01*
X-83861467Y38547569D01*
X-83820172Y38647018D01*
X-83779967Y38549714D01*
X-83372431Y38141467D01*
X-82839688Y37920252D01*
X-82262843Y37919749D01*
X-82090286Y37991048D01*
X-79199619Y35100380D01*
X-78988744Y34959478D01*
X-78740000Y34910000D01*
X-46355000Y34910000D01*
X-46147524Y34951269D01*
X-46106255Y34959478D01*
X-45895381Y35100381D01*
X-43718900Y37276862D01*
X-39685165Y37276862D01*
X-39540841Y36927571D01*
X-39273835Y36660098D01*
X-38924796Y36515165D01*
X-38546862Y36514835D01*
X-38197571Y36659159D01*
X-38091545Y36765000D01*
X-37505775Y36765000D01*
X-37467424Y36561182D01*
X-37346968Y36373988D01*
X-37163173Y36248406D01*
X-36945000Y36204225D01*
X-35445000Y36204225D01*
X-35241182Y36242576D01*
X-35053988Y36363032D01*
X-34928406Y36546827D01*
X-34884225Y36765000D01*
X-34355000Y36765000D01*
X-34355000Y35583358D01*
X-34396012Y35556968D01*
X-34521594Y35373173D01*
X-34565775Y35155000D01*
X-34565775Y32155000D01*
X-34527424Y31951182D01*
X-34406968Y31763988D01*
X-34223173Y31638406D01*
X-34005000Y31594225D01*
X-33305000Y31594225D01*
X-33136485Y31625933D01*
X-33107727Y31597175D01*
X-32865885Y31497000D01*
X-32653500Y31497000D01*
X-32489000Y31661500D01*
X-32489000Y33551000D01*
X-32509000Y33551000D01*
X-32509000Y33759000D01*
X-32489000Y33759000D01*
X-32489000Y35648500D01*
X-32653500Y35813000D01*
X-32865885Y35813000D01*
X-32955000Y35776087D01*
X-32955000Y40830313D01*
X-32865885Y40793400D01*
X-32653500Y40793400D01*
X-32489000Y40957900D01*
X-32489000Y42847400D01*
X-32509000Y42847400D01*
X-32509000Y43055400D01*
X-32489000Y43055400D01*
X-32489000Y44944900D01*
X-32653500Y45109400D01*
X-32865885Y45109400D01*
X-33107727Y45009225D01*
X-33138495Y44978457D01*
X-33305000Y45012175D01*
X-34005000Y45012175D01*
X-34208818Y44973824D01*
X-34396012Y44853368D01*
X-34521594Y44669573D01*
X-34565775Y44451400D01*
X-34565775Y41451400D01*
X-34527424Y41247582D01*
X-34406968Y41060388D01*
X-34355000Y41024880D01*
X-34355000Y38165000D01*
X-34884225Y38165000D01*
X-34922576Y38368818D01*
X-34935400Y38388747D01*
X-34887174Y38436973D01*
X-34787000Y38678816D01*
X-34787000Y39241200D01*
X-34951500Y39405700D01*
X-36091000Y39405700D01*
X-36091000Y39385700D01*
X-36299000Y39385700D01*
X-36299000Y39405700D01*
X-37438500Y39405700D01*
X-37603000Y39241200D01*
X-37603000Y38678816D01*
X-37502826Y38436973D01*
X-37456492Y38390640D01*
X-37461594Y38383173D01*
X-37505775Y38165000D01*
X-38091446Y38165000D01*
X-38196165Y38269902D01*
X-38545204Y38414835D01*
X-38923138Y38415165D01*
X-39272429Y38270841D01*
X-39539902Y38003835D01*
X-39684835Y37654796D01*
X-39685165Y37276862D01*
X-43718900Y37276862D01*
X-41450381Y39545380D01*
X-41309478Y39756255D01*
X-41294885Y39829619D01*
X-41260000Y40005000D01*
X-41260000Y40340584D01*
X-37603000Y40340584D01*
X-37603000Y39778200D01*
X-37438500Y39613700D01*
X-36299000Y39613700D01*
X-36299000Y40703200D01*
X-36091000Y40703200D01*
X-36091000Y39613700D01*
X-34951500Y39613700D01*
X-34787000Y39778200D01*
X-34787000Y40340584D01*
X-34887174Y40582427D01*
X-35072273Y40767525D01*
X-35314115Y40867700D01*
X-35926500Y40867700D01*
X-36091000Y40703200D01*
X-36299000Y40703200D01*
X-36463500Y40867700D01*
X-37075885Y40867700D01*
X-37317727Y40767525D01*
X-37502826Y40582427D01*
X-37603000Y40340584D01*
X-41260000Y40340584D01*
X-41260000Y42275762D01*
X-39545380Y43990381D01*
X-39545378Y43990384D01*
X-35925761Y47610000D01*
X-31384238Y47610000D01*
X-30495000Y46720761D01*
X-30495000Y44932582D01*
X-30546827Y44967994D01*
X-30765000Y45012175D01*
X-31465000Y45012175D01*
X-31633515Y44980467D01*
X-31662273Y45009225D01*
X-31904115Y45109400D01*
X-32116500Y45109400D01*
X-32281000Y44944900D01*
X-32281000Y43055400D01*
X-32261000Y43055400D01*
X-32261000Y42847400D01*
X-32281000Y42847400D01*
X-32281000Y40957900D01*
X-32116500Y40793400D01*
X-31904115Y40793400D01*
X-31662273Y40893575D01*
X-31631505Y40924343D01*
X-31465000Y40890625D01*
X-30765000Y40890625D01*
X-30561182Y40928976D01*
X-30480564Y40980852D01*
X-30413173Y40934806D01*
X-30195000Y40890625D01*
X-29495000Y40890625D01*
X-29291182Y40928976D01*
X-29210564Y40980852D01*
X-29143173Y40934806D01*
X-28925000Y40890625D01*
X-28225000Y40890625D01*
X-28021182Y40928976D01*
X-27940564Y40980852D01*
X-27873173Y40934806D01*
X-27655000Y40890625D01*
X-26955000Y40890625D01*
X-26751182Y40928976D01*
X-26670564Y40980852D01*
X-26603173Y40934806D01*
X-26385000Y40890625D01*
X-25685000Y40890625D01*
X-25481182Y40928976D01*
X-25400564Y40980852D01*
X-25333173Y40934806D01*
X-25115000Y40890625D01*
X-24415000Y40890625D01*
X-24211182Y40928976D01*
X-24130564Y40980852D01*
X-24063173Y40934806D01*
X-23845000Y40890625D01*
X-23145000Y40890625D01*
X-22941182Y40928976D01*
X-22860564Y40980852D01*
X-22793173Y40934806D01*
X-22575000Y40890625D01*
X-21875000Y40890625D01*
X-21671182Y40928976D01*
X-21483988Y41049432D01*
X-21358406Y41233227D01*
X-21314225Y41451400D01*
X-21314225Y44451400D01*
X-21352576Y44655218D01*
X-21473032Y44842412D01*
X-21656827Y44967994D01*
X-21866142Y45010381D01*
X-28910762Y52055000D01*
X-18049238Y52055000D01*
X-15255000Y49260762D01*
X-15255000Y48890253D01*
X-15297573Y48932826D01*
X-15539416Y49033000D01*
X-16101800Y49033000D01*
X-16266300Y48868500D01*
X-16266300Y47729000D01*
X-16246300Y47729000D01*
X-16246300Y47521000D01*
X-16266300Y47521000D01*
X-16266300Y46381500D01*
X-16101800Y46217000D01*
X-15539416Y46217000D01*
X-15297573Y46317174D01*
X-15255000Y46359747D01*
X-15255000Y45051776D01*
X-15394115Y45109400D01*
X-15606500Y45109400D01*
X-15771000Y44944900D01*
X-15771000Y43055400D01*
X-15751000Y43055400D01*
X-15751000Y42847400D01*
X-15771000Y42847400D01*
X-15771000Y40957900D01*
X-15606500Y40793400D01*
X-15394115Y40793400D01*
X-15152273Y40893575D01*
X-15121505Y40924343D01*
X-14955000Y40890625D01*
X-14255000Y40890625D01*
X-14051182Y40928976D01*
X-13970564Y40980852D01*
X-13903173Y40934806D01*
X-13685000Y40890625D01*
X-12985000Y40890625D01*
X-12781182Y40928976D01*
X-12700564Y40980852D01*
X-12633173Y40934806D01*
X-12415000Y40890625D01*
X-11715000Y40890625D01*
X-11511182Y40928976D01*
X-11430564Y40980852D01*
X-11363173Y40934806D01*
X-11145000Y40890625D01*
X-10445000Y40890625D01*
X-10241182Y40928976D01*
X-10160564Y40980852D01*
X-10093173Y40934806D01*
X-9875000Y40890625D01*
X-9175000Y40890625D01*
X-8971182Y40928976D01*
X-8890564Y40980852D01*
X-8823173Y40934806D01*
X-8605000Y40890625D01*
X-7905000Y40890625D01*
X-7701182Y40928976D01*
X-7620564Y40980852D01*
X-7553173Y40934806D01*
X-7335000Y40890625D01*
X-6635000Y40890625D01*
X-6431182Y40928976D01*
X-6350564Y40980852D01*
X-6283173Y40934806D01*
X-6065000Y40890625D01*
X-5365000Y40890625D01*
X-5161182Y40928976D01*
X-4973988Y41049432D01*
X-4848406Y41233227D01*
X-4804225Y41451400D01*
X-4804225Y44451400D01*
X-4842576Y44655218D01*
X-4963032Y44842412D01*
X-5065000Y44912084D01*
X-5065000Y45085000D01*
X-5114478Y45333744D01*
X-5193576Y45452122D01*
X-5255380Y45544619D01*
X-17320381Y57609619D01*
X-17531255Y57750522D01*
X-17572524Y57758731D01*
X-17780000Y57800000D01*
X-36195000Y57800000D01*
X-36402476Y57758731D01*
X-36443745Y57750522D01*
X-36654620Y57609619D01*
X-37734238Y56530000D01*
X-44180761Y56530000D01*
X-45260381Y57609619D01*
X-45471255Y57750522D01*
X-45512524Y57758731D01*
X-45686957Y57793427D01*
X-45760033Y57970286D01*
X-46059225Y58270000D01*
X-3960000Y58270000D01*
X-3960000Y20320000D01*
X-3960000Y20320000D01*
G37*
X-3960000Y20320000D02*
X-3948182Y20261642D01*
X-3900000Y20200000D01*
X-2606745Y19230059D01*
X-2827157Y19230251D01*
X-2999713Y19158952D01*
X-5890381Y22049619D01*
X-6101255Y22190522D01*
X-6142524Y22198731D01*
X-6350000Y22240000D01*
X-7067833Y22240000D01*
X-7137885Y22310174D01*
X-7450183Y22439852D01*
X-7788334Y22440147D01*
X-8100857Y22311015D01*
X-8240000Y22172114D01*
X-8240000Y29575762D01*
X-6525380Y31290381D01*
X-6384478Y31501256D01*
X-6370904Y31569496D01*
X-6195885Y31497000D01*
X-5983500Y31497000D01*
X-5819000Y31661500D01*
X-5819000Y33551000D01*
X-5611000Y33551000D01*
X-5611000Y31661500D01*
X-5446500Y31497000D01*
X-5234115Y31497000D01*
X-4992273Y31597175D01*
X-4807174Y31782273D01*
X-4707000Y32024116D01*
X-4707000Y33386500D01*
X-4871500Y33551000D01*
X-5611000Y33551000D01*
X-5819000Y33551000D01*
X-5839000Y33551000D01*
X-5839000Y33759000D01*
X-5819000Y33759000D01*
X-5819000Y35648500D01*
X-5611000Y35648500D01*
X-5611000Y33759000D01*
X-4871500Y33759000D01*
X-4707000Y33923500D01*
X-4707000Y35285884D01*
X-4807174Y35527727D01*
X-4992273Y35712825D01*
X-5234115Y35813000D01*
X-5446500Y35813000D01*
X-5611000Y35648500D01*
X-5819000Y35648500D01*
X-5983500Y35813000D01*
X-6195885Y35813000D01*
X-6437727Y35712825D01*
X-6468495Y35682057D01*
X-6635000Y35715775D01*
X-7335000Y35715775D01*
X-7538818Y35677424D01*
X-7619436Y35625548D01*
X-7686827Y35671594D01*
X-7905000Y35715775D01*
X-8605000Y35715775D01*
X-8808818Y35677424D01*
X-8889436Y35625548D01*
X-8956827Y35671594D01*
X-9175000Y35715775D01*
X-9875000Y35715775D01*
X-10078818Y35677424D01*
X-10159436Y35625548D01*
X-10226827Y35671594D01*
X-10445000Y35715775D01*
X-11145000Y35715775D01*
X-11348818Y35677424D01*
X-11429436Y35625548D01*
X-11496827Y35671594D01*
X-11715000Y35715775D01*
X-12415000Y35715775D01*
X-12618818Y35677424D01*
X-12699436Y35625548D01*
X-12766827Y35671594D01*
X-12985000Y35715775D01*
X-13685000Y35715775D01*
X-13888818Y35677424D01*
X-13969436Y35625548D01*
X-14036827Y35671594D01*
X-14255000Y35715775D01*
X-14955000Y35715775D01*
X-15158818Y35677424D01*
X-15239436Y35625548D01*
X-15306827Y35671594D01*
X-15525000Y35715775D01*
X-16225000Y35715775D01*
X-16428818Y35677424D01*
X-16445000Y35667011D01*
X-16445000Y40830313D01*
X-16355885Y40793400D01*
X-16143500Y40793400D01*
X-15979000Y40957900D01*
X-15979000Y42847400D01*
X-15999000Y42847400D01*
X-15999000Y43055400D01*
X-15979000Y43055400D01*
X-15979000Y44944900D01*
X-16143500Y45109400D01*
X-16355885Y45109400D01*
X-16597727Y45009225D01*
X-16628495Y44978457D01*
X-16697476Y44992426D01*
X-17715000Y46009950D01*
X-17715000Y46314225D01*
X-17511182Y46352576D01*
X-17491253Y46365400D01*
X-17443027Y46317174D01*
X-17201184Y46217000D01*
X-16638800Y46217000D01*
X-16474300Y46381500D01*
X-16474300Y47521000D01*
X-16494300Y47521000D01*
X-16494300Y47729000D01*
X-16474300Y47729000D01*
X-16474300Y48868500D01*
X-16638800Y49033000D01*
X-17201184Y49033000D01*
X-17443027Y48932826D01*
X-17489360Y48886492D01*
X-17496827Y48891594D01*
X-17715000Y48935775D01*
X-19115000Y48935775D01*
X-19318818Y48897424D01*
X-19506012Y48776968D01*
X-19631594Y48593173D01*
X-19675775Y48375000D01*
X-19675775Y46875000D01*
X-19637424Y46671182D01*
X-19516968Y46483988D01*
X-19333173Y46358406D01*
X-19115000Y46314225D01*
X-19115000Y45720000D01*
X-19061716Y45452121D01*
X-18909975Y45225025D01*
X-18055775Y44370825D01*
X-18055775Y41451400D01*
X-18017424Y41247582D01*
X-17896968Y41060388D01*
X-17845000Y41024880D01*
X-17845000Y40705000D01*
X-19041446Y40705000D01*
X-19146165Y40809902D01*
X-19495204Y40954835D01*
X-19873138Y40955165D01*
X-20222429Y40810841D01*
X-20489902Y40543835D01*
X-20634835Y40194796D01*
X-20635165Y39816862D01*
X-20490841Y39467571D01*
X-20223835Y39200098D01*
X-19874796Y39055165D01*
X-19496862Y39054835D01*
X-19147571Y39199159D01*
X-19041545Y39305000D01*
X-17845000Y39305000D01*
X-17845000Y35583358D01*
X-17886012Y35556968D01*
X-18011594Y35373173D01*
X-18055775Y35155000D01*
X-18055775Y32155000D01*
X-18017424Y31951182D01*
X-17896968Y31763988D01*
X-17713173Y31638406D01*
X-17495000Y31594225D01*
X-16795000Y31594225D01*
X-16591182Y31632576D01*
X-16525000Y31675163D01*
X-16525000Y31032167D01*
X-16595174Y30962115D01*
X-16724852Y30649817D01*
X-16725085Y30383162D01*
X-16861827Y30476594D01*
X-17080000Y30520775D01*
X-18480000Y30520775D01*
X-18683818Y30482424D01*
X-18703747Y30469600D01*
X-18751973Y30517826D01*
X-18993816Y30618000D01*
X-19556200Y30618000D01*
X-19720700Y30453500D01*
X-19720700Y29314000D01*
X-19700700Y29314000D01*
X-19700700Y29106000D01*
X-19720700Y29106000D01*
X-19720700Y27966500D01*
X-19556200Y27802000D01*
X-18993816Y27802000D01*
X-18751973Y27902174D01*
X-18705640Y27948508D01*
X-18698173Y27943406D01*
X-18480000Y27899225D01*
X-17080000Y27899225D01*
X-16876182Y27937576D01*
X-16688988Y28058032D01*
X-16563406Y28241827D01*
X-16519225Y28460000D01*
X-16519225Y28560000D01*
X-15875000Y28560000D01*
X-15667524Y28601269D01*
X-15626255Y28609478D01*
X-15415381Y28750381D01*
X-14184882Y29980879D01*
X-14185147Y29676666D01*
X-14056015Y29364143D01*
X-13817115Y29124826D01*
X-13504817Y28995148D01*
X-13166666Y28994853D01*
X-12854143Y29123985D01*
X-12715000Y29262886D01*
X-12715000Y29127167D01*
X-12785174Y29057115D01*
X-12914852Y28744817D01*
X-12915147Y28406666D01*
X-12786015Y28094143D01*
X-12547115Y27854826D01*
X-12234817Y27725148D01*
X-11896666Y27724853D01*
X-11584143Y27853985D01*
X-11445000Y27992886D01*
X-11445000Y23129239D01*
X-11889617Y22684621D01*
X-11889620Y22684619D01*
X-13159617Y21414621D01*
X-13159620Y21414619D01*
X-15344147Y19230091D01*
X-15527157Y19230251D01*
X-16060286Y19009967D01*
X-16468533Y18602431D01*
X-16509828Y18502982D01*
X-16550033Y18600286D01*
X-16957569Y19008533D01*
X-17490312Y19229748D01*
X-18067157Y19230251D01*
X-18600286Y19009967D01*
X-19008533Y18602431D01*
X-19049828Y18502982D01*
X-19090033Y18600286D01*
X-19497569Y19008533D01*
X-20030312Y19229748D01*
X-20607157Y19230251D01*
X-20779714Y19158952D01*
X-22845000Y21224238D01*
X-22845000Y23860762D01*
X-21130380Y25575381D01*
X-21130378Y25575384D01*
X-20885822Y25819940D01*
X-20786666Y25819853D01*
X-20474143Y25948985D01*
X-20234826Y26187885D01*
X-20105148Y26500183D01*
X-20104853Y26838334D01*
X-20233985Y27150857D01*
X-20472885Y27390174D01*
X-20785183Y27519852D01*
X-21123334Y27520147D01*
X-21435857Y27391015D01*
X-21575000Y27252114D01*
X-21575000Y28941500D01*
X-21182700Y28941500D01*
X-21182700Y28329115D01*
X-21082525Y28087273D01*
X-20897427Y27902174D01*
X-20655584Y27802000D01*
X-20093200Y27802000D01*
X-19928700Y27966500D01*
X-19928700Y29106000D01*
X-21018200Y29106000D01*
X-21182700Y28941500D01*
X-21575000Y28941500D01*
X-21575000Y29845000D01*
X-21623909Y30090885D01*
X-21182700Y30090885D01*
X-21182700Y29478500D01*
X-21018200Y29314000D01*
X-19928700Y29314000D01*
X-19928700Y30453500D01*
X-20093200Y30618000D01*
X-20655584Y30618000D01*
X-20897427Y30517826D01*
X-21082525Y30332727D01*
X-21182700Y30090885D01*
X-21623909Y30090885D01*
X-21624478Y30093744D01*
X-21716360Y30231255D01*
X-21765380Y30304619D01*
X-22400378Y30939616D01*
X-22400380Y30939619D01*
X-22845000Y31384238D01*
X-22845000Y31554624D01*
X-22705885Y31497000D01*
X-22493500Y31497000D01*
X-22329000Y31661500D01*
X-22329000Y33551000D01*
X-22121000Y33551000D01*
X-22121000Y31661500D01*
X-21956500Y31497000D01*
X-21744115Y31497000D01*
X-21502273Y31597175D01*
X-21317174Y31782273D01*
X-21217000Y32024116D01*
X-21217000Y33386500D01*
X-21381500Y33551000D01*
X-22121000Y33551000D01*
X-22329000Y33551000D01*
X-22349000Y33551000D01*
X-22349000Y33759000D01*
X-22329000Y33759000D01*
X-22329000Y35648500D01*
X-22121000Y35648500D01*
X-22121000Y33759000D01*
X-21381500Y33759000D01*
X-21217000Y33923500D01*
X-21217000Y35285884D01*
X-21317174Y35527727D01*
X-21502273Y35712825D01*
X-21744115Y35813000D01*
X-21956500Y35813000D01*
X-22121000Y35648500D01*
X-22329000Y35648500D01*
X-22493500Y35813000D01*
X-22705885Y35813000D01*
X-22947727Y35712825D01*
X-22978495Y35682057D01*
X-23145000Y35715775D01*
X-23845000Y35715775D01*
X-24048818Y35677424D01*
X-24129436Y35625548D01*
X-24196827Y35671594D01*
X-24415000Y35715775D01*
X-25115000Y35715775D01*
X-25318818Y35677424D01*
X-25399436Y35625548D01*
X-25466827Y35671594D01*
X-25685000Y35715775D01*
X-26385000Y35715775D01*
X-26588818Y35677424D01*
X-26669436Y35625548D01*
X-26736827Y35671594D01*
X-26955000Y35715775D01*
X-27655000Y35715775D01*
X-27858818Y35677424D01*
X-27939436Y35625548D01*
X-28006827Y35671594D01*
X-28225000Y35715775D01*
X-28925000Y35715775D01*
X-29128818Y35677424D01*
X-29209436Y35625548D01*
X-29276827Y35671594D01*
X-29495000Y35715775D01*
X-30195000Y35715775D01*
X-30398818Y35677424D01*
X-30479436Y35625548D01*
X-30546827Y35671594D01*
X-30765000Y35715775D01*
X-31465000Y35715775D01*
X-31633515Y35684067D01*
X-31662273Y35712825D01*
X-31904115Y35813000D01*
X-32116500Y35813000D01*
X-32281000Y35648500D01*
X-32281000Y33759000D01*
X-32261000Y33759000D01*
X-32261000Y33551000D01*
X-32281000Y33551000D01*
X-32281000Y31661500D01*
X-32116500Y31497000D01*
X-31904115Y31497000D01*
X-31765000Y31554624D01*
X-31765000Y31115000D01*
X-31734589Y30962115D01*
X-31715522Y30866255D01*
X-31574619Y30655381D01*
X-29225000Y28305761D01*
X-29225000Y27305000D01*
X-29194589Y27152115D01*
X-29175522Y27056255D01*
X-29034619Y26845381D01*
X-27129619Y24940380D01*
X-26918744Y24799478D01*
X-26884976Y24792761D01*
X-26885147Y24596666D01*
X-26756015Y24284143D01*
X-26517115Y24044826D01*
X-26204817Y23915148D01*
X-26104299Y23915060D01*
X-26050000Y23860761D01*
X-26050000Y21224239D01*
X-27129617Y20144621D01*
X-27129620Y20144619D01*
X-28044147Y19230091D01*
X-28227157Y19230251D01*
X-28560000Y19092723D01*
X-28560000Y19685000D01*
X-28609478Y19933744D01*
X-28701360Y20071255D01*
X-28750380Y20144619D01*
X-30465000Y21859238D01*
X-30465000Y23495000D01*
X-30514478Y23743744D01*
X-30606360Y23881255D01*
X-30655380Y23954619D01*
X-32560381Y25859619D01*
X-32771255Y26000522D01*
X-32812524Y26008731D01*
X-33020000Y26050000D01*
X-34655761Y26050000D01*
X-34709940Y26104178D01*
X-34709853Y26203334D01*
X-34838985Y26515857D01*
X-35077885Y26755174D01*
X-35390183Y26884852D01*
X-35728334Y26885147D01*
X-36040857Y26756015D01*
X-36280174Y26517115D01*
X-36409852Y26204817D01*
X-36409903Y26145926D01*
X-36660183Y26249852D01*
X-36998334Y26250147D01*
X-37310857Y26121015D01*
X-37550174Y25882115D01*
X-37679852Y25569817D01*
X-37680147Y25231666D01*
X-37576201Y24980097D01*
X-37633334Y24980147D01*
X-37945857Y24851015D01*
X-38185174Y24612115D01*
X-38314852Y24299817D01*
X-38315147Y23961666D01*
X-38186015Y23649143D01*
X-37947115Y23409826D01*
X-37634817Y23280148D01*
X-37296666Y23279853D01*
X-37045097Y23383799D01*
X-37045147Y23326666D01*
X-36916015Y23014143D01*
X-36677115Y22774826D01*
X-36364817Y22645148D01*
X-36264299Y22645060D01*
X-34940000Y21320761D01*
X-34940000Y20470821D01*
X-34959478Y20568744D01*
X-35051360Y20706255D01*
X-35100380Y20779619D01*
X-35344940Y21024178D01*
X-35344853Y21123334D01*
X-35473985Y21435857D01*
X-35712885Y21675174D01*
X-36025183Y21804852D01*
X-36363334Y21805147D01*
X-36675857Y21676015D01*
X-36915174Y21437115D01*
X-37044852Y21124817D01*
X-37045147Y20786666D01*
X-36916015Y20474143D01*
X-36677115Y20234826D01*
X-36364817Y20105148D01*
X-36264299Y20105060D01*
X-36210000Y20050761D01*
X-36210000Y19080328D01*
X-36380286Y19009967D01*
X-36788533Y18602431D01*
X-36829828Y18502982D01*
X-36870033Y18600286D01*
X-37277569Y19008533D01*
X-37810312Y19229748D01*
X-38387157Y19230251D01*
X-38920286Y19009967D01*
X-39301713Y18629204D01*
X-39562214Y18710708D01*
X-40492922Y17780000D01*
X-39562214Y16849292D01*
X-39301245Y16930942D01*
X-38922431Y16551467D01*
X-38389688Y16330252D01*
X-37812843Y16329749D01*
X-37279714Y16550033D01*
X-36871467Y16957569D01*
X-36830172Y17057018D01*
X-36789967Y16959714D01*
X-36382431Y16551467D01*
X-35849688Y16330252D01*
X-35272843Y16329749D01*
X-34940000Y16467277D01*
X-34940000Y6619239D01*
X-37640149Y3919090D01*
X-37810312Y3989748D01*
X-38387157Y3990251D01*
X-38920286Y3769967D01*
X-39328533Y3362431D01*
X-39369828Y3262982D01*
X-39410033Y3360286D01*
X-39817569Y3768533D01*
X-40350312Y3989748D01*
X-40927157Y3990251D01*
X-41460286Y3769967D01*
X-41760000Y3470775D01*
X-41760000Y16657645D01*
X-41687637Y16585282D01*
X-41570707Y16702212D01*
X-41487569Y16436486D01*
X-40908911Y16214403D01*
X-40289314Y16230669D01*
X-39792431Y16436486D01*
X-39709292Y16702214D01*
X-40640000Y17632922D01*
X-40654142Y17618779D01*
X-40801220Y17765857D01*
X-40787078Y17780000D01*
X-40801220Y17794142D01*
X-40654142Y17941220D01*
X-40640000Y17927078D01*
X-39709292Y18857786D01*
X-39792431Y19123514D01*
X-40371089Y19345597D01*
X-40420949Y19344288D01*
X-39280000Y20200000D01*
X-39240404Y20244469D01*
X-39220000Y20320000D01*
X-39220000Y27940000D01*
X-39231818Y27998358D01*
X-39265409Y28047521D01*
X-39315481Y28079742D01*
X-39370000Y28090000D01*
X-88750000Y28090000D01*
X-88750000Y38247645D01*
X-88677637Y38175282D01*
X-88560707Y38292212D01*
X-88477569Y38026486D01*
X-87898911Y37804403D01*
X-87279314Y37820669D01*
X-86782431Y38026486D01*
X-86699292Y38292214D01*
X-87630000Y39222922D01*
X-87644142Y39208779D01*
X-87791220Y39355857D01*
X-87777078Y39370000D01*
X-87791220Y39384142D01*
X-87644142Y39531220D01*
X-87630000Y39517078D01*
X-86699292Y40447786D01*
X-86780942Y40708755D01*
X-86401467Y41087569D01*
X-86360172Y41187018D01*
X-86319967Y41089714D01*
X-85912431Y40681467D01*
X-85812982Y40640172D01*
X-85910286Y40599967D01*
X-86291713Y40219204D01*
X-86552214Y40300708D01*
X-87482922Y39370000D01*
X-86552214Y38439292D01*
X-86291245Y38520942D01*
X-85912431Y38141467D01*
X-85379688Y37920252D01*
X-84802843Y37919749D01*
X-84269714Y38140033D01*
X-83861467Y38547569D01*
X-83820172Y38647018D01*
X-83779967Y38549714D01*
X-83372431Y38141467D01*
X-82839688Y37920252D01*
X-82262843Y37919749D01*
X-82090286Y37991048D01*
X-79199619Y35100380D01*
X-78988744Y34959478D01*
X-78740000Y34910000D01*
X-46355000Y34910000D01*
X-46147524Y34951269D01*
X-46106255Y34959478D01*
X-45895381Y35100381D01*
X-43718900Y37276862D01*
X-39685165Y37276862D01*
X-39540841Y36927571D01*
X-39273835Y36660098D01*
X-38924796Y36515165D01*
X-38546862Y36514835D01*
X-38197571Y36659159D01*
X-38091545Y36765000D01*
X-37505775Y36765000D01*
X-37467424Y36561182D01*
X-37346968Y36373988D01*
X-37163173Y36248406D01*
X-36945000Y36204225D01*
X-35445000Y36204225D01*
X-35241182Y36242576D01*
X-35053988Y36363032D01*
X-34928406Y36546827D01*
X-34884225Y36765000D01*
X-34355000Y36765000D01*
X-34355000Y35583358D01*
X-34396012Y35556968D01*
X-34521594Y35373173D01*
X-34565775Y35155000D01*
X-34565775Y32155000D01*
X-34527424Y31951182D01*
X-34406968Y31763988D01*
X-34223173Y31638406D01*
X-34005000Y31594225D01*
X-33305000Y31594225D01*
X-33136485Y31625933D01*
X-33107727Y31597175D01*
X-32865885Y31497000D01*
X-32653500Y31497000D01*
X-32489000Y31661500D01*
X-32489000Y33551000D01*
X-32509000Y33551000D01*
X-32509000Y33759000D01*
X-32489000Y33759000D01*
X-32489000Y35648500D01*
X-32653500Y35813000D01*
X-32865885Y35813000D01*
X-32955000Y35776087D01*
X-32955000Y40830313D01*
X-32865885Y40793400D01*
X-32653500Y40793400D01*
X-32489000Y40957900D01*
X-32489000Y42847400D01*
X-32509000Y42847400D01*
X-32509000Y43055400D01*
X-32489000Y43055400D01*
X-32489000Y44944900D01*
X-32653500Y45109400D01*
X-32865885Y45109400D01*
X-33107727Y45009225D01*
X-33138495Y44978457D01*
X-33305000Y45012175D01*
X-34005000Y45012175D01*
X-34208818Y44973824D01*
X-34396012Y44853368D01*
X-34521594Y44669573D01*
X-34565775Y44451400D01*
X-34565775Y41451400D01*
X-34527424Y41247582D01*
X-34406968Y41060388D01*
X-34355000Y41024880D01*
X-34355000Y38165000D01*
X-34884225Y38165000D01*
X-34922576Y38368818D01*
X-34935400Y38388747D01*
X-34887174Y38436973D01*
X-34787000Y38678816D01*
X-34787000Y39241200D01*
X-34951500Y39405700D01*
X-36091000Y39405700D01*
X-36091000Y39385700D01*
X-36299000Y39385700D01*
X-36299000Y39405700D01*
X-37438500Y39405700D01*
X-37603000Y39241200D01*
X-37603000Y38678816D01*
X-37502826Y38436973D01*
X-37456492Y38390640D01*
X-37461594Y38383173D01*
X-37505775Y38165000D01*
X-38091446Y38165000D01*
X-38196165Y38269902D01*
X-38545204Y38414835D01*
X-38923138Y38415165D01*
X-39272429Y38270841D01*
X-39539902Y38003835D01*
X-39684835Y37654796D01*
X-39685165Y37276862D01*
X-43718900Y37276862D01*
X-41450381Y39545380D01*
X-41309478Y39756255D01*
X-41294885Y39829619D01*
X-41260000Y40005000D01*
X-41260000Y40340584D01*
X-37603000Y40340584D01*
X-37603000Y39778200D01*
X-37438500Y39613700D01*
X-36299000Y39613700D01*
X-36299000Y40703200D01*
X-36091000Y40703200D01*
X-36091000Y39613700D01*
X-34951500Y39613700D01*
X-34787000Y39778200D01*
X-34787000Y40340584D01*
X-34887174Y40582427D01*
X-35072273Y40767525D01*
X-35314115Y40867700D01*
X-35926500Y40867700D01*
X-36091000Y40703200D01*
X-36299000Y40703200D01*
X-36463500Y40867700D01*
X-37075885Y40867700D01*
X-37317727Y40767525D01*
X-37502826Y40582427D01*
X-37603000Y40340584D01*
X-41260000Y40340584D01*
X-41260000Y42275762D01*
X-39545380Y43990381D01*
X-39545378Y43990384D01*
X-35925761Y47610000D01*
X-31384238Y47610000D01*
X-30495000Y46720761D01*
X-30495000Y44932582D01*
X-30546827Y44967994D01*
X-30765000Y45012175D01*
X-31465000Y45012175D01*
X-31633515Y44980467D01*
X-31662273Y45009225D01*
X-31904115Y45109400D01*
X-32116500Y45109400D01*
X-32281000Y44944900D01*
X-32281000Y43055400D01*
X-32261000Y43055400D01*
X-32261000Y42847400D01*
X-32281000Y42847400D01*
X-32281000Y40957900D01*
X-32116500Y40793400D01*
X-31904115Y40793400D01*
X-31662273Y40893575D01*
X-31631505Y40924343D01*
X-31465000Y40890625D01*
X-30765000Y40890625D01*
X-30561182Y40928976D01*
X-30480564Y40980852D01*
X-30413173Y40934806D01*
X-30195000Y40890625D01*
X-29495000Y40890625D01*
X-29291182Y40928976D01*
X-29210564Y40980852D01*
X-29143173Y40934806D01*
X-28925000Y40890625D01*
X-28225000Y40890625D01*
X-28021182Y40928976D01*
X-27940564Y40980852D01*
X-27873173Y40934806D01*
X-27655000Y40890625D01*
X-26955000Y40890625D01*
X-26751182Y40928976D01*
X-26670564Y40980852D01*
X-26603173Y40934806D01*
X-26385000Y40890625D01*
X-25685000Y40890625D01*
X-25481182Y40928976D01*
X-25400564Y40980852D01*
X-25333173Y40934806D01*
X-25115000Y40890625D01*
X-24415000Y40890625D01*
X-24211182Y40928976D01*
X-24130564Y40980852D01*
X-24063173Y40934806D01*
X-23845000Y40890625D01*
X-23145000Y40890625D01*
X-22941182Y40928976D01*
X-22860564Y40980852D01*
X-22793173Y40934806D01*
X-22575000Y40890625D01*
X-21875000Y40890625D01*
X-21671182Y40928976D01*
X-21483988Y41049432D01*
X-21358406Y41233227D01*
X-21314225Y41451400D01*
X-21314225Y44451400D01*
X-21352576Y44655218D01*
X-21473032Y44842412D01*
X-21656827Y44967994D01*
X-21866142Y45010381D01*
X-28910762Y52055000D01*
X-18049238Y52055000D01*
X-15255000Y49260762D01*
X-15255000Y48890253D01*
X-15297573Y48932826D01*
X-15539416Y49033000D01*
X-16101800Y49033000D01*
X-16266300Y48868500D01*
X-16266300Y47729000D01*
X-16246300Y47729000D01*
X-16246300Y47521000D01*
X-16266300Y47521000D01*
X-16266300Y46381500D01*
X-16101800Y46217000D01*
X-15539416Y46217000D01*
X-15297573Y46317174D01*
X-15255000Y46359747D01*
X-15255000Y45051776D01*
X-15394115Y45109400D01*
X-15606500Y45109400D01*
X-15771000Y44944900D01*
X-15771000Y43055400D01*
X-15751000Y43055400D01*
X-15751000Y42847400D01*
X-15771000Y42847400D01*
X-15771000Y40957900D01*
X-15606500Y40793400D01*
X-15394115Y40793400D01*
X-15152273Y40893575D01*
X-15121505Y40924343D01*
X-14955000Y40890625D01*
X-14255000Y40890625D01*
X-14051182Y40928976D01*
X-13970564Y40980852D01*
X-13903173Y40934806D01*
X-13685000Y40890625D01*
X-12985000Y40890625D01*
X-12781182Y40928976D01*
X-12700564Y40980852D01*
X-12633173Y40934806D01*
X-12415000Y40890625D01*
X-11715000Y40890625D01*
X-11511182Y40928976D01*
X-11430564Y40980852D01*
X-11363173Y40934806D01*
X-11145000Y40890625D01*
X-10445000Y40890625D01*
X-10241182Y40928976D01*
X-10160564Y40980852D01*
X-10093173Y40934806D01*
X-9875000Y40890625D01*
X-9175000Y40890625D01*
X-8971182Y40928976D01*
X-8890564Y40980852D01*
X-8823173Y40934806D01*
X-8605000Y40890625D01*
X-7905000Y40890625D01*
X-7701182Y40928976D01*
X-7620564Y40980852D01*
X-7553173Y40934806D01*
X-7335000Y40890625D01*
X-6635000Y40890625D01*
X-6431182Y40928976D01*
X-6350564Y40980852D01*
X-6283173Y40934806D01*
X-6065000Y40890625D01*
X-5365000Y40890625D01*
X-5161182Y40928976D01*
X-4973988Y41049432D01*
X-4848406Y41233227D01*
X-4804225Y41451400D01*
X-4804225Y44451400D01*
X-4842576Y44655218D01*
X-4963032Y44842412D01*
X-5065000Y44912084D01*
X-5065000Y45085000D01*
X-5114478Y45333744D01*
X-5193576Y45452122D01*
X-5255380Y45544619D01*
X-17320381Y57609619D01*
X-17531255Y57750522D01*
X-17572524Y57758731D01*
X-17780000Y57800000D01*
X-36195000Y57800000D01*
X-36402476Y57758731D01*
X-36443745Y57750522D01*
X-36654620Y57609619D01*
X-37734238Y56530000D01*
X-44180761Y56530000D01*
X-45260381Y57609619D01*
X-45471255Y57750522D01*
X-45512524Y57758731D01*
X-45686957Y57793427D01*
X-45760033Y57970286D01*
X-46059225Y58270000D01*
X-3960000Y58270000D01*
X-3960000Y20320000D01*
G36*
X-28229688Y16330252D02*
X-27652843Y16329749D01*
X-27320000Y16467277D01*
X-27320000Y14605000D01*
X-27286516Y14436666D01*
X-27270522Y14356255D01*
X-27129619Y14145381D01*
X-26685000Y13700761D01*
X-26685000Y4714239D01*
X-27480149Y3919090D01*
X-27650312Y3989748D01*
X-28227157Y3990251D01*
X-28760286Y3769967D01*
X-29168533Y3362431D01*
X-29209828Y3262982D01*
X-29250033Y3360286D01*
X-29657569Y3768533D01*
X-30190312Y3989748D01*
X-30767157Y3990251D01*
X-31300286Y3769967D01*
X-31708533Y3362431D01*
X-31749828Y3262982D01*
X-31790033Y3360286D01*
X-32197569Y3768533D01*
X-32370000Y3840133D01*
X-32370000Y12430762D01*
X-28750380Y16050381D01*
X-28609478Y16261256D01*
X-28567825Y16470659D01*
X-28229688Y16330252D01*
X-28229688Y16330252D01*
G37*
X-28229688Y16330252D02*
X-27652843Y16329749D01*
X-27320000Y16467277D01*
X-27320000Y14605000D01*
X-27286516Y14436666D01*
X-27270522Y14356255D01*
X-27129619Y14145381D01*
X-26685000Y13700761D01*
X-26685000Y4714239D01*
X-27480149Y3919090D01*
X-27650312Y3989748D01*
X-28227157Y3990251D01*
X-28760286Y3769967D01*
X-29168533Y3362431D01*
X-29209828Y3262982D01*
X-29250033Y3360286D01*
X-29657569Y3768533D01*
X-30190312Y3989748D01*
X-30767157Y3990251D01*
X-31300286Y3769967D01*
X-31708533Y3362431D01*
X-31749828Y3262982D01*
X-31790033Y3360286D01*
X-32197569Y3768533D01*
X-32370000Y3840133D01*
X-32370000Y12430762D01*
X-28750380Y16050381D01*
X-28609478Y16261256D01*
X-28567825Y16470659D01*
X-28229688Y16330252D01*
G36*
X-9105147Y14436666D02*
X-8976015Y14124143D01*
X-8905000Y14053004D01*
X-8905000Y13604239D01*
X-13159619Y9349619D01*
X-16334619Y6174619D01*
X-16475522Y5963745D01*
X-16475522Y5963744D01*
X-16525000Y5715000D01*
X-16525000Y5349239D01*
X-16969617Y4904621D01*
X-16969620Y4904619D01*
X-17884147Y3990091D01*
X-18067157Y3990251D01*
X-18600286Y3769967D01*
X-19008533Y3362431D01*
X-19049828Y3262982D01*
X-19090033Y3360286D01*
X-19497569Y3768533D01*
X-19670000Y3840133D01*
X-19670000Y8890000D01*
X-19719478Y9138744D01*
X-19719478Y9138745D01*
X-19860381Y9349619D01*
X-23035378Y12524616D01*
X-23035380Y12524619D01*
X-23480000Y12969238D01*
X-23480000Y14022952D01*
X-23342115Y13884826D01*
X-23029817Y13755148D01*
X-22929299Y13755060D01*
X-22684619Y13510380D01*
X-22473744Y13369478D01*
X-22225000Y13320000D01*
X-10795000Y13320000D01*
X-10587524Y13361269D01*
X-10546255Y13369478D01*
X-10335381Y13510381D01*
X-9104882Y14740880D01*
X-9105147Y14436666D01*
X-9105147Y14436666D01*
G37*
X-9105147Y14436666D02*
X-8976015Y14124143D01*
X-8905000Y14053004D01*
X-8905000Y13604239D01*
X-13159619Y9349619D01*
X-16334619Y6174619D01*
X-16475522Y5963745D01*
X-16475522Y5963744D01*
X-16525000Y5715000D01*
X-16525000Y5349239D01*
X-16969617Y4904621D01*
X-16969620Y4904619D01*
X-17884147Y3990091D01*
X-18067157Y3990251D01*
X-18600286Y3769967D01*
X-19008533Y3362431D01*
X-19049828Y3262982D01*
X-19090033Y3360286D01*
X-19497569Y3768533D01*
X-19670000Y3840133D01*
X-19670000Y8890000D01*
X-19719478Y9138744D01*
X-19719478Y9138745D01*
X-19860381Y9349619D01*
X-23035378Y12524616D01*
X-23035380Y12524619D01*
X-23480000Y12969238D01*
X-23480000Y14022952D01*
X-23342115Y13884826D01*
X-23029817Y13755148D01*
X-22929299Y13755060D01*
X-22684619Y13510380D01*
X-22473744Y13369478D01*
X-22225000Y13320000D01*
X-10795000Y13320000D01*
X-10587524Y13361269D01*
X-10546255Y13369478D01*
X-10335381Y13510381D01*
X-9104882Y14740880D01*
X-9105147Y14436666D01*
G36*
X-24745115Y12524619D02*
X-24730522Y12451255D01*
X-24589619Y12240381D01*
X-23954619Y11605380D01*
X-23954616Y11605378D01*
X-20970000Y8620762D01*
X-20970000Y3840328D01*
X-21140286Y3769967D01*
X-21548533Y3362431D01*
X-21589828Y3262982D01*
X-21630033Y3360286D01*
X-22037569Y3768533D01*
X-22570312Y3989748D01*
X-23147157Y3990251D01*
X-23680286Y3769967D01*
X-24088533Y3362431D01*
X-24129828Y3262982D01*
X-24170033Y3360286D01*
X-24577569Y3768533D01*
X-24750000Y3840133D01*
X-24750000Y12549179D01*
X-24745115Y12524619D01*
X-24745115Y12524619D01*
G37*
X-24745115Y12524619D02*
X-24730522Y12451255D01*
X-24589619Y12240381D01*
X-23954619Y11605380D01*
X-23954616Y11605378D01*
X-20970000Y8620762D01*
X-20970000Y3840328D01*
X-21140286Y3769967D01*
X-21548533Y3362431D01*
X-21589828Y3262982D01*
X-21630033Y3360286D01*
X-22037569Y3768533D01*
X-22570312Y3989748D01*
X-23147157Y3990251D01*
X-23680286Y3769967D01*
X-24088533Y3362431D01*
X-24129828Y3262982D01*
X-24170033Y3360286D01*
X-24577569Y3768533D01*
X-24750000Y3840133D01*
X-24750000Y12549179D01*
X-24745115Y12524619D01*
G36*
X-3769967Y16959714D02*
X-3362431Y16551467D01*
X-2829688Y16330252D01*
X-2252843Y16329749D01*
X-1719714Y16550033D01*
X-1420000Y16849225D01*
X-1420000Y3470445D01*
X-1717569Y3768533D01*
X-2250312Y3989748D01*
X-2827157Y3990251D01*
X-3360286Y3769967D01*
X-3768533Y3362431D01*
X-3809828Y3262982D01*
X-3850033Y3360286D01*
X-4257569Y3768533D01*
X-4790312Y3989748D01*
X-5367157Y3990251D01*
X-5539714Y3918952D01*
X-7160381Y5539619D01*
X-7371255Y5680522D01*
X-7412524Y5688731D01*
X-7620000Y5730000D01*
X-11512833Y5730000D01*
X-11582885Y5800174D01*
X-11895183Y5929852D01*
X-12233334Y5930147D01*
X-12545857Y5801015D01*
X-12785174Y5562115D01*
X-12914852Y5249817D01*
X-12915147Y4911666D01*
X-12786015Y4599143D01*
X-12547115Y4359826D01*
X-12234817Y4230148D01*
X-11896666Y4229853D01*
X-11584143Y4358985D01*
X-11513004Y4430000D01*
X-7889238Y4430000D01*
X-7449090Y3989852D01*
X-7907157Y3990251D01*
X-8440286Y3769967D01*
X-8848533Y3362431D01*
X-8889828Y3262982D01*
X-8930033Y3360286D01*
X-9337569Y3768533D01*
X-9870312Y3989748D01*
X-10447157Y3990251D01*
X-10980286Y3769967D01*
X-11388533Y3362431D01*
X-11429828Y3262982D01*
X-11470033Y3360286D01*
X-11877569Y3768533D01*
X-12410312Y3989748D01*
X-12987157Y3990251D01*
X-13520286Y3769967D01*
X-13928533Y3362431D01*
X-13969828Y3262982D01*
X-14010033Y3360286D01*
X-14417569Y3768533D01*
X-14590000Y3840133D01*
X-14590000Y5445762D01*
X-7160381Y12875380D01*
X-7160379Y12875383D01*
X-5890381Y14145380D01*
X-5749478Y14356255D01*
X-5733484Y14436666D01*
X-5700000Y14605000D01*
X-5700000Y16467410D01*
X-5369688Y16330252D01*
X-4792843Y16329749D01*
X-4259714Y16550033D01*
X-3851467Y16957569D01*
X-3810172Y17057018D01*
X-3769967Y16959714D01*
X-3769967Y16959714D01*
G37*
X-3769967Y16959714D02*
X-3362431Y16551467D01*
X-2829688Y16330252D01*
X-2252843Y16329749D01*
X-1719714Y16550033D01*
X-1420000Y16849225D01*
X-1420000Y3470445D01*
X-1717569Y3768533D01*
X-2250312Y3989748D01*
X-2827157Y3990251D01*
X-3360286Y3769967D01*
X-3768533Y3362431D01*
X-3809828Y3262982D01*
X-3850033Y3360286D01*
X-4257569Y3768533D01*
X-4790312Y3989748D01*
X-5367157Y3990251D01*
X-5539714Y3918952D01*
X-7160381Y5539619D01*
X-7371255Y5680522D01*
X-7412524Y5688731D01*
X-7620000Y5730000D01*
X-11512833Y5730000D01*
X-11582885Y5800174D01*
X-11895183Y5929852D01*
X-12233334Y5930147D01*
X-12545857Y5801015D01*
X-12785174Y5562115D01*
X-12914852Y5249817D01*
X-12915147Y4911666D01*
X-12786015Y4599143D01*
X-12547115Y4359826D01*
X-12234817Y4230148D01*
X-11896666Y4229853D01*
X-11584143Y4358985D01*
X-11513004Y4430000D01*
X-7889238Y4430000D01*
X-7449090Y3989852D01*
X-7907157Y3990251D01*
X-8440286Y3769967D01*
X-8848533Y3362431D01*
X-8889828Y3262982D01*
X-8930033Y3360286D01*
X-9337569Y3768533D01*
X-9870312Y3989748D01*
X-10447157Y3990251D01*
X-10980286Y3769967D01*
X-11388533Y3362431D01*
X-11429828Y3262982D01*
X-11470033Y3360286D01*
X-11877569Y3768533D01*
X-12410312Y3989748D01*
X-12987157Y3990251D01*
X-13520286Y3769967D01*
X-13928533Y3362431D01*
X-13969828Y3262982D01*
X-14010033Y3360286D01*
X-14417569Y3768533D01*
X-14590000Y3840133D01*
X-14590000Y5445762D01*
X-7160381Y12875380D01*
X-7160379Y12875383D01*
X-5890381Y14145380D01*
X-5749478Y14356255D01*
X-5733484Y14436666D01*
X-5700000Y14605000D01*
X-5700000Y16467410D01*
X-5369688Y16330252D01*
X-4792843Y16329749D01*
X-4259714Y16550033D01*
X-3851467Y16957569D01*
X-3810172Y17057018D01*
X-3769967Y16959714D01*
G36*
X-74945000Y46720761D02*
X-74945000Y42462167D01*
X-75015174Y42392115D01*
X-75144852Y42079817D01*
X-75145147Y41741666D01*
X-75016015Y41429143D01*
X-74777115Y41189826D01*
X-74464817Y41060148D01*
X-74310000Y41060013D01*
X-74310000Y39370000D01*
X-74276018Y39199159D01*
X-74260522Y39121255D01*
X-74119619Y38910381D01*
X-72054239Y36845000D01*
X-78470761Y36845000D01*
X-79995000Y38369238D01*
X-79995000Y40005000D01*
X-80044478Y40253744D01*
X-80057263Y40272878D01*
X-80185380Y40464619D01*
X-81170910Y41450149D01*
X-81100252Y41620312D01*
X-81099749Y42197157D01*
X-81320033Y42730286D01*
X-81727569Y43138533D01*
X-81827018Y43179828D01*
X-81729714Y43220033D01*
X-81321467Y43627569D01*
X-81100252Y44160312D01*
X-81099749Y44737157D01*
X-81226947Y45045000D01*
X-77470000Y45045000D01*
X-77211688Y45096381D01*
X-76992703Y45242703D01*
X-76195411Y46039995D01*
X-76011862Y46039835D01*
X-75662571Y46184159D01*
X-75395098Y46451165D01*
X-75250165Y46800204D01*
X-75249968Y47025730D01*
X-74945000Y46720761D01*
X-74945000Y46720761D01*
G37*
X-74945000Y46720761D02*
X-74945000Y42462167D01*
X-75015174Y42392115D01*
X-75144852Y42079817D01*
X-75145147Y41741666D01*
X-75016015Y41429143D01*
X-74777115Y41189826D01*
X-74464817Y41060148D01*
X-74310000Y41060013D01*
X-74310000Y39370000D01*
X-74276018Y39199159D01*
X-74260522Y39121255D01*
X-74119619Y38910381D01*
X-72054239Y36845000D01*
X-78470761Y36845000D01*
X-79995000Y38369238D01*
X-79995000Y40005000D01*
X-80044478Y40253744D01*
X-80057263Y40272878D01*
X-80185380Y40464619D01*
X-81170910Y41450149D01*
X-81100252Y41620312D01*
X-81099749Y42197157D01*
X-81320033Y42730286D01*
X-81727569Y43138533D01*
X-81827018Y43179828D01*
X-81729714Y43220033D01*
X-81321467Y43627569D01*
X-81100252Y44160312D01*
X-81099749Y44737157D01*
X-81226947Y45045000D01*
X-77470000Y45045000D01*
X-77211688Y45096381D01*
X-76992703Y45242703D01*
X-76195411Y46039995D01*
X-76011862Y46039835D01*
X-75662571Y46184159D01*
X-75395098Y46451165D01*
X-75250165Y46800204D01*
X-75249968Y47025730D01*
X-74945000Y46720761D01*
G36*
X-53298533Y57972431D02*
X-53519748Y57439688D01*
X-53520251Y56862843D01*
X-53299967Y56329714D01*
X-52892431Y55921467D01*
X-52792982Y55880172D01*
X-52890286Y55839967D01*
X-53298533Y55432431D01*
X-53519748Y54899688D01*
X-53520251Y54322843D01*
X-53299967Y53789714D01*
X-52892431Y53381467D01*
X-52792982Y53340172D01*
X-52890286Y53299967D01*
X-53298533Y52892431D01*
X-53519748Y52359688D01*
X-53520251Y51782843D01*
X-53393053Y51475000D01*
X-53941490Y51475000D01*
X-54071165Y51604902D01*
X-54420204Y51749835D01*
X-54798138Y51750165D01*
X-55147429Y51605841D01*
X-55414902Y51338835D01*
X-55559835Y50989796D01*
X-55560165Y50611862D01*
X-55415841Y50262571D01*
X-55148835Y49995098D01*
X-54799796Y49850165D01*
X-54421862Y49849835D01*
X-54072571Y49994159D01*
X-53941501Y50125000D01*
X-53392971Y50125000D01*
X-53519748Y49819688D01*
X-53520251Y49242843D01*
X-53393053Y48935000D01*
X-53941490Y48935000D01*
X-54071165Y49064902D01*
X-54420204Y49209835D01*
X-54798138Y49210165D01*
X-55147429Y49065841D01*
X-55414902Y48798835D01*
X-55559835Y48449796D01*
X-55560165Y48071862D01*
X-55415841Y47722571D01*
X-55148835Y47455098D01*
X-54799796Y47310165D01*
X-54421862Y47309835D01*
X-54072571Y47454159D01*
X-53941501Y47585000D01*
X-53392971Y47585000D01*
X-53519748Y47279688D01*
X-53520251Y46702843D01*
X-53389024Y46385249D01*
X-53598312Y46343619D01*
X-53817297Y46197297D01*
X-55087297Y44927297D01*
X-55233619Y44708312D01*
X-55244180Y44655218D01*
X-55276683Y44491813D01*
X-55414902Y44353835D01*
X-55559835Y44004796D01*
X-55560165Y43626862D01*
X-55415841Y43277571D01*
X-55148835Y43010098D01*
X-54799796Y42865165D01*
X-54421862Y42864835D01*
X-54072571Y43009159D01*
X-53805098Y43276165D01*
X-53660165Y43625204D01*
X-53659835Y44003138D01*
X-53789194Y44316212D01*
X-53519882Y44585524D01*
X-53520251Y44162843D01*
X-53299967Y43629714D01*
X-52892431Y43221467D01*
X-52792982Y43180172D01*
X-52890286Y43139967D01*
X-53298533Y42732431D01*
X-53519748Y42199688D01*
X-53520251Y41622843D01*
X-53299967Y41089714D01*
X-52892431Y40681467D01*
X-52792982Y40640172D01*
X-52890286Y40599967D01*
X-53298533Y40192431D01*
X-53519748Y39659688D01*
X-53520251Y39082843D01*
X-53299967Y38549714D01*
X-52892431Y38141467D01*
X-52359688Y37920252D01*
X-51782843Y37919749D01*
X-51249714Y38140033D01*
X-50841467Y38547569D01*
X-50800172Y38647018D01*
X-50759967Y38549714D01*
X-50352431Y38141467D01*
X-49819688Y37920252D01*
X-49242843Y37919749D01*
X-49070286Y37991048D01*
X-48559239Y37480000D01*
X-70850761Y37480000D01*
X-73010000Y39639238D01*
X-73010000Y46990000D01*
X-73059478Y47238744D01*
X-73086836Y47279688D01*
X-73200380Y47449619D01*
X-73835381Y48084619D01*
X-78915379Y53164617D01*
X-78915381Y53164620D01*
X-79995000Y54244238D01*
X-79995000Y55245000D01*
X-80044478Y55493744D01*
X-80044479Y55493745D01*
X-80185380Y55704619D01*
X-80820381Y56339619D01*
X-81031255Y56480522D01*
X-81072524Y56488731D01*
X-81130556Y56500274D01*
X-80984403Y56881089D01*
X-81000669Y57500686D01*
X-81206486Y57997569D01*
X-81472212Y58080707D01*
X-81355282Y58197637D01*
X-81427645Y58270000D01*
X-53000445Y58270000D01*
X-53298533Y57972431D01*
X-53298533Y57972431D01*
G37*
X-53298533Y57972431D02*
X-53519748Y57439688D01*
X-53520251Y56862843D01*
X-53299967Y56329714D01*
X-52892431Y55921467D01*
X-52792982Y55880172D01*
X-52890286Y55839967D01*
X-53298533Y55432431D01*
X-53519748Y54899688D01*
X-53520251Y54322843D01*
X-53299967Y53789714D01*
X-52892431Y53381467D01*
X-52792982Y53340172D01*
X-52890286Y53299967D01*
X-53298533Y52892431D01*
X-53519748Y52359688D01*
X-53520251Y51782843D01*
X-53393053Y51475000D01*
X-53941490Y51475000D01*
X-54071165Y51604902D01*
X-54420204Y51749835D01*
X-54798138Y51750165D01*
X-55147429Y51605841D01*
X-55414902Y51338835D01*
X-55559835Y50989796D01*
X-55560165Y50611862D01*
X-55415841Y50262571D01*
X-55148835Y49995098D01*
X-54799796Y49850165D01*
X-54421862Y49849835D01*
X-54072571Y49994159D01*
X-53941501Y50125000D01*
X-53392971Y50125000D01*
X-53519748Y49819688D01*
X-53520251Y49242843D01*
X-53393053Y48935000D01*
X-53941490Y48935000D01*
X-54071165Y49064902D01*
X-54420204Y49209835D01*
X-54798138Y49210165D01*
X-55147429Y49065841D01*
X-55414902Y48798835D01*
X-55559835Y48449796D01*
X-55560165Y48071862D01*
X-55415841Y47722571D01*
X-55148835Y47455098D01*
X-54799796Y47310165D01*
X-54421862Y47309835D01*
X-54072571Y47454159D01*
X-53941501Y47585000D01*
X-53392971Y47585000D01*
X-53519748Y47279688D01*
X-53520251Y46702843D01*
X-53389024Y46385249D01*
X-53598312Y46343619D01*
X-53817297Y46197297D01*
X-55087297Y44927297D01*
X-55233619Y44708312D01*
X-55244180Y44655218D01*
X-55276683Y44491813D01*
X-55414902Y44353835D01*
X-55559835Y44004796D01*
X-55560165Y43626862D01*
X-55415841Y43277571D01*
X-55148835Y43010098D01*
X-54799796Y42865165D01*
X-54421862Y42864835D01*
X-54072571Y43009159D01*
X-53805098Y43276165D01*
X-53660165Y43625204D01*
X-53659835Y44003138D01*
X-53789194Y44316212D01*
X-53519882Y44585524D01*
X-53520251Y44162843D01*
X-53299967Y43629714D01*
X-52892431Y43221467D01*
X-52792982Y43180172D01*
X-52890286Y43139967D01*
X-53298533Y42732431D01*
X-53519748Y42199688D01*
X-53520251Y41622843D01*
X-53299967Y41089714D01*
X-52892431Y40681467D01*
X-52792982Y40640172D01*
X-52890286Y40599967D01*
X-53298533Y40192431D01*
X-53519748Y39659688D01*
X-53520251Y39082843D01*
X-53299967Y38549714D01*
X-52892431Y38141467D01*
X-52359688Y37920252D01*
X-51782843Y37919749D01*
X-51249714Y38140033D01*
X-50841467Y38547569D01*
X-50800172Y38647018D01*
X-50759967Y38549714D01*
X-50352431Y38141467D01*
X-49819688Y37920252D01*
X-49242843Y37919749D01*
X-49070286Y37991048D01*
X-48559239Y37480000D01*
X-70850761Y37480000D01*
X-73010000Y39639238D01*
X-73010000Y46990000D01*
X-73059478Y47238744D01*
X-73086836Y47279688D01*
X-73200380Y47449619D01*
X-73835381Y48084619D01*
X-78915379Y53164617D01*
X-78915381Y53164620D01*
X-79995000Y54244238D01*
X-79995000Y55245000D01*
X-80044478Y55493744D01*
X-80044479Y55493745D01*
X-80185380Y55704619D01*
X-80820381Y56339619D01*
X-81031255Y56480522D01*
X-81072524Y56488731D01*
X-81130556Y56500274D01*
X-80984403Y56881089D01*
X-81000669Y57500686D01*
X-81206486Y57997569D01*
X-81472212Y58080707D01*
X-81355282Y58197637D01*
X-81427645Y58270000D01*
X-53000445Y58270000D01*
X-53298533Y57972431D01*
G36*
X-76164208Y47939969D02*
X-76388138Y47940165D01*
X-76737429Y47795841D01*
X-77004902Y47528835D01*
X-77149835Y47179796D01*
X-77149997Y46994597D01*
X-77749594Y46395000D01*
X-81227029Y46395000D01*
X-81100252Y46700312D01*
X-81099749Y47277157D01*
X-81320033Y47810286D01*
X-81727569Y48218533D01*
X-81827018Y48259828D01*
X-81729714Y48300033D01*
X-81321467Y48707569D01*
X-81100252Y49240312D01*
X-81099749Y49817157D01*
X-81320033Y50350286D01*
X-81727569Y50758533D01*
X-81827018Y50799828D01*
X-81729714Y50840033D01*
X-81321467Y51247569D01*
X-81100252Y51780312D01*
X-81099749Y52357157D01*
X-81237277Y52690000D01*
X-80914238Y52690000D01*
X-76164208Y47939969D01*
X-76164208Y47939969D01*
G37*
X-76164208Y47939969D02*
X-76388138Y47940165D01*
X-76737429Y47795841D01*
X-77004902Y47528835D01*
X-77149835Y47179796D01*
X-77149997Y46994597D01*
X-77749594Y46395000D01*
X-81227029Y46395000D01*
X-81100252Y46700312D01*
X-81099749Y47277157D01*
X-81320033Y47810286D01*
X-81727569Y48218533D01*
X-81827018Y48259828D01*
X-81729714Y48300033D01*
X-81321467Y48707569D01*
X-81100252Y49240312D01*
X-81099749Y49817157D01*
X-81320033Y50350286D01*
X-81727569Y50758533D01*
X-81827018Y50799828D01*
X-81729714Y50840033D01*
X-81321467Y51247569D01*
X-81100252Y51780312D01*
X-81099749Y52357157D01*
X-81237277Y52690000D01*
X-80914238Y52690000D01*
X-76164208Y47939969D01*
G36*
X-82388779Y57164142D02*
X-82402922Y57150000D01*
X-82388779Y57135857D01*
X-82535857Y56988779D01*
X-82550000Y57002922D01*
X-82564142Y56988779D01*
X-82711220Y57135857D01*
X-82697078Y57150000D01*
X-82711220Y57164142D01*
X-82564142Y57311220D01*
X-82550000Y57297078D01*
X-82535857Y57311220D01*
X-82388779Y57164142D01*
X-82388779Y57164142D01*
G37*
X-82388779Y57164142D02*
X-82402922Y57150000D01*
X-82388779Y57135857D01*
X-82535857Y56988779D01*
X-82550000Y57002922D01*
X-82564142Y56988779D01*
X-82711220Y57135857D01*
X-82697078Y57150000D01*
X-82711220Y57164142D01*
X-82564142Y57311220D01*
X-82550000Y57297078D01*
X-82535857Y57311220D01*
X-82388779Y57164142D01*
M02*
