G04 #@! TF.FileFunction,Copper,L2,Bot,Signal*
%FSLAX46Y46*%
G04 Gerber Fmt 4.6, Leading zero omitted, Abs format (unit mm)*
G04 Created by KiCad (PCBNEW 4.0.7) date 01/31/20 17:15:32*
%MOMM*%
%LPD*%
G01*
G04 APERTURE LIST*
%ADD10C,0.100000*%
%ADD11R,1.500000X1.400000*%
%ADD12R,1.400000X1.500000*%
%ADD13R,1.300000X2.500000*%
%ADD14R,3.850000X2.600000*%
%ADD15C,1.800000*%
%ADD16R,0.700000X3.000000*%
%ADD17C,0.800000*%
%ADD18C,0.600000*%
%ADD19C,0.250000*%
%ADD20C,0.400000*%
%ADD21C,0.500000*%
%ADD22C,0.300000*%
%ADD23C,0.200000*%
G04 APERTURE END LIST*
D10*
D11*
X-10795000Y42545000D03*
X-10795000Y40500300D03*
D12*
X-16510000Y47625000D03*
X-18554700Y47625000D03*
D11*
X-73660000Y46990000D03*
X-73660000Y44945300D03*
D13*
X-18415000Y44450000D03*
X-16116300Y44450000D03*
X-13817600Y44450000D03*
D14*
X-16116300Y38354000D03*
D15*
X-2540000Y17780000D03*
X-5080000Y17780000D03*
X-7620000Y17780000D03*
X-10160000Y17780000D03*
X-12700000Y17780000D03*
X-15240000Y17780000D03*
X-17780000Y17780000D03*
X-20320000Y17780000D03*
X-22860000Y17780000D03*
X-25400000Y17780000D03*
X-27940000Y17780000D03*
X-30480000Y17780000D03*
X-33020000Y17780000D03*
X-35560000Y17780000D03*
X-38100000Y17780000D03*
X-40640000Y17780000D03*
X-40640000Y2540000D03*
X-38100000Y2540000D03*
X-35560000Y2540000D03*
X-33020000Y2540000D03*
X-30480000Y2540000D03*
X-27940000Y2540000D03*
X-25400000Y2540000D03*
X-22860000Y2540000D03*
X-20320000Y2540000D03*
X-17780000Y2540000D03*
X-15240000Y2540000D03*
X-12700000Y2540000D03*
X-10160000Y2540000D03*
X-7620000Y2540000D03*
X-5080000Y2540000D03*
X-2540000Y2540000D03*
D16*
X-22225000Y37465000D03*
X-23495000Y37465000D03*
X-24765000Y37465000D03*
X-26035000Y37465000D03*
X-27305000Y37465000D03*
X-28575000Y37465000D03*
X-29845000Y37465000D03*
X-31115000Y37465000D03*
X-32385000Y37465000D03*
X-33655000Y37465000D03*
X-33655000Y46761400D03*
X-32385000Y46761400D03*
X-31115000Y46761400D03*
X-29845000Y46761400D03*
X-28575000Y46761400D03*
X-27305000Y46761400D03*
X-26035000Y46761400D03*
X-24765000Y46761400D03*
X-23495000Y46761400D03*
X-22225000Y46761400D03*
D15*
X-52070000Y39370000D03*
X-49530000Y39370000D03*
X-46990000Y39370000D03*
X-52070000Y41910000D03*
X-49530000Y41910000D03*
X-46990000Y41910000D03*
X-52070000Y44450000D03*
X-49530000Y44450000D03*
X-46990000Y44450000D03*
X-52070000Y46990000D03*
X-49530000Y46990000D03*
X-46990000Y46990000D03*
X-52070000Y49530000D03*
X-49530000Y49530000D03*
X-46990000Y49530000D03*
X-52070000Y52070000D03*
X-49530000Y52070000D03*
X-46990000Y52070000D03*
X-52070000Y54610000D03*
X-49530000Y54610000D03*
X-46990000Y54610000D03*
X-52070000Y57150000D03*
X-49530000Y57150000D03*
X-46990000Y57150000D03*
X-87630000Y57150000D03*
X-85090000Y57150000D03*
X-82550000Y57150000D03*
X-87630000Y54610000D03*
X-85090000Y54610000D03*
X-82550000Y54610000D03*
X-87630000Y52070000D03*
X-85090000Y52070000D03*
X-82550000Y52070000D03*
X-87630000Y49530000D03*
X-85090000Y49530000D03*
X-82550000Y49530000D03*
X-87630000Y46990000D03*
X-85090000Y46990000D03*
X-82550000Y46990000D03*
X-87630000Y44450000D03*
X-85090000Y44450000D03*
X-82550000Y44450000D03*
X-87630000Y41910000D03*
X-85090000Y41910000D03*
X-82550000Y41910000D03*
X-87630000Y39370000D03*
X-85090000Y39370000D03*
X-82550000Y39370000D03*
D12*
X-21590000Y33655000D03*
X-19545300Y33655000D03*
D11*
X-56515000Y50800000D03*
X-56515000Y48755300D03*
D17*
X-10795000Y12700000D03*
X-19050000Y10160000D03*
X-22225000Y12700000D03*
X-16510000Y12700000D03*
X-24130000Y5080000D03*
X-28575000Y5080000D03*
X-2540000Y7620000D03*
X-2540000Y13335000D03*
X-6350000Y12700000D03*
X-9525000Y9525000D03*
X-5715000Y9525000D03*
X-8255000Y6350000D03*
X-12700000Y10795000D03*
X-19050000Y6985000D03*
X-17780000Y5080000D03*
X-21590000Y5080000D03*
X-21590000Y7620000D03*
X-24130000Y8255000D03*
X-40640000Y7620000D03*
X-27305000Y8890000D03*
X-29210000Y13335000D03*
X-31750000Y5715000D03*
X-31750000Y9525000D03*
X-31750000Y12065000D03*
X-36195000Y13335000D03*
X-37465000Y9525000D03*
X-37465000Y5715000D03*
X-40640000Y13335000D03*
X-55245000Y56515000D03*
X-60325000Y51435000D03*
X-69215000Y55880000D03*
X-73660000Y55245000D03*
X-78105000Y57150000D03*
X-64135000Y56515000D03*
X-59055000Y54610000D03*
X-86360000Y29210000D03*
X-81280000Y29845000D03*
X-75565000Y29210000D03*
X-86360000Y34925000D03*
X-78105000Y37465000D03*
X-78105000Y34290000D03*
X-73660000Y31750000D03*
X-67310000Y28575000D03*
X-54610000Y28575000D03*
X-42545000Y28575000D03*
X-19685000Y36830000D03*
X-5080000Y39370000D03*
X-38100000Y22225000D03*
X-74295000Y51435000D03*
X-69850000Y50800000D03*
X-66040000Y52070000D03*
X-67310000Y47625000D03*
X-60325000Y39370000D03*
X-68580000Y40005000D03*
X-66040000Y42545000D03*
X-58420000Y43180000D03*
X-62230000Y45720000D03*
X-70485000Y45720000D03*
X-79375000Y38735000D03*
X-81915000Y36195000D03*
X-77470000Y48260000D03*
X-79375000Y50800000D03*
X-76200000Y43180000D03*
X-20320000Y44450000D03*
X-40005000Y40005000D03*
X-38735000Y42545000D03*
X-37465000Y45085000D03*
X-33655000Y30480000D03*
X-36830000Y34290000D03*
X-29845000Y22225000D03*
X-43180000Y57150000D03*
X-38100000Y57150000D03*
X-5715000Y48260000D03*
X-6985000Y52070000D03*
X-10160000Y53975000D03*
X-6350000Y55880000D03*
X-13970000Y56515000D03*
X-20955000Y51435000D03*
X-23495000Y50165000D03*
X-7620000Y23495000D03*
X-6350000Y26670000D03*
X-6350000Y30480000D03*
X-8255000Y38100000D03*
X-10795000Y38100000D03*
X-21590000Y20955000D03*
X-17145000Y24130000D03*
X-18415000Y26670000D03*
X-13335000Y25400000D03*
X-77470000Y52070000D03*
X-77470000Y44450000D03*
X-18415000Y50165000D03*
X-31115000Y27305000D03*
X-19685000Y31115000D03*
X-76200000Y46990000D03*
X-38735000Y37465000D03*
X-19685000Y40005000D03*
X-54610000Y50800000D03*
X-54610000Y43815000D03*
D18*
X-22860000Y27940000D03*
X-7620000Y21590000D03*
X-13335000Y29845000D03*
X-22860000Y29210000D03*
X-24130000Y29845000D03*
X-20955000Y26670000D03*
X-22860000Y14605000D03*
X-26035000Y24765000D03*
X-29210000Y30480000D03*
X-74295000Y41910000D03*
X-36195000Y20955000D03*
X-36195000Y23495000D03*
X-36830000Y25400000D03*
X-35560000Y26035000D03*
X-37465000Y24130000D03*
X-33020000Y20955000D03*
X-26035000Y26035000D03*
X-24765000Y24765000D03*
X-25400000Y15240000D03*
X-15875000Y30480000D03*
X-8255000Y14605000D03*
X-6985000Y20320000D03*
X-12065000Y28575000D03*
X-26035000Y27940000D03*
X-12065000Y5080000D03*
D17*
X-54610000Y48260000D03*
D19*
X-4445000Y20955000D02*
X-4445000Y19685000D01*
X-3810000Y3810000D02*
X-3810000Y18415000D01*
X-2540000Y2540000D02*
X-3810000Y3810000D01*
X-4445000Y36830000D02*
X-10160000Y42545000D01*
X-4445000Y20955000D02*
X-4445000Y36830000D01*
X-3810000Y19050000D02*
X-3810000Y18415000D01*
X-4445000Y19685000D02*
X-3810000Y19050000D01*
D20*
X-10795000Y42545000D02*
X-11912600Y42545000D01*
X-11912600Y42545000D02*
X-13817600Y44450000D01*
D19*
X-10160000Y42545000D02*
X-10795000Y42545000D01*
X-17145000Y33655000D02*
X-14605000Y33655000D01*
X-19545300Y33655000D02*
X-17145000Y33655000D01*
X-10795000Y37465000D02*
X-10795000Y38100000D01*
X-14605000Y33655000D02*
X-10795000Y37465000D01*
X-36195000Y35560000D02*
X-36195000Y37465000D01*
X-36195000Y37465000D02*
X-33655000Y37465000D01*
X-73025000Y40005000D02*
X-73025000Y42545000D01*
X-72390000Y39370000D02*
X-73025000Y40005000D01*
X-68580000Y35560000D02*
X-72390000Y39370000D01*
X-36195000Y35560000D02*
X-67310000Y35560000D01*
X-67310000Y35560000D02*
X-68580000Y35560000D01*
X-73660000Y43180000D02*
X-73660000Y44945300D01*
X-73025000Y42545000D02*
X-73660000Y43180000D01*
X-22225000Y12700000D02*
X-16510000Y12700000D01*
X-24130000Y5080000D02*
X-25400000Y5080000D01*
X-27305000Y5080000D02*
X-25400000Y5080000D01*
X-2540000Y13335000D02*
X-2540000Y7620000D01*
X-10795000Y12700000D02*
X-6350000Y12700000D01*
X-9525000Y9525000D02*
X-5715000Y9525000D01*
X-10795000Y12700000D02*
X-12700000Y10795000D01*
X-21590000Y5080000D02*
X-17780000Y5080000D01*
X-28575000Y5080000D02*
X-27305000Y5080000D01*
X-27305000Y11430000D02*
X-27305000Y8890000D01*
X-31750000Y9525000D02*
X-31750000Y5715000D01*
X-33020000Y13335000D02*
X-31750000Y12065000D01*
X-36195000Y13335000D02*
X-33020000Y13335000D01*
X-37465000Y5715000D02*
X-37465000Y9525000D01*
D21*
X-40640000Y14605000D02*
X-40640000Y13335000D01*
X-40640000Y14605000D02*
X-40640000Y17780000D01*
D19*
X-29210000Y13335000D02*
X-27305000Y11430000D01*
X-60325000Y54610000D02*
X-59055000Y54610000D01*
X-69215000Y55880000D02*
X-68580000Y56515000D01*
X-78105000Y57150000D02*
X-76200000Y55245000D01*
X-76200000Y55245000D02*
X-73660000Y55245000D01*
X-68580000Y56515000D02*
X-64135000Y56515000D01*
X-64135000Y56515000D02*
X-62230000Y56515000D01*
X-62230000Y56515000D02*
X-60325000Y54610000D01*
X-86360000Y29210000D02*
X-85725000Y29845000D01*
X-85725000Y29845000D02*
X-81280000Y29845000D01*
X-67310000Y28575000D02*
X-54610000Y28575000D01*
X-78105000Y37465000D02*
X-78105000Y34290000D01*
X-73660000Y31750000D02*
X-70485000Y28575000D01*
X-70485000Y28575000D02*
X-67310000Y28575000D01*
X-19545300Y33655000D02*
X-19545300Y36690300D01*
X-19545300Y36690300D02*
X-19685000Y36830000D01*
X-74295000Y44945300D02*
X-76974700Y44945300D01*
X-76974700Y44945300D02*
X-77470000Y44450000D01*
X-74295000Y51435000D02*
X-73660000Y50800000D01*
X-73660000Y50800000D02*
X-69850000Y50800000D01*
X-66040000Y52070000D02*
X-66040000Y48895000D01*
X-66040000Y48895000D02*
X-67310000Y47625000D01*
X-67945000Y39370000D02*
X-60325000Y39370000D01*
X-68580000Y40005000D02*
X-67945000Y39370000D01*
X-65405000Y43180000D02*
X-66040000Y42545000D01*
X-58420000Y43180000D02*
X-65405000Y43180000D01*
X-70485000Y45720000D02*
X-62230000Y45720000D01*
X-79375000Y38735000D02*
X-81915000Y36195000D01*
X-77470000Y50800000D02*
X-77470000Y48260000D01*
X-77470000Y48260000D02*
X-77470000Y44450000D01*
X-77470000Y50800000D02*
X-79375000Y50800000D01*
X-77470000Y44450000D02*
X-76200000Y43180000D01*
X-18415000Y44450000D02*
X-20320000Y44450000D01*
X-38735000Y43815000D02*
X-38735000Y42545000D01*
X-37465000Y45085000D02*
X-38735000Y43815000D01*
X-36195000Y35560000D02*
X-36195000Y34925000D01*
X-36195000Y34925000D02*
X-36830000Y34290000D01*
X-31115000Y27305000D02*
X-31115000Y23495000D01*
X-31115000Y23495000D02*
X-29845000Y22225000D01*
X-15875000Y56515000D02*
X-37465000Y56515000D01*
X-37465000Y56515000D02*
X-38100000Y57150000D01*
X-6985000Y52070000D02*
X-5715000Y50800000D01*
X-5715000Y48260000D02*
X-5715000Y49530000D01*
X-8255000Y53975000D02*
X-10160000Y53975000D01*
X-6350000Y55880000D02*
X-8255000Y53975000D01*
X-15875000Y56515000D02*
X-13970000Y56515000D01*
X-20955000Y51435000D02*
X-15875000Y56515000D01*
X-5715000Y50800000D02*
X-5715000Y49530000D01*
X-23495000Y50165000D02*
X-22860000Y50165000D01*
X-22860000Y50165000D02*
X-19050000Y50165000D01*
X-19050000Y50165000D02*
X-18415000Y50165000D01*
X-23495000Y49530000D02*
X-23495000Y50165000D01*
X-23495000Y46761400D02*
X-23495000Y49530000D01*
X-6350000Y34290000D02*
X-6350000Y30480000D01*
X-8255000Y36195000D02*
X-6350000Y34290000D01*
X-8255000Y38100000D02*
X-8255000Y36195000D01*
X-10795000Y38100000D02*
X-10795000Y40500300D01*
X-14605000Y24130000D02*
X-17145000Y24130000D01*
X-15240000Y26670000D02*
X-14605000Y26670000D01*
X-18415000Y26670000D02*
X-15240000Y26670000D01*
X-14605000Y26670000D02*
X-13335000Y25400000D01*
X-13335000Y25400000D02*
X-14605000Y24130000D01*
X-18415000Y50165000D02*
X-18415000Y47764700D01*
X-18415000Y47764700D02*
X-18554700Y47625000D01*
X-77470000Y50800000D02*
X-77470000Y52070000D01*
X-18415000Y50165000D02*
X-18554700Y50025300D01*
X-33655000Y37465000D02*
X-33655000Y34925000D01*
X-33655000Y34925000D02*
X-31115000Y32385000D01*
X-31115000Y32385000D02*
X-31115000Y27305000D01*
X-19545300Y31254700D02*
X-19545300Y33655000D01*
X-19685000Y31115000D02*
X-19545300Y31254700D01*
D20*
X-18415000Y44450000D02*
X-18415000Y47485300D01*
X-18415000Y47485300D02*
X-18554700Y47625000D01*
D19*
X-74930000Y46990000D02*
X-76200000Y46990000D01*
X-73660000Y46990000D02*
X-74930000Y46990000D01*
D22*
X-71755000Y40005000D02*
X-71755000Y45720000D01*
X-72390000Y46990000D02*
X-73660000Y46990000D01*
X-71755000Y46355000D02*
X-72390000Y46990000D01*
X-71755000Y45720000D02*
X-71755000Y46355000D01*
X-16116300Y43573700D02*
X-18415000Y41275000D01*
X-18415000Y41275000D02*
X-19685000Y40005000D01*
X-16116300Y43573700D02*
X-16116300Y44450000D01*
X-22225000Y37465000D02*
X-22225000Y35560000D01*
X-21590000Y34925000D02*
X-21590000Y33655000D01*
X-22225000Y35560000D02*
X-21590000Y34925000D01*
X-15875000Y44208700D02*
X-16116300Y44450000D01*
X-34290000Y40640000D02*
X-35560000Y40640000D01*
X-22225000Y40640000D02*
X-34290000Y40640000D01*
X-35560000Y40640000D02*
X-38735000Y37465000D01*
X-40005000Y36830000D02*
X-39370000Y36830000D01*
X-39370000Y36830000D02*
X-38735000Y37465000D01*
X-52070000Y36830000D02*
X-40005000Y36830000D01*
X-22225000Y37465000D02*
X-19685000Y40005000D01*
D19*
X-16116300Y44450000D02*
X-16116300Y43573700D01*
D22*
X-71755000Y40005000D02*
X-71755000Y40005000D01*
X-68580000Y36830000D02*
X-71755000Y40005000D01*
X-52070000Y36830000D02*
X-67945000Y36830000D01*
X-67945000Y36830000D02*
X-68580000Y36830000D01*
D19*
X-54610000Y50800000D02*
X-56515000Y50800000D01*
D22*
X-52070000Y36830000D02*
X-54610000Y39370000D01*
X-54610000Y39370000D02*
X-54610000Y43815000D01*
X-22225000Y37465000D02*
X-22225000Y40640000D01*
X-22225000Y40640000D02*
X-22225000Y43815000D01*
X-22225000Y43815000D02*
X-22225000Y46761400D01*
D20*
X-16116300Y44450000D02*
X-16116300Y47231300D01*
X-16116300Y47231300D02*
X-16510000Y47625000D01*
D23*
X-18449656Y22825344D02*
X-12030344Y22825344D01*
X-22860000Y27235688D02*
X-18449656Y22825344D01*
X-22860000Y27940000D02*
X-22860000Y27235688D01*
X-10795000Y21590000D02*
X-7620000Y21590000D01*
X-12030344Y22825344D02*
X-10795000Y21590000D01*
X-7654656Y21555344D02*
X-7620000Y21590000D01*
X-11430000Y29845000D02*
X-5080000Y23495000D01*
X-5080000Y23495000D02*
X-5080000Y17780000D01*
X-13335000Y29845000D02*
X-11430000Y29845000D01*
X-22860000Y26670000D02*
X-23495000Y27305000D01*
X-22860000Y26670000D02*
X-18415000Y22225000D01*
X-18415000Y22225000D02*
X-13970000Y22225000D01*
X-13970000Y22225000D02*
X-12065000Y22225000D01*
X-7620000Y17780000D02*
X-12065000Y22225000D01*
X-23495000Y28575000D02*
X-22860000Y29210000D01*
X-23495000Y27305000D02*
X-23495000Y28575000D01*
X-13970000Y21590000D02*
X-12065000Y21590000D01*
X-15875000Y21590000D02*
X-18415000Y21590000D01*
X-13970000Y21590000D02*
X-15875000Y21590000D01*
X-24130000Y27305000D02*
X-24130000Y29845000D01*
X-18415000Y21590000D02*
X-24130000Y27305000D01*
X-10160000Y19685000D02*
X-10160000Y17780000D01*
X-12065000Y21590000D02*
X-10160000Y19685000D01*
X-14605000Y20955000D02*
X-13970000Y20955000D01*
X-12700000Y19050000D02*
X-12700000Y17780000D01*
X-12700000Y19685000D02*
X-12700000Y19050000D01*
X-13970000Y20955000D02*
X-12700000Y19685000D01*
X-24765000Y28575000D02*
X-25400000Y29210000D01*
X-24765000Y37465000D02*
X-24765000Y35560000D01*
X-25400000Y34925000D02*
X-24765000Y35560000D01*
X-24765000Y27305000D02*
X-24765000Y28575000D01*
X-18415000Y20955000D02*
X-14605000Y20955000D01*
X-14605000Y20955000D02*
X-14674312Y20955000D01*
X-18415000Y20955000D02*
X-24765000Y27305000D01*
X-25400000Y29210000D02*
X-25400000Y34925000D01*
X-12700000Y17780000D02*
X-12700000Y18415000D01*
X-23495000Y31115000D02*
X-24765000Y32385000D01*
X-22225000Y29845000D02*
X-22225000Y27940000D01*
X-22225000Y27940000D02*
X-22225000Y27305000D01*
X-22225000Y27305000D02*
X-21590000Y26670000D01*
X-21590000Y26670000D02*
X-20955000Y26670000D01*
X-23495000Y35560000D02*
X-23495000Y37465000D01*
X-23495000Y31115000D02*
X-22225000Y29845000D01*
X-24765000Y34290000D02*
X-23495000Y35560000D01*
X-24765000Y32385000D02*
X-24765000Y34290000D01*
X-25400000Y17145000D02*
X-22860000Y14605000D01*
X-25400000Y17780000D02*
X-25400000Y17145000D01*
X-27305000Y37465000D02*
X-27305000Y35560000D01*
X-26670000Y25400000D02*
X-26035000Y24765000D01*
X-26670000Y34925000D02*
X-26670000Y25400000D01*
X-27305000Y35560000D02*
X-26670000Y34925000D01*
X-29210000Y26670000D02*
X-29210000Y24765000D01*
X-29210000Y30480000D02*
X-29210000Y26670000D01*
X-27940000Y20955000D02*
X-30480000Y18415000D01*
X-27940000Y23495000D02*
X-27940000Y20955000D01*
X-29210000Y24765000D02*
X-27940000Y23495000D01*
X-30480000Y18415000D02*
X-30480000Y17780000D01*
X-74295000Y40005000D02*
X-74295000Y41910000D01*
X-69850000Y35560000D02*
X-68580000Y34290000D01*
X-39370000Y34290000D02*
X-32385000Y27305000D01*
X-32385000Y27305000D02*
X-32385000Y18415000D01*
X-71120000Y36830000D02*
X-69850000Y35560000D01*
X-68580000Y34290000D02*
X-39370000Y34290000D01*
X-71120000Y36830000D02*
X-74295000Y40005000D01*
X-32385000Y18415000D02*
X-33020000Y17780000D01*
X-69850000Y34290000D02*
X-68580000Y33020000D01*
X-33655000Y27305000D02*
X-39370000Y33020000D01*
X-86360000Y50800000D02*
X-81280000Y50800000D01*
X-86360000Y50800000D02*
X-87630000Y52070000D01*
X-79375000Y48895000D02*
X-79375000Y43815000D01*
X-81280000Y50800000D02*
X-79375000Y48895000D01*
X-79375000Y43815000D02*
X-71120000Y35560000D01*
X-71120000Y35560000D02*
X-69850000Y34290000D01*
X-68580000Y33020000D02*
X-39370000Y33020000D01*
X-33655000Y22860000D02*
X-35560000Y20955000D01*
X-35560000Y20955000D02*
X-36195000Y20955000D01*
X-33655000Y27305000D02*
X-33655000Y27305000D01*
X-33655000Y27305000D02*
X-33655000Y22860000D01*
X-69850000Y34925000D02*
X-68580000Y33655000D01*
X-33020000Y27305000D02*
X-39370000Y33655000D01*
X-78740000Y43815000D02*
X-71120000Y36195000D01*
X-78740000Y48895000D02*
X-78740000Y43815000D01*
X-78740000Y48895000D02*
X-81915000Y52070000D01*
X-71120000Y36195000D02*
X-69850000Y34925000D01*
X-68580000Y33655000D02*
X-39370000Y33655000D01*
X-38100000Y17780000D02*
X-33020000Y22860000D01*
X-33020000Y22860000D02*
X-33020000Y27305000D01*
X-33020000Y27305000D02*
X-33020000Y27305000D01*
X-82550000Y52070000D02*
X-81915000Y52070000D01*
X-69850000Y33655000D02*
X-68580000Y32385000D01*
X-80044656Y46955344D02*
X-81349312Y48260000D01*
X-80044656Y46955344D02*
X-80044656Y43849656D01*
X-80044656Y43849656D02*
X-71120000Y34925000D01*
X-85090000Y49530000D02*
X-83820000Y48260000D01*
X-83820000Y48260000D02*
X-82550000Y48260000D01*
X-82550000Y48260000D02*
X-81349312Y48260000D01*
X-71120000Y34925000D02*
X-69850000Y33655000D01*
X-68580000Y32385000D02*
X-39370000Y32385000D01*
X-39370000Y32385000D02*
X-34290000Y27305000D01*
X-34290000Y27305000D02*
X-34290000Y24130000D01*
X-39370000Y19050000D02*
X-34290000Y24130000D01*
X-39370000Y19050000D02*
X-39370000Y16510000D01*
X-39370000Y16510000D02*
X-39370000Y3810000D01*
X-39370000Y3810000D02*
X-40640000Y2540000D01*
X-39370000Y32385000D02*
X-39370000Y32385000D01*
X-69850000Y33020000D02*
X-68580000Y31750000D01*
X-80010000Y43180000D02*
X-80645000Y43815000D01*
X-71120000Y34290000D02*
X-79375000Y42545000D01*
X-85090000Y46990000D02*
X-83820000Y45720000D01*
X-79375000Y42545000D02*
X-80010000Y43180000D01*
X-81280000Y45720000D02*
X-83820000Y45720000D01*
X-80645000Y45085000D02*
X-81280000Y45720000D01*
X-80645000Y43815000D02*
X-80645000Y45085000D01*
X-71120000Y34290000D02*
X-69850000Y33020000D01*
X-68580000Y31750000D02*
X-39370000Y31750000D01*
X-34925000Y27305000D02*
X-34925000Y24130000D01*
X-35560000Y23495000D02*
X-36195000Y23495000D01*
X-34925000Y24130000D02*
X-35560000Y23495000D01*
X-39370000Y31750000D02*
X-34925000Y27305000D01*
X-39370000Y31750000D02*
X-39370000Y31750000D01*
X-39370000Y30480000D02*
X-68580000Y30480000D01*
X-71120000Y33020000D02*
X-69850000Y31750000D01*
X-86360000Y43180000D02*
X-81280000Y43180000D01*
X-86360000Y43180000D02*
X-87630000Y44450000D01*
X-71120000Y33020000D02*
X-81280000Y43180000D01*
X-68580000Y30480000D02*
X-69850000Y31750000D01*
X-39370000Y30480000D02*
X-36830000Y27940000D01*
X-36830000Y27940000D02*
X-36830000Y26035000D01*
X-36830000Y26035000D02*
X-36830000Y25400000D01*
X-39370000Y30480000D02*
X-39370000Y30480000D01*
X-69850000Y32385000D02*
X-68580000Y31115000D01*
X-71120000Y33655000D02*
X-69850000Y32385000D01*
X-81915000Y44450000D02*
X-71120000Y33655000D01*
X-68580000Y31115000D02*
X-39370000Y31115000D01*
X-35560000Y27305000D02*
X-35560000Y26035000D01*
X-39370000Y31115000D02*
X-35560000Y27305000D01*
X-39370000Y31115000D02*
X-39370000Y31115000D01*
X-81915000Y44450000D02*
X-82550000Y44450000D01*
X-30480000Y2540000D02*
X-30480000Y4445000D01*
X-34290000Y16510000D02*
X-30480000Y12700000D01*
X-37465000Y27940000D02*
X-39370000Y29845000D01*
X-34290000Y19685000D02*
X-33020000Y20955000D01*
X-34290000Y16510000D02*
X-34290000Y19685000D01*
X-37465000Y26670000D02*
X-37465000Y24130000D01*
X-37465000Y27940000D02*
X-37465000Y26670000D01*
X-30480000Y4445000D02*
X-30480000Y12700000D01*
X-39370000Y29845000D02*
X-68580000Y29845000D01*
X-68580000Y29845000D02*
X-69850000Y31115000D01*
X-39370000Y29845000D02*
X-39370000Y29845000D01*
X-71120000Y32385000D02*
X-69850000Y31115000D01*
X-79375000Y40640000D02*
X-71120000Y32385000D01*
X-79375000Y40640000D02*
X-81915000Y40640000D01*
X-69850000Y31115000D02*
X-69850000Y31115000D01*
X-85090000Y41910000D02*
X-83820000Y40640000D01*
X-83820000Y40640000D02*
X-81915000Y40640000D01*
X-81915000Y40640000D02*
X-81915000Y40640000D01*
X-26035000Y26035000D02*
X-24765000Y24765000D01*
X-28575000Y34290000D02*
X-27940000Y33655000D01*
X-29210000Y34925000D02*
X-28575000Y34290000D01*
X-29845000Y35560000D02*
X-29210000Y34925000D01*
X-29845000Y37465000D02*
X-29845000Y35560000D01*
X-26670000Y18415000D02*
X-26670000Y16510000D01*
X-26670000Y18415000D02*
X-26670000Y19050000D01*
X-26670000Y16510000D02*
X-25400000Y15240000D01*
X-26670000Y19685000D02*
X-26670000Y19050000D01*
X-26670000Y22225000D02*
X-26670000Y19685000D01*
X-26670000Y23495000D02*
X-26670000Y22225000D01*
X-27940000Y24765000D02*
X-26670000Y23495000D01*
X-27940000Y25400000D02*
X-27940000Y24765000D01*
X-27940000Y33655000D02*
X-27940000Y25400000D01*
X-22860000Y7620000D02*
X-22860000Y8890000D01*
X-29845000Y33020000D02*
X-30480000Y33655000D01*
X-31115000Y19685000D02*
X-29845000Y19685000D01*
X-29845000Y29210000D02*
X-29845000Y25400000D01*
X-31750000Y19050000D02*
X-31115000Y19685000D01*
X-31750000Y19050000D02*
X-31750000Y16510000D01*
X-22860000Y2540000D02*
X-22860000Y7620000D01*
X-29845000Y24765000D02*
X-29845000Y25400000D01*
X-28575000Y23495000D02*
X-29845000Y24765000D01*
X-28575000Y20955000D02*
X-28575000Y23495000D01*
X-29845000Y19685000D02*
X-28575000Y20955000D01*
X-32385000Y35560000D02*
X-32385000Y37465000D01*
X-32385000Y35560000D02*
X-30480000Y33655000D01*
X-29845000Y29210000D02*
X-29845000Y33020000D01*
X-31115000Y15875000D02*
X-31750000Y16510000D01*
X-29845000Y15875000D02*
X-31115000Y15875000D01*
X-22860000Y8890000D02*
X-29845000Y15875000D01*
X-10795000Y28575000D02*
X-11430000Y29210000D01*
X-15875000Y30480000D02*
X-14605000Y29210000D01*
X-12700000Y29210000D02*
X-14605000Y29210000D01*
X-6350000Y16510000D02*
X-6350000Y19050000D01*
X-6350000Y16510000D02*
X-8255000Y14605000D01*
X-5715000Y19685000D02*
X-5715000Y23495000D01*
X-6350000Y19050000D02*
X-5715000Y19685000D01*
X-10795000Y28575000D02*
X-5715000Y23495000D01*
X-11430000Y29210000D02*
X-12700000Y29210000D01*
X-11430000Y28575000D02*
X-12065000Y28575000D01*
X-6350000Y20955000D02*
X-6350000Y23495000D01*
X-6985000Y20320000D02*
X-6350000Y20955000D01*
X-6350000Y23495000D02*
X-11430000Y28575000D01*
X-22225000Y8890000D02*
X-17780000Y8890000D01*
X-27305000Y22225000D02*
X-27305000Y23495000D01*
X-29210000Y19050000D02*
X-27305000Y20955000D01*
X-27305000Y20955000D02*
X-27305000Y22225000D01*
X-29210000Y16510000D02*
X-29210000Y15875000D01*
X-29210000Y16510000D02*
X-29210000Y19050000D01*
X-28575000Y26670000D02*
X-28575000Y33020000D01*
X-28575000Y24765000D02*
X-28575000Y26670000D01*
X-27305000Y23495000D02*
X-28575000Y24765000D01*
X-31115000Y37465000D02*
X-31115000Y35560000D01*
X-31115000Y35560000D02*
X-29845000Y34290000D01*
X-29845000Y34290000D02*
X-28575000Y33020000D01*
X-12700000Y3810000D02*
X-12700000Y2540000D01*
X-16510000Y7620000D02*
X-12700000Y3810000D01*
X-22225000Y8890000D02*
X-29210000Y15875000D01*
X-17780000Y8890000D02*
X-16510000Y7620000D01*
X-26035000Y27305000D02*
X-26035000Y27940000D01*
X-17145000Y19685000D02*
X-18415000Y19685000D01*
X-16510000Y19050000D02*
X-17145000Y19685000D01*
X-14605000Y8890000D02*
X-10160000Y4445000D01*
X-10160000Y4445000D02*
X-10160000Y3810000D01*
X-14605000Y14605000D02*
X-14605000Y10795000D01*
X-16510000Y16510000D02*
X-14605000Y14605000D01*
X-10160000Y3810000D02*
X-10160000Y2540000D01*
X-14605000Y10795000D02*
X-14605000Y8890000D01*
X-16510000Y16510000D02*
X-16510000Y19050000D01*
X-18415000Y19685000D02*
X-21590000Y22860000D01*
X-21590000Y22860000D02*
X-25400000Y26670000D01*
X-25400000Y26670000D02*
X-26035000Y27305000D01*
X-18415000Y20320000D02*
X-25400000Y27305000D01*
X-15240000Y20320000D02*
X-17145000Y20320000D01*
X-17145000Y20320000D02*
X-18415000Y20320000D01*
X-26035000Y37465000D02*
X-26035000Y31750000D01*
X-26035000Y31750000D02*
X-26035000Y29210000D01*
X-13970000Y10795000D02*
X-13970000Y8890000D01*
X-13970000Y8890000D02*
X-7620000Y2540000D01*
X-13970000Y10795000D02*
X-13970000Y19050000D01*
X-13970000Y19050000D02*
X-15240000Y20320000D01*
X-25400000Y28575000D02*
X-26035000Y29210000D01*
X-25400000Y27305000D02*
X-25400000Y28575000D01*
X-18415000Y15875000D02*
X-19050000Y16510000D01*
X-27305000Y34290000D02*
X-27305000Y25400000D01*
X-23495000Y24130000D02*
X-26670000Y24130000D01*
X-26670000Y24130000D02*
X-27305000Y24765000D01*
X-27305000Y24765000D02*
X-27305000Y25400000D01*
X-19050000Y19685000D02*
X-22860000Y23495000D01*
X-19050000Y19050000D02*
X-19050000Y17145000D01*
X-19050000Y19050000D02*
X-19050000Y19685000D01*
X-22860000Y23495000D02*
X-23495000Y24130000D01*
X-28575000Y37465000D02*
X-28575000Y35560000D01*
X-27940000Y34925000D02*
X-28575000Y35560000D01*
X-27940000Y34925000D02*
X-27305000Y34290000D01*
X-15240000Y14605000D02*
X-16510000Y15875000D01*
X-16510000Y15875000D02*
X-18415000Y15875000D01*
X-12065000Y5715000D02*
X-15240000Y8890000D01*
X-15240000Y13970000D02*
X-15240000Y8890000D01*
X-12065000Y5715000D02*
X-12065000Y5080000D01*
X-15240000Y13970000D02*
X-15240000Y14605000D01*
X-19050000Y16510000D02*
X-19050000Y17145000D01*
X-12065000Y5080000D02*
X-12065000Y5080000D01*
X-43180000Y47625000D02*
X-41910000Y48895000D01*
X-43180000Y46990000D02*
X-43180000Y47625000D01*
X-43180000Y44450000D02*
X-43180000Y42545000D01*
X-43815000Y41910000D02*
X-44450000Y41275000D01*
X-45085000Y40640000D02*
X-44450000Y41275000D01*
X-46355000Y37465000D02*
X-45085000Y38735000D01*
X-46355000Y37465000D02*
X-50165000Y37465000D01*
X-52070000Y39370000D02*
X-50165000Y37465000D01*
X-45085000Y38735000D02*
X-45085000Y40640000D01*
X-43180000Y42545000D02*
X-43815000Y41910000D01*
X-43180000Y46990000D02*
X-43180000Y44450000D01*
X-41910000Y48895000D02*
X-34290000Y48895000D01*
X-34290000Y48895000D02*
X-33655000Y48260000D01*
X-33655000Y48260000D02*
X-33655000Y46761400D01*
X-43815000Y47625000D02*
X-41910000Y49530000D01*
X-41910000Y49530000D02*
X-40640000Y49530000D01*
X-43815000Y46990000D02*
X-43815000Y44450000D01*
X-43815000Y42545000D02*
X-44450000Y41910000D01*
X-44450000Y41910000D02*
X-45085000Y41275000D01*
X-45720000Y40640000D02*
X-45085000Y41275000D01*
X-43815000Y44450000D02*
X-43815000Y42545000D01*
X-38735000Y49530000D02*
X-34290000Y49530000D01*
X-34290000Y49530000D02*
X-33655000Y49530000D01*
X-33655000Y49530000D02*
X-32385000Y48260000D01*
X-40640000Y49530000D02*
X-38735000Y49530000D01*
X-43815000Y46990000D02*
X-43815000Y47625000D01*
X-32385000Y48260000D02*
X-32385000Y46761400D01*
X-45720000Y40640000D02*
X-45720000Y40640000D01*
X-45720000Y40640000D02*
X-50800000Y40640000D01*
X-52070000Y41910000D02*
X-50800000Y40640000D01*
X-41910000Y50165000D02*
X-44450000Y47625000D01*
X-31115000Y48260000D02*
X-33020000Y50165000D01*
X-44450000Y46990000D02*
X-44450000Y47625000D01*
X-40640000Y50165000D02*
X-38735000Y50165000D01*
X-38735000Y50165000D02*
X-33655000Y50165000D01*
X-44450000Y44450000D02*
X-45085000Y43815000D01*
X-45085000Y43815000D02*
X-45720000Y43180000D01*
X-44450000Y46990000D02*
X-44450000Y44450000D01*
X-41910000Y50165000D02*
X-40640000Y50165000D01*
X-33655000Y50165000D02*
X-33020000Y50165000D01*
X-31115000Y48260000D02*
X-31115000Y46761400D01*
X-45720000Y43180000D02*
X-45720000Y43180000D01*
X-45720000Y43180000D02*
X-50800000Y43180000D01*
X-52070000Y44450000D02*
X-50800000Y43180000D01*
X-45085000Y47625000D02*
X-41910000Y50800000D01*
X-29845000Y48260000D02*
X-32385000Y50800000D01*
X-45085000Y46990000D02*
X-45085000Y47625000D01*
X-40640000Y50800000D02*
X-38735000Y50800000D01*
X-33655000Y50800000D02*
X-38735000Y50800000D01*
X-45085000Y46355000D02*
X-45085000Y46990000D01*
X-45085000Y46355000D02*
X-45720000Y45720000D01*
X-41910000Y50800000D02*
X-40640000Y50800000D01*
X-33655000Y50800000D02*
X-32385000Y50800000D01*
X-29845000Y48260000D02*
X-29845000Y46761400D01*
X-45720000Y45720000D02*
X-45720000Y45720000D01*
X-65405000Y53340000D02*
X-57785000Y45720000D01*
X-57785000Y45720000D02*
X-53340000Y45720000D01*
X-45720000Y45720000D02*
X-53340000Y45720000D01*
X-65405000Y53340000D02*
X-86360000Y53340000D01*
X-87630000Y54610000D02*
X-86360000Y53340000D01*
X-45720000Y48260000D02*
X-45085000Y48260000D01*
X-45085000Y48260000D02*
X-41910000Y51435000D01*
X-41910000Y51435000D02*
X-41910000Y51435000D01*
X-33655000Y51435000D02*
X-31750000Y51435000D01*
X-28575000Y48260000D02*
X-31750000Y51435000D01*
X-41275000Y51435000D02*
X-33655000Y51435000D01*
X-41910000Y51435000D02*
X-41275000Y51435000D01*
X-65405000Y53975000D02*
X-57785000Y46355000D01*
X-55245000Y46355000D02*
X-53340000Y48260000D01*
X-53340000Y48260000D02*
X-46990000Y48260000D01*
X-46990000Y48260000D02*
X-45720000Y48260000D01*
X-57785000Y46355000D02*
X-55245000Y46355000D01*
X-72390000Y53975000D02*
X-76835000Y53975000D01*
X-86360000Y55880000D02*
X-87630000Y57150000D01*
X-72390000Y53975000D02*
X-65405000Y53975000D01*
X-81280000Y55880000D02*
X-86360000Y55880000D01*
X-79375000Y53975000D02*
X-81280000Y55880000D01*
X-76835000Y53975000D02*
X-79375000Y53975000D01*
X-45720000Y48260000D02*
X-45720000Y48260000D01*
X-28575000Y48260000D02*
X-28575000Y46761400D01*
X-41910000Y52070000D02*
X-44450000Y52070000D01*
X-27305000Y48260000D02*
X-31115000Y52070000D01*
X-31750000Y52070000D02*
X-31115000Y52070000D01*
X-41910000Y52070000D02*
X-31750000Y52070000D01*
X-44450000Y52070000D02*
X-45720000Y50800000D01*
X-45720000Y50800000D02*
X-45720000Y50800000D01*
X-50800000Y50800000D02*
X-45720000Y50800000D01*
X-50800000Y50800000D02*
X-52070000Y52070000D01*
X-45720000Y50800000D02*
X-45720000Y50800000D01*
X-27305000Y48260000D02*
X-27305000Y46761400D01*
X-45720000Y53340000D02*
X-45085000Y52705000D01*
X-45085000Y52705000D02*
X-41275000Y52705000D01*
X-30480000Y52705000D02*
X-26035000Y48260000D01*
X-31115000Y52705000D02*
X-30480000Y52705000D01*
X-41275000Y52705000D02*
X-31115000Y52705000D01*
X-50800000Y53340000D02*
X-45720000Y53340000D01*
X-50800000Y53340000D02*
X-52070000Y54610000D01*
X-45720000Y53340000D02*
X-45720000Y53340000D01*
X-26035000Y48260000D02*
X-26035000Y46761400D01*
X-44450000Y53340000D02*
X-45085000Y53975000D01*
X-50800000Y55880000D02*
X-45720000Y55880000D01*
X-52070000Y57150000D02*
X-50800000Y55880000D01*
X-44450000Y53340000D02*
X-40640000Y53340000D01*
X-29845000Y53340000D02*
X-24765000Y48260000D01*
X-29845000Y53340000D02*
X-40640000Y53340000D01*
X-45085000Y55245000D02*
X-45720000Y55880000D01*
X-45085000Y54610000D02*
X-45085000Y55245000D01*
X-45085000Y53975000D02*
X-45085000Y54610000D01*
X-24765000Y48260000D02*
X-24765000Y46761400D01*
D19*
X-54610000Y48260000D02*
X-56019700Y48260000D01*
X-56019700Y48260000D02*
X-56515000Y48755300D01*
D22*
G36*
X-32385377Y16436486D02*
X-32350522Y16261255D01*
X-32209619Y16050381D01*
X-31574619Y15415380D01*
X-31363744Y15274478D01*
X-31115000Y15225000D01*
X-30114238Y15225000D01*
X-23510000Y8620761D01*
X-23510000Y3840328D01*
X-23680286Y3769967D01*
X-24088533Y3362431D01*
X-24129828Y3262982D01*
X-24170033Y3360286D01*
X-24577569Y3768533D01*
X-25110312Y3989748D01*
X-25687157Y3990251D01*
X-26220286Y3769967D01*
X-26628533Y3362431D01*
X-26669828Y3262982D01*
X-26710033Y3360286D01*
X-27117569Y3768533D01*
X-27650312Y3989748D01*
X-28227157Y3990251D01*
X-28760286Y3769967D01*
X-29168533Y3362431D01*
X-29209828Y3262982D01*
X-29250033Y3360286D01*
X-29657569Y3768533D01*
X-29830000Y3840133D01*
X-29830000Y12700000D01*
X-29879478Y12948744D01*
X-30020380Y13159619D01*
X-33190910Y16330148D01*
X-32732843Y16329749D01*
X-32392147Y16470521D01*
X-32385377Y16436486D01*
X-32385377Y16436486D01*
G37*
X-32385377Y16436486D02*
X-32350522Y16261255D01*
X-32209619Y16050381D01*
X-31574619Y15415380D01*
X-31363744Y15274478D01*
X-31115000Y15225000D01*
X-30114238Y15225000D01*
X-23510000Y8620761D01*
X-23510000Y3840328D01*
X-23680286Y3769967D01*
X-24088533Y3362431D01*
X-24129828Y3262982D01*
X-24170033Y3360286D01*
X-24577569Y3768533D01*
X-25110312Y3989748D01*
X-25687157Y3990251D01*
X-26220286Y3769967D01*
X-26628533Y3362431D01*
X-26669828Y3262982D01*
X-26710033Y3360286D01*
X-27117569Y3768533D01*
X-27650312Y3989748D01*
X-28227157Y3990251D01*
X-28760286Y3769967D01*
X-29168533Y3362431D01*
X-29209828Y3262982D01*
X-29250033Y3360286D01*
X-29657569Y3768533D01*
X-29830000Y3840133D01*
X-29830000Y12700000D01*
X-29879478Y12948744D01*
X-30020380Y13159619D01*
X-33190910Y16330148D01*
X-32732843Y16329749D01*
X-32392147Y16470521D01*
X-32385377Y16436486D01*
G36*
X-36789967Y16959714D02*
X-36382431Y16551467D01*
X-35849688Y16330252D01*
X-35272843Y16329749D01*
X-34932147Y16470521D01*
X-34925377Y16436486D01*
X-34890522Y16261255D01*
X-34749619Y16050381D01*
X-31130000Y12430761D01*
X-31130000Y3840328D01*
X-31300286Y3769967D01*
X-31708533Y3362431D01*
X-31749828Y3262982D01*
X-31790033Y3360286D01*
X-32197569Y3768533D01*
X-32730312Y3989748D01*
X-33307157Y3990251D01*
X-33840286Y3769967D01*
X-34248533Y3362431D01*
X-34289828Y3262982D01*
X-34330033Y3360286D01*
X-34737569Y3768533D01*
X-35270312Y3989748D01*
X-35847157Y3990251D01*
X-36380286Y3769967D01*
X-36788533Y3362431D01*
X-36829828Y3262982D01*
X-36870033Y3360286D01*
X-37277569Y3768533D01*
X-37810312Y3989748D01*
X-38387157Y3990251D01*
X-38720000Y3852723D01*
X-38720000Y16467410D01*
X-38389688Y16330252D01*
X-37812843Y16329749D01*
X-37279714Y16550033D01*
X-36871467Y16957569D01*
X-36830172Y17057018D01*
X-36789967Y16959714D01*
X-36789967Y16959714D01*
G37*
X-36789967Y16959714D02*
X-36382431Y16551467D01*
X-35849688Y16330252D01*
X-35272843Y16329749D01*
X-34932147Y16470521D01*
X-34925377Y16436486D01*
X-34890522Y16261255D01*
X-34749619Y16050381D01*
X-31130000Y12430761D01*
X-31130000Y3840328D01*
X-31300286Y3769967D01*
X-31708533Y3362431D01*
X-31749828Y3262982D01*
X-31790033Y3360286D01*
X-32197569Y3768533D01*
X-32730312Y3989748D01*
X-33307157Y3990251D01*
X-33840286Y3769967D01*
X-34248533Y3362431D01*
X-34289828Y3262982D01*
X-34330033Y3360286D01*
X-34737569Y3768533D01*
X-35270312Y3989748D01*
X-35847157Y3990251D01*
X-36380286Y3769967D01*
X-36788533Y3362431D01*
X-36829828Y3262982D01*
X-36870033Y3360286D01*
X-37277569Y3768533D01*
X-37810312Y3989748D01*
X-38387157Y3990251D01*
X-38720000Y3852723D01*
X-38720000Y16467410D01*
X-38389688Y16330252D01*
X-37812843Y16329749D01*
X-37279714Y16550033D01*
X-36871467Y16957569D01*
X-36830172Y17057018D01*
X-36789967Y16959714D01*
G36*
X-8849967Y16959714D02*
X-8442431Y16551467D01*
X-7909688Y16330252D01*
X-7449388Y16329851D01*
X-8324178Y15455060D01*
X-8423334Y15455147D01*
X-8735857Y15326015D01*
X-8975174Y15087115D01*
X-9104852Y14774817D01*
X-9105147Y14436666D01*
X-8976015Y14124143D01*
X-8737115Y13884826D01*
X-8424817Y13755148D01*
X-8086666Y13754853D01*
X-7774143Y13883985D01*
X-7534826Y14122885D01*
X-7405148Y14435183D01*
X-7405060Y14535701D01*
X-5890380Y16050381D01*
X-5749478Y16261256D01*
X-5707825Y16470659D01*
X-5369688Y16330252D01*
X-4792843Y16329749D01*
X-4485000Y16456947D01*
X-4485000Y3862971D01*
X-4790312Y3989748D01*
X-5367157Y3990251D01*
X-5900286Y3769967D01*
X-6308533Y3362431D01*
X-6349828Y3262982D01*
X-6390033Y3360286D01*
X-6797569Y3768533D01*
X-7330312Y3989748D01*
X-7907157Y3990251D01*
X-8079714Y3918952D01*
X-13320000Y9159238D01*
X-13320000Y16467410D01*
X-12989688Y16330252D01*
X-12412843Y16329749D01*
X-11879714Y16550033D01*
X-11471467Y16957569D01*
X-11430172Y17057018D01*
X-11389967Y16959714D01*
X-10982431Y16551467D01*
X-10449688Y16330252D01*
X-9872843Y16329749D01*
X-9339714Y16550033D01*
X-8931467Y16957569D01*
X-8890172Y17057018D01*
X-8849967Y16959714D01*
X-8849967Y16959714D01*
G37*
X-8849967Y16959714D02*
X-8442431Y16551467D01*
X-7909688Y16330252D01*
X-7449388Y16329851D01*
X-8324178Y15455060D01*
X-8423334Y15455147D01*
X-8735857Y15326015D01*
X-8975174Y15087115D01*
X-9104852Y14774817D01*
X-9105147Y14436666D01*
X-8976015Y14124143D01*
X-8737115Y13884826D01*
X-8424817Y13755148D01*
X-8086666Y13754853D01*
X-7774143Y13883985D01*
X-7534826Y14122885D01*
X-7405148Y14435183D01*
X-7405060Y14535701D01*
X-5890380Y16050381D01*
X-5749478Y16261256D01*
X-5707825Y16470659D01*
X-5369688Y16330252D01*
X-4792843Y16329749D01*
X-4485000Y16456947D01*
X-4485000Y3862971D01*
X-4790312Y3989748D01*
X-5367157Y3990251D01*
X-5900286Y3769967D01*
X-6308533Y3362431D01*
X-6349828Y3262982D01*
X-6390033Y3360286D01*
X-6797569Y3768533D01*
X-7330312Y3989748D01*
X-7907157Y3990251D01*
X-8079714Y3918952D01*
X-13320000Y9159238D01*
X-13320000Y16467410D01*
X-12989688Y16330252D01*
X-12412843Y16329749D01*
X-11879714Y16550033D01*
X-11471467Y16957569D01*
X-11430172Y17057018D01*
X-11389967Y16959714D01*
X-10982431Y16551467D01*
X-10449688Y16330252D01*
X-9872843Y16329749D01*
X-9339714Y16550033D01*
X-8931467Y16957569D01*
X-8890172Y17057018D01*
X-8849967Y16959714D01*
G36*
X-16969620Y7160381D02*
X-16969617Y7160379D01*
X-13549772Y3740533D01*
X-13928533Y3362431D01*
X-13969828Y3262982D01*
X-14010033Y3360286D01*
X-14417569Y3768533D01*
X-14950312Y3989748D01*
X-15527157Y3990251D01*
X-16060286Y3769967D01*
X-16468533Y3362431D01*
X-16509828Y3262982D01*
X-16550033Y3360286D01*
X-16957569Y3768533D01*
X-17490312Y3989748D01*
X-18067157Y3990251D01*
X-18600286Y3769967D01*
X-19008533Y3362431D01*
X-19049828Y3262982D01*
X-19090033Y3360286D01*
X-19497569Y3768533D01*
X-20030312Y3989748D01*
X-20607157Y3990251D01*
X-21140286Y3769967D01*
X-21548533Y3362431D01*
X-21589828Y3262982D01*
X-21630033Y3360286D01*
X-22037569Y3768533D01*
X-22210000Y3840133D01*
X-22210000Y8240000D01*
X-18049238Y8240000D01*
X-16969620Y7160381D01*
X-16969620Y7160381D01*
G37*
X-16969620Y7160381D02*
X-16969617Y7160379D01*
X-13549772Y3740533D01*
X-13928533Y3362431D01*
X-13969828Y3262982D01*
X-14010033Y3360286D01*
X-14417569Y3768533D01*
X-14950312Y3989748D01*
X-15527157Y3990251D01*
X-16060286Y3769967D01*
X-16468533Y3362431D01*
X-16509828Y3262982D01*
X-16550033Y3360286D01*
X-16957569Y3768533D01*
X-17490312Y3989748D01*
X-18067157Y3990251D01*
X-18600286Y3769967D01*
X-19008533Y3362431D01*
X-19049828Y3262982D01*
X-19090033Y3360286D01*
X-19497569Y3768533D01*
X-20030312Y3989748D01*
X-20607157Y3990251D01*
X-21140286Y3769967D01*
X-21548533Y3362431D01*
X-21589828Y3262982D01*
X-21630033Y3360286D01*
X-22037569Y3768533D01*
X-22210000Y3840133D01*
X-22210000Y8240000D01*
X-18049238Y8240000D01*
X-16969620Y7160381D01*
G36*
X-1420000Y3470445D02*
X-1717569Y3768533D01*
X-2250312Y3989748D01*
X-2827157Y3990251D01*
X-2974695Y3929289D01*
X-3135000Y4089594D01*
X-3135000Y16457029D01*
X-2829688Y16330252D01*
X-2252843Y16329749D01*
X-1719714Y16550033D01*
X-1420000Y16849225D01*
X-1420000Y3470445D01*
X-1420000Y3470445D01*
G37*
X-1420000Y3470445D02*
X-1717569Y3768533D01*
X-2250312Y3989748D01*
X-2827157Y3990251D01*
X-2974695Y3929289D01*
X-3135000Y4089594D01*
X-3135000Y16457029D01*
X-2829688Y16330252D01*
X-2252843Y16329749D01*
X-1719714Y16550033D01*
X-1420000Y16849225D01*
X-1420000Y3470445D01*
G36*
X-41487569Y16436486D02*
X-40908911Y16214403D01*
X-40289314Y16230669D01*
X-40020000Y16342223D01*
X-40020000Y4079239D01*
X-40180149Y3919090D01*
X-40350312Y3989748D01*
X-40927157Y3990251D01*
X-41460286Y3769967D01*
X-41760000Y3470775D01*
X-41760000Y16657645D01*
X-41687637Y16585282D01*
X-41570707Y16702212D01*
X-41487569Y16436486D01*
X-41487569Y16436486D01*
G37*
X-41487569Y16436486D02*
X-40908911Y16214403D01*
X-40289314Y16230669D01*
X-40020000Y16342223D01*
X-40020000Y4079239D01*
X-40180149Y3919090D01*
X-40350312Y3989748D01*
X-40927157Y3990251D01*
X-41460286Y3769967D01*
X-41760000Y3470775D01*
X-41760000Y16657645D01*
X-41687637Y16585282D01*
X-41570707Y16702212D01*
X-41487569Y16436486D01*
G36*
X-21549967Y16959714D02*
X-21142431Y16551467D01*
X-20609688Y16330252D01*
X-20032843Y16329749D01*
X-19692147Y16470521D01*
X-19685377Y16436486D01*
X-19650522Y16261255D01*
X-19509619Y16050381D01*
X-18874619Y15415380D01*
X-18663744Y15274478D01*
X-18415000Y15225000D01*
X-16779238Y15225000D01*
X-15890000Y14335761D01*
X-15890000Y8890000D01*
X-15848731Y8682524D01*
X-15840522Y8641255D01*
X-15699619Y8430381D01*
X-12798723Y5529485D01*
X-12914852Y5249817D01*
X-12915118Y4944357D01*
X-16050379Y8079617D01*
X-16050381Y8079620D01*
X-17320381Y9349619D01*
X-17531255Y9490522D01*
X-17572524Y9498731D01*
X-17780000Y9540000D01*
X-21955761Y9540000D01*
X-28560000Y16144238D01*
X-28560000Y16467410D01*
X-28229688Y16330252D01*
X-27652843Y16329749D01*
X-27312147Y16470521D01*
X-27305377Y16436486D01*
X-27270522Y16261255D01*
X-27129619Y16050381D01*
X-26250060Y15170822D01*
X-26250147Y15071666D01*
X-26121015Y14759143D01*
X-25882115Y14519826D01*
X-25569817Y14390148D01*
X-25231666Y14389853D01*
X-24919143Y14518985D01*
X-24679826Y14757885D01*
X-24550148Y15070183D01*
X-24549882Y15375643D01*
X-23710060Y14535822D01*
X-23710147Y14436666D01*
X-23581015Y14124143D01*
X-23342115Y13884826D01*
X-23029817Y13755148D01*
X-22691666Y13754853D01*
X-22379143Y13883985D01*
X-22139826Y14122885D01*
X-22010148Y14435183D01*
X-22009853Y14773334D01*
X-22138985Y15085857D01*
X-22377885Y15325174D01*
X-22690183Y15454852D01*
X-22790701Y15454940D01*
X-24232452Y16896690D01*
X-24171467Y16957569D01*
X-24130172Y17057018D01*
X-24089967Y16959714D01*
X-23682431Y16551467D01*
X-23149688Y16330252D01*
X-22572843Y16329749D01*
X-22039714Y16550033D01*
X-21631467Y16957569D01*
X-21590172Y17057018D01*
X-21549967Y16959714D01*
X-21549967Y16959714D01*
G37*
X-21549967Y16959714D02*
X-21142431Y16551467D01*
X-20609688Y16330252D01*
X-20032843Y16329749D01*
X-19692147Y16470521D01*
X-19685377Y16436486D01*
X-19650522Y16261255D01*
X-19509619Y16050381D01*
X-18874619Y15415380D01*
X-18663744Y15274478D01*
X-18415000Y15225000D01*
X-16779238Y15225000D01*
X-15890000Y14335761D01*
X-15890000Y8890000D01*
X-15848731Y8682524D01*
X-15840522Y8641255D01*
X-15699619Y8430381D01*
X-12798723Y5529485D01*
X-12914852Y5249817D01*
X-12915118Y4944357D01*
X-16050379Y8079617D01*
X-16050381Y8079620D01*
X-17320381Y9349619D01*
X-17531255Y9490522D01*
X-17572524Y9498731D01*
X-17780000Y9540000D01*
X-21955761Y9540000D01*
X-28560000Y16144238D01*
X-28560000Y16467410D01*
X-28229688Y16330252D01*
X-27652843Y16329749D01*
X-27312147Y16470521D01*
X-27305377Y16436486D01*
X-27270522Y16261255D01*
X-27129619Y16050381D01*
X-26250060Y15170822D01*
X-26250147Y15071666D01*
X-26121015Y14759143D01*
X-25882115Y14519826D01*
X-25569817Y14390148D01*
X-25231666Y14389853D01*
X-24919143Y14518985D01*
X-24679826Y14757885D01*
X-24550148Y15070183D01*
X-24549882Y15375643D01*
X-23710060Y14535822D01*
X-23710147Y14436666D01*
X-23581015Y14124143D01*
X-23342115Y13884826D01*
X-23029817Y13755148D01*
X-22691666Y13754853D01*
X-22379143Y13883985D01*
X-22139826Y14122885D01*
X-22010148Y14435183D01*
X-22009853Y14773334D01*
X-22138985Y15085857D01*
X-22377885Y15325174D01*
X-22690183Y15454852D01*
X-22790701Y15454940D01*
X-24232452Y16896690D01*
X-24171467Y16957569D01*
X-24130172Y17057018D01*
X-24089967Y16959714D01*
X-23682431Y16551467D01*
X-23149688Y16330252D01*
X-22572843Y16329749D01*
X-22039714Y16550033D01*
X-21631467Y16957569D01*
X-21590172Y17057018D01*
X-21549967Y16959714D01*
G36*
X-40478779Y17794142D02*
X-40492922Y17780000D01*
X-40478779Y17765857D01*
X-40625857Y17618779D01*
X-40640000Y17632922D01*
X-40654142Y17618779D01*
X-40801220Y17765857D01*
X-40787078Y17780000D01*
X-40801220Y17794142D01*
X-40654142Y17941220D01*
X-40640000Y17927078D01*
X-40625857Y17941220D01*
X-40478779Y17794142D01*
X-40478779Y17794142D01*
G37*
X-40478779Y17794142D02*
X-40492922Y17780000D01*
X-40478779Y17765857D01*
X-40625857Y17618779D01*
X-40640000Y17632922D01*
X-40654142Y17618779D01*
X-40801220Y17765857D01*
X-40787078Y17780000D01*
X-40801220Y17794142D01*
X-40654142Y17941220D01*
X-40640000Y17927078D01*
X-40625857Y17941220D01*
X-40478779Y17794142D01*
G36*
X-23319619Y23035380D02*
X-23319616Y23035378D01*
X-19700000Y19415761D01*
X-19700000Y19092590D01*
X-20030312Y19229748D01*
X-20607157Y19230251D01*
X-21140286Y19009967D01*
X-21548533Y18602431D01*
X-21589828Y18502982D01*
X-21630033Y18600286D01*
X-22037569Y19008533D01*
X-22570312Y19229748D01*
X-23147157Y19230251D01*
X-23680286Y19009967D01*
X-24088533Y18602431D01*
X-24129828Y18502982D01*
X-24170033Y18600286D01*
X-24577569Y19008533D01*
X-25110312Y19229748D01*
X-25687157Y19230251D01*
X-26020000Y19092723D01*
X-26020000Y23480000D01*
X-23764238Y23480000D01*
X-23319619Y23035380D01*
X-23319619Y23035380D01*
G37*
X-23319619Y23035380D02*
X-23319616Y23035378D01*
X-19700000Y19415761D01*
X-19700000Y19092590D01*
X-20030312Y19229748D01*
X-20607157Y19230251D01*
X-21140286Y19009967D01*
X-21548533Y18602431D01*
X-21589828Y18502982D01*
X-21630033Y18600286D01*
X-22037569Y19008533D01*
X-22570312Y19229748D01*
X-23147157Y19230251D01*
X-23680286Y19009967D01*
X-24088533Y18602431D01*
X-24129828Y18502982D01*
X-24170033Y18600286D01*
X-24577569Y19008533D01*
X-25110312Y19229748D01*
X-25687157Y19230251D01*
X-26020000Y19092723D01*
X-26020000Y23480000D01*
X-23764238Y23480000D01*
X-23319619Y23035380D01*
G36*
X-86319967Y41089714D02*
X-85912431Y40681467D01*
X-85812982Y40640172D01*
X-85910286Y40599967D01*
X-86291713Y40219204D01*
X-86552214Y40300708D01*
X-87482922Y39370000D01*
X-86552214Y38439292D01*
X-86291245Y38520942D01*
X-85912431Y38141467D01*
X-85379688Y37920252D01*
X-84802843Y37919749D01*
X-84269714Y38140033D01*
X-83861467Y38547569D01*
X-83820172Y38647018D01*
X-83779967Y38549714D01*
X-83372431Y38141467D01*
X-82839688Y37920252D01*
X-82262843Y37919749D01*
X-81729714Y38140033D01*
X-81321467Y38547569D01*
X-81100252Y39080312D01*
X-81099749Y39657157D01*
X-81237277Y39990000D01*
X-79644238Y39990000D01*
X-71579619Y31925381D01*
X-70309620Y30655381D01*
X-70309617Y30655379D01*
X-69039620Y29385381D01*
X-68828745Y29244478D01*
X-68787476Y29236269D01*
X-68580000Y29195000D01*
X-39639238Y29195000D01*
X-38115000Y27670761D01*
X-38115000Y24682167D01*
X-38185174Y24612115D01*
X-38314852Y24299817D01*
X-38315147Y23961666D01*
X-38186015Y23649143D01*
X-37947115Y23409826D01*
X-37634817Y23280148D01*
X-37296666Y23279853D01*
X-37045097Y23383799D01*
X-37045147Y23326666D01*
X-36916015Y23014143D01*
X-36677115Y22774826D01*
X-36597480Y22741758D01*
X-39829619Y19509619D01*
X-39970522Y19298745D01*
X-39970522Y19298744D01*
X-39990274Y19199444D01*
X-40371089Y19345597D01*
X-40420949Y19344288D01*
X-39280000Y20200000D01*
X-39240404Y20244469D01*
X-39220000Y20320000D01*
X-39220000Y27940000D01*
X-39231818Y27998358D01*
X-39265409Y28047521D01*
X-39315481Y28079742D01*
X-39370000Y28090000D01*
X-88750000Y28090000D01*
X-88750000Y38247645D01*
X-88677637Y38175282D01*
X-88560707Y38292212D01*
X-88477569Y38026486D01*
X-87898911Y37804403D01*
X-87279314Y37820669D01*
X-86782431Y38026486D01*
X-86699292Y38292214D01*
X-87630000Y39222922D01*
X-87644142Y39208779D01*
X-87791220Y39355857D01*
X-87777078Y39370000D01*
X-87791220Y39384142D01*
X-87644142Y39531220D01*
X-87630000Y39517078D01*
X-86699292Y40447786D01*
X-86780942Y40708755D01*
X-86401467Y41087569D01*
X-86360172Y41187018D01*
X-86319967Y41089714D01*
X-86319967Y41089714D01*
G37*
X-86319967Y41089714D02*
X-85912431Y40681467D01*
X-85812982Y40640172D01*
X-85910286Y40599967D01*
X-86291713Y40219204D01*
X-86552214Y40300708D01*
X-87482922Y39370000D01*
X-86552214Y38439292D01*
X-86291245Y38520942D01*
X-85912431Y38141467D01*
X-85379688Y37920252D01*
X-84802843Y37919749D01*
X-84269714Y38140033D01*
X-83861467Y38547569D01*
X-83820172Y38647018D01*
X-83779967Y38549714D01*
X-83372431Y38141467D01*
X-82839688Y37920252D01*
X-82262843Y37919749D01*
X-81729714Y38140033D01*
X-81321467Y38547569D01*
X-81100252Y39080312D01*
X-81099749Y39657157D01*
X-81237277Y39990000D01*
X-79644238Y39990000D01*
X-71579619Y31925381D01*
X-70309620Y30655381D01*
X-70309617Y30655379D01*
X-69039620Y29385381D01*
X-68828745Y29244478D01*
X-68787476Y29236269D01*
X-68580000Y29195000D01*
X-39639238Y29195000D01*
X-38115000Y27670761D01*
X-38115000Y24682167D01*
X-38185174Y24612115D01*
X-38314852Y24299817D01*
X-38315147Y23961666D01*
X-38186015Y23649143D01*
X-37947115Y23409826D01*
X-37634817Y23280148D01*
X-37296666Y23279853D01*
X-37045097Y23383799D01*
X-37045147Y23326666D01*
X-36916015Y23014143D01*
X-36677115Y22774826D01*
X-36597480Y22741758D01*
X-39829619Y19509619D01*
X-39970522Y19298745D01*
X-39970522Y19298744D01*
X-39990274Y19199444D01*
X-40371089Y19345597D01*
X-40420949Y19344288D01*
X-39280000Y20200000D01*
X-39240404Y20244469D01*
X-39220000Y20320000D01*
X-39220000Y27940000D01*
X-39231818Y27998358D01*
X-39265409Y28047521D01*
X-39315481Y28079742D01*
X-39370000Y28090000D01*
X-88750000Y28090000D01*
X-88750000Y38247645D01*
X-88677637Y38175282D01*
X-88560707Y38292212D01*
X-88477569Y38026486D01*
X-87898911Y37804403D01*
X-87279314Y37820669D01*
X-86782431Y38026486D01*
X-86699292Y38292214D01*
X-87630000Y39222922D01*
X-87644142Y39208779D01*
X-87791220Y39355857D01*
X-87777078Y39370000D01*
X-87791220Y39384142D01*
X-87644142Y39531220D01*
X-87630000Y39517078D01*
X-86699292Y40447786D01*
X-86780942Y40708755D01*
X-86401467Y41087569D01*
X-86360172Y41187018D01*
X-86319967Y41089714D01*
G36*
X-58244620Y45260381D02*
X-58033745Y45119478D01*
X-57992476Y45111269D01*
X-57785000Y45070000D01*
X-53382590Y45070000D01*
X-53519748Y44739688D01*
X-53520251Y44162843D01*
X-53299967Y43629714D01*
X-52892431Y43221467D01*
X-52792982Y43180172D01*
X-52890286Y43139967D01*
X-53298533Y42732431D01*
X-53519748Y42199688D01*
X-53520251Y41622843D01*
X-53299967Y41089714D01*
X-52892431Y40681467D01*
X-52792982Y40640172D01*
X-52890286Y40599967D01*
X-53298533Y40192431D01*
X-53519748Y39659688D01*
X-53520088Y39270038D01*
X-53910000Y39659950D01*
X-53910000Y43171446D01*
X-53805098Y43276165D01*
X-53660165Y43625204D01*
X-53659835Y44003138D01*
X-53804159Y44352429D01*
X-54071165Y44619902D01*
X-54420204Y44764835D01*
X-54798138Y44765165D01*
X-55147429Y44620841D01*
X-55414902Y44353835D01*
X-55559835Y44004796D01*
X-55560165Y43626862D01*
X-55415841Y43277571D01*
X-55310000Y43171545D01*
X-55310000Y39370000D01*
X-55256716Y39102121D01*
X-55104975Y38875025D01*
X-53759949Y37530000D01*
X-68290050Y37530000D01*
X-71055000Y40294950D01*
X-71055000Y46354995D01*
X-71054999Y46355000D01*
X-71108284Y46622879D01*
X-71200841Y46761400D01*
X-71260025Y46849975D01*
X-71260028Y46849977D01*
X-71895025Y47484975D01*
X-72122121Y47636716D01*
X-72349225Y47681889D01*
X-72349225Y47690000D01*
X-72387576Y47893818D01*
X-72508032Y48081012D01*
X-72691827Y48206594D01*
X-72910000Y48250775D01*
X-74410000Y48250775D01*
X-74613818Y48212424D01*
X-74801012Y48091968D01*
X-74926594Y47908173D01*
X-74970775Y47690000D01*
X-74970775Y47665000D01*
X-75531490Y47665000D01*
X-75661165Y47794902D01*
X-76010204Y47939835D01*
X-76388138Y47940165D01*
X-76737429Y47795841D01*
X-77004902Y47528835D01*
X-77149835Y47179796D01*
X-77150165Y46801862D01*
X-77005841Y46452571D01*
X-76738835Y46185098D01*
X-76389796Y46040165D01*
X-76011862Y46039835D01*
X-75662571Y46184159D01*
X-75531501Y46315000D01*
X-74970775Y46315000D01*
X-74970775Y46290000D01*
X-74932424Y46086182D01*
X-74919600Y46066253D01*
X-74967826Y46018027D01*
X-75068000Y45776184D01*
X-75068000Y45213800D01*
X-74903500Y45049300D01*
X-73764000Y45049300D01*
X-73764000Y45069300D01*
X-73556000Y45069300D01*
X-73556000Y45049300D01*
X-73536000Y45049300D01*
X-73536000Y44841300D01*
X-73556000Y44841300D01*
X-73556000Y43751800D01*
X-73391500Y43587300D01*
X-72779115Y43587300D01*
X-72537273Y43687475D01*
X-72455000Y43769748D01*
X-72455000Y40005000D01*
X-72401716Y39737121D01*
X-72249975Y39510025D01*
X-69074975Y36335025D01*
X-68847879Y36183284D01*
X-68580000Y36130000D01*
X-39370000Y36130000D01*
X-39102121Y36183284D01*
X-38875025Y36335025D01*
X-38695086Y36514964D01*
X-38546862Y36514835D01*
X-38197571Y36659159D01*
X-37930098Y36926165D01*
X-37817846Y37196500D01*
X-34663000Y37196500D01*
X-34663000Y35834116D01*
X-34562826Y35592273D01*
X-34377727Y35407175D01*
X-34135885Y35307000D01*
X-33923500Y35307000D01*
X-33759000Y35471500D01*
X-33759000Y37361000D01*
X-34498500Y37361000D01*
X-34663000Y37196500D01*
X-37817846Y37196500D01*
X-37785165Y37275204D01*
X-37785034Y37425016D01*
X-36114166Y39095884D01*
X-34663000Y39095884D01*
X-34663000Y37733500D01*
X-34498500Y37569000D01*
X-33759000Y37569000D01*
X-33759000Y39458500D01*
X-33923500Y39623000D01*
X-34135885Y39623000D01*
X-34377727Y39522825D01*
X-34562826Y39337727D01*
X-34663000Y39095884D01*
X-36114166Y39095884D01*
X-35270050Y39940000D01*
X-22925000Y39940000D01*
X-22925000Y39480346D01*
X-22926827Y39481594D01*
X-23145000Y39525775D01*
X-23845000Y39525775D01*
X-24048818Y39487424D01*
X-24129436Y39435548D01*
X-24196827Y39481594D01*
X-24415000Y39525775D01*
X-25115000Y39525775D01*
X-25318818Y39487424D01*
X-25399436Y39435548D01*
X-25466827Y39481594D01*
X-25685000Y39525775D01*
X-26385000Y39525775D01*
X-26588818Y39487424D01*
X-26669436Y39435548D01*
X-26736827Y39481594D01*
X-26955000Y39525775D01*
X-27655000Y39525775D01*
X-27858818Y39487424D01*
X-27939436Y39435548D01*
X-28006827Y39481594D01*
X-28225000Y39525775D01*
X-28925000Y39525775D01*
X-29128818Y39487424D01*
X-29209436Y39435548D01*
X-29276827Y39481594D01*
X-29495000Y39525775D01*
X-30195000Y39525775D01*
X-30398818Y39487424D01*
X-30479436Y39435548D01*
X-30546827Y39481594D01*
X-30765000Y39525775D01*
X-31465000Y39525775D01*
X-31668818Y39487424D01*
X-31749436Y39435548D01*
X-31816827Y39481594D01*
X-32035000Y39525775D01*
X-32735000Y39525775D01*
X-32903515Y39494067D01*
X-32932273Y39522825D01*
X-33174115Y39623000D01*
X-33386500Y39623000D01*
X-33551000Y39458500D01*
X-33551000Y37569000D01*
X-33531000Y37569000D01*
X-33531000Y37361000D01*
X-33551000Y37361000D01*
X-33551000Y35471500D01*
X-33386500Y35307000D01*
X-33174115Y35307000D01*
X-32999096Y35379496D01*
X-32985522Y35311255D01*
X-32844619Y35100381D01*
X-30939619Y33195380D01*
X-30939616Y33195378D01*
X-30495000Y32750761D01*
X-30495000Y24765000D01*
X-30464589Y24612115D01*
X-30445522Y24516255D01*
X-30304619Y24305381D01*
X-29225000Y23225761D01*
X-29225000Y21224239D01*
X-30114238Y20335000D01*
X-31115000Y20335000D01*
X-31363744Y20285522D01*
X-31574619Y20144620D01*
X-31735000Y19984239D01*
X-31735000Y27305000D01*
X-31784478Y27553744D01*
X-31876360Y27691255D01*
X-31925380Y27764619D01*
X-38910381Y34749619D01*
X-39121255Y34890522D01*
X-39162524Y34898731D01*
X-39370000Y34940000D01*
X-68310761Y34940000D01*
X-69390379Y36019617D01*
X-69390381Y36019620D01*
X-70660381Y37289619D01*
X-73645000Y40274238D01*
X-73645000Y41357833D01*
X-73574826Y41427885D01*
X-73445148Y41740183D01*
X-73444853Y42078334D01*
X-73573985Y42390857D01*
X-73812885Y42630174D01*
X-74125183Y42759852D01*
X-74463334Y42760147D01*
X-74775857Y42631015D01*
X-75015174Y42392115D01*
X-75144852Y42079817D01*
X-75145147Y41741666D01*
X-75016015Y41429143D01*
X-74945000Y41358004D01*
X-74945000Y40939238D01*
X-78090000Y44084238D01*
X-78090000Y44676800D01*
X-75068000Y44676800D01*
X-75068000Y44114416D01*
X-74967826Y43872573D01*
X-74782727Y43687475D01*
X-74540885Y43587300D01*
X-73928500Y43587300D01*
X-73764000Y43751800D01*
X-73764000Y44841300D01*
X-74903500Y44841300D01*
X-75068000Y44676800D01*
X-78090000Y44676800D01*
X-78090000Y48895000D01*
X-78139478Y49143744D01*
X-78139478Y49143745D01*
X-78280381Y49354619D01*
X-81099909Y52174147D01*
X-81099749Y52357157D01*
X-81237277Y52690000D01*
X-65674238Y52690000D01*
X-58244620Y45260381D01*
X-58244620Y45260381D01*
G37*
X-58244620Y45260381D02*
X-58033745Y45119478D01*
X-57992476Y45111269D01*
X-57785000Y45070000D01*
X-53382590Y45070000D01*
X-53519748Y44739688D01*
X-53520251Y44162843D01*
X-53299967Y43629714D01*
X-52892431Y43221467D01*
X-52792982Y43180172D01*
X-52890286Y43139967D01*
X-53298533Y42732431D01*
X-53519748Y42199688D01*
X-53520251Y41622843D01*
X-53299967Y41089714D01*
X-52892431Y40681467D01*
X-52792982Y40640172D01*
X-52890286Y40599967D01*
X-53298533Y40192431D01*
X-53519748Y39659688D01*
X-53520088Y39270038D01*
X-53910000Y39659950D01*
X-53910000Y43171446D01*
X-53805098Y43276165D01*
X-53660165Y43625204D01*
X-53659835Y44003138D01*
X-53804159Y44352429D01*
X-54071165Y44619902D01*
X-54420204Y44764835D01*
X-54798138Y44765165D01*
X-55147429Y44620841D01*
X-55414902Y44353835D01*
X-55559835Y44004796D01*
X-55560165Y43626862D01*
X-55415841Y43277571D01*
X-55310000Y43171545D01*
X-55310000Y39370000D01*
X-55256716Y39102121D01*
X-55104975Y38875025D01*
X-53759949Y37530000D01*
X-68290050Y37530000D01*
X-71055000Y40294950D01*
X-71055000Y46354995D01*
X-71054999Y46355000D01*
X-71108284Y46622879D01*
X-71200841Y46761400D01*
X-71260025Y46849975D01*
X-71260028Y46849977D01*
X-71895025Y47484975D01*
X-72122121Y47636716D01*
X-72349225Y47681889D01*
X-72349225Y47690000D01*
X-72387576Y47893818D01*
X-72508032Y48081012D01*
X-72691827Y48206594D01*
X-72910000Y48250775D01*
X-74410000Y48250775D01*
X-74613818Y48212424D01*
X-74801012Y48091968D01*
X-74926594Y47908173D01*
X-74970775Y47690000D01*
X-74970775Y47665000D01*
X-75531490Y47665000D01*
X-75661165Y47794902D01*
X-76010204Y47939835D01*
X-76388138Y47940165D01*
X-76737429Y47795841D01*
X-77004902Y47528835D01*
X-77149835Y47179796D01*
X-77150165Y46801862D01*
X-77005841Y46452571D01*
X-76738835Y46185098D01*
X-76389796Y46040165D01*
X-76011862Y46039835D01*
X-75662571Y46184159D01*
X-75531501Y46315000D01*
X-74970775Y46315000D01*
X-74970775Y46290000D01*
X-74932424Y46086182D01*
X-74919600Y46066253D01*
X-74967826Y46018027D01*
X-75068000Y45776184D01*
X-75068000Y45213800D01*
X-74903500Y45049300D01*
X-73764000Y45049300D01*
X-73764000Y45069300D01*
X-73556000Y45069300D01*
X-73556000Y45049300D01*
X-73536000Y45049300D01*
X-73536000Y44841300D01*
X-73556000Y44841300D01*
X-73556000Y43751800D01*
X-73391500Y43587300D01*
X-72779115Y43587300D01*
X-72537273Y43687475D01*
X-72455000Y43769748D01*
X-72455000Y40005000D01*
X-72401716Y39737121D01*
X-72249975Y39510025D01*
X-69074975Y36335025D01*
X-68847879Y36183284D01*
X-68580000Y36130000D01*
X-39370000Y36130000D01*
X-39102121Y36183284D01*
X-38875025Y36335025D01*
X-38695086Y36514964D01*
X-38546862Y36514835D01*
X-38197571Y36659159D01*
X-37930098Y36926165D01*
X-37817846Y37196500D01*
X-34663000Y37196500D01*
X-34663000Y35834116D01*
X-34562826Y35592273D01*
X-34377727Y35407175D01*
X-34135885Y35307000D01*
X-33923500Y35307000D01*
X-33759000Y35471500D01*
X-33759000Y37361000D01*
X-34498500Y37361000D01*
X-34663000Y37196500D01*
X-37817846Y37196500D01*
X-37785165Y37275204D01*
X-37785034Y37425016D01*
X-36114166Y39095884D01*
X-34663000Y39095884D01*
X-34663000Y37733500D01*
X-34498500Y37569000D01*
X-33759000Y37569000D01*
X-33759000Y39458500D01*
X-33923500Y39623000D01*
X-34135885Y39623000D01*
X-34377727Y39522825D01*
X-34562826Y39337727D01*
X-34663000Y39095884D01*
X-36114166Y39095884D01*
X-35270050Y39940000D01*
X-22925000Y39940000D01*
X-22925000Y39480346D01*
X-22926827Y39481594D01*
X-23145000Y39525775D01*
X-23845000Y39525775D01*
X-24048818Y39487424D01*
X-24129436Y39435548D01*
X-24196827Y39481594D01*
X-24415000Y39525775D01*
X-25115000Y39525775D01*
X-25318818Y39487424D01*
X-25399436Y39435548D01*
X-25466827Y39481594D01*
X-25685000Y39525775D01*
X-26385000Y39525775D01*
X-26588818Y39487424D01*
X-26669436Y39435548D01*
X-26736827Y39481594D01*
X-26955000Y39525775D01*
X-27655000Y39525775D01*
X-27858818Y39487424D01*
X-27939436Y39435548D01*
X-28006827Y39481594D01*
X-28225000Y39525775D01*
X-28925000Y39525775D01*
X-29128818Y39487424D01*
X-29209436Y39435548D01*
X-29276827Y39481594D01*
X-29495000Y39525775D01*
X-30195000Y39525775D01*
X-30398818Y39487424D01*
X-30479436Y39435548D01*
X-30546827Y39481594D01*
X-30765000Y39525775D01*
X-31465000Y39525775D01*
X-31668818Y39487424D01*
X-31749436Y39435548D01*
X-31816827Y39481594D01*
X-32035000Y39525775D01*
X-32735000Y39525775D01*
X-32903515Y39494067D01*
X-32932273Y39522825D01*
X-33174115Y39623000D01*
X-33386500Y39623000D01*
X-33551000Y39458500D01*
X-33551000Y37569000D01*
X-33531000Y37569000D01*
X-33531000Y37361000D01*
X-33551000Y37361000D01*
X-33551000Y35471500D01*
X-33386500Y35307000D01*
X-33174115Y35307000D01*
X-32999096Y35379496D01*
X-32985522Y35311255D01*
X-32844619Y35100381D01*
X-30939619Y33195380D01*
X-30939616Y33195378D01*
X-30495000Y32750761D01*
X-30495000Y24765000D01*
X-30464589Y24612115D01*
X-30445522Y24516255D01*
X-30304619Y24305381D01*
X-29225000Y23225761D01*
X-29225000Y21224239D01*
X-30114238Y20335000D01*
X-31115000Y20335000D01*
X-31363744Y20285522D01*
X-31574619Y20144620D01*
X-31735000Y19984239D01*
X-31735000Y27305000D01*
X-31784478Y27553744D01*
X-31876360Y27691255D01*
X-31925380Y27764619D01*
X-38910381Y34749619D01*
X-39121255Y34890522D01*
X-39162524Y34898731D01*
X-39370000Y34940000D01*
X-68310761Y34940000D01*
X-69390379Y36019617D01*
X-69390381Y36019620D01*
X-70660381Y37289619D01*
X-73645000Y40274238D01*
X-73645000Y41357833D01*
X-73574826Y41427885D01*
X-73445148Y41740183D01*
X-73444853Y42078334D01*
X-73573985Y42390857D01*
X-73812885Y42630174D01*
X-74125183Y42759852D01*
X-74463334Y42760147D01*
X-74775857Y42631015D01*
X-75015174Y42392115D01*
X-75144852Y42079817D01*
X-75145147Y41741666D01*
X-75016015Y41429143D01*
X-74945000Y41358004D01*
X-74945000Y40939238D01*
X-78090000Y44084238D01*
X-78090000Y44676800D01*
X-75068000Y44676800D01*
X-75068000Y44114416D01*
X-74967826Y43872573D01*
X-74782727Y43687475D01*
X-74540885Y43587300D01*
X-73928500Y43587300D01*
X-73764000Y43751800D01*
X-73764000Y44841300D01*
X-74903500Y44841300D01*
X-75068000Y44676800D01*
X-78090000Y44676800D01*
X-78090000Y48895000D01*
X-78139478Y49143744D01*
X-78139478Y49143745D01*
X-78280381Y49354619D01*
X-81099909Y52174147D01*
X-81099749Y52357157D01*
X-81237277Y52690000D01*
X-65674238Y52690000D01*
X-58244620Y45260381D01*
G36*
X-14869568Y42808988D02*
X-14685773Y42683406D01*
X-14467600Y42639225D01*
X-13167600Y42639225D01*
X-13083340Y42655080D01*
X-12442930Y42014670D01*
X-12199613Y41852090D01*
X-12103512Y41832975D01*
X-12067424Y41641182D01*
X-12054600Y41621253D01*
X-12102826Y41573027D01*
X-12203000Y41331184D01*
X-12203000Y40768800D01*
X-12038500Y40604300D01*
X-10899000Y40604300D01*
X-10899000Y40624300D01*
X-10691000Y40624300D01*
X-10691000Y40604300D01*
X-9551500Y40604300D01*
X-9387000Y40768800D01*
X-9387000Y40817406D01*
X-5120000Y36550406D01*
X-5120000Y24454238D01*
X-10970381Y30304619D01*
X-11181255Y30445522D01*
X-11222524Y30453731D01*
X-11430000Y30495000D01*
X-12782833Y30495000D01*
X-12852885Y30565174D01*
X-13165183Y30694852D01*
X-13503334Y30695147D01*
X-13815857Y30566015D01*
X-14055174Y30327115D01*
X-14184852Y30014817D01*
X-14184987Y29860000D01*
X-14335761Y29860000D01*
X-15024940Y30549178D01*
X-15024853Y30648334D01*
X-15153985Y30960857D01*
X-15392885Y31200174D01*
X-15705183Y31329852D01*
X-16043334Y31330147D01*
X-16355857Y31201015D01*
X-16595174Y30962115D01*
X-16724852Y30649817D01*
X-16725147Y30311666D01*
X-16596015Y29999143D01*
X-16357115Y29759826D01*
X-16044817Y29630148D01*
X-15944299Y29630060D01*
X-15064620Y28750381D01*
X-14853745Y28609478D01*
X-14812476Y28601269D01*
X-14605000Y28560000D01*
X-12915013Y28560000D01*
X-12915147Y28406666D01*
X-12786015Y28094143D01*
X-12547115Y27854826D01*
X-12234817Y27725148D01*
X-11896666Y27724853D01*
X-11615335Y27841097D01*
X-7000000Y23225762D01*
X-7000000Y22172048D01*
X-7137885Y22310174D01*
X-7450183Y22439852D01*
X-7788334Y22440147D01*
X-8100857Y22311015D01*
X-8171996Y22240000D01*
X-10525761Y22240000D01*
X-11570725Y23284963D01*
X-11781599Y23425866D01*
X-11822868Y23434075D01*
X-12030344Y23475344D01*
X-18180417Y23475344D01*
X-20601455Y25896381D01*
X-20474143Y25948985D01*
X-20234826Y26187885D01*
X-20105148Y26500183D01*
X-20104853Y26838334D01*
X-20233985Y27150857D01*
X-20472885Y27390174D01*
X-20785183Y27519852D01*
X-21123334Y27520147D01*
X-21404665Y27403903D01*
X-21575000Y27574238D01*
X-21575000Y29845000D01*
X-21624478Y30093744D01*
X-21624478Y30093745D01*
X-21765381Y30304620D01*
X-23035379Y31574617D01*
X-23035381Y31574620D01*
X-24115000Y32654238D01*
X-24115000Y34020762D01*
X-23035381Y35100380D01*
X-22894478Y35311255D01*
X-22885000Y35358905D01*
X-22871716Y35292121D01*
X-22719975Y35065025D01*
X-22547701Y34892751D01*
X-22681012Y34806968D01*
X-22806594Y34623173D01*
X-22850775Y34405000D01*
X-22850775Y32905000D01*
X-22812424Y32701182D01*
X-22691968Y32513988D01*
X-22508173Y32388406D01*
X-22290000Y32344225D01*
X-20890000Y32344225D01*
X-20686182Y32382576D01*
X-20666253Y32395400D01*
X-20618027Y32347174D01*
X-20376184Y32247000D01*
X-19813800Y32247000D01*
X-19649300Y32411500D01*
X-19649300Y33551000D01*
X-19441300Y33551000D01*
X-19441300Y32411500D01*
X-19276800Y32247000D01*
X-18714416Y32247000D01*
X-18472573Y32347174D01*
X-18287475Y32532273D01*
X-18187300Y32774115D01*
X-18187300Y33386500D01*
X-18351800Y33551000D01*
X-19441300Y33551000D01*
X-19649300Y33551000D01*
X-19669300Y33551000D01*
X-19669300Y33759000D01*
X-19649300Y33759000D01*
X-19649300Y34898500D01*
X-19441300Y34898500D01*
X-19441300Y33759000D01*
X-18351800Y33759000D01*
X-18187300Y33923500D01*
X-18187300Y34535885D01*
X-18287475Y34777727D01*
X-18472573Y34962826D01*
X-18714416Y35063000D01*
X-19276800Y35063000D01*
X-19441300Y34898500D01*
X-19649300Y34898500D01*
X-19813800Y35063000D01*
X-20376184Y35063000D01*
X-20618027Y34962826D01*
X-20664360Y34916492D01*
X-20671827Y34921594D01*
X-20890000Y34965775D01*
X-20898110Y34965775D01*
X-20943284Y35192879D01*
X-21071402Y35384620D01*
X-21095025Y35419975D01*
X-21095028Y35419977D01*
X-21384170Y35709120D01*
X-21358406Y35746827D01*
X-21314225Y35965000D01*
X-21314225Y37385825D01*
X-19645086Y39054964D01*
X-19496862Y39054835D01*
X-19147571Y39199159D01*
X-18880098Y39466165D01*
X-18802103Y39654000D01*
X-18602075Y39654000D01*
X-18602075Y37054000D01*
X-18563724Y36850182D01*
X-18443268Y36662988D01*
X-18259473Y36537406D01*
X-18041300Y36493225D01*
X-14191300Y36493225D01*
X-13987482Y36531576D01*
X-13800288Y36652032D01*
X-13674706Y36835827D01*
X-13630525Y37054000D01*
X-13630525Y39654000D01*
X-13668876Y39857818D01*
X-13789332Y40045012D01*
X-13973127Y40170594D01*
X-14191300Y40214775D01*
X-18041300Y40214775D01*
X-18245118Y40176424D01*
X-18432312Y40055968D01*
X-18557894Y39872173D01*
X-18602075Y39654000D01*
X-18802103Y39654000D01*
X-18735165Y39815204D01*
X-18735034Y39965016D01*
X-18468250Y40231800D01*
X-12203000Y40231800D01*
X-12203000Y39669416D01*
X-12102826Y39427573D01*
X-11917727Y39242475D01*
X-11675885Y39142300D01*
X-11063500Y39142300D01*
X-10899000Y39306800D01*
X-10899000Y40396300D01*
X-10691000Y40396300D01*
X-10691000Y39306800D01*
X-10526500Y39142300D01*
X-9914115Y39142300D01*
X-9672273Y39242475D01*
X-9487174Y39427573D01*
X-9387000Y39669416D01*
X-9387000Y40231800D01*
X-9551500Y40396300D01*
X-10691000Y40396300D01*
X-10899000Y40396300D01*
X-12038500Y40396300D01*
X-12203000Y40231800D01*
X-18468250Y40231800D01*
X-16060825Y42639225D01*
X-15466300Y42639225D01*
X-15262482Y42677576D01*
X-15075288Y42798032D01*
X-14965712Y42958401D01*
X-14869568Y42808988D01*
X-14869568Y42808988D01*
G37*
X-14869568Y42808988D02*
X-14685773Y42683406D01*
X-14467600Y42639225D01*
X-13167600Y42639225D01*
X-13083340Y42655080D01*
X-12442930Y42014670D01*
X-12199613Y41852090D01*
X-12103512Y41832975D01*
X-12067424Y41641182D01*
X-12054600Y41621253D01*
X-12102826Y41573027D01*
X-12203000Y41331184D01*
X-12203000Y40768800D01*
X-12038500Y40604300D01*
X-10899000Y40604300D01*
X-10899000Y40624300D01*
X-10691000Y40624300D01*
X-10691000Y40604300D01*
X-9551500Y40604300D01*
X-9387000Y40768800D01*
X-9387000Y40817406D01*
X-5120000Y36550406D01*
X-5120000Y24454238D01*
X-10970381Y30304619D01*
X-11181255Y30445522D01*
X-11222524Y30453731D01*
X-11430000Y30495000D01*
X-12782833Y30495000D01*
X-12852885Y30565174D01*
X-13165183Y30694852D01*
X-13503334Y30695147D01*
X-13815857Y30566015D01*
X-14055174Y30327115D01*
X-14184852Y30014817D01*
X-14184987Y29860000D01*
X-14335761Y29860000D01*
X-15024940Y30549178D01*
X-15024853Y30648334D01*
X-15153985Y30960857D01*
X-15392885Y31200174D01*
X-15705183Y31329852D01*
X-16043334Y31330147D01*
X-16355857Y31201015D01*
X-16595174Y30962115D01*
X-16724852Y30649817D01*
X-16725147Y30311666D01*
X-16596015Y29999143D01*
X-16357115Y29759826D01*
X-16044817Y29630148D01*
X-15944299Y29630060D01*
X-15064620Y28750381D01*
X-14853745Y28609478D01*
X-14812476Y28601269D01*
X-14605000Y28560000D01*
X-12915013Y28560000D01*
X-12915147Y28406666D01*
X-12786015Y28094143D01*
X-12547115Y27854826D01*
X-12234817Y27725148D01*
X-11896666Y27724853D01*
X-11615335Y27841097D01*
X-7000000Y23225762D01*
X-7000000Y22172048D01*
X-7137885Y22310174D01*
X-7450183Y22439852D01*
X-7788334Y22440147D01*
X-8100857Y22311015D01*
X-8171996Y22240000D01*
X-10525761Y22240000D01*
X-11570725Y23284963D01*
X-11781599Y23425866D01*
X-11822868Y23434075D01*
X-12030344Y23475344D01*
X-18180417Y23475344D01*
X-20601455Y25896381D01*
X-20474143Y25948985D01*
X-20234826Y26187885D01*
X-20105148Y26500183D01*
X-20104853Y26838334D01*
X-20233985Y27150857D01*
X-20472885Y27390174D01*
X-20785183Y27519852D01*
X-21123334Y27520147D01*
X-21404665Y27403903D01*
X-21575000Y27574238D01*
X-21575000Y29845000D01*
X-21624478Y30093744D01*
X-21624478Y30093745D01*
X-21765381Y30304620D01*
X-23035379Y31574617D01*
X-23035381Y31574620D01*
X-24115000Y32654238D01*
X-24115000Y34020762D01*
X-23035381Y35100380D01*
X-22894478Y35311255D01*
X-22885000Y35358905D01*
X-22871716Y35292121D01*
X-22719975Y35065025D01*
X-22547701Y34892751D01*
X-22681012Y34806968D01*
X-22806594Y34623173D01*
X-22850775Y34405000D01*
X-22850775Y32905000D01*
X-22812424Y32701182D01*
X-22691968Y32513988D01*
X-22508173Y32388406D01*
X-22290000Y32344225D01*
X-20890000Y32344225D01*
X-20686182Y32382576D01*
X-20666253Y32395400D01*
X-20618027Y32347174D01*
X-20376184Y32247000D01*
X-19813800Y32247000D01*
X-19649300Y32411500D01*
X-19649300Y33551000D01*
X-19441300Y33551000D01*
X-19441300Y32411500D01*
X-19276800Y32247000D01*
X-18714416Y32247000D01*
X-18472573Y32347174D01*
X-18287475Y32532273D01*
X-18187300Y32774115D01*
X-18187300Y33386500D01*
X-18351800Y33551000D01*
X-19441300Y33551000D01*
X-19649300Y33551000D01*
X-19669300Y33551000D01*
X-19669300Y33759000D01*
X-19649300Y33759000D01*
X-19649300Y34898500D01*
X-19441300Y34898500D01*
X-19441300Y33759000D01*
X-18351800Y33759000D01*
X-18187300Y33923500D01*
X-18187300Y34535885D01*
X-18287475Y34777727D01*
X-18472573Y34962826D01*
X-18714416Y35063000D01*
X-19276800Y35063000D01*
X-19441300Y34898500D01*
X-19649300Y34898500D01*
X-19813800Y35063000D01*
X-20376184Y35063000D01*
X-20618027Y34962826D01*
X-20664360Y34916492D01*
X-20671827Y34921594D01*
X-20890000Y34965775D01*
X-20898110Y34965775D01*
X-20943284Y35192879D01*
X-21071402Y35384620D01*
X-21095025Y35419975D01*
X-21095028Y35419977D01*
X-21384170Y35709120D01*
X-21358406Y35746827D01*
X-21314225Y35965000D01*
X-21314225Y37385825D01*
X-19645086Y39054964D01*
X-19496862Y39054835D01*
X-19147571Y39199159D01*
X-18880098Y39466165D01*
X-18802103Y39654000D01*
X-18602075Y39654000D01*
X-18602075Y37054000D01*
X-18563724Y36850182D01*
X-18443268Y36662988D01*
X-18259473Y36537406D01*
X-18041300Y36493225D01*
X-14191300Y36493225D01*
X-13987482Y36531576D01*
X-13800288Y36652032D01*
X-13674706Y36835827D01*
X-13630525Y37054000D01*
X-13630525Y39654000D01*
X-13668876Y39857818D01*
X-13789332Y40045012D01*
X-13973127Y40170594D01*
X-14191300Y40214775D01*
X-18041300Y40214775D01*
X-18245118Y40176424D01*
X-18432312Y40055968D01*
X-18557894Y39872173D01*
X-18602075Y39654000D01*
X-18802103Y39654000D01*
X-18735165Y39815204D01*
X-18735034Y39965016D01*
X-18468250Y40231800D01*
X-12203000Y40231800D01*
X-12203000Y39669416D01*
X-12102826Y39427573D01*
X-11917727Y39242475D01*
X-11675885Y39142300D01*
X-11063500Y39142300D01*
X-10899000Y39306800D01*
X-10899000Y40396300D01*
X-10691000Y40396300D01*
X-10691000Y39306800D01*
X-10526500Y39142300D01*
X-9914115Y39142300D01*
X-9672273Y39242475D01*
X-9487174Y39427573D01*
X-9387000Y39669416D01*
X-9387000Y40231800D01*
X-9551500Y40396300D01*
X-10691000Y40396300D01*
X-10899000Y40396300D01*
X-12038500Y40396300D01*
X-12203000Y40231800D01*
X-18468250Y40231800D01*
X-16060825Y42639225D01*
X-15466300Y42639225D01*
X-15262482Y42677576D01*
X-15075288Y42798032D01*
X-14965712Y42958401D01*
X-14869568Y42808988D01*
G36*
X-3960000Y37295769D02*
X-3967703Y37307297D01*
X-9484225Y42823819D01*
X-9484225Y43245000D01*
X-9522576Y43448818D01*
X-9643032Y43636012D01*
X-9826827Y43761594D01*
X-10045000Y43805775D01*
X-11545000Y43805775D01*
X-11748818Y43767424D01*
X-11936012Y43646968D01*
X-11943276Y43636336D01*
X-12606825Y44299885D01*
X-12606825Y45700000D01*
X-12645176Y45903818D01*
X-12765632Y46091012D01*
X-12949427Y46216594D01*
X-13167600Y46260775D01*
X-14467600Y46260775D01*
X-14671418Y46222424D01*
X-14858612Y46101968D01*
X-14968188Y45941599D01*
X-15064332Y46091012D01*
X-15248127Y46216594D01*
X-15366300Y46240525D01*
X-15366300Y46550143D01*
X-15293406Y46656827D01*
X-15249225Y46875000D01*
X-15249225Y48375000D01*
X-15287576Y48578818D01*
X-15408032Y48766012D01*
X-15591827Y48891594D01*
X-15810000Y48935775D01*
X-17210000Y48935775D01*
X-17413818Y48897424D01*
X-17433747Y48884600D01*
X-17481973Y48932826D01*
X-17723816Y49033000D01*
X-18286200Y49033000D01*
X-18450700Y48868500D01*
X-18450700Y47729000D01*
X-18430700Y47729000D01*
X-18430700Y47521000D01*
X-18450700Y47521000D01*
X-18450700Y47501000D01*
X-18658700Y47501000D01*
X-18658700Y47521000D01*
X-19748200Y47521000D01*
X-19912700Y47356500D01*
X-19912700Y46744115D01*
X-19812525Y46502273D01*
X-19627427Y46317174D01*
X-19451323Y46244230D01*
X-19622825Y46072727D01*
X-19723000Y45830885D01*
X-19723000Y44718500D01*
X-19558500Y44554000D01*
X-18519000Y44554000D01*
X-18519000Y44574000D01*
X-18311000Y44574000D01*
X-18311000Y44554000D01*
X-18291000Y44554000D01*
X-18291000Y44346000D01*
X-18311000Y44346000D01*
X-18311000Y42706500D01*
X-18146500Y42542000D01*
X-18137950Y42542000D01*
X-19724914Y40955036D01*
X-19873138Y40955165D01*
X-20222429Y40810841D01*
X-20489902Y40543835D01*
X-20634835Y40194796D01*
X-20634966Y40044983D01*
X-21414656Y39265293D01*
X-21473032Y39356012D01*
X-21525000Y39391520D01*
X-21525000Y44181500D01*
X-19723000Y44181500D01*
X-19723000Y43069115D01*
X-19622825Y42827273D01*
X-19437727Y42642174D01*
X-19195884Y42542000D01*
X-18683500Y42542000D01*
X-18519000Y42706500D01*
X-18519000Y44346000D01*
X-19558500Y44346000D01*
X-19723000Y44181500D01*
X-21525000Y44181500D01*
X-21525000Y44833042D01*
X-21483988Y44859432D01*
X-21358406Y45043227D01*
X-21314225Y45261400D01*
X-21314225Y48261400D01*
X-21352576Y48465218D01*
X-21378744Y48505885D01*
X-19912700Y48505885D01*
X-19912700Y47893500D01*
X-19748200Y47729000D01*
X-18658700Y47729000D01*
X-18658700Y48868500D01*
X-18823200Y49033000D01*
X-19385584Y49033000D01*
X-19627427Y48932826D01*
X-19812525Y48747727D01*
X-19912700Y48505885D01*
X-21378744Y48505885D01*
X-21473032Y48652412D01*
X-21656827Y48777994D01*
X-21875000Y48822175D01*
X-22575000Y48822175D01*
X-22743515Y48790467D01*
X-22772273Y48819225D01*
X-23014115Y48919400D01*
X-23226500Y48919400D01*
X-23391000Y48754900D01*
X-23391000Y46865400D01*
X-23371000Y46865400D01*
X-23371000Y46657400D01*
X-23391000Y46657400D01*
X-23391000Y44767900D01*
X-23226500Y44603400D01*
X-23014115Y44603400D01*
X-22925000Y44640313D01*
X-22925000Y41340000D01*
X-35560000Y41340000D01*
X-35827879Y41286716D01*
X-36054975Y41134975D01*
X-38774914Y38415036D01*
X-38923138Y38415165D01*
X-39272429Y38270841D01*
X-39539902Y38003835D01*
X-39684835Y37654796D01*
X-39684944Y37530000D01*
X-45370762Y37530000D01*
X-44625381Y38275380D01*
X-44484478Y38486255D01*
X-44472282Y38547569D01*
X-44435000Y38735000D01*
X-44435000Y40370762D01*
X-43990380Y40815381D01*
X-43990378Y40815384D01*
X-43355380Y41450381D01*
X-43355378Y41450384D01*
X-42720380Y42085381D01*
X-42579478Y42296256D01*
X-42530000Y42545000D01*
X-42530000Y47355762D01*
X-41640761Y48245000D01*
X-34565775Y48245000D01*
X-34565775Y45261400D01*
X-34527424Y45057582D01*
X-34406968Y44870388D01*
X-34223173Y44744806D01*
X-34005000Y44700625D01*
X-33305000Y44700625D01*
X-33101182Y44738976D01*
X-33020564Y44790852D01*
X-32953173Y44744806D01*
X-32735000Y44700625D01*
X-32035000Y44700625D01*
X-31831182Y44738976D01*
X-31750564Y44790852D01*
X-31683173Y44744806D01*
X-31465000Y44700625D01*
X-30765000Y44700625D01*
X-30561182Y44738976D01*
X-30480564Y44790852D01*
X-30413173Y44744806D01*
X-30195000Y44700625D01*
X-29495000Y44700625D01*
X-29291182Y44738976D01*
X-29210564Y44790852D01*
X-29143173Y44744806D01*
X-28925000Y44700625D01*
X-28225000Y44700625D01*
X-28021182Y44738976D01*
X-27940564Y44790852D01*
X-27873173Y44744806D01*
X-27655000Y44700625D01*
X-26955000Y44700625D01*
X-26751182Y44738976D01*
X-26670564Y44790852D01*
X-26603173Y44744806D01*
X-26385000Y44700625D01*
X-25685000Y44700625D01*
X-25481182Y44738976D01*
X-25400564Y44790852D01*
X-25333173Y44744806D01*
X-25115000Y44700625D01*
X-24415000Y44700625D01*
X-24246485Y44732333D01*
X-24217727Y44703575D01*
X-23975885Y44603400D01*
X-23763500Y44603400D01*
X-23599000Y44767900D01*
X-23599000Y46657400D01*
X-23619000Y46657400D01*
X-23619000Y46865400D01*
X-23599000Y46865400D01*
X-23599000Y48754900D01*
X-23763500Y48919400D01*
X-23975885Y48919400D01*
X-24217727Y48819225D01*
X-24248495Y48788457D01*
X-24406144Y48820382D01*
X-29385381Y53799619D01*
X-29596255Y53940522D01*
X-29637524Y53948731D01*
X-29845000Y53990000D01*
X-44180761Y53990000D01*
X-44435000Y54244238D01*
X-44435000Y55245000D01*
X-44484478Y55493744D01*
X-44625380Y55704619D01*
X-45260381Y56339619D01*
X-45471255Y56480522D01*
X-45512524Y56488731D01*
X-45680659Y56522175D01*
X-45540252Y56860312D01*
X-45539749Y57437157D01*
X-45760033Y57970286D01*
X-46059225Y58270000D01*
X-3960000Y58270000D01*
X-3960000Y37295769D01*
X-3960000Y37295769D01*
G37*
X-3960000Y37295769D02*
X-3967703Y37307297D01*
X-9484225Y42823819D01*
X-9484225Y43245000D01*
X-9522576Y43448818D01*
X-9643032Y43636012D01*
X-9826827Y43761594D01*
X-10045000Y43805775D01*
X-11545000Y43805775D01*
X-11748818Y43767424D01*
X-11936012Y43646968D01*
X-11943276Y43636336D01*
X-12606825Y44299885D01*
X-12606825Y45700000D01*
X-12645176Y45903818D01*
X-12765632Y46091012D01*
X-12949427Y46216594D01*
X-13167600Y46260775D01*
X-14467600Y46260775D01*
X-14671418Y46222424D01*
X-14858612Y46101968D01*
X-14968188Y45941599D01*
X-15064332Y46091012D01*
X-15248127Y46216594D01*
X-15366300Y46240525D01*
X-15366300Y46550143D01*
X-15293406Y46656827D01*
X-15249225Y46875000D01*
X-15249225Y48375000D01*
X-15287576Y48578818D01*
X-15408032Y48766012D01*
X-15591827Y48891594D01*
X-15810000Y48935775D01*
X-17210000Y48935775D01*
X-17413818Y48897424D01*
X-17433747Y48884600D01*
X-17481973Y48932826D01*
X-17723816Y49033000D01*
X-18286200Y49033000D01*
X-18450700Y48868500D01*
X-18450700Y47729000D01*
X-18430700Y47729000D01*
X-18430700Y47521000D01*
X-18450700Y47521000D01*
X-18450700Y47501000D01*
X-18658700Y47501000D01*
X-18658700Y47521000D01*
X-19748200Y47521000D01*
X-19912700Y47356500D01*
X-19912700Y46744115D01*
X-19812525Y46502273D01*
X-19627427Y46317174D01*
X-19451323Y46244230D01*
X-19622825Y46072727D01*
X-19723000Y45830885D01*
X-19723000Y44718500D01*
X-19558500Y44554000D01*
X-18519000Y44554000D01*
X-18519000Y44574000D01*
X-18311000Y44574000D01*
X-18311000Y44554000D01*
X-18291000Y44554000D01*
X-18291000Y44346000D01*
X-18311000Y44346000D01*
X-18311000Y42706500D01*
X-18146500Y42542000D01*
X-18137950Y42542000D01*
X-19724914Y40955036D01*
X-19873138Y40955165D01*
X-20222429Y40810841D01*
X-20489902Y40543835D01*
X-20634835Y40194796D01*
X-20634966Y40044983D01*
X-21414656Y39265293D01*
X-21473032Y39356012D01*
X-21525000Y39391520D01*
X-21525000Y44181500D01*
X-19723000Y44181500D01*
X-19723000Y43069115D01*
X-19622825Y42827273D01*
X-19437727Y42642174D01*
X-19195884Y42542000D01*
X-18683500Y42542000D01*
X-18519000Y42706500D01*
X-18519000Y44346000D01*
X-19558500Y44346000D01*
X-19723000Y44181500D01*
X-21525000Y44181500D01*
X-21525000Y44833042D01*
X-21483988Y44859432D01*
X-21358406Y45043227D01*
X-21314225Y45261400D01*
X-21314225Y48261400D01*
X-21352576Y48465218D01*
X-21378744Y48505885D01*
X-19912700Y48505885D01*
X-19912700Y47893500D01*
X-19748200Y47729000D01*
X-18658700Y47729000D01*
X-18658700Y48868500D01*
X-18823200Y49033000D01*
X-19385584Y49033000D01*
X-19627427Y48932826D01*
X-19812525Y48747727D01*
X-19912700Y48505885D01*
X-21378744Y48505885D01*
X-21473032Y48652412D01*
X-21656827Y48777994D01*
X-21875000Y48822175D01*
X-22575000Y48822175D01*
X-22743515Y48790467D01*
X-22772273Y48819225D01*
X-23014115Y48919400D01*
X-23226500Y48919400D01*
X-23391000Y48754900D01*
X-23391000Y46865400D01*
X-23371000Y46865400D01*
X-23371000Y46657400D01*
X-23391000Y46657400D01*
X-23391000Y44767900D01*
X-23226500Y44603400D01*
X-23014115Y44603400D01*
X-22925000Y44640313D01*
X-22925000Y41340000D01*
X-35560000Y41340000D01*
X-35827879Y41286716D01*
X-36054975Y41134975D01*
X-38774914Y38415036D01*
X-38923138Y38415165D01*
X-39272429Y38270841D01*
X-39539902Y38003835D01*
X-39684835Y37654796D01*
X-39684944Y37530000D01*
X-45370762Y37530000D01*
X-44625381Y38275380D01*
X-44484478Y38486255D01*
X-44472282Y38547569D01*
X-44435000Y38735000D01*
X-44435000Y40370762D01*
X-43990380Y40815381D01*
X-43990378Y40815384D01*
X-43355380Y41450381D01*
X-43355378Y41450384D01*
X-42720380Y42085381D01*
X-42579478Y42296256D01*
X-42530000Y42545000D01*
X-42530000Y47355762D01*
X-41640761Y48245000D01*
X-34565775Y48245000D01*
X-34565775Y45261400D01*
X-34527424Y45057582D01*
X-34406968Y44870388D01*
X-34223173Y44744806D01*
X-34005000Y44700625D01*
X-33305000Y44700625D01*
X-33101182Y44738976D01*
X-33020564Y44790852D01*
X-32953173Y44744806D01*
X-32735000Y44700625D01*
X-32035000Y44700625D01*
X-31831182Y44738976D01*
X-31750564Y44790852D01*
X-31683173Y44744806D01*
X-31465000Y44700625D01*
X-30765000Y44700625D01*
X-30561182Y44738976D01*
X-30480564Y44790852D01*
X-30413173Y44744806D01*
X-30195000Y44700625D01*
X-29495000Y44700625D01*
X-29291182Y44738976D01*
X-29210564Y44790852D01*
X-29143173Y44744806D01*
X-28925000Y44700625D01*
X-28225000Y44700625D01*
X-28021182Y44738976D01*
X-27940564Y44790852D01*
X-27873173Y44744806D01*
X-27655000Y44700625D01*
X-26955000Y44700625D01*
X-26751182Y44738976D01*
X-26670564Y44790852D01*
X-26603173Y44744806D01*
X-26385000Y44700625D01*
X-25685000Y44700625D01*
X-25481182Y44738976D01*
X-25400564Y44790852D01*
X-25333173Y44744806D01*
X-25115000Y44700625D01*
X-24415000Y44700625D01*
X-24246485Y44732333D01*
X-24217727Y44703575D01*
X-23975885Y44603400D01*
X-23763500Y44603400D01*
X-23599000Y44767900D01*
X-23599000Y46657400D01*
X-23619000Y46657400D01*
X-23619000Y46865400D01*
X-23599000Y46865400D01*
X-23599000Y48754900D01*
X-23763500Y48919400D01*
X-23975885Y48919400D01*
X-24217727Y48819225D01*
X-24248495Y48788457D01*
X-24406144Y48820382D01*
X-29385381Y53799619D01*
X-29596255Y53940522D01*
X-29637524Y53948731D01*
X-29845000Y53990000D01*
X-44180761Y53990000D01*
X-44435000Y54244238D01*
X-44435000Y55245000D01*
X-44484478Y55493744D01*
X-44625380Y55704619D01*
X-45260381Y56339619D01*
X-45471255Y56480522D01*
X-45512524Y56488731D01*
X-45680659Y56522175D01*
X-45540252Y56860312D01*
X-45539749Y57437157D01*
X-45760033Y57970286D01*
X-46059225Y58270000D01*
X-3960000Y58270000D01*
X-3960000Y37295769D01*
G36*
X-53298533Y57972431D02*
X-53519748Y57439688D01*
X-53520251Y56862843D01*
X-53299967Y56329714D01*
X-52892431Y55921467D01*
X-52792982Y55880172D01*
X-52890286Y55839967D01*
X-53298533Y55432431D01*
X-53519748Y54899688D01*
X-53520251Y54322843D01*
X-53299967Y53789714D01*
X-52892431Y53381467D01*
X-52792982Y53340172D01*
X-52890286Y53299967D01*
X-53298533Y52892431D01*
X-53519748Y52359688D01*
X-53520251Y51782843D01*
X-53299967Y51249714D01*
X-52892431Y50841467D01*
X-52792982Y50800172D01*
X-52890286Y50759967D01*
X-53298533Y50352431D01*
X-53519748Y49819688D01*
X-53520251Y49242843D01*
X-53379479Y48902147D01*
X-53588744Y48860522D01*
X-53777983Y48734077D01*
X-53804159Y48797429D01*
X-54071165Y49064902D01*
X-54420204Y49209835D01*
X-54798138Y49210165D01*
X-55147429Y49065841D01*
X-55204225Y49009144D01*
X-55204225Y49455300D01*
X-55242576Y49659118D01*
X-55319207Y49778206D01*
X-55248406Y49881827D01*
X-55212544Y50058919D01*
X-55148835Y49995098D01*
X-54799796Y49850165D01*
X-54421862Y49849835D01*
X-54072571Y49994159D01*
X-53805098Y50261165D01*
X-53660165Y50610204D01*
X-53659835Y50988138D01*
X-53804159Y51337429D01*
X-54071165Y51604902D01*
X-54420204Y51749835D01*
X-54798138Y51750165D01*
X-55147429Y51605841D01*
X-55212010Y51541373D01*
X-55242576Y51703818D01*
X-55363032Y51891012D01*
X-55546827Y52016594D01*
X-55765000Y52060775D01*
X-57265000Y52060775D01*
X-57468818Y52022424D01*
X-57656012Y51901968D01*
X-57781594Y51718173D01*
X-57825775Y51500000D01*
X-57825775Y50100000D01*
X-57787424Y49896182D01*
X-57710793Y49777094D01*
X-57781594Y49673473D01*
X-57825775Y49455300D01*
X-57825775Y48055300D01*
X-57787424Y47851482D01*
X-57666968Y47664288D01*
X-57483173Y47538706D01*
X-57265000Y47494525D01*
X-55765000Y47494525D01*
X-55561182Y47532876D01*
X-55480179Y47585000D01*
X-55278510Y47585000D01*
X-55148835Y47455098D01*
X-55088990Y47430248D01*
X-55514238Y47005000D01*
X-57515761Y47005000D01*
X-64945381Y54434619D01*
X-65156255Y54575522D01*
X-65197524Y54583731D01*
X-65405000Y54625000D01*
X-79105761Y54625000D01*
X-80820381Y56339619D01*
X-81031255Y56480522D01*
X-81072524Y56488731D01*
X-81130556Y56500274D01*
X-80984403Y56881089D01*
X-81000669Y57500686D01*
X-81206486Y57997569D01*
X-81472212Y58080707D01*
X-81355282Y58197637D01*
X-81427645Y58270000D01*
X-53000445Y58270000D01*
X-53298533Y57972431D01*
X-53298533Y57972431D01*
G37*
X-53298533Y57972431D02*
X-53519748Y57439688D01*
X-53520251Y56862843D01*
X-53299967Y56329714D01*
X-52892431Y55921467D01*
X-52792982Y55880172D01*
X-52890286Y55839967D01*
X-53298533Y55432431D01*
X-53519748Y54899688D01*
X-53520251Y54322843D01*
X-53299967Y53789714D01*
X-52892431Y53381467D01*
X-52792982Y53340172D01*
X-52890286Y53299967D01*
X-53298533Y52892431D01*
X-53519748Y52359688D01*
X-53520251Y51782843D01*
X-53299967Y51249714D01*
X-52892431Y50841467D01*
X-52792982Y50800172D01*
X-52890286Y50759967D01*
X-53298533Y50352431D01*
X-53519748Y49819688D01*
X-53520251Y49242843D01*
X-53379479Y48902147D01*
X-53588744Y48860522D01*
X-53777983Y48734077D01*
X-53804159Y48797429D01*
X-54071165Y49064902D01*
X-54420204Y49209835D01*
X-54798138Y49210165D01*
X-55147429Y49065841D01*
X-55204225Y49009144D01*
X-55204225Y49455300D01*
X-55242576Y49659118D01*
X-55319207Y49778206D01*
X-55248406Y49881827D01*
X-55212544Y50058919D01*
X-55148835Y49995098D01*
X-54799796Y49850165D01*
X-54421862Y49849835D01*
X-54072571Y49994159D01*
X-53805098Y50261165D01*
X-53660165Y50610204D01*
X-53659835Y50988138D01*
X-53804159Y51337429D01*
X-54071165Y51604902D01*
X-54420204Y51749835D01*
X-54798138Y51750165D01*
X-55147429Y51605841D01*
X-55212010Y51541373D01*
X-55242576Y51703818D01*
X-55363032Y51891012D01*
X-55546827Y52016594D01*
X-55765000Y52060775D01*
X-57265000Y52060775D01*
X-57468818Y52022424D01*
X-57656012Y51901968D01*
X-57781594Y51718173D01*
X-57825775Y51500000D01*
X-57825775Y50100000D01*
X-57787424Y49896182D01*
X-57710793Y49777094D01*
X-57781594Y49673473D01*
X-57825775Y49455300D01*
X-57825775Y48055300D01*
X-57787424Y47851482D01*
X-57666968Y47664288D01*
X-57483173Y47538706D01*
X-57265000Y47494525D01*
X-55765000Y47494525D01*
X-55561182Y47532876D01*
X-55480179Y47585000D01*
X-55278510Y47585000D01*
X-55148835Y47455098D01*
X-55088990Y47430248D01*
X-55514238Y47005000D01*
X-57515761Y47005000D01*
X-64945381Y54434619D01*
X-65156255Y54575522D01*
X-65197524Y54583731D01*
X-65405000Y54625000D01*
X-79105761Y54625000D01*
X-80820381Y56339619D01*
X-81031255Y56480522D01*
X-81072524Y56488731D01*
X-81130556Y56500274D01*
X-80984403Y56881089D01*
X-81000669Y57500686D01*
X-81206486Y57997569D01*
X-81472212Y58080707D01*
X-81355282Y58197637D01*
X-81427645Y58270000D01*
X-53000445Y58270000D01*
X-53298533Y57972431D01*
G36*
X-82388779Y57164142D02*
X-82402922Y57150000D01*
X-82388779Y57135857D01*
X-82535857Y56988779D01*
X-82550000Y57002922D01*
X-82564142Y56988779D01*
X-82711220Y57135857D01*
X-82697078Y57150000D01*
X-82711220Y57164142D01*
X-82564142Y57311220D01*
X-82550000Y57297078D01*
X-82535857Y57311220D01*
X-82388779Y57164142D01*
X-82388779Y57164142D01*
G37*
X-82388779Y57164142D02*
X-82402922Y57150000D01*
X-82388779Y57135857D01*
X-82535857Y56988779D01*
X-82550000Y57002922D01*
X-82564142Y56988779D01*
X-82711220Y57135857D01*
X-82697078Y57150000D01*
X-82711220Y57164142D01*
X-82564142Y57311220D01*
X-82550000Y57297078D01*
X-82535857Y57311220D01*
X-82388779Y57164142D01*
M02*
