G04 #@! TF.FileFunction,Copper,L2,Bot,Signal*
%FSLAX46Y46*%
G04 Gerber Fmt 4.6, Leading zero omitted, Abs format (unit mm)*
G04 Created by KiCad (PCBNEW 4.0.7) date 03/21/19 10:54:29*
%MOMM*%
%LPD*%
G01*
G04 APERTURE LIST*
%ADD10C,0.100000*%
%ADD11C,1.800000*%
%ADD12O,3.000000X1.800000*%
%ADD13C,3.200000*%
%ADD14C,1.300000*%
%ADD15C,1.000000*%
%ADD16C,0.600000*%
%ADD17C,0.700000*%
%ADD18C,1.000000*%
%ADD19C,0.700000*%
%ADD20C,0.300000*%
%ADD21C,0.400000*%
G04 APERTURE END LIST*
D10*
D11*
X94080000Y-7320000D03*
X96620000Y-7320000D03*
X99160000Y-7320000D03*
X101700000Y-7320000D03*
X104240000Y-7320000D03*
X106780000Y-7320000D03*
X128370000Y-28910000D03*
X128370000Y-26370000D03*
X80110000Y-67010000D03*
X77570000Y-67010000D03*
X75030000Y-67010000D03*
X128370000Y-44150000D03*
X128370000Y-41610000D03*
X128370000Y-39070000D03*
X128370000Y-36530000D03*
X128370000Y-33990000D03*
X128370000Y-31450000D03*
X108050000Y-36530000D03*
X108050000Y-39070000D03*
X108050000Y-41610000D03*
X108050000Y-44150000D03*
X108050000Y-46690000D03*
X113130000Y-46690000D03*
X113130000Y-44150000D03*
X113130000Y-41610000D03*
X113130000Y-39070000D03*
X113130000Y-36530000D03*
D12*
X85190000Y-23830000D03*
X85190000Y-26370000D03*
X85190000Y-28910000D03*
X85190000Y-31450000D03*
X85190000Y-33990000D03*
X85190000Y-36530000D03*
X85190000Y-39070000D03*
X85190000Y-41610000D03*
X85190000Y-44150000D03*
X85190000Y-46690000D03*
X85190000Y-49230000D03*
X85190000Y-51770000D03*
X85190000Y-54310000D03*
X85190000Y-56850000D03*
X85190000Y-59390000D03*
X85190000Y-61930000D03*
X100430000Y-61930000D03*
X100430000Y-59390000D03*
X100430000Y-56850000D03*
X100430000Y-54310000D03*
X100430000Y-51770000D03*
X100430000Y-49230000D03*
X100430000Y-46690000D03*
X100430000Y-44150000D03*
X100430000Y-41610000D03*
X100430000Y-39070000D03*
X100430000Y-36530000D03*
X100430000Y-33990000D03*
X100430000Y-31450000D03*
X100430000Y-28910000D03*
X100430000Y-26370000D03*
X100430000Y-23830000D03*
D11*
X20420000Y-73360000D03*
X17880000Y-73360000D03*
X15340000Y-73360000D03*
X20420000Y-75900000D03*
X17880000Y-75900000D03*
X15340000Y-75900000D03*
X20420000Y-78440000D03*
X17880000Y-78440000D03*
X15340000Y-78440000D03*
X20420000Y-80980000D03*
X17880000Y-80980000D03*
X15340000Y-80980000D03*
X20420000Y-83520000D03*
X17880000Y-83520000D03*
X15340000Y-83520000D03*
X20420000Y-86060000D03*
X17880000Y-86060000D03*
X15340000Y-86060000D03*
X20420000Y-88600000D03*
X17880000Y-88600000D03*
X15340000Y-88600000D03*
X20420000Y-91140000D03*
X17880000Y-91140000D03*
X15340000Y-91140000D03*
X55980000Y-91140000D03*
X53440000Y-91140000D03*
X50900000Y-91140000D03*
X55980000Y-88600000D03*
X53440000Y-88600000D03*
X50900000Y-88600000D03*
X55980000Y-86060000D03*
X53440000Y-86060000D03*
X50900000Y-86060000D03*
X55980000Y-83520000D03*
X53440000Y-83520000D03*
X50900000Y-83520000D03*
X55980000Y-80980000D03*
X53440000Y-80980000D03*
X50900000Y-80980000D03*
X55980000Y-78440000D03*
X53440000Y-78440000D03*
X50900000Y-78440000D03*
X55980000Y-75900000D03*
X53440000Y-75900000D03*
X50900000Y-75900000D03*
X55980000Y-73360000D03*
X53440000Y-73360000D03*
X50900000Y-73360000D03*
D13*
X7720000Y-7320000D03*
X6450000Y-92410000D03*
X124560000Y-7320000D03*
X124560000Y-92410000D03*
D14*
X58520000Y-9860000D03*
X91540000Y-12400000D03*
X105510000Y-75900000D03*
X80110000Y-86060000D03*
X111860000Y-67010000D03*
X111860000Y-49230000D03*
X103605000Y-16845000D03*
X43280000Y-9860000D03*
X61060000Y-9860000D03*
X90270000Y-11130000D03*
D15*
X35660000Y-56850000D03*
X31850000Y-60660000D03*
X36930000Y-44150000D03*
X31850000Y-41610000D03*
X35660000Y-37800000D03*
X22960000Y-65740000D03*
X28040000Y-64470000D03*
X128370000Y-55580000D03*
X108050000Y-23830000D03*
X108050000Y-32720000D03*
X105510000Y-39070000D03*
X108050000Y-17480000D03*
X102970000Y-50500000D03*
X90270000Y-54310000D03*
X90270000Y-46690000D03*
X90270000Y-28910000D03*
X90270000Y-37800000D03*
X7720000Y-14940000D03*
X5180000Y-54310000D03*
X7720000Y-42880000D03*
X11530000Y-60660000D03*
X12800000Y-49230000D03*
X15340000Y-40340000D03*
X26770000Y-30180000D03*
X20420000Y-33990000D03*
X16610000Y-55580000D03*
X7720000Y-67010000D03*
X5180000Y-30180000D03*
X20420000Y-26370000D03*
X24230000Y-21290000D03*
X97890000Y-96220000D03*
X86460000Y-96220000D03*
X76300000Y-93680000D03*
X66140000Y-93680000D03*
X17880000Y-96220000D03*
X34390000Y-96220000D03*
X48360000Y-96220000D03*
X57250000Y-96220000D03*
X111860000Y-96220000D03*
X128370000Y-12400000D03*
X26770000Y-3510000D03*
X17880000Y-4780000D03*
X21690000Y-9860000D03*
X16610000Y-14940000D03*
X119480000Y-3510000D03*
X111860000Y-6050000D03*
X104240000Y-3510000D03*
X105510000Y-12400000D03*
X71220000Y-80980000D03*
X71220000Y-74630000D03*
X91540000Y-8590000D03*
X76300000Y-8590000D03*
X91540000Y-6050000D03*
X76300000Y-6050000D03*
X72490000Y-18750000D03*
X38200000Y-21290000D03*
X47090000Y-27640000D03*
X68680000Y-61930000D03*
X66140000Y-65740000D03*
X62330000Y-69550000D03*
X54710000Y-60660000D03*
X50900000Y-60660000D03*
X43280000Y-88600000D03*
X38200000Y-91140000D03*
X30580000Y-88600000D03*
X24230000Y-91140000D03*
X45820000Y-73360000D03*
X52170000Y-67010000D03*
X44550000Y-82250000D03*
X36930000Y-82250000D03*
X116940000Y-92410000D03*
X106780000Y-92410000D03*
X113130000Y-86060000D03*
X122020000Y-86060000D03*
X128370000Y-86060000D03*
X128370000Y-78440000D03*
X119480000Y-78440000D03*
X40740000Y-78440000D03*
X40740000Y-84790000D03*
D14*
X72490000Y-64470000D03*
X80110000Y-59390000D03*
X55980000Y-55580000D03*
X39470000Y-36530000D03*
X43280000Y-21290000D03*
X25500000Y-17480000D03*
X26770000Y-18750000D03*
X76300000Y-14940000D03*
X78840000Y-14940000D03*
X59790000Y-18750000D03*
X55980000Y-20020000D03*
X96620000Y-12400000D03*
X96620000Y-9860000D03*
X61060000Y-89870000D03*
X96620000Y-73360000D03*
X99160000Y-73360000D03*
X94080000Y-88600000D03*
X106780000Y-67010000D03*
X95350000Y-87330000D03*
X116940000Y-70820000D03*
X123290000Y-74630000D03*
X124560000Y-73360000D03*
X119480000Y-70820000D03*
X57250000Y-56850000D03*
X39470000Y-39070000D03*
X72490000Y-61930000D03*
X80110000Y-61930000D03*
X105510000Y-65740000D03*
X63600000Y-89870000D03*
X82650000Y-89870000D03*
D15*
X118210000Y-49230000D03*
D14*
X120750000Y-49230000D03*
D15*
X111860000Y-51770000D03*
X110590000Y-53040000D03*
D14*
X123290000Y-33990000D03*
X43280000Y-18750000D03*
X54710000Y-18750000D03*
X61060000Y-17480000D03*
D15*
X36930000Y-47960000D03*
D14*
X54710000Y-45420000D03*
X57250000Y-45420000D03*
D15*
X39470000Y-50500000D03*
X38200000Y-51770000D03*
X42010000Y-73360000D03*
D14*
X78840000Y-49230000D03*
X69950000Y-87330000D03*
D15*
X77570000Y-69550000D03*
D14*
X110590000Y-18750000D03*
X110590000Y-21290000D03*
D16*
X22960000Y-86060000D03*
D14*
X77570000Y-47960000D03*
X80110000Y-69550000D03*
D17*
X62330000Y-84790000D03*
X61060000Y-78440000D03*
D14*
X71220000Y-86060000D03*
D17*
X92810000Y-32720000D03*
X69950000Y-7320000D03*
X52170000Y-7320000D03*
X34390000Y-7320000D03*
X94080000Y-35260000D03*
X71220000Y-7320000D03*
X91540000Y-39070000D03*
X68680000Y-6050000D03*
X33120000Y-6050000D03*
X50900000Y-6050000D03*
X99160000Y-17480000D03*
X67410000Y-4780000D03*
X49630000Y-4780000D03*
X31850000Y-4780000D03*
X99160000Y-18750000D03*
X92810000Y-41610000D03*
X118210000Y-61930000D03*
X123290000Y-55580000D03*
X114400000Y-53040000D03*
X123290000Y-53040000D03*
X123290000Y-51770000D03*
X111860000Y-59390000D03*
X36930000Y-32720000D03*
X39470000Y-32720000D03*
X35660000Y-31450000D03*
X39470000Y-31450000D03*
X34390000Y-30180000D03*
X39470000Y-30180000D03*
X33120000Y-28910000D03*
X39470000Y-28910000D03*
X31850000Y-27640000D03*
X39470000Y-27640000D03*
X30580000Y-26370000D03*
X39470000Y-26370000D03*
X29310000Y-25100000D03*
X39470000Y-25100000D03*
X39470000Y-33990000D03*
X95350000Y-39070000D03*
X62330000Y-30180000D03*
X62330000Y-27640000D03*
X61060000Y-26370000D03*
X61060000Y-30180000D03*
X58520000Y-31450000D03*
X49630000Y-20020000D03*
X54710000Y-25100000D03*
X54710000Y-30180000D03*
X53440000Y-23830000D03*
X53440000Y-30180000D03*
X49630000Y-32720000D03*
X58520000Y-30180000D03*
X55980000Y-32720000D03*
X53440000Y-20020000D03*
X61060000Y-21290000D03*
X67410000Y-18750000D03*
X64870000Y-30180000D03*
X63600000Y-21290000D03*
X68680000Y-30180000D03*
X67410000Y-31450000D03*
X64870000Y-22560000D03*
X66140000Y-18750000D03*
X66140000Y-30180000D03*
X92810000Y-17480000D03*
X76300000Y-28910000D03*
X82650000Y-22560000D03*
X94080000Y-17480000D03*
X89000000Y-23830000D03*
X87730000Y-75900000D03*
X83920000Y-72090000D03*
X111860000Y-64470000D03*
X102970000Y-64470000D03*
X95350000Y-77170000D03*
X118210000Y-60660000D03*
X87730000Y-77170000D03*
X82650000Y-73360000D03*
X111860000Y-63200000D03*
X101700000Y-64470000D03*
X94080000Y-78440000D03*
X118210000Y-59390000D03*
X81380000Y-79710000D03*
X118210000Y-58120000D03*
X111860000Y-61930000D03*
X92810000Y-79710000D03*
X81380000Y-78440000D03*
X110590000Y-55580000D03*
X110590000Y-59390000D03*
X91540000Y-80980000D03*
X81380000Y-77170000D03*
X90270000Y-80980000D03*
X81380000Y-75900000D03*
X109320000Y-55580000D03*
X109320000Y-58120000D03*
X89000000Y-79710000D03*
X87730000Y-78440000D03*
X81380000Y-74630000D03*
X108050000Y-60660000D03*
X108050000Y-54310000D03*
X114400000Y-78440000D03*
X105510000Y-78440000D03*
D16*
X14070000Y-69550000D03*
X16610000Y-69550000D03*
X22960000Y-60660000D03*
X17880000Y-60660000D03*
X24230000Y-61930000D03*
X17880000Y-61930000D03*
X25500000Y-63200000D03*
X17880000Y-63200000D03*
X26770000Y-61930000D03*
X28040000Y-60660000D03*
X39470000Y-58120000D03*
X39470000Y-61930000D03*
X42010000Y-58120000D03*
X40740000Y-65740000D03*
X42010000Y-60660000D03*
X43280000Y-58120000D03*
X44550000Y-60660000D03*
X47090000Y-60660000D03*
X24230000Y-79710000D03*
X58520000Y-60660000D03*
X59790000Y-60660000D03*
X42010000Y-61930000D03*
X57250000Y-61930000D03*
X14070000Y-72090000D03*
X21690000Y-72090000D03*
X64870000Y-59390000D03*
X64870000Y-61930000D03*
X68680000Y-59390000D03*
X44550000Y-59390000D03*
D18*
X90270000Y-11130000D02*
X91540000Y-12400000D01*
X105510000Y-75900000D02*
X111860000Y-69550000D01*
X111860000Y-69550000D02*
X111860000Y-67010000D01*
X91540000Y-87330000D02*
X92810000Y-87330000D01*
X80110000Y-86060000D02*
X81380000Y-87330000D01*
X81380000Y-87330000D02*
X91540000Y-87330000D01*
X104240000Y-75900000D02*
X105510000Y-75900000D01*
X92810000Y-87330000D02*
X104240000Y-75900000D01*
X111860000Y-67010000D02*
X111860000Y-67010000D01*
X111860000Y-67010000D02*
X106780000Y-61930000D01*
X111860000Y-49230000D02*
X109320000Y-51770000D01*
X109320000Y-51770000D02*
X108050000Y-51770000D01*
X108050000Y-51770000D02*
X106780000Y-53040000D01*
X106780000Y-53040000D02*
X106780000Y-61930000D01*
X100430000Y-23830000D02*
X100430000Y-20020000D01*
X100430000Y-20020000D02*
X103605000Y-16845000D01*
X61060000Y-9860000D02*
X58520000Y-9860000D01*
X58520000Y-9860000D02*
X43280000Y-9860000D01*
X67410000Y-11130000D02*
X62330000Y-11130000D01*
X90270000Y-11130000D02*
X67410000Y-11130000D01*
X62330000Y-11130000D02*
X61060000Y-9860000D01*
D19*
X36930000Y-45420000D02*
X35660000Y-46690000D01*
X35660000Y-46690000D02*
X35660000Y-56850000D01*
X39470000Y-36530000D02*
X36930000Y-36530000D01*
X34390000Y-41610000D02*
X36930000Y-44150000D01*
X31850000Y-41610000D02*
X34390000Y-41610000D01*
X36930000Y-36530000D02*
X35660000Y-37800000D01*
X36930000Y-44150000D02*
X36930000Y-45420000D01*
X26770000Y-65740000D02*
X22960000Y-65740000D01*
X28040000Y-64470000D02*
X26770000Y-65740000D01*
X108050000Y-32720000D02*
X105510000Y-35260000D01*
X105510000Y-35260000D02*
X105510000Y-39070000D01*
X108050000Y-17480000D02*
X108050000Y-23830000D01*
X90270000Y-46690000D02*
X90270000Y-37800000D01*
X87730000Y-61930000D02*
X90270000Y-59390000D01*
X90270000Y-59390000D02*
X90270000Y-54310000D01*
X85190000Y-61930000D02*
X87730000Y-61930000D01*
X5180000Y-30180000D02*
X5180000Y-17480000D01*
X7720000Y-32720000D02*
X7720000Y-42880000D01*
X5180000Y-54310000D02*
X5180000Y-45420000D01*
X5180000Y-64470000D02*
X7720000Y-67010000D01*
X22960000Y-26370000D02*
X20420000Y-26370000D01*
X8990000Y-65740000D02*
X7720000Y-67010000D01*
X11530000Y-60660000D02*
X8990000Y-63200000D01*
X8990000Y-63200000D02*
X8990000Y-65740000D01*
X16610000Y-54310000D02*
X16610000Y-55580000D01*
X12800000Y-49230000D02*
X16610000Y-53040000D01*
X16610000Y-53040000D02*
X16610000Y-54310000D01*
X22960000Y-26370000D02*
X26770000Y-30180000D01*
X20420000Y-33990000D02*
X15340000Y-39070000D01*
X15340000Y-40340000D02*
X15340000Y-39070000D01*
X5180000Y-54310000D02*
X5180000Y-64470000D01*
X5180000Y-45420000D02*
X7720000Y-42880000D01*
X5180000Y-30180000D02*
X7720000Y-32720000D01*
X5180000Y-17480000D02*
X7720000Y-14940000D01*
X66140000Y-93680000D02*
X59790000Y-93680000D01*
X97890000Y-96220000D02*
X86460000Y-96220000D01*
X66140000Y-93680000D02*
X76300000Y-93680000D01*
X48360000Y-96220000D02*
X34390000Y-96220000D01*
X59790000Y-93680000D02*
X57250000Y-96220000D01*
X19150000Y-17480000D02*
X20420000Y-17480000D01*
X17880000Y-16210000D02*
X19150000Y-17480000D01*
X17880000Y-4780000D02*
X25500000Y-4780000D01*
X17880000Y-6050000D02*
X21690000Y-9860000D01*
X16610000Y-14940000D02*
X17880000Y-16210000D01*
X21690000Y-9860000D02*
X16610000Y-14940000D01*
X17880000Y-4780000D02*
X17880000Y-6050000D01*
X26770000Y-3510000D02*
X25500000Y-4780000D01*
X20420000Y-17480000D02*
X24230000Y-21290000D01*
X24230000Y-21290000D02*
X26770000Y-18750000D01*
X114400000Y-3510000D02*
X119480000Y-3510000D01*
X111860000Y-6050000D02*
X114400000Y-3510000D01*
X71220000Y-74630000D02*
X71220000Y-80980000D01*
X76300000Y-8590000D02*
X76300000Y-6050000D01*
X91540000Y-8590000D02*
X76300000Y-8590000D01*
X43280000Y-21290000D02*
X38200000Y-21290000D01*
X62330000Y-69550000D02*
X66140000Y-65740000D01*
X52170000Y-67010000D02*
X45820000Y-73360000D01*
X116940000Y-92410000D02*
X106780000Y-92410000D01*
X124560000Y-78440000D02*
X119480000Y-78440000D01*
X123290000Y-74630000D02*
X119480000Y-78440000D01*
X122020000Y-86060000D02*
X113130000Y-86060000D01*
X128370000Y-86060000D02*
X124560000Y-86060000D01*
X124560000Y-78440000D02*
X128370000Y-78440000D01*
X124560000Y-86060000D02*
X122020000Y-86060000D01*
X40740000Y-84790000D02*
X40740000Y-78440000D01*
D18*
X72490000Y-61930000D02*
X72490000Y-64470000D01*
X80110000Y-61930000D02*
X80110000Y-59390000D01*
X39470000Y-39070000D02*
X39470000Y-36530000D01*
X43280000Y-18750000D02*
X43280000Y-21290000D01*
X26770000Y-18750000D02*
X25500000Y-17480000D01*
X43280000Y-18750000D02*
X26770000Y-18750000D01*
X62330000Y-16210000D02*
X63600000Y-14940000D01*
X61060000Y-17480000D02*
X62330000Y-16210000D01*
X63600000Y-14940000D02*
X76300000Y-14940000D01*
X78840000Y-14940000D02*
X76300000Y-14940000D01*
X54710000Y-18750000D02*
X55980000Y-20020000D01*
X78840000Y-14940000D02*
X94080000Y-14940000D01*
X94080000Y-14940000D02*
X96620000Y-12400000D01*
X96620000Y-12400000D02*
X96620000Y-9860000D01*
X63600000Y-89870000D02*
X61060000Y-89870000D01*
X99160000Y-73360000D02*
X96620000Y-73360000D01*
X99160000Y-73360000D02*
X99160000Y-72090000D01*
X99160000Y-72090000D02*
X105510000Y-65740000D01*
X105510000Y-65740000D02*
X106780000Y-67010000D01*
X91540000Y-89870000D02*
X92810000Y-89870000D01*
X86460000Y-89870000D02*
X82650000Y-89870000D01*
X86460000Y-89870000D02*
X91540000Y-89870000D01*
X92810000Y-89870000D02*
X94080000Y-88600000D01*
X94080000Y-88600000D02*
X95350000Y-87330000D01*
X119480000Y-70820000D02*
X116940000Y-70820000D01*
X123290000Y-74630000D02*
X124560000Y-73360000D01*
X119480000Y-70820000D02*
X123290000Y-74630000D01*
X72490000Y-60660000D02*
X72490000Y-61930000D01*
X68680000Y-56850000D02*
X72490000Y-60660000D01*
X57250000Y-56850000D02*
X68680000Y-56850000D01*
X53440000Y-53040000D02*
X54710000Y-54310000D01*
X54710000Y-54310000D02*
X55980000Y-55580000D01*
X39470000Y-39070000D02*
X53440000Y-53040000D01*
X55980000Y-55580000D02*
X57250000Y-56850000D01*
X72490000Y-61930000D02*
X80110000Y-61930000D01*
X80110000Y-61930000D02*
X85190000Y-61930000D01*
X82650000Y-89870000D02*
X63600000Y-89870000D01*
X63600000Y-89870000D02*
X63600000Y-89870000D01*
D19*
X120750000Y-49230000D02*
X114400000Y-49230000D01*
X114400000Y-49230000D02*
X111860000Y-51770000D01*
X111860000Y-51770000D02*
X110590000Y-53040000D01*
D18*
X128370000Y-26370000D02*
X127100000Y-26370000D01*
X123290000Y-30180000D02*
X123290000Y-33990000D01*
X127100000Y-26370000D02*
X123290000Y-30180000D01*
X54710000Y-18750000D02*
X43280000Y-18750000D01*
X59790000Y-18750000D02*
X54710000Y-18750000D01*
X59790000Y-18750000D02*
X61060000Y-17480000D01*
D19*
X39470000Y-50500000D02*
X38200000Y-49230000D01*
X38200000Y-49230000D02*
X36930000Y-47960000D01*
D18*
X57250000Y-45420000D02*
X54710000Y-45420000D01*
X75030000Y-45420000D02*
X57250000Y-45420000D01*
X77570000Y-47960000D02*
X75030000Y-45420000D01*
D19*
X38200000Y-51770000D02*
X39470000Y-50500000D01*
X38200000Y-51770000D02*
X38200000Y-51770000D01*
X38200000Y-51770000D02*
X38200000Y-69550000D01*
X38200000Y-69550000D02*
X42010000Y-73360000D01*
D18*
X77570000Y-47960000D02*
X78840000Y-49230000D01*
X71220000Y-86060000D02*
X69950000Y-87330000D01*
D19*
X80110000Y-69550000D02*
X77570000Y-69550000D01*
D18*
X91540000Y-84790000D02*
X92810000Y-84790000D01*
X80110000Y-83520000D02*
X85190000Y-83520000D01*
X86460000Y-84790000D02*
X85190000Y-83520000D01*
X91540000Y-84790000D02*
X86460000Y-84790000D01*
X109320000Y-67010000D02*
X109320000Y-69550000D01*
X109320000Y-69550000D02*
X105510000Y-73360000D01*
X110590000Y-30180000D02*
X110590000Y-18750000D01*
X104240000Y-61930000D02*
X106780000Y-64470000D01*
X110590000Y-46690000D02*
X104240000Y-53040000D01*
X104240000Y-53040000D02*
X104240000Y-61930000D01*
X110590000Y-30180000D02*
X110590000Y-46690000D01*
X106780000Y-64470000D02*
X108050000Y-65740000D01*
X108050000Y-65740000D02*
X109320000Y-67010000D01*
X104240000Y-73360000D02*
X105510000Y-73360000D01*
X92810000Y-84790000D02*
X104240000Y-73360000D01*
D20*
X17880000Y-83520000D02*
X19150000Y-84790000D01*
X21690000Y-84790000D02*
X22960000Y-86060000D01*
X19150000Y-84790000D02*
X21690000Y-84790000D01*
X15340000Y-80980000D02*
X17880000Y-83520000D01*
D18*
X80110000Y-83520000D02*
X80110000Y-69550000D01*
D21*
X61060000Y-83520000D02*
X62330000Y-84790000D01*
X61060000Y-78440000D02*
X61060000Y-83520000D01*
D18*
X80110000Y-83520000D02*
X73760000Y-83520000D01*
X73760000Y-83520000D02*
X71220000Y-86060000D01*
D21*
X97890000Y-14940000D02*
X97890000Y-8590000D01*
X96620000Y-7320000D02*
X97890000Y-8590000D01*
X92810000Y-22560000D02*
X92810000Y-20020000D01*
X92810000Y-32720000D02*
X92810000Y-22560000D01*
X92810000Y-20020000D02*
X96620000Y-16210000D01*
X96620000Y-16210000D02*
X97890000Y-14940000D01*
X71220000Y-8590000D02*
X72490000Y-9860000D01*
X69950000Y-7320000D02*
X71220000Y-8590000D01*
X94080000Y-9860000D02*
X96620000Y-7320000D01*
X72490000Y-9860000D02*
X94080000Y-9860000D01*
X52170000Y-7320000D02*
X69950000Y-7320000D01*
X52170000Y-7320000D02*
X47090000Y-7320000D01*
X34390000Y-7320000D02*
X47090000Y-7320000D01*
X99160000Y-7320000D02*
X99160000Y-14940000D01*
X94080000Y-22560000D02*
X94080000Y-20020000D01*
X94080000Y-35260000D02*
X94080000Y-22560000D01*
X94080000Y-20020000D02*
X99160000Y-14940000D01*
X71220000Y-7320000D02*
X72490000Y-6050000D01*
X96620000Y-4780000D02*
X99160000Y-7320000D01*
X73760000Y-4780000D02*
X96620000Y-4780000D01*
X72490000Y-6050000D02*
X73760000Y-4780000D01*
X95350000Y-20020000D02*
X100430000Y-14940000D01*
X95350000Y-22560000D02*
X95350000Y-20020000D01*
X91540000Y-39070000D02*
X95350000Y-35260000D01*
X95350000Y-35260000D02*
X95350000Y-22560000D01*
X100430000Y-8590000D02*
X101700000Y-7320000D01*
X100430000Y-9860000D02*
X100430000Y-8590000D01*
X100430000Y-14940000D02*
X100430000Y-9860000D01*
X68680000Y-6050000D02*
X71220000Y-6050000D01*
X97890000Y-3510000D02*
X101700000Y-7320000D01*
X96620000Y-3510000D02*
X97890000Y-3510000D01*
X73760000Y-3510000D02*
X96620000Y-3510000D01*
X71220000Y-6050000D02*
X73760000Y-3510000D01*
X50900000Y-6050000D02*
X68680000Y-6050000D01*
X49630000Y-6050000D02*
X50900000Y-6050000D01*
X33120000Y-6050000D02*
X49630000Y-6050000D01*
X99160000Y-17480000D02*
X101700000Y-14940000D01*
X101700000Y-9860000D02*
X104240000Y-7320000D01*
X101700000Y-14940000D02*
X101700000Y-9860000D01*
X67410000Y-4780000D02*
X71220000Y-4780000D01*
X99160000Y-2240000D02*
X104240000Y-7320000D01*
X73760000Y-2240000D02*
X99160000Y-2240000D01*
X71220000Y-4780000D02*
X73760000Y-2240000D01*
X49630000Y-4780000D02*
X67410000Y-4780000D01*
X31850000Y-4780000D02*
X49630000Y-4780000D01*
X99160000Y-18750000D02*
X102970000Y-14940000D01*
X102970000Y-11130000D02*
X106780000Y-7320000D01*
X102970000Y-14940000D02*
X102970000Y-11130000D01*
X99160000Y-18750000D02*
X96620000Y-21290000D01*
X96620000Y-35260000D02*
X96620000Y-23830000D01*
X92810000Y-39070000D02*
X96620000Y-35260000D01*
X92810000Y-41610000D02*
X92810000Y-39070000D01*
X96620000Y-23830000D02*
X96620000Y-22560000D01*
X96620000Y-21290000D02*
X96620000Y-22560000D01*
X92810000Y-55580000D02*
X92810000Y-61930000D01*
X99160000Y-49230000D02*
X92810000Y-55580000D01*
X81380000Y-65740000D02*
X80110000Y-67010000D01*
X82650000Y-65740000D02*
X81380000Y-65740000D01*
X89000000Y-65740000D02*
X82650000Y-65740000D01*
X92810000Y-61930000D02*
X89000000Y-65740000D01*
X100430000Y-49230000D02*
X99160000Y-49230000D01*
X91540000Y-55580000D02*
X91540000Y-61930000D01*
X94080000Y-39070000D02*
X97890000Y-35260000D01*
X97890000Y-35260000D02*
X97890000Y-32720000D01*
X91540000Y-55580000D02*
X94080000Y-53040000D01*
X94080000Y-53040000D02*
X94080000Y-39070000D01*
X97890000Y-27640000D02*
X97890000Y-32720000D01*
X99160000Y-26370000D02*
X97890000Y-27640000D01*
X80110000Y-64470000D02*
X77570000Y-67010000D01*
X89000000Y-64470000D02*
X80110000Y-64470000D01*
X91540000Y-61930000D02*
X89000000Y-64470000D01*
X102970000Y-27640000D02*
X102970000Y-41610000D01*
X101700000Y-26370000D02*
X102970000Y-27640000D01*
X102970000Y-41610000D02*
X108050000Y-46690000D01*
X100430000Y-26370000D02*
X101700000Y-26370000D01*
X100430000Y-26370000D02*
X99160000Y-26370000D01*
X128370000Y-44150000D02*
X128370000Y-46690000D01*
X128370000Y-51770000D02*
X128370000Y-46690000D01*
X118210000Y-61930000D02*
X127100000Y-53040000D01*
X127100000Y-53040000D02*
X128370000Y-51770000D01*
X127100000Y-46690000D02*
X127100000Y-45420000D01*
X127100000Y-51770000D02*
X127100000Y-46690000D01*
X123290000Y-55580000D02*
X125830000Y-53040000D01*
X125830000Y-53040000D02*
X127100000Y-51770000D01*
X127100000Y-41610000D02*
X128370000Y-41610000D01*
X125830000Y-42880000D02*
X127100000Y-41610000D01*
X125830000Y-44150000D02*
X125830000Y-42880000D01*
X127100000Y-45420000D02*
X125830000Y-44150000D01*
X118210000Y-54310000D02*
X115670000Y-54310000D01*
X115670000Y-54310000D02*
X114400000Y-53040000D01*
X122020000Y-54310000D02*
X123290000Y-54310000D01*
X124560000Y-42880000D02*
X128370000Y-39070000D01*
X124560000Y-44150000D02*
X124560000Y-42880000D01*
X125830000Y-45420000D02*
X124560000Y-44150000D01*
X125830000Y-51770000D02*
X125830000Y-45420000D01*
X123290000Y-54310000D02*
X125830000Y-51770000D01*
X122020000Y-54310000D02*
X118210000Y-54310000D01*
X124560000Y-47960000D02*
X124560000Y-51770000D01*
X123290000Y-44150000D02*
X124560000Y-45420000D01*
X124560000Y-45420000D02*
X124560000Y-47960000D01*
X128370000Y-36530000D02*
X123290000Y-41610000D01*
X123290000Y-41610000D02*
X123290000Y-44150000D01*
X124560000Y-51770000D02*
X123290000Y-53040000D01*
X122020000Y-40340000D02*
X122020000Y-44150000D01*
X128370000Y-33990000D02*
X123290000Y-39070000D01*
X123290000Y-39070000D02*
X122020000Y-40340000D01*
X123290000Y-45420000D02*
X123290000Y-51770000D01*
X122020000Y-44150000D02*
X123290000Y-45420000D01*
X122020000Y-45420000D02*
X122020000Y-47960000D01*
X122020000Y-45420000D02*
X120750000Y-44150000D01*
X120750000Y-44150000D02*
X120750000Y-39070000D01*
X128370000Y-31450000D02*
X122020000Y-37800000D01*
X120750000Y-39070000D02*
X122020000Y-37800000D01*
X111860000Y-54310000D02*
X111860000Y-59390000D01*
X114400000Y-51770000D02*
X111860000Y-54310000D01*
X120750000Y-51770000D02*
X114400000Y-51770000D01*
X122020000Y-50500000D02*
X120750000Y-51770000D01*
X122020000Y-47960000D02*
X122020000Y-50500000D01*
X39470000Y-32720000D02*
X36930000Y-32720000D01*
X85190000Y-49230000D02*
X83920000Y-49230000D01*
X83920000Y-49230000D02*
X77570000Y-42880000D01*
X77570000Y-42880000D02*
X49630000Y-42880000D01*
X49630000Y-42880000D02*
X39470000Y-32720000D01*
X39470000Y-31450000D02*
X35660000Y-31450000D01*
X85190000Y-46690000D02*
X83920000Y-46690000D01*
X83920000Y-46690000D02*
X78840000Y-41610000D01*
X78840000Y-41610000D02*
X49630000Y-41610000D01*
X49630000Y-41610000D02*
X39470000Y-31450000D01*
X39470000Y-30180000D02*
X34390000Y-30180000D01*
X85190000Y-44150000D02*
X83920000Y-44150000D01*
X83920000Y-44150000D02*
X80110000Y-40340000D01*
X80110000Y-40340000D02*
X49630000Y-40340000D01*
X49630000Y-40340000D02*
X39470000Y-30180000D01*
X80110000Y-39070000D02*
X81380000Y-39070000D01*
X80110000Y-39070000D02*
X49630000Y-39070000D01*
X39470000Y-28910000D02*
X49630000Y-39070000D01*
X81380000Y-39070000D02*
X83920000Y-41610000D01*
X83920000Y-41610000D02*
X85190000Y-41610000D01*
X39470000Y-28910000D02*
X33120000Y-28910000D01*
X39680735Y-28699265D02*
X39470000Y-28910000D01*
X81380000Y-37800000D02*
X82650000Y-37800000D01*
X39470000Y-27640000D02*
X49630000Y-37800000D01*
X80110000Y-37800000D02*
X49630000Y-37800000D01*
X80110000Y-37800000D02*
X81380000Y-37800000D01*
X82650000Y-37800000D02*
X83920000Y-39070000D01*
X83920000Y-39070000D02*
X85190000Y-39070000D01*
X39470000Y-27640000D02*
X31850000Y-27640000D01*
X39470000Y-26370000D02*
X30580000Y-26370000D01*
X49630000Y-36530000D02*
X85190000Y-36530000D01*
X39470000Y-26370000D02*
X49630000Y-36530000D01*
X80110000Y-35260000D02*
X82650000Y-35260000D01*
X39470000Y-25100000D02*
X49630000Y-35260000D01*
X49630000Y-35260000D02*
X50900000Y-35260000D01*
X80110000Y-35260000D02*
X50900000Y-35260000D01*
X82650000Y-35260000D02*
X83920000Y-33990000D01*
X83920000Y-33990000D02*
X85190000Y-33990000D01*
X39470000Y-25100000D02*
X29310000Y-25100000D01*
X85190000Y-51770000D02*
X83920000Y-51770000D01*
X83920000Y-51770000D02*
X76300000Y-44150000D01*
X76300000Y-44150000D02*
X49630000Y-44150000D01*
X49630000Y-44150000D02*
X39470000Y-33990000D01*
X95350000Y-39070000D02*
X100430000Y-39070000D01*
X62330000Y-27640000D02*
X62330000Y-30180000D01*
X61060000Y-30180000D02*
X61060000Y-26370000D01*
X80110000Y-33990000D02*
X81380000Y-33990000D01*
X63600000Y-33990000D02*
X61060000Y-33990000D01*
X80110000Y-33990000D02*
X66140000Y-33990000D01*
X66140000Y-33990000D02*
X64870000Y-33990000D01*
X64870000Y-33990000D02*
X63600000Y-33990000D01*
X58520000Y-31450000D02*
X61060000Y-33990000D01*
X81380000Y-33990000D02*
X83920000Y-31450000D01*
X83920000Y-31450000D02*
X85190000Y-31450000D01*
X50900000Y-20020000D02*
X49630000Y-20020000D01*
X58520000Y-31450000D02*
X57250000Y-30180000D01*
X57250000Y-30180000D02*
X57250000Y-26370000D01*
X57250000Y-26370000D02*
X50900000Y-20020000D01*
X54710000Y-30180000D02*
X54710000Y-25100000D01*
X53440000Y-30180000D02*
X53440000Y-23830000D01*
X80110000Y-32720000D02*
X83920000Y-28910000D01*
X49630000Y-32720000D02*
X55980000Y-32720000D01*
X58520000Y-30180000D02*
X58520000Y-25100000D01*
X61060000Y-32720000D02*
X58520000Y-30180000D01*
X66140000Y-32720000D02*
X63600000Y-32720000D01*
X80110000Y-32720000D02*
X66140000Y-32720000D01*
X63600000Y-32720000D02*
X61060000Y-32720000D01*
X58520000Y-25100000D02*
X53440000Y-20020000D01*
X85190000Y-28910000D02*
X83920000Y-28910000D01*
X61060000Y-21290000D02*
X64870000Y-25100000D01*
X64870000Y-30180000D02*
X64870000Y-25100000D01*
X61060000Y-20020000D02*
X61060000Y-21290000D01*
X63600000Y-17480000D02*
X61060000Y-20020000D01*
X66140000Y-17480000D02*
X63600000Y-17480000D01*
X67410000Y-18750000D02*
X66140000Y-17480000D01*
X68680000Y-25100000D02*
X68680000Y-30180000D01*
X64870000Y-21290000D02*
X68680000Y-25100000D01*
X63600000Y-21290000D02*
X64870000Y-21290000D01*
X83920000Y-23830000D02*
X77570000Y-30180000D01*
X68680000Y-30180000D02*
X77570000Y-30180000D01*
X85190000Y-23830000D02*
X83920000Y-23830000D01*
X78840000Y-31450000D02*
X67410000Y-31450000D01*
X83920000Y-26370000D02*
X78840000Y-31450000D01*
X67410000Y-25100000D02*
X64870000Y-22560000D01*
X67410000Y-31450000D02*
X67410000Y-25100000D01*
X85190000Y-26370000D02*
X83920000Y-26370000D01*
X66140000Y-30180000D02*
X66140000Y-25100000D01*
X62330000Y-21290000D02*
X66140000Y-25100000D01*
X62330000Y-20020000D02*
X62330000Y-21290000D01*
X63600000Y-18750000D02*
X62330000Y-20020000D01*
X64870000Y-18750000D02*
X63600000Y-18750000D01*
X64870000Y-18750000D02*
X66140000Y-18750000D01*
X92810000Y-17480000D02*
X89000000Y-21290000D01*
X83920000Y-21290000D02*
X82650000Y-22560000D01*
X85190000Y-21290000D02*
X83920000Y-21290000D01*
X89000000Y-21290000D02*
X85190000Y-21290000D01*
X89000000Y-23830000D02*
X89000000Y-22560000D01*
X89000000Y-22560000D02*
X94080000Y-17480000D01*
X83920000Y-72090000D02*
X87730000Y-75900000D01*
X114400000Y-64470000D02*
X111860000Y-64470000D01*
X102970000Y-64470000D02*
X95350000Y-72090000D01*
X95350000Y-72090000D02*
X95350000Y-77170000D01*
X118210000Y-60660000D02*
X114400000Y-64470000D01*
X87730000Y-77170000D02*
X83920000Y-73360000D01*
X83920000Y-73360000D02*
X82650000Y-73360000D01*
X114400000Y-63200000D02*
X111860000Y-63200000D01*
X101700000Y-64470000D02*
X94080000Y-72090000D01*
X94080000Y-72090000D02*
X94080000Y-78440000D01*
X118210000Y-59390000D02*
X114400000Y-63200000D01*
X85190000Y-59390000D02*
X86460000Y-59390000D01*
X90270000Y-83520000D02*
X87730000Y-83520000D01*
X92810000Y-79710000D02*
X92810000Y-80980000D01*
X90270000Y-83520000D02*
X92810000Y-80980000D01*
X83920000Y-79710000D02*
X81380000Y-79710000D01*
X87730000Y-83520000D02*
X83920000Y-79710000D01*
X118210000Y-58120000D02*
X114400000Y-61930000D01*
X114400000Y-61930000D02*
X111860000Y-61930000D01*
X100430000Y-64470000D02*
X92810000Y-72090000D01*
X100430000Y-61930000D02*
X100430000Y-64470000D01*
X92810000Y-72090000D02*
X92810000Y-79710000D01*
X90270000Y-82250000D02*
X87730000Y-82250000D01*
X91540000Y-80980000D02*
X90270000Y-82250000D01*
X83920000Y-78440000D02*
X81380000Y-78440000D01*
X87730000Y-82250000D02*
X83920000Y-78440000D01*
X110590000Y-59390000D02*
X110590000Y-55580000D01*
X97890000Y-63200000D02*
X97890000Y-65740000D01*
X97890000Y-60660000D02*
X97890000Y-63200000D01*
X99160000Y-59390000D02*
X97890000Y-60660000D01*
X91540000Y-72090000D02*
X91540000Y-80980000D01*
X97890000Y-65740000D02*
X91540000Y-72090000D01*
X100430000Y-59390000D02*
X99160000Y-59390000D01*
X90270000Y-80980000D02*
X87730000Y-80980000D01*
X83920000Y-77170000D02*
X81380000Y-77170000D01*
X87730000Y-80980000D02*
X83920000Y-77170000D01*
X96620000Y-63200000D02*
X96620000Y-65740000D01*
X96620000Y-59390000D02*
X96620000Y-63200000D01*
X90270000Y-80980000D02*
X90270000Y-75900000D01*
X96620000Y-59390000D02*
X99160000Y-56850000D01*
X90270000Y-72090000D02*
X90270000Y-75900000D01*
X96620000Y-65740000D02*
X90270000Y-72090000D01*
X100430000Y-56850000D02*
X99160000Y-56850000D01*
X89000000Y-79710000D02*
X87730000Y-79710000D01*
X83920000Y-75900000D02*
X81380000Y-75900000D01*
X87730000Y-79710000D02*
X83920000Y-75900000D01*
X109320000Y-55580000D02*
X109320000Y-58120000D01*
X95350000Y-63200000D02*
X95350000Y-65740000D01*
X95350000Y-58120000D02*
X95350000Y-63200000D01*
X89000000Y-79710000D02*
X89000000Y-75900000D01*
X95350000Y-58120000D02*
X99160000Y-54310000D01*
X89000000Y-72090000D02*
X89000000Y-75900000D01*
X95350000Y-65740000D02*
X89000000Y-72090000D01*
X100430000Y-54310000D02*
X99160000Y-54310000D01*
X94080000Y-65740000D02*
X89000000Y-70820000D01*
X94080000Y-56850000D02*
X94080000Y-64470000D01*
X94080000Y-65740000D02*
X94080000Y-64470000D01*
X99160000Y-51770000D02*
X94080000Y-56850000D01*
X81380000Y-73360000D02*
X81380000Y-74630000D01*
X83920000Y-70820000D02*
X81380000Y-73360000D01*
X89000000Y-70820000D02*
X83920000Y-70820000D01*
X87730000Y-78440000D02*
X83920000Y-74630000D01*
X83920000Y-74630000D02*
X81380000Y-74630000D01*
X100430000Y-51770000D02*
X99160000Y-51770000D01*
X108050000Y-54310000D02*
X108050000Y-60660000D01*
X105510000Y-78440000D02*
X114400000Y-78440000D01*
D20*
X16610000Y-69550000D02*
X14070000Y-69550000D01*
X17880000Y-60660000D02*
X22960000Y-60660000D01*
X17880000Y-61930000D02*
X24230000Y-61930000D01*
X17880000Y-63200000D02*
X25500000Y-63200000D01*
X49630000Y-92410000D02*
X50900000Y-93680000D01*
X54710000Y-92410000D02*
X53440000Y-93680000D01*
X55980000Y-91140000D02*
X54710000Y-92410000D01*
X28040000Y-61930000D02*
X48360000Y-82250000D01*
X48360000Y-82250000D02*
X48360000Y-91140000D01*
X48360000Y-91140000D02*
X49630000Y-92410000D01*
X26770000Y-61930000D02*
X28040000Y-61930000D01*
X50900000Y-93680000D02*
X53440000Y-93680000D01*
X50900000Y-75900000D02*
X43280000Y-75900000D01*
X28040000Y-60660000D02*
X42010000Y-74630000D01*
X43280000Y-75900000D02*
X42010000Y-74630000D01*
X39470000Y-59390000D02*
X39470000Y-58120000D01*
X39470000Y-61930000D02*
X39470000Y-59390000D01*
X40740000Y-61930000D02*
X40740000Y-59390000D01*
X40740000Y-65740000D02*
X40740000Y-61930000D01*
X40740000Y-59390000D02*
X42010000Y-58120000D01*
X42010000Y-59390000D02*
X43280000Y-58120000D01*
X42010000Y-60660000D02*
X42010000Y-59390000D01*
X44550000Y-60660000D02*
X47090000Y-60660000D01*
X17880000Y-80980000D02*
X19150000Y-79710000D01*
X24230000Y-79710000D02*
X19150000Y-79710000D01*
X55980000Y-88600000D02*
X57250000Y-88600000D01*
X58520000Y-87330000D02*
X58520000Y-60660000D01*
X57250000Y-88600000D02*
X58520000Y-87330000D01*
X53440000Y-91140000D02*
X54710000Y-89870000D01*
X59790000Y-79710000D02*
X59790000Y-60660000D01*
X59790000Y-87330000D02*
X59790000Y-79710000D01*
X57250000Y-89870000D02*
X59790000Y-87330000D01*
X54710000Y-89870000D02*
X57250000Y-89870000D01*
X14070000Y-72090000D02*
X15340000Y-70820000D01*
X20420000Y-70820000D02*
X15340000Y-70820000D01*
X21690000Y-72090000D02*
X20420000Y-70820000D01*
X42010000Y-61930000D02*
X57250000Y-61930000D01*
X64870000Y-60660000D02*
X64870000Y-61930000D01*
X64870000Y-60660000D02*
X64870000Y-59390000D01*
X45820000Y-58120000D02*
X67410000Y-58120000D01*
X44550000Y-59390000D02*
X45820000Y-58120000D01*
X67410000Y-58120000D02*
X68680000Y-59390000D01*
G36*
X131075000Y-98675000D02*
X525000Y-98675000D01*
X525000Y-93152649D01*
X2699350Y-93152649D01*
X3269051Y-94531429D01*
X4323022Y-95587242D01*
X5700806Y-96159348D01*
X7192649Y-96160650D01*
X8571429Y-95590949D01*
X9627242Y-94536978D01*
X10199348Y-93159194D01*
X10200650Y-91667351D01*
X9630949Y-90288571D01*
X8576978Y-89232758D01*
X7199194Y-88660652D01*
X5707351Y-88659350D01*
X4328571Y-89229051D01*
X3272758Y-90283022D01*
X2700652Y-91660806D01*
X2699350Y-93152649D01*
X525000Y-93152649D01*
X525000Y-69698530D01*
X13319870Y-69698530D01*
X13433811Y-69974286D01*
X13644605Y-70185448D01*
X13920161Y-70299869D01*
X14218530Y-70300130D01*
X14494286Y-70186189D01*
X14530538Y-70150000D01*
X16149219Y-70150000D01*
X16184605Y-70185448D01*
X16267815Y-70220000D01*
X15340000Y-70220000D01*
X15110390Y-70265672D01*
X14915736Y-70395736D01*
X13971558Y-71339914D01*
X13921470Y-71339870D01*
X13645714Y-71453811D01*
X13434552Y-71664605D01*
X13320131Y-71940161D01*
X13319870Y-72238530D01*
X13433811Y-72514286D01*
X13644605Y-72725448D01*
X13920161Y-72839869D01*
X14094156Y-72840021D01*
X13990235Y-73090290D01*
X13989766Y-73627353D01*
X14194858Y-74123715D01*
X14574288Y-74503807D01*
X14878330Y-74630056D01*
X14576285Y-74754858D01*
X14196193Y-75134288D01*
X13990235Y-75630290D01*
X13989766Y-76167353D01*
X14194858Y-76663715D01*
X14574288Y-77043807D01*
X14878330Y-77170056D01*
X14576285Y-77294858D01*
X14196193Y-77674288D01*
X13990235Y-78170290D01*
X13989766Y-78707353D01*
X14194858Y-79203715D01*
X14574288Y-79583807D01*
X14878330Y-79710056D01*
X14576285Y-79834858D01*
X14196193Y-80214288D01*
X13990235Y-80710290D01*
X13989766Y-81247353D01*
X14194858Y-81743715D01*
X14574288Y-82123807D01*
X14878330Y-82250056D01*
X14576285Y-82374858D01*
X14196193Y-82754288D01*
X13990235Y-83250290D01*
X13989766Y-83787353D01*
X14194858Y-84283715D01*
X14574288Y-84663807D01*
X14878330Y-84790056D01*
X14576285Y-84914858D01*
X14196193Y-85294288D01*
X13990235Y-85790290D01*
X13989766Y-86327353D01*
X14194858Y-86823715D01*
X14574288Y-87203807D01*
X14878330Y-87330056D01*
X14576285Y-87454858D01*
X14196193Y-87834288D01*
X13990235Y-88330290D01*
X13989766Y-88867353D01*
X14194858Y-89363715D01*
X14574288Y-89743807D01*
X14878330Y-89870056D01*
X14576285Y-89994858D01*
X14196193Y-90374288D01*
X13990235Y-90870290D01*
X13989766Y-91407353D01*
X14194858Y-91903715D01*
X14574288Y-92283807D01*
X15070290Y-92489765D01*
X15607353Y-92490234D01*
X16103715Y-92285142D01*
X16483807Y-91905712D01*
X16610056Y-91601670D01*
X16734858Y-91903715D01*
X17114288Y-92283807D01*
X17610290Y-92489765D01*
X18147353Y-92490234D01*
X18643715Y-92285142D01*
X19023807Y-91905712D01*
X19150056Y-91601670D01*
X19274858Y-91903715D01*
X19654288Y-92283807D01*
X20150290Y-92489765D01*
X20687353Y-92490234D01*
X21183715Y-92285142D01*
X21563807Y-91905712D01*
X21769765Y-91409710D01*
X21770234Y-90872647D01*
X21565142Y-90376285D01*
X21185712Y-89996193D01*
X20881670Y-89869944D01*
X21183715Y-89745142D01*
X21563807Y-89365712D01*
X21769765Y-88869710D01*
X21770234Y-88332647D01*
X21565142Y-87836285D01*
X21185712Y-87456193D01*
X20881670Y-87329944D01*
X21183715Y-87205142D01*
X21563807Y-86825712D01*
X21769765Y-86329710D01*
X21770234Y-85792647D01*
X21718209Y-85666737D01*
X22209914Y-86158442D01*
X22209870Y-86208530D01*
X22323811Y-86484286D01*
X22534605Y-86695448D01*
X22810161Y-86809869D01*
X23108530Y-86810130D01*
X23384286Y-86696189D01*
X23595448Y-86485395D01*
X23709869Y-86209839D01*
X23710130Y-85911470D01*
X23596189Y-85635714D01*
X23385395Y-85424552D01*
X23109839Y-85310131D01*
X23058614Y-85310086D01*
X22114264Y-84365736D01*
X21919610Y-84235672D01*
X21690000Y-84190000D01*
X21603550Y-84190000D01*
X21769765Y-83789710D01*
X21770234Y-83252647D01*
X21565142Y-82756285D01*
X21185712Y-82376193D01*
X20881670Y-82249944D01*
X21183715Y-82125142D01*
X21563807Y-81745712D01*
X21769765Y-81249710D01*
X21770234Y-80712647D01*
X21603864Y-80310000D01*
X23769219Y-80310000D01*
X23804605Y-80345448D01*
X24080161Y-80459869D01*
X24378530Y-80460130D01*
X24654286Y-80346189D01*
X24865448Y-80135395D01*
X24979869Y-79859839D01*
X24980130Y-79561470D01*
X24866189Y-79285714D01*
X24655395Y-79074552D01*
X24379839Y-78960131D01*
X24081470Y-78959870D01*
X23805714Y-79073811D01*
X23769462Y-79110000D01*
X21603550Y-79110000D01*
X21769765Y-78709710D01*
X21770234Y-78172647D01*
X21565142Y-77676285D01*
X21185712Y-77296193D01*
X20881670Y-77169944D01*
X21183715Y-77045142D01*
X21563807Y-76665712D01*
X21769765Y-76169710D01*
X21770234Y-75632647D01*
X21565142Y-75136285D01*
X21185712Y-74756193D01*
X20881670Y-74629944D01*
X21183715Y-74505142D01*
X21563807Y-74125712D01*
X21769765Y-73629710D01*
X21770234Y-73092647D01*
X21665834Y-72839979D01*
X21838530Y-72840130D01*
X22114286Y-72726189D01*
X22325448Y-72515395D01*
X22439869Y-72239839D01*
X22440130Y-71941470D01*
X22326189Y-71665714D01*
X22115395Y-71454552D01*
X21839839Y-71340131D01*
X21788614Y-71340086D01*
X20844264Y-70395736D01*
X20649610Y-70265672D01*
X20420000Y-70220000D01*
X16952458Y-70220000D01*
X17034286Y-70186189D01*
X17245448Y-69975395D01*
X17359869Y-69699839D01*
X17360130Y-69401470D01*
X17246189Y-69125714D01*
X17035395Y-68914552D01*
X16759839Y-68800131D01*
X16461470Y-68799870D01*
X16185714Y-68913811D01*
X16149462Y-68950000D01*
X14530781Y-68950000D01*
X14495395Y-68914552D01*
X14219839Y-68800131D01*
X13921470Y-68799870D01*
X13645714Y-68913811D01*
X13434552Y-69124605D01*
X13320131Y-69400161D01*
X13319870Y-69698530D01*
X525000Y-69698530D01*
X525000Y-60808530D01*
X17129870Y-60808530D01*
X17243811Y-61084286D01*
X17454340Y-61295183D01*
X17244552Y-61504605D01*
X17130131Y-61780161D01*
X17129870Y-62078530D01*
X17243811Y-62354286D01*
X17454340Y-62565183D01*
X17244552Y-62774605D01*
X17130131Y-63050161D01*
X17129870Y-63348530D01*
X17243811Y-63624286D01*
X17454605Y-63835448D01*
X17730161Y-63949869D01*
X18028530Y-63950130D01*
X18304286Y-63836189D01*
X18340538Y-63800000D01*
X25039219Y-63800000D01*
X25074605Y-63835448D01*
X25350161Y-63949869D01*
X25648530Y-63950130D01*
X25924286Y-63836189D01*
X26135448Y-63625395D01*
X26249869Y-63349839D01*
X26250130Y-63051470D01*
X26136189Y-62775714D01*
X25925395Y-62564552D01*
X25649839Y-62450131D01*
X25351470Y-62449870D01*
X25075714Y-62563811D01*
X25039462Y-62600000D01*
X24572458Y-62600000D01*
X24654286Y-62566189D01*
X24865448Y-62355395D01*
X24979869Y-62079839D01*
X24979870Y-62078530D01*
X26019870Y-62078530D01*
X26133811Y-62354286D01*
X26344605Y-62565448D01*
X26620161Y-62679869D01*
X26918530Y-62680130D01*
X27194286Y-62566189D01*
X27230538Y-62530000D01*
X27791472Y-62530000D01*
X47760000Y-82498528D01*
X47760000Y-91140000D01*
X47805672Y-91369610D01*
X47935736Y-91564264D01*
X50475736Y-94104264D01*
X50670390Y-94234328D01*
X50900000Y-94280000D01*
X53440000Y-94280000D01*
X53669610Y-94234328D01*
X53864264Y-94104264D01*
X54815879Y-93152649D01*
X120809350Y-93152649D01*
X121379051Y-94531429D01*
X122433022Y-95587242D01*
X123810806Y-96159348D01*
X125302649Y-96160650D01*
X126681429Y-95590949D01*
X127737242Y-94536978D01*
X128309348Y-93159194D01*
X128310650Y-91667351D01*
X127740949Y-90288571D01*
X126686978Y-89232758D01*
X125309194Y-88660652D01*
X123817351Y-88659350D01*
X122438571Y-89229051D01*
X121382758Y-90283022D01*
X120810652Y-91660806D01*
X120809350Y-93152649D01*
X54815879Y-93152649D01*
X55546694Y-92421834D01*
X55710290Y-92489765D01*
X56247353Y-92490234D01*
X56743715Y-92285142D01*
X57123807Y-91905712D01*
X57329765Y-91409710D01*
X57330234Y-90872647D01*
X57163864Y-90470000D01*
X57250000Y-90470000D01*
X57479610Y-90424328D01*
X57674264Y-90294264D01*
X60214264Y-87754264D01*
X60344328Y-87559611D01*
X60390000Y-87330000D01*
X60390000Y-78901190D01*
X60410000Y-78921225D01*
X60410000Y-83520000D01*
X60451269Y-83727476D01*
X60459478Y-83768745D01*
X60600381Y-83979619D01*
X61529895Y-84909134D01*
X61529861Y-84948432D01*
X61651397Y-85242572D01*
X61876245Y-85467812D01*
X62170172Y-85589861D01*
X62488432Y-85590139D01*
X62782572Y-85468603D01*
X63007812Y-85243755D01*
X63129861Y-84949828D01*
X63130139Y-84631568D01*
X63008603Y-84337428D01*
X62783755Y-84112188D01*
X62489828Y-83990139D01*
X62449342Y-83990104D01*
X61710000Y-83250762D01*
X61710000Y-78921519D01*
X61737812Y-78893755D01*
X61859861Y-78599828D01*
X61860139Y-78281568D01*
X61738603Y-77987428D01*
X61513755Y-77762188D01*
X61219828Y-77640139D01*
X60901568Y-77639861D01*
X60607428Y-77761397D01*
X60390000Y-77978447D01*
X60390000Y-61120781D01*
X60425448Y-61085395D01*
X60539869Y-60809839D01*
X60540130Y-60511470D01*
X60426189Y-60235714D01*
X60215395Y-60024552D01*
X59939839Y-59910131D01*
X59641470Y-59909870D01*
X59365714Y-60023811D01*
X59154817Y-60234340D01*
X58945395Y-60024552D01*
X58669839Y-59910131D01*
X58371470Y-59909870D01*
X58095714Y-60023811D01*
X57884552Y-60234605D01*
X57770131Y-60510161D01*
X57769870Y-60808530D01*
X57883811Y-61084286D01*
X57920000Y-61120538D01*
X57920000Y-61587542D01*
X57886189Y-61505714D01*
X57675395Y-61294552D01*
X57399839Y-61180131D01*
X57101470Y-61179870D01*
X56825714Y-61293811D01*
X56789462Y-61330000D01*
X47432458Y-61330000D01*
X47514286Y-61296189D01*
X47725448Y-61085395D01*
X47839869Y-60809839D01*
X47840130Y-60511470D01*
X47726189Y-60235714D01*
X47515395Y-60024552D01*
X47239839Y-59910131D01*
X46941470Y-59909870D01*
X46665714Y-60023811D01*
X46629462Y-60060000D01*
X45010781Y-60060000D01*
X44975660Y-60024817D01*
X45185448Y-59815395D01*
X45299869Y-59539839D01*
X45299914Y-59488614D01*
X46068528Y-58720000D01*
X64527542Y-58720000D01*
X64445714Y-58753811D01*
X64234552Y-58964605D01*
X64120131Y-59240161D01*
X64119870Y-59538530D01*
X64233811Y-59814286D01*
X64270000Y-59850538D01*
X64270000Y-61469219D01*
X64234552Y-61504605D01*
X64120131Y-61780161D01*
X64119870Y-62078530D01*
X64233811Y-62354286D01*
X64444605Y-62565448D01*
X64720161Y-62679869D01*
X65018530Y-62680130D01*
X65294286Y-62566189D01*
X65505448Y-62355395D01*
X65538456Y-62275901D01*
X83070883Y-62275901D01*
X83110797Y-62430137D01*
X83414789Y-62958133D01*
X83897696Y-63329605D01*
X84486000Y-63488000D01*
X85086000Y-63488000D01*
X85086000Y-62034000D01*
X85294000Y-62034000D01*
X85294000Y-63488000D01*
X85894000Y-63488000D01*
X86482304Y-63329605D01*
X86965211Y-62958133D01*
X87269203Y-62430137D01*
X87309117Y-62275901D01*
X87179614Y-62034000D01*
X85294000Y-62034000D01*
X85086000Y-62034000D01*
X83200386Y-62034000D01*
X83070883Y-62275901D01*
X65538456Y-62275901D01*
X65619869Y-62079839D01*
X65620130Y-61781470D01*
X65506189Y-61505714D01*
X65470000Y-61469462D01*
X65470000Y-59850781D01*
X65505448Y-59815395D01*
X65619869Y-59539839D01*
X65620130Y-59241470D01*
X65506189Y-58965714D01*
X65295395Y-58754552D01*
X65212185Y-58720000D01*
X67161472Y-58720000D01*
X67929914Y-59488442D01*
X67929870Y-59538530D01*
X68043811Y-59814286D01*
X68254605Y-60025448D01*
X68530161Y-60139869D01*
X68828530Y-60140130D01*
X69104286Y-60026189D01*
X69315448Y-59815395D01*
X69429869Y-59539839D01*
X69430130Y-59241470D01*
X69316189Y-58965714D01*
X69105395Y-58754552D01*
X68829839Y-58640131D01*
X68778614Y-58640086D01*
X67834264Y-57695736D01*
X67639610Y-57565672D01*
X67410000Y-57520000D01*
X45820000Y-57520000D01*
X45590390Y-57565672D01*
X45395736Y-57695736D01*
X44451558Y-58639914D01*
X44401470Y-58639870D01*
X44125714Y-58753811D01*
X43914552Y-58964605D01*
X43800131Y-59240161D01*
X43799870Y-59538530D01*
X43913811Y-59814286D01*
X44124340Y-60025183D01*
X43914552Y-60234605D01*
X43800131Y-60510161D01*
X43799870Y-60808530D01*
X43913811Y-61084286D01*
X44124605Y-61295448D01*
X44207815Y-61330000D01*
X42470781Y-61330000D01*
X42435660Y-61294817D01*
X42645448Y-61085395D01*
X42759869Y-60809839D01*
X42760130Y-60511470D01*
X42646189Y-60235714D01*
X42610000Y-60199462D01*
X42610000Y-59638528D01*
X43378442Y-58870086D01*
X43428530Y-58870130D01*
X43704286Y-58756189D01*
X43915448Y-58545395D01*
X44029869Y-58269839D01*
X44030130Y-57971470D01*
X43916189Y-57695714D01*
X43705395Y-57484552D01*
X43429839Y-57370131D01*
X43131470Y-57369870D01*
X42855714Y-57483811D01*
X42644817Y-57694340D01*
X42435395Y-57484552D01*
X42159839Y-57370131D01*
X41861470Y-57369870D01*
X41585714Y-57483811D01*
X41374552Y-57694605D01*
X41260131Y-57970161D01*
X41260086Y-58021386D01*
X40315736Y-58965736D01*
X40185672Y-59160390D01*
X40140000Y-59390000D01*
X40140000Y-61587542D01*
X40106189Y-61505714D01*
X40070000Y-61469462D01*
X40070000Y-58580781D01*
X40105448Y-58545395D01*
X40219869Y-58269839D01*
X40220130Y-57971470D01*
X40106189Y-57695714D01*
X39895395Y-57484552D01*
X39619839Y-57370131D01*
X39321470Y-57369870D01*
X39045714Y-57483811D01*
X39000000Y-57529445D01*
X39000000Y-52313728D01*
X39004902Y-52308835D01*
X39149835Y-51959796D01*
X39149842Y-51951528D01*
X39651212Y-51450159D01*
X39658138Y-51450165D01*
X40007429Y-51305841D01*
X40274902Y-51038835D01*
X40419835Y-50689796D01*
X40420165Y-50311862D01*
X40275841Y-49962571D01*
X40008835Y-49695098D01*
X39659796Y-49550165D01*
X39651528Y-49550158D01*
X38765687Y-48664317D01*
X38765685Y-48664314D01*
X37880159Y-47778789D01*
X37880165Y-47771862D01*
X37735841Y-47422571D01*
X37468835Y-47155098D01*
X37119796Y-47010165D01*
X36741862Y-47009835D01*
X36392571Y-47154159D01*
X36125098Y-47421165D01*
X35980165Y-47770204D01*
X35979835Y-48148138D01*
X36124159Y-48497429D01*
X36391165Y-48764902D01*
X36740204Y-48909835D01*
X36748472Y-48909842D01*
X37634314Y-49795685D01*
X37634317Y-49795687D01*
X38338629Y-50500000D01*
X38018789Y-50819841D01*
X38011862Y-50819835D01*
X37662571Y-50964159D01*
X37395098Y-51231165D01*
X37250165Y-51580204D01*
X37249835Y-51958138D01*
X37394159Y-52307429D01*
X37400000Y-52313280D01*
X37400000Y-69171472D01*
X28790086Y-60561558D01*
X28790130Y-60511470D01*
X28676189Y-60235714D01*
X28465395Y-60024552D01*
X28189839Y-59910131D01*
X27891470Y-59909870D01*
X27615714Y-60023811D01*
X27404552Y-60234605D01*
X27290131Y-60510161D01*
X27289870Y-60808530D01*
X27403811Y-61084286D01*
X27614605Y-61295448D01*
X27697815Y-61330000D01*
X27230781Y-61330000D01*
X27195395Y-61294552D01*
X26919839Y-61180131D01*
X26621470Y-61179870D01*
X26345714Y-61293811D01*
X26134552Y-61504605D01*
X26020131Y-61780161D01*
X26019870Y-62078530D01*
X24979870Y-62078530D01*
X24980130Y-61781470D01*
X24866189Y-61505714D01*
X24655395Y-61294552D01*
X24379839Y-61180131D01*
X24081470Y-61179870D01*
X23805714Y-61293811D01*
X23769462Y-61330000D01*
X23302458Y-61330000D01*
X23384286Y-61296189D01*
X23595448Y-61085395D01*
X23709869Y-60809839D01*
X23710130Y-60511470D01*
X23596189Y-60235714D01*
X23385395Y-60024552D01*
X23109839Y-59910131D01*
X22811470Y-59909870D01*
X22535714Y-60023811D01*
X22499462Y-60060000D01*
X18340781Y-60060000D01*
X18305395Y-60024552D01*
X18029839Y-59910131D01*
X17731470Y-59909870D01*
X17455714Y-60023811D01*
X17244552Y-60234605D01*
X17130131Y-60510161D01*
X17129870Y-60808530D01*
X525000Y-60808530D01*
X525000Y-25258432D01*
X28509861Y-25258432D01*
X28631397Y-25552572D01*
X28856245Y-25777812D01*
X29150172Y-25899861D01*
X29468432Y-25900139D01*
X29762572Y-25778603D01*
X29791225Y-25750000D01*
X30068723Y-25750000D01*
X29902188Y-25916245D01*
X29780139Y-26210172D01*
X29779861Y-26528432D01*
X29901397Y-26822572D01*
X30126245Y-27047812D01*
X30420172Y-27169861D01*
X30738432Y-27170139D01*
X31032572Y-27048603D01*
X31061225Y-27020000D01*
X31338723Y-27020000D01*
X31172188Y-27186245D01*
X31050139Y-27480172D01*
X31049861Y-27798432D01*
X31171397Y-28092572D01*
X31396245Y-28317812D01*
X31690172Y-28439861D01*
X32008432Y-28440139D01*
X32302572Y-28318603D01*
X32331225Y-28290000D01*
X32608723Y-28290000D01*
X32442188Y-28456245D01*
X32320139Y-28750172D01*
X32319861Y-29068432D01*
X32441397Y-29362572D01*
X32666245Y-29587812D01*
X32960172Y-29709861D01*
X33278432Y-29710139D01*
X33572572Y-29588603D01*
X33601225Y-29560000D01*
X33878723Y-29560000D01*
X33712188Y-29726245D01*
X33590139Y-30020172D01*
X33589861Y-30338432D01*
X33711397Y-30632572D01*
X33936245Y-30857812D01*
X34230172Y-30979861D01*
X34548432Y-30980139D01*
X34842572Y-30858603D01*
X34871225Y-30830000D01*
X35148723Y-30830000D01*
X34982188Y-30996245D01*
X34860139Y-31290172D01*
X34859861Y-31608432D01*
X34981397Y-31902572D01*
X35206245Y-32127812D01*
X35500172Y-32249861D01*
X35818432Y-32250139D01*
X36112572Y-32128603D01*
X36141225Y-32100000D01*
X36418723Y-32100000D01*
X36252188Y-32266245D01*
X36130139Y-32560172D01*
X36129861Y-32878432D01*
X36251397Y-33172572D01*
X36476245Y-33397812D01*
X36770172Y-33519861D01*
X37088432Y-33520139D01*
X37382572Y-33398603D01*
X37411225Y-33370000D01*
X38958723Y-33370000D01*
X38792188Y-33536245D01*
X38670139Y-33830172D01*
X38669861Y-34148432D01*
X38791397Y-34442572D01*
X39016245Y-34667812D01*
X39310172Y-34789861D01*
X39350658Y-34789896D01*
X49170381Y-44609620D01*
X49381256Y-44750522D01*
X49630000Y-44800000D01*
X53776384Y-44800000D01*
X53610192Y-45200237D01*
X53609810Y-45637844D01*
X53776922Y-46042286D01*
X54086087Y-46351991D01*
X54490237Y-46519808D01*
X54927844Y-46520190D01*
X55291332Y-46370000D01*
X56669458Y-46370000D01*
X57030237Y-46519808D01*
X57467844Y-46520190D01*
X57831332Y-46370000D01*
X74636498Y-46370000D01*
X76487743Y-48221246D01*
X76636922Y-48582286D01*
X76946087Y-48891991D01*
X77309312Y-49042815D01*
X77757743Y-49491246D01*
X77906922Y-49852286D01*
X78216087Y-50161991D01*
X78620237Y-50329808D01*
X79057844Y-50330190D01*
X79462286Y-50163078D01*
X79771991Y-49853913D01*
X79939808Y-49449763D01*
X79940190Y-49012156D01*
X79773078Y-48607714D01*
X79463913Y-48298009D01*
X79100688Y-48147186D01*
X78652257Y-47698755D01*
X78503078Y-47337714D01*
X78193913Y-47028009D01*
X77830689Y-46877186D01*
X75753502Y-44800000D01*
X76030762Y-44800000D01*
X83251715Y-52020954D01*
X83304560Y-52286623D01*
X83597203Y-52724594D01*
X84035174Y-53017237D01*
X84149611Y-53040000D01*
X84035174Y-53062763D01*
X83597203Y-53355406D01*
X83304560Y-53793377D01*
X83201797Y-54310000D01*
X83304560Y-54826623D01*
X83597203Y-55264594D01*
X84035174Y-55557237D01*
X84149611Y-55580000D01*
X84035174Y-55602763D01*
X83597203Y-55895406D01*
X83304560Y-56333377D01*
X83201797Y-56850000D01*
X83304560Y-57366623D01*
X83597203Y-57804594D01*
X84035174Y-58097237D01*
X84149611Y-58120000D01*
X84035174Y-58142763D01*
X83597203Y-58435406D01*
X83304560Y-58873377D01*
X83201797Y-59390000D01*
X83304560Y-59906623D01*
X83597203Y-60344594D01*
X83887273Y-60538413D01*
X83414789Y-60901867D01*
X83110797Y-61429863D01*
X83070883Y-61584099D01*
X83200386Y-61826000D01*
X85086000Y-61826000D01*
X85086000Y-61806000D01*
X85294000Y-61806000D01*
X85294000Y-61826000D01*
X87179614Y-61826000D01*
X87309117Y-61584099D01*
X87269203Y-61429863D01*
X86965211Y-60901867D01*
X86492727Y-60538413D01*
X86782797Y-60344594D01*
X87075440Y-59906623D01*
X87178203Y-59390000D01*
X87075440Y-58873377D01*
X86782797Y-58435406D01*
X86344826Y-58142763D01*
X86230389Y-58120000D01*
X86344826Y-58097237D01*
X86782797Y-57804594D01*
X87075440Y-57366623D01*
X87178203Y-56850000D01*
X87075440Y-56333377D01*
X86782797Y-55895406D01*
X86344826Y-55602763D01*
X86230389Y-55580000D01*
X86344826Y-55557237D01*
X86782797Y-55264594D01*
X87075440Y-54826623D01*
X87178203Y-54310000D01*
X87075440Y-53793377D01*
X86782797Y-53355406D01*
X86344826Y-53062763D01*
X86230389Y-53040000D01*
X86344826Y-53017237D01*
X86782797Y-52724594D01*
X87075440Y-52286623D01*
X87178203Y-51770000D01*
X87075440Y-51253377D01*
X86782797Y-50815406D01*
X86344826Y-50522763D01*
X86230389Y-50500000D01*
X86344826Y-50477237D01*
X86782797Y-50184594D01*
X87075440Y-49746623D01*
X87178203Y-49230000D01*
X87075440Y-48713377D01*
X86782797Y-48275406D01*
X86344826Y-47982763D01*
X86230389Y-47960000D01*
X86344826Y-47937237D01*
X86782797Y-47644594D01*
X87075440Y-47206623D01*
X87178203Y-46690000D01*
X87075440Y-46173377D01*
X86782797Y-45735406D01*
X86344826Y-45442763D01*
X86230389Y-45420000D01*
X86344826Y-45397237D01*
X86782797Y-45104594D01*
X87075440Y-44666623D01*
X87178203Y-44150000D01*
X87075440Y-43633377D01*
X86782797Y-43195406D01*
X86344826Y-42902763D01*
X86230389Y-42880000D01*
X86344826Y-42857237D01*
X86782797Y-42564594D01*
X87075440Y-42126623D01*
X87178203Y-41610000D01*
X87075440Y-41093377D01*
X86782797Y-40655406D01*
X86344826Y-40362763D01*
X86230389Y-40340000D01*
X86344826Y-40317237D01*
X86782797Y-40024594D01*
X87075440Y-39586623D01*
X87178203Y-39070000D01*
X87075440Y-38553377D01*
X86782797Y-38115406D01*
X86344826Y-37822763D01*
X86230389Y-37800000D01*
X86344826Y-37777237D01*
X86782797Y-37484594D01*
X87075440Y-37046623D01*
X87178203Y-36530000D01*
X87075440Y-36013377D01*
X86782797Y-35575406D01*
X86344826Y-35282763D01*
X86230389Y-35260000D01*
X86344826Y-35237237D01*
X86782797Y-34944594D01*
X87075440Y-34506623D01*
X87178203Y-33990000D01*
X87075440Y-33473377D01*
X86782797Y-33035406D01*
X86344826Y-32742763D01*
X86230389Y-32720000D01*
X86344826Y-32697237D01*
X86782797Y-32404594D01*
X87075440Y-31966623D01*
X87178203Y-31450000D01*
X87075440Y-30933377D01*
X86782797Y-30495406D01*
X86344826Y-30202763D01*
X86230389Y-30180000D01*
X86344826Y-30157237D01*
X86782797Y-29864594D01*
X87075440Y-29426623D01*
X87178203Y-28910000D01*
X87075440Y-28393377D01*
X86782797Y-27955406D01*
X86344826Y-27662763D01*
X86230389Y-27640000D01*
X86344826Y-27617237D01*
X86782797Y-27324594D01*
X87075440Y-26886623D01*
X87178203Y-26370000D01*
X87075440Y-25853377D01*
X86782797Y-25415406D01*
X86344826Y-25122763D01*
X86230389Y-25100000D01*
X86344826Y-25077237D01*
X86782797Y-24784594D01*
X87075440Y-24346623D01*
X87178203Y-23830000D01*
X87075440Y-23313377D01*
X86782797Y-22875406D01*
X86344826Y-22582763D01*
X85828203Y-22480000D01*
X84551797Y-22480000D01*
X84035174Y-22582763D01*
X83597203Y-22875406D01*
X83304560Y-23313377D01*
X83251715Y-23579047D01*
X77300762Y-29530000D01*
X76811277Y-29530000D01*
X76977812Y-29363755D01*
X77099861Y-29069828D01*
X77100139Y-28751568D01*
X76978603Y-28457428D01*
X76753755Y-28232188D01*
X76459828Y-28110139D01*
X76141568Y-28109861D01*
X75847428Y-28231397D01*
X75622188Y-28456245D01*
X75500139Y-28750172D01*
X75499861Y-29068432D01*
X75621397Y-29362572D01*
X75788534Y-29530000D01*
X69330000Y-29530000D01*
X69330000Y-25100000D01*
X69280522Y-24851256D01*
X69232910Y-24780000D01*
X69139620Y-24640381D01*
X65329619Y-20830381D01*
X65118745Y-20689478D01*
X65077476Y-20681269D01*
X64870000Y-20640000D01*
X64081519Y-20640000D01*
X64053755Y-20612188D01*
X63759828Y-20490139D01*
X63441568Y-20489861D01*
X63147428Y-20611397D01*
X62980000Y-20778534D01*
X62980000Y-20289238D01*
X63869239Y-19400000D01*
X65658481Y-19400000D01*
X65686245Y-19427812D01*
X65980172Y-19549861D01*
X66298432Y-19550139D01*
X66592572Y-19428603D01*
X66775121Y-19246372D01*
X66956245Y-19427812D01*
X67250172Y-19549861D01*
X67568432Y-19550139D01*
X67862572Y-19428603D01*
X68087812Y-19203755D01*
X68209861Y-18909828D01*
X68210139Y-18591568D01*
X68088603Y-18297428D01*
X67863755Y-18072188D01*
X67569828Y-17950139D01*
X67529342Y-17950104D01*
X66599619Y-17020381D01*
X66388745Y-16879478D01*
X66347476Y-16871269D01*
X66140000Y-16830000D01*
X63600000Y-16830000D01*
X63351256Y-16879478D01*
X63351254Y-16879479D01*
X63351255Y-16879479D01*
X63140380Y-17020381D01*
X60600381Y-19560381D01*
X60459478Y-19771255D01*
X60459478Y-19771256D01*
X60410000Y-20020000D01*
X60410000Y-20808481D01*
X60382188Y-20836245D01*
X60260139Y-21130172D01*
X60259861Y-21448432D01*
X60381397Y-21742572D01*
X60606245Y-21967812D01*
X60900172Y-22089861D01*
X60940658Y-22089896D01*
X64220000Y-25369239D01*
X64220000Y-29698481D01*
X64192188Y-29726245D01*
X64070139Y-30020172D01*
X64069861Y-30338432D01*
X64191397Y-30632572D01*
X64416245Y-30857812D01*
X64710172Y-30979861D01*
X65028432Y-30980139D01*
X65322572Y-30858603D01*
X65505121Y-30676372D01*
X65686245Y-30857812D01*
X65980172Y-30979861D01*
X66298432Y-30980139D01*
X66592572Y-30858603D01*
X66760000Y-30691466D01*
X66760000Y-30968481D01*
X66732188Y-30996245D01*
X66610139Y-31290172D01*
X66609861Y-31608432D01*
X66731397Y-31902572D01*
X66898534Y-32070000D01*
X61329239Y-32070000D01*
X59320105Y-30060867D01*
X59320139Y-30021568D01*
X59198603Y-29727428D01*
X59170000Y-29698775D01*
X59170000Y-26528432D01*
X60259861Y-26528432D01*
X60381397Y-26822572D01*
X60410000Y-26851225D01*
X60410000Y-29698481D01*
X60382188Y-29726245D01*
X60260139Y-30020172D01*
X60259861Y-30338432D01*
X60381397Y-30632572D01*
X60606245Y-30857812D01*
X60900172Y-30979861D01*
X61218432Y-30980139D01*
X61512572Y-30858603D01*
X61695121Y-30676372D01*
X61876245Y-30857812D01*
X62170172Y-30979861D01*
X62488432Y-30980139D01*
X62782572Y-30858603D01*
X63007812Y-30633755D01*
X63129861Y-30339828D01*
X63130139Y-30021568D01*
X63008603Y-29727428D01*
X62980000Y-29698775D01*
X62980000Y-28121519D01*
X63007812Y-28093755D01*
X63129861Y-27799828D01*
X63130139Y-27481568D01*
X63008603Y-27187428D01*
X62783755Y-26962188D01*
X62489828Y-26840139D01*
X62171568Y-26839861D01*
X61877428Y-26961397D01*
X61710000Y-27128534D01*
X61710000Y-26851519D01*
X61737812Y-26823755D01*
X61859861Y-26529828D01*
X61860139Y-26211568D01*
X61738603Y-25917428D01*
X61513755Y-25692188D01*
X61219828Y-25570139D01*
X60901568Y-25569861D01*
X60607428Y-25691397D01*
X60382188Y-25916245D01*
X60260139Y-26210172D01*
X60259861Y-26528432D01*
X59170000Y-26528432D01*
X59170000Y-25100000D01*
X59120522Y-24851256D01*
X59120522Y-24851255D01*
X58979619Y-24640381D01*
X54240105Y-19900867D01*
X54240139Y-19861568D01*
X54118603Y-19567428D01*
X53893755Y-19342188D01*
X53599828Y-19220139D01*
X53281568Y-19219861D01*
X52987428Y-19341397D01*
X52762188Y-19566245D01*
X52640139Y-19860172D01*
X52639861Y-20178432D01*
X52761397Y-20472572D01*
X52986245Y-20697812D01*
X53280172Y-20819861D01*
X53320658Y-20819896D01*
X57870000Y-25369238D01*
X57870000Y-26219179D01*
X57850522Y-26121256D01*
X57850522Y-26121255D01*
X57709619Y-25910381D01*
X51359619Y-19560381D01*
X51148745Y-19419478D01*
X51107476Y-19411269D01*
X50900000Y-19370000D01*
X50111519Y-19370000D01*
X50083755Y-19342188D01*
X49789828Y-19220139D01*
X49471568Y-19219861D01*
X49177428Y-19341397D01*
X48952188Y-19566245D01*
X48830139Y-19860172D01*
X48829861Y-20178432D01*
X48951397Y-20472572D01*
X49176245Y-20697812D01*
X49470172Y-20819861D01*
X49788432Y-20820139D01*
X50082572Y-20698603D01*
X50111225Y-20670000D01*
X50630762Y-20670000D01*
X53075690Y-23114928D01*
X52987428Y-23151397D01*
X52762188Y-23376245D01*
X52640139Y-23670172D01*
X52639861Y-23988432D01*
X52761397Y-24282572D01*
X52790000Y-24311225D01*
X52790000Y-29698481D01*
X52762188Y-29726245D01*
X52640139Y-30020172D01*
X52639861Y-30338432D01*
X52761397Y-30632572D01*
X52986245Y-30857812D01*
X53280172Y-30979861D01*
X53598432Y-30980139D01*
X53892572Y-30858603D01*
X54075121Y-30676372D01*
X54256245Y-30857812D01*
X54550172Y-30979861D01*
X54868432Y-30980139D01*
X55162572Y-30858603D01*
X55387812Y-30633755D01*
X55509861Y-30339828D01*
X55510139Y-30021568D01*
X55388603Y-29727428D01*
X55360000Y-29698775D01*
X55360000Y-25581519D01*
X55387812Y-25553755D01*
X55424988Y-25464226D01*
X56600000Y-26639238D01*
X56600000Y-30180000D01*
X56631514Y-30338432D01*
X56649478Y-30428745D01*
X56790381Y-30639619D01*
X57719895Y-31569134D01*
X57719861Y-31608432D01*
X57841397Y-31902572D01*
X58066245Y-32127812D01*
X58360172Y-32249861D01*
X58400658Y-32249896D01*
X60600380Y-34449619D01*
X60685693Y-34506623D01*
X60811256Y-34590522D01*
X60909179Y-34610000D01*
X49899239Y-34610000D01*
X48167671Y-32878432D01*
X48829861Y-32878432D01*
X48951397Y-33172572D01*
X49176245Y-33397812D01*
X49470172Y-33519861D01*
X49788432Y-33520139D01*
X50082572Y-33398603D01*
X50111225Y-33370000D01*
X55498481Y-33370000D01*
X55526245Y-33397812D01*
X55820172Y-33519861D01*
X56138432Y-33520139D01*
X56432572Y-33398603D01*
X56657812Y-33173755D01*
X56779861Y-32879828D01*
X56780139Y-32561568D01*
X56658603Y-32267428D01*
X56433755Y-32042188D01*
X56139828Y-31920139D01*
X55821568Y-31919861D01*
X55527428Y-32041397D01*
X55498775Y-32070000D01*
X50111519Y-32070000D01*
X50083755Y-32042188D01*
X49789828Y-31920139D01*
X49471568Y-31919861D01*
X49177428Y-32041397D01*
X48952188Y-32266245D01*
X48830139Y-32560172D01*
X48829861Y-32878432D01*
X48167671Y-32878432D01*
X40270105Y-24980867D01*
X40270139Y-24941568D01*
X40148603Y-24647428D01*
X39923755Y-24422188D01*
X39629828Y-24300139D01*
X39311568Y-24299861D01*
X39017428Y-24421397D01*
X38988775Y-24450000D01*
X29791519Y-24450000D01*
X29763755Y-24422188D01*
X29469828Y-24300139D01*
X29151568Y-24299861D01*
X28857428Y-24421397D01*
X28632188Y-24646245D01*
X28510139Y-24940172D01*
X28509861Y-25258432D01*
X525000Y-25258432D01*
X525000Y-8062649D01*
X3969350Y-8062649D01*
X4539051Y-9441429D01*
X5593022Y-10497242D01*
X6970806Y-11069348D01*
X8462649Y-11070650D01*
X9841429Y-10500949D01*
X10897242Y-9446978D01*
X11469348Y-8069194D01*
X11470650Y-6577351D01*
X10900949Y-5198571D01*
X10641264Y-4938432D01*
X31049861Y-4938432D01*
X31171397Y-5232572D01*
X31396245Y-5457812D01*
X31690172Y-5579861D01*
X32008432Y-5580139D01*
X32302572Y-5458603D01*
X32331225Y-5430000D01*
X32608723Y-5430000D01*
X32442188Y-5596245D01*
X32320139Y-5890172D01*
X32319861Y-6208432D01*
X32441397Y-6502572D01*
X32666245Y-6727812D01*
X32960172Y-6849861D01*
X33278432Y-6850139D01*
X33572572Y-6728603D01*
X33601225Y-6700000D01*
X33878723Y-6700000D01*
X33712188Y-6866245D01*
X33590139Y-7160172D01*
X33589861Y-7478432D01*
X33711397Y-7772572D01*
X33936245Y-7997812D01*
X34230172Y-8119861D01*
X34548432Y-8120139D01*
X34842572Y-7998603D01*
X34871225Y-7970000D01*
X51688481Y-7970000D01*
X51716245Y-7997812D01*
X52010172Y-8119861D01*
X52328432Y-8120139D01*
X52622572Y-7998603D01*
X52651225Y-7970000D01*
X69468481Y-7970000D01*
X69496245Y-7997812D01*
X69790172Y-8119861D01*
X69830658Y-8119896D01*
X70760380Y-9049619D01*
X70760383Y-9049621D01*
X71890761Y-10180000D01*
X62723503Y-10180000D01*
X62142257Y-9598755D01*
X61993078Y-9237714D01*
X61683913Y-8928009D01*
X61279763Y-8760192D01*
X60842156Y-8759810D01*
X60478668Y-8910000D01*
X59100542Y-8910000D01*
X58739763Y-8760192D01*
X58302156Y-8759810D01*
X57938668Y-8910000D01*
X43860542Y-8910000D01*
X43499763Y-8760192D01*
X43062156Y-8759810D01*
X42657714Y-8926922D01*
X42348009Y-9236087D01*
X42180192Y-9640237D01*
X42179810Y-10077844D01*
X42346922Y-10482286D01*
X42656087Y-10791991D01*
X43060237Y-10959808D01*
X43497844Y-10960190D01*
X43861332Y-10810000D01*
X57939458Y-10810000D01*
X58300237Y-10959808D01*
X58737844Y-10960190D01*
X59101332Y-10810000D01*
X60479458Y-10810000D01*
X60799312Y-10942815D01*
X61658248Y-11801751D01*
X61966450Y-12007686D01*
X62026767Y-12019683D01*
X62330000Y-12080000D01*
X89689458Y-12080000D01*
X90009312Y-12212815D01*
X90457743Y-12661246D01*
X90606922Y-13022286D01*
X90916087Y-13331991D01*
X91320237Y-13499808D01*
X91757844Y-13500190D01*
X92162286Y-13333078D01*
X92471991Y-13023913D01*
X92639808Y-12619763D01*
X92640190Y-12182156D01*
X92473078Y-11777714D01*
X92163913Y-11468009D01*
X91800688Y-11317186D01*
X91352257Y-10868755D01*
X91204023Y-10510000D01*
X94080000Y-10510000D01*
X94287476Y-10468731D01*
X94328745Y-10460522D01*
X94539619Y-10319619D01*
X96236658Y-8622581D01*
X96350290Y-8669765D01*
X96887353Y-8670234D01*
X97003149Y-8622388D01*
X97240000Y-8859239D01*
X97240000Y-14670761D01*
X96160384Y-15750378D01*
X96160381Y-15750380D01*
X94795072Y-17115690D01*
X94758603Y-17027428D01*
X94533755Y-16802188D01*
X94239828Y-16680139D01*
X93921568Y-16679861D01*
X93627428Y-16801397D01*
X93444879Y-16983628D01*
X93263755Y-16802188D01*
X92969828Y-16680139D01*
X92651568Y-16679861D01*
X92357428Y-16801397D01*
X92132188Y-17026245D01*
X92010139Y-17320172D01*
X92010104Y-17360657D01*
X88730762Y-20640000D01*
X83920000Y-20640000D01*
X83712524Y-20681269D01*
X83671255Y-20689478D01*
X83460380Y-20830381D01*
X82530866Y-21759895D01*
X82491568Y-21759861D01*
X82197428Y-21881397D01*
X81972188Y-22106245D01*
X81850139Y-22400172D01*
X81849861Y-22718432D01*
X81971397Y-23012572D01*
X82196245Y-23237812D01*
X82490172Y-23359861D01*
X82808432Y-23360139D01*
X83102572Y-23238603D01*
X83327812Y-23013755D01*
X83449861Y-22719828D01*
X83449896Y-22679342D01*
X84189239Y-21940000D01*
X88700762Y-21940000D01*
X88540381Y-22100381D01*
X88399478Y-22311255D01*
X88399478Y-22311256D01*
X88350000Y-22560000D01*
X88350000Y-23348481D01*
X88322188Y-23376245D01*
X88200139Y-23670172D01*
X88199861Y-23988432D01*
X88321397Y-24282572D01*
X88546245Y-24507812D01*
X88840172Y-24629861D01*
X89158432Y-24630139D01*
X89452572Y-24508603D01*
X89677812Y-24283755D01*
X89799861Y-23989828D01*
X89800139Y-23671568D01*
X89678603Y-23377428D01*
X89650000Y-23348775D01*
X89650000Y-22829238D01*
X92160000Y-20319238D01*
X92160000Y-32238481D01*
X92132188Y-32266245D01*
X92010139Y-32560172D01*
X92009861Y-32878432D01*
X92131397Y-33172572D01*
X92356245Y-33397812D01*
X92650172Y-33519861D01*
X92968432Y-33520139D01*
X93262572Y-33398603D01*
X93430000Y-33231466D01*
X93430000Y-34778481D01*
X93402188Y-34806245D01*
X93280139Y-35100172D01*
X93279861Y-35418432D01*
X93401397Y-35712572D01*
X93626245Y-35937812D01*
X93715774Y-35974988D01*
X91420867Y-38269895D01*
X91381568Y-38269861D01*
X91087428Y-38391397D01*
X90862188Y-38616245D01*
X90740139Y-38910172D01*
X90739861Y-39228432D01*
X90861397Y-39522572D01*
X91086245Y-39747812D01*
X91380172Y-39869861D01*
X91698432Y-39870139D01*
X91992572Y-39748603D01*
X92160000Y-39581466D01*
X92160000Y-41128481D01*
X92132188Y-41156245D01*
X92010139Y-41450172D01*
X92009861Y-41768432D01*
X92131397Y-42062572D01*
X92356245Y-42287812D01*
X92650172Y-42409861D01*
X92968432Y-42410139D01*
X93262572Y-42288603D01*
X93430000Y-42121466D01*
X93430000Y-52770761D01*
X91080381Y-55120381D01*
X90939478Y-55331255D01*
X90939478Y-55331256D01*
X90890000Y-55580000D01*
X90890000Y-61660761D01*
X88730762Y-63820000D01*
X80110000Y-63820000D01*
X79861256Y-63869478D01*
X79847600Y-63878603D01*
X79650380Y-64010381D01*
X77953342Y-65707419D01*
X77839710Y-65660235D01*
X77302647Y-65659766D01*
X76806285Y-65864858D01*
X76426193Y-66244288D01*
X76299944Y-66548330D01*
X76175142Y-66246285D01*
X75795712Y-65866193D01*
X75299710Y-65660235D01*
X74762647Y-65659766D01*
X74266285Y-65864858D01*
X73886193Y-66244288D01*
X73680235Y-66740290D01*
X73679766Y-67277353D01*
X73884858Y-67773715D01*
X74264288Y-68153807D01*
X74760290Y-68359765D01*
X75297353Y-68360234D01*
X75793715Y-68155142D01*
X76173807Y-67775712D01*
X76300056Y-67471670D01*
X76424858Y-67773715D01*
X76804288Y-68153807D01*
X77300290Y-68359765D01*
X77837353Y-68360234D01*
X78333715Y-68155142D01*
X78713807Y-67775712D01*
X78840056Y-67471670D01*
X78964858Y-67773715D01*
X79344288Y-68153807D01*
X79840290Y-68359765D01*
X80377353Y-68360234D01*
X80873715Y-68155142D01*
X81253807Y-67775712D01*
X81459765Y-67279710D01*
X81460234Y-66742647D01*
X81412388Y-66626851D01*
X81649239Y-66390000D01*
X89000000Y-66390000D01*
X89207476Y-66348731D01*
X89248745Y-66340522D01*
X89459619Y-66199619D01*
X93269620Y-62389619D01*
X93410522Y-62178744D01*
X93430000Y-62080821D01*
X93430000Y-65470762D01*
X88730762Y-70170000D01*
X83920000Y-70170000D01*
X83671256Y-70219478D01*
X83667853Y-70221752D01*
X83460380Y-70360381D01*
X81060000Y-72760762D01*
X81060000Y-70130542D01*
X81209808Y-69769763D01*
X81210190Y-69332156D01*
X81043078Y-68927714D01*
X80733913Y-68618009D01*
X80329763Y-68450192D01*
X79892156Y-68449810D01*
X79487714Y-68616922D01*
X79354404Y-68750000D01*
X78113728Y-68750000D01*
X78108835Y-68745098D01*
X77759796Y-68600165D01*
X77381862Y-68599835D01*
X77032571Y-68744159D01*
X76765098Y-69011165D01*
X76620165Y-69360204D01*
X76619835Y-69738138D01*
X76764159Y-70087429D01*
X77031165Y-70354902D01*
X77380204Y-70499835D01*
X77758138Y-70500165D01*
X78107429Y-70355841D01*
X78113280Y-70350000D01*
X79160000Y-70350000D01*
X79160000Y-82570000D01*
X73760000Y-82570000D01*
X73396451Y-82642314D01*
X73396449Y-82642315D01*
X73396450Y-82642315D01*
X73088248Y-82848249D01*
X70958755Y-84977743D01*
X70597714Y-85126922D01*
X70288009Y-85436087D01*
X70137186Y-85799312D01*
X69688755Y-86247743D01*
X69327714Y-86396922D01*
X69018009Y-86706087D01*
X68850192Y-87110237D01*
X68849810Y-87547844D01*
X69016922Y-87952286D01*
X69326087Y-88261991D01*
X69730237Y-88429808D01*
X70167844Y-88430190D01*
X70572286Y-88263078D01*
X70881991Y-87953913D01*
X71032815Y-87590688D01*
X71481246Y-87142257D01*
X71842286Y-86993078D01*
X72151991Y-86683913D01*
X72302815Y-86320687D01*
X74153503Y-84470000D01*
X84796498Y-84470000D01*
X85788248Y-85461751D01*
X86096450Y-85667686D01*
X86156767Y-85679683D01*
X86460000Y-85740000D01*
X92810000Y-85740000D01*
X93113233Y-85679683D01*
X93117704Y-85678794D01*
X92416498Y-86380000D01*
X81773503Y-86380000D01*
X81192257Y-85798755D01*
X81043078Y-85437714D01*
X80733913Y-85128009D01*
X80329763Y-84960192D01*
X79892156Y-84959810D01*
X79487714Y-85126922D01*
X79178009Y-85436087D01*
X79010192Y-85840237D01*
X79009810Y-86277844D01*
X79176922Y-86682286D01*
X79486087Y-86991991D01*
X79849312Y-87142815D01*
X80708248Y-88001751D01*
X81016450Y-88207686D01*
X81076767Y-88219683D01*
X81380000Y-88280000D01*
X92810000Y-88280000D01*
X93113233Y-88219683D01*
X93173550Y-88207686D01*
X93481751Y-88001751D01*
X102885070Y-78598432D01*
X104709861Y-78598432D01*
X104831397Y-78892572D01*
X105056245Y-79117812D01*
X105350172Y-79239861D01*
X105668432Y-79240139D01*
X105962572Y-79118603D01*
X105991225Y-79090000D01*
X113918481Y-79090000D01*
X113946245Y-79117812D01*
X114240172Y-79239861D01*
X114558432Y-79240139D01*
X114852572Y-79118603D01*
X115077812Y-78893755D01*
X115199861Y-78599828D01*
X115200139Y-78281568D01*
X115078603Y-77987428D01*
X114853755Y-77762188D01*
X114559828Y-77640139D01*
X114241568Y-77639861D01*
X113947428Y-77761397D01*
X113918775Y-77790000D01*
X105991519Y-77790000D01*
X105963755Y-77762188D01*
X105669828Y-77640139D01*
X105351568Y-77639861D01*
X105057428Y-77761397D01*
X104832188Y-77986245D01*
X104710139Y-78280172D01*
X104709861Y-78598432D01*
X102885070Y-78598432D01*
X104633502Y-76850000D01*
X104929458Y-76850000D01*
X105290237Y-76999808D01*
X105727844Y-77000190D01*
X106132286Y-76833078D01*
X106441991Y-76523913D01*
X106592815Y-76160687D01*
X112531751Y-70221752D01*
X112737686Y-69913550D01*
X112764328Y-69779610D01*
X112810000Y-69550000D01*
X112810000Y-67590542D01*
X112959808Y-67229763D01*
X112960190Y-66792156D01*
X112793078Y-66387714D01*
X112483913Y-66078009D01*
X112120689Y-65927186D01*
X107730000Y-61536498D01*
X107730000Y-61393352D01*
X107890172Y-61459861D01*
X108208432Y-61460139D01*
X108502572Y-61338603D01*
X108727812Y-61113755D01*
X108849861Y-60819828D01*
X108850139Y-60501568D01*
X108728603Y-60207428D01*
X108700000Y-60178775D01*
X108700000Y-58631277D01*
X108866245Y-58797812D01*
X109160172Y-58919861D01*
X109478432Y-58920139D01*
X109772572Y-58798603D01*
X109940000Y-58631466D01*
X109940000Y-58908481D01*
X109912188Y-58936245D01*
X109790139Y-59230172D01*
X109789861Y-59548432D01*
X109911397Y-59842572D01*
X110136245Y-60067812D01*
X110430172Y-60189861D01*
X110748432Y-60190139D01*
X111042572Y-60068603D01*
X111225121Y-59886372D01*
X111406245Y-60067812D01*
X111700172Y-60189861D01*
X112018432Y-60190139D01*
X112312572Y-60068603D01*
X112537812Y-59843755D01*
X112659861Y-59549828D01*
X112660139Y-59231568D01*
X112538603Y-58937428D01*
X112510000Y-58908775D01*
X112510000Y-54579238D01*
X113684928Y-53404310D01*
X113721397Y-53492572D01*
X113946245Y-53717812D01*
X114240172Y-53839861D01*
X114280658Y-53839896D01*
X115210380Y-54769619D01*
X115421255Y-54910522D01*
X115462524Y-54918731D01*
X115670000Y-54960000D01*
X122778723Y-54960000D01*
X122612188Y-55126245D01*
X122490139Y-55420172D01*
X122489861Y-55738432D01*
X122611397Y-56032572D01*
X122836245Y-56257812D01*
X122925774Y-56294988D01*
X118925072Y-60295690D01*
X118888603Y-60207428D01*
X118706372Y-60024879D01*
X118887812Y-59843755D01*
X119009861Y-59549828D01*
X119010139Y-59231568D01*
X118888603Y-58937428D01*
X118706372Y-58754879D01*
X118887812Y-58573755D01*
X119009861Y-58279828D01*
X119010139Y-57961568D01*
X118888603Y-57667428D01*
X118663755Y-57442188D01*
X118369828Y-57320139D01*
X118051568Y-57319861D01*
X117757428Y-57441397D01*
X117532188Y-57666245D01*
X117410139Y-57960172D01*
X117410104Y-58000657D01*
X114130762Y-61280000D01*
X112341519Y-61280000D01*
X112313755Y-61252188D01*
X112019828Y-61130139D01*
X111701568Y-61129861D01*
X111407428Y-61251397D01*
X111182188Y-61476245D01*
X111060139Y-61770172D01*
X111059861Y-62088432D01*
X111181397Y-62382572D01*
X111363628Y-62565121D01*
X111182188Y-62746245D01*
X111060139Y-63040172D01*
X111059861Y-63358432D01*
X111181397Y-63652572D01*
X111363628Y-63835121D01*
X111182188Y-64016245D01*
X111060139Y-64310172D01*
X111059861Y-64628432D01*
X111181397Y-64922572D01*
X111406245Y-65147812D01*
X111700172Y-65269861D01*
X112018432Y-65270139D01*
X112312572Y-65148603D01*
X112341225Y-65120000D01*
X114400000Y-65120000D01*
X114607476Y-65078731D01*
X114648745Y-65070522D01*
X114859619Y-64929619D01*
X117494928Y-62294311D01*
X117531397Y-62382572D01*
X117756245Y-62607812D01*
X118050172Y-62729861D01*
X118368432Y-62730139D01*
X118662572Y-62608603D01*
X118887812Y-62383755D01*
X119009861Y-62089828D01*
X119009896Y-62049342D01*
X127559620Y-53499619D01*
X127559622Y-53499616D01*
X128829619Y-52229620D01*
X128970522Y-52018745D01*
X128988486Y-51928432D01*
X129020000Y-51770000D01*
X129020000Y-45342128D01*
X129133715Y-45295142D01*
X129513807Y-44915712D01*
X129719765Y-44419710D01*
X129720234Y-43882647D01*
X129515142Y-43386285D01*
X129135712Y-43006193D01*
X128831670Y-42879944D01*
X129133715Y-42755142D01*
X129513807Y-42375712D01*
X129719765Y-41879710D01*
X129720234Y-41342647D01*
X129515142Y-40846285D01*
X129135712Y-40466193D01*
X128831670Y-40339944D01*
X129133715Y-40215142D01*
X129513807Y-39835712D01*
X129719765Y-39339710D01*
X129720234Y-38802647D01*
X129515142Y-38306285D01*
X129135712Y-37926193D01*
X128831670Y-37799944D01*
X129133715Y-37675142D01*
X129513807Y-37295712D01*
X129719765Y-36799710D01*
X129720234Y-36262647D01*
X129515142Y-35766285D01*
X129135712Y-35386193D01*
X128831670Y-35259944D01*
X129133715Y-35135142D01*
X129513807Y-34755712D01*
X129719765Y-34259710D01*
X129720234Y-33722647D01*
X129515142Y-33226285D01*
X129135712Y-32846193D01*
X128831670Y-32719944D01*
X129133715Y-32595142D01*
X129513807Y-32215712D01*
X129719765Y-31719710D01*
X129720234Y-31182647D01*
X129515142Y-30686285D01*
X129135712Y-30306193D01*
X128831670Y-30179944D01*
X129133715Y-30055142D01*
X129513807Y-29675712D01*
X129719765Y-29179710D01*
X129720234Y-28642647D01*
X129515142Y-28146285D01*
X129135712Y-27766193D01*
X129113080Y-27756795D01*
X129217569Y-27713514D01*
X129300708Y-27447786D01*
X128370000Y-26517078D01*
X127439292Y-27447786D01*
X127522431Y-27713514D01*
X127630328Y-27754924D01*
X127606285Y-27764858D01*
X127226193Y-28144288D01*
X127020235Y-28640290D01*
X127019766Y-29177353D01*
X127224858Y-29673715D01*
X127604288Y-30053807D01*
X127908330Y-30180056D01*
X127606285Y-30304858D01*
X127226193Y-30684288D01*
X127020235Y-31180290D01*
X127019766Y-31717353D01*
X127067612Y-31833150D01*
X121560383Y-37340379D01*
X121560380Y-37340381D01*
X120290381Y-38610381D01*
X120149478Y-38821255D01*
X120149478Y-38821256D01*
X120100000Y-39070000D01*
X120100000Y-44150000D01*
X120133777Y-44319810D01*
X120149478Y-44398745D01*
X120290381Y-44609619D01*
X121370000Y-45689239D01*
X121370000Y-50230761D01*
X120480762Y-51120000D01*
X114400000Y-51120000D01*
X114151256Y-51169478D01*
X114151254Y-51169479D01*
X114151255Y-51169479D01*
X113940380Y-51310381D01*
X111400381Y-53850381D01*
X111259478Y-54061255D01*
X111259478Y-54061256D01*
X111210000Y-54310000D01*
X111210000Y-55068723D01*
X111043755Y-54902188D01*
X110749828Y-54780139D01*
X110431568Y-54779861D01*
X110137428Y-54901397D01*
X109954879Y-55083628D01*
X109773755Y-54902188D01*
X109479828Y-54780139D01*
X109161568Y-54779861D01*
X108867428Y-54901397D01*
X108700000Y-55068534D01*
X108700000Y-54791519D01*
X108727812Y-54763755D01*
X108849861Y-54469828D01*
X108850139Y-54151568D01*
X108728603Y-53857428D01*
X108503755Y-53632188D01*
X108209828Y-53510139D01*
X107891568Y-53509861D01*
X107730000Y-53576619D01*
X107730000Y-53433502D01*
X108443503Y-52720000D01*
X109320000Y-52720000D01*
X109623233Y-52659683D01*
X109683550Y-52647686D01*
X109991751Y-52441751D01*
X112121246Y-50312257D01*
X112482286Y-50163078D01*
X112791991Y-49853913D01*
X112959808Y-49449763D01*
X112960190Y-49012156D01*
X112793078Y-48607714D01*
X112483913Y-48298009D01*
X112079763Y-48130192D01*
X111642156Y-48129810D01*
X111237714Y-48296922D01*
X110928009Y-48606087D01*
X110777186Y-48969311D01*
X108926498Y-50820000D01*
X108050000Y-50820000D01*
X107746767Y-50880317D01*
X107742297Y-50881206D01*
X111261751Y-47361752D01*
X111467686Y-47053550D01*
X111490522Y-46938744D01*
X111540000Y-46690000D01*
X111540000Y-36797353D01*
X111779766Y-36797353D01*
X111984858Y-37293715D01*
X112364288Y-37673807D01*
X112668330Y-37800056D01*
X112366285Y-37924858D01*
X111986193Y-38304288D01*
X111780235Y-38800290D01*
X111779766Y-39337353D01*
X111984858Y-39833715D01*
X112364288Y-40213807D01*
X112668330Y-40340056D01*
X112366285Y-40464858D01*
X111986193Y-40844288D01*
X111780235Y-41340290D01*
X111779766Y-41877353D01*
X111984858Y-42373715D01*
X112364288Y-42753807D01*
X112668330Y-42880056D01*
X112366285Y-43004858D01*
X111986193Y-43384288D01*
X111780235Y-43880290D01*
X111779766Y-44417353D01*
X111984858Y-44913715D01*
X112364288Y-45293807D01*
X112668330Y-45420056D01*
X112366285Y-45544858D01*
X111986193Y-45924288D01*
X111780235Y-46420290D01*
X111779766Y-46957353D01*
X111984858Y-47453715D01*
X112364288Y-47833807D01*
X112860290Y-48039765D01*
X113397353Y-48040234D01*
X113893715Y-47835142D01*
X114273807Y-47455712D01*
X114479765Y-46959710D01*
X114480234Y-46422647D01*
X114275142Y-45926285D01*
X113895712Y-45546193D01*
X113591670Y-45419944D01*
X113893715Y-45295142D01*
X114273807Y-44915712D01*
X114479765Y-44419710D01*
X114480234Y-43882647D01*
X114275142Y-43386285D01*
X113895712Y-43006193D01*
X113591670Y-42879944D01*
X113893715Y-42755142D01*
X114273807Y-42375712D01*
X114479765Y-41879710D01*
X114480234Y-41342647D01*
X114275142Y-40846285D01*
X113895712Y-40466193D01*
X113591670Y-40339944D01*
X113893715Y-40215142D01*
X114273807Y-39835712D01*
X114479765Y-39339710D01*
X114480234Y-38802647D01*
X114275142Y-38306285D01*
X113895712Y-37926193D01*
X113591670Y-37799944D01*
X113893715Y-37675142D01*
X114273807Y-37295712D01*
X114479765Y-36799710D01*
X114480234Y-36262647D01*
X114275142Y-35766285D01*
X113895712Y-35386193D01*
X113399710Y-35180235D01*
X112862647Y-35179766D01*
X112366285Y-35384858D01*
X111986193Y-35764288D01*
X111780235Y-36260290D01*
X111779766Y-36797353D01*
X111540000Y-36797353D01*
X111540000Y-26101089D01*
X126804403Y-26101089D01*
X126820669Y-26720686D01*
X127026486Y-27217569D01*
X127292214Y-27300708D01*
X128222922Y-26370000D01*
X128517078Y-26370000D01*
X129447786Y-27300708D01*
X129713514Y-27217569D01*
X129935597Y-26638911D01*
X129919331Y-26019314D01*
X129713514Y-25522431D01*
X129447786Y-25439292D01*
X128517078Y-26370000D01*
X128222922Y-26370000D01*
X127292214Y-25439292D01*
X127026486Y-25522431D01*
X126804403Y-26101089D01*
X111540000Y-26101089D01*
X111540000Y-25292214D01*
X127439292Y-25292214D01*
X128370000Y-26222922D01*
X129300708Y-25292214D01*
X129217569Y-25026486D01*
X128638911Y-24804403D01*
X128019314Y-24820669D01*
X127522431Y-25026486D01*
X127439292Y-25292214D01*
X111540000Y-25292214D01*
X111540000Y-21870542D01*
X111689808Y-21509763D01*
X111690190Y-21072156D01*
X111540000Y-20708668D01*
X111540000Y-19330542D01*
X111689808Y-18969763D01*
X111690190Y-18532156D01*
X111523078Y-18127714D01*
X111213913Y-17818009D01*
X110809763Y-17650192D01*
X110372156Y-17649810D01*
X109967714Y-17816922D01*
X109658009Y-18126087D01*
X109490192Y-18530237D01*
X109489810Y-18967844D01*
X109640000Y-19331332D01*
X109640000Y-20709458D01*
X109490192Y-21070237D01*
X109489810Y-21507844D01*
X109640000Y-21871332D01*
X109640000Y-46296497D01*
X109400135Y-46536362D01*
X109400234Y-46422647D01*
X109195142Y-45926285D01*
X108815712Y-45546193D01*
X108511670Y-45419944D01*
X108813715Y-45295142D01*
X109193807Y-44915712D01*
X109399765Y-44419710D01*
X109400234Y-43882647D01*
X109195142Y-43386285D01*
X108815712Y-43006193D01*
X108511670Y-42879944D01*
X108813715Y-42755142D01*
X109193807Y-42375712D01*
X109399765Y-41879710D01*
X109400234Y-41342647D01*
X109195142Y-40846285D01*
X108815712Y-40466193D01*
X108511670Y-40339944D01*
X108813715Y-40215142D01*
X109193807Y-39835712D01*
X109399765Y-39339710D01*
X109400234Y-38802647D01*
X109195142Y-38306285D01*
X108815712Y-37926193D01*
X108511670Y-37799944D01*
X108813715Y-37675142D01*
X109193807Y-37295712D01*
X109399765Y-36799710D01*
X109400234Y-36262647D01*
X109195142Y-35766285D01*
X108815712Y-35386193D01*
X108319710Y-35180235D01*
X107782647Y-35179766D01*
X107286285Y-35384858D01*
X106906193Y-35764288D01*
X106700235Y-36260290D01*
X106699766Y-36797353D01*
X106904858Y-37293715D01*
X107284288Y-37673807D01*
X107588330Y-37800056D01*
X107286285Y-37924858D01*
X106906193Y-38304288D01*
X106700235Y-38800290D01*
X106699766Y-39337353D01*
X106904858Y-39833715D01*
X107284288Y-40213807D01*
X107588330Y-40340056D01*
X107286285Y-40464858D01*
X106906193Y-40844288D01*
X106700235Y-41340290D01*
X106699766Y-41877353D01*
X106904858Y-42373715D01*
X107284288Y-42753807D01*
X107588330Y-42880056D01*
X107286285Y-43004858D01*
X106906193Y-43384288D01*
X106700235Y-43880290D01*
X106699766Y-44417353D01*
X106702002Y-44422764D01*
X103620000Y-41340762D01*
X103620000Y-27640000D01*
X103570522Y-27391256D01*
X103570522Y-27391255D01*
X103429619Y-27180380D01*
X102368285Y-26119047D01*
X102315440Y-25853377D01*
X102022797Y-25415406D01*
X101584826Y-25122763D01*
X101470389Y-25100000D01*
X101584826Y-25077237D01*
X102022797Y-24784594D01*
X102315440Y-24346623D01*
X102418203Y-23830000D01*
X102315440Y-23313377D01*
X102022797Y-22875406D01*
X101584826Y-22582763D01*
X101380000Y-22542020D01*
X101380000Y-20413502D01*
X103866245Y-17927257D01*
X104227286Y-17778078D01*
X104536991Y-17468913D01*
X104704808Y-17064763D01*
X104705190Y-16627156D01*
X104538078Y-16222714D01*
X104228913Y-15913009D01*
X103824763Y-15745192D01*
X103387156Y-15744810D01*
X102982714Y-15911922D01*
X102673009Y-16221087D01*
X102522185Y-16584313D01*
X99758249Y-19348249D01*
X99552314Y-19656450D01*
X99540317Y-19716767D01*
X99480000Y-20020000D01*
X99480000Y-22542020D01*
X99275174Y-22582763D01*
X98837203Y-22875406D01*
X98544560Y-23313377D01*
X98441797Y-23830000D01*
X98544560Y-24346623D01*
X98837203Y-24784594D01*
X99275174Y-25077237D01*
X99389611Y-25100000D01*
X99275174Y-25122763D01*
X98837203Y-25415406D01*
X98544560Y-25853377D01*
X98491715Y-26119046D01*
X97430381Y-27180381D01*
X97289478Y-27391255D01*
X97289478Y-27391256D01*
X97270000Y-27489179D01*
X97270000Y-21559238D01*
X99279134Y-19550105D01*
X99318432Y-19550139D01*
X99612572Y-19428603D01*
X99837812Y-19203755D01*
X99959861Y-18909828D01*
X99959896Y-18869342D01*
X103429620Y-15399619D01*
X103570522Y-15188744D01*
X103620000Y-14940000D01*
X103620000Y-11399238D01*
X106396658Y-8622581D01*
X106510290Y-8669765D01*
X107047353Y-8670234D01*
X107543715Y-8465142D01*
X107923807Y-8085712D01*
X107933383Y-8062649D01*
X120809350Y-8062649D01*
X121379051Y-9441429D01*
X122433022Y-10497242D01*
X123810806Y-11069348D01*
X125302649Y-11070650D01*
X126681429Y-10500949D01*
X127737242Y-9446978D01*
X128309348Y-8069194D01*
X128310650Y-6577351D01*
X127740949Y-5198571D01*
X126686978Y-4142758D01*
X125309194Y-3570652D01*
X123817351Y-3569350D01*
X122438571Y-4139051D01*
X121382758Y-5193022D01*
X120810652Y-6570806D01*
X120809350Y-8062649D01*
X107933383Y-8062649D01*
X108129765Y-7589710D01*
X108130234Y-7052647D01*
X107925142Y-6556285D01*
X107545712Y-6176193D01*
X107049710Y-5970235D01*
X106512647Y-5969766D01*
X106016285Y-6174858D01*
X105636193Y-6554288D01*
X105509944Y-6858330D01*
X105385142Y-6556285D01*
X105005712Y-6176193D01*
X104509710Y-5970235D01*
X103972647Y-5969766D01*
X103856850Y-6017612D01*
X99619619Y-1780381D01*
X99408745Y-1639478D01*
X99367476Y-1631269D01*
X99160000Y-1590000D01*
X73760000Y-1590000D01*
X73511256Y-1639478D01*
X73511254Y-1639479D01*
X73511255Y-1639479D01*
X73300380Y-1780381D01*
X70950762Y-4130000D01*
X67891519Y-4130000D01*
X67863755Y-4102188D01*
X67569828Y-3980139D01*
X67251568Y-3979861D01*
X66957428Y-4101397D01*
X66928775Y-4130000D01*
X50111519Y-4130000D01*
X50083755Y-4102188D01*
X49789828Y-3980139D01*
X49471568Y-3979861D01*
X49177428Y-4101397D01*
X49148775Y-4130000D01*
X32331519Y-4130000D01*
X32303755Y-4102188D01*
X32009828Y-3980139D01*
X31691568Y-3979861D01*
X31397428Y-4101397D01*
X31172188Y-4326245D01*
X31050139Y-4620172D01*
X31049861Y-4938432D01*
X10641264Y-4938432D01*
X9846978Y-4142758D01*
X8469194Y-3570652D01*
X6977351Y-3569350D01*
X5598571Y-4139051D01*
X4542758Y-5193022D01*
X3970652Y-6570806D01*
X3969350Y-8062649D01*
X525000Y-8062649D01*
X525000Y-525000D01*
X131075000Y-525000D01*
X131075000Y-98675000D01*
X131075000Y-98675000D01*
G37*
X131075000Y-98675000D02*
X525000Y-98675000D01*
X525000Y-93152649D01*
X2699350Y-93152649D01*
X3269051Y-94531429D01*
X4323022Y-95587242D01*
X5700806Y-96159348D01*
X7192649Y-96160650D01*
X8571429Y-95590949D01*
X9627242Y-94536978D01*
X10199348Y-93159194D01*
X10200650Y-91667351D01*
X9630949Y-90288571D01*
X8576978Y-89232758D01*
X7199194Y-88660652D01*
X5707351Y-88659350D01*
X4328571Y-89229051D01*
X3272758Y-90283022D01*
X2700652Y-91660806D01*
X2699350Y-93152649D01*
X525000Y-93152649D01*
X525000Y-69698530D01*
X13319870Y-69698530D01*
X13433811Y-69974286D01*
X13644605Y-70185448D01*
X13920161Y-70299869D01*
X14218530Y-70300130D01*
X14494286Y-70186189D01*
X14530538Y-70150000D01*
X16149219Y-70150000D01*
X16184605Y-70185448D01*
X16267815Y-70220000D01*
X15340000Y-70220000D01*
X15110390Y-70265672D01*
X14915736Y-70395736D01*
X13971558Y-71339914D01*
X13921470Y-71339870D01*
X13645714Y-71453811D01*
X13434552Y-71664605D01*
X13320131Y-71940161D01*
X13319870Y-72238530D01*
X13433811Y-72514286D01*
X13644605Y-72725448D01*
X13920161Y-72839869D01*
X14094156Y-72840021D01*
X13990235Y-73090290D01*
X13989766Y-73627353D01*
X14194858Y-74123715D01*
X14574288Y-74503807D01*
X14878330Y-74630056D01*
X14576285Y-74754858D01*
X14196193Y-75134288D01*
X13990235Y-75630290D01*
X13989766Y-76167353D01*
X14194858Y-76663715D01*
X14574288Y-77043807D01*
X14878330Y-77170056D01*
X14576285Y-77294858D01*
X14196193Y-77674288D01*
X13990235Y-78170290D01*
X13989766Y-78707353D01*
X14194858Y-79203715D01*
X14574288Y-79583807D01*
X14878330Y-79710056D01*
X14576285Y-79834858D01*
X14196193Y-80214288D01*
X13990235Y-80710290D01*
X13989766Y-81247353D01*
X14194858Y-81743715D01*
X14574288Y-82123807D01*
X14878330Y-82250056D01*
X14576285Y-82374858D01*
X14196193Y-82754288D01*
X13990235Y-83250290D01*
X13989766Y-83787353D01*
X14194858Y-84283715D01*
X14574288Y-84663807D01*
X14878330Y-84790056D01*
X14576285Y-84914858D01*
X14196193Y-85294288D01*
X13990235Y-85790290D01*
X13989766Y-86327353D01*
X14194858Y-86823715D01*
X14574288Y-87203807D01*
X14878330Y-87330056D01*
X14576285Y-87454858D01*
X14196193Y-87834288D01*
X13990235Y-88330290D01*
X13989766Y-88867353D01*
X14194858Y-89363715D01*
X14574288Y-89743807D01*
X14878330Y-89870056D01*
X14576285Y-89994858D01*
X14196193Y-90374288D01*
X13990235Y-90870290D01*
X13989766Y-91407353D01*
X14194858Y-91903715D01*
X14574288Y-92283807D01*
X15070290Y-92489765D01*
X15607353Y-92490234D01*
X16103715Y-92285142D01*
X16483807Y-91905712D01*
X16610056Y-91601670D01*
X16734858Y-91903715D01*
X17114288Y-92283807D01*
X17610290Y-92489765D01*
X18147353Y-92490234D01*
X18643715Y-92285142D01*
X19023807Y-91905712D01*
X19150056Y-91601670D01*
X19274858Y-91903715D01*
X19654288Y-92283807D01*
X20150290Y-92489765D01*
X20687353Y-92490234D01*
X21183715Y-92285142D01*
X21563807Y-91905712D01*
X21769765Y-91409710D01*
X21770234Y-90872647D01*
X21565142Y-90376285D01*
X21185712Y-89996193D01*
X20881670Y-89869944D01*
X21183715Y-89745142D01*
X21563807Y-89365712D01*
X21769765Y-88869710D01*
X21770234Y-88332647D01*
X21565142Y-87836285D01*
X21185712Y-87456193D01*
X20881670Y-87329944D01*
X21183715Y-87205142D01*
X21563807Y-86825712D01*
X21769765Y-86329710D01*
X21770234Y-85792647D01*
X21718209Y-85666737D01*
X22209914Y-86158442D01*
X22209870Y-86208530D01*
X22323811Y-86484286D01*
X22534605Y-86695448D01*
X22810161Y-86809869D01*
X23108530Y-86810130D01*
X23384286Y-86696189D01*
X23595448Y-86485395D01*
X23709869Y-86209839D01*
X23710130Y-85911470D01*
X23596189Y-85635714D01*
X23385395Y-85424552D01*
X23109839Y-85310131D01*
X23058614Y-85310086D01*
X22114264Y-84365736D01*
X21919610Y-84235672D01*
X21690000Y-84190000D01*
X21603550Y-84190000D01*
X21769765Y-83789710D01*
X21770234Y-83252647D01*
X21565142Y-82756285D01*
X21185712Y-82376193D01*
X20881670Y-82249944D01*
X21183715Y-82125142D01*
X21563807Y-81745712D01*
X21769765Y-81249710D01*
X21770234Y-80712647D01*
X21603864Y-80310000D01*
X23769219Y-80310000D01*
X23804605Y-80345448D01*
X24080161Y-80459869D01*
X24378530Y-80460130D01*
X24654286Y-80346189D01*
X24865448Y-80135395D01*
X24979869Y-79859839D01*
X24980130Y-79561470D01*
X24866189Y-79285714D01*
X24655395Y-79074552D01*
X24379839Y-78960131D01*
X24081470Y-78959870D01*
X23805714Y-79073811D01*
X23769462Y-79110000D01*
X21603550Y-79110000D01*
X21769765Y-78709710D01*
X21770234Y-78172647D01*
X21565142Y-77676285D01*
X21185712Y-77296193D01*
X20881670Y-77169944D01*
X21183715Y-77045142D01*
X21563807Y-76665712D01*
X21769765Y-76169710D01*
X21770234Y-75632647D01*
X21565142Y-75136285D01*
X21185712Y-74756193D01*
X20881670Y-74629944D01*
X21183715Y-74505142D01*
X21563807Y-74125712D01*
X21769765Y-73629710D01*
X21770234Y-73092647D01*
X21665834Y-72839979D01*
X21838530Y-72840130D01*
X22114286Y-72726189D01*
X22325448Y-72515395D01*
X22439869Y-72239839D01*
X22440130Y-71941470D01*
X22326189Y-71665714D01*
X22115395Y-71454552D01*
X21839839Y-71340131D01*
X21788614Y-71340086D01*
X20844264Y-70395736D01*
X20649610Y-70265672D01*
X20420000Y-70220000D01*
X16952458Y-70220000D01*
X17034286Y-70186189D01*
X17245448Y-69975395D01*
X17359869Y-69699839D01*
X17360130Y-69401470D01*
X17246189Y-69125714D01*
X17035395Y-68914552D01*
X16759839Y-68800131D01*
X16461470Y-68799870D01*
X16185714Y-68913811D01*
X16149462Y-68950000D01*
X14530781Y-68950000D01*
X14495395Y-68914552D01*
X14219839Y-68800131D01*
X13921470Y-68799870D01*
X13645714Y-68913811D01*
X13434552Y-69124605D01*
X13320131Y-69400161D01*
X13319870Y-69698530D01*
X525000Y-69698530D01*
X525000Y-60808530D01*
X17129870Y-60808530D01*
X17243811Y-61084286D01*
X17454340Y-61295183D01*
X17244552Y-61504605D01*
X17130131Y-61780161D01*
X17129870Y-62078530D01*
X17243811Y-62354286D01*
X17454340Y-62565183D01*
X17244552Y-62774605D01*
X17130131Y-63050161D01*
X17129870Y-63348530D01*
X17243811Y-63624286D01*
X17454605Y-63835448D01*
X17730161Y-63949869D01*
X18028530Y-63950130D01*
X18304286Y-63836189D01*
X18340538Y-63800000D01*
X25039219Y-63800000D01*
X25074605Y-63835448D01*
X25350161Y-63949869D01*
X25648530Y-63950130D01*
X25924286Y-63836189D01*
X26135448Y-63625395D01*
X26249869Y-63349839D01*
X26250130Y-63051470D01*
X26136189Y-62775714D01*
X25925395Y-62564552D01*
X25649839Y-62450131D01*
X25351470Y-62449870D01*
X25075714Y-62563811D01*
X25039462Y-62600000D01*
X24572458Y-62600000D01*
X24654286Y-62566189D01*
X24865448Y-62355395D01*
X24979869Y-62079839D01*
X24979870Y-62078530D01*
X26019870Y-62078530D01*
X26133811Y-62354286D01*
X26344605Y-62565448D01*
X26620161Y-62679869D01*
X26918530Y-62680130D01*
X27194286Y-62566189D01*
X27230538Y-62530000D01*
X27791472Y-62530000D01*
X47760000Y-82498528D01*
X47760000Y-91140000D01*
X47805672Y-91369610D01*
X47935736Y-91564264D01*
X50475736Y-94104264D01*
X50670390Y-94234328D01*
X50900000Y-94280000D01*
X53440000Y-94280000D01*
X53669610Y-94234328D01*
X53864264Y-94104264D01*
X54815879Y-93152649D01*
X120809350Y-93152649D01*
X121379051Y-94531429D01*
X122433022Y-95587242D01*
X123810806Y-96159348D01*
X125302649Y-96160650D01*
X126681429Y-95590949D01*
X127737242Y-94536978D01*
X128309348Y-93159194D01*
X128310650Y-91667351D01*
X127740949Y-90288571D01*
X126686978Y-89232758D01*
X125309194Y-88660652D01*
X123817351Y-88659350D01*
X122438571Y-89229051D01*
X121382758Y-90283022D01*
X120810652Y-91660806D01*
X120809350Y-93152649D01*
X54815879Y-93152649D01*
X55546694Y-92421834D01*
X55710290Y-92489765D01*
X56247353Y-92490234D01*
X56743715Y-92285142D01*
X57123807Y-91905712D01*
X57329765Y-91409710D01*
X57330234Y-90872647D01*
X57163864Y-90470000D01*
X57250000Y-90470000D01*
X57479610Y-90424328D01*
X57674264Y-90294264D01*
X60214264Y-87754264D01*
X60344328Y-87559611D01*
X60390000Y-87330000D01*
X60390000Y-78901190D01*
X60410000Y-78921225D01*
X60410000Y-83520000D01*
X60451269Y-83727476D01*
X60459478Y-83768745D01*
X60600381Y-83979619D01*
X61529895Y-84909134D01*
X61529861Y-84948432D01*
X61651397Y-85242572D01*
X61876245Y-85467812D01*
X62170172Y-85589861D01*
X62488432Y-85590139D01*
X62782572Y-85468603D01*
X63007812Y-85243755D01*
X63129861Y-84949828D01*
X63130139Y-84631568D01*
X63008603Y-84337428D01*
X62783755Y-84112188D01*
X62489828Y-83990139D01*
X62449342Y-83990104D01*
X61710000Y-83250762D01*
X61710000Y-78921519D01*
X61737812Y-78893755D01*
X61859861Y-78599828D01*
X61860139Y-78281568D01*
X61738603Y-77987428D01*
X61513755Y-77762188D01*
X61219828Y-77640139D01*
X60901568Y-77639861D01*
X60607428Y-77761397D01*
X60390000Y-77978447D01*
X60390000Y-61120781D01*
X60425448Y-61085395D01*
X60539869Y-60809839D01*
X60540130Y-60511470D01*
X60426189Y-60235714D01*
X60215395Y-60024552D01*
X59939839Y-59910131D01*
X59641470Y-59909870D01*
X59365714Y-60023811D01*
X59154817Y-60234340D01*
X58945395Y-60024552D01*
X58669839Y-59910131D01*
X58371470Y-59909870D01*
X58095714Y-60023811D01*
X57884552Y-60234605D01*
X57770131Y-60510161D01*
X57769870Y-60808530D01*
X57883811Y-61084286D01*
X57920000Y-61120538D01*
X57920000Y-61587542D01*
X57886189Y-61505714D01*
X57675395Y-61294552D01*
X57399839Y-61180131D01*
X57101470Y-61179870D01*
X56825714Y-61293811D01*
X56789462Y-61330000D01*
X47432458Y-61330000D01*
X47514286Y-61296189D01*
X47725448Y-61085395D01*
X47839869Y-60809839D01*
X47840130Y-60511470D01*
X47726189Y-60235714D01*
X47515395Y-60024552D01*
X47239839Y-59910131D01*
X46941470Y-59909870D01*
X46665714Y-60023811D01*
X46629462Y-60060000D01*
X45010781Y-60060000D01*
X44975660Y-60024817D01*
X45185448Y-59815395D01*
X45299869Y-59539839D01*
X45299914Y-59488614D01*
X46068528Y-58720000D01*
X64527542Y-58720000D01*
X64445714Y-58753811D01*
X64234552Y-58964605D01*
X64120131Y-59240161D01*
X64119870Y-59538530D01*
X64233811Y-59814286D01*
X64270000Y-59850538D01*
X64270000Y-61469219D01*
X64234552Y-61504605D01*
X64120131Y-61780161D01*
X64119870Y-62078530D01*
X64233811Y-62354286D01*
X64444605Y-62565448D01*
X64720161Y-62679869D01*
X65018530Y-62680130D01*
X65294286Y-62566189D01*
X65505448Y-62355395D01*
X65538456Y-62275901D01*
X83070883Y-62275901D01*
X83110797Y-62430137D01*
X83414789Y-62958133D01*
X83897696Y-63329605D01*
X84486000Y-63488000D01*
X85086000Y-63488000D01*
X85086000Y-62034000D01*
X85294000Y-62034000D01*
X85294000Y-63488000D01*
X85894000Y-63488000D01*
X86482304Y-63329605D01*
X86965211Y-62958133D01*
X87269203Y-62430137D01*
X87309117Y-62275901D01*
X87179614Y-62034000D01*
X85294000Y-62034000D01*
X85086000Y-62034000D01*
X83200386Y-62034000D01*
X83070883Y-62275901D01*
X65538456Y-62275901D01*
X65619869Y-62079839D01*
X65620130Y-61781470D01*
X65506189Y-61505714D01*
X65470000Y-61469462D01*
X65470000Y-59850781D01*
X65505448Y-59815395D01*
X65619869Y-59539839D01*
X65620130Y-59241470D01*
X65506189Y-58965714D01*
X65295395Y-58754552D01*
X65212185Y-58720000D01*
X67161472Y-58720000D01*
X67929914Y-59488442D01*
X67929870Y-59538530D01*
X68043811Y-59814286D01*
X68254605Y-60025448D01*
X68530161Y-60139869D01*
X68828530Y-60140130D01*
X69104286Y-60026189D01*
X69315448Y-59815395D01*
X69429869Y-59539839D01*
X69430130Y-59241470D01*
X69316189Y-58965714D01*
X69105395Y-58754552D01*
X68829839Y-58640131D01*
X68778614Y-58640086D01*
X67834264Y-57695736D01*
X67639610Y-57565672D01*
X67410000Y-57520000D01*
X45820000Y-57520000D01*
X45590390Y-57565672D01*
X45395736Y-57695736D01*
X44451558Y-58639914D01*
X44401470Y-58639870D01*
X44125714Y-58753811D01*
X43914552Y-58964605D01*
X43800131Y-59240161D01*
X43799870Y-59538530D01*
X43913811Y-59814286D01*
X44124340Y-60025183D01*
X43914552Y-60234605D01*
X43800131Y-60510161D01*
X43799870Y-60808530D01*
X43913811Y-61084286D01*
X44124605Y-61295448D01*
X44207815Y-61330000D01*
X42470781Y-61330000D01*
X42435660Y-61294817D01*
X42645448Y-61085395D01*
X42759869Y-60809839D01*
X42760130Y-60511470D01*
X42646189Y-60235714D01*
X42610000Y-60199462D01*
X42610000Y-59638528D01*
X43378442Y-58870086D01*
X43428530Y-58870130D01*
X43704286Y-58756189D01*
X43915448Y-58545395D01*
X44029869Y-58269839D01*
X44030130Y-57971470D01*
X43916189Y-57695714D01*
X43705395Y-57484552D01*
X43429839Y-57370131D01*
X43131470Y-57369870D01*
X42855714Y-57483811D01*
X42644817Y-57694340D01*
X42435395Y-57484552D01*
X42159839Y-57370131D01*
X41861470Y-57369870D01*
X41585714Y-57483811D01*
X41374552Y-57694605D01*
X41260131Y-57970161D01*
X41260086Y-58021386D01*
X40315736Y-58965736D01*
X40185672Y-59160390D01*
X40140000Y-59390000D01*
X40140000Y-61587542D01*
X40106189Y-61505714D01*
X40070000Y-61469462D01*
X40070000Y-58580781D01*
X40105448Y-58545395D01*
X40219869Y-58269839D01*
X40220130Y-57971470D01*
X40106189Y-57695714D01*
X39895395Y-57484552D01*
X39619839Y-57370131D01*
X39321470Y-57369870D01*
X39045714Y-57483811D01*
X39000000Y-57529445D01*
X39000000Y-52313728D01*
X39004902Y-52308835D01*
X39149835Y-51959796D01*
X39149842Y-51951528D01*
X39651212Y-51450159D01*
X39658138Y-51450165D01*
X40007429Y-51305841D01*
X40274902Y-51038835D01*
X40419835Y-50689796D01*
X40420165Y-50311862D01*
X40275841Y-49962571D01*
X40008835Y-49695098D01*
X39659796Y-49550165D01*
X39651528Y-49550158D01*
X38765687Y-48664317D01*
X38765685Y-48664314D01*
X37880159Y-47778789D01*
X37880165Y-47771862D01*
X37735841Y-47422571D01*
X37468835Y-47155098D01*
X37119796Y-47010165D01*
X36741862Y-47009835D01*
X36392571Y-47154159D01*
X36125098Y-47421165D01*
X35980165Y-47770204D01*
X35979835Y-48148138D01*
X36124159Y-48497429D01*
X36391165Y-48764902D01*
X36740204Y-48909835D01*
X36748472Y-48909842D01*
X37634314Y-49795685D01*
X37634317Y-49795687D01*
X38338629Y-50500000D01*
X38018789Y-50819841D01*
X38011862Y-50819835D01*
X37662571Y-50964159D01*
X37395098Y-51231165D01*
X37250165Y-51580204D01*
X37249835Y-51958138D01*
X37394159Y-52307429D01*
X37400000Y-52313280D01*
X37400000Y-69171472D01*
X28790086Y-60561558D01*
X28790130Y-60511470D01*
X28676189Y-60235714D01*
X28465395Y-60024552D01*
X28189839Y-59910131D01*
X27891470Y-59909870D01*
X27615714Y-60023811D01*
X27404552Y-60234605D01*
X27290131Y-60510161D01*
X27289870Y-60808530D01*
X27403811Y-61084286D01*
X27614605Y-61295448D01*
X27697815Y-61330000D01*
X27230781Y-61330000D01*
X27195395Y-61294552D01*
X26919839Y-61180131D01*
X26621470Y-61179870D01*
X26345714Y-61293811D01*
X26134552Y-61504605D01*
X26020131Y-61780161D01*
X26019870Y-62078530D01*
X24979870Y-62078530D01*
X24980130Y-61781470D01*
X24866189Y-61505714D01*
X24655395Y-61294552D01*
X24379839Y-61180131D01*
X24081470Y-61179870D01*
X23805714Y-61293811D01*
X23769462Y-61330000D01*
X23302458Y-61330000D01*
X23384286Y-61296189D01*
X23595448Y-61085395D01*
X23709869Y-60809839D01*
X23710130Y-60511470D01*
X23596189Y-60235714D01*
X23385395Y-60024552D01*
X23109839Y-59910131D01*
X22811470Y-59909870D01*
X22535714Y-60023811D01*
X22499462Y-60060000D01*
X18340781Y-60060000D01*
X18305395Y-60024552D01*
X18029839Y-59910131D01*
X17731470Y-59909870D01*
X17455714Y-60023811D01*
X17244552Y-60234605D01*
X17130131Y-60510161D01*
X17129870Y-60808530D01*
X525000Y-60808530D01*
X525000Y-25258432D01*
X28509861Y-25258432D01*
X28631397Y-25552572D01*
X28856245Y-25777812D01*
X29150172Y-25899861D01*
X29468432Y-25900139D01*
X29762572Y-25778603D01*
X29791225Y-25750000D01*
X30068723Y-25750000D01*
X29902188Y-25916245D01*
X29780139Y-26210172D01*
X29779861Y-26528432D01*
X29901397Y-26822572D01*
X30126245Y-27047812D01*
X30420172Y-27169861D01*
X30738432Y-27170139D01*
X31032572Y-27048603D01*
X31061225Y-27020000D01*
X31338723Y-27020000D01*
X31172188Y-27186245D01*
X31050139Y-27480172D01*
X31049861Y-27798432D01*
X31171397Y-28092572D01*
X31396245Y-28317812D01*
X31690172Y-28439861D01*
X32008432Y-28440139D01*
X32302572Y-28318603D01*
X32331225Y-28290000D01*
X32608723Y-28290000D01*
X32442188Y-28456245D01*
X32320139Y-28750172D01*
X32319861Y-29068432D01*
X32441397Y-29362572D01*
X32666245Y-29587812D01*
X32960172Y-29709861D01*
X33278432Y-29710139D01*
X33572572Y-29588603D01*
X33601225Y-29560000D01*
X33878723Y-29560000D01*
X33712188Y-29726245D01*
X33590139Y-30020172D01*
X33589861Y-30338432D01*
X33711397Y-30632572D01*
X33936245Y-30857812D01*
X34230172Y-30979861D01*
X34548432Y-30980139D01*
X34842572Y-30858603D01*
X34871225Y-30830000D01*
X35148723Y-30830000D01*
X34982188Y-30996245D01*
X34860139Y-31290172D01*
X34859861Y-31608432D01*
X34981397Y-31902572D01*
X35206245Y-32127812D01*
X35500172Y-32249861D01*
X35818432Y-32250139D01*
X36112572Y-32128603D01*
X36141225Y-32100000D01*
X36418723Y-32100000D01*
X36252188Y-32266245D01*
X36130139Y-32560172D01*
X36129861Y-32878432D01*
X36251397Y-33172572D01*
X36476245Y-33397812D01*
X36770172Y-33519861D01*
X37088432Y-33520139D01*
X37382572Y-33398603D01*
X37411225Y-33370000D01*
X38958723Y-33370000D01*
X38792188Y-33536245D01*
X38670139Y-33830172D01*
X38669861Y-34148432D01*
X38791397Y-34442572D01*
X39016245Y-34667812D01*
X39310172Y-34789861D01*
X39350658Y-34789896D01*
X49170381Y-44609620D01*
X49381256Y-44750522D01*
X49630000Y-44800000D01*
X53776384Y-44800000D01*
X53610192Y-45200237D01*
X53609810Y-45637844D01*
X53776922Y-46042286D01*
X54086087Y-46351991D01*
X54490237Y-46519808D01*
X54927844Y-46520190D01*
X55291332Y-46370000D01*
X56669458Y-46370000D01*
X57030237Y-46519808D01*
X57467844Y-46520190D01*
X57831332Y-46370000D01*
X74636498Y-46370000D01*
X76487743Y-48221246D01*
X76636922Y-48582286D01*
X76946087Y-48891991D01*
X77309312Y-49042815D01*
X77757743Y-49491246D01*
X77906922Y-49852286D01*
X78216087Y-50161991D01*
X78620237Y-50329808D01*
X79057844Y-50330190D01*
X79462286Y-50163078D01*
X79771991Y-49853913D01*
X79939808Y-49449763D01*
X79940190Y-49012156D01*
X79773078Y-48607714D01*
X79463913Y-48298009D01*
X79100688Y-48147186D01*
X78652257Y-47698755D01*
X78503078Y-47337714D01*
X78193913Y-47028009D01*
X77830689Y-46877186D01*
X75753502Y-44800000D01*
X76030762Y-44800000D01*
X83251715Y-52020954D01*
X83304560Y-52286623D01*
X83597203Y-52724594D01*
X84035174Y-53017237D01*
X84149611Y-53040000D01*
X84035174Y-53062763D01*
X83597203Y-53355406D01*
X83304560Y-53793377D01*
X83201797Y-54310000D01*
X83304560Y-54826623D01*
X83597203Y-55264594D01*
X84035174Y-55557237D01*
X84149611Y-55580000D01*
X84035174Y-55602763D01*
X83597203Y-55895406D01*
X83304560Y-56333377D01*
X83201797Y-56850000D01*
X83304560Y-57366623D01*
X83597203Y-57804594D01*
X84035174Y-58097237D01*
X84149611Y-58120000D01*
X84035174Y-58142763D01*
X83597203Y-58435406D01*
X83304560Y-58873377D01*
X83201797Y-59390000D01*
X83304560Y-59906623D01*
X83597203Y-60344594D01*
X83887273Y-60538413D01*
X83414789Y-60901867D01*
X83110797Y-61429863D01*
X83070883Y-61584099D01*
X83200386Y-61826000D01*
X85086000Y-61826000D01*
X85086000Y-61806000D01*
X85294000Y-61806000D01*
X85294000Y-61826000D01*
X87179614Y-61826000D01*
X87309117Y-61584099D01*
X87269203Y-61429863D01*
X86965211Y-60901867D01*
X86492727Y-60538413D01*
X86782797Y-60344594D01*
X87075440Y-59906623D01*
X87178203Y-59390000D01*
X87075440Y-58873377D01*
X86782797Y-58435406D01*
X86344826Y-58142763D01*
X86230389Y-58120000D01*
X86344826Y-58097237D01*
X86782797Y-57804594D01*
X87075440Y-57366623D01*
X87178203Y-56850000D01*
X87075440Y-56333377D01*
X86782797Y-55895406D01*
X86344826Y-55602763D01*
X86230389Y-55580000D01*
X86344826Y-55557237D01*
X86782797Y-55264594D01*
X87075440Y-54826623D01*
X87178203Y-54310000D01*
X87075440Y-53793377D01*
X86782797Y-53355406D01*
X86344826Y-53062763D01*
X86230389Y-53040000D01*
X86344826Y-53017237D01*
X86782797Y-52724594D01*
X87075440Y-52286623D01*
X87178203Y-51770000D01*
X87075440Y-51253377D01*
X86782797Y-50815406D01*
X86344826Y-50522763D01*
X86230389Y-50500000D01*
X86344826Y-50477237D01*
X86782797Y-50184594D01*
X87075440Y-49746623D01*
X87178203Y-49230000D01*
X87075440Y-48713377D01*
X86782797Y-48275406D01*
X86344826Y-47982763D01*
X86230389Y-47960000D01*
X86344826Y-47937237D01*
X86782797Y-47644594D01*
X87075440Y-47206623D01*
X87178203Y-46690000D01*
X87075440Y-46173377D01*
X86782797Y-45735406D01*
X86344826Y-45442763D01*
X86230389Y-45420000D01*
X86344826Y-45397237D01*
X86782797Y-45104594D01*
X87075440Y-44666623D01*
X87178203Y-44150000D01*
X87075440Y-43633377D01*
X86782797Y-43195406D01*
X86344826Y-42902763D01*
X86230389Y-42880000D01*
X86344826Y-42857237D01*
X86782797Y-42564594D01*
X87075440Y-42126623D01*
X87178203Y-41610000D01*
X87075440Y-41093377D01*
X86782797Y-40655406D01*
X86344826Y-40362763D01*
X86230389Y-40340000D01*
X86344826Y-40317237D01*
X86782797Y-40024594D01*
X87075440Y-39586623D01*
X87178203Y-39070000D01*
X87075440Y-38553377D01*
X86782797Y-38115406D01*
X86344826Y-37822763D01*
X86230389Y-37800000D01*
X86344826Y-37777237D01*
X86782797Y-37484594D01*
X87075440Y-37046623D01*
X87178203Y-36530000D01*
X87075440Y-36013377D01*
X86782797Y-35575406D01*
X86344826Y-35282763D01*
X86230389Y-35260000D01*
X86344826Y-35237237D01*
X86782797Y-34944594D01*
X87075440Y-34506623D01*
X87178203Y-33990000D01*
X87075440Y-33473377D01*
X86782797Y-33035406D01*
X86344826Y-32742763D01*
X86230389Y-32720000D01*
X86344826Y-32697237D01*
X86782797Y-32404594D01*
X87075440Y-31966623D01*
X87178203Y-31450000D01*
X87075440Y-30933377D01*
X86782797Y-30495406D01*
X86344826Y-30202763D01*
X86230389Y-30180000D01*
X86344826Y-30157237D01*
X86782797Y-29864594D01*
X87075440Y-29426623D01*
X87178203Y-28910000D01*
X87075440Y-28393377D01*
X86782797Y-27955406D01*
X86344826Y-27662763D01*
X86230389Y-27640000D01*
X86344826Y-27617237D01*
X86782797Y-27324594D01*
X87075440Y-26886623D01*
X87178203Y-26370000D01*
X87075440Y-25853377D01*
X86782797Y-25415406D01*
X86344826Y-25122763D01*
X86230389Y-25100000D01*
X86344826Y-25077237D01*
X86782797Y-24784594D01*
X87075440Y-24346623D01*
X87178203Y-23830000D01*
X87075440Y-23313377D01*
X86782797Y-22875406D01*
X86344826Y-22582763D01*
X85828203Y-22480000D01*
X84551797Y-22480000D01*
X84035174Y-22582763D01*
X83597203Y-22875406D01*
X83304560Y-23313377D01*
X83251715Y-23579047D01*
X77300762Y-29530000D01*
X76811277Y-29530000D01*
X76977812Y-29363755D01*
X77099861Y-29069828D01*
X77100139Y-28751568D01*
X76978603Y-28457428D01*
X76753755Y-28232188D01*
X76459828Y-28110139D01*
X76141568Y-28109861D01*
X75847428Y-28231397D01*
X75622188Y-28456245D01*
X75500139Y-28750172D01*
X75499861Y-29068432D01*
X75621397Y-29362572D01*
X75788534Y-29530000D01*
X69330000Y-29530000D01*
X69330000Y-25100000D01*
X69280522Y-24851256D01*
X69232910Y-24780000D01*
X69139620Y-24640381D01*
X65329619Y-20830381D01*
X65118745Y-20689478D01*
X65077476Y-20681269D01*
X64870000Y-20640000D01*
X64081519Y-20640000D01*
X64053755Y-20612188D01*
X63759828Y-20490139D01*
X63441568Y-20489861D01*
X63147428Y-20611397D01*
X62980000Y-20778534D01*
X62980000Y-20289238D01*
X63869239Y-19400000D01*
X65658481Y-19400000D01*
X65686245Y-19427812D01*
X65980172Y-19549861D01*
X66298432Y-19550139D01*
X66592572Y-19428603D01*
X66775121Y-19246372D01*
X66956245Y-19427812D01*
X67250172Y-19549861D01*
X67568432Y-19550139D01*
X67862572Y-19428603D01*
X68087812Y-19203755D01*
X68209861Y-18909828D01*
X68210139Y-18591568D01*
X68088603Y-18297428D01*
X67863755Y-18072188D01*
X67569828Y-17950139D01*
X67529342Y-17950104D01*
X66599619Y-17020381D01*
X66388745Y-16879478D01*
X66347476Y-16871269D01*
X66140000Y-16830000D01*
X63600000Y-16830000D01*
X63351256Y-16879478D01*
X63351254Y-16879479D01*
X63351255Y-16879479D01*
X63140380Y-17020381D01*
X60600381Y-19560381D01*
X60459478Y-19771255D01*
X60459478Y-19771256D01*
X60410000Y-20020000D01*
X60410000Y-20808481D01*
X60382188Y-20836245D01*
X60260139Y-21130172D01*
X60259861Y-21448432D01*
X60381397Y-21742572D01*
X60606245Y-21967812D01*
X60900172Y-22089861D01*
X60940658Y-22089896D01*
X64220000Y-25369239D01*
X64220000Y-29698481D01*
X64192188Y-29726245D01*
X64070139Y-30020172D01*
X64069861Y-30338432D01*
X64191397Y-30632572D01*
X64416245Y-30857812D01*
X64710172Y-30979861D01*
X65028432Y-30980139D01*
X65322572Y-30858603D01*
X65505121Y-30676372D01*
X65686245Y-30857812D01*
X65980172Y-30979861D01*
X66298432Y-30980139D01*
X66592572Y-30858603D01*
X66760000Y-30691466D01*
X66760000Y-30968481D01*
X66732188Y-30996245D01*
X66610139Y-31290172D01*
X66609861Y-31608432D01*
X66731397Y-31902572D01*
X66898534Y-32070000D01*
X61329239Y-32070000D01*
X59320105Y-30060867D01*
X59320139Y-30021568D01*
X59198603Y-29727428D01*
X59170000Y-29698775D01*
X59170000Y-26528432D01*
X60259861Y-26528432D01*
X60381397Y-26822572D01*
X60410000Y-26851225D01*
X60410000Y-29698481D01*
X60382188Y-29726245D01*
X60260139Y-30020172D01*
X60259861Y-30338432D01*
X60381397Y-30632572D01*
X60606245Y-30857812D01*
X60900172Y-30979861D01*
X61218432Y-30980139D01*
X61512572Y-30858603D01*
X61695121Y-30676372D01*
X61876245Y-30857812D01*
X62170172Y-30979861D01*
X62488432Y-30980139D01*
X62782572Y-30858603D01*
X63007812Y-30633755D01*
X63129861Y-30339828D01*
X63130139Y-30021568D01*
X63008603Y-29727428D01*
X62980000Y-29698775D01*
X62980000Y-28121519D01*
X63007812Y-28093755D01*
X63129861Y-27799828D01*
X63130139Y-27481568D01*
X63008603Y-27187428D01*
X62783755Y-26962188D01*
X62489828Y-26840139D01*
X62171568Y-26839861D01*
X61877428Y-26961397D01*
X61710000Y-27128534D01*
X61710000Y-26851519D01*
X61737812Y-26823755D01*
X61859861Y-26529828D01*
X61860139Y-26211568D01*
X61738603Y-25917428D01*
X61513755Y-25692188D01*
X61219828Y-25570139D01*
X60901568Y-25569861D01*
X60607428Y-25691397D01*
X60382188Y-25916245D01*
X60260139Y-26210172D01*
X60259861Y-26528432D01*
X59170000Y-26528432D01*
X59170000Y-25100000D01*
X59120522Y-24851256D01*
X59120522Y-24851255D01*
X58979619Y-24640381D01*
X54240105Y-19900867D01*
X54240139Y-19861568D01*
X54118603Y-19567428D01*
X53893755Y-19342188D01*
X53599828Y-19220139D01*
X53281568Y-19219861D01*
X52987428Y-19341397D01*
X52762188Y-19566245D01*
X52640139Y-19860172D01*
X52639861Y-20178432D01*
X52761397Y-20472572D01*
X52986245Y-20697812D01*
X53280172Y-20819861D01*
X53320658Y-20819896D01*
X57870000Y-25369238D01*
X57870000Y-26219179D01*
X57850522Y-26121256D01*
X57850522Y-26121255D01*
X57709619Y-25910381D01*
X51359619Y-19560381D01*
X51148745Y-19419478D01*
X51107476Y-19411269D01*
X50900000Y-19370000D01*
X50111519Y-19370000D01*
X50083755Y-19342188D01*
X49789828Y-19220139D01*
X49471568Y-19219861D01*
X49177428Y-19341397D01*
X48952188Y-19566245D01*
X48830139Y-19860172D01*
X48829861Y-20178432D01*
X48951397Y-20472572D01*
X49176245Y-20697812D01*
X49470172Y-20819861D01*
X49788432Y-20820139D01*
X50082572Y-20698603D01*
X50111225Y-20670000D01*
X50630762Y-20670000D01*
X53075690Y-23114928D01*
X52987428Y-23151397D01*
X52762188Y-23376245D01*
X52640139Y-23670172D01*
X52639861Y-23988432D01*
X52761397Y-24282572D01*
X52790000Y-24311225D01*
X52790000Y-29698481D01*
X52762188Y-29726245D01*
X52640139Y-30020172D01*
X52639861Y-30338432D01*
X52761397Y-30632572D01*
X52986245Y-30857812D01*
X53280172Y-30979861D01*
X53598432Y-30980139D01*
X53892572Y-30858603D01*
X54075121Y-30676372D01*
X54256245Y-30857812D01*
X54550172Y-30979861D01*
X54868432Y-30980139D01*
X55162572Y-30858603D01*
X55387812Y-30633755D01*
X55509861Y-30339828D01*
X55510139Y-30021568D01*
X55388603Y-29727428D01*
X55360000Y-29698775D01*
X55360000Y-25581519D01*
X55387812Y-25553755D01*
X55424988Y-25464226D01*
X56600000Y-26639238D01*
X56600000Y-30180000D01*
X56631514Y-30338432D01*
X56649478Y-30428745D01*
X56790381Y-30639619D01*
X57719895Y-31569134D01*
X57719861Y-31608432D01*
X57841397Y-31902572D01*
X58066245Y-32127812D01*
X58360172Y-32249861D01*
X58400658Y-32249896D01*
X60600380Y-34449619D01*
X60685693Y-34506623D01*
X60811256Y-34590522D01*
X60909179Y-34610000D01*
X49899239Y-34610000D01*
X48167671Y-32878432D01*
X48829861Y-32878432D01*
X48951397Y-33172572D01*
X49176245Y-33397812D01*
X49470172Y-33519861D01*
X49788432Y-33520139D01*
X50082572Y-33398603D01*
X50111225Y-33370000D01*
X55498481Y-33370000D01*
X55526245Y-33397812D01*
X55820172Y-33519861D01*
X56138432Y-33520139D01*
X56432572Y-33398603D01*
X56657812Y-33173755D01*
X56779861Y-32879828D01*
X56780139Y-32561568D01*
X56658603Y-32267428D01*
X56433755Y-32042188D01*
X56139828Y-31920139D01*
X55821568Y-31919861D01*
X55527428Y-32041397D01*
X55498775Y-32070000D01*
X50111519Y-32070000D01*
X50083755Y-32042188D01*
X49789828Y-31920139D01*
X49471568Y-31919861D01*
X49177428Y-32041397D01*
X48952188Y-32266245D01*
X48830139Y-32560172D01*
X48829861Y-32878432D01*
X48167671Y-32878432D01*
X40270105Y-24980867D01*
X40270139Y-24941568D01*
X40148603Y-24647428D01*
X39923755Y-24422188D01*
X39629828Y-24300139D01*
X39311568Y-24299861D01*
X39017428Y-24421397D01*
X38988775Y-24450000D01*
X29791519Y-24450000D01*
X29763755Y-24422188D01*
X29469828Y-24300139D01*
X29151568Y-24299861D01*
X28857428Y-24421397D01*
X28632188Y-24646245D01*
X28510139Y-24940172D01*
X28509861Y-25258432D01*
X525000Y-25258432D01*
X525000Y-8062649D01*
X3969350Y-8062649D01*
X4539051Y-9441429D01*
X5593022Y-10497242D01*
X6970806Y-11069348D01*
X8462649Y-11070650D01*
X9841429Y-10500949D01*
X10897242Y-9446978D01*
X11469348Y-8069194D01*
X11470650Y-6577351D01*
X10900949Y-5198571D01*
X10641264Y-4938432D01*
X31049861Y-4938432D01*
X31171397Y-5232572D01*
X31396245Y-5457812D01*
X31690172Y-5579861D01*
X32008432Y-5580139D01*
X32302572Y-5458603D01*
X32331225Y-5430000D01*
X32608723Y-5430000D01*
X32442188Y-5596245D01*
X32320139Y-5890172D01*
X32319861Y-6208432D01*
X32441397Y-6502572D01*
X32666245Y-6727812D01*
X32960172Y-6849861D01*
X33278432Y-6850139D01*
X33572572Y-6728603D01*
X33601225Y-6700000D01*
X33878723Y-6700000D01*
X33712188Y-6866245D01*
X33590139Y-7160172D01*
X33589861Y-7478432D01*
X33711397Y-7772572D01*
X33936245Y-7997812D01*
X34230172Y-8119861D01*
X34548432Y-8120139D01*
X34842572Y-7998603D01*
X34871225Y-7970000D01*
X51688481Y-7970000D01*
X51716245Y-7997812D01*
X52010172Y-8119861D01*
X52328432Y-8120139D01*
X52622572Y-7998603D01*
X52651225Y-7970000D01*
X69468481Y-7970000D01*
X69496245Y-7997812D01*
X69790172Y-8119861D01*
X69830658Y-8119896D01*
X70760380Y-9049619D01*
X70760383Y-9049621D01*
X71890761Y-10180000D01*
X62723503Y-10180000D01*
X62142257Y-9598755D01*
X61993078Y-9237714D01*
X61683913Y-8928009D01*
X61279763Y-8760192D01*
X60842156Y-8759810D01*
X60478668Y-8910000D01*
X59100542Y-8910000D01*
X58739763Y-8760192D01*
X58302156Y-8759810D01*
X57938668Y-8910000D01*
X43860542Y-8910000D01*
X43499763Y-8760192D01*
X43062156Y-8759810D01*
X42657714Y-8926922D01*
X42348009Y-9236087D01*
X42180192Y-9640237D01*
X42179810Y-10077844D01*
X42346922Y-10482286D01*
X42656087Y-10791991D01*
X43060237Y-10959808D01*
X43497844Y-10960190D01*
X43861332Y-10810000D01*
X57939458Y-10810000D01*
X58300237Y-10959808D01*
X58737844Y-10960190D01*
X59101332Y-10810000D01*
X60479458Y-10810000D01*
X60799312Y-10942815D01*
X61658248Y-11801751D01*
X61966450Y-12007686D01*
X62026767Y-12019683D01*
X62330000Y-12080000D01*
X89689458Y-12080000D01*
X90009312Y-12212815D01*
X90457743Y-12661246D01*
X90606922Y-13022286D01*
X90916087Y-13331991D01*
X91320237Y-13499808D01*
X91757844Y-13500190D01*
X92162286Y-13333078D01*
X92471991Y-13023913D01*
X92639808Y-12619763D01*
X92640190Y-12182156D01*
X92473078Y-11777714D01*
X92163913Y-11468009D01*
X91800688Y-11317186D01*
X91352257Y-10868755D01*
X91204023Y-10510000D01*
X94080000Y-10510000D01*
X94287476Y-10468731D01*
X94328745Y-10460522D01*
X94539619Y-10319619D01*
X96236658Y-8622581D01*
X96350290Y-8669765D01*
X96887353Y-8670234D01*
X97003149Y-8622388D01*
X97240000Y-8859239D01*
X97240000Y-14670761D01*
X96160384Y-15750378D01*
X96160381Y-15750380D01*
X94795072Y-17115690D01*
X94758603Y-17027428D01*
X94533755Y-16802188D01*
X94239828Y-16680139D01*
X93921568Y-16679861D01*
X93627428Y-16801397D01*
X93444879Y-16983628D01*
X93263755Y-16802188D01*
X92969828Y-16680139D01*
X92651568Y-16679861D01*
X92357428Y-16801397D01*
X92132188Y-17026245D01*
X92010139Y-17320172D01*
X92010104Y-17360657D01*
X88730762Y-20640000D01*
X83920000Y-20640000D01*
X83712524Y-20681269D01*
X83671255Y-20689478D01*
X83460380Y-20830381D01*
X82530866Y-21759895D01*
X82491568Y-21759861D01*
X82197428Y-21881397D01*
X81972188Y-22106245D01*
X81850139Y-22400172D01*
X81849861Y-22718432D01*
X81971397Y-23012572D01*
X82196245Y-23237812D01*
X82490172Y-23359861D01*
X82808432Y-23360139D01*
X83102572Y-23238603D01*
X83327812Y-23013755D01*
X83449861Y-22719828D01*
X83449896Y-22679342D01*
X84189239Y-21940000D01*
X88700762Y-21940000D01*
X88540381Y-22100381D01*
X88399478Y-22311255D01*
X88399478Y-22311256D01*
X88350000Y-22560000D01*
X88350000Y-23348481D01*
X88322188Y-23376245D01*
X88200139Y-23670172D01*
X88199861Y-23988432D01*
X88321397Y-24282572D01*
X88546245Y-24507812D01*
X88840172Y-24629861D01*
X89158432Y-24630139D01*
X89452572Y-24508603D01*
X89677812Y-24283755D01*
X89799861Y-23989828D01*
X89800139Y-23671568D01*
X89678603Y-23377428D01*
X89650000Y-23348775D01*
X89650000Y-22829238D01*
X92160000Y-20319238D01*
X92160000Y-32238481D01*
X92132188Y-32266245D01*
X92010139Y-32560172D01*
X92009861Y-32878432D01*
X92131397Y-33172572D01*
X92356245Y-33397812D01*
X92650172Y-33519861D01*
X92968432Y-33520139D01*
X93262572Y-33398603D01*
X93430000Y-33231466D01*
X93430000Y-34778481D01*
X93402188Y-34806245D01*
X93280139Y-35100172D01*
X93279861Y-35418432D01*
X93401397Y-35712572D01*
X93626245Y-35937812D01*
X93715774Y-35974988D01*
X91420867Y-38269895D01*
X91381568Y-38269861D01*
X91087428Y-38391397D01*
X90862188Y-38616245D01*
X90740139Y-38910172D01*
X90739861Y-39228432D01*
X90861397Y-39522572D01*
X91086245Y-39747812D01*
X91380172Y-39869861D01*
X91698432Y-39870139D01*
X91992572Y-39748603D01*
X92160000Y-39581466D01*
X92160000Y-41128481D01*
X92132188Y-41156245D01*
X92010139Y-41450172D01*
X92009861Y-41768432D01*
X92131397Y-42062572D01*
X92356245Y-42287812D01*
X92650172Y-42409861D01*
X92968432Y-42410139D01*
X93262572Y-42288603D01*
X93430000Y-42121466D01*
X93430000Y-52770761D01*
X91080381Y-55120381D01*
X90939478Y-55331255D01*
X90939478Y-55331256D01*
X90890000Y-55580000D01*
X90890000Y-61660761D01*
X88730762Y-63820000D01*
X80110000Y-63820000D01*
X79861256Y-63869478D01*
X79847600Y-63878603D01*
X79650380Y-64010381D01*
X77953342Y-65707419D01*
X77839710Y-65660235D01*
X77302647Y-65659766D01*
X76806285Y-65864858D01*
X76426193Y-66244288D01*
X76299944Y-66548330D01*
X76175142Y-66246285D01*
X75795712Y-65866193D01*
X75299710Y-65660235D01*
X74762647Y-65659766D01*
X74266285Y-65864858D01*
X73886193Y-66244288D01*
X73680235Y-66740290D01*
X73679766Y-67277353D01*
X73884858Y-67773715D01*
X74264288Y-68153807D01*
X74760290Y-68359765D01*
X75297353Y-68360234D01*
X75793715Y-68155142D01*
X76173807Y-67775712D01*
X76300056Y-67471670D01*
X76424858Y-67773715D01*
X76804288Y-68153807D01*
X77300290Y-68359765D01*
X77837353Y-68360234D01*
X78333715Y-68155142D01*
X78713807Y-67775712D01*
X78840056Y-67471670D01*
X78964858Y-67773715D01*
X79344288Y-68153807D01*
X79840290Y-68359765D01*
X80377353Y-68360234D01*
X80873715Y-68155142D01*
X81253807Y-67775712D01*
X81459765Y-67279710D01*
X81460234Y-66742647D01*
X81412388Y-66626851D01*
X81649239Y-66390000D01*
X89000000Y-66390000D01*
X89207476Y-66348731D01*
X89248745Y-66340522D01*
X89459619Y-66199619D01*
X93269620Y-62389619D01*
X93410522Y-62178744D01*
X93430000Y-62080821D01*
X93430000Y-65470762D01*
X88730762Y-70170000D01*
X83920000Y-70170000D01*
X83671256Y-70219478D01*
X83667853Y-70221752D01*
X83460380Y-70360381D01*
X81060000Y-72760762D01*
X81060000Y-70130542D01*
X81209808Y-69769763D01*
X81210190Y-69332156D01*
X81043078Y-68927714D01*
X80733913Y-68618009D01*
X80329763Y-68450192D01*
X79892156Y-68449810D01*
X79487714Y-68616922D01*
X79354404Y-68750000D01*
X78113728Y-68750000D01*
X78108835Y-68745098D01*
X77759796Y-68600165D01*
X77381862Y-68599835D01*
X77032571Y-68744159D01*
X76765098Y-69011165D01*
X76620165Y-69360204D01*
X76619835Y-69738138D01*
X76764159Y-70087429D01*
X77031165Y-70354902D01*
X77380204Y-70499835D01*
X77758138Y-70500165D01*
X78107429Y-70355841D01*
X78113280Y-70350000D01*
X79160000Y-70350000D01*
X79160000Y-82570000D01*
X73760000Y-82570000D01*
X73396451Y-82642314D01*
X73396449Y-82642315D01*
X73396450Y-82642315D01*
X73088248Y-82848249D01*
X70958755Y-84977743D01*
X70597714Y-85126922D01*
X70288009Y-85436087D01*
X70137186Y-85799312D01*
X69688755Y-86247743D01*
X69327714Y-86396922D01*
X69018009Y-86706087D01*
X68850192Y-87110237D01*
X68849810Y-87547844D01*
X69016922Y-87952286D01*
X69326087Y-88261991D01*
X69730237Y-88429808D01*
X70167844Y-88430190D01*
X70572286Y-88263078D01*
X70881991Y-87953913D01*
X71032815Y-87590688D01*
X71481246Y-87142257D01*
X71842286Y-86993078D01*
X72151991Y-86683913D01*
X72302815Y-86320687D01*
X74153503Y-84470000D01*
X84796498Y-84470000D01*
X85788248Y-85461751D01*
X86096450Y-85667686D01*
X86156767Y-85679683D01*
X86460000Y-85740000D01*
X92810000Y-85740000D01*
X93113233Y-85679683D01*
X93117704Y-85678794D01*
X92416498Y-86380000D01*
X81773503Y-86380000D01*
X81192257Y-85798755D01*
X81043078Y-85437714D01*
X80733913Y-85128009D01*
X80329763Y-84960192D01*
X79892156Y-84959810D01*
X79487714Y-85126922D01*
X79178009Y-85436087D01*
X79010192Y-85840237D01*
X79009810Y-86277844D01*
X79176922Y-86682286D01*
X79486087Y-86991991D01*
X79849312Y-87142815D01*
X80708248Y-88001751D01*
X81016450Y-88207686D01*
X81076767Y-88219683D01*
X81380000Y-88280000D01*
X92810000Y-88280000D01*
X93113233Y-88219683D01*
X93173550Y-88207686D01*
X93481751Y-88001751D01*
X102885070Y-78598432D01*
X104709861Y-78598432D01*
X104831397Y-78892572D01*
X105056245Y-79117812D01*
X105350172Y-79239861D01*
X105668432Y-79240139D01*
X105962572Y-79118603D01*
X105991225Y-79090000D01*
X113918481Y-79090000D01*
X113946245Y-79117812D01*
X114240172Y-79239861D01*
X114558432Y-79240139D01*
X114852572Y-79118603D01*
X115077812Y-78893755D01*
X115199861Y-78599828D01*
X115200139Y-78281568D01*
X115078603Y-77987428D01*
X114853755Y-77762188D01*
X114559828Y-77640139D01*
X114241568Y-77639861D01*
X113947428Y-77761397D01*
X113918775Y-77790000D01*
X105991519Y-77790000D01*
X105963755Y-77762188D01*
X105669828Y-77640139D01*
X105351568Y-77639861D01*
X105057428Y-77761397D01*
X104832188Y-77986245D01*
X104710139Y-78280172D01*
X104709861Y-78598432D01*
X102885070Y-78598432D01*
X104633502Y-76850000D01*
X104929458Y-76850000D01*
X105290237Y-76999808D01*
X105727844Y-77000190D01*
X106132286Y-76833078D01*
X106441991Y-76523913D01*
X106592815Y-76160687D01*
X112531751Y-70221752D01*
X112737686Y-69913550D01*
X112764328Y-69779610D01*
X112810000Y-69550000D01*
X112810000Y-67590542D01*
X112959808Y-67229763D01*
X112960190Y-66792156D01*
X112793078Y-66387714D01*
X112483913Y-66078009D01*
X112120689Y-65927186D01*
X107730000Y-61536498D01*
X107730000Y-61393352D01*
X107890172Y-61459861D01*
X108208432Y-61460139D01*
X108502572Y-61338603D01*
X108727812Y-61113755D01*
X108849861Y-60819828D01*
X108850139Y-60501568D01*
X108728603Y-60207428D01*
X108700000Y-60178775D01*
X108700000Y-58631277D01*
X108866245Y-58797812D01*
X109160172Y-58919861D01*
X109478432Y-58920139D01*
X109772572Y-58798603D01*
X109940000Y-58631466D01*
X109940000Y-58908481D01*
X109912188Y-58936245D01*
X109790139Y-59230172D01*
X109789861Y-59548432D01*
X109911397Y-59842572D01*
X110136245Y-60067812D01*
X110430172Y-60189861D01*
X110748432Y-60190139D01*
X111042572Y-60068603D01*
X111225121Y-59886372D01*
X111406245Y-60067812D01*
X111700172Y-60189861D01*
X112018432Y-60190139D01*
X112312572Y-60068603D01*
X112537812Y-59843755D01*
X112659861Y-59549828D01*
X112660139Y-59231568D01*
X112538603Y-58937428D01*
X112510000Y-58908775D01*
X112510000Y-54579238D01*
X113684928Y-53404310D01*
X113721397Y-53492572D01*
X113946245Y-53717812D01*
X114240172Y-53839861D01*
X114280658Y-53839896D01*
X115210380Y-54769619D01*
X115421255Y-54910522D01*
X115462524Y-54918731D01*
X115670000Y-54960000D01*
X122778723Y-54960000D01*
X122612188Y-55126245D01*
X122490139Y-55420172D01*
X122489861Y-55738432D01*
X122611397Y-56032572D01*
X122836245Y-56257812D01*
X122925774Y-56294988D01*
X118925072Y-60295690D01*
X118888603Y-60207428D01*
X118706372Y-60024879D01*
X118887812Y-59843755D01*
X119009861Y-59549828D01*
X119010139Y-59231568D01*
X118888603Y-58937428D01*
X118706372Y-58754879D01*
X118887812Y-58573755D01*
X119009861Y-58279828D01*
X119010139Y-57961568D01*
X118888603Y-57667428D01*
X118663755Y-57442188D01*
X118369828Y-57320139D01*
X118051568Y-57319861D01*
X117757428Y-57441397D01*
X117532188Y-57666245D01*
X117410139Y-57960172D01*
X117410104Y-58000657D01*
X114130762Y-61280000D01*
X112341519Y-61280000D01*
X112313755Y-61252188D01*
X112019828Y-61130139D01*
X111701568Y-61129861D01*
X111407428Y-61251397D01*
X111182188Y-61476245D01*
X111060139Y-61770172D01*
X111059861Y-62088432D01*
X111181397Y-62382572D01*
X111363628Y-62565121D01*
X111182188Y-62746245D01*
X111060139Y-63040172D01*
X111059861Y-63358432D01*
X111181397Y-63652572D01*
X111363628Y-63835121D01*
X111182188Y-64016245D01*
X111060139Y-64310172D01*
X111059861Y-64628432D01*
X111181397Y-64922572D01*
X111406245Y-65147812D01*
X111700172Y-65269861D01*
X112018432Y-65270139D01*
X112312572Y-65148603D01*
X112341225Y-65120000D01*
X114400000Y-65120000D01*
X114607476Y-65078731D01*
X114648745Y-65070522D01*
X114859619Y-64929619D01*
X117494928Y-62294311D01*
X117531397Y-62382572D01*
X117756245Y-62607812D01*
X118050172Y-62729861D01*
X118368432Y-62730139D01*
X118662572Y-62608603D01*
X118887812Y-62383755D01*
X119009861Y-62089828D01*
X119009896Y-62049342D01*
X127559620Y-53499619D01*
X127559622Y-53499616D01*
X128829619Y-52229620D01*
X128970522Y-52018745D01*
X128988486Y-51928432D01*
X129020000Y-51770000D01*
X129020000Y-45342128D01*
X129133715Y-45295142D01*
X129513807Y-44915712D01*
X129719765Y-44419710D01*
X129720234Y-43882647D01*
X129515142Y-43386285D01*
X129135712Y-43006193D01*
X128831670Y-42879944D01*
X129133715Y-42755142D01*
X129513807Y-42375712D01*
X129719765Y-41879710D01*
X129720234Y-41342647D01*
X129515142Y-40846285D01*
X129135712Y-40466193D01*
X128831670Y-40339944D01*
X129133715Y-40215142D01*
X129513807Y-39835712D01*
X129719765Y-39339710D01*
X129720234Y-38802647D01*
X129515142Y-38306285D01*
X129135712Y-37926193D01*
X128831670Y-37799944D01*
X129133715Y-37675142D01*
X129513807Y-37295712D01*
X129719765Y-36799710D01*
X129720234Y-36262647D01*
X129515142Y-35766285D01*
X129135712Y-35386193D01*
X128831670Y-35259944D01*
X129133715Y-35135142D01*
X129513807Y-34755712D01*
X129719765Y-34259710D01*
X129720234Y-33722647D01*
X129515142Y-33226285D01*
X129135712Y-32846193D01*
X128831670Y-32719944D01*
X129133715Y-32595142D01*
X129513807Y-32215712D01*
X129719765Y-31719710D01*
X129720234Y-31182647D01*
X129515142Y-30686285D01*
X129135712Y-30306193D01*
X128831670Y-30179944D01*
X129133715Y-30055142D01*
X129513807Y-29675712D01*
X129719765Y-29179710D01*
X129720234Y-28642647D01*
X129515142Y-28146285D01*
X129135712Y-27766193D01*
X129113080Y-27756795D01*
X129217569Y-27713514D01*
X129300708Y-27447786D01*
X128370000Y-26517078D01*
X127439292Y-27447786D01*
X127522431Y-27713514D01*
X127630328Y-27754924D01*
X127606285Y-27764858D01*
X127226193Y-28144288D01*
X127020235Y-28640290D01*
X127019766Y-29177353D01*
X127224858Y-29673715D01*
X127604288Y-30053807D01*
X127908330Y-30180056D01*
X127606285Y-30304858D01*
X127226193Y-30684288D01*
X127020235Y-31180290D01*
X127019766Y-31717353D01*
X127067612Y-31833150D01*
X121560383Y-37340379D01*
X121560380Y-37340381D01*
X120290381Y-38610381D01*
X120149478Y-38821255D01*
X120149478Y-38821256D01*
X120100000Y-39070000D01*
X120100000Y-44150000D01*
X120133777Y-44319810D01*
X120149478Y-44398745D01*
X120290381Y-44609619D01*
X121370000Y-45689239D01*
X121370000Y-50230761D01*
X120480762Y-51120000D01*
X114400000Y-51120000D01*
X114151256Y-51169478D01*
X114151254Y-51169479D01*
X114151255Y-51169479D01*
X113940380Y-51310381D01*
X111400381Y-53850381D01*
X111259478Y-54061255D01*
X111259478Y-54061256D01*
X111210000Y-54310000D01*
X111210000Y-55068723D01*
X111043755Y-54902188D01*
X110749828Y-54780139D01*
X110431568Y-54779861D01*
X110137428Y-54901397D01*
X109954879Y-55083628D01*
X109773755Y-54902188D01*
X109479828Y-54780139D01*
X109161568Y-54779861D01*
X108867428Y-54901397D01*
X108700000Y-55068534D01*
X108700000Y-54791519D01*
X108727812Y-54763755D01*
X108849861Y-54469828D01*
X108850139Y-54151568D01*
X108728603Y-53857428D01*
X108503755Y-53632188D01*
X108209828Y-53510139D01*
X107891568Y-53509861D01*
X107730000Y-53576619D01*
X107730000Y-53433502D01*
X108443503Y-52720000D01*
X109320000Y-52720000D01*
X109623233Y-52659683D01*
X109683550Y-52647686D01*
X109991751Y-52441751D01*
X112121246Y-50312257D01*
X112482286Y-50163078D01*
X112791991Y-49853913D01*
X112959808Y-49449763D01*
X112960190Y-49012156D01*
X112793078Y-48607714D01*
X112483913Y-48298009D01*
X112079763Y-48130192D01*
X111642156Y-48129810D01*
X111237714Y-48296922D01*
X110928009Y-48606087D01*
X110777186Y-48969311D01*
X108926498Y-50820000D01*
X108050000Y-50820000D01*
X107746767Y-50880317D01*
X107742297Y-50881206D01*
X111261751Y-47361752D01*
X111467686Y-47053550D01*
X111490522Y-46938744D01*
X111540000Y-46690000D01*
X111540000Y-36797353D01*
X111779766Y-36797353D01*
X111984858Y-37293715D01*
X112364288Y-37673807D01*
X112668330Y-37800056D01*
X112366285Y-37924858D01*
X111986193Y-38304288D01*
X111780235Y-38800290D01*
X111779766Y-39337353D01*
X111984858Y-39833715D01*
X112364288Y-40213807D01*
X112668330Y-40340056D01*
X112366285Y-40464858D01*
X111986193Y-40844288D01*
X111780235Y-41340290D01*
X111779766Y-41877353D01*
X111984858Y-42373715D01*
X112364288Y-42753807D01*
X112668330Y-42880056D01*
X112366285Y-43004858D01*
X111986193Y-43384288D01*
X111780235Y-43880290D01*
X111779766Y-44417353D01*
X111984858Y-44913715D01*
X112364288Y-45293807D01*
X112668330Y-45420056D01*
X112366285Y-45544858D01*
X111986193Y-45924288D01*
X111780235Y-46420290D01*
X111779766Y-46957353D01*
X111984858Y-47453715D01*
X112364288Y-47833807D01*
X112860290Y-48039765D01*
X113397353Y-48040234D01*
X113893715Y-47835142D01*
X114273807Y-47455712D01*
X114479765Y-46959710D01*
X114480234Y-46422647D01*
X114275142Y-45926285D01*
X113895712Y-45546193D01*
X113591670Y-45419944D01*
X113893715Y-45295142D01*
X114273807Y-44915712D01*
X114479765Y-44419710D01*
X114480234Y-43882647D01*
X114275142Y-43386285D01*
X113895712Y-43006193D01*
X113591670Y-42879944D01*
X113893715Y-42755142D01*
X114273807Y-42375712D01*
X114479765Y-41879710D01*
X114480234Y-41342647D01*
X114275142Y-40846285D01*
X113895712Y-40466193D01*
X113591670Y-40339944D01*
X113893715Y-40215142D01*
X114273807Y-39835712D01*
X114479765Y-39339710D01*
X114480234Y-38802647D01*
X114275142Y-38306285D01*
X113895712Y-37926193D01*
X113591670Y-37799944D01*
X113893715Y-37675142D01*
X114273807Y-37295712D01*
X114479765Y-36799710D01*
X114480234Y-36262647D01*
X114275142Y-35766285D01*
X113895712Y-35386193D01*
X113399710Y-35180235D01*
X112862647Y-35179766D01*
X112366285Y-35384858D01*
X111986193Y-35764288D01*
X111780235Y-36260290D01*
X111779766Y-36797353D01*
X111540000Y-36797353D01*
X111540000Y-26101089D01*
X126804403Y-26101089D01*
X126820669Y-26720686D01*
X127026486Y-27217569D01*
X127292214Y-27300708D01*
X128222922Y-26370000D01*
X128517078Y-26370000D01*
X129447786Y-27300708D01*
X129713514Y-27217569D01*
X129935597Y-26638911D01*
X129919331Y-26019314D01*
X129713514Y-25522431D01*
X129447786Y-25439292D01*
X128517078Y-26370000D01*
X128222922Y-26370000D01*
X127292214Y-25439292D01*
X127026486Y-25522431D01*
X126804403Y-26101089D01*
X111540000Y-26101089D01*
X111540000Y-25292214D01*
X127439292Y-25292214D01*
X128370000Y-26222922D01*
X129300708Y-25292214D01*
X129217569Y-25026486D01*
X128638911Y-24804403D01*
X128019314Y-24820669D01*
X127522431Y-25026486D01*
X127439292Y-25292214D01*
X111540000Y-25292214D01*
X111540000Y-21870542D01*
X111689808Y-21509763D01*
X111690190Y-21072156D01*
X111540000Y-20708668D01*
X111540000Y-19330542D01*
X111689808Y-18969763D01*
X111690190Y-18532156D01*
X111523078Y-18127714D01*
X111213913Y-17818009D01*
X110809763Y-17650192D01*
X110372156Y-17649810D01*
X109967714Y-17816922D01*
X109658009Y-18126087D01*
X109490192Y-18530237D01*
X109489810Y-18967844D01*
X109640000Y-19331332D01*
X109640000Y-20709458D01*
X109490192Y-21070237D01*
X109489810Y-21507844D01*
X109640000Y-21871332D01*
X109640000Y-46296497D01*
X109400135Y-46536362D01*
X109400234Y-46422647D01*
X109195142Y-45926285D01*
X108815712Y-45546193D01*
X108511670Y-45419944D01*
X108813715Y-45295142D01*
X109193807Y-44915712D01*
X109399765Y-44419710D01*
X109400234Y-43882647D01*
X109195142Y-43386285D01*
X108815712Y-43006193D01*
X108511670Y-42879944D01*
X108813715Y-42755142D01*
X109193807Y-42375712D01*
X109399765Y-41879710D01*
X109400234Y-41342647D01*
X109195142Y-40846285D01*
X108815712Y-40466193D01*
X108511670Y-40339944D01*
X108813715Y-40215142D01*
X109193807Y-39835712D01*
X109399765Y-39339710D01*
X109400234Y-38802647D01*
X109195142Y-38306285D01*
X108815712Y-37926193D01*
X108511670Y-37799944D01*
X108813715Y-37675142D01*
X109193807Y-37295712D01*
X109399765Y-36799710D01*
X109400234Y-36262647D01*
X109195142Y-35766285D01*
X108815712Y-35386193D01*
X108319710Y-35180235D01*
X107782647Y-35179766D01*
X107286285Y-35384858D01*
X106906193Y-35764288D01*
X106700235Y-36260290D01*
X106699766Y-36797353D01*
X106904858Y-37293715D01*
X107284288Y-37673807D01*
X107588330Y-37800056D01*
X107286285Y-37924858D01*
X106906193Y-38304288D01*
X106700235Y-38800290D01*
X106699766Y-39337353D01*
X106904858Y-39833715D01*
X107284288Y-40213807D01*
X107588330Y-40340056D01*
X107286285Y-40464858D01*
X106906193Y-40844288D01*
X106700235Y-41340290D01*
X106699766Y-41877353D01*
X106904858Y-42373715D01*
X107284288Y-42753807D01*
X107588330Y-42880056D01*
X107286285Y-43004858D01*
X106906193Y-43384288D01*
X106700235Y-43880290D01*
X106699766Y-44417353D01*
X106702002Y-44422764D01*
X103620000Y-41340762D01*
X103620000Y-27640000D01*
X103570522Y-27391256D01*
X103570522Y-27391255D01*
X103429619Y-27180380D01*
X102368285Y-26119047D01*
X102315440Y-25853377D01*
X102022797Y-25415406D01*
X101584826Y-25122763D01*
X101470389Y-25100000D01*
X101584826Y-25077237D01*
X102022797Y-24784594D01*
X102315440Y-24346623D01*
X102418203Y-23830000D01*
X102315440Y-23313377D01*
X102022797Y-22875406D01*
X101584826Y-22582763D01*
X101380000Y-22542020D01*
X101380000Y-20413502D01*
X103866245Y-17927257D01*
X104227286Y-17778078D01*
X104536991Y-17468913D01*
X104704808Y-17064763D01*
X104705190Y-16627156D01*
X104538078Y-16222714D01*
X104228913Y-15913009D01*
X103824763Y-15745192D01*
X103387156Y-15744810D01*
X102982714Y-15911922D01*
X102673009Y-16221087D01*
X102522185Y-16584313D01*
X99758249Y-19348249D01*
X99552314Y-19656450D01*
X99540317Y-19716767D01*
X99480000Y-20020000D01*
X99480000Y-22542020D01*
X99275174Y-22582763D01*
X98837203Y-22875406D01*
X98544560Y-23313377D01*
X98441797Y-23830000D01*
X98544560Y-24346623D01*
X98837203Y-24784594D01*
X99275174Y-25077237D01*
X99389611Y-25100000D01*
X99275174Y-25122763D01*
X98837203Y-25415406D01*
X98544560Y-25853377D01*
X98491715Y-26119046D01*
X97430381Y-27180381D01*
X97289478Y-27391255D01*
X97289478Y-27391256D01*
X97270000Y-27489179D01*
X97270000Y-21559238D01*
X99279134Y-19550105D01*
X99318432Y-19550139D01*
X99612572Y-19428603D01*
X99837812Y-19203755D01*
X99959861Y-18909828D01*
X99959896Y-18869342D01*
X103429620Y-15399619D01*
X103570522Y-15188744D01*
X103620000Y-14940000D01*
X103620000Y-11399238D01*
X106396658Y-8622581D01*
X106510290Y-8669765D01*
X107047353Y-8670234D01*
X107543715Y-8465142D01*
X107923807Y-8085712D01*
X107933383Y-8062649D01*
X120809350Y-8062649D01*
X121379051Y-9441429D01*
X122433022Y-10497242D01*
X123810806Y-11069348D01*
X125302649Y-11070650D01*
X126681429Y-10500949D01*
X127737242Y-9446978D01*
X128309348Y-8069194D01*
X128310650Y-6577351D01*
X127740949Y-5198571D01*
X126686978Y-4142758D01*
X125309194Y-3570652D01*
X123817351Y-3569350D01*
X122438571Y-4139051D01*
X121382758Y-5193022D01*
X120810652Y-6570806D01*
X120809350Y-8062649D01*
X107933383Y-8062649D01*
X108129765Y-7589710D01*
X108130234Y-7052647D01*
X107925142Y-6556285D01*
X107545712Y-6176193D01*
X107049710Y-5970235D01*
X106512647Y-5969766D01*
X106016285Y-6174858D01*
X105636193Y-6554288D01*
X105509944Y-6858330D01*
X105385142Y-6556285D01*
X105005712Y-6176193D01*
X104509710Y-5970235D01*
X103972647Y-5969766D01*
X103856850Y-6017612D01*
X99619619Y-1780381D01*
X99408745Y-1639478D01*
X99367476Y-1631269D01*
X99160000Y-1590000D01*
X73760000Y-1590000D01*
X73511256Y-1639478D01*
X73511254Y-1639479D01*
X73511255Y-1639479D01*
X73300380Y-1780381D01*
X70950762Y-4130000D01*
X67891519Y-4130000D01*
X67863755Y-4102188D01*
X67569828Y-3980139D01*
X67251568Y-3979861D01*
X66957428Y-4101397D01*
X66928775Y-4130000D01*
X50111519Y-4130000D01*
X50083755Y-4102188D01*
X49789828Y-3980139D01*
X49471568Y-3979861D01*
X49177428Y-4101397D01*
X49148775Y-4130000D01*
X32331519Y-4130000D01*
X32303755Y-4102188D01*
X32009828Y-3980139D01*
X31691568Y-3979861D01*
X31397428Y-4101397D01*
X31172188Y-4326245D01*
X31050139Y-4620172D01*
X31049861Y-4938432D01*
X10641264Y-4938432D01*
X9846978Y-4142758D01*
X8469194Y-3570652D01*
X6977351Y-3569350D01*
X5598571Y-4139051D01*
X4542758Y-5193022D01*
X3970652Y-6570806D01*
X3969350Y-8062649D01*
X525000Y-8062649D01*
X525000Y-525000D01*
X131075000Y-525000D01*
X131075000Y-98675000D01*
G36*
X49754858Y-76663715D02*
X50134288Y-77043807D01*
X50438330Y-77170056D01*
X50136285Y-77294858D01*
X49756193Y-77674288D01*
X49550235Y-78170290D01*
X49549766Y-78707353D01*
X49754858Y-79203715D01*
X50134288Y-79583807D01*
X50438330Y-79710056D01*
X50136285Y-79834858D01*
X49756193Y-80214288D01*
X49550235Y-80710290D01*
X49549766Y-81247353D01*
X49754858Y-81743715D01*
X50134288Y-82123807D01*
X50438330Y-82250056D01*
X50136285Y-82374858D01*
X49756193Y-82754288D01*
X49550235Y-83250290D01*
X49549766Y-83787353D01*
X49754858Y-84283715D01*
X50134288Y-84663807D01*
X50438330Y-84790056D01*
X50136285Y-84914858D01*
X49756193Y-85294288D01*
X49550235Y-85790290D01*
X49549766Y-86327353D01*
X49754858Y-86823715D01*
X50134288Y-87203807D01*
X50438330Y-87330056D01*
X50136285Y-87454858D01*
X49756193Y-87834288D01*
X49550235Y-88330290D01*
X49549766Y-88867353D01*
X49754858Y-89363715D01*
X50134288Y-89743807D01*
X50156920Y-89753205D01*
X50052431Y-89796486D01*
X49969292Y-90062214D01*
X50900000Y-90992922D01*
X51830708Y-90062214D01*
X51747569Y-89796486D01*
X51639672Y-89755076D01*
X51663715Y-89745142D01*
X52043807Y-89365712D01*
X52170056Y-89061670D01*
X52294858Y-89363715D01*
X52674288Y-89743807D01*
X52978330Y-89870056D01*
X52676285Y-89994858D01*
X52296193Y-90374288D01*
X52286795Y-90396920D01*
X52243514Y-90292431D01*
X51977786Y-90209292D01*
X51047078Y-91140000D01*
X51977786Y-92070708D01*
X52243514Y-91987569D01*
X52284924Y-91879672D01*
X52294858Y-91903715D01*
X52674288Y-92283807D01*
X53170290Y-92489765D01*
X53707353Y-92490234D01*
X53833263Y-92438209D01*
X53191472Y-93080000D01*
X51148528Y-93080000D01*
X50770466Y-92701938D01*
X51250686Y-92689331D01*
X51747569Y-92483514D01*
X51830708Y-92217786D01*
X50900000Y-91287078D01*
X50885858Y-91301221D01*
X50738780Y-91154143D01*
X50752922Y-91140000D01*
X49822214Y-90209292D01*
X49556486Y-90292431D01*
X49334403Y-90871089D01*
X49345047Y-91276519D01*
X48960000Y-90891472D01*
X48960000Y-82250000D01*
X48914328Y-82020390D01*
X48784264Y-81825736D01*
X43458528Y-76500000D01*
X49687213Y-76500000D01*
X49754858Y-76663715D01*
X49754858Y-76663715D01*
G37*
X49754858Y-76663715D02*
X50134288Y-77043807D01*
X50438330Y-77170056D01*
X50136285Y-77294858D01*
X49756193Y-77674288D01*
X49550235Y-78170290D01*
X49549766Y-78707353D01*
X49754858Y-79203715D01*
X50134288Y-79583807D01*
X50438330Y-79710056D01*
X50136285Y-79834858D01*
X49756193Y-80214288D01*
X49550235Y-80710290D01*
X49549766Y-81247353D01*
X49754858Y-81743715D01*
X50134288Y-82123807D01*
X50438330Y-82250056D01*
X50136285Y-82374858D01*
X49756193Y-82754288D01*
X49550235Y-83250290D01*
X49549766Y-83787353D01*
X49754858Y-84283715D01*
X50134288Y-84663807D01*
X50438330Y-84790056D01*
X50136285Y-84914858D01*
X49756193Y-85294288D01*
X49550235Y-85790290D01*
X49549766Y-86327353D01*
X49754858Y-86823715D01*
X50134288Y-87203807D01*
X50438330Y-87330056D01*
X50136285Y-87454858D01*
X49756193Y-87834288D01*
X49550235Y-88330290D01*
X49549766Y-88867353D01*
X49754858Y-89363715D01*
X50134288Y-89743807D01*
X50156920Y-89753205D01*
X50052431Y-89796486D01*
X49969292Y-90062214D01*
X50900000Y-90992922D01*
X51830708Y-90062214D01*
X51747569Y-89796486D01*
X51639672Y-89755076D01*
X51663715Y-89745142D01*
X52043807Y-89365712D01*
X52170056Y-89061670D01*
X52294858Y-89363715D01*
X52674288Y-89743807D01*
X52978330Y-89870056D01*
X52676285Y-89994858D01*
X52296193Y-90374288D01*
X52286795Y-90396920D01*
X52243514Y-90292431D01*
X51977786Y-90209292D01*
X51047078Y-91140000D01*
X51977786Y-92070708D01*
X52243514Y-91987569D01*
X52284924Y-91879672D01*
X52294858Y-91903715D01*
X52674288Y-92283807D01*
X53170290Y-92489765D01*
X53707353Y-92490234D01*
X53833263Y-92438209D01*
X53191472Y-93080000D01*
X51148528Y-93080000D01*
X50770466Y-92701938D01*
X51250686Y-92689331D01*
X51747569Y-92483514D01*
X51830708Y-92217786D01*
X50900000Y-91287078D01*
X50885858Y-91301221D01*
X50738780Y-91154143D01*
X50752922Y-91140000D01*
X49822214Y-90209292D01*
X49556486Y-90292431D01*
X49334403Y-90871089D01*
X49345047Y-91276519D01*
X48960000Y-90891472D01*
X48960000Y-82250000D01*
X48914328Y-82020390D01*
X48784264Y-81825736D01*
X43458528Y-76500000D01*
X49687213Y-76500000D01*
X49754858Y-76663715D01*
G36*
X57920000Y-87081472D02*
X57136850Y-87864622D01*
X57125142Y-87836285D01*
X56745712Y-87456193D01*
X56441670Y-87329944D01*
X56743715Y-87205142D01*
X57123807Y-86825712D01*
X57329765Y-86329710D01*
X57330234Y-85792647D01*
X57125142Y-85296285D01*
X56745712Y-84916193D01*
X56441670Y-84789944D01*
X56743715Y-84665142D01*
X57123807Y-84285712D01*
X57329765Y-83789710D01*
X57330234Y-83252647D01*
X57125142Y-82756285D01*
X56745712Y-82376193D01*
X56441670Y-82249944D01*
X56743715Y-82125142D01*
X57123807Y-81745712D01*
X57329765Y-81249710D01*
X57330234Y-80712647D01*
X57125142Y-80216285D01*
X56745712Y-79836193D01*
X56441670Y-79709944D01*
X56743715Y-79585142D01*
X57123807Y-79205712D01*
X57329765Y-78709710D01*
X57330234Y-78172647D01*
X57125142Y-77676285D01*
X56745712Y-77296193D01*
X56441670Y-77169944D01*
X56743715Y-77045142D01*
X57123807Y-76665712D01*
X57329765Y-76169710D01*
X57330234Y-75632647D01*
X57125142Y-75136285D01*
X56745712Y-74756193D01*
X56723080Y-74746795D01*
X56827569Y-74703514D01*
X56910708Y-74437786D01*
X55980000Y-73507078D01*
X55049292Y-74437786D01*
X55132431Y-74703514D01*
X55240328Y-74744924D01*
X55216285Y-74754858D01*
X54836193Y-75134288D01*
X54709944Y-75438330D01*
X54585142Y-75136285D01*
X54205712Y-74756193D01*
X53901670Y-74629944D01*
X54203715Y-74505142D01*
X54583807Y-74125712D01*
X54593205Y-74103080D01*
X54636486Y-74207569D01*
X54902214Y-74290708D01*
X55832922Y-73360000D01*
X56127078Y-73360000D01*
X57057786Y-74290708D01*
X57323514Y-74207569D01*
X57545597Y-73628911D01*
X57529331Y-73009314D01*
X57323514Y-72512431D01*
X57057786Y-72429292D01*
X56127078Y-73360000D01*
X55832922Y-73360000D01*
X54902214Y-72429292D01*
X54636486Y-72512431D01*
X54595076Y-72620328D01*
X54585142Y-72596285D01*
X54271619Y-72282214D01*
X55049292Y-72282214D01*
X55980000Y-73212922D01*
X56910708Y-72282214D01*
X56827569Y-72016486D01*
X56248911Y-71794403D01*
X55629314Y-71810669D01*
X55132431Y-72016486D01*
X55049292Y-72282214D01*
X54271619Y-72282214D01*
X54205712Y-72216193D01*
X53709710Y-72010235D01*
X53172647Y-72009766D01*
X52676285Y-72214858D01*
X52296193Y-72594288D01*
X52169944Y-72898330D01*
X52045142Y-72596285D01*
X51665712Y-72216193D01*
X51169710Y-72010235D01*
X50632647Y-72009766D01*
X50136285Y-72214858D01*
X49756193Y-72594288D01*
X49550235Y-73090290D01*
X49549766Y-73627353D01*
X49754858Y-74123715D01*
X50134288Y-74503807D01*
X50438330Y-74630056D01*
X50136285Y-74754858D01*
X49756193Y-75134288D01*
X49687383Y-75300000D01*
X43528528Y-75300000D01*
X42439121Y-74210593D01*
X42547429Y-74165841D01*
X42814902Y-73898835D01*
X42959835Y-73549796D01*
X42960165Y-73171862D01*
X42815841Y-72822571D01*
X42548835Y-72555098D01*
X42199796Y-72410165D01*
X42191529Y-72410158D01*
X39000000Y-69218630D01*
X39000000Y-62520765D01*
X39044605Y-62565448D01*
X39320161Y-62679869D01*
X39618530Y-62680130D01*
X39894286Y-62566189D01*
X40105448Y-62355395D01*
X40140000Y-62272185D01*
X40140000Y-65279219D01*
X40104552Y-65314605D01*
X39990131Y-65590161D01*
X39989870Y-65888530D01*
X40103811Y-66164286D01*
X40314605Y-66375448D01*
X40590161Y-66489869D01*
X40888530Y-66490130D01*
X41164286Y-66376189D01*
X41375448Y-66165395D01*
X41489869Y-65889839D01*
X41490130Y-65591470D01*
X41376189Y-65315714D01*
X41340000Y-65279462D01*
X41340000Y-62272458D01*
X41373811Y-62354286D01*
X41584605Y-62565448D01*
X41860161Y-62679869D01*
X42158530Y-62680130D01*
X42434286Y-62566189D01*
X42470538Y-62530000D01*
X56789219Y-62530000D01*
X56824605Y-62565448D01*
X57100161Y-62679869D01*
X57398530Y-62680130D01*
X57674286Y-62566189D01*
X57885448Y-62355395D01*
X57920000Y-62272185D01*
X57920000Y-87081472D01*
X57920000Y-87081472D01*
G37*
X57920000Y-87081472D02*
X57136850Y-87864622D01*
X57125142Y-87836285D01*
X56745712Y-87456193D01*
X56441670Y-87329944D01*
X56743715Y-87205142D01*
X57123807Y-86825712D01*
X57329765Y-86329710D01*
X57330234Y-85792647D01*
X57125142Y-85296285D01*
X56745712Y-84916193D01*
X56441670Y-84789944D01*
X56743715Y-84665142D01*
X57123807Y-84285712D01*
X57329765Y-83789710D01*
X57330234Y-83252647D01*
X57125142Y-82756285D01*
X56745712Y-82376193D01*
X56441670Y-82249944D01*
X56743715Y-82125142D01*
X57123807Y-81745712D01*
X57329765Y-81249710D01*
X57330234Y-80712647D01*
X57125142Y-80216285D01*
X56745712Y-79836193D01*
X56441670Y-79709944D01*
X56743715Y-79585142D01*
X57123807Y-79205712D01*
X57329765Y-78709710D01*
X57330234Y-78172647D01*
X57125142Y-77676285D01*
X56745712Y-77296193D01*
X56441670Y-77169944D01*
X56743715Y-77045142D01*
X57123807Y-76665712D01*
X57329765Y-76169710D01*
X57330234Y-75632647D01*
X57125142Y-75136285D01*
X56745712Y-74756193D01*
X56723080Y-74746795D01*
X56827569Y-74703514D01*
X56910708Y-74437786D01*
X55980000Y-73507078D01*
X55049292Y-74437786D01*
X55132431Y-74703514D01*
X55240328Y-74744924D01*
X55216285Y-74754858D01*
X54836193Y-75134288D01*
X54709944Y-75438330D01*
X54585142Y-75136285D01*
X54205712Y-74756193D01*
X53901670Y-74629944D01*
X54203715Y-74505142D01*
X54583807Y-74125712D01*
X54593205Y-74103080D01*
X54636486Y-74207569D01*
X54902214Y-74290708D01*
X55832922Y-73360000D01*
X56127078Y-73360000D01*
X57057786Y-74290708D01*
X57323514Y-74207569D01*
X57545597Y-73628911D01*
X57529331Y-73009314D01*
X57323514Y-72512431D01*
X57057786Y-72429292D01*
X56127078Y-73360000D01*
X55832922Y-73360000D01*
X54902214Y-72429292D01*
X54636486Y-72512431D01*
X54595076Y-72620328D01*
X54585142Y-72596285D01*
X54271619Y-72282214D01*
X55049292Y-72282214D01*
X55980000Y-73212922D01*
X56910708Y-72282214D01*
X56827569Y-72016486D01*
X56248911Y-71794403D01*
X55629314Y-71810669D01*
X55132431Y-72016486D01*
X55049292Y-72282214D01*
X54271619Y-72282214D01*
X54205712Y-72216193D01*
X53709710Y-72010235D01*
X53172647Y-72009766D01*
X52676285Y-72214858D01*
X52296193Y-72594288D01*
X52169944Y-72898330D01*
X52045142Y-72596285D01*
X51665712Y-72216193D01*
X51169710Y-72010235D01*
X50632647Y-72009766D01*
X50136285Y-72214858D01*
X49756193Y-72594288D01*
X49550235Y-73090290D01*
X49549766Y-73627353D01*
X49754858Y-74123715D01*
X50134288Y-74503807D01*
X50438330Y-74630056D01*
X50136285Y-74754858D01*
X49756193Y-75134288D01*
X49687383Y-75300000D01*
X43528528Y-75300000D01*
X42439121Y-74210593D01*
X42547429Y-74165841D01*
X42814902Y-73898835D01*
X42959835Y-73549796D01*
X42960165Y-73171862D01*
X42815841Y-72822571D01*
X42548835Y-72555098D01*
X42199796Y-72410165D01*
X42191529Y-72410158D01*
X39000000Y-69218630D01*
X39000000Y-62520765D01*
X39044605Y-62565448D01*
X39320161Y-62679869D01*
X39618530Y-62680130D01*
X39894286Y-62566189D01*
X40105448Y-62355395D01*
X40140000Y-62272185D01*
X40140000Y-65279219D01*
X40104552Y-65314605D01*
X39990131Y-65590161D01*
X39989870Y-65888530D01*
X40103811Y-66164286D01*
X40314605Y-66375448D01*
X40590161Y-66489869D01*
X40888530Y-66490130D01*
X41164286Y-66376189D01*
X41375448Y-66165395D01*
X41489869Y-65889839D01*
X41490130Y-65591470D01*
X41376189Y-65315714D01*
X41340000Y-65279462D01*
X41340000Y-62272458D01*
X41373811Y-62354286D01*
X41584605Y-62565448D01*
X41860161Y-62679869D01*
X42158530Y-62680130D01*
X42434286Y-62566189D01*
X42470538Y-62530000D01*
X56789219Y-62530000D01*
X56824605Y-62565448D01*
X57100161Y-62679869D01*
X57398530Y-62680130D01*
X57674286Y-62566189D01*
X57885448Y-62355395D01*
X57920000Y-62272185D01*
X57920000Y-87081472D01*
G36*
X102369478Y-41858745D02*
X102510381Y-42069619D01*
X106747419Y-46306657D01*
X106700235Y-46420290D01*
X106699766Y-46957353D01*
X106904858Y-47453715D01*
X107284288Y-47833807D01*
X107780290Y-48039765D01*
X107896631Y-48039867D01*
X103568249Y-52368249D01*
X103362314Y-52676450D01*
X103362314Y-52676451D01*
X103290000Y-53040000D01*
X103290000Y-61930000D01*
X103319805Y-62079839D01*
X103362314Y-62293550D01*
X103568249Y-62601751D01*
X106108248Y-65141751D01*
X106108251Y-65141753D01*
X107378248Y-66411751D01*
X107378251Y-66411753D01*
X108370000Y-67403503D01*
X108370000Y-69156497D01*
X105116498Y-72410000D01*
X104240000Y-72410000D01*
X103936767Y-72470317D01*
X103876450Y-72482314D01*
X103568249Y-72688249D01*
X92416498Y-83840000D01*
X90869238Y-83840000D01*
X93269619Y-81439620D01*
X93410521Y-81228745D01*
X93410522Y-81228744D01*
X93460000Y-80980000D01*
X93460000Y-80191519D01*
X93487812Y-80163755D01*
X93609861Y-79869828D01*
X93610139Y-79551568D01*
X93488603Y-79257428D01*
X93460000Y-79228775D01*
X93460000Y-78951277D01*
X93626245Y-79117812D01*
X93920172Y-79239861D01*
X94238432Y-79240139D01*
X94532572Y-79118603D01*
X94757812Y-78893755D01*
X94879861Y-78599828D01*
X94880139Y-78281568D01*
X94758603Y-77987428D01*
X94730000Y-77958775D01*
X94730000Y-77681277D01*
X94896245Y-77847812D01*
X95190172Y-77969861D01*
X95508432Y-77970139D01*
X95802572Y-77848603D01*
X96027812Y-77623755D01*
X96149861Y-77329828D01*
X96150139Y-77011568D01*
X96028603Y-76717428D01*
X96000000Y-76688775D01*
X96000000Y-72359238D01*
X103089134Y-65270105D01*
X103128432Y-65270139D01*
X103422572Y-65148603D01*
X103647812Y-64923755D01*
X103769861Y-64629828D01*
X103770139Y-64311568D01*
X103648603Y-64017428D01*
X103423755Y-63792188D01*
X103129828Y-63670139D01*
X102811568Y-63669861D01*
X102517428Y-63791397D01*
X102334879Y-63973628D01*
X102153755Y-63792188D01*
X101859828Y-63670139D01*
X101541568Y-63669861D01*
X101247428Y-63791397D01*
X101080000Y-63958534D01*
X101080000Y-63277653D01*
X101584826Y-63177237D01*
X102022797Y-62884594D01*
X102315440Y-62446623D01*
X102418203Y-61930000D01*
X102315440Y-61413377D01*
X102022797Y-60975406D01*
X101584826Y-60682763D01*
X101470389Y-60660000D01*
X101584826Y-60637237D01*
X102022797Y-60344594D01*
X102315440Y-59906623D01*
X102418203Y-59390000D01*
X102315440Y-58873377D01*
X102022797Y-58435406D01*
X101584826Y-58142763D01*
X101470389Y-58120000D01*
X101584826Y-58097237D01*
X102022797Y-57804594D01*
X102315440Y-57366623D01*
X102418203Y-56850000D01*
X102315440Y-56333377D01*
X102022797Y-55895406D01*
X101584826Y-55602763D01*
X101470389Y-55580000D01*
X101584826Y-55557237D01*
X102022797Y-55264594D01*
X102315440Y-54826623D01*
X102418203Y-54310000D01*
X102315440Y-53793377D01*
X102022797Y-53355406D01*
X101584826Y-53062763D01*
X101470389Y-53040000D01*
X101584826Y-53017237D01*
X102022797Y-52724594D01*
X102315440Y-52286623D01*
X102418203Y-51770000D01*
X102315440Y-51253377D01*
X102022797Y-50815406D01*
X101584826Y-50522763D01*
X101470389Y-50500000D01*
X101584826Y-50477237D01*
X102022797Y-50184594D01*
X102315440Y-49746623D01*
X102418203Y-49230000D01*
X102315440Y-48713377D01*
X102022797Y-48275406D01*
X101584826Y-47982763D01*
X101470389Y-47960000D01*
X101584826Y-47937237D01*
X102022797Y-47644594D01*
X102315440Y-47206623D01*
X102418203Y-46690000D01*
X102315440Y-46173377D01*
X102022797Y-45735406D01*
X101584826Y-45442763D01*
X101470389Y-45420000D01*
X101584826Y-45397237D01*
X102022797Y-45104594D01*
X102315440Y-44666623D01*
X102418203Y-44150000D01*
X102315440Y-43633377D01*
X102022797Y-43195406D01*
X101584826Y-42902763D01*
X101470389Y-42880000D01*
X101584826Y-42857237D01*
X102022797Y-42564594D01*
X102315440Y-42126623D01*
X102369101Y-41856851D01*
X102369478Y-41858745D01*
X102369478Y-41858745D01*
G37*
X102369478Y-41858745D02*
X102510381Y-42069619D01*
X106747419Y-46306657D01*
X106700235Y-46420290D01*
X106699766Y-46957353D01*
X106904858Y-47453715D01*
X107284288Y-47833807D01*
X107780290Y-48039765D01*
X107896631Y-48039867D01*
X103568249Y-52368249D01*
X103362314Y-52676450D01*
X103362314Y-52676451D01*
X103290000Y-53040000D01*
X103290000Y-61930000D01*
X103319805Y-62079839D01*
X103362314Y-62293550D01*
X103568249Y-62601751D01*
X106108248Y-65141751D01*
X106108251Y-65141753D01*
X107378248Y-66411751D01*
X107378251Y-66411753D01*
X108370000Y-67403503D01*
X108370000Y-69156497D01*
X105116498Y-72410000D01*
X104240000Y-72410000D01*
X103936767Y-72470317D01*
X103876450Y-72482314D01*
X103568249Y-72688249D01*
X92416498Y-83840000D01*
X90869238Y-83840000D01*
X93269619Y-81439620D01*
X93410521Y-81228745D01*
X93410522Y-81228744D01*
X93460000Y-80980000D01*
X93460000Y-80191519D01*
X93487812Y-80163755D01*
X93609861Y-79869828D01*
X93610139Y-79551568D01*
X93488603Y-79257428D01*
X93460000Y-79228775D01*
X93460000Y-78951277D01*
X93626245Y-79117812D01*
X93920172Y-79239861D01*
X94238432Y-79240139D01*
X94532572Y-79118603D01*
X94757812Y-78893755D01*
X94879861Y-78599828D01*
X94880139Y-78281568D01*
X94758603Y-77987428D01*
X94730000Y-77958775D01*
X94730000Y-77681277D01*
X94896245Y-77847812D01*
X95190172Y-77969861D01*
X95508432Y-77970139D01*
X95802572Y-77848603D01*
X96027812Y-77623755D01*
X96149861Y-77329828D01*
X96150139Y-77011568D01*
X96028603Y-76717428D01*
X96000000Y-76688775D01*
X96000000Y-72359238D01*
X103089134Y-65270105D01*
X103128432Y-65270139D01*
X103422572Y-65148603D01*
X103647812Y-64923755D01*
X103769861Y-64629828D01*
X103770139Y-64311568D01*
X103648603Y-64017428D01*
X103423755Y-63792188D01*
X103129828Y-63670139D01*
X102811568Y-63669861D01*
X102517428Y-63791397D01*
X102334879Y-63973628D01*
X102153755Y-63792188D01*
X101859828Y-63670139D01*
X101541568Y-63669861D01*
X101247428Y-63791397D01*
X101080000Y-63958534D01*
X101080000Y-63277653D01*
X101584826Y-63177237D01*
X102022797Y-62884594D01*
X102315440Y-62446623D01*
X102418203Y-61930000D01*
X102315440Y-61413377D01*
X102022797Y-60975406D01*
X101584826Y-60682763D01*
X101470389Y-60660000D01*
X101584826Y-60637237D01*
X102022797Y-60344594D01*
X102315440Y-59906623D01*
X102418203Y-59390000D01*
X102315440Y-58873377D01*
X102022797Y-58435406D01*
X101584826Y-58142763D01*
X101470389Y-58120000D01*
X101584826Y-58097237D01*
X102022797Y-57804594D01*
X102315440Y-57366623D01*
X102418203Y-56850000D01*
X102315440Y-56333377D01*
X102022797Y-55895406D01*
X101584826Y-55602763D01*
X101470389Y-55580000D01*
X101584826Y-55557237D01*
X102022797Y-55264594D01*
X102315440Y-54826623D01*
X102418203Y-54310000D01*
X102315440Y-53793377D01*
X102022797Y-53355406D01*
X101584826Y-53062763D01*
X101470389Y-53040000D01*
X101584826Y-53017237D01*
X102022797Y-52724594D01*
X102315440Y-52286623D01*
X102418203Y-51770000D01*
X102315440Y-51253377D01*
X102022797Y-50815406D01*
X101584826Y-50522763D01*
X101470389Y-50500000D01*
X101584826Y-50477237D01*
X102022797Y-50184594D01*
X102315440Y-49746623D01*
X102418203Y-49230000D01*
X102315440Y-48713377D01*
X102022797Y-48275406D01*
X101584826Y-47982763D01*
X101470389Y-47960000D01*
X101584826Y-47937237D01*
X102022797Y-47644594D01*
X102315440Y-47206623D01*
X102418203Y-46690000D01*
X102315440Y-46173377D01*
X102022797Y-45735406D01*
X101584826Y-45442763D01*
X101470389Y-45420000D01*
X101584826Y-45397237D01*
X102022797Y-45104594D01*
X102315440Y-44666623D01*
X102418203Y-44150000D01*
X102315440Y-43633377D01*
X102022797Y-43195406D01*
X101584826Y-42902763D01*
X101470389Y-42880000D01*
X101584826Y-42857237D01*
X102022797Y-42564594D01*
X102315440Y-42126623D01*
X102369101Y-41856851D01*
X102369478Y-41858745D01*
G36*
X96891910Y-5971149D02*
X96889710Y-5970235D01*
X96352647Y-5969766D01*
X95856285Y-6174858D01*
X95476193Y-6554288D01*
X95349944Y-6858330D01*
X95225142Y-6556285D01*
X94845712Y-6176193D01*
X94349710Y-5970235D01*
X93812647Y-5969766D01*
X93316285Y-6174858D01*
X92936193Y-6554288D01*
X92730235Y-7050290D01*
X92729766Y-7587353D01*
X92934858Y-8083715D01*
X93314288Y-8463807D01*
X93810290Y-8669765D01*
X94347353Y-8670234D01*
X94352763Y-8667999D01*
X93810762Y-9210000D01*
X72759239Y-9210000D01*
X71679621Y-8130383D01*
X71679619Y-8130380D01*
X71584311Y-8035072D01*
X71672572Y-7998603D01*
X71897812Y-7773755D01*
X72019861Y-7479828D01*
X72019896Y-7439342D01*
X72949619Y-6509620D01*
X72949621Y-6509617D01*
X74029239Y-5430000D01*
X96350762Y-5430000D01*
X96891910Y-5971149D01*
X96891910Y-5971149D01*
G37*
X96891910Y-5971149D02*
X96889710Y-5970235D01*
X96352647Y-5969766D01*
X95856285Y-6174858D01*
X95476193Y-6554288D01*
X95349944Y-6858330D01*
X95225142Y-6556285D01*
X94845712Y-6176193D01*
X94349710Y-5970235D01*
X93812647Y-5969766D01*
X93316285Y-6174858D01*
X92936193Y-6554288D01*
X92730235Y-7050290D01*
X92729766Y-7587353D01*
X92934858Y-8083715D01*
X93314288Y-8463807D01*
X93810290Y-8669765D01*
X94347353Y-8670234D01*
X94352763Y-8667999D01*
X93810762Y-9210000D01*
X72759239Y-9210000D01*
X71679621Y-8130383D01*
X71679619Y-8130380D01*
X71584311Y-8035072D01*
X71672572Y-7998603D01*
X71897812Y-7773755D01*
X72019861Y-7479828D01*
X72019896Y-7439342D01*
X72949619Y-6509620D01*
X72949621Y-6509617D01*
X74029239Y-5430000D01*
X96350762Y-5430000D01*
X96891910Y-5971149D01*
M02*
