M48
;DRILL file {KiCad 4.0.7} date 03/21/19 10:54:36
;FORMAT={-:-/ absolute / metric / decimal}
FMAT,2
METRIC,TZ
T1C0.400
T2C0.700
T3C0.900
T4C1.020
T5C3.200
%
G90
G05
M71
T1
X14.07Y-69.55
X14.07Y-72.09
X16.61Y-69.55
X17.88Y-60.66
X17.88Y-61.93
X17.88Y-63.2
X21.69Y-72.09
X22.96Y-60.66
X22.96Y-86.06
X24.23Y-61.93
X24.23Y-79.71
X25.5Y-63.2
X26.77Y-61.93
X28.04Y-60.66
X29.31Y-25.1
X30.58Y-26.37
X31.85Y-4.78
X31.85Y-27.64
X33.12Y-6.05
X33.12Y-28.91
X34.39Y-7.32
X34.39Y-30.18
X35.66Y-31.45
X36.93Y-32.72
X39.47Y-25.1
X39.47Y-26.37
X39.47Y-27.64
X39.47Y-28.91
X39.47Y-30.18
X39.47Y-31.45
X39.47Y-32.72
X39.47Y-33.99
X39.47Y-58.12
X39.47Y-61.93
X40.74Y-65.74
X42.01Y-58.12
X42.01Y-60.66
X42.01Y-61.93
X43.28Y-58.12
X44.55Y-59.39
X44.55Y-60.66
X47.09Y-60.66
X49.63Y-4.78
X49.63Y-20.02
X49.63Y-32.72
X50.9Y-6.05
X52.17Y-7.32
X53.44Y-20.02
X53.44Y-23.83
X53.44Y-30.18
X54.71Y-25.1
X54.71Y-30.18
X55.98Y-32.72
X57.25Y-61.93
X58.52Y-30.18
X58.52Y-31.45
X58.52Y-60.66
X59.79Y-60.66
X61.06Y-21.29
X61.06Y-26.37
X61.06Y-30.18
X61.06Y-78.44
X62.33Y-27.64
X62.33Y-30.18
X62.33Y-84.79
X63.6Y-21.29
X64.87Y-22.56
X64.87Y-30.18
X64.87Y-59.39
X64.87Y-61.93
X66.14Y-18.75
X66.14Y-30.18
X67.41Y-4.78
X67.41Y-18.75
X67.41Y-31.45
X68.68Y-6.05
X68.68Y-30.18
X68.68Y-59.39
X69.95Y-7.32
X71.22Y-7.32
X76.3Y-28.91
X81.38Y-74.63
X81.38Y-75.9
X81.38Y-77.17
X81.38Y-78.44
X81.38Y-79.71
X82.65Y-22.56
X82.65Y-73.36
X83.92Y-72.09
X87.73Y-75.9
X87.73Y-77.17
X87.73Y-78.44
X89.Y-23.83
X89.Y-79.71
X90.27Y-80.98
X91.54Y-39.07
X91.54Y-80.98
X92.81Y-17.48
X92.81Y-32.72
X92.81Y-41.61
X92.81Y-79.71
X94.08Y-17.48
X94.08Y-35.26
X94.08Y-78.44
X95.35Y-39.07
X95.35Y-77.17
X99.16Y-17.48
X99.16Y-18.75
X101.7Y-64.47
X102.97Y-64.47
X105.51Y-78.44
X108.05Y-54.31
X108.05Y-60.66
X109.32Y-55.58
X109.32Y-58.12
X110.59Y-55.58
X110.59Y-59.39
X111.86Y-59.39
X111.86Y-61.93
X111.86Y-63.2
X111.86Y-64.47
X114.4Y-53.04
X114.4Y-78.44
X118.21Y-58.12
X118.21Y-59.39
X118.21Y-60.66
X118.21Y-61.93
X123.29Y-51.77
X123.29Y-53.04
X123.29Y-55.58
T2
X5.18Y-30.18
X5.18Y-54.31
X7.72Y-14.94
X7.72Y-42.88
X7.72Y-67.01
X11.53Y-60.66
X12.8Y-49.23
X15.34Y-40.34
X16.61Y-14.94
X16.61Y-55.58
X17.88Y-4.78
X17.88Y-96.22
X20.42Y-26.37
X20.42Y-33.99
X21.69Y-9.86
X22.96Y-65.74
X24.23Y-21.29
X24.23Y-91.14
X26.77Y-3.51
X26.77Y-30.18
X28.04Y-64.47
X30.58Y-88.6
X31.85Y-41.61
X31.85Y-60.66
X34.39Y-96.22
X35.66Y-37.8
X35.66Y-56.85
X36.93Y-44.15
X36.93Y-47.96
X36.93Y-82.25
X38.2Y-21.29
X38.2Y-51.77
X38.2Y-91.14
X39.47Y-50.5
X40.74Y-78.44
X40.74Y-84.79
X42.01Y-73.36
X43.28Y-88.6
X44.55Y-82.25
X45.82Y-73.36
X47.09Y-27.64
X48.36Y-96.22
X50.9Y-60.66
X52.17Y-67.01
X54.71Y-60.66
X57.25Y-96.22
X62.33Y-69.55
X66.14Y-65.74
X66.14Y-93.68
X68.68Y-61.93
X71.22Y-74.63
X71.22Y-80.98
X72.49Y-18.75
X76.3Y-6.05
X76.3Y-8.59
X76.3Y-93.68
X77.57Y-69.55
X86.46Y-96.22
X90.27Y-28.91
X90.27Y-37.8
X90.27Y-46.69
X90.27Y-54.31
X91.54Y-6.05
X91.54Y-8.59
X97.89Y-96.22
X102.97Y-50.5
X104.24Y-3.51
X105.51Y-12.4
X105.51Y-39.07
X106.78Y-92.41
X108.05Y-17.48
X108.05Y-23.83
X108.05Y-32.72
X110.59Y-53.04
X111.86Y-6.05
X111.86Y-51.77
X111.86Y-96.22
X113.13Y-86.06
X116.94Y-92.41
X118.21Y-49.23
X119.48Y-3.51
X119.48Y-78.44
X122.02Y-86.06
X128.37Y-12.4
X128.37Y-55.58
X128.37Y-78.44
X128.37Y-86.06
T3
X25.5Y-17.48
X26.77Y-18.75
X39.47Y-36.53
X39.47Y-39.07
X43.28Y-9.86
X43.28Y-18.75
X43.28Y-21.29
X54.71Y-18.75
X54.71Y-45.42
X55.98Y-20.02
X55.98Y-55.58
X57.25Y-45.42
X57.25Y-56.85
X58.52Y-9.86
X59.79Y-18.75
X61.06Y-9.86
X61.06Y-17.48
X61.06Y-89.87
X63.6Y-89.87
X69.95Y-87.33
X71.22Y-86.06
X72.49Y-61.93
X72.49Y-64.47
X76.3Y-14.94
X77.57Y-47.96
X78.84Y-14.94
X78.84Y-49.23
X80.11Y-59.39
X80.11Y-61.93
X80.11Y-69.55
X80.11Y-86.06
X82.65Y-89.87
X90.27Y-11.13
X91.54Y-12.4
X94.08Y-88.6
X95.35Y-87.33
X96.62Y-9.86
X96.62Y-12.4
X96.62Y-73.36
X99.16Y-73.36
X103.605Y-16.845
X105.51Y-65.74
X105.51Y-75.9
X106.78Y-67.01
X110.59Y-18.75
X110.59Y-21.29
X111.86Y-49.23
X111.86Y-67.01
X116.94Y-70.82
X119.48Y-70.82
X120.75Y-49.23
X123.29Y-33.99
X123.29Y-74.63
X124.56Y-73.36
T4
X15.34Y-73.36
X15.34Y-75.9
X15.34Y-78.44
X15.34Y-80.98
X15.34Y-83.52
X15.34Y-86.06
X15.34Y-88.6
X15.34Y-91.14
X17.88Y-73.36
X17.88Y-75.9
X17.88Y-78.44
X17.88Y-80.98
X17.88Y-83.52
X17.88Y-86.06
X17.88Y-88.6
X17.88Y-91.14
X20.42Y-73.36
X20.42Y-75.9
X20.42Y-78.44
X20.42Y-80.98
X20.42Y-83.52
X20.42Y-86.06
X20.42Y-88.6
X20.42Y-91.14
X50.9Y-73.36
X50.9Y-75.9
X50.9Y-78.44
X50.9Y-80.98
X50.9Y-83.52
X50.9Y-86.06
X50.9Y-88.6
X50.9Y-91.14
X53.44Y-73.36
X53.44Y-75.9
X53.44Y-78.44
X53.44Y-80.98
X53.44Y-83.52
X53.44Y-86.06
X53.44Y-88.6
X53.44Y-91.14
X55.98Y-73.36
X55.98Y-75.9
X55.98Y-78.44
X55.98Y-80.98
X55.98Y-83.52
X55.98Y-86.06
X55.98Y-88.6
X55.98Y-91.14
X75.03Y-67.01
X77.57Y-67.01
X80.11Y-67.01
X85.19Y-23.83
X85.19Y-26.37
X85.19Y-28.91
X85.19Y-31.45
X85.19Y-33.99
X85.19Y-36.53
X85.19Y-39.07
X85.19Y-41.61
X85.19Y-44.15
X85.19Y-46.69
X85.19Y-49.23
X85.19Y-51.77
X85.19Y-54.31
X85.19Y-56.85
X85.19Y-59.39
X85.19Y-61.93
X94.08Y-7.32
X96.62Y-7.32
X99.16Y-7.32
X100.43Y-23.83
X100.43Y-26.37
X100.43Y-28.91
X100.43Y-31.45
X100.43Y-33.99
X100.43Y-36.53
X100.43Y-39.07
X100.43Y-41.61
X100.43Y-44.15
X100.43Y-46.69
X100.43Y-49.23
X100.43Y-51.77
X100.43Y-54.31
X100.43Y-56.85
X100.43Y-59.39
X100.43Y-61.93
X101.7Y-7.32
X104.24Y-7.32
X106.78Y-7.32
X108.05Y-36.53
X108.05Y-39.07
X108.05Y-41.61
X108.05Y-44.15
X108.05Y-46.69
X113.13Y-36.53
X113.13Y-39.07
X113.13Y-41.61
X113.13Y-44.15
X113.13Y-46.69
X128.37Y-26.37
X128.37Y-28.91
X128.37Y-31.45
X128.37Y-33.99
X128.37Y-36.53
X128.37Y-39.07
X128.37Y-41.61
X128.37Y-44.15
T5
X6.45Y-92.41
X7.72Y-7.32
X124.56Y-7.32
X124.56Y-92.41
T0
M30
